<svg width="75" height="75" viewBox="0 0 75 75" fill="none" xmlns="http://www.w3.org/2000/svg">
<circle cx="37.5" cy="37.5" r="37.5" fill="#293F52"/>
<path d="M33.2821 57.9116C35.8334 60.4629 38.1638 60.4428 40.6951 57.9116L43.7888 54.8379C44.1102 54.5366 44.3914 54.416 44.8133 54.416H49.1526C52.7485 54.416 54.416 52.7687 54.416 49.1526V44.8133C54.416 44.3914 54.5366 44.1102 54.8378 43.7888L57.8913 40.695C60.4628 38.1638 60.4426 35.8335 57.8913 33.2821L54.8378 30.1883C54.5366 29.887 54.416 29.5857 54.416 29.1839V24.8245C54.416 21.2486 52.7687 19.5611 49.1526 19.5611H44.8133C44.3914 19.5611 44.1102 19.4607 43.7888 19.1593L40.6951 16.0857C38.1638 13.5343 35.8334 13.5544 33.2821 16.0857L30.1883 19.1593C29.887 19.4607 29.5856 19.5611 29.1838 19.5611H24.8245C21.2285 19.5611 19.5611 21.2085 19.5611 24.8245V29.1839C19.5611 29.5857 19.4606 29.887 19.1594 30.1883L16.0856 33.2821C13.5344 35.8335 13.5544 38.1638 16.0856 40.695L19.1594 43.7888C19.4606 44.1102 19.5611 44.3914 19.5611 44.8133V49.1526C19.5611 52.7486 21.2285 54.416 24.8245 54.416H29.1838C29.5856 54.416 29.887 54.5366 30.1883 54.8379L33.2821 57.9116ZM35.5321 55.6615L31.7552 51.8647C31.3133 51.4026 30.8513 51.2218 30.2285 51.2218H24.8245C23.0366 51.2218 22.7552 50.9405 22.7552 49.1526V43.7486C22.7552 43.1459 22.5745 42.6839 22.1325 42.2419L18.3356 38.4651C17.0701 37.1794 17.0701 36.8178 18.3356 35.5321L22.1325 31.7554C22.5745 31.3133 22.7552 30.8513 22.7552 30.2285V24.8245C22.7552 23.0164 23.0165 22.7554 24.8245 22.7554H30.2285C30.8513 22.7554 31.3133 22.5946 31.7552 22.1326L35.5321 18.3357C36.8178 17.07 37.1794 17.07 38.4651 18.3357L42.2419 22.1326C42.6838 22.5946 43.1459 22.7554 43.7486 22.7554H49.1526C50.9406 22.7554 51.2218 23.0365 51.2218 24.8245V30.2285C51.2218 30.8513 51.4227 31.3133 51.8648 31.7554L55.6614 35.5321C56.927 36.8178 56.927 37.1794 55.6614 38.4651L51.8648 42.2419C51.4227 42.6839 51.2218 43.1459 51.2218 43.7486V49.1526C51.2218 50.9405 50.9406 51.2218 49.1526 51.2218H43.7486C43.1459 51.2218 42.6838 51.4026 42.2419 51.8647L38.4651 55.6615C37.1794 56.9272 36.8178 56.9272 35.5321 55.6615ZM33.8647 46.6214C34.4473 46.6214 34.8892 46.3803 35.1906 46.0186L46.3401 30.4294C46.5611 30.1079 46.6816 29.7464 46.6816 29.4049C46.6816 28.5209 45.9986 27.8178 45.0745 27.8178C44.4116 27.8178 44.0499 28.0388 43.6482 28.6214L33.8044 42.483L28.7218 36.8781C28.3803 36.4964 27.9986 36.3357 27.4964 36.3357C26.512 36.3357 25.8089 36.9986 25.8089 37.9228C25.8089 38.3245 25.9495 38.7062 26.2308 38.9874L32.6192 46.099C32.9205 46.4205 33.3022 46.6214 33.8647 46.6214Z" fill="white"/>
</svg>
