<svg width="48" height="48" viewBox="0 0 48 48" fill="none" xmlns="http://www.w3.org/2000/svg">
<rect width="48" height="48" rx="24" fill="#293F52"/>
<path d="M20.7275 15.5H27.2725C27.3568 15.5 27.4384 15.5331 27.498 15.5928C27.5577 15.6524 27.5908 15.734 27.5908 15.8184V20.4092H32.1816C32.245 20.4092 32.3065 20.4282 32.3584 20.4629L32.4072 20.502C32.4669 20.5616 32.5 20.6432 32.5 20.7275V32.1816C32.5 32.266 32.4669 32.3476 32.4072 32.4072C32.3476 32.4669 32.266 32.5 32.1816 32.5H15.8184C15.734 32.5 15.6524 32.4669 15.5928 32.4072C15.5331 32.3476 15.5 32.266 15.5 32.1816V20.7275L15.5059 20.665C15.514 20.6242 15.5306 20.5855 15.5537 20.5508L15.5928 20.502C15.6524 20.4423 15.734 20.4092 15.8184 20.4092H20.4092V15.8184C20.4092 15.755 20.4282 15.6935 20.4629 15.6416L20.502 15.5928C20.5616 15.5331 20.6432 15.5 20.7275 15.5ZM16.1367 31.8633H20.4092V21.0459H16.1367V31.8633ZM21.0459 31.8633H23.6816V29.7275C23.6816 29.6432 23.7157 29.5616 23.7754 29.502C23.835 29.4425 23.9158 29.4092 24 29.4092C24.0842 29.4092 24.165 29.4425 24.2246 29.502C24.2843 29.5616 24.3184 29.6432 24.3184 29.7275V31.8633H26.9541V16.1367H21.0459V31.8633ZM27.5908 31.8633H31.8633V21.0459H27.5908V31.8633ZM30.0459 29.4092V30.0459H29.4092V29.4092H30.0459ZM18.5908 29.4092V30.0459H17.9541V29.4092H18.5908ZM30.0459 26.1367V26.7725H29.4092V26.1367H30.0459ZM18.5908 26.1367V26.7725H17.9541V26.1367H18.5908ZM24.3184 25.3184V25.9541H23.6816V25.3184H24.3184ZM30.0459 22.8633V23.5H29.4092V22.8633H30.0459ZM18.5908 22.8633V23.5H17.9541V22.8633H18.5908ZM24.3184 22.0459V22.6816H23.6816V22.0459H24.3184ZM24.3184 18.7725V19.4092H23.6816V18.7725H24.3184Z" stroke="white"/>
</svg>
