<svg width="48" height="48" viewBox="0 0 48 48" fill="none" xmlns="http://www.w3.org/2000/svg">
<rect width="48" height="48" rx="24" fill="#293F52"/>
<path d="M20.4406 17.5933C19.593 16.7457 18.1828 16.8241 17.5688 17.8536C16.7399 19.2433 16 20.9699 16 22.6981C16 24.8527 17.3563 26.2121 18.758 27.6169C18.9821 27.8416 19.2075 28.0674 19.4286 28.2978C19.593 28.4692 19.756 28.6421 19.9187 28.8148C21.4314 30.4201 22.9201 32 25.3019 32C27.227 32 29.0155 31.4152 30.4995 30.4136C31.4031 29.8036 31.3825 28.5352 30.6116 27.7642L29.4226 26.5753C28.716 25.8687 27.5702 25.8687 26.8636 26.5753V26.5753C26.1569 27.282 25.0112 27.282 24.3045 26.5753L21.9305 24.2013C21.2238 23.4946 21.2238 22.3489 21.9305 21.6422V21.6422C22.6372 20.9356 22.6372 19.7898 21.9305 19.0832L20.4406 17.5933Z" stroke="white" stroke-width="2" stroke-linejoin="round"/>
</svg>
