<svg width="42" height="42" viewBox="0 0 42 42" fill="none" xmlns="http://www.w3.org/2000/svg">
<path d="M42 21C42 9.40202 32.598 0 21 0C9.40202 0 0 9.40202 0 21C0 32.598 9.40202 42 21 42C32.598 42 42 32.598 42 21Z" fill="#1275B1"/>
<path d="M15.9279 11.5382C15.9279 12.9401 14.7128 14.0765 13.214 14.0765C11.7151 14.0765 10.5 12.9401 10.5 11.5382C10.5 10.1364 11.7151 9 13.214 9C14.7128 9 15.9279 10.1364 15.9279 11.5382Z" fill="white"/>
<path d="M10.8711 15.9424H15.5103V30.0002H10.8711V15.9424Z" fill="white"/>
<path d="M22.9793 15.9422H18.3401V30H22.9793C22.9793 30 22.9793 25.5744 22.9793 22.8074C22.9793 21.1464 23.5464 19.4783 25.8092 19.4783C28.3664 19.4783 28.3511 21.6518 28.3391 23.3357C28.3235 25.5366 28.3607 27.7829 28.3607 30H32.9999V22.5806C32.9606 17.8431 31.7261 15.6602 27.6648 15.6602C25.253 15.6602 23.7579 16.7552 22.9793 17.7458V15.9422Z" fill="white"/>
</svg>
