<svg width="55" height="55" viewBox="0 0 55 55" fill="none" xmlns="http://www.w3.org/2000/svg">
<circle cx="27.5" cy="27.5" r="27.5" fill="white"/>
<path d="M38.9979 31.1821H38.1476C38.1644 31.1029 38.1735 31.0198 38.1735 30.9329V23.708C38.1735 23.02 37.6153 22.4617 36.9272 22.4617H29.6984C29.0103 22.4617 28.452 23.02 28.452 23.708V30.9329C28.452 31.0198 28.4624 31.1029 28.478 31.1821H27.4277C27.4445 31.1029 27.4536 31.0198 27.4536 30.9329L27.4549 23.708C27.4549 23.02 26.8967 22.4617 26.2125 22.4617H18.9797C18.2955 22.4617 17.7372 23.02 17.7372 23.708V30.9329C17.7372 31.0198 17.7476 31.1029 17.7632 31.1821H16.9089C14.2007 31.1821 12 33.3853 12 36.0911C12 38.7968 14.2006 41 16.9089 41H38.9978C41.7034 41 43.9068 38.7968 43.9068 36.0911C43.9068 33.3853 41.7037 31.1821 38.9979 31.1821ZM32.1743 23.4588H34.2879V25.8385L33.5232 25.2829C33.3466 25.1569 33.1116 25.1569 32.9377 25.2829L32.173 25.8385L32.1743 23.4588ZM29.4492 30.9368V23.708C29.4492 23.5717 29.5621 23.4588 29.6985 23.4588H31.1772V26.8163C31.1772 27.0019 31.2836 27.1746 31.4498 27.2616C31.5199 27.2979 31.5991 27.3148 31.6757 27.3148C31.7783 27.3148 31.8822 27.281 31.9678 27.2187L33.2311 26.3008L34.4943 27.2187C34.6475 27.3278 34.8461 27.3447 35.0123 27.259C35.1785 27.172 35.285 27.0032 35.285 26.8137V23.4562H36.9273C37.0636 23.4562 37.1765 23.5691 37.1765 23.7055V30.9303C37.1765 31.0666 37.0636 31.1795 36.9273 31.1795L29.6985 31.1782C29.566 31.1821 29.4492 31.0693 29.4492 30.9368ZM21.4556 23.4588H23.5692V25.8385L22.8045 25.2829C22.628 25.1569 22.393 25.1569 22.219 25.2829L21.4543 25.8385L21.4556 23.4588ZM18.7344 30.9368V23.708C18.7344 23.5717 18.8474 23.4588 18.9798 23.4588H20.4586V26.8163C20.4586 27.0019 20.565 27.1746 20.7312 27.2616C20.8974 27.3485 21.0999 27.3317 21.2492 27.2213L22.5124 26.3034L23.7757 27.2213C23.8626 27.2849 23.9652 27.3174 24.0678 27.3174C24.1444 27.3174 24.2236 27.3005 24.2937 27.2642C24.4599 27.1772 24.5663 27.0084 24.5663 26.8189V23.4614H26.2086C26.3411 23.4614 26.454 23.5743 26.454 23.7106V30.9355C26.454 31.0718 26.3411 31.1847 26.2086 31.1847L18.9798 31.186C18.8474 31.1821 18.7344 31.0693 18.7344 30.9368ZM38.998 40.0026H16.9091C14.7527 40.0026 12.9973 38.2486 12.9973 36.0907C12.9973 33.9343 14.7525 32.1789 16.9091 32.1789H38.994C41.1505 32.1789 42.9059 33.9341 42.9059 36.0907C42.9098 38.2485 41.1545 40.0026 38.998 40.0026ZM38.3502 33.4983H17.5572C16.1278 33.4983 14.9645 34.6616 14.9645 36.091C14.9645 37.523 16.1278 38.6863 17.5572 38.6863H38.3492C39.7786 38.6863 40.9419 37.523 40.9419 36.091C40.9419 34.6616 39.7783 33.4983 38.3502 33.4983ZM22.8915 36.091C22.8915 35.2108 23.6095 34.4954 24.4871 34.4954C25.3673 34.4954 26.0853 35.2134 26.0853 36.091C26.0853 36.9712 25.3673 37.6892 24.4871 37.6892C23.6069 37.6905 22.8915 36.9725 22.8915 36.091ZM22.4462 37.6905H19.5978C19.9432 37.2491 20.1496 36.6934 20.1496 36.0923C20.1496 35.4912 19.9432 34.9355 19.5978 34.4967H22.4462C22.1009 34.9381 21.8944 35.4899 21.8944 36.0923C21.8944 36.6934 22.1009 37.2478 22.4462 37.6905ZM26.5306 34.4954H29.3751C29.0298 34.9368 28.8233 35.4886 28.8233 36.091C28.8233 36.6921 29.0298 37.2478 29.3751 37.6892H26.5267C26.872 37.2478 27.0785 36.6921 27.0785 36.091C27.0824 35.4899 26.8772 34.9342 26.5306 34.4954ZM29.8217 36.091C29.8217 35.2108 30.5397 34.4954 31.4173 34.4954C32.2975 34.4954 33.0155 35.2134 33.0155 36.091C33.0155 36.9712 32.2975 37.6892 31.4173 37.6892C30.5358 37.6905 29.8217 36.9725 29.8217 36.091ZM33.4607 34.4954H36.3091C35.9638 34.9368 35.7573 35.4886 35.7573 36.091C35.7573 36.6921 35.9638 37.2478 36.3091 37.6892H33.4607C33.806 37.2478 34.0125 36.6921 34.0125 36.091C34.0125 35.4899 33.8061 34.9342 33.4607 34.4954ZM15.9627 36.091C15.9627 35.2108 16.6806 34.4954 17.5583 34.4954C18.4385 34.4954 19.1539 35.2134 19.1539 36.091C19.1539 36.9712 18.4359 37.6892 17.5583 37.6892C16.6767 37.6905 15.9627 36.9725 15.9627 36.091ZM38.35 37.6905C37.4698 37.6905 36.7518 36.9725 36.7518 36.0923C36.7518 35.2121 37.4698 34.4967 38.35 34.4967C39.2302 34.4967 39.9456 35.2147 39.9456 36.0923C39.9443 36.9725 39.2303 37.6905 38.35 37.6905ZM21.871 29.7228C21.871 29.9981 21.6477 30.2214 21.3725 30.2214H20.1625C19.8873 30.2214 19.664 29.9981 19.664 29.7228C19.664 29.4476 19.8873 29.2243 20.1625 29.2243H21.3725C21.6451 29.2282 21.871 29.4502 21.871 29.7228ZM32.5896 29.7228C32.5896 29.9981 32.3663 30.2214 32.091 30.2214H30.8785C30.6032 30.2214 30.3799 29.9981 30.3799 29.7228C30.3799 29.4476 30.6032 29.2243 30.8785 29.2243H32.091C32.3676 29.2282 32.5896 29.4502 32.5896 29.7228ZM17.797 19.1705H22.546V20.2636C22.546 20.6129 22.7525 20.9219 23.0705 21.0517C23.177 21.0945 23.286 21.1179 23.3964 21.1179C23.6158 21.1179 23.8352 21.0309 24.0014 20.8686L26.7096 18.1604C26.8693 18.0007 26.9589 17.7852 26.9589 17.5593C26.9589 17.3334 26.8693 17.1179 26.7096 16.9582L23.9975 14.2461C23.7521 14.0033 23.3899 13.9332 23.0666 14.0669C22.7472 14.1994 22.5421 14.5083 22.5421 14.8511V15.9482L17.797 15.9469C17.3621 15.9469 17.0064 16.3026 17.0064 16.7375V18.3824C17.0051 18.8147 17.3607 19.1705 17.797 19.1705ZM18.0021 16.9374H22.6913C23.16 16.9374 23.5417 16.5557 23.5417 16.0831V15.1925L25.902 17.5554L23.5417 19.9183V19.0276C23.5417 18.5589 23.16 18.1773 22.6913 18.1773H18.0021V16.9374ZM29.7347 19.1705H34.4838V20.2636C34.4838 20.6129 34.6902 20.9219 35.0121 21.0517C35.1186 21.0945 35.2277 21.1179 35.338 21.1179C35.5574 21.1179 35.7729 21.0309 35.9391 20.8686L38.6473 18.1604C38.807 18.0007 38.8966 17.7852 38.8966 17.5593C38.8966 17.3334 38.807 17.1179 38.6473 16.9582L35.9391 14.25C35.6937 14.0047 35.3276 13.9345 35.0121 14.067C34.6928 14.1994 34.4876 14.5084 34.4876 14.855V15.9521L29.7346 15.9508C29.2997 15.9508 28.9439 16.3065 28.9439 16.7414V18.3863C28.9439 18.8148 29.2998 19.1705 29.7347 19.1705ZM29.9411 16.9374H34.6304C35.0991 16.9374 35.4807 16.5557 35.4807 16.0831V15.1925L37.841 17.5528L35.4807 19.9131V19.0225C35.4807 18.5538 35.0991 18.1721 34.6304 18.1721L29.9411 18.1708V16.9374Z" fill="black"/>
</svg>
