<svg width="260" height="343" viewBox="0 0 260 343" fill="none" xmlns="http://www.w3.org/2000/svg">
<g clip-path="url(#clip0_1666_1752)">
<g clip-path="url(#clip1_1666_1752)">
<path d="M100.037 348.238C100.018 348.259 99.9957 348.277 99.9717 348.293C99.948 348.306 99.9228 348.316 99.8968 348.324C98.9391 348.34 31.3772 343.725 30.7042 343.585L0.305964 281.412C0.322787 281.328 0.347189 281.247 0.378859 281.167C0.480276 280.998 0.585553 280.832 0.694691 280.67C13.4423 261.711 26.1952 242.756 38.9535 223.806C38.9719 223.785 38.9941 223.768 39.0191 223.756C39.0337 223.734 39.0708 223.731 39.1479 223.691C39.453 223.707 39.8213 223.727 40.1815 223.755L96.9893 227.613C100.407 227.85 103.82 228.083 107.228 228.31C108.386 228.394 108.161 228.227 108.711 229.329C109.167 230.267 109.618 231.202 110.076 232.125C119.503 251.394 128.927 270.662 138.348 289.93C138.469 290.182 138.582 290.438 138.68 290.652C138.665 290.725 138.641 290.796 138.608 290.863C125.924 309.727 113.244 328.596 100.567 347.468C100.405 347.728 100.221 347.977 100.037 348.238ZM23.8446 324.332C25.5088 327.766 27.1824 331.193 28.8651 334.612L31.823 340.654C31.8921 340.776 31.9535 340.903 32.0068 341.033C32.0547 341.18 32.1503 341.306 32.2783 341.392C32.4063 341.478 32.5594 341.519 32.7133 341.508C34.0288 341.584 35.3376 341.694 36.6574 341.773L96.4853 345.835C96.8188 345.895 97.1602 345.897 97.4945 345.841C97.4876 345.738 97.5061 345.65 97.4722 345.583C94.6081 339.711 91.7418 333.838 88.8307 327.891C67.048 326.416 45.2965 324.941 23.5763 323.464C23.5671 323.775 23.6615 324.081 23.8446 324.332ZM95.2573 316.201C96.9139 313.738 98.5738 311.269 100.237 308.795C100.407 308.543 100.567 308.281 100.751 307.988L92.1723 290.452C92.126 290.37 92.0723 290.293 92.0119 290.221C91.7867 290.199 91.7331 290.349 91.6571 290.453C91.5475 290.616 91.4379 290.779 91.3283 290.942C84.0804 301.722 76.832 312.502 69.5832 323.283L69.0555 324.068C69.2077 324.17 69.2612 324.231 69.2968 324.23C75.8092 324.682 82.3134 325.13 88.8094 325.575C89.169 325.397 89.2996 325.072 89.4838 324.798C91.4139 321.922 93.3302 319.063 95.2573 316.201ZM28.2214 314.156L24.1814 320.165C24.0104 320.419 23.8408 320.671 23.6945 320.917C23.8583 321.213 24.1107 321.143 24.3191 321.157C26.0788 321.288 27.839 321.409 29.5997 321.519C41.5336 322.334 53.4682 323.145 65.4036 323.954C65.6811 323.974 65.9607 323.985 66.2622 324.001C66.4111 323.817 66.5585 323.654 66.685 323.471C70.1432 318.328 73.6025 313.183 77.0627 308.037C77.1811 307.861 77.2647 307.661 77.3753 307.454C77.2888 307.404 77.1955 307.365 77.0982 307.341C63.0099 306.385 48.9434 305.431 34.8987 304.479C34.6109 304.657 34.3808 304.914 34.2361 305.22C32.2259 308.197 30.221 311.176 28.2214 314.156ZM79.5687 304.314C82.2143 300.38 84.8599 296.445 87.5056 292.51C88.4274 291.139 89.3531 289.762 90.2827 288.38C90.4537 288.126 90.6102 287.865 90.755 287.64C90.5484 286.971 82.0881 269.577 81.435 268.459C81.1676 268.28 80.8499 268.325 80.5499 268.306C75.4495 267.958 70.3568 267.613 65.2719 267.273C63.8158 267.176 62.3609 267.078 60.9072 266.981C60.6297 266.961 60.3508 266.954 60.0464 266.942C59.4536 267.664 48.5757 283.889 48.285 284.467C48.4997 285.129 57.2385 303.009 57.6863 303.686L78.9647 305.123C79.1743 304.854 79.3816 304.593 79.5673 304.316L79.5687 304.314ZM3.30587 282.331L21.1417 318.822C21.2744 319.094 21.4157 319.353 21.6076 319.716C22.1681 319.079 32.4523 303.784 32.7922 303.081C26.6539 290.536 20.5022 277.958 14.3371 265.347C14.2587 265.208 14.1731 265.074 14.0808 264.944C13.97 265.033 13.8652 265.129 13.7672 265.232C13.6446 265.386 13.548 265.558 13.4384 265.721C10.1029 270.682 6.76686 275.643 3.43038 280.606C2.81569 281.534 2.8179 281.343 3.30441 282.333L3.30587 282.331ZM39.2722 227.36C39.053 227.687 38.8756 227.899 38.7221 228.127L15.9816 261.948C15.5724 262.557 15.5694 262.561 15.9024 263.239C18.0949 267.725 20.2876 272.209 22.4805 276.69L34.4879 301.245C34.6191 301.519 34.759 301.781 34.9018 302.038C35.6814 302.221 50.2496 303.272 54.3814 303.456C54.5143 303.46 54.6481 303.439 54.8123 303.43C54.8015 303.138 54.7068 302.855 54.5395 302.615C53.3278 300.117 52.11 297.623 50.8861 295.133C49.7037 292.713 48.5207 290.295 47.3373 287.876L36.0086 264.763C35.8608 264.462 35.7254 264.156 35.5691 263.821L48.0926 245.195L39.5513 227.706C39.4662 227.585 39.3724 227.47 39.2708 227.363L39.2722 227.36ZM69.9042 247.957C69.8845 247.923 69.8618 247.89 69.8363 247.861C69.8184 247.841 69.796 247.826 69.771 247.817C69.6048 247.796 69.4377 247.772 69.2714 247.762C62.8948 247.325 56.5189 246.893 50.2512 246.473C50.1217 246.515 50.0963 246.52 50.0723 246.532C50.0482 246.548 50.0266 246.568 50.0081 246.59C49.9467 246.681 49.8643 246.762 49.8029 246.853C46.0133 252.489 42.2237 258.125 38.4341 263.761C38.3933 263.832 38.3585 263.906 38.3301 263.982C38.5108 264.577 46.4754 280.923 47.0102 281.813C47.1873 281.869 47.2569 281.733 47.3357 281.625C47.46 281.44 47.5872 281.251 47.7114 281.066C54.9456 270.307 62.1789 259.549 69.4112 248.793C69.6135 248.543 69.7777 248.264 69.8983 247.965L69.9042 247.957ZM115.412 248.241L106.776 230.569L41.769 226.173C41.6963 226.168 41.6213 226.219 41.5325 226.248C41.5276 226.334 41.5368 226.42 41.5599 226.503C44.4211 232.369 47.2816 238.242 50.1148 244.023L50.2692 244.127C50.2935 244.141 50.3204 244.15 50.3483 244.155C57.3333 244.642 64.3224 245.125 71.3157 245.604C85.9667 246.593 100.617 247.58 115.267 248.564C115.294 248.561 115.321 248.553 115.346 248.541C115.372 248.531 115.393 248.513 115.432 248.492C115.424 248.401 115.443 248.307 115.412 248.241ZM115.298 251.006C115.011 250.888 114.7 250.839 114.391 250.863C111.006 250.627 107.621 250.394 104.237 250.166L73.6969 248.095C72.5566 248.017 72.7545 247.929 72.1406 248.842C68.7905 253.824 65.4404 258.807 62.0903 263.789C61.8851 264.015 61.7327 264.283 61.644 264.575C61.901 264.798 62.1963 264.725 62.473 264.751C66.495 265.028 70.5199 265.302 74.5478 265.571C84.1109 266.218 93.6746 266.861 103.239 267.501C104.379 267.579 104.184 267.71 104.866 266.701C108.184 261.766 111.503 256.83 114.822 251.892C115.041 251.635 115.202 251.335 115.295 251.011L115.298 251.006ZM104.067 269.917L84.5244 268.592C84.3959 268.601 84.2684 268.62 84.1435 268.652C84.3858 269.465 84.8205 270.152 85.1678 270.884C85.5151 271.616 85.877 272.346 86.2366 273.074L87.3062 275.267L88.3772 277.458L89.4497 279.647L90.5207 281.838C90.8774 282.571 91.2298 283.3 91.5917 284.029C91.9535 284.759 92.3271 285.471 92.6816 286.211C93.0361 286.951 93.4225 287.719 93.793 288.474C94.1635 289.228 94.5043 289.937 94.8495 290.658L95.9227 292.851L96.9951 295.04L98.064 297.229L99.135 299.42L100.206 301.612L101.277 303.803C101.633 304.531 101.995 305.261 102.349 305.992C102.704 306.722 103.054 307.45 103.423 308.213L90.9545 326.756C91.1626 327.423 99.1878 343.867 99.629 344.558C99.8061 344.614 99.8829 344.486 99.9589 344.373C100.085 344.186 100.209 344.001 100.336 343.812C107.834 332.66 115.333 321.507 122.832 310.354C123.476 309.397 123.503 309.634 122.977 308.557L104.469 270.708C104.347 270.458 104.215 270.212 104.064 269.921L104.067 269.917ZM136.079 290.545C136.06 290.483 136.037 290.424 136.01 290.366L117.536 252.584C117.496 252.519 117.448 252.459 117.394 252.406C117.191 252.37 117.143 252.531 117.068 252.632C116.932 252.812 116.817 253.006 116.693 253.191L106.153 268.866C112.347 281.531 118.533 294.176 124.711 306.8C124.763 306.886 124.825 306.965 124.895 307.037C124.985 307.003 125.052 307.001 125.079 306.965C125.667 306.218 135.767 291.136 136.076 290.549L136.079 290.545Z" fill="#D7D8DD"/>
</g>
<g clip-path="url(#clip2_1666_1752)">
<path d="M108.421 230.135C108.402 230.156 108.38 230.174 108.357 230.189C108.333 230.202 108.308 230.213 108.282 230.221C107.324 230.237 39.7619 225.622 39.089 225.482L8.69073 163.309C8.70755 163.225 8.73195 163.143 8.76362 163.064C8.86504 162.894 8.97032 162.728 9.07946 162.566C21.8271 143.607 34.58 124.653 47.3383 105.703C47.3566 105.682 47.3789 105.665 47.4038 105.652C47.4185 105.631 47.4555 105.627 47.5327 105.587C47.8378 105.603 48.2061 105.623 48.5663 105.651L105.374 109.509C108.792 109.747 112.205 109.979 115.613 110.206C116.771 110.291 116.546 110.124 117.096 111.226C117.551 112.163 118.003 113.098 118.461 114.022C127.888 133.29 137.312 152.558 146.733 171.827C146.854 172.079 146.967 172.334 147.065 172.549C147.05 172.621 147.025 172.692 146.993 172.759C134.309 191.624 121.628 210.492 108.952 229.365C108.79 229.625 108.606 229.874 108.421 230.135ZM32.2293 206.229C33.8936 209.663 35.5671 213.089 37.2499 216.508L40.2078 222.55C40.2769 222.673 40.3383 222.799 40.3916 222.929C40.4395 223.076 40.535 223.202 40.6631 223.289C40.7911 223.375 40.9442 223.415 41.0981 223.404C42.4135 223.481 43.7223 223.591 45.0422 223.67L104.87 227.731C105.204 227.791 105.545 227.793 105.879 227.737C105.872 227.635 105.891 227.546 105.857 227.479C102.993 221.608 100.127 215.735 97.2155 209.787C75.4328 208.313 53.6813 206.837 31.961 205.36C31.9519 205.672 32.0462 205.977 32.2293 206.229ZM103.642 198.098C105.299 195.634 106.959 193.165 108.622 190.691C108.792 190.439 108.952 190.178 109.136 189.885L100.557 172.349C100.511 172.267 100.457 172.19 100.397 172.118C100.172 172.096 100.118 172.246 100.042 172.349C99.9323 172.513 99.8227 172.676 99.713 172.839C92.4652 183.618 85.2168 194.398 77.9679 205.179L77.4403 205.964C77.5924 206.066 77.646 206.128 77.6816 206.126C84.194 206.578 90.6982 207.027 97.1941 207.472C97.5537 207.294 97.6843 206.968 97.8685 206.694C99.7987 203.819 101.715 200.959 103.642 198.098ZM36.6062 196.053L32.5662 202.061C32.3951 202.316 32.2256 202.568 32.0793 202.814C32.2431 203.11 32.4955 203.04 32.7039 203.054C34.4636 203.185 36.2238 203.305 37.9845 203.416C49.9184 204.23 61.853 205.042 73.7884 205.851C74.0658 205.87 74.3455 205.881 74.647 205.898C74.7959 205.714 74.9433 205.551 75.0697 205.368C78.528 200.224 81.9873 195.079 85.4475 189.933C85.5659 189.757 85.6495 189.558 85.76 189.351C85.6736 189.3 85.5803 189.262 85.483 189.237C71.3947 188.281 57.3282 187.327 43.2835 186.375C42.9957 186.553 42.7655 186.811 42.6209 187.117C40.6107 190.094 38.6058 193.073 36.6062 196.053ZM87.9535 186.211C90.5991 182.276 93.2447 178.341 95.8903 174.407C96.8121 173.036 97.7379 171.659 98.6675 170.276C98.8385 170.022 98.995 169.761 99.1397 169.536C98.9331 168.867 90.4728 151.474 89.8197 150.356C89.5523 150.176 89.2347 150.221 88.9347 150.203C83.8342 149.854 78.7416 149.51 73.6566 149.17C72.2005 149.072 70.7456 148.975 69.292 148.877C69.0145 148.858 68.7355 148.85 68.4312 148.838C67.8384 149.56 56.9605 165.785 56.6698 166.363C56.8844 167.025 65.6232 184.906 66.071 185.582L87.3495 187.02C87.559 186.75 87.7664 186.489 87.952 186.213L87.9535 186.211ZM11.6906 164.227L29.5265 200.718C29.6591 200.991 29.8005 201.25 29.9923 201.612C30.5528 200.976 40.8371 185.681 41.177 184.978C35.0387 172.433 28.887 159.855 22.7219 147.243C22.6435 147.105 22.5579 146.97 22.4656 146.841C22.3547 146.929 22.25 147.026 22.152 147.128C22.0293 147.283 21.9328 147.455 21.8231 147.618C18.4876 152.578 15.1516 157.54 11.8151 162.502C11.2005 163.43 11.2027 163.239 11.6892 164.229L11.6906 164.227ZM47.657 109.257C47.4377 109.583 47.2604 109.795 47.1069 110.023L24.3664 143.844C23.9571 144.453 23.9542 144.457 24.2872 145.136C26.4796 149.622 28.6723 154.105 30.8653 158.587L42.8727 183.141C43.0038 183.416 43.1437 183.677 43.2866 183.934C44.0662 184.117 58.6343 185.169 62.7662 185.352C62.8991 185.356 63.0329 185.336 63.1971 185.326C63.1863 185.034 63.0916 184.751 62.9242 184.511C61.7125 182.013 60.4947 179.519 59.2709 177.03C58.0884 174.61 56.9055 172.191 55.722 169.773L44.3933 146.66C44.2456 146.358 44.1102 146.053 43.9539 145.717L56.4774 127.091L47.9361 109.602C47.8509 109.481 47.7572 109.367 47.6555 109.259L47.657 109.257ZM78.289 129.853C78.2693 129.819 78.2466 129.787 78.221 129.757C78.2031 129.737 78.1808 129.722 78.1558 129.713C77.9895 129.693 77.8225 129.669 77.6562 129.658C71.2796 129.222 64.9037 128.789 58.636 128.369C58.5065 128.411 58.481 128.416 58.457 128.429C58.433 128.445 58.4114 128.464 58.3929 128.487C58.3315 128.578 58.249 128.658 58.1877 128.749C54.3981 134.386 50.6085 140.022 46.8189 145.658C46.778 145.728 46.7432 145.802 46.7148 145.878C46.8956 146.473 54.8601 162.82 55.395 163.71C55.5721 163.766 55.6416 163.63 55.7205 163.522C55.8448 163.337 55.9719 163.148 56.0962 162.963C63.3304 152.204 70.5637 141.446 77.796 130.69C77.9983 130.439 78.1625 130.16 78.2831 129.862L78.289 129.853ZM123.796 130.138L115.161 112.466L50.1537 108.069C50.0811 108.065 50.0061 108.115 49.9173 108.144C49.9124 108.23 49.9216 108.316 49.9446 108.399C52.8059 114.266 55.6664 120.138 58.4996 125.919L58.654 126.023C58.6783 126.037 58.7051 126.047 58.733 126.051C65.718 126.539 72.7072 127.022 79.7005 127.5C94.3514 128.49 109.002 129.476 123.652 130.461C123.679 130.457 123.706 130.45 123.73 130.438C123.757 130.427 123.778 130.41 123.817 130.389C123.809 130.298 123.828 130.203 123.796 130.138ZM123.683 132.903C123.396 132.785 123.085 132.736 122.775 132.76C119.391 132.523 116.006 132.291 112.622 132.063L82.0817 129.992C80.9413 129.913 81.1393 129.825 80.5254 130.738C77.1753 135.721 73.8251 140.703 70.475 145.686C70.2699 145.911 70.1175 146.18 70.0287 146.472C70.2858 146.695 70.581 146.622 70.8577 146.647C74.8798 146.925 78.9047 147.198 82.9326 147.468C92.4957 148.115 102.059 148.758 111.623 149.397C112.764 149.476 112.569 149.606 113.25 148.597C116.568 143.662 119.887 138.726 123.207 133.789C123.426 133.532 123.587 133.231 123.68 132.907L123.683 132.903ZM112.452 151.813L92.9092 150.489C92.7807 150.497 92.6532 150.517 92.5282 150.548C92.7706 151.361 93.2053 152.048 93.5526 152.781C93.8999 153.513 94.2617 154.242 94.6214 154.97L95.6909 157.164L96.762 159.355L97.8344 161.544L98.9054 163.735C99.2622 164.467 99.6146 165.196 99.9764 165.926C100.338 166.655 100.712 167.367 101.066 168.108C101.421 168.848 101.807 169.616 102.178 170.37C102.548 171.124 102.889 171.833 103.234 172.555L104.307 174.747L105.38 176.936L106.449 179.126L107.52 181.317L108.591 183.508L109.662 185.699C110.018 186.428 110.38 187.157 110.734 187.888C111.089 188.619 111.439 189.347 111.807 190.109L99.3393 208.652C99.5474 209.319 107.573 225.763 108.014 226.455C108.191 226.511 108.268 226.382 108.344 226.269C108.469 226.082 108.594 225.898 108.721 225.708C116.219 214.556 123.718 203.404 131.217 192.25C131.86 191.294 131.888 191.53 131.362 190.454L112.854 152.605C112.731 152.355 112.6 152.109 112.449 151.818L112.452 151.813ZM144.464 172.441C144.445 172.38 144.422 172.32 144.395 172.262L125.921 134.48C125.881 134.415 125.833 134.356 125.779 134.302C125.575 134.267 125.527 134.427 125.453 134.528C125.316 134.708 125.202 134.902 125.077 135.087L114.537 150.763C120.732 163.428 126.918 176.072 133.095 188.696C133.148 188.782 133.21 188.862 133.28 188.934C133.369 188.899 133.437 188.897 133.464 188.862C134.052 188.114 144.151 173.033 144.461 172.445L144.464 172.441Z" fill="#D7D8DD"/>
</g>
<g clip-path="url(#clip3_1666_1752)">
<path d="M206.246 295.91C206.227 295.931 206.205 295.949 206.181 295.964C206.157 295.978 206.132 295.988 206.106 295.996C205.148 296.012 137.586 291.397 136.913 291.257L106.515 229.084C106.532 229 106.556 228.918 106.588 228.839C106.689 228.67 106.795 228.504 106.904 228.341C119.651 209.382 132.404 190.428 145.162 171.478C145.181 171.457 145.203 171.44 145.228 171.428C145.243 171.406 145.28 171.402 145.357 171.363C145.662 171.379 146.03 171.399 146.391 171.426L203.198 175.285C206.616 175.522 210.029 175.755 213.437 175.982C214.595 176.066 214.37 175.899 214.92 177.001C215.376 177.939 215.827 178.873 216.285 179.797C225.712 199.066 235.136 218.334 244.557 237.602C244.678 237.854 244.791 238.109 244.889 238.324C244.874 238.397 244.85 238.467 244.817 238.535C232.133 257.399 219.453 276.268 206.776 295.14C206.614 295.4 206.43 295.649 206.246 295.91ZM130.054 272.004C131.718 275.438 133.391 278.865 135.074 282.284L138.032 288.326C138.101 288.448 138.162 288.575 138.216 288.705C138.264 288.851 138.359 288.978 138.487 289.064C138.615 289.15 138.768 289.191 138.922 289.18C140.238 289.256 141.547 289.366 142.866 289.445L202.694 293.507C203.028 293.567 203.369 293.569 203.703 293.513C203.697 293.41 203.715 293.322 203.681 293.255C200.817 287.383 197.951 281.51 195.04 275.563C173.257 274.088 151.505 272.612 129.785 271.136C129.776 271.447 129.87 271.752 130.054 272.004ZM201.466 263.873C203.123 261.41 204.783 258.941 206.446 256.467C206.616 256.215 206.776 255.953 206.96 255.66L198.381 238.124C198.335 238.042 198.281 237.965 198.221 237.893C197.996 237.871 197.942 238.021 197.866 238.125C197.757 238.288 197.647 238.451 197.537 238.614C190.289 249.393 183.041 260.174 175.792 270.955L175.264 271.739C175.417 271.842 175.47 271.903 175.506 271.902C182.018 272.354 188.522 272.802 195.018 273.247C195.378 273.069 195.509 272.743 195.693 272.469C197.623 269.594 199.539 266.735 201.466 263.873ZM134.43 261.828L130.39 267.837C130.219 268.091 130.05 268.343 129.904 268.589C130.067 268.885 130.32 268.815 130.528 268.829C132.288 268.96 134.048 269.081 135.809 269.191C147.743 270.006 159.677 270.817 171.613 271.626C171.89 271.645 172.17 271.657 172.471 271.673C172.62 271.489 172.768 271.326 172.894 271.143C176.352 266 179.811 260.855 183.272 255.709C183.39 255.532 183.474 255.333 183.584 255.126C183.498 255.075 183.405 255.037 183.307 255.013C169.219 254.057 155.152 253.103 141.108 252.151C140.82 252.329 140.59 252.586 140.445 252.892C138.435 255.869 136.43 258.848 134.43 261.828ZM185.778 251.986C188.423 248.051 191.069 244.117 193.715 240.182C194.636 238.811 195.562 237.434 196.492 236.052C196.663 235.797 196.819 235.536 196.964 235.312C196.757 234.643 188.297 217.249 187.644 216.131C187.377 215.952 187.059 215.997 186.759 215.978C181.658 215.63 176.566 215.285 171.481 214.945C170.025 214.848 168.57 214.75 167.116 214.653C166.839 214.633 166.56 214.626 166.255 214.614C165.663 215.336 154.785 231.561 154.494 232.139C154.709 232.801 163.447 250.681 163.895 251.358L185.174 252.795C185.383 252.526 185.591 252.264 185.776 251.988L185.778 251.986ZM109.515 230.002L127.351 266.494C127.483 266.766 127.625 267.025 127.817 267.388C128.377 266.751 138.661 251.456 139.001 250.753C132.863 238.208 126.711 225.63 120.546 213.019C120.468 212.88 120.382 212.746 120.29 212.616C120.179 212.705 120.074 212.801 119.976 212.904C119.854 213.058 119.757 213.23 119.647 213.393C116.312 218.354 112.976 223.315 109.639 228.277C109.025 229.206 109.027 229.015 109.513 230.005L109.515 230.002ZM145.481 175.032C145.262 175.358 145.085 175.571 144.931 175.799L122.191 209.62C121.781 210.229 121.778 210.233 122.111 210.911C124.304 215.397 126.497 219.881 128.69 224.362L140.697 248.917C140.828 249.191 140.968 249.453 141.111 249.71C141.89 249.893 156.459 250.944 160.59 251.128C160.723 251.132 160.857 251.111 161.021 251.102C161.011 250.81 160.916 250.527 160.748 250.287C159.537 247.789 158.319 245.295 157.095 242.805C155.913 240.385 154.73 237.966 153.546 235.548L142.218 212.435C142.07 212.134 141.934 211.828 141.778 211.492L154.302 192.867L145.76 175.378C145.675 175.257 145.581 175.142 145.48 175.035L145.481 175.032ZM176.113 195.629C176.094 195.595 176.071 195.562 176.045 195.532C176.027 195.513 176.005 195.498 175.98 195.489C175.814 195.468 175.647 195.444 175.48 195.434C169.104 194.997 162.728 194.564 156.46 194.144C156.331 194.187 156.305 194.192 156.281 194.204C156.257 194.22 156.236 194.24 156.217 194.262C156.156 194.353 156.073 194.434 156.012 194.525C152.222 200.161 148.433 205.797 144.643 211.433C144.602 211.504 144.567 211.577 144.539 211.654C144.72 212.249 152.684 228.595 153.219 229.485C153.396 229.541 153.466 229.405 153.545 229.297C153.669 229.112 153.796 228.923 153.92 228.738C161.155 217.979 168.388 207.221 175.62 196.465C175.823 196.215 175.987 195.936 176.107 195.637L176.113 195.629ZM221.621 195.913L212.985 178.241L147.978 173.845C147.905 173.84 147.83 173.891 147.742 173.919C147.737 174.005 147.746 174.092 147.769 174.175C150.63 180.041 153.491 185.913 156.324 191.695L156.478 191.799C156.503 191.813 156.529 191.822 156.557 191.826C163.542 192.314 170.531 192.797 177.525 193.276C192.176 194.265 206.826 195.252 221.476 196.236C221.503 196.233 221.53 196.225 221.555 196.213C221.581 196.202 221.602 196.185 221.641 196.164C221.633 196.073 221.652 195.979 221.621 195.913ZM221.507 198.678C221.22 198.56 220.909 198.511 220.6 198.535C217.215 198.298 213.83 198.066 210.446 197.838L179.906 195.767C178.766 195.688 178.964 195.601 178.35 196.514C174.999 201.496 171.649 206.479 168.299 211.461C168.094 211.687 167.942 211.955 167.853 212.247C168.11 212.47 168.405 212.397 168.682 212.422C172.704 212.7 176.729 212.974 180.757 213.243C190.32 213.89 199.884 214.533 209.448 215.173C210.588 215.251 210.393 215.382 211.075 214.372C214.393 209.438 217.712 204.502 221.031 199.564C221.25 199.307 221.411 199.007 221.504 198.683L221.507 198.678ZM210.276 217.589L190.733 216.264C190.605 216.272 190.477 216.292 190.352 216.324C190.595 217.137 191.029 217.824 191.377 218.556C191.724 219.288 192.086 220.018 192.446 220.746L193.515 222.939L194.586 225.13L195.659 227.319L196.73 229.51C197.086 230.242 197.439 230.972 197.801 231.701C198.162 232.431 198.536 233.143 198.891 233.883C199.245 234.623 199.632 235.391 200.002 236.145C200.372 236.9 200.713 237.609 201.058 238.33L202.132 240.523L203.204 242.712L204.273 244.901L205.344 247.092L206.415 249.283L207.486 251.475C207.842 252.203 208.204 252.933 208.558 253.664C208.913 254.394 209.263 255.122 209.631 255.884L197.164 274.428C197.372 275.095 205.397 291.539 205.838 292.23C206.015 292.286 206.092 292.158 206.168 292.045C206.294 291.858 206.418 291.673 206.545 291.484C214.043 280.332 221.542 269.179 229.041 258.026C229.684 257.069 229.712 257.306 229.186 256.229L210.678 218.38C210.556 218.13 210.424 217.884 210.273 217.593L210.276 217.589ZM242.288 238.217C242.269 238.155 242.246 238.095 242.219 238.038L223.745 200.256C223.705 200.191 223.657 200.131 223.603 200.078C223.4 200.042 223.352 200.202 223.277 200.304C223.141 200.484 223.026 200.678 222.902 200.863L212.362 216.538C218.556 229.203 224.742 241.848 230.92 254.472C230.972 254.558 231.034 254.637 231.104 254.709C231.194 254.675 231.261 254.673 231.288 254.637C231.876 253.89 241.976 238.808 242.285 238.221L242.288 238.217Z" fill="#D7D8DD"/>
</g>
<g clip-path="url(#clip4_1666_1752)">
<path d="M198.952 413.799C198.933 413.82 198.911 413.838 198.887 413.853C198.863 413.866 198.838 413.877 198.812 413.885C197.854 413.901 130.292 409.286 129.619 409.146L99.221 346.973C99.2378 346.889 99.2622 346.807 99.2939 346.728C99.3953 346.558 99.5006 346.392 99.6097 346.23C112.357 327.271 125.11 308.317 137.869 289.367C137.887 289.346 137.909 289.329 137.934 289.316C137.949 289.295 137.986 289.291 138.063 289.251C138.368 289.267 138.736 289.288 139.097 289.315L195.904 293.173C199.322 293.411 202.735 293.643 206.143 293.87C207.301 293.955 207.076 293.788 207.626 294.89C208.082 295.827 208.533 296.762 208.991 297.686C218.418 316.954 227.842 336.222 237.263 355.491C237.384 355.743 237.497 355.998 237.595 356.213C237.58 356.286 237.556 356.356 237.523 356.423C224.839 375.288 212.159 394.156 199.482 413.029C199.32 413.289 199.137 413.538 198.952 413.799ZM122.76 389.893C124.424 393.327 126.097 396.753 127.78 400.172L130.738 406.214C130.807 406.337 130.869 406.463 130.922 406.594C130.97 406.74 131.065 406.867 131.193 406.953C131.321 407.039 131.474 407.08 131.628 407.069C132.944 407.145 134.253 407.255 135.572 407.334L195.4 411.395C195.734 411.455 196.075 411.457 196.409 411.401C196.403 411.299 196.421 411.21 196.387 411.143C193.523 405.272 190.657 399.399 187.746 393.451C165.963 391.977 144.212 390.501 122.491 389.024C122.482 389.336 122.576 389.641 122.76 389.893ZM194.172 381.762C195.829 379.298 197.489 376.829 199.152 374.356C199.322 374.103 199.482 373.842 199.666 373.549L191.087 356.013C191.041 355.931 190.987 355.854 190.927 355.782C190.702 355.76 190.648 355.91 190.572 356.014C190.463 356.177 190.353 356.34 190.243 356.503C182.995 367.282 175.747 378.062 168.498 388.843L167.971 389.628C168.123 389.73 168.176 389.792 168.212 389.79C174.724 390.242 181.228 390.691 187.724 391.136C188.084 390.958 188.215 390.632 188.399 390.358C190.329 387.483 192.245 384.623 194.172 381.762ZM127.136 379.717L123.096 385.725C122.925 385.98 122.756 386.232 122.61 386.478C122.773 386.774 123.026 386.704 123.234 386.718C124.994 386.849 126.754 386.969 128.515 387.08C140.449 387.894 152.383 388.706 164.319 389.515C164.596 389.534 164.876 389.545 165.177 389.562C165.326 389.378 165.474 389.215 165.6 389.032C169.058 383.888 172.518 378.743 175.978 373.597C176.096 373.421 176.18 373.222 176.29 373.015C176.204 372.964 176.111 372.926 176.013 372.901C161.925 371.945 147.858 370.991 133.814 370.039C133.526 370.217 133.296 370.475 133.151 370.781C131.141 373.758 129.136 376.737 127.136 379.717ZM178.484 369.875C181.129 365.94 183.775 362.005 186.421 358.071C187.342 356.7 188.268 355.323 189.198 353.94C189.369 353.686 189.525 353.425 189.67 353.2C189.463 352.531 181.003 335.138 180.35 334.02C180.083 333.84 179.765 333.885 179.465 333.867C174.365 333.518 169.272 333.174 164.187 332.834C162.731 332.736 161.276 332.639 159.822 332.541C159.545 332.522 159.266 332.514 158.961 332.502C158.369 333.224 147.491 349.449 147.2 350.027C147.415 350.689 156.154 368.57 156.601 369.247L177.88 370.684C178.089 370.415 178.297 370.153 178.482 369.877L178.484 369.875ZM102.221 347.891L120.057 384.382C120.189 384.655 120.331 384.914 120.523 385.276C121.083 384.64 131.367 369.345 131.707 368.642C125.569 356.097 119.417 343.519 113.252 330.907C113.174 330.769 113.088 330.634 112.996 330.505C112.885 330.593 112.78 330.69 112.682 330.792C112.56 330.947 112.463 331.119 112.353 331.282C109.018 336.242 105.682 341.204 102.345 346.166C101.731 347.094 101.733 346.903 102.219 347.893L102.221 347.891ZM138.187 292.921C137.968 293.247 137.791 293.459 137.637 293.688L114.897 327.509C114.487 328.117 114.484 328.122 114.817 328.8C117.01 333.286 119.203 337.769 121.396 342.251L133.403 366.805C133.534 367.08 133.674 367.341 133.817 367.598C134.596 367.782 149.165 368.833 153.296 369.016C153.429 369.02 153.563 369 153.727 368.99C153.717 368.698 153.622 368.415 153.455 368.176C152.243 365.677 151.025 363.183 149.801 360.694C148.619 358.274 147.436 355.855 146.252 353.437L134.924 330.324C134.776 330.022 134.64 329.717 134.484 329.381L147.008 310.755L138.466 293.266C138.381 293.145 138.287 293.031 138.186 292.923L138.187 292.921ZM168.819 313.517C168.8 313.483 168.777 313.451 168.751 313.421C168.733 313.401 168.711 313.386 168.686 313.377C168.52 313.357 168.353 313.333 168.186 313.322C161.81 312.886 155.434 312.453 149.166 312.033C149.037 312.076 149.011 312.08 148.987 312.093C148.963 312.109 148.942 312.128 148.923 312.151C148.862 312.242 148.779 312.322 148.718 312.414C144.928 318.05 141.139 323.686 137.349 329.322C137.308 329.392 137.274 329.466 137.245 329.542C137.426 330.137 145.39 346.484 145.925 347.374C146.102 347.43 146.172 347.294 146.251 347.186C146.375 347.001 146.502 346.812 146.626 346.627C153.861 335.868 161.094 325.11 168.326 314.354C168.529 314.103 168.693 313.824 168.813 313.526L168.819 313.517ZM214.327 313.802L205.691 296.13L140.684 291.733C140.611 291.729 140.536 291.779 140.448 291.808C140.443 291.894 140.452 291.98 140.475 292.063C143.336 297.93 146.197 303.802 149.03 309.583L149.184 309.687C149.209 309.702 149.235 309.711 149.263 309.715C156.248 310.203 163.237 310.686 170.231 311.164C184.882 312.154 199.532 313.14 214.182 314.125C214.209 314.121 214.236 314.114 214.261 314.102C214.287 314.091 214.308 314.074 214.347 314.053C214.339 313.962 214.358 313.868 214.327 313.802ZM214.213 316.567C213.926 316.449 213.615 316.4 213.306 316.424C209.921 316.187 206.536 315.955 203.152 315.727L172.612 313.656C171.472 313.577 171.67 313.489 171.056 314.402C167.706 319.385 164.355 324.367 161.005 329.35C160.8 329.575 160.648 329.844 160.559 330.136C160.816 330.359 161.111 330.286 161.388 330.311C165.41 330.589 169.435 330.863 173.463 331.132C183.026 331.779 192.59 332.422 202.154 333.061C203.294 333.14 203.099 333.271 203.781 332.261C207.099 327.326 210.418 322.39 213.738 317.453C213.956 317.196 214.117 316.895 214.21 316.571L214.213 316.567ZM202.982 335.477L183.439 334.153C183.311 334.161 183.183 334.181 183.059 334.212C183.301 335.026 183.736 335.712 184.083 336.445C184.43 337.177 184.792 337.906 185.152 338.634L186.221 340.828L187.292 343.019L188.365 345.208L189.436 347.399C189.792 348.131 190.145 348.86 190.507 349.59C190.869 350.319 191.242 351.031 191.597 351.772C191.951 352.512 192.338 353.28 192.708 354.034C193.079 354.788 193.419 355.497 193.765 356.219L194.838 358.411L195.91 360.6L196.979 362.79L198.05 364.981L199.121 367.172L200.192 369.363C200.548 370.092 200.91 370.821 201.264 371.552C201.619 372.283 201.969 373.011 202.338 373.773L189.87 392.316C190.078 392.983 198.103 409.428 198.544 410.119C198.721 410.175 198.798 410.046 198.874 409.933C199 409.746 199.124 409.562 199.251 409.372C206.749 398.221 214.248 387.068 221.747 375.914C222.391 374.958 222.418 375.194 221.892 374.118L203.384 336.269C203.262 336.019 203.13 335.773 202.979 335.482L202.982 335.477ZM234.994 356.105C234.975 356.044 234.952 355.984 234.925 355.926L216.451 318.144C216.411 318.079 216.363 318.02 216.309 317.966C216.106 317.931 216.058 318.091 215.983 318.193C215.847 318.372 215.732 318.566 215.608 318.751L205.068 334.427C211.262 347.092 217.448 359.736 223.626 372.36C223.678 372.446 223.74 372.526 223.81 372.598C223.9 372.563 223.967 372.562 223.994 372.526C224.582 371.779 234.682 356.697 234.991 356.11L234.994 356.105Z" fill="#D7D8DD"/>
</g>
<g clip-path="url(#clip5_1666_1752)">
<path d="M296.775 479.574C296.756 479.595 296.734 479.613 296.71 479.628C296.686 479.642 296.661 479.652 296.635 479.66C295.677 479.676 228.115 475.061 227.442 474.921L197.044 412.748C197.061 412.664 197.085 412.583 197.117 412.503C197.219 412.334 197.324 412.168 197.433 412.006C210.181 393.046 222.934 374.092 235.692 355.142C235.71 355.121 235.732 355.104 235.757 355.092C235.772 355.07 235.809 355.067 235.886 355.027C236.191 355.043 236.56 355.063 236.92 355.091L293.728 358.949C297.145 359.186 300.558 359.419 303.966 359.646C305.125 359.73 304.899 359.563 305.449 360.665C305.905 361.603 306.356 362.538 306.814 363.461C316.242 382.73 325.666 401.998 335.087 421.266C335.208 421.518 335.32 421.773 335.419 421.988C335.403 422.061 335.379 422.132 335.347 422.199C322.662 441.063 309.982 459.932 297.305 478.804C297.143 479.064 296.96 479.313 296.775 479.574ZM220.583 455.668C222.247 459.102 223.921 462.529 225.603 465.948L228.561 471.99C228.63 472.112 228.692 472.239 228.745 472.369C228.793 472.516 228.889 472.642 229.017 472.728C229.145 472.814 229.298 472.855 229.452 472.844C230.767 472.92 232.076 473.03 233.396 473.109L293.224 477.171C293.557 477.231 293.899 477.233 294.233 477.177C294.226 477.074 294.244 476.986 294.211 476.919C291.346 471.047 288.48 465.174 285.569 459.227C263.786 457.752 242.035 456.277 220.315 454.8C220.305 455.111 220.4 455.417 220.583 455.668ZM291.996 447.537C293.652 445.074 295.312 442.605 296.975 440.131C297.145 439.879 297.305 439.617 297.489 439.324L288.911 421.788C288.864 421.706 288.811 421.629 288.75 421.557C288.525 421.535 288.471 421.685 288.395 421.789C288.286 421.952 288.176 422.115 288.067 422.278C280.819 433.058 273.57 443.838 266.321 454.619L265.794 455.403C265.946 455.506 265.999 455.567 266.035 455.566C272.547 456.018 279.052 456.466 285.548 456.911C285.907 456.733 286.038 456.407 286.222 456.134C288.152 453.258 290.068 450.399 291.996 447.537ZM224.96 445.492L220.92 451.501C220.749 451.755 220.579 452.007 220.433 452.253C220.597 452.549 220.849 452.479 221.057 452.493C222.817 452.624 224.577 452.745 226.338 452.855C238.272 453.67 250.207 454.481 262.142 455.29C262.419 455.309 262.699 455.321 263 455.337C263.149 455.153 263.297 454.99 263.423 454.807C266.882 449.664 270.341 444.519 273.801 439.373C273.919 439.197 274.003 438.997 274.114 438.79C274.027 438.739 273.934 438.701 273.836 438.677C259.748 437.721 245.682 436.767 231.637 435.815C231.349 435.993 231.119 436.25 230.974 436.556C228.964 439.533 226.959 442.512 224.96 445.492ZM276.307 435.65C278.953 431.716 281.598 427.781 284.244 423.846C285.166 422.475 286.091 421.098 287.021 419.716C287.192 419.461 287.349 419.2 287.493 418.976C287.287 418.307 278.826 400.913 278.173 399.795C277.906 399.616 277.588 399.661 277.288 399.642C272.188 399.294 267.095 398.949 262.01 398.609C260.554 398.512 259.099 398.414 257.645 398.317C257.368 398.297 257.089 398.29 256.785 398.278C256.192 399 245.314 415.225 245.023 415.803C245.238 416.465 253.977 434.345 254.425 435.022L275.703 436.459C275.913 436.19 276.12 435.928 276.306 435.652L276.307 435.65ZM200.044 413.667L217.88 450.158C218.013 450.43 218.154 450.689 218.346 451.052C218.906 450.415 229.191 435.12 229.53 434.417C223.392 421.872 217.241 409.294 211.075 396.683C210.997 396.544 210.911 396.41 210.819 396.28C210.708 396.369 210.604 396.465 210.506 396.568C210.383 396.722 210.286 396.894 210.177 397.057C206.841 402.018 203.505 406.979 200.169 411.941C199.554 412.87 199.556 412.679 200.043 413.669L200.044 413.667ZM236.011 358.696C235.791 359.022 235.614 359.235 235.46 359.463L212.72 393.284C212.311 393.893 212.308 393.897 212.641 394.575C214.833 399.061 217.026 403.545 219.219 408.026L231.226 432.581C231.357 432.855 231.497 433.117 231.64 433.374C232.42 433.557 246.988 434.608 251.12 434.792C251.253 434.796 251.386 434.775 251.551 434.766C251.54 434.474 251.445 434.191 251.278 433.951C250.066 431.453 248.848 428.959 247.624 426.469C246.442 424.049 245.259 421.63 244.076 419.212L232.747 396.099C232.599 395.798 232.464 395.492 232.307 395.156L244.831 376.531L236.29 359.042C236.204 358.921 236.111 358.806 236.009 358.699L236.011 358.696ZM266.642 379.293C266.623 379.259 266.6 379.226 266.575 379.196C266.557 379.177 266.534 379.162 266.509 379.153C266.343 379.132 266.176 379.108 266.01 379.098C259.633 378.661 253.257 378.229 246.99 377.809C246.86 377.851 246.835 377.856 246.811 377.868C246.787 377.884 246.765 377.904 246.746 377.926C246.685 378.017 246.603 378.098 246.541 378.189C242.752 383.825 238.962 389.461 235.172 395.097C235.132 395.168 235.097 395.241 235.068 395.318C235.249 395.913 243.214 412.259 243.749 413.149C243.926 413.205 243.995 413.069 244.074 412.961C244.198 412.776 244.325 412.587 244.45 412.402C251.684 401.643 258.917 390.885 266.149 380.129C266.352 379.879 266.516 379.6 266.637 379.301L266.642 379.293ZM312.15 379.577L303.514 361.905L238.507 357.509C238.435 357.504 238.36 357.555 238.271 357.584C238.266 357.669 238.275 357.756 238.298 357.839C241.159 363.705 244.02 369.577 246.853 375.359L247.007 375.463C247.032 375.477 247.059 375.486 247.087 375.491C254.072 375.978 261.061 376.461 268.054 376.94C282.705 377.929 297.355 378.916 312.005 379.9C312.033 379.897 312.059 379.889 312.084 379.877C312.11 379.866 312.131 379.849 312.171 379.828C312.162 379.737 312.182 379.643 312.15 379.577ZM312.037 382.342C311.749 382.224 311.438 382.175 311.129 382.199C307.744 381.963 304.36 381.73 300.975 381.502L270.435 379.431C269.295 379.352 269.493 379.265 268.879 380.178C265.529 385.16 262.179 390.143 258.829 395.125C258.623 395.351 258.471 395.619 258.382 395.911C258.639 396.134 258.935 396.061 259.211 396.086C263.233 396.364 267.258 396.638 271.286 396.907C280.849 397.554 290.413 398.197 299.977 398.837C301.117 398.915 300.922 399.046 301.604 398.037C304.922 393.102 308.241 388.166 311.561 383.228C311.779 382.971 311.94 382.671 312.034 382.347L312.037 382.342ZM300.805 401.253L281.263 399.928C281.134 399.936 281.007 399.956 280.882 399.988C281.124 400.801 281.559 401.488 281.906 402.22C282.253 402.952 282.615 403.682 282.975 404.41L284.044 406.603L285.115 408.794L286.188 410.983L287.259 413.174C287.616 413.907 287.968 414.636 288.33 415.365C288.692 416.095 289.065 416.807 289.42 417.547C289.774 418.287 290.161 419.055 290.531 419.81C290.902 420.564 291.243 421.273 291.588 421.994L292.661 424.187L293.733 426.376L294.802 428.565L295.873 430.756L296.944 432.947L298.015 435.139C298.371 435.867 298.733 436.597 299.088 437.328C299.442 438.058 299.793 438.786 300.161 439.548L287.693 458.092C287.901 458.759 295.926 475.203 296.367 475.894C296.544 475.95 296.621 475.822 296.697 475.709C296.823 475.522 296.947 475.337 297.074 475.148C304.573 463.996 312.071 452.843 319.571 441.69C320.214 440.733 320.241 440.97 319.715 439.893L301.207 402.044C301.085 401.794 300.954 401.548 300.802 401.257L300.805 401.253ZM332.817 421.881C332.799 421.819 332.776 421.76 332.748 421.702L314.275 383.92C314.234 383.855 314.187 383.795 314.132 383.742C313.929 383.706 313.881 383.867 313.806 383.968C313.67 384.148 313.555 384.342 313.431 384.527L302.891 400.202C309.085 412.867 315.271 425.512 321.449 438.136C321.501 438.222 321.563 438.301 321.633 438.373C321.723 438.339 321.79 438.337 321.817 438.301C322.405 437.554 332.505 422.472 332.814 421.885L332.817 421.881Z" fill="#D7D8DD"/>
</g>
<g clip-path="url(#clip6_1666_1752)">
<path d="M305.16 361.471C305.141 361.492 305.119 361.51 305.095 361.525C305.071 361.538 305.046 361.549 305.02 361.557C304.062 361.572 236.5 356.958 235.827 356.818L205.429 294.644C205.446 294.561 205.47 294.479 205.502 294.4C205.603 294.23 205.709 294.064 205.818 293.902C218.565 274.943 231.318 255.989 244.077 237.039C244.095 237.018 244.117 237.001 244.142 236.988C244.157 236.966 244.194 236.963 244.271 236.923C244.576 236.939 244.944 236.959 245.305 236.987L302.112 240.845C305.53 241.083 308.943 241.315 312.351 241.542C313.509 241.627 313.284 241.46 313.834 242.562C314.29 243.499 314.741 244.434 315.199 245.358C324.626 264.626 334.05 283.894 343.471 303.163C343.592 303.414 343.705 303.67 343.803 303.885C343.788 303.957 343.764 304.028 343.731 304.095C331.047 322.96 318.367 341.828 305.69 360.7C305.528 360.961 305.345 361.21 305.16 361.471ZM228.968 337.565C230.632 340.999 232.305 344.425 233.988 347.844L236.946 353.886C237.015 354.009 237.077 354.135 237.13 354.265C237.178 354.412 237.273 354.538 237.401 354.625C237.529 354.711 237.682 354.751 237.836 354.74C239.152 354.817 240.461 354.927 241.78 355.006L301.608 359.067C301.942 359.127 302.283 359.129 302.618 359.073C302.611 358.971 302.629 358.882 302.595 358.815C299.731 352.944 296.865 347.071 293.954 341.123C272.171 339.649 250.42 338.173 228.699 336.696C228.69 337.008 228.785 337.313 228.968 337.565ZM300.38 329.434C302.037 326.97 303.697 324.501 305.36 322.027C305.53 321.775 305.69 321.514 305.874 321.221L297.295 303.685C297.249 303.603 297.195 303.526 297.135 303.454C296.91 303.432 296.856 303.582 296.78 303.685C296.671 303.848 296.561 304.012 296.451 304.175C289.203 314.954 281.955 325.734 274.706 336.515L274.179 337.3C274.331 337.402 274.384 337.463 274.42 337.462C280.932 337.914 287.436 338.363 293.932 338.808C294.292 338.63 294.423 338.304 294.607 338.03C296.537 335.155 298.453 332.295 300.38 329.434ZM233.344 327.389L229.304 333.397C229.133 333.652 228.964 333.904 228.818 334.149C228.981 334.446 229.234 334.376 229.442 334.39C231.202 334.52 232.962 334.641 234.723 334.752C246.657 335.566 258.591 336.378 270.527 337.187C270.804 337.206 271.084 337.217 271.385 337.234C271.534 337.05 271.682 336.887 271.808 336.704C275.266 331.56 278.726 326.415 282.186 321.269C282.304 321.093 282.388 320.894 282.498 320.687C282.412 320.636 282.319 320.598 282.221 320.573C268.133 319.617 254.066 318.663 240.022 317.711C239.734 317.889 239.504 318.147 239.359 318.453C237.349 321.43 235.344 324.409 233.344 327.389ZM284.692 317.547C287.337 313.612 289.983 309.677 292.629 305.743C293.55 304.372 294.476 302.995 295.406 301.612C295.577 301.358 295.733 301.097 295.878 300.872C295.671 300.203 287.211 282.81 286.558 281.692C286.291 281.512 285.973 281.557 285.673 281.539C280.573 281.19 275.48 280.846 270.395 280.506C268.939 280.408 267.484 280.311 266.03 280.213C265.753 280.194 265.474 280.186 265.169 280.174C264.577 280.896 253.699 297.121 253.408 297.699C253.623 298.361 262.362 316.242 262.809 316.918L284.088 318.356C284.297 318.086 284.505 317.825 284.69 317.549L284.692 317.547ZM208.429 295.563L226.265 332.054C226.397 332.326 226.539 332.586 226.731 332.948C227.291 332.312 237.575 317.017 237.915 316.314C231.777 303.769 225.625 291.191 219.46 278.579C219.382 278.441 219.296 278.306 219.204 278.176C219.093 278.265 218.988 278.362 218.89 278.464C218.768 278.619 218.671 278.79 218.561 278.953C215.226 283.914 211.89 288.876 208.553 293.838C207.939 294.766 207.941 294.575 208.427 295.565L208.429 295.563ZM244.395 240.593C244.176 240.919 243.999 241.131 243.845 241.359L221.105 275.18C220.695 275.789 220.692 275.793 221.025 276.472C223.218 280.957 225.411 285.441 227.604 289.923L239.611 314.477C239.742 314.752 239.882 315.013 240.025 315.27C240.804 315.453 255.373 316.505 259.504 316.688C259.637 316.692 259.771 316.672 259.935 316.662C259.925 316.37 259.83 316.087 259.663 315.847C258.451 313.349 257.233 310.855 256.009 308.366C254.827 305.946 253.644 303.527 252.46 301.109L241.132 277.996C240.984 277.694 240.848 277.388 240.692 277.053L253.216 258.427L244.674 240.938C244.589 240.817 244.495 240.703 244.394 240.595L244.395 240.593ZM275.027 261.189C275.008 261.155 274.985 261.123 274.959 261.093C274.941 261.073 274.919 261.058 274.894 261.049C274.728 261.029 274.561 261.005 274.394 260.994C268.018 260.558 261.642 260.125 255.374 259.705C255.245 259.747 255.219 259.752 255.195 259.765C255.171 259.781 255.15 259.8 255.131 259.822C255.07 259.914 254.987 259.994 254.926 260.085C251.136 265.722 247.347 271.358 243.557 276.994C243.516 277.064 243.482 277.138 243.453 277.214C243.634 277.809 251.598 294.156 252.133 295.046C252.31 295.102 252.38 294.965 252.459 294.858C252.583 294.673 252.71 294.484 252.834 294.299C260.069 283.54 267.302 272.782 274.534 262.026C274.737 261.775 274.901 261.496 275.021 261.198L275.027 261.189ZM320.535 261.474L311.899 243.802L246.892 239.405C246.819 239.401 246.744 239.451 246.656 239.48C246.651 239.566 246.66 239.652 246.683 239.735C249.544 245.602 252.405 251.474 255.238 257.255L255.392 257.359C255.417 257.373 255.443 257.383 255.471 257.387C262.456 257.875 269.445 258.358 276.439 258.836C291.09 259.826 305.74 260.812 320.39 261.797C320.417 261.793 320.444 261.785 320.469 261.774C320.495 261.763 320.516 261.746 320.555 261.725C320.547 261.634 320.566 261.539 320.535 261.474ZM320.421 264.239C320.134 264.121 319.823 264.072 319.514 264.096C316.129 263.859 312.744 263.627 309.36 263.399L278.82 261.328C277.68 261.249 277.878 261.161 277.264 262.074C273.914 267.057 270.563 272.039 267.213 277.022C267.008 277.247 266.856 277.516 266.767 277.807C267.024 278.031 267.319 277.958 267.596 277.983C271.618 278.261 275.643 278.534 279.671 278.804C289.234 279.451 298.798 280.094 308.362 280.733C309.502 280.812 309.307 280.942 309.989 279.933C313.307 274.998 316.626 270.062 319.946 265.125C320.164 264.868 320.325 264.567 320.418 264.243L320.421 264.239ZM309.19 283.149L289.647 281.825C289.519 281.833 289.391 281.853 289.267 281.884C289.509 282.697 289.944 283.384 290.291 284.117C290.638 284.849 291 285.578 291.36 286.306L292.429 288.499L293.5 290.691L294.573 292.88L295.644 295.071C296 295.803 296.353 296.532 296.715 297.262C297.077 297.991 297.45 298.703 297.805 299.444C298.159 300.184 298.546 300.952 298.916 301.706C299.287 302.46 299.627 303.169 299.973 303.891L301.046 306.083L302.118 308.272L303.187 310.462L304.258 312.653L305.329 314.844L306.4 317.035C306.756 317.764 307.118 318.493 307.472 319.224C307.827 319.955 308.177 320.683 308.546 321.445L296.078 339.988C296.286 340.655 304.311 357.099 304.752 357.791C304.929 357.847 305.006 357.718 305.082 357.605C305.208 357.418 305.332 357.233 305.459 357.044C312.957 345.892 320.456 334.74 327.955 323.586C328.599 322.63 328.626 322.866 328.1 321.789L309.592 283.941C309.47 283.691 309.338 283.445 309.187 283.154L309.19 283.149ZM341.202 303.777C341.183 303.716 341.16 303.656 341.133 303.598L322.659 265.816C322.619 265.751 322.571 265.692 322.517 265.638C322.314 265.603 322.266 265.763 322.191 265.864C322.055 266.044 321.94 266.238 321.816 266.423L311.276 282.099C317.47 294.764 323.656 307.408 329.834 320.032C329.886 320.118 329.948 320.198 330.018 320.27C330.108 320.235 330.175 320.233 330.202 320.198C330.79 319.45 340.89 304.369 341.199 303.781L341.202 303.777Z" fill="#D7D8DD"/>
</g>
<g clip-path="url(#clip7_1666_1752)">
<path d="M214.777 177.59C214.758 177.611 214.736 177.629 214.712 177.644C214.688 177.657 214.663 177.668 214.637 177.676C213.679 177.692 146.117 173.077 145.444 172.937L115.046 110.764C115.063 110.68 115.087 110.598 115.119 110.519C115.221 110.349 115.326 110.183 115.435 110.021C128.183 91.0621 140.935 72.1077 153.694 53.158C153.712 53.137 153.734 53.1198 153.759 53.1074C153.774 53.0856 153.811 53.0821 153.888 53.0425C154.193 53.0582 154.562 53.0786 154.922 53.1061L211.73 56.9643C215.147 57.2021 218.56 57.4344 221.968 57.6615C223.127 57.746 222.901 57.5787 223.451 58.6809C223.907 59.6185 224.358 60.5531 224.816 61.4769C234.244 80.7452 243.668 100.013 253.089 119.282C253.21 119.534 253.322 119.789 253.421 120.004C253.405 120.077 253.381 120.147 253.349 120.214C240.664 139.079 227.984 157.948 215.307 176.82C215.145 177.08 214.962 177.329 214.777 177.59ZM138.585 153.684C140.249 157.118 141.923 160.544 143.605 163.963L146.563 170.005C146.632 170.128 146.694 170.254 146.747 170.385C146.795 170.531 146.891 170.658 147.019 170.744C147.147 170.83 147.3 170.871 147.454 170.86C148.769 170.936 150.078 171.046 151.398 171.125L211.226 175.186C211.559 175.246 211.9 175.248 212.235 175.192C212.228 175.09 212.246 175.001 212.212 174.934C209.348 169.063 206.482 163.19 203.571 157.242C181.788 155.768 160.037 154.292 138.316 152.815C138.307 153.127 138.402 153.432 138.585 153.684ZM209.998 145.553C211.654 143.089 213.314 140.62 214.977 138.147C215.147 137.894 215.307 137.633 215.491 137.34L206.913 119.804C206.866 119.722 206.813 119.645 206.752 119.573C206.527 119.551 206.473 119.701 206.397 119.805C206.288 119.968 206.178 120.131 206.069 120.294C198.821 131.073 191.572 141.853 184.323 152.634L183.796 153.419C183.948 153.521 184.001 153.583 184.037 153.581C190.549 154.033 197.054 154.482 203.55 154.927C203.909 154.749 204.04 154.423 204.224 154.149C206.154 151.274 208.07 148.414 209.998 145.553ZM142.962 143.508L138.922 149.516C138.751 149.771 138.581 150.023 138.435 150.269C138.599 150.565 138.851 150.495 139.059 150.509C140.819 150.64 142.579 150.76 144.34 150.871C156.274 151.685 168.208 152.497 180.144 153.306C180.421 153.325 180.701 153.336 181.002 153.353C181.151 153.169 181.299 153.006 181.425 152.823C184.883 147.679 188.343 142.534 191.803 137.388C191.921 137.212 192.005 137.013 192.116 136.806C192.029 136.755 191.936 136.717 191.838 136.692C177.75 135.736 163.684 134.782 149.639 133.83C149.351 134.008 149.121 134.266 148.976 134.572C146.966 137.549 144.961 140.528 142.962 143.508ZM194.309 133.666C196.955 129.731 199.6 125.796 202.246 121.862C203.168 120.491 204.093 119.114 205.023 117.731C205.194 117.477 205.35 117.216 205.495 116.991C205.289 116.322 196.828 98.9288 196.175 97.811C195.908 97.6312 195.59 97.6765 195.29 97.6579C190.19 97.3094 185.097 96.965 180.012 96.6248C178.556 96.5275 177.101 96.43 175.647 96.3322C175.37 96.3129 175.091 96.3053 174.787 96.2932C174.194 97.0152 163.316 113.24 163.025 113.818C163.24 114.48 171.979 132.361 172.427 133.038L193.705 134.475C193.915 134.206 194.122 133.944 194.308 133.668L194.309 133.666ZM118.046 111.682L135.882 148.173C136.015 148.446 136.156 148.705 136.348 149.067C136.908 148.431 147.193 133.136 147.532 132.433C141.394 119.888 135.242 107.31 129.077 94.6984C128.999 94.5598 128.913 94.4253 128.821 94.2956C128.71 94.3845 128.605 94.4807 128.507 94.5835C128.385 94.7378 128.288 94.9096 128.179 95.0726C124.843 100.033 121.507 104.995 118.171 109.957C117.556 110.885 117.558 110.694 118.045 111.684L118.046 111.682ZM154.012 56.712C153.793 57.0381 153.616 57.2503 153.462 57.4785L130.722 91.2995C130.313 91.9082 130.31 91.9126 130.643 92.591C132.835 97.0766 135.028 101.56 137.221 106.042L149.228 130.596C149.359 130.871 149.499 131.132 149.642 131.389C150.422 131.573 164.99 132.624 169.122 132.807C169.255 132.811 169.388 132.791 169.553 132.781C169.542 132.489 169.447 132.206 169.28 131.967C168.068 129.468 166.85 126.974 165.626 124.485C164.444 122.065 163.261 119.646 162.077 117.228L150.749 94.1147C150.601 93.8133 150.466 93.5076 150.309 93.1721L162.833 74.5464L154.292 57.0575C154.206 56.9365 154.113 56.8217 154.011 56.7142L154.012 56.712ZM184.644 77.3083C184.625 77.2742 184.602 77.242 184.576 77.2121C184.559 77.1924 184.536 77.1774 184.511 77.1682C184.345 77.148 184.178 77.1241 184.012 77.1132C177.635 76.6769 171.259 76.2441 164.991 75.8242C164.862 75.8665 164.837 75.8715 164.812 75.8838C164.788 75.8999 164.767 75.9194 164.748 75.9416C164.687 76.0329 164.605 76.1133 164.543 76.2046C160.754 81.8407 156.964 87.4768 153.174 93.1129C153.134 93.1833 153.099 93.2571 153.07 93.3334C153.251 93.9284 161.216 110.275 161.75 111.165C161.928 111.221 161.997 111.085 162.076 110.977C162.2 110.792 162.327 110.603 162.452 110.418C169.686 99.6588 176.919 88.901 184.151 78.1448C184.354 77.8944 184.518 77.6154 184.639 77.317L184.644 77.3083ZM230.152 77.5931L221.516 59.9207L156.509 55.5245C156.437 55.5199 156.362 55.5704 156.273 55.5991C156.268 55.6851 156.277 55.7713 156.3 55.8543C159.161 61.7208 162.022 67.5931 164.855 73.3745L165.009 73.4782C165.034 73.4925 165.061 73.502 165.089 73.5062C172.074 73.9938 179.063 74.4769 186.056 74.9555C200.707 75.9447 215.357 76.9315 230.007 77.9158C230.035 77.9123 230.061 77.9046 230.086 77.8929C230.112 77.8821 230.133 77.8647 230.173 77.8438C230.164 77.7529 230.184 77.6586 230.152 77.5931ZM230.038 80.3578C229.751 80.2399 229.44 80.1909 229.131 80.2148C225.746 79.9781 222.362 79.7459 218.977 79.5179L188.437 77.4467C187.297 77.3681 187.495 77.2803 186.881 78.1933C183.531 83.1758 180.181 88.1583 176.83 93.1408C176.625 93.3665 176.473 93.6349 176.384 93.9266C176.641 94.1499 176.937 94.077 177.213 94.1021C181.235 94.38 185.26 94.6535 189.288 94.9227C198.851 95.5698 208.415 96.2129 217.979 96.8522C219.119 96.9308 218.924 97.0616 219.606 96.0522C222.924 91.1175 226.243 86.1814 229.563 81.2438C229.781 80.9868 229.942 80.6863 230.036 80.3622L230.038 80.3578ZM218.807 99.2683L199.265 97.9438C199.136 97.9521 199.009 97.972 198.884 98.0033C199.126 98.8166 199.561 99.5034 199.908 100.236C200.255 100.968 200.617 101.697 200.977 102.425L202.046 104.619L203.117 106.81L204.19 108.999L205.261 111.19C205.618 111.922 205.97 112.652 206.332 113.381C206.694 114.11 207.067 114.822 207.422 115.563C207.776 116.303 208.163 117.071 208.533 117.825C208.904 118.579 209.245 119.288 209.59 120.01L210.663 122.202L211.735 124.391L212.804 126.581L213.875 128.772L214.946 130.963L216.017 133.154C216.373 133.883 216.735 134.612 217.09 135.343C217.444 136.074 217.794 136.802 218.163 137.564L205.695 156.107C205.903 156.774 213.928 173.219 214.369 173.91C214.546 173.966 214.623 173.837 214.699 173.724C214.825 173.537 214.949 173.353 215.076 173.163C222.575 162.012 230.073 150.859 237.573 139.705C238.216 138.749 238.243 138.985 237.717 137.909L219.209 100.06C219.087 99.81 218.956 99.5639 218.804 99.2727L218.807 99.2683ZM250.819 119.896C250.801 119.835 250.778 119.775 250.75 119.717L232.277 81.9353C232.236 81.8704 232.189 81.8107 232.134 81.7574C231.931 81.7218 231.883 81.8821 231.808 81.9836C231.672 82.1632 231.557 82.3575 231.433 82.5422L220.893 98.218C227.087 110.883 233.273 123.527 239.451 136.151C239.503 136.237 239.565 136.317 239.635 136.389C239.725 136.354 239.792 136.353 239.819 136.317C240.407 135.57 250.507 120.488 250.816 119.901L250.819 119.896Z" fill="#D7D8DD"/>
</g>
<g clip-path="url(#clip8_1666_1752)">
<path d="M312.601 243.364C312.582 243.385 312.56 243.403 312.536 243.418C312.512 243.432 312.487 243.442 312.461 243.45C311.504 243.466 243.942 238.851 243.269 238.711L212.87 176.538C212.887 176.454 212.912 176.373 212.943 176.293C213.045 176.124 213.15 175.958 213.259 175.796C226.007 156.837 238.76 137.882 251.518 118.932C251.536 118.911 251.559 118.894 251.584 118.882C251.598 118.86 251.635 118.857 251.712 118.817C252.017 118.833 252.386 118.853 252.746 118.881L309.554 122.739C312.971 122.976 316.384 123.209 319.792 123.436C320.951 123.52 320.726 123.353 321.276 124.455C321.731 125.393 322.182 126.328 322.641 127.251C332.068 146.52 341.492 165.788 350.913 185.056C351.034 185.308 351.146 185.564 351.245 185.778C351.229 185.851 351.205 185.922 351.173 185.989C338.489 204.853 325.808 223.722 313.132 242.594C312.969 242.854 312.786 243.103 312.601 243.364ZM236.409 219.458C238.073 222.892 239.747 226.319 241.43 229.738L244.387 235.78C244.457 235.902 244.518 236.029 244.571 236.159C244.619 236.306 244.715 236.432 244.843 236.518C244.971 236.604 245.124 236.645 245.278 236.634C246.593 236.71 247.902 236.82 249.222 236.899L309.05 240.961C309.383 241.021 309.725 241.023 310.059 240.967C310.052 240.864 310.071 240.776 310.037 240.709C307.173 234.837 304.306 228.964 301.395 223.017C279.612 221.542 257.861 220.067 236.141 218.59C236.132 218.901 236.226 219.207 236.409 219.458ZM307.822 211.327C309.478 208.864 311.138 206.395 312.802 203.921C312.971 203.669 313.131 203.407 313.316 203.114L304.737 185.578C304.69 185.496 304.637 185.419 304.576 185.347C304.351 185.325 304.298 185.475 304.222 185.579C304.112 185.742 304.002 185.905 303.893 186.068C296.645 196.848 289.396 207.628 282.148 218.409L281.62 219.193C281.772 219.296 281.826 219.357 281.861 219.356C288.374 219.808 294.878 220.256 301.374 220.701C301.733 220.523 301.864 220.197 302.048 219.924C303.978 217.048 305.895 214.189 307.822 211.327ZM240.786 209.282L236.746 215.291C236.575 215.545 236.405 215.797 236.259 216.043C236.423 216.339 236.675 216.269 236.884 216.283C238.643 216.414 240.403 216.535 242.164 216.645C254.098 217.46 266.033 218.271 277.968 219.08C278.246 219.1 278.525 219.111 278.827 219.127C278.976 218.943 279.123 218.78 279.249 218.597C282.708 213.454 286.167 208.309 289.627 203.163C289.746 202.987 289.829 202.787 289.94 202.58C289.853 202.529 289.76 202.491 289.663 202.467C275.574 201.511 261.508 200.557 247.463 199.605C247.175 199.783 246.945 200.04 246.801 200.346C244.79 203.323 242.785 206.302 240.786 209.282ZM292.133 199.44C294.779 195.506 297.424 191.571 300.07 187.636C300.992 186.265 301.918 184.888 302.847 183.506C303.018 183.251 303.175 182.991 303.319 182.766C303.113 182.097 294.653 164.703 293.999 163.585C293.732 163.406 293.414 163.451 293.114 163.432C288.014 163.084 282.921 162.739 277.836 162.399C276.38 162.302 274.925 162.204 273.472 162.107C273.194 162.087 272.915 162.08 272.611 162.068C272.018 162.79 261.14 179.015 260.849 179.593C261.064 180.255 269.803 198.135 270.251 198.812L291.529 200.249C291.739 199.98 291.946 199.719 292.132 199.442L292.133 199.44ZM215.87 177.457L233.706 213.948C233.839 214.22 233.98 214.479 234.172 214.842C234.733 214.205 245.017 198.91 245.357 198.207C239.218 185.662 233.067 173.084 226.902 160.473C226.823 160.334 226.738 160.2 226.645 160.07C226.534 160.159 226.43 160.255 226.332 160.358C226.209 160.512 226.112 160.684 226.003 160.847C222.667 165.808 219.331 170.769 215.995 175.732C215.38 176.66 215.382 176.469 215.869 177.459L215.87 177.457ZM251.837 122.486C251.617 122.813 251.44 123.025 251.287 123.253L228.546 157.074C228.137 157.683 228.134 157.687 228.467 158.365C230.659 162.851 232.852 167.335 235.045 171.816L247.052 196.371C247.184 196.645 247.323 196.907 247.466 197.164C248.246 197.347 262.814 198.398 266.946 198.582C267.079 198.586 267.213 198.565 267.377 198.556C267.366 198.264 267.271 197.981 267.104 197.741C265.892 195.243 264.674 192.749 263.451 190.259C262.268 187.839 261.085 185.421 259.902 183.002L248.573 159.889C248.425 159.588 248.29 159.282 248.134 158.946L260.657 140.321L252.116 122.832C252.031 122.711 251.937 122.596 251.835 122.489L251.837 122.486ZM282.469 143.083C282.449 143.049 282.426 143.016 282.401 142.987C282.383 142.967 282.36 142.952 282.336 142.943C282.169 142.922 282.002 142.898 281.836 142.888C275.459 142.451 269.083 142.019 262.816 141.599C262.686 141.641 262.661 141.646 262.637 141.658C262.613 141.674 262.591 141.694 262.573 141.716C262.511 141.807 262.429 141.888 262.367 141.979C258.578 147.615 254.788 153.251 250.999 158.887C250.958 158.958 250.923 159.031 250.895 159.108C251.075 159.703 259.04 176.049 259.575 176.939C259.752 176.995 259.821 176.859 259.9 176.751C260.024 176.566 260.152 176.377 260.276 176.192C267.51 165.433 274.743 154.675 281.976 143.919C282.178 143.669 282.342 143.39 282.463 143.091L282.469 143.083ZM327.976 143.367L319.34 125.695L254.333 121.299C254.261 121.294 254.186 121.345 254.097 121.374C254.092 121.46 254.101 121.546 254.124 121.629C256.986 127.495 259.846 133.367 262.679 139.149L262.834 139.253C262.858 139.267 262.885 139.276 262.913 139.281C269.898 139.768 276.887 140.251 283.88 140.73C298.531 141.719 313.182 142.706 327.832 143.69C327.859 143.687 327.885 143.679 327.91 143.667C327.936 143.656 327.958 143.639 327.997 143.618C327.988 143.527 328.008 143.433 327.976 143.367ZM327.863 146.132C327.575 146.014 327.265 145.965 326.955 145.989C323.57 145.753 320.186 145.52 316.801 145.292L286.261 143.221C285.121 143.143 285.319 143.055 284.705 143.968C281.355 148.95 278.005 153.933 274.655 158.915C274.45 159.141 274.297 159.409 274.208 159.701C274.465 159.924 274.761 159.851 275.037 159.876C279.059 160.154 283.084 160.428 287.112 160.697C296.675 161.344 306.239 161.987 315.803 162.627C316.943 162.705 316.748 162.836 317.43 161.827C320.748 156.892 324.067 151.956 327.387 147.018C327.605 146.761 327.767 146.461 327.86 146.137L327.863 146.132ZM316.631 165.043L297.089 163.718C296.96 163.726 296.833 163.746 296.708 163.778C296.95 164.591 297.385 165.278 297.732 166.01C298.08 166.742 298.441 167.472 298.801 168.2L299.871 170.393L300.942 172.584L302.014 174.773L303.085 176.964C303.442 177.697 303.794 178.426 304.156 179.155C304.518 179.885 304.892 180.597 305.246 181.337C305.601 182.077 305.987 182.845 306.357 183.6C306.728 184.354 307.069 185.063 307.414 185.784L308.487 187.977L309.56 190.166L310.628 192.355L311.699 194.546L312.77 196.738L313.841 198.929C314.197 199.657 314.559 200.387 314.914 201.118C315.268 201.848 315.619 202.576 315.987 203.339L303.519 221.882C303.727 222.549 311.752 238.993 312.193 239.684C312.371 239.74 312.447 239.612 312.523 239.499C312.649 239.312 312.773 239.127 312.9 238.938C320.399 227.786 327.898 216.633 335.397 205.48C336.04 204.523 336.067 204.76 335.541 203.683L317.034 165.834C316.911 165.584 316.78 165.338 316.628 165.047L316.631 165.043ZM348.644 185.671C348.625 185.609 348.602 185.55 348.575 185.492L330.101 147.71C330.061 147.645 330.013 147.585 329.958 147.532C329.755 147.496 329.707 147.657 329.633 147.758C329.496 147.938 329.381 148.132 329.257 148.317L318.717 163.992C324.911 176.657 331.098 189.302 337.275 201.926C337.328 202.012 337.389 202.091 337.46 202.163C337.549 202.129 337.617 202.127 337.644 202.091C338.231 201.344 348.331 186.262 348.641 185.675L348.644 185.671Z" fill="#D7D8DD"/>
</g>
<g clip-path="url(#clip9_1666_1752)">
<path d="M320.326 126.022C320.307 126.043 320.285 126.062 320.261 126.077C320.237 126.09 320.212 126.101 320.186 126.108C319.228 126.124 251.666 121.509 250.993 121.369L220.595 59.1962C220.612 59.1126 220.636 59.0308 220.668 58.9516C220.769 58.782 220.875 58.6161 220.984 58.4538C233.731 39.4947 246.484 20.5403 259.243 1.59057C259.261 1.56961 259.283 1.55243 259.308 1.53998C259.323 1.51823 259.36 1.51476 259.437 1.4751C259.742 1.49083 260.11 1.51117 260.471 1.53875L317.278 5.39694C320.696 5.63468 324.109 5.86707 327.517 6.09411C328.675 6.1786 328.45 6.01133 329 7.11349C329.456 8.05107 329.907 8.98574 330.365 9.90954C339.792 29.1778 349.217 48.4461 358.637 67.7144C358.758 67.9663 358.871 68.2217 358.969 68.4364C358.954 68.5092 358.93 68.5798 358.897 68.6468C346.213 87.5117 333.533 106.38 320.856 125.252C320.694 125.512 320.511 125.762 320.326 126.022ZM244.134 102.117C245.798 105.551 247.471 108.977 249.154 112.396L252.112 118.438C252.181 118.56 252.243 118.687 252.296 118.817C252.344 118.964 252.439 119.09 252.567 119.176C252.695 119.262 252.848 119.303 253.002 119.292C254.318 119.369 255.627 119.478 256.946 119.558L316.774 123.619C317.108 123.679 317.449 123.681 317.784 123.625C317.777 123.523 317.795 123.434 317.761 123.367C314.897 117.495 312.031 111.622 309.12 105.675C287.337 104.2 265.586 102.725 243.865 101.248C243.856 101.559 243.951 101.865 244.134 102.117ZM315.546 93.9856C317.203 91.5218 318.863 89.0531 320.526 86.5792C320.696 86.327 320.856 86.0654 321.04 85.7726L312.461 68.2363C312.415 68.1546 312.361 68.0773 312.301 68.0054C312.076 67.9834 312.022 68.1336 311.946 68.2372C311.837 68.4002 311.727 68.5633 311.617 68.7263C304.369 79.5058 297.121 90.286 289.872 101.067L289.345 101.852C289.497 101.954 289.55 102.015 289.586 102.014C296.098 102.466 302.602 102.914 309.098 103.359C309.458 103.181 309.589 102.856 309.773 102.582C311.703 99.7065 313.619 96.8471 315.546 93.9856ZM248.51 91.9404L244.47 97.949C244.299 98.2034 244.13 98.4555 243.984 98.7012C244.147 98.9976 244.4 98.9274 244.608 98.9413C246.368 99.0722 248.128 99.193 249.889 99.3036C261.823 100.118 273.757 100.93 285.693 101.738C285.97 101.758 286.25 101.769 286.551 101.785C286.7 101.602 286.848 101.439 286.974 101.255C290.432 96.1119 293.892 90.9671 297.352 85.8208C297.47 85.6448 297.554 85.4453 297.664 85.2387C297.578 85.1877 297.485 85.1494 297.387 85.125C283.299 84.169 269.232 83.215 255.188 82.2631C254.9 82.441 254.67 82.6985 254.525 83.0044C252.515 85.9816 250.51 88.9603 248.51 91.9404ZM299.858 82.0985C302.503 78.1638 305.149 74.2291 307.795 70.2944C308.716 68.9234 309.642 67.5466 310.572 66.164C310.743 65.9097 310.899 65.6487 311.044 65.4241C310.837 64.7548 302.377 47.3615 301.724 46.2436C301.457 46.0639 301.139 46.1091 300.839 46.0905C295.739 45.742 290.646 45.3976 285.561 45.0574C284.105 44.9601 282.65 44.8626 281.196 44.7648C280.919 44.7456 280.64 44.7379 280.335 44.7258C279.743 45.4479 268.865 61.673 268.574 62.2509C268.789 62.9129 277.528 80.7935 277.975 81.4702L299.254 82.9076C299.463 82.6382 299.671 82.3767 299.856 82.1006L299.858 82.0985ZM223.595 60.1148L241.431 96.606C241.563 96.8783 241.705 97.1375 241.897 97.5C242.457 96.8636 252.741 81.5683 253.081 80.8656C246.943 68.3206 240.791 55.7424 234.626 43.131C234.548 42.9924 234.462 42.8579 234.37 42.7282C234.259 42.8171 234.154 42.9133 234.056 43.0161C233.934 43.1704 233.837 43.3422 233.727 43.5052C230.392 48.466 227.056 53.4275 223.719 58.3897C223.105 59.318 223.107 59.1269 223.593 60.1169L223.595 60.1148ZM259.561 5.14463C259.342 5.47071 259.165 5.68288 259.011 5.91114L236.271 39.7322C235.861 40.3408 235.858 40.3452 236.191 41.0236C238.384 45.5093 240.577 49.9929 242.77 54.4747L254.777 79.0291C254.908 79.3035 255.048 79.5649 255.191 79.8219C255.97 80.0051 270.539 81.0565 274.67 81.2399C274.803 81.2441 274.937 81.2235 275.101 81.214C275.091 80.9218 274.996 80.6389 274.829 80.3992C273.617 77.9009 272.399 75.407 271.175 72.9174C269.993 70.4977 268.81 68.0787 267.626 65.6605L256.298 42.5473C256.15 42.2459 256.015 41.9403 255.858 41.6047L268.382 22.979L259.84 5.49011C259.755 5.36908 259.661 5.25434 259.56 5.14681L259.561 5.14463ZM290.193 25.7409C290.174 25.7068 290.151 25.6746 290.125 25.6447C290.107 25.6251 290.085 25.61 290.06 25.6009C289.894 25.5806 289.727 25.5567 289.56 25.5458C283.184 25.1095 276.808 24.6767 270.54 24.2568C270.411 24.2991 270.385 24.3041 270.361 24.3164C270.337 24.3325 270.316 24.352 270.297 24.3743C270.236 24.4656 270.153 24.5459 270.092 24.6372C266.302 30.2733 262.513 35.9094 258.723 41.5455C258.682 41.6159 258.648 41.6897 258.619 41.766C258.8 42.361 266.764 58.7077 267.299 59.5976C267.476 59.6535 267.546 59.5172 267.625 59.4093C267.749 59.2245 267.876 59.0354 268 58.8506C275.235 48.0914 282.468 37.3337 289.7 26.5774C289.903 26.327 290.067 26.048 290.187 25.7496L290.193 25.7409ZM335.701 26.0257L327.065 8.35333L262.058 3.95713C261.985 3.95248 261.91 4.00304 261.822 4.03175C261.817 4.11772 261.826 4.20391 261.849 4.28688C264.71 10.1534 267.571 16.0257 270.404 21.8071L270.558 21.9109C270.583 21.9251 270.609 21.9346 270.637 21.9388C277.622 22.4265 284.611 22.9096 291.605 23.3881C306.256 24.3773 320.906 25.3641 335.556 26.3484C335.583 26.3449 335.61 26.3372 335.635 26.3255C335.661 26.3147 335.682 26.2973 335.721 26.2764C335.713 26.1856 335.732 26.0912 335.701 26.0257ZM335.587 28.7905C335.3 28.6726 334.989 28.6236 334.68 28.6474C331.295 28.4107 327.91 28.1785 324.526 27.9505L293.986 25.8793C292.846 25.8007 293.044 25.7129 292.43 26.6259C289.08 31.6084 285.729 36.5909 282.379 41.5734C282.174 41.7991 282.022 42.0675 281.933 42.3592C282.19 42.5826 282.485 42.5096 282.762 42.5347C286.784 42.8126 290.809 43.0861 294.837 43.3554C304.4 44.0024 313.964 44.6456 323.528 45.2848C324.668 45.3635 324.473 45.4942 325.155 44.4848C328.473 39.5501 331.792 34.614 335.112 29.6764C335.33 29.4194 335.491 29.1189 335.584 28.7948L335.587 28.7905ZM324.356 47.701L304.813 46.3764C304.685 46.3847 304.557 46.4046 304.433 46.436C304.675 47.2492 305.11 47.936 305.457 48.6683C305.804 49.4006 306.166 50.13 306.526 50.858L307.595 53.0513L308.666 55.2424L309.739 57.4313L310.81 59.6224C311.166 60.3548 311.519 61.0841 311.881 61.8136C312.243 62.543 312.616 63.255 312.971 63.9953C313.325 64.7356 313.712 65.5036 314.082 66.2578C314.453 67.0119 314.793 67.7209 315.139 68.4423L316.212 70.6349L317.284 72.8238L318.353 75.0135L319.424 77.2046L320.495 79.3957L321.566 81.5869C321.922 82.3155 322.284 83.045 322.639 83.7758C322.993 84.5066 323.343 85.2346 323.712 85.9967L311.244 104.54C311.452 105.207 319.477 121.651 319.918 122.342C320.095 122.398 320.172 122.27 320.248 122.157C320.374 121.97 320.498 121.785 320.625 121.596C328.123 110.444 335.622 99.2915 343.121 88.1381C343.765 87.1816 343.792 87.4178 343.266 86.3412L324.758 48.4923C324.636 48.2426 324.504 47.9965 324.353 47.7053L324.356 47.701ZM356.368 68.3288C356.349 68.2676 356.326 68.2078 356.299 68.1498L337.825 30.3679C337.785 30.3031 337.737 30.2433 337.683 30.1901C337.48 30.1544 337.432 30.3148 337.357 30.4162C337.221 30.5958 337.106 30.7901 336.982 30.9749L326.442 46.6506C332.636 59.3155 338.822 71.9599 345 84.584C345.052 84.6698 345.114 84.7495 345.184 84.8216C345.274 84.787 345.341 84.7851 345.368 84.7496C345.956 84.0022 356.056 68.9204 356.365 68.3332L356.368 68.3288Z" fill="#D7D8DD"/>
</g>
</g>
<defs>
<clipPath id="clip0_1666_1752">
<rect width="260" height="343" fill="white"/>
</clipPath>
<clipPath id="clip1_1666_1752">
<rect width="120.162" height="138.785" fill="white" transform="matrix(0.829856 0.557977 0.557977 -0.829856 -19.0889 310.093)"/>
</clipPath>
<clipPath id="clip2_1666_1752">
<rect width="120.162" height="138.785" fill="white" transform="matrix(0.829856 0.557977 0.557977 -0.829856 -10.7031 191.989)"/>
</clipPath>
<clipPath id="clip3_1666_1752">
<rect width="120.162" height="138.785" fill="white" transform="matrix(0.829856 0.557977 0.557977 -0.829856 87.1201 257.765)"/>
</clipPath>
<clipPath id="clip4_1666_1752">
<rect width="120.162" height="138.785" fill="white" transform="matrix(0.829856 0.557977 0.557977 -0.829856 79.8262 375.653)"/>
</clipPath>
<clipPath id="clip5_1666_1752">
<rect width="120.162" height="138.785" fill="white" transform="matrix(0.829856 0.557977 0.557977 -0.829856 177.649 441.429)"/>
</clipPath>
<clipPath id="clip6_1666_1752">
<rect width="120.162" height="138.785" fill="white" transform="matrix(0.829856 0.557977 0.557977 -0.829856 186.034 323.325)"/>
</clipPath>
<clipPath id="clip7_1666_1752">
<rect width="120.162" height="138.785" fill="white" transform="matrix(0.829856 0.557977 0.557977 -0.829856 95.6514 139.444)"/>
</clipPath>
<clipPath id="clip8_1666_1752">
<rect width="120.162" height="138.785" fill="white" transform="matrix(0.829856 0.557977 0.557977 -0.829856 193.476 205.219)"/>
</clipPath>
<clipPath id="clip9_1666_1752">
<rect width="120.162" height="138.785" fill="white" transform="matrix(0.829856 0.557977 0.557977 -0.829856 201.2 87.877)"/>
</clipPath>
</defs>
</svg>
