<svg width="55" height="55" viewBox="0 0 55 55" fill="none" xmlns="http://www.w3.org/2000/svg">
<circle cx="27.5" cy="27.5" r="27.5" fill="white"/>
<mask id="path-2-inside-1_1012_1180" fill="white">
<path d="M15.0454 13.7412V26.8946H16.5164C16.918 30.431 18.8529 33.477 21.6163 35.2827L22.3143 38.8191L16.8136 36.1423C16.8423 36.0306 16.8315 35.9109 16.783 35.8016C16.7345 35.6922 16.6508 35.5992 16.5447 35.5365C16.4806 35.4989 16.4101 35.4734 16.3371 35.4614C16.2642 35.4494 16.1903 35.4513 16.1197 35.4668C16.049 35.4823 15.9831 35.5113 15.9255 35.552C15.868 35.5926 15.82 35.6442 15.7844 35.7038C15.7118 35.8234 15.6933 35.9683 15.733 36.1068C15.7727 36.2452 15.8673 36.3659 15.9961 36.4423C16.0904 36.4981 16.1982 36.5273 16.3062 36.5263C16.4143 36.5253 16.518 36.4941 16.6047 36.4365L21.0163 41.2594H33.512L35.4388 39.9729C35.44 40.0109 35.4458 40.0476 35.4561 40.0825C35.4773 40.1457 35.5131 40.2013 35.5617 40.2459C35.6103 40.2905 35.6705 40.3235 35.7391 40.3427C35.8077 40.362 35.8832 40.3673 35.9613 40.3583C36.0395 40.3493 36.1187 40.3261 36.1946 40.2902C36.3463 40.2177 36.475 40.0984 36.5528 39.958C36.6306 39.8176 36.6511 39.6675 36.6099 39.5402C36.578 39.443 36.5116 39.3646 36.4195 39.3152L38.5252 37.9018L33.3562 39.4133L35.2254 36.0961L30.8121 38.6114L31.1697 36.3557C35.0292 34.9077 37.8791 31.2732 38.381 26.8946H39.8521V13.7412H38.1214V22.7063C36.9157 17.7236 32.6005 14.0222 27.4487 14.0222C22.297 14.0222 17.9835 17.7189 16.7761 22.6947V13.7412H15.0454ZM27.4487 14.9262C33.0216 14.9262 37.556 19.6544 37.556 25.5273C37.556 29.9464 34.9888 33.7193 31.337 35.3173L31.5966 33.6962L28.3718 39.4133C28.3775 36.6961 28.4583 30.2233 30.3678 27.6041C32.7158 26.6465 34.3139 24.5812 34.3139 22.2217C34.3139 18.9737 31.2794 16.2796 27.4487 16.2796C23.6181 16.2796 20.5836 18.9737 20.5836 22.2217C20.5836 24.5812 22.1816 26.6465 24.5296 27.6041C26.4392 30.2233 26.5199 36.6961 26.5257 39.4133L23.5373 32.029L23.5777 35.0808L20.549 29.8887L21.3624 33.9962C18.9221 32.0578 17.3437 28.9945 17.3437 25.5273C17.3437 19.6544 21.8759 14.9262 27.4487 14.9262ZM22.5278 30.3156C22.5102 30.3164 22.4929 30.3184 22.4758 30.3214C22.344 30.3423 22.2356 30.426 22.174 30.5545C22.1125 30.683 22.1028 30.8459 22.147 31.0079C22.1918 31.1704 22.2873 31.3187 22.4127 31.4203C22.5381 31.5219 22.6831 31.5686 22.8162 31.5502C22.8827 31.5408 22.9442 31.5154 22.9971 31.4755C23.05 31.4355 23.0932 31.3818 23.1243 31.3175C23.1554 31.2531 23.1738 31.1793 23.1783 31.1005C23.1829 31.0216 23.1735 30.9391 23.1508 30.8579C23.108 30.7055 23.0206 30.5656 22.9055 30.4654C22.7904 30.3652 22.6558 30.3118 22.5278 30.3156ZM32.9697 32.0982C32.8589 32.1016 32.7418 32.1468 32.6338 32.2281C32.5258 32.3094 32.4318 32.4229 32.3639 32.554C32.3194 32.6402 32.2874 32.7318 32.2697 32.8235C32.252 32.9153 32.2489 33.0053 32.2607 33.0884C32.2725 33.1715 32.2989 33.2461 32.3384 33.3078C32.3779 33.3696 32.4297 33.4173 32.4908 33.4482C32.6137 33.5098 32.7665 33.5001 32.9157 33.4211C33.0649 33.3422 33.1984 33.2005 33.287 33.027C33.3753 32.8538 33.4115 32.663 33.3877 32.4966C33.364 32.3301 33.2821 32.2014 33.16 32.1386C33.1027 32.1096 33.0381 32.0959 32.9697 32.0982ZM14.6969 32.7501C14.6242 32.7471 14.5639 32.767 14.5215 32.8078C14.454 32.8695 14.4341 32.9782 14.4662 33.1101C14.4983 33.242 14.5798 33.3864 14.6929 33.5116C14.8062 33.6371 14.942 33.7331 15.0704 33.7786C15.1988 33.824 15.3093 33.8151 15.3776 33.7539C15.4121 33.7237 15.435 33.6813 15.4451 33.6291C15.4551 33.577 15.4521 33.5161 15.4362 33.4501C15.4202 33.3841 15.3917 33.3142 15.3522 33.2446C15.3128 33.1749 15.2632 33.1068 15.2063 33.0443C15.1294 32.9594 15.0415 32.8872 14.9519 32.8354C14.8623 32.7837 14.7742 32.7542 14.6969 32.7501ZM35.6465 34.2674C35.552 34.2692 35.4353 34.3132 35.3117 34.3935C35.1881 34.4738 35.0635 34.5867 34.9542 34.7173C34.8105 34.8883 34.703 35.0778 34.6554 35.2443C34.6078 35.4109 34.624 35.5409 34.7004 35.6058C34.7383 35.6383 34.7901 35.6537 34.8528 35.651C34.9155 35.6483 34.9878 35.6276 35.0656 35.59C35.1434 35.5525 35.2251 35.4989 35.306 35.4323C35.3869 35.3656 35.4653 35.2874 35.5369 35.2019C35.6806 35.031 35.7881 34.8415 35.8357 34.6749C35.8833 34.5084 35.8671 34.3784 35.7907 34.3135C35.7545 34.2821 35.7056 34.2664 35.6465 34.2674ZM40.3309 37.7115C40.2093 37.7127 40.0589 37.7563 39.8994 37.8366C39.74 37.9168 39.5787 38.03 39.4367 38.1614C39.3436 38.2478 39.2612 38.3399 39.1942 38.4323C39.1272 38.5246 39.077 38.6156 39.0464 38.6997C39.0158 38.7839 39.0055 38.8597 39.0161 38.9228C39.0266 38.9859 39.0578 39.0349 39.1079 39.0672C39.2085 39.1314 39.3784 39.1243 39.5805 39.0476C39.7826 38.9709 40.0005 38.8307 40.1867 38.6576C40.2798 38.5712 40.3623 38.4791 40.4293 38.3867C40.4962 38.2944 40.5465 38.2035 40.577 38.1193C40.6076 38.0351 40.6179 37.9593 40.6073 37.8962C40.5968 37.8332 40.5656 37.7841 40.5155 37.7518C40.4681 37.7232 40.4055 37.7095 40.3309 37.7115ZM16.9785 38.7499C16.8736 38.7493 16.7783 38.7688 16.6997 38.8067C16.6211 38.8447 16.5612 38.9002 16.5245 38.9691C16.4612 39.0908 16.4737 39.2459 16.5591 39.4005C16.6445 39.5551 16.7959 39.6966 16.9803 39.7941C17.1647 39.8918 17.3671 39.9375 17.5434 39.9213C17.7196 39.9051 17.8552 39.8282 17.9206 39.7075C17.9531 39.6472 17.9671 39.5778 17.9618 39.5033C17.9564 39.4288 17.9319 39.3507 17.8895 39.2735C17.8471 39.1963 17.7878 39.1215 17.7149 39.0534C17.642 38.9853 17.5571 38.9253 17.4649 38.8768C17.307 38.7944 17.1356 38.7497 16.9785 38.7499Z"/>
</mask>
<path d="M15.0454 13.7412V26.8946H16.5164C16.918 30.431 18.8529 33.477 21.6163 35.2827L22.3143 38.8191L16.8136 36.1423C16.8423 36.0306 16.8315 35.9109 16.783 35.8016C16.7345 35.6922 16.6508 35.5992 16.5447 35.5365C16.4806 35.4989 16.4101 35.4734 16.3371 35.4614C16.2642 35.4494 16.1903 35.4513 16.1197 35.4668C16.049 35.4823 15.9831 35.5113 15.9255 35.552C15.868 35.5926 15.82 35.6442 15.7844 35.7038C15.7118 35.8234 15.6933 35.9683 15.733 36.1068C15.7727 36.2452 15.8673 36.3659 15.9961 36.4423C16.0904 36.4981 16.1982 36.5273 16.3062 36.5263C16.4143 36.5253 16.518 36.4941 16.6047 36.4365L21.0163 41.2594H33.512L35.4388 39.9729C35.44 40.0109 35.4458 40.0476 35.4561 40.0825C35.4773 40.1457 35.5131 40.2013 35.5617 40.2459C35.6103 40.2905 35.6705 40.3235 35.7391 40.3427C35.8077 40.362 35.8832 40.3673 35.9613 40.3583C36.0395 40.3493 36.1187 40.3261 36.1946 40.2902C36.3463 40.2177 36.475 40.0984 36.5528 39.958C36.6306 39.8176 36.6511 39.6675 36.6099 39.5402C36.578 39.443 36.5116 39.3646 36.4195 39.3152L38.5252 37.9018L33.3562 39.4133L35.2254 36.0961L30.8121 38.6114L31.1697 36.3557C35.0292 34.9077 37.8791 31.2732 38.381 26.8946H39.8521V13.7412H38.1214V22.7063C36.9157 17.7236 32.6005 14.0222 27.4487 14.0222C22.297 14.0222 17.9835 17.7189 16.7761 22.6947V13.7412H15.0454ZM27.4487 14.9262C33.0216 14.9262 37.556 19.6544 37.556 25.5273C37.556 29.9464 34.9888 33.7193 31.337 35.3173L31.5966 33.6962L28.3718 39.4133C28.3775 36.6961 28.4583 30.2233 30.3678 27.6041C32.7158 26.6465 34.3139 24.5812 34.3139 22.2217C34.3139 18.9737 31.2794 16.2796 27.4487 16.2796C23.6181 16.2796 20.5836 18.9737 20.5836 22.2217C20.5836 24.5812 22.1816 26.6465 24.5296 27.6041C26.4392 30.2233 26.5199 36.6961 26.5257 39.4133L23.5373 32.029L23.5777 35.0808L20.549 29.8887L21.3624 33.9962C18.9221 32.0578 17.3437 28.9945 17.3437 25.5273C17.3437 19.6544 21.8759 14.9262 27.4487 14.9262ZM22.5278 30.3156C22.5102 30.3164 22.4929 30.3184 22.4758 30.3214C22.344 30.3423 22.2356 30.426 22.174 30.5545C22.1125 30.683 22.1028 30.8459 22.147 31.0079C22.1918 31.1704 22.2873 31.3187 22.4127 31.4203C22.5381 31.5219 22.6831 31.5686 22.8162 31.5502C22.8827 31.5408 22.9442 31.5154 22.9971 31.4755C23.05 31.4355 23.0932 31.3818 23.1243 31.3175C23.1554 31.2531 23.1738 31.1793 23.1783 31.1005C23.1829 31.0216 23.1735 30.9391 23.1508 30.8579C23.108 30.7055 23.0206 30.5656 22.9055 30.4654C22.7904 30.3652 22.6558 30.3118 22.5278 30.3156ZM32.9697 32.0982C32.8589 32.1016 32.7418 32.1468 32.6338 32.2281C32.5258 32.3094 32.4318 32.4229 32.3639 32.554C32.3194 32.6402 32.2874 32.7318 32.2697 32.8235C32.252 32.9153 32.2489 33.0053 32.2607 33.0884C32.2725 33.1715 32.2989 33.2461 32.3384 33.3078C32.3779 33.3696 32.4297 33.4173 32.4908 33.4482C32.6137 33.5098 32.7665 33.5001 32.9157 33.4211C33.0649 33.3422 33.1984 33.2005 33.287 33.027C33.3753 32.8538 33.4115 32.663 33.3877 32.4966C33.364 32.3301 33.2821 32.2014 33.16 32.1386C33.1027 32.1096 33.0381 32.0959 32.9697 32.0982ZM14.6969 32.7501C14.6242 32.7471 14.5639 32.767 14.5215 32.8078C14.454 32.8695 14.4341 32.9782 14.4662 33.1101C14.4983 33.242 14.5798 33.3864 14.6929 33.5116C14.8062 33.6371 14.942 33.7331 15.0704 33.7786C15.1988 33.824 15.3093 33.8151 15.3776 33.7539C15.4121 33.7237 15.435 33.6813 15.4451 33.6291C15.4551 33.577 15.4521 33.5161 15.4362 33.4501C15.4202 33.3841 15.3917 33.3142 15.3522 33.2446C15.3128 33.1749 15.2632 33.1068 15.2063 33.0443C15.1294 32.9594 15.0415 32.8872 14.9519 32.8354C14.8623 32.7837 14.7742 32.7542 14.6969 32.7501ZM35.6465 34.2674C35.552 34.2692 35.4353 34.3132 35.3117 34.3935C35.1881 34.4738 35.0635 34.5867 34.9542 34.7173C34.8105 34.8883 34.703 35.0778 34.6554 35.2443C34.6078 35.4109 34.624 35.5409 34.7004 35.6058C34.7383 35.6383 34.7901 35.6537 34.8528 35.651C34.9155 35.6483 34.9878 35.6276 35.0656 35.59C35.1434 35.5525 35.2251 35.4989 35.306 35.4323C35.3869 35.3656 35.4653 35.2874 35.5369 35.2019C35.6806 35.031 35.7881 34.8415 35.8357 34.6749C35.8833 34.5084 35.8671 34.3784 35.7907 34.3135C35.7545 34.2821 35.7056 34.2664 35.6465 34.2674ZM40.3309 37.7115C40.2093 37.7127 40.0589 37.7563 39.8994 37.8366C39.74 37.9168 39.5787 38.03 39.4367 38.1614C39.3436 38.2478 39.2612 38.3399 39.1942 38.4323C39.1272 38.5246 39.077 38.6156 39.0464 38.6997C39.0158 38.7839 39.0055 38.8597 39.0161 38.9228C39.0266 38.9859 39.0578 39.0349 39.1079 39.0672C39.2085 39.1314 39.3784 39.1243 39.5805 39.0476C39.7826 38.9709 40.0005 38.8307 40.1867 38.6576C40.2798 38.5712 40.3623 38.4791 40.4293 38.3867C40.4962 38.2944 40.5465 38.2035 40.577 38.1193C40.6076 38.0351 40.6179 37.9593 40.6073 37.8962C40.5968 37.8332 40.5656 37.7841 40.5155 37.7518C40.4681 37.7232 40.4055 37.7095 40.3309 37.7115ZM16.9785 38.7499C16.8736 38.7493 16.7783 38.7688 16.6997 38.8067C16.6211 38.8447 16.5612 38.9002 16.5245 38.9691C16.4612 39.0908 16.4737 39.2459 16.5591 39.4005C16.6445 39.5551 16.7959 39.6966 16.9803 39.7941C17.1647 39.8918 17.3671 39.9375 17.5434 39.9213C17.7196 39.9051 17.8552 39.8282 17.9206 39.7075C17.9531 39.6472 17.9671 39.5778 17.9618 39.5033C17.9564 39.4288 17.9319 39.3507 17.8895 39.2735C17.8471 39.1963 17.7878 39.1215 17.7149 39.0534C17.642 38.9853 17.5571 38.9253 17.4649 38.8768C17.307 38.7944 17.1356 38.7497 16.9785 38.7499Z" fill="#293F52" stroke="#293F52" stroke-width="2.29167" stroke-linejoin="round" mask="url(#path-2-inside-1_1012_1180)"/>
</svg>
