<svg width="55" height="55" viewBox="0 0 55 55" fill="none" xmlns="http://www.w3.org/2000/svg">
<circle cx="27.5" cy="27.5" r="27.5" fill="white"/>
<path d="M39.2528 19.5258C39.1158 19.4467 38.9605 19.4051 38.8023 19.4051C38.6442 19.4051 38.4888 19.4467 38.3519 19.5258L30.6672 23.3366V20.2916C30.6668 20.138 30.6271 19.9871 30.5519 19.8532C30.4767 19.7193 30.3685 19.6068 30.2376 19.5265C30.1067 19.4462 29.9575 19.4006 29.8041 19.3942C29.6506 19.3878 29.4981 19.4207 29.361 19.4898L21.6583 23.3366V16.688C21.6583 16.4491 21.5634 16.2199 21.3945 16.051C21.2255 15.882 20.9964 15.7871 20.7574 15.7871H15.3521C15.1131 15.7871 14.884 15.882 14.715 16.051C14.5461 16.2199 14.4512 16.4491 14.4512 16.688V39.2103H39.6762V20.2916C39.6765 20.1385 39.6378 19.9878 39.5637 19.8538C39.4896 19.7199 39.3826 19.607 39.2528 19.5258ZM32.469 37.4085H28.8655V31.1023H32.469V37.4085ZM37.8744 37.4085H34.2708V30.2014C34.2708 29.9625 34.1759 29.7333 34.007 29.5644C33.838 29.3954 33.6089 29.3005 33.3699 29.3005H27.9646C27.7256 29.3005 27.4965 29.3954 27.3275 29.5644C27.1586 29.7333 27.0637 29.9625 27.0637 30.2014V37.4085H16.253V17.5889H19.8565V26.2555L28.8655 21.751V26.2555L37.8744 21.751V37.4085Z" fill="#293F52"/>
</svg>
