<svg width="55" height="55" viewBox="0 0 55 55" fill="none" xmlns="http://www.w3.org/2000/svg">
<circle cx="27.5" cy="27.5" r="27.5" fill="white"/>
<path d="M32.6248 24.4587C32.6248 23.3128 31.479 22.167 29.1873 22.167C28.8411 22.167 28.4483 22.167 28.0417 22.167C26.1433 22.167 24.604 20.628 24.604 18.7295V15.292" stroke="#293F52" stroke-width="1.71875" stroke-linecap="round" stroke-linejoin="round"/>
<path d="M32.625 37.0625H36.0625V26.75H32.625V31.9063M32.625 37.0625V31.9063M32.625 37.0625H15.4375V32.4792L19.4479 29.0417L24.0313 31.9063L28.6146 29.0417L32.625 31.9063" stroke="#293F52" stroke-width="1.71875" stroke-linecap="round" stroke-linejoin="round"/>
<path d="M36.0623 24.4587C36.0623 17.5837 31.479 17.5837 31.479 17.5837C31.479 17.5837 36.0623 18.1566 36.0623 15.292" stroke="#293F52" stroke-width="1.71875" stroke-linecap="round" stroke-linejoin="round"/>
</svg>
