<svg width="68" height="72" viewBox="0 0 68 72" fill="none" xmlns="http://www.w3.org/2000/svg">
<path d="M7.95225 34.3846C8.40006 34.6085 8.62396 34.6085 9.07177 34.6085C9.51958 34.6085 9.96738 34.3846 10.1913 34.3846L25.8645 25.2046C26.5362 24.7568 26.984 24.0851 26.984 23.1895C26.984 22.2939 26.5362 21.6222 25.8645 21.1744L20.2669 17.8158L24.9689 9.30751C25.8645 7.74019 27.2079 6.39677 28.7752 5.50116C33.2533 3.03823 38.8509 4.82945 41.3138 9.30751C41.9855 10.427 43.329 10.6509 44.4485 9.97922C44.4485 9.97922 44.4485 9.97922 44.6724 9.97922C45.568 9.30751 45.7919 7.96409 45.3441 7.06848C44.0007 4.82945 42.2094 2.81433 39.9704 1.69482C33.2533 -1.88763 24.9689 0.351399 21.3864 7.06848L15.1172 17.5919C14.4454 18.7114 14.8932 20.0548 15.7889 20.7266L20.2669 23.4134L11.3108 28.7871V13.7856C11.3108 12.4421 10.4152 11.5465 9.07177 11.5465C7.95225 11.7704 7.05664 12.6661 7.05664 14.0095V32.5934C7.05664 33.2651 7.50445 33.9368 7.95225 34.3846Z" fill="white"/>
<path d="M65.4943 42.446L57.6577 28.5641C57.4338 28.1163 56.7621 27.6685 56.3143 27.4446C55.6426 27.2207 55.1948 27.4446 54.5231 27.6685L49.5972 30.5792V20.0558L61.9119 27.4446C62.1358 27.4446 62.1358 27.6685 62.3597 27.6685C63.4792 28.1163 64.8226 27.6685 65.2704 26.5489C65.7182 25.4294 65.2704 24.086 64.1509 23.6382L48.4777 14.2343C47.806 13.7865 46.9104 13.7865 46.2387 14.2343C45.343 14.4582 45.1191 15.1299 45.1191 16.0255V34.6094C45.1191 35.5051 45.343 36.4007 46.0148 36.8485C46.6865 37.2963 47.5821 37.2963 48.2538 36.8485L54.747 33.0421L61.4641 44.909C63.0314 47.8197 63.0314 51.1783 61.4641 54.089C60.1207 56.7758 57.2099 58.3431 54.2992 58.3431H52.284C51.1645 58.3431 49.5972 59.2388 49.5972 60.5822C49.8211 61.9256 50.9406 62.8212 52.284 62.8212H54.2992C59.0011 62.8212 63.2553 60.3583 65.4943 56.328C67.9573 51.85 67.9573 46.7002 65.4943 42.446Z" fill="white"/>
<path d="M43.7766 58.5655L28.1033 49.1616C27.4316 48.7138 26.536 48.7138 25.8643 49.1616C25.1926 49.6094 24.9687 50.2811 24.9687 51.1768V58.5655H13.9974C10.6389 58.3416 7.50425 56.5504 5.93693 53.4158C4.1457 50.2811 4.1457 46.2509 5.93693 43.1163C6.60864 41.9967 6.16083 40.6533 5.04132 39.9816C3.9218 39.3099 2.57838 39.7577 1.90667 40.8772C-0.780167 45.5792 -0.556264 51.1768 2.13057 55.6548C4.59351 59.909 9.29548 62.5958 14.2213 62.5958H27.2077C28.5511 62.5958 29.4468 61.7002 29.4468 60.3568V54.9831L38.4029 60.3568L25.8643 67.7456C25.1926 68.1934 24.7448 68.8651 24.7448 69.7607C24.7448 71.1041 25.8643 71.9997 26.9838 71.9997C27.4316 71.9997 27.6555 71.7758 28.1033 71.5519L43.7766 62.148C44.2244 61.9241 44.4483 61.7002 44.6722 61.2524C45.3439 60.3568 44.8961 59.0134 43.7766 58.5655Z" fill="white"/>
</svg>
