<svg width="418" height="243" viewBox="0 0 418 243" fill="none" xmlns="http://www.w3.org/2000/svg">
<g clip-path="url(#clip0_1666_1740)">
<g clip-path="url(#clip1_1666_1740)">
<path d="M91.3814 347.67C91.3623 347.691 91.3404 347.709 91.3165 347.724C91.2927 347.737 91.2676 347.748 91.2415 347.756C90.2839 347.772 22.7219 343.157 22.0489 343.017L-8.34931 280.844C-8.33249 280.76 -8.30808 280.678 -8.27641 280.599C-8.175 280.429 -8.06972 280.264 -7.96058 280.101C4.78704 261.142 17.54 242.188 30.2982 223.238C30.3166 223.217 30.3389 223.2 30.3638 223.187C30.3784 223.166 30.4155 223.162 30.4927 223.123C30.7977 223.138 31.166 223.159 31.5263 223.186L88.334 227.044C91.7517 227.282 95.1646 227.515 98.5726 227.742C99.7312 227.826 99.5059 227.659 100.056 228.761C100.511 229.699 100.962 230.633 101.421 231.557C110.848 250.825 120.272 270.094 129.693 289.362C129.814 289.614 129.926 289.869 130.025 290.084C130.009 290.157 129.985 290.227 129.953 290.294C117.269 309.159 104.588 328.028 91.9119 346.9C91.7495 347.16 91.5662 347.409 91.3814 347.67ZM15.1893 323.764C16.8536 327.198 18.5271 330.624 20.2098 334.043L23.1678 340.085C23.2368 340.208 23.2982 340.334 23.3515 340.465C23.3994 340.611 23.495 340.738 23.623 340.824C23.751 340.91 23.9042 340.951 24.058 340.94C25.3735 341.016 26.6823 341.126 28.0021 341.205L87.83 345.266C88.1636 345.326 88.505 345.329 88.8392 345.272C88.8323 345.17 88.8508 345.081 88.817 345.014C85.9528 339.143 83.0865 333.27 80.1755 327.322C58.3927 325.848 36.6412 324.372 14.921 322.896C14.9118 323.207 15.0062 323.512 15.1893 323.764ZM86.6021 315.633C88.2586 313.169 89.9186 310.701 91.5819 308.227C91.7515 307.974 91.9116 307.713 92.0959 307.42L83.517 289.884C83.4707 289.802 83.417 289.725 83.3566 289.653C83.1315 289.631 83.0778 289.781 83.0019 289.885C82.8922 290.048 82.7826 290.211 82.673 290.374C75.4251 301.153 68.1767 311.933 60.9279 322.714L60.4002 323.499C60.5524 323.601 60.6059 323.663 60.6415 323.661C67.1539 324.113 73.6581 324.562 80.1541 325.007C80.5137 324.829 80.6443 324.503 80.8285 324.229C82.7586 321.354 84.6749 318.495 86.6021 315.633ZM19.5661 313.588L15.5261 319.596C15.3551 319.851 15.1855 320.103 15.0393 320.349C15.203 320.645 15.4554 320.575 15.6639 320.589C17.4235 320.72 19.1837 320.84 20.9444 320.951C32.8783 321.765 44.813 322.577 56.7483 323.386C57.0258 323.405 57.3055 323.416 57.6069 323.433C57.7559 323.249 57.9033 323.086 58.0297 322.903C61.488 317.759 64.9472 312.615 68.4075 307.468C68.5259 307.292 68.6095 307.093 68.72 306.886C68.6336 306.835 68.5402 306.797 68.4429 306.772C54.3546 305.816 40.2882 304.862 26.2435 303.911C25.9556 304.088 25.7255 304.346 25.5808 304.652C23.5706 307.629 21.5657 310.608 19.5661 313.588ZM70.9135 303.746C73.5591 299.811 76.2047 295.877 78.8503 291.942C79.7721 290.571 80.6978 289.194 81.6274 287.811C81.7985 287.557 81.955 287.296 82.0997 287.072C81.8931 286.402 73.4328 269.009 72.7797 267.891C72.5123 267.711 72.1946 267.757 71.8946 267.738C66.7942 267.389 61.7015 267.045 56.6166 266.705C55.1605 266.608 53.7056 266.51 52.2519 266.412C51.9745 266.393 51.6955 266.385 51.3911 266.373C50.7983 267.095 39.9205 283.32 39.6298 283.898C39.8444 284.56 48.5832 302.441 49.031 303.118L70.3094 304.555C70.519 304.286 70.7264 304.024 70.912 303.748L70.9135 303.746ZM-5.3494 281.762L12.4865 318.253C12.6191 318.526 12.7605 318.785 12.9523 319.147C13.5128 318.511 23.797 303.216 24.1369 302.513C17.9987 289.968 11.847 277.39 5.68185 264.778C5.60343 264.64 5.51787 264.505 5.42551 264.376C5.3147 264.465 5.20995 264.561 5.11196 264.664C4.9893 264.818 4.89271 264.99 4.78309 265.153C1.44758 270.113 -1.88841 275.075 -5.2249 280.037C-5.83958 280.965 -5.83737 280.774 -5.35086 281.764L-5.3494 281.762ZM30.617 226.792C30.3977 227.118 30.2203 227.33 30.0669 227.559L7.32634 261.38C6.91708 261.988 6.91415 261.993 7.24714 262.671C9.4396 267.157 11.6323 271.64 13.8253 276.122L25.8326 300.677C25.9638 300.951 26.1037 301.212 26.2466 301.469C27.0261 301.653 41.5943 302.704 45.7261 302.887C45.8591 302.892 45.9928 302.871 46.1571 302.861C46.1463 302.569 46.0515 302.286 45.8842 302.047C44.6725 299.548 43.4547 297.054 42.2309 294.565C41.0484 292.145 39.8654 289.726 38.682 287.308L27.3533 264.195C27.2056 263.893 27.0702 263.588 26.9138 263.252L39.4373 244.626L30.896 227.138C30.8109 227.017 30.7171 226.902 30.6155 226.794L30.617 226.792ZM61.2489 247.388C61.2293 247.354 61.2065 247.322 61.181 247.292C61.1631 247.273 61.1407 247.257 61.1158 247.248C60.9495 247.228 60.7825 247.204 60.6161 247.193C54.2395 246.757 47.8636 246.324 41.5959 245.904C41.4665 245.947 41.441 245.952 41.417 245.964C41.3929 245.98 41.3713 245.999 41.3528 246.022C41.2914 246.113 41.209 246.193 41.1476 246.285C37.358 251.921 33.5684 257.557 29.7788 263.193C29.738 263.263 29.7032 263.337 29.6748 263.413C29.8555 264.008 37.8201 280.355 38.355 281.245C38.532 281.301 38.6016 281.165 38.6805 281.057C38.8047 280.872 38.9319 280.683 39.0561 280.498C46.2904 269.739 53.5236 258.981 60.7559 248.225C60.9583 247.974 61.1224 247.695 61.2431 247.397L61.2489 247.388ZM106.756 247.673L98.1205 230.001L33.1137 225.605C33.0411 225.6 32.966 225.651 32.8773 225.679C32.8723 225.765 32.8816 225.851 32.9046 225.934C35.7658 231.801 38.6263 237.673 41.4596 243.455L41.6139 243.558C41.6382 243.573 41.6651 243.582 41.693 243.586C48.678 244.074 55.6671 244.557 62.6604 245.036C77.3114 246.025 91.9619 247.012 106.612 247.996C106.639 247.992 106.666 247.985 106.69 247.973C106.717 247.962 106.738 247.945 106.777 247.924C106.769 247.833 106.788 247.739 106.756 247.673ZM106.643 250.438C106.356 250.32 106.045 250.271 105.735 250.295C102.351 250.058 98.966 249.826 95.5817 249.598L65.0417 247.527C63.9013 247.448 64.0993 247.36 63.4854 248.273C60.1352 253.256 56.7851 258.238 53.435 263.221C53.2299 263.447 53.0774 263.715 52.9887 264.007C53.2457 264.23 53.541 264.157 53.8177 264.182C57.8397 264.46 61.8647 264.734 65.8925 265.003C75.4557 265.65 85.0193 266.293 94.5834 266.932C95.7238 267.011 95.5285 267.142 96.2104 266.132C99.5284 261.198 102.847 256.261 106.167 251.324C106.386 251.067 106.547 250.766 106.64 250.442L106.643 250.438ZM95.4116 269.348L75.8691 268.024C75.7406 268.032 75.6131 268.052 75.4882 268.083C75.7306 268.897 76.1652 269.583 76.5125 270.316C76.8599 271.048 77.2217 271.777 77.5814 272.505L78.6509 274.699L79.7219 276.89L80.7944 279.079L81.8654 281.27C82.2221 282.002 82.5745 282.732 82.9364 283.461C83.2982 284.19 83.6718 284.902 84.0263 285.643C84.3809 286.383 84.7673 287.151 85.1377 287.905C85.5082 288.659 85.8491 289.368 86.1942 290.09L87.2674 292.282L88.3399 294.471L89.4087 296.661L90.4797 298.852L91.5507 301.043L92.6217 303.234C92.9777 303.963 93.3396 304.692 93.6942 305.423C94.0487 306.154 94.399 306.882 94.7672 307.644L82.2993 326.187C82.5073 326.854 90.5326 343.299 90.9738 343.99C91.1508 344.046 91.2276 343.917 91.3036 343.804C91.4293 343.617 91.5535 343.433 91.6807 343.244C99.179 332.092 106.678 320.939 114.177 309.786C114.82 308.829 114.848 309.065 114.322 307.989L95.8139 270.14C95.6913 269.89 95.5601 269.644 95.4087 269.353L95.4116 269.348ZM127.424 289.976C127.405 289.915 127.382 289.855 127.355 289.797L108.881 252.015C108.841 251.951 108.793 251.891 108.739 251.838C108.535 251.802 108.487 251.962 108.413 252.064C108.276 252.243 108.162 252.438 108.037 252.622L97.4973 268.298C103.692 280.963 109.878 293.607 116.055 306.231C116.108 306.317 116.17 306.397 116.24 306.469C116.329 306.435 116.397 306.433 116.424 306.397C117.012 305.65 127.111 290.568 127.421 289.981L127.424 289.976Z" fill="#47867A"/>
</g>
<g clip-path="url(#clip2_1666_1740)">
<path d="M99.7651 229.566C99.746 229.587 99.7242 229.606 99.7003 229.621C99.6765 229.634 99.6514 229.644 99.6253 229.652C98.6677 229.668 31.1057 225.053 30.4327 224.913L0.0344791 162.74C0.0513024 162.657 0.0757044 162.575 0.107374 162.496C0.208791 162.326 0.314069 162.16 0.423206 161.998C13.1708 143.039 25.9238 124.084 38.682 105.135C38.7004 105.114 38.7227 105.096 38.7476 105.084C38.7622 105.062 38.7993 105.059 38.8764 105.019C39.1815 105.035 39.5498 105.055 39.9101 105.083L96.7178 108.941C100.136 109.179 103.548 109.411 106.956 109.638C108.115 109.723 107.89 109.555 108.44 110.657C108.895 111.595 109.346 112.53 109.805 113.453C119.232 132.722 128.656 151.99 138.077 171.258C138.198 171.51 138.31 171.766 138.409 171.98C138.393 172.053 138.369 172.124 138.337 172.191C125.653 191.056 112.972 209.924 100.296 228.796C100.133 229.056 99.95 229.306 99.7651 229.566ZM23.5731 205.661C25.2374 209.094 26.9109 212.521 28.5936 215.94L31.5515 221.982C31.6206 222.104 31.682 222.231 31.7353 222.361C31.7832 222.508 31.8788 222.634 32.0068 222.72C32.1348 222.806 32.2879 222.847 32.4418 222.836C33.7573 222.913 35.0661 223.022 36.3859 223.102L96.2138 227.163C96.5473 227.223 96.8887 227.225 97.223 227.169C97.2161 227.066 97.2346 226.978 97.2007 226.911C94.3366 221.039 91.4703 215.166 88.5593 209.219C66.7765 207.744 45.025 206.269 23.3048 204.792C23.2956 205.103 23.39 205.409 23.5731 205.661ZM94.9859 197.53C96.6424 195.066 98.3024 192.597 99.9657 190.123C100.135 189.871 100.295 189.609 100.48 189.317L91.9008 171.78C91.8545 171.699 91.8008 171.621 91.7404 171.549C91.5153 171.527 91.4616 171.678 91.3857 171.781C91.276 171.944 91.1664 172.107 91.0568 172.27C83.8089 183.05 76.5605 193.83 69.3117 204.611L68.784 205.396C68.9362 205.498 68.9897 205.559 69.0253 205.558C75.5377 206.01 82.0419 206.458 88.5379 206.903C88.8975 206.725 89.0281 206.4 89.2123 206.126C91.1424 203.25 93.0587 200.391 94.9859 197.53ZM27.9499 195.484L23.9099 201.493C23.7389 201.747 23.5693 201.999 23.4231 202.245C23.5868 202.542 23.8392 202.471 24.0477 202.485C25.8073 202.616 27.5675 202.737 29.3282 202.848C41.2621 203.662 53.1967 204.473 65.1321 205.282C65.4096 205.302 65.6893 205.313 65.9907 205.329C66.1397 205.145 66.2871 204.983 66.4135 204.799C69.8718 199.656 73.331 194.511 76.7913 189.365C76.9097 189.189 76.9933 188.989 77.1038 188.783C77.0173 188.732 76.924 188.693 76.8267 188.669C62.7384 187.713 48.6719 186.759 34.6273 185.807C34.3394 185.985 34.1093 186.242 33.9646 186.548C31.9544 189.526 29.9495 192.504 27.9499 195.484ZM79.2973 185.642C81.9429 181.708 84.5885 177.773 87.2341 173.838C88.1559 172.467 89.0816 171.091 90.0112 169.708C90.1822 169.454 90.3388 169.193 90.4835 168.968C90.2769 168.299 81.8166 150.905 81.1635 149.788C80.8961 149.608 80.5784 149.653 80.2784 149.634C75.178 149.286 70.0853 148.942 65.0004 148.601C63.5443 148.504 62.0894 148.407 60.6357 148.309C60.3583 148.289 60.0793 148.282 59.7749 148.27C59.1821 148.992 48.3043 165.217 48.0135 165.795C48.2282 166.457 56.967 184.337 57.4148 185.014L78.6932 186.452C78.9028 186.182 79.1102 185.921 79.2958 185.645L79.2973 185.642ZM3.03439 163.659L20.8703 200.15C21.0029 200.422 21.1443 200.681 21.3361 201.044C21.8966 200.408 32.1808 185.112 32.5207 184.41C26.3824 171.865 20.2308 159.286 14.0656 146.675C13.9872 146.536 13.9017 146.402 13.8093 146.272C13.6985 146.361 13.5937 146.457 13.4958 146.56C13.3731 146.714 13.2765 146.886 13.1669 147.049C9.83137 152.01 6.49538 156.971 3.15889 161.934C2.54421 162.862 2.54641 162.671 3.03293 163.661L3.03439 163.659ZM39.0007 108.689C38.7815 109.015 38.6041 109.227 38.4506 109.455L15.7101 143.276C15.3009 143.885 15.2979 143.889 15.6309 144.568C17.8234 149.053 20.0161 153.537 22.209 158.019L34.2164 182.573C34.3476 182.847 34.4875 183.109 34.6303 183.366C35.4099 183.549 49.9781 184.6 54.1099 184.784C54.2429 184.788 54.3766 184.767 54.5409 184.758C54.5301 184.466 54.4353 184.183 54.268 183.943C53.0563 181.445 51.8385 178.951 50.6146 176.461C49.4322 174.042 48.2492 171.623 47.0658 169.204L35.7371 146.091C35.5893 145.79 35.454 145.484 35.2976 145.149L47.8211 126.523L39.2798 109.034C39.1947 108.913 39.1009 108.798 38.9993 108.691L39.0007 108.689ZM69.6327 129.285C69.6131 129.251 69.5903 129.219 69.5648 129.189C69.5469 129.169 69.5245 129.154 69.4996 129.145C69.3333 129.125 69.1663 129.101 68.9999 129.09C62.6233 128.653 56.2474 128.221 49.9797 127.801C49.8502 127.843 49.8248 127.848 49.8008 127.86C49.7767 127.876 49.7551 127.896 49.7366 127.918C49.6752 128.01 49.5928 128.09 49.5314 128.181C45.7418 133.817 41.9522 139.453 38.1626 145.089C38.1218 145.16 38.087 145.234 38.0586 145.31C38.2393 145.905 46.2039 162.252 46.7388 163.142C46.9158 163.197 46.9854 163.061 47.0643 162.953C47.1885 162.768 47.3157 162.579 47.4399 162.395C54.6742 151.635 61.9074 140.878 69.1397 130.121C69.3421 129.871 69.5062 129.592 69.6269 129.294L69.6327 129.285ZM115.14 129.57L106.504 111.897L41.4975 107.501C41.4248 107.496 41.3498 107.547 41.2611 107.576C41.2561 107.662 41.2654 107.748 41.2884 107.831C44.1496 113.697 47.0101 119.57 49.8434 125.351L49.9977 125.455C50.022 125.469 50.0489 125.479 50.0768 125.483C57.0618 125.97 64.0509 126.454 71.0442 126.932C85.6952 127.921 100.346 128.908 114.996 129.892C115.023 129.889 115.049 129.881 115.074 129.869C115.1 129.859 115.122 129.841 115.161 129.82C115.153 129.73 115.172 129.635 115.14 129.57ZM115.027 132.334C114.74 132.216 114.429 132.168 114.119 132.191C110.734 131.955 107.35 131.722 103.966 131.494L73.4254 129.423C72.2851 129.345 72.483 129.257 71.8691 130.17C68.519 135.152 65.1689 140.135 61.8188 145.117C61.6137 145.343 61.4612 145.611 61.3725 145.903C61.6295 146.127 61.9248 146.054 62.2015 146.079C66.2235 146.357 70.2485 146.63 74.2763 146.899C83.8394 147.546 93.4031 148.19 102.967 148.829C104.108 148.907 103.912 149.038 104.594 148.029C107.912 143.094 111.231 138.158 114.551 133.22C114.769 132.963 114.931 132.663 115.024 132.339L115.027 132.334ZM103.795 151.245L84.2529 149.92C84.1244 149.929 83.9969 149.949 83.872 149.98C84.1144 150.793 84.549 151.48 84.8963 152.212C85.2436 152.945 85.6055 153.674 85.9652 154.402L87.0347 156.595L88.1057 158.786L89.1782 160.975L90.2492 163.166C90.6059 163.899 90.9583 164.628 91.3202 165.358C91.682 166.087 92.0556 166.799 92.4101 167.539C92.7646 168.28 93.151 169.048 93.5215 169.802C93.892 170.556 94.2328 171.265 94.578 171.986L95.6512 174.179L96.7237 176.368L97.7925 178.557L98.8635 180.749L99.9345 182.94L101.005 185.131C101.362 185.859 101.723 186.589 102.078 187.32C102.433 188.051 102.783 188.779 103.151 189.541L90.6831 208.084C90.8911 208.751 98.9163 225.195 99.3575 225.886C99.5346 225.942 99.6114 225.814 99.6874 225.701C99.8131 225.514 99.9373 225.329 100.064 225.14C107.563 213.988 115.062 202.835 122.561 191.682C123.204 190.726 123.231 190.962 122.705 189.885L104.198 152.036C104.075 151.787 103.944 151.54 103.792 151.249L103.795 151.245ZM135.808 171.873C135.789 171.812 135.766 171.752 135.739 171.694L117.265 133.912C117.225 133.847 117.177 133.787 117.122 133.734C116.919 133.698 116.871 133.859 116.797 133.96C116.66 134.14 116.545 134.334 116.421 134.519L105.881 150.195C112.076 162.859 118.262 175.504 124.439 188.128C124.492 188.214 124.553 188.293 124.624 188.366C124.713 188.331 124.781 188.329 124.808 188.294C125.395 187.546 135.495 172.464 135.805 171.877L135.808 171.873Z" fill="#47867A"/>
</g>
<g clip-path="url(#clip3_1666_1740)">
<path d="M197.59 295.342C197.571 295.363 197.549 295.381 197.525 295.396C197.501 295.409 197.476 295.42 197.45 295.428C196.492 295.444 128.93 290.829 128.257 290.689L97.8592 228.516C97.876 228.432 97.9004 228.35 97.9321 228.271C98.0335 228.101 98.1388 227.935 98.2479 227.773C110.996 208.814 123.748 189.86 136.507 170.91C136.525 170.889 136.547 170.872 136.572 170.859C136.587 170.838 136.624 170.834 136.701 170.794C137.006 170.81 137.375 170.831 137.735 170.858L194.543 174.716C197.96 174.954 201.373 175.186 204.781 175.413C205.94 175.498 205.714 175.331 206.264 176.433C206.72 177.37 207.171 178.305 207.629 179.229C217.057 198.497 226.481 217.765 235.902 237.034C236.023 237.286 236.135 237.541 236.234 237.756C236.218 237.828 236.194 237.899 236.162 237.966C223.477 256.831 210.797 275.699 198.12 294.572C197.958 294.832 197.775 295.081 197.59 295.342ZM121.398 271.436C123.062 274.87 124.736 278.296 126.418 281.715L129.376 287.757C129.445 287.88 129.507 288.006 129.56 288.136C129.608 288.283 129.703 288.41 129.832 288.496C129.96 288.582 130.113 288.622 130.267 288.612C131.582 288.688 132.891 288.798 134.211 288.877L194.039 292.938C194.372 292.998 194.713 293 195.048 292.944C195.041 292.842 195.059 292.753 195.025 292.686C192.161 286.815 189.295 280.942 186.384 274.994C164.601 273.52 142.85 272.044 121.129 270.567C121.12 270.879 121.215 271.184 121.398 271.436ZM192.811 263.305C194.467 260.841 196.127 258.372 197.79 255.899C197.96 255.646 198.12 255.385 198.304 255.092L189.725 237.556C189.679 237.474 189.626 237.397 189.565 237.325C189.34 237.303 189.286 237.453 189.21 237.557C189.101 237.72 188.991 237.883 188.881 238.046C181.634 248.825 174.385 259.605 167.136 270.386L166.609 271.171C166.761 271.273 166.814 271.335 166.85 271.333C173.362 271.785 179.867 272.234 186.363 272.679C186.722 272.501 186.853 272.175 187.037 271.901C188.967 269.026 190.883 266.166 192.811 263.305ZM125.775 261.26L121.735 267.268C121.564 267.523 121.394 267.775 121.248 268.021C121.412 268.317 121.664 268.247 121.872 268.261C123.632 268.392 125.392 268.512 127.153 268.623C139.087 269.437 151.021 270.249 162.957 271.058C163.234 271.077 163.514 271.088 163.815 271.105C163.964 270.921 164.112 270.758 164.238 270.575C167.696 265.431 171.156 260.286 174.616 255.14C174.734 254.964 174.818 254.765 174.928 254.558C174.842 254.507 174.749 254.469 174.651 254.444C160.563 253.488 146.497 252.534 132.452 251.582C132.164 251.76 131.934 252.018 131.789 252.324C129.779 255.301 127.774 258.28 125.775 261.26ZM177.122 251.418C179.768 247.483 182.413 243.548 185.059 239.614C185.981 238.243 186.906 236.866 187.836 235.483C188.007 235.229 188.163 234.968 188.308 234.743C188.102 234.074 179.641 216.681 178.988 215.563C178.721 215.383 178.403 215.428 178.103 215.41C173.003 215.061 167.91 214.717 162.825 214.377C161.369 214.279 159.914 214.182 158.46 214.084C158.183 214.065 157.904 214.057 157.6 214.045C157.007 214.767 146.129 230.992 145.838 231.57C146.053 232.232 154.792 250.113 155.239 250.79L176.518 252.227C176.728 251.958 176.935 251.696 177.121 251.42L177.122 251.418ZM100.859 229.434L118.695 265.925C118.828 266.198 118.969 266.457 119.161 266.819C119.721 266.183 130.006 250.888 130.345 250.185C124.207 237.64 118.055 225.062 111.89 212.45C111.812 212.312 111.726 212.177 111.634 212.048C111.523 212.136 111.418 212.233 111.32 212.335C111.198 212.49 111.101 212.662 110.992 212.825C107.656 217.785 104.32 222.747 100.984 227.709C100.369 228.637 100.371 228.446 100.858 229.436L100.859 229.434ZM136.825 174.464C136.606 174.79 136.429 175.002 136.275 175.23L113.535 209.051C113.126 209.66 113.123 209.665 113.456 210.343C115.648 214.829 117.841 219.312 120.034 223.794L132.041 248.348C132.172 248.623 132.312 248.884 132.455 249.141C133.235 249.324 147.803 250.376 151.935 250.559C152.068 250.563 152.201 250.543 152.366 250.533C152.355 250.241 152.26 249.958 152.093 249.719C150.881 247.22 149.663 244.726 148.439 242.237C147.257 239.817 146.074 237.398 144.89 234.98L133.562 211.867C133.414 211.565 133.279 211.26 133.122 210.924L145.646 192.298L137.105 174.809C137.019 174.688 136.926 174.574 136.824 174.466L136.825 174.464ZM167.457 195.06C167.438 195.026 167.415 194.994 167.389 194.964C167.372 194.944 167.349 194.929 167.324 194.92C167.158 194.9 166.991 194.876 166.825 194.865C160.448 194.429 154.072 193.996 147.804 193.576C147.675 193.618 147.65 193.623 147.625 193.636C147.601 193.652 147.58 193.671 147.561 193.694C147.5 193.785 147.418 193.865 147.356 193.957C143.567 199.593 139.777 205.229 135.987 210.865C135.946 210.935 135.912 211.009 135.883 211.085C136.064 211.68 144.029 228.027 144.563 228.917C144.741 228.973 144.81 228.837 144.889 228.729C145.013 228.544 145.14 228.355 145.265 228.17C152.499 217.411 159.732 206.653 166.964 195.897C167.167 195.646 167.331 195.367 167.452 195.069L167.457 195.06ZM212.965 195.345L204.329 177.673L139.322 173.276C139.25 173.272 139.175 173.322 139.086 173.351C139.081 173.437 139.09 173.523 139.113 173.606C141.974 179.473 144.835 185.345 147.668 191.126L147.822 191.23C147.847 191.244 147.874 191.254 147.901 191.258C154.886 191.746 161.876 192.229 168.869 192.707C183.52 193.697 198.17 194.683 212.82 195.668C212.848 195.664 212.874 195.657 212.899 195.645C212.925 195.634 212.946 195.617 212.986 195.596C212.977 195.505 212.997 195.411 212.965 195.345ZM212.851 198.11C212.564 197.992 212.253 197.943 211.944 197.967C208.559 197.73 205.175 197.498 201.79 197.27L171.25 195.199C170.11 195.12 170.308 195.032 169.694 195.945C166.344 200.928 162.994 205.91 159.643 210.893C159.438 211.118 159.286 211.387 159.197 211.679C159.454 211.902 159.749 211.829 160.026 211.854C164.048 212.132 168.073 212.405 172.101 212.675C181.664 213.322 191.228 213.965 200.792 214.604C201.932 214.683 201.737 214.814 202.419 213.804C205.737 208.869 209.056 203.933 212.376 198.996C212.594 198.739 212.755 198.438 212.849 198.114L212.851 198.11ZM201.62 217.02L182.078 215.696C181.949 215.704 181.822 215.724 181.697 215.755C181.939 216.569 182.374 217.255 182.721 217.988C183.068 218.72 183.43 219.449 183.79 220.177L184.859 222.371L185.93 224.562L187.003 226.751L188.074 228.942C188.431 229.674 188.783 230.403 189.145 231.133C189.507 231.862 189.88 232.574 190.235 233.315C190.589 234.055 190.976 234.823 191.346 235.577C191.717 236.331 192.058 237.04 192.403 237.762L193.476 239.954L194.548 242.143L195.617 244.333L196.688 246.524L197.759 248.715L198.83 250.906C199.186 251.635 199.548 252.364 199.903 253.095C200.257 253.826 200.607 254.554 200.976 255.316L188.508 273.859C188.716 274.526 196.741 290.97 197.182 291.662C197.359 291.718 197.436 291.589 197.512 291.476C197.638 291.289 197.762 291.105 197.889 290.915C205.388 279.763 212.886 268.611 220.386 257.457C221.029 256.501 221.056 256.737 220.53 255.661L202.022 217.812C201.9 217.562 201.769 217.316 201.617 217.025L201.62 217.02ZM233.632 237.648C233.614 237.587 233.591 237.527 233.563 237.469L215.09 199.687C215.049 199.622 215.002 199.563 214.947 199.509C214.744 199.474 214.696 199.634 214.621 199.736C214.485 199.915 214.37 200.109 214.246 200.294L203.706 215.97C209.9 228.635 216.086 241.279 222.264 253.903C222.316 253.989 222.378 254.069 222.448 254.141C222.538 254.106 222.605 254.104 222.632 254.069C223.22 253.322 233.32 238.24 233.629 237.652L233.632 237.648Z" fill="#47867A"/>
</g>
<g clip-path="url(#clip4_1666_1740)">
<path d="M296.504 360.902C296.485 360.923 296.463 360.941 296.44 360.957C296.416 360.97 296.391 360.98 296.365 360.988C295.407 361.004 227.845 356.389 227.172 356.249L196.774 294.076C196.791 293.993 196.815 293.911 196.847 293.832C196.948 293.662 197.053 293.496 197.162 293.334C209.91 274.375 222.663 255.42 235.421 236.47C235.44 236.449 235.462 236.432 235.487 236.42C235.501 236.398 235.539 236.395 235.616 236.355C235.921 236.371 236.289 236.391 236.649 236.419L293.457 240.277C296.875 240.515 300.288 240.747 303.696 240.974C304.854 241.058 304.629 240.891 305.179 241.993C305.634 242.931 306.086 243.866 306.544 244.789C315.971 264.058 325.395 283.326 334.816 302.594C334.937 302.846 335.05 303.102 335.148 303.316C335.133 303.389 335.108 303.46 335.076 303.527C322.392 322.392 309.711 341.26 297.035 360.132C296.873 360.392 296.689 360.642 296.504 360.902ZM220.312 336.996C221.977 340.43 223.65 343.857 225.333 347.276L228.291 353.318C228.36 353.44 228.421 353.567 228.475 353.697C228.522 353.844 228.618 353.97 228.746 354.056C228.874 354.142 229.027 354.183 229.181 354.172C230.497 354.248 231.805 354.358 233.125 354.438L292.953 358.499C293.287 358.559 293.628 358.561 293.962 358.505C293.955 358.402 293.974 358.314 293.94 358.247C291.076 352.375 288.21 346.502 285.299 340.555C263.516 339.08 241.764 337.605 220.044 336.128C220.035 336.439 220.129 336.745 220.312 336.996ZM291.725 328.865C293.382 326.402 295.042 323.933 296.705 321.459C296.875 321.207 297.035 320.945 297.219 320.652L288.64 303.116C288.594 303.034 288.54 302.957 288.48 302.885C288.255 302.863 288.201 303.013 288.125 303.117C288.015 303.28 287.906 303.443 287.796 303.606C280.548 314.386 273.3 325.166 266.051 335.947L265.523 336.732C265.675 336.834 265.729 336.895 265.765 336.894C272.277 337.346 278.781 337.794 285.277 338.239C285.637 338.061 285.767 337.736 285.952 337.462C287.882 334.586 289.798 331.727 291.725 328.865ZM224.689 326.82L220.649 332.829C220.478 333.083 220.309 333.335 220.162 333.581C220.326 333.877 220.578 333.807 220.787 333.821C222.547 333.952 224.307 334.073 226.067 334.183C238.001 334.998 249.936 335.809 261.871 336.618C262.149 336.638 262.429 336.649 262.73 336.665C262.879 336.481 263.026 336.318 263.153 336.135C266.611 330.992 270.07 325.847 273.531 320.701C273.649 320.525 273.733 320.325 273.843 320.119C273.757 320.068 273.663 320.029 273.566 320.005C259.478 319.049 245.411 318.095 231.367 317.143C231.079 317.321 230.849 317.578 230.704 317.884C228.694 320.862 226.689 323.84 224.689 326.82ZM276.037 316.978C278.682 313.044 281.328 309.109 283.973 305.174C284.895 303.803 285.821 302.426 286.75 301.044C286.921 300.79 287.078 300.529 287.223 300.304C287.016 299.635 278.556 282.241 277.903 281.124C277.635 280.944 277.318 280.989 277.018 280.97C271.917 280.622 266.825 280.277 261.74 279.937C260.284 279.84 258.829 279.742 257.375 279.645C257.098 279.625 256.819 279.618 256.514 279.606C255.921 280.328 245.044 296.553 244.753 297.131C244.967 297.793 253.706 315.673 254.154 316.35L275.432 317.788C275.642 317.518 275.849 317.257 276.035 316.981L276.037 316.978ZM199.774 294.995L217.61 331.486C217.742 331.758 217.884 332.017 218.075 332.38C218.636 331.743 228.92 316.448 229.26 315.745C223.122 303.201 216.97 290.622 210.805 278.011C210.726 277.872 210.641 277.738 210.549 277.608C210.438 277.697 210.333 277.793 210.235 277.896C210.112 278.05 210.016 278.222 209.906 278.385C206.571 283.346 203.235 288.307 199.898 293.27C199.283 294.198 199.286 294.007 199.772 294.997L199.774 294.995ZM235.74 240.025C235.521 240.351 235.343 240.563 235.19 240.791L212.449 274.612C212.04 275.221 212.037 275.225 212.37 275.904C214.563 280.389 216.755 284.873 218.948 289.355L230.956 313.909C231.087 314.183 231.227 314.445 231.37 314.702C232.149 314.885 246.717 315.936 250.849 316.12C250.982 316.124 251.116 316.103 251.28 316.094C251.269 315.802 251.175 315.519 251.007 315.279C249.796 312.781 248.578 310.287 247.354 307.797C246.171 305.378 244.988 302.959 243.805 300.54L232.476 277.427C232.329 277.126 232.193 276.82 232.037 276.485L244.56 257.859L236.019 240.37C235.934 240.249 235.84 240.134 235.739 240.027L235.74 240.025ZM266.372 260.621C266.352 260.587 266.33 260.555 266.304 260.525C266.286 260.505 266.264 260.49 266.239 260.481C266.073 260.46 265.906 260.437 265.739 260.426C259.363 259.989 252.987 259.557 246.719 259.137C246.589 259.179 246.564 259.184 246.54 259.196C246.516 259.212 246.494 259.232 246.476 259.254C246.414 259.345 246.332 259.426 246.271 259.517C242.481 265.153 238.691 270.789 234.902 276.425C234.861 276.496 234.826 276.57 234.798 276.646C234.979 277.241 242.943 293.588 243.478 294.477C243.655 294.533 243.725 294.397 243.804 294.289C243.928 294.104 244.055 293.915 244.179 293.73C251.413 282.971 258.647 272.214 265.879 261.457C266.081 261.207 266.245 260.928 266.366 260.629L266.372 260.621ZM311.879 260.906L303.244 243.233L238.237 238.837C238.164 238.832 238.089 238.883 238 238.912C237.995 238.998 238.005 239.084 238.028 239.167C240.889 245.033 243.749 250.906 246.583 256.687L246.737 256.791C246.761 256.805 246.788 256.814 246.816 256.819C253.801 257.306 260.79 257.789 267.783 258.268C282.434 259.257 297.085 260.244 311.735 261.228C311.762 261.225 311.789 261.217 311.814 261.205C311.84 261.195 311.861 261.177 311.9 261.156C311.892 261.065 311.911 260.971 311.879 260.906ZM311.766 263.67C311.479 263.552 311.168 263.503 310.858 263.527C307.474 263.291 304.089 263.058 300.705 262.83L270.165 260.759C269.024 260.681 269.222 260.593 268.608 261.506C265.258 266.488 261.908 271.471 258.558 276.453C258.353 276.679 258.2 276.947 258.112 277.239C258.369 277.462 258.664 277.39 258.941 277.415C262.963 277.692 266.988 277.966 271.016 278.235C280.579 278.882 290.142 279.525 299.706 280.165C300.847 280.243 300.652 280.374 301.333 279.365C304.651 274.43 307.97 269.494 311.29 264.556C311.509 264.299 311.67 263.999 311.763 263.675L311.766 263.67ZM300.535 282.581L280.992 281.256C280.864 281.265 280.736 281.284 280.611 281.316C280.854 282.129 281.288 282.816 281.636 283.548C281.983 284.28 282.345 285.01 282.704 285.738L283.774 287.931L284.845 290.122L285.917 292.311L286.988 294.502C287.345 295.235 287.698 295.964 288.059 296.693C288.421 297.423 288.795 298.135 289.149 298.875C289.504 299.615 289.89 300.384 290.261 301.138C290.631 301.892 290.972 302.601 291.317 303.322L292.39 305.515L293.463 307.704L294.532 309.893L295.603 312.084L296.674 314.276L297.745 316.467C298.101 317.195 298.463 317.925 298.817 318.656C299.172 319.387 299.522 320.114 299.89 320.877L287.422 339.42C287.63 340.087 295.656 356.531 296.097 357.222C296.274 357.278 296.351 357.15 296.427 357.037C296.552 356.85 296.677 356.665 296.804 356.476C304.302 345.324 311.801 334.171 319.3 323.018C319.943 322.061 319.971 322.298 319.445 321.221L300.937 283.372C300.814 283.123 300.683 282.876 300.532 282.585L300.535 282.581ZM332.547 303.209C332.528 303.147 332.505 303.088 332.478 303.03L314.004 265.248C313.964 265.183 313.916 265.123 313.862 265.07C313.658 265.034 313.61 265.195 313.536 265.296C313.399 265.476 313.285 265.67 313.16 265.855L302.62 281.531C308.815 294.195 315.001 306.84 321.178 319.464C321.231 319.55 321.293 319.629 321.363 319.701C321.452 319.667 321.52 319.665 321.547 319.63C322.135 318.882 332.234 303.8 332.544 303.213L332.547 303.209Z" fill="#47867A"/>
</g>
<g clip-path="url(#clip5_1666_1740)">
<path d="M206.121 177.021C206.102 177.042 206.08 177.061 206.056 177.076C206.032 177.089 206.007 177.1 205.981 177.107C205.024 177.123 137.462 172.508 136.789 172.368L106.39 110.195C106.407 110.112 106.432 110.03 106.463 109.951C106.565 109.781 106.67 109.615 106.779 109.453C119.527 90.4938 132.28 71.5394 145.038 52.5896C145.056 52.5686 145.079 52.5514 145.104 52.539C145.118 52.5173 145.155 52.5138 145.232 52.4741C145.537 52.4899 145.906 52.5102 146.266 52.5378L203.074 56.396C206.491 56.6337 209.904 56.8661 213.312 57.0931C214.471 57.1776 214.246 57.0104 214.796 58.1125C215.251 59.0501 215.702 59.9848 216.161 60.9086C225.588 80.1769 235.012 99.4451 244.433 118.713C244.554 118.965 244.666 119.221 244.765 119.435C244.749 119.508 244.725 119.579 244.693 119.646C232.009 138.511 219.328 157.379 206.652 176.251C206.489 176.511 206.306 176.761 206.121 177.021ZM129.929 153.116C131.593 156.55 133.267 159.976 134.95 163.395L137.907 169.437C137.977 169.559 138.038 169.686 138.091 169.816C138.139 169.963 138.235 170.089 138.363 170.175C138.491 170.261 138.644 170.302 138.798 170.291C140.113 170.368 141.422 170.477 142.742 170.557L202.57 174.618C202.903 174.678 203.245 174.68 203.579 174.624C203.572 174.522 203.591 174.433 203.557 174.366C200.693 168.494 197.826 162.621 194.915 156.674C173.132 155.199 151.381 153.724 129.661 152.247C129.652 152.558 129.746 152.864 129.929 153.116ZM201.342 144.985C202.998 142.521 204.658 140.052 206.322 137.578C206.491 137.326 206.651 137.064 206.836 136.772L198.257 119.235C198.21 119.154 198.157 119.076 198.096 119.004C197.871 118.982 197.818 119.133 197.742 119.236C197.632 119.399 197.522 119.562 197.413 119.725C190.165 130.505 182.916 141.285 175.668 152.066L175.14 152.851C175.292 152.953 175.346 153.014 175.381 153.013C181.894 153.465 188.398 153.913 194.894 154.358C195.253 154.18 195.384 153.855 195.568 153.581C197.498 150.705 199.415 147.846 201.342 144.985ZM134.306 142.939L130.266 148.948C130.095 149.202 129.925 149.455 129.779 149.7C129.943 149.997 130.195 149.926 130.404 149.94C132.163 150.071 133.923 150.192 135.684 150.303C147.618 151.117 159.553 151.929 171.488 152.738C171.766 152.757 172.045 152.768 172.347 152.784C172.496 152.601 172.643 152.438 172.769 152.254C176.228 147.111 179.687 141.966 183.147 136.82C183.266 136.644 183.349 136.444 183.46 136.238C183.373 136.187 183.28 136.148 183.183 136.124C169.094 135.168 155.028 134.214 140.983 133.262C140.695 133.44 140.465 133.698 140.321 134.003C138.31 136.981 136.305 139.959 134.306 142.939ZM185.653 133.097C188.299 129.163 190.944 125.228 193.59 121.293C194.512 119.922 195.438 118.546 196.367 117.163C196.538 116.909 196.695 116.648 196.839 116.423C196.633 115.754 188.173 98.3605 187.519 97.2427C187.252 97.0629 186.934 97.1081 186.634 97.0895C181.534 96.741 176.441 96.3966 171.356 96.0564C169.9 95.9591 168.445 95.8616 166.992 95.7638C166.714 95.7446 166.435 95.7369 166.131 95.7248C165.538 96.4469 154.66 112.672 154.37 113.25C154.584 113.912 163.323 131.792 163.771 132.469L185.049 133.907C185.259 133.637 185.466 133.376 185.652 133.1L185.653 133.097ZM109.39 111.114L127.226 147.605C127.359 147.877 127.5 148.136 127.692 148.499C128.253 147.863 138.537 132.567 138.877 131.865C132.738 119.32 126.587 106.741 120.422 94.13C120.343 93.9914 120.258 93.857 120.165 93.7272C120.054 93.8161 119.95 93.9123 119.852 94.0151C119.729 94.1694 119.632 94.3412 119.523 94.5043C116.187 99.465 112.851 104.427 109.515 109.389C108.9 110.317 108.902 110.126 109.389 111.116L109.39 111.114ZM145.357 56.1437C145.137 56.4697 144.96 56.6819 144.807 56.9102L122.066 90.7312C121.657 91.3399 121.654 91.3442 121.987 92.0227C124.179 96.5083 126.372 100.992 128.565 105.474L140.572 130.028C140.704 130.303 140.843 130.564 140.986 130.821C141.766 131.004 156.334 132.056 160.466 132.239C160.599 132.243 160.733 132.223 160.897 132.213C160.886 131.921 160.791 131.638 160.624 131.398C159.412 128.9 158.194 126.406 156.971 123.916C155.788 121.497 154.605 119.078 153.422 116.659L142.093 93.5463C141.945 93.245 141.81 92.9393 141.654 92.6037L154.177 73.978L145.636 56.4891C145.551 56.3681 145.457 56.2534 145.355 56.1458L145.357 56.1437ZM175.989 76.7399C175.969 76.7058 175.946 76.6736 175.921 76.6437C175.903 76.6241 175.88 76.609 175.856 76.5999C175.689 76.5796 175.522 76.5557 175.356 76.5449C168.979 76.1085 162.603 75.6758 156.336 75.2558C156.206 75.2982 156.181 75.3032 156.157 75.3154C156.133 75.3315 156.111 75.351 156.093 75.3733C156.031 75.4646 155.949 75.5449 155.887 75.6362C152.098 81.2723 148.308 86.9084 144.519 92.5445C144.478 92.615 144.443 92.6887 144.415 92.765C144.595 93.36 152.56 109.707 153.095 110.597C153.272 110.653 153.341 110.516 153.42 110.408C153.544 110.224 153.672 110.034 153.796 109.85C161.03 99.0904 168.263 88.3327 175.496 77.5764C175.698 77.326 175.862 77.0471 175.983 76.7486L175.989 76.7399ZM221.496 77.0247L212.86 59.3524L147.853 54.9562C147.781 54.9515 147.706 55.0021 147.617 55.0308C147.612 55.1167 147.621 55.2029 147.644 55.2859C150.506 61.1524 153.366 67.0247 156.199 72.8061L156.354 72.9099C156.378 72.9242 156.405 72.9336 156.433 72.9378C163.418 73.4255 170.407 73.9086 177.4 74.3871C192.051 75.3763 206.702 76.3631 221.352 77.3475C221.379 77.344 221.405 77.3362 221.43 77.3245C221.456 77.3137 221.478 77.2964 221.517 77.2754C221.508 77.1846 221.528 77.0902 221.496 77.0247ZM221.383 79.7895C221.095 79.6716 220.785 79.6226 220.475 79.6464C217.09 79.4098 213.706 79.1775 210.321 78.9496L179.781 76.8784C178.641 76.7998 178.839 76.7119 178.225 77.6249C174.875 82.6074 171.525 87.5899 168.175 92.5724C167.97 92.7981 167.817 93.0665 167.728 93.3583C167.985 93.5816 168.281 93.5086 168.557 93.5337C172.579 93.8116 176.604 94.0852 180.632 94.3544C190.195 95.0014 199.759 95.6446 209.323 96.2839C210.464 96.3625 210.268 96.4932 210.95 95.4838C214.268 90.5491 217.587 85.613 220.907 80.6754C221.125 80.4185 221.287 80.1179 221.38 79.7938L221.383 79.7895ZM210.151 98.7L190.609 97.3755C190.48 97.3837 190.353 97.4036 190.228 97.435C190.47 98.2482 190.905 98.9351 191.252 99.6673C191.6 100.4 191.961 101.129 192.321 101.857L193.391 104.05L194.462 106.241L195.534 108.43L196.605 110.621C196.962 111.354 197.314 112.083 197.676 112.813C198.038 113.542 198.412 114.254 198.766 114.994C199.121 115.735 199.507 116.503 199.877 117.257C200.248 118.011 200.589 118.72 200.934 119.441L202.007 121.634L203.08 123.823L204.148 126.013L205.219 128.204L206.29 130.395L207.361 132.586C207.717 133.315 208.079 134.044 208.434 134.775C208.788 135.506 209.139 136.234 209.507 136.996L197.039 155.539C197.247 156.206 205.272 172.65 205.713 173.341C205.891 173.397 205.967 173.269 206.043 173.156C206.169 172.969 206.293 172.784 206.42 172.595C213.919 161.443 221.418 150.291 228.917 139.137C229.56 138.181 229.587 138.417 229.061 137.34L210.554 99.4913C210.431 99.2416 210.3 98.9956 210.148 98.7043L210.151 98.7ZM242.164 119.328C242.145 119.267 242.122 119.207 242.095 119.149L223.621 81.3669C223.581 81.3021 223.533 81.2424 223.478 81.1891C223.275 81.1534 223.227 81.3138 223.153 81.4152C223.016 81.5948 222.901 81.7891 222.777 81.9739L212.237 97.6497C218.431 110.314 224.618 122.959 230.795 135.583C230.848 135.669 230.909 135.749 230.98 135.821C231.069 135.786 231.137 135.784 231.164 135.749C231.751 135.001 241.851 119.919 242.161 119.332L242.164 119.328Z" fill="#47867A"/>
</g>
<g clip-path="url(#clip6_1666_1740)">
<path d="M303.945 242.796C303.926 242.817 303.904 242.835 303.88 242.85C303.857 242.863 303.832 242.874 303.805 242.882C302.848 242.898 235.286 238.283 234.613 238.143L204.215 175.97C204.231 175.886 204.256 175.804 204.288 175.725C204.389 175.555 204.494 175.39 204.603 175.227C217.351 156.268 230.104 137.314 242.862 118.364C242.881 118.343 242.903 118.326 242.928 118.313C242.942 118.292 242.979 118.288 243.057 118.249C243.362 118.264 243.73 118.285 244.09 118.312L300.898 122.17C304.316 122.408 307.729 122.641 311.137 122.868C312.295 122.952 312.07 122.785 312.62 123.887C313.075 124.825 313.526 125.759 313.985 126.683C323.412 145.951 332.836 165.22 342.257 184.488C342.378 184.74 342.49 184.995 342.589 185.21C342.573 185.283 342.549 185.353 342.517 185.42C329.833 204.285 317.152 223.154 304.476 242.026C304.314 242.286 304.13 242.535 303.945 242.796ZM227.753 218.89C229.418 222.324 231.091 225.75 232.774 229.169L235.732 235.211C235.801 235.334 235.862 235.46 235.915 235.591C235.963 235.737 236.059 235.864 236.187 235.95C236.315 236.036 236.468 236.077 236.622 236.066C237.937 236.142 239.246 236.252 240.566 236.331L300.394 240.392C300.728 240.452 301.069 240.455 301.403 240.398C301.396 240.296 301.415 240.207 301.381 240.14C298.517 234.269 295.65 228.396 292.739 222.448C270.957 220.974 249.205 219.498 227.485 218.021C227.476 218.333 227.57 218.638 227.753 218.89ZM299.166 210.759C300.823 208.295 302.483 205.826 304.146 203.353C304.315 203.1 304.476 202.839 304.66 202.546L296.081 185.01C296.035 184.928 295.981 184.851 295.921 184.779C295.695 184.757 295.642 184.907 295.566 185.011C295.456 185.174 295.347 185.337 295.237 185.5C287.989 196.279 280.741 207.059 273.492 217.84L272.964 218.625C273.116 218.727 273.17 218.789 273.205 218.787C279.718 219.239 286.222 219.688 292.718 220.133C293.078 219.955 293.208 219.629 293.392 219.355C295.323 216.48 297.239 213.621 299.166 210.759ZM232.13 208.714L228.09 214.722C227.919 214.977 227.75 215.229 227.603 215.475C227.767 215.771 228.019 215.701 228.228 215.715C229.987 215.846 231.748 215.966 233.508 216.077C245.442 216.891 257.377 217.703 269.312 218.512C269.59 218.531 269.869 218.542 270.171 218.559C270.32 218.375 270.467 218.212 270.594 218.029C274.052 212.885 277.511 207.741 280.971 202.594C281.09 202.418 281.173 202.219 281.284 202.012C281.198 201.961 281.104 201.923 281.007 201.898C266.919 200.942 252.852 199.988 238.807 199.037C238.52 199.214 238.289 199.472 238.145 199.778C236.135 202.755 234.13 205.734 232.13 208.714ZM283.477 198.872C286.123 194.937 288.769 191.003 291.414 187.068C292.336 185.697 293.262 184.32 294.191 182.937C294.362 182.683 294.519 182.422 294.664 182.198C294.457 181.528 285.997 164.135 285.344 163.017C285.076 162.837 284.759 162.883 284.459 162.864C279.358 162.515 274.265 162.171 269.181 161.831C267.724 161.734 266.27 161.636 264.816 161.538C264.538 161.519 264.259 161.511 263.955 161.499C263.362 162.221 252.484 178.446 252.194 179.024C252.408 179.686 261.147 197.567 261.595 198.244L282.873 199.681C283.083 199.412 283.29 199.15 283.476 198.874L283.477 198.872ZM207.215 176.888L225.05 213.379C225.183 213.652 225.324 213.911 225.516 214.273C226.077 213.637 236.361 198.342 236.701 197.639C230.563 185.094 224.411 172.516 218.246 159.904C218.167 159.766 218.082 159.631 217.989 159.502C217.879 159.591 217.774 159.687 217.676 159.79C217.553 159.944 217.457 160.116 217.347 160.279C214.012 165.239 210.676 170.201 207.339 175.163C206.724 176.091 206.727 175.9 207.213 176.89L207.215 176.888ZM243.181 121.918C242.962 122.244 242.784 122.456 242.631 122.685L219.89 156.506C219.481 157.114 219.478 157.119 219.811 157.797C222.004 162.283 224.196 166.766 226.389 171.248L238.397 195.802C238.528 196.077 238.668 196.338 238.811 196.595C239.59 196.779 254.158 197.83 258.29 198.013C258.423 198.018 258.557 197.997 258.721 197.987C258.71 197.695 258.615 197.412 258.448 197.173C257.236 194.674 256.019 192.18 254.795 189.691C253.612 187.271 252.429 184.852 251.246 182.434L239.917 159.321C239.77 159.019 239.634 158.714 239.478 158.378L252.001 139.752L243.46 122.264C243.375 122.143 243.281 122.028 243.179 121.92L243.181 121.918ZM273.813 142.514C273.793 142.48 273.77 142.448 273.745 142.418C273.727 142.398 273.705 142.383 273.68 142.374C273.513 142.354 273.346 142.33 273.18 142.319C266.803 141.883 260.428 141.45 254.16 141.03C254.03 141.073 254.005 141.078 253.981 141.09C253.957 141.106 253.935 141.125 253.917 141.148C253.855 141.239 253.773 141.319 253.712 141.411C249.922 147.047 246.132 152.683 242.343 158.319C242.302 158.389 242.267 158.463 242.239 158.539C242.42 159.134 250.384 175.481 250.919 176.371C251.096 176.427 251.166 176.291 251.244 176.183C251.369 175.998 251.496 175.809 251.62 175.624C258.854 164.865 266.088 154.107 273.32 143.351C273.522 143.1 273.686 142.821 273.807 142.523L273.813 142.514ZM319.32 142.799L310.685 125.127L245.678 120.731C245.605 120.726 245.53 120.776 245.441 120.805C245.436 120.891 245.446 120.977 245.469 121.06C248.33 126.927 251.19 132.799 254.024 138.581L254.178 138.684C254.202 138.699 254.229 138.708 254.257 138.712C261.242 139.2 268.231 139.683 275.224 140.162C289.875 141.151 304.526 142.138 319.176 143.122C319.203 143.118 319.23 143.111 319.254 143.099C319.281 143.088 319.302 143.071 319.341 143.05C319.333 142.959 319.352 142.865 319.32 142.799ZM319.207 145.564C318.92 145.446 318.609 145.397 318.299 145.421C314.915 145.184 311.53 144.952 308.146 144.724L277.606 142.653C276.465 142.574 276.663 142.486 276.049 143.399C272.699 148.382 269.349 153.364 265.999 158.347C265.794 158.573 265.641 158.841 265.553 159.133C265.81 159.356 266.105 159.283 266.382 159.308C270.404 159.586 274.429 159.86 278.457 160.129C288.02 160.776 297.583 161.419 307.147 162.058C308.288 162.137 308.092 162.268 308.774 161.258C312.092 156.324 315.411 151.387 318.731 146.45C318.95 146.193 319.111 145.892 319.204 145.568L319.207 145.564ZM307.976 164.474L288.433 163.15C288.305 163.158 288.177 163.178 288.052 163.209C288.295 164.023 288.729 164.709 289.077 165.442C289.424 166.174 289.786 166.903 290.145 167.631L291.215 169.825L292.286 172.016L293.358 174.205L294.429 176.396C294.786 177.128 295.139 177.858 295.5 178.587C295.862 179.316 296.236 180.028 296.59 180.769C296.945 181.509 297.331 182.277 297.702 183.031C298.072 183.785 298.413 184.494 298.758 185.216L299.831 187.408L300.904 189.597L301.973 191.787L303.044 193.978L304.115 196.169L305.186 198.36C305.542 199.089 305.904 199.818 306.258 200.549C306.613 201.28 306.963 202.008 307.331 202.77L294.863 221.313C295.071 221.98 303.097 238.425 303.538 239.116C303.715 239.172 303.792 239.043 303.868 238.93C303.993 238.743 304.118 238.559 304.245 238.37C311.743 227.218 319.242 216.065 326.741 204.912C327.384 203.955 327.412 204.191 326.885 203.115L308.378 165.266C308.255 165.016 308.124 164.77 307.973 164.479L307.976 164.474ZM339.988 185.102C339.969 185.041 339.946 184.981 339.919 184.923L321.445 147.141C321.405 147.077 321.357 147.017 321.303 146.963C321.099 146.928 321.051 147.088 320.977 147.19C320.84 147.369 320.726 147.564 320.601 147.748L310.061 163.424C316.256 176.089 322.442 188.733 328.619 201.357C328.672 201.443 328.734 201.523 328.804 201.595C328.893 201.56 328.961 201.559 328.988 201.523C329.576 200.776 339.675 185.694 339.985 185.107L339.988 185.102Z" fill="#47867A"/>
</g>
<g clip-path="url(#clip7_1666_1740)">
<path d="M311.67 125.454C311.651 125.475 311.629 125.493 311.606 125.508C311.582 125.522 311.557 125.532 311.531 125.54C310.573 125.556 243.011 120.941 242.338 120.801L211.94 58.6278C211.957 58.5443 211.981 58.4624 212.013 58.3833C212.114 58.2137 212.219 58.0477 212.328 57.8854C225.076 38.9264 237.829 19.972 250.587 1.02221C250.606 1.00125 250.628 0.984067 250.653 0.971617C250.667 0.949875 250.705 0.946397 250.782 0.906736C251.087 0.922471 251.455 0.942815 251.815 0.970391L308.623 4.82858C312.041 5.06632 315.454 5.29871 318.862 5.52575C320.02 5.61024 319.795 5.44297 320.345 6.54513C320.8 7.48271 321.252 8.41738 321.71 9.34118C331.137 28.6095 340.561 47.8778 349.982 67.146C350.103 67.3979 350.216 67.6534 350.314 67.8681C350.299 67.9408 350.274 68.0114 350.242 68.0785C337.558 86.9433 324.877 105.812 312.201 124.684C312.039 124.944 311.855 125.193 311.67 125.454ZM235.478 101.548C237.143 104.982 238.816 108.409 240.499 111.828L243.457 117.87C243.526 117.992 243.587 118.119 243.641 118.249C243.688 118.395 243.784 118.522 243.912 118.608C244.04 118.694 244.193 118.735 244.347 118.724C245.663 118.8 246.971 118.91 248.291 118.989L308.119 123.05C308.453 123.111 308.794 123.113 309.128 123.057C309.121 122.954 309.14 122.866 309.106 122.799C306.242 116.927 303.376 111.054 300.465 105.107C278.682 103.632 256.93 102.156 235.21 100.68C235.201 100.991 235.295 101.296 235.478 101.548ZM306.891 93.4172C308.548 90.9535 310.208 88.4847 311.871 86.0108C312.041 85.7587 312.201 85.497 312.385 85.2042L303.806 67.668C303.76 67.5862 303.706 67.5089 303.646 67.437C303.421 67.415 303.367 67.5652 303.291 67.6688C303.181 67.8319 303.072 67.9949 302.962 68.158C295.714 78.9374 288.466 89.7176 281.217 100.499L280.689 101.283C280.841 101.386 280.895 101.447 280.931 101.446C287.443 101.898 293.947 102.346 300.443 102.791C300.803 102.613 300.933 102.287 301.118 102.013C303.048 99.1381 304.964 96.2787 306.891 93.4172ZM239.855 91.3721L235.815 97.3807C235.644 97.635 235.475 97.8872 235.328 98.1329C235.492 98.4292 235.744 98.359 235.953 98.3729C237.713 98.5039 239.473 98.6246 241.233 98.7352C253.167 99.5495 265.102 100.361 277.037 101.17C277.315 101.189 277.595 101.201 277.896 101.217C278.045 101.033 278.192 100.87 278.319 100.687C281.777 95.5436 285.236 90.3988 288.697 85.2525C288.815 85.0764 288.899 84.8769 289.009 84.6703C288.923 84.6193 288.829 84.581 288.732 84.5566C274.644 83.6006 260.577 82.6466 246.533 81.6947C246.245 81.8727 246.015 82.1302 245.87 82.4361C243.86 85.4133 241.855 88.3919 239.855 91.3721ZM291.203 81.5301C293.848 77.5954 296.494 73.6607 299.139 69.726C300.061 68.355 300.987 66.9782 301.916 65.5957C302.088 65.3413 302.244 65.0804 302.389 64.8557C302.182 64.1865 293.722 46.7931 293.069 45.6753C292.801 45.4955 292.484 45.5407 292.184 45.5221C287.083 45.1736 281.991 44.8292 276.906 44.489C275.45 44.3917 273.995 44.2942 272.541 44.1965C272.264 44.1772 271.985 44.1696 271.68 44.1575C271.087 44.8795 260.21 61.1046 259.919 61.6825C260.133 62.3445 268.872 80.2251 269.32 80.9018L290.598 82.3393C290.808 82.0698 291.015 81.8084 291.201 81.5323L291.203 81.5301ZM214.94 59.5464L232.776 96.0376C232.908 96.3099 233.05 96.5691 233.241 96.9317C233.802 96.2953 244.086 80.9999 244.426 80.2972C238.288 67.7523 232.136 55.1741 225.971 42.5626C225.892 42.424 225.807 42.2896 225.715 42.1598C225.604 42.2487 225.499 42.3449 225.401 42.4478C225.278 42.602 225.182 42.7738 225.072 42.9369C221.737 47.8976 218.401 52.8591 215.064 57.8214C214.449 58.7496 214.452 58.5586 214.938 59.5486L214.94 59.5464ZM250.906 4.57627C250.687 4.90235 250.509 5.11452 250.356 5.34278L227.615 39.1638C227.206 39.7725 227.203 39.7768 227.536 40.4553C229.729 44.9409 231.921 49.4246 234.114 53.9063L246.122 78.4607C246.253 78.7351 246.393 78.9965 246.536 79.2535C247.315 79.4368 261.883 80.4882 266.015 80.6716C266.148 80.6757 266.282 80.6552 266.446 80.6456C266.435 80.3535 266.341 80.0706 266.173 79.8308C264.962 77.3326 263.744 74.8386 262.52 72.349C261.337 69.9293 260.154 67.5103 258.971 65.0921L247.642 41.9789C247.495 41.6776 247.359 41.3719 247.203 41.0363L259.726 22.4106L251.185 4.92175C251.1 4.80072 251.006 4.68598 250.905 4.57845L250.906 4.57627ZM281.538 25.1725C281.518 25.1384 281.496 25.1063 281.47 25.0763C281.452 25.0567 281.43 25.0417 281.405 25.0325C281.239 25.0122 281.072 24.9883 280.905 24.9775C274.529 24.5411 268.153 24.1084 261.885 23.6884C261.756 23.7308 261.73 23.7358 261.706 23.748C261.682 23.7642 261.66 23.7836 261.642 23.8059C261.58 23.8972 261.498 23.9775 261.437 24.0688C257.647 29.7049 253.857 35.341 250.068 40.9772C250.027 41.0476 249.992 41.1213 249.964 41.1976C250.145 41.7926 258.109 58.1393 258.644 59.0293C258.821 59.0852 258.891 58.9489 258.97 58.8409C259.094 58.6561 259.221 58.467 259.345 58.2822C266.579 47.523 273.813 36.7653 281.045 26.009C281.247 25.7586 281.411 25.4797 281.532 25.1812L281.538 25.1725ZM327.045 25.4573L318.41 7.78497L253.403 3.38877C253.33 3.38412 253.255 3.43468 253.166 3.46339C253.161 3.54936 253.171 3.63555 253.194 3.71852C256.055 9.58502 258.915 15.4573 261.749 21.2387L261.903 21.3425C261.927 21.3568 261.954 21.3663 261.982 21.3704C268.967 21.8581 275.956 22.3412 282.949 22.8197C297.6 23.8089 312.251 24.7957 326.901 25.7801C326.928 25.7766 326.955 25.7688 326.98 25.7571C327.006 25.7463 327.027 25.729 327.066 25.7081C327.058 25.6172 327.077 25.5228 327.045 25.4573ZM326.932 28.2221C326.645 28.1042 326.334 28.0552 326.024 28.079C322.64 27.8424 319.255 27.6101 315.871 27.3822L285.331 25.311C284.19 25.2324 284.388 25.1445 283.774 26.0575C280.424 31.0401 277.074 36.0226 273.724 41.0051C273.519 41.2307 273.366 41.4991 273.278 41.7909C273.535 42.0142 273.83 41.9413 274.107 41.9663C278.129 42.2442 282.154 42.5178 286.182 42.787C295.745 43.434 305.308 44.0772 314.872 44.7165C316.013 44.7951 315.818 44.9258 316.499 43.9164C319.817 38.9818 323.136 34.0456 326.456 29.1081C326.675 28.8511 326.836 28.5505 326.929 28.2264L326.932 28.2221ZM315.701 47.1326L296.158 45.8081C296.03 45.8163 295.902 45.8363 295.777 45.8676C296.02 46.6808 296.454 47.3677 296.802 48.0999C297.149 48.8322 297.511 49.5616 297.87 50.2896L298.94 52.4829L300.011 54.674L301.083 56.863L302.154 59.0541C302.511 59.7864 302.864 60.5158 303.225 61.2452C303.587 61.9746 303.961 62.6867 304.315 63.427C304.67 64.1672 305.056 64.9353 305.427 65.6894C305.797 66.4436 306.138 67.1526 306.483 67.874L307.556 70.0665L308.629 72.2555L309.698 74.4451L310.769 76.6363L311.84 78.8274L312.911 81.0185C313.267 81.7472 313.629 82.4766 313.983 83.2074C314.338 83.9383 314.688 84.6662 315.056 85.4284L302.588 103.971C302.796 104.639 310.822 121.083 311.263 121.774C311.44 121.83 311.517 121.702 311.593 121.589C311.718 121.402 311.843 121.217 311.97 121.028C319.468 109.876 326.967 98.7231 334.466 87.5697C335.109 86.6132 335.137 86.8495 334.611 85.7728L316.103 47.924C315.98 47.6743 315.849 47.4282 315.698 47.137L315.701 47.1326ZM347.713 67.7605C347.694 67.6992 347.671 67.6394 347.644 67.5815L329.17 29.7995C329.13 29.7347 329.082 29.675 329.028 29.6217C328.824 29.586 328.777 29.7464 328.702 29.8478C328.565 30.0275 328.451 30.2217 328.326 30.4065L317.786 46.0823C323.981 58.7471 330.167 71.3916 336.344 84.0156C336.397 84.1014 336.459 84.1811 336.529 84.2532C336.618 84.2187 336.686 84.2168 336.713 84.1813C337.301 83.4338 347.4 68.3521 347.71 67.7648L347.713 67.7605Z" fill="#47867A"/>
</g>
<g clip-path="url(#clip8_1666_1740)">
<path d="M401.968 308.712C401.949 308.733 401.927 308.751 401.903 308.766C401.879 308.779 401.854 308.79 401.828 308.798C400.87 308.814 333.308 304.199 332.635 304.059L302.237 241.886C302.254 241.802 302.278 241.72 302.31 241.641C302.411 241.471 302.517 241.306 302.626 241.143C315.373 222.184 328.126 203.23 340.885 184.28C340.903 184.259 340.925 184.242 340.95 184.229C340.965 184.208 341.002 184.204 341.079 184.165C341.384 184.18 341.752 184.201 342.113 184.228L398.92 188.086C402.338 188.324 405.751 188.557 409.159 188.784C410.318 188.868 410.092 188.701 410.642 189.803C411.098 190.741 411.549 191.675 412.007 192.599C421.435 211.867 430.859 231.136 440.28 250.404C440.401 250.656 440.513 250.911 440.612 251.126C440.596 251.199 440.572 251.269 440.54 251.336C427.855 270.201 415.175 289.07 402.498 307.942C402.336 308.202 402.153 308.451 401.968 308.712ZM325.776 284.806C327.44 288.24 329.114 291.666 330.796 295.085L333.754 301.127C333.823 301.25 333.885 301.376 333.938 301.507C333.986 301.653 334.081 301.78 334.209 301.866C334.337 301.952 334.491 301.993 334.644 301.982C335.96 302.058 337.269 302.168 338.589 302.247L398.416 306.308C398.75 306.368 399.091 306.371 399.426 306.314C399.419 306.212 399.437 306.123 399.403 306.056C396.539 300.185 393.673 294.312 390.762 288.364C368.979 286.89 347.228 285.414 325.507 283.938C325.498 284.249 325.593 284.554 325.776 284.806ZM397.188 276.675C398.845 274.211 400.505 271.743 402.168 269.269C402.338 269.016 402.498 268.755 402.682 268.462L394.103 250.926C394.057 250.844 394.003 250.767 393.943 250.695C393.718 250.673 393.664 250.823 393.588 250.927C393.479 251.09 393.369 251.253 393.259 251.416C386.012 262.195 378.763 272.975 371.514 283.756L370.987 284.541C371.139 284.643 371.192 284.705 371.228 284.703C377.74 285.155 384.245 285.604 390.741 286.049C391.1 285.871 391.231 285.545 391.415 285.271C393.345 282.396 395.261 279.537 397.188 276.675ZM330.153 274.63L326.113 280.638C325.942 280.893 325.772 281.145 325.626 281.391C325.789 281.687 326.042 281.617 326.25 281.631C328.01 281.762 329.77 281.882 331.531 281.993C343.465 282.807 355.399 283.619 367.335 284.428C367.612 284.447 367.892 284.458 368.193 284.475C368.342 284.291 368.49 284.128 368.616 283.945C372.074 278.801 375.534 273.657 378.994 268.51C379.112 268.334 379.196 268.135 379.306 267.928C379.22 267.877 379.127 267.839 379.029 267.814C364.941 266.858 350.875 265.904 336.83 264.953C336.542 265.13 336.312 265.388 336.167 265.694C334.157 268.671 332.152 271.65 330.153 274.63ZM381.5 264.788C384.145 260.853 386.791 256.919 389.437 252.984C390.359 251.613 391.284 250.236 392.214 248.853C392.385 248.599 392.541 248.338 392.686 248.114C392.48 247.444 384.019 230.051 383.366 228.933C383.099 228.753 382.781 228.799 382.481 228.78C377.381 228.431 372.288 228.087 367.203 227.747C365.747 227.65 364.292 227.552 362.838 227.454C362.561 227.435 362.282 227.427 361.978 227.415C361.385 228.137 350.507 244.362 350.216 244.94C350.431 245.602 359.17 263.483 359.617 264.16L380.896 265.597C381.105 265.328 381.313 265.066 381.498 264.79L381.5 264.788ZM305.237 242.804L323.073 279.295C323.206 279.568 323.347 279.827 323.539 280.189C324.099 279.553 334.383 264.258 334.723 263.555C328.585 251.01 322.433 238.432 316.268 225.82C316.19 225.682 316.104 225.547 316.012 225.418C315.901 225.507 315.796 225.603 315.698 225.706C315.576 225.86 315.479 226.032 315.37 226.195C312.034 231.155 308.698 236.117 305.362 241.079C304.747 242.007 304.749 241.816 305.236 242.806L305.237 242.804ZM341.203 187.834C340.984 188.16 340.807 188.372 340.653 188.601L317.913 222.422C317.504 223.03 317.501 223.035 317.834 223.713C320.026 228.199 322.219 232.682 324.412 237.164L336.419 261.719C336.55 261.993 336.69 262.254 336.833 262.511C337.613 262.695 352.181 263.746 356.313 263.929C356.446 263.934 356.579 263.913 356.744 263.903C356.733 263.611 356.638 263.328 356.471 263.089C355.259 260.59 354.041 258.096 352.817 255.607C351.635 253.187 350.452 250.768 349.268 248.35L337.94 225.237C337.792 224.935 337.657 224.63 337.5 224.294L350.024 205.668L341.482 188.18C341.397 188.059 341.304 187.944 341.202 187.836L341.203 187.834ZM371.835 208.43C371.816 208.396 371.793 208.364 371.767 208.334C371.75 208.315 371.727 208.299 371.702 208.29C371.536 208.27 371.369 208.246 371.203 208.235C364.826 207.799 358.45 207.366 352.182 206.946C352.053 206.989 352.027 206.994 352.003 207.006C351.979 207.022 351.958 207.041 351.939 207.064C351.878 207.155 351.795 207.235 351.734 207.327C347.944 212.963 344.155 218.599 340.365 224.235C340.324 224.305 340.29 224.379 340.261 224.455C340.442 225.05 348.407 241.397 348.941 242.287C349.118 242.343 349.188 242.207 349.267 242.099C349.391 241.914 349.518 241.725 349.643 241.54C356.877 230.781 364.11 220.023 371.342 209.267C371.545 209.016 371.709 208.737 371.829 208.439L371.835 208.43ZM417.343 208.715L408.707 191.043L343.7 186.647C343.627 186.642 343.552 186.692 343.464 186.721C343.459 186.807 343.468 186.893 343.491 186.976C346.352 192.843 349.213 198.715 352.046 204.497L352.2 204.6C352.225 204.615 352.252 204.624 352.279 204.628C359.264 205.116 366.254 205.599 373.247 206.078C387.898 207.067 402.548 208.054 417.198 209.038C417.226 209.034 417.252 209.027 417.277 209.015C417.303 209.004 417.324 208.987 417.364 208.966C417.355 208.875 417.374 208.781 417.343 208.715ZM417.229 211.48C416.942 211.362 416.631 211.313 416.322 211.337C412.937 211.1 409.552 210.868 406.168 210.64L375.628 208.569C374.488 208.49 374.686 208.402 374.072 209.315C370.722 214.298 367.372 219.28 364.021 224.263C363.816 224.489 363.664 224.757 363.575 225.049C363.832 225.272 364.127 225.199 364.404 225.224C368.426 225.502 372.451 225.776 376.479 226.045C386.042 226.692 395.606 227.335 405.17 227.974C406.31 228.053 406.115 228.184 406.797 227.174C410.115 222.24 413.434 217.303 416.754 212.366C416.972 212.109 417.133 211.808 417.226 211.484L417.229 211.48ZM405.998 230.39L386.456 229.066C386.327 229.074 386.2 229.094 386.075 229.125C386.317 229.939 386.752 230.625 387.099 231.358C387.446 232.09 387.808 232.819 388.168 233.547L389.237 235.741L390.308 237.932L391.381 240.121L392.452 242.312C392.809 243.044 393.161 243.774 393.523 244.503C393.885 245.232 394.258 245.944 394.613 246.685C394.967 247.425 395.354 248.193 395.724 248.947C396.095 249.701 396.435 250.41 396.781 251.132L397.854 253.324L398.926 255.513L399.995 257.703L401.066 259.894L402.137 262.085L403.208 264.276C403.564 265.005 403.926 265.734 404.281 266.465C404.635 267.196 404.985 267.924 405.354 268.686L392.886 287.229C393.094 287.896 401.119 304.341 401.56 305.032C401.737 305.088 401.814 304.959 401.89 304.846C402.016 304.659 402.14 304.475 402.267 304.286C409.765 293.134 417.264 281.981 424.764 270.828C425.407 269.871 425.434 270.107 424.908 269.031L406.4 231.182C406.278 230.932 406.147 230.686 405.995 230.395L405.998 230.39ZM438.01 251.018C437.992 250.957 437.968 250.897 437.941 250.839L419.467 213.057C419.427 212.993 419.38 212.933 419.325 212.88C419.122 212.844 419.074 213.004 418.999 213.106C418.863 213.285 418.748 213.48 418.624 213.664L408.084 229.34C414.278 242.005 420.464 254.649 426.642 267.273C426.694 267.359 426.756 267.439 426.826 267.511C426.916 267.477 426.983 267.475 427.01 267.439C427.598 266.692 437.698 251.61 438.007 251.023L438.01 251.018Z" fill="#47867A"/>
</g>
<g clip-path="url(#clip9_1666_1740)">
<path d="M410.351 190.938C410.332 190.958 410.31 190.977 410.286 190.992C410.262 191.005 410.237 191.016 410.211 191.023C409.254 191.039 341.692 186.424 341.019 186.284L310.62 124.111C310.637 124.028 310.662 123.946 310.693 123.867C310.795 123.697 310.9 123.531 311.009 123.369C323.757 104.41 336.51 85.4554 349.268 66.5056C349.286 66.4846 349.309 66.4675 349.334 66.455C349.348 66.4333 349.385 66.4298 349.462 66.3901C349.767 66.4059 350.136 66.4262 350.496 66.4538L407.304 70.312C410.721 70.5497 414.134 70.7821 417.542 71.0091C418.701 71.0936 418.476 70.9264 419.026 72.0285C419.481 72.9661 419.932 73.9008 420.391 74.8246C429.818 94.0929 439.242 113.361 448.663 132.629C448.784 132.881 448.896 133.137 448.995 133.351C448.979 133.424 448.955 133.495 448.923 133.562C436.239 152.427 423.558 171.295 410.882 190.167C410.719 190.427 410.536 190.677 410.351 190.938ZM334.159 167.032C335.823 170.466 337.497 173.892 339.18 177.311L342.137 183.353C342.207 183.475 342.268 183.602 342.321 183.732C342.369 183.879 342.465 184.005 342.593 184.091C342.721 184.177 342.874 184.218 343.028 184.207C344.343 184.284 345.652 184.393 346.972 184.473L406.8 188.534C407.133 188.594 407.475 188.596 407.809 188.54C407.802 188.438 407.821 188.349 407.787 188.282C404.923 182.41 402.056 176.537 399.145 170.59C377.362 169.115 355.611 167.64 333.891 166.163C333.882 166.474 333.976 166.78 334.159 167.032ZM405.572 158.901C407.228 156.437 408.888 153.968 410.552 151.494C410.721 151.242 410.881 150.98 411.066 150.688L402.487 133.151C402.44 133.07 402.387 132.992 402.326 132.92C402.101 132.898 402.048 133.049 401.972 133.152C401.862 133.315 401.752 133.478 401.643 133.641C394.395 144.421 387.146 155.201 379.898 165.982L379.37 166.767C379.522 166.869 379.576 166.93 379.611 166.929C386.124 167.381 392.628 167.829 399.124 168.274C399.483 168.096 399.614 167.771 399.798 167.497C401.728 164.622 403.645 161.762 405.572 158.901ZM338.536 156.855L334.496 162.864C334.325 163.118 334.155 163.371 334.009 163.616C334.173 163.913 334.425 163.842 334.634 163.856C336.393 163.987 338.153 164.108 339.914 164.219C351.848 165.033 363.783 165.845 375.718 166.654C375.996 166.673 376.275 166.684 376.577 166.7C376.726 166.517 376.873 166.354 376.999 166.17C380.458 161.027 383.917 155.882 387.377 150.736C387.496 150.56 387.579 150.36 387.69 150.154C387.603 150.103 387.51 150.064 387.413 150.04C373.324 149.084 359.258 148.13 345.213 147.178C344.925 147.356 344.695 147.614 344.551 147.919C342.54 150.897 340.535 153.875 338.536 156.855ZM389.883 147.014C392.529 143.079 395.174 139.144 397.82 135.209C398.742 133.838 399.668 132.462 400.597 131.079C400.768 130.825 400.925 130.564 401.069 130.339C400.863 129.67 392.403 112.277 391.749 111.159C391.482 110.979 391.164 111.024 390.864 111.006C385.764 110.657 380.671 110.313 375.586 109.972C374.13 109.875 372.675 109.778 371.222 109.68C370.944 109.661 370.665 109.653 370.361 109.641C369.768 110.363 358.89 126.588 358.599 127.166C358.814 127.828 367.553 145.708 368.001 146.385L389.279 147.823C389.489 147.553 389.696 147.292 389.882 147.016L389.883 147.014ZM313.62 125.03L331.456 161.521C331.589 161.793 331.73 162.053 331.922 162.415C332.483 161.779 342.767 146.483 343.107 145.781C336.968 133.236 330.817 120.657 324.652 108.046C324.573 107.907 324.488 107.773 324.395 107.643C324.284 107.732 324.18 107.828 324.082 107.931C323.959 108.085 323.862 108.257 323.753 108.42C320.417 113.381 317.081 118.343 313.745 123.305C313.13 124.233 313.132 124.042 313.619 125.032L313.62 125.03ZM349.587 70.0597C349.367 70.3858 349.19 70.5979 349.037 70.8262L326.296 104.647C325.887 105.256 325.884 105.26 326.217 105.939C328.409 110.424 330.602 114.908 332.795 119.39L344.802 143.944C344.934 144.219 345.073 144.48 345.216 144.737C345.996 144.92 360.564 145.972 364.696 146.155C364.829 146.159 364.963 146.139 365.127 146.129C365.116 145.837 365.021 145.554 364.854 145.314C363.642 142.816 362.424 140.322 361.201 137.832C360.018 135.413 358.835 132.994 357.652 130.576L346.323 107.462C346.175 107.161 346.04 106.855 345.884 106.52L358.407 87.894L349.866 70.4052C349.781 70.2841 349.687 70.1694 349.585 70.0618L349.587 70.0597ZM380.219 90.6559C380.199 90.6218 380.176 90.5897 380.151 90.5597C380.133 90.5401 380.11 90.5251 380.086 90.5159C379.919 90.4956 379.752 90.4717 379.586 90.4609C373.209 90.0245 366.833 89.5918 360.566 89.1718C360.436 89.2142 360.411 89.2192 360.387 89.2314C360.363 89.2476 360.341 89.267 360.323 89.2893C360.261 89.3806 360.179 89.4609 360.117 89.5522C356.328 95.1883 352.538 100.824 348.749 106.461C348.708 106.531 348.673 106.605 348.645 106.681C348.825 107.276 356.79 123.623 357.325 124.513C357.502 124.569 357.571 124.432 357.65 124.324C357.774 124.14 357.902 123.95 358.026 123.766C365.26 113.006 372.493 102.249 379.726 91.4924C379.928 91.242 380.092 90.9631 380.213 90.6646L380.219 90.6559ZM425.726 90.9407L417.09 73.2684L352.083 68.8722C352.011 68.8675 351.936 68.9181 351.847 68.9468C351.842 69.0328 351.851 69.1189 351.874 69.2019C354.736 75.0684 357.596 80.9407 360.429 86.7221L360.584 86.8259C360.608 86.8402 360.635 86.8497 360.663 86.8538C367.648 87.3415 374.637 87.8246 381.63 88.3031C396.281 89.2923 410.932 90.2791 425.582 91.2635C425.609 91.26 425.635 91.2522 425.66 91.2405C425.686 91.2297 425.708 91.2124 425.747 91.1915C425.738 91.1006 425.758 91.0062 425.726 90.9407ZM425.613 93.7055C425.325 93.5876 425.015 93.5386 424.705 93.5624C421.32 93.3258 417.936 93.0935 414.551 92.8656L384.011 90.7944C382.871 90.7158 383.069 90.6279 382.455 91.5409C379.105 96.5234 375.755 101.506 372.405 106.488C372.2 106.714 372.047 106.983 371.958 107.274C372.215 107.498 372.511 107.425 372.787 107.45C376.809 107.728 380.834 108.001 384.862 108.27C394.425 108.917 403.989 109.561 413.553 110.2C414.693 110.278 414.498 110.409 415.18 109.4C418.498 104.465 421.817 99.529 425.137 94.5915C425.355 94.3345 425.517 94.0339 425.61 93.7098L425.613 93.7055ZM414.381 112.616L394.839 111.291C394.71 111.3 394.583 111.32 394.458 111.351C394.7 112.164 395.135 112.851 395.482 113.583C395.83 114.316 396.191 115.045 396.551 115.773L397.621 117.966L398.692 120.157L399.764 122.346L400.835 124.537C401.192 125.27 401.544 125.999 401.906 126.729C402.268 127.458 402.642 128.17 402.996 128.91C403.351 129.651 403.737 130.419 404.107 131.173C404.478 131.927 404.819 132.636 405.164 133.357L406.237 135.55L407.31 137.739L408.378 139.929L409.449 142.12L410.52 144.311L411.591 146.502C411.947 147.231 412.309 147.96 412.664 148.691C413.018 149.422 413.369 150.15 413.737 150.912L401.269 169.455C401.477 170.122 409.502 186.566 409.943 187.257C410.121 187.313 410.197 187.185 410.273 187.072C410.399 186.885 410.523 186.7 410.65 186.511C418.149 175.359 425.648 164.207 433.147 153.053C433.79 152.097 433.817 152.333 433.291 151.256L414.784 113.407C414.661 113.158 414.53 112.912 414.378 112.62L414.381 112.616ZM446.394 133.244C446.375 133.183 446.352 133.123 446.325 133.065L427.851 95.2829C427.811 95.2181 427.763 95.1584 427.708 95.1051C427.505 95.0694 427.457 95.2298 427.383 95.3312C427.246 95.5109 427.131 95.7051 427.007 95.8899L416.467 111.566C422.661 124.23 428.848 136.875 435.025 149.499C435.078 149.585 435.139 149.665 435.21 149.737C435.299 149.702 435.367 149.7 435.394 149.665C435.981 148.917 446.081 133.835 446.391 133.248L446.394 133.244Z" fill="#47867A"/>
</g>
</g>
<defs>
<clipPath id="clip0_1666_1740">
<rect width="418" height="243" fill="white"/>
</clipPath>
<clipPath id="clip1_1666_1740">
<rect width="120.162" height="138.785" fill="white" transform="matrix(0.829856 0.557977 0.557977 -0.829856 -27.7441 309.524)"/>
</clipPath>
<clipPath id="clip2_1666_1740">
<rect width="120.162" height="138.785" fill="white" transform="matrix(0.829856 0.557977 0.557977 -0.829856 -19.3594 191.421)"/>
</clipPath>
<clipPath id="clip3_1666_1740">
<rect width="120.162" height="138.785" fill="white" transform="matrix(0.829856 0.557977 0.557977 -0.829856 78.4644 257.196)"/>
</clipPath>
<clipPath id="clip4_1666_1740">
<rect width="120.162" height="138.785" fill="white" transform="matrix(0.829856 0.557977 0.557977 -0.829856 177.379 322.757)"/>
</clipPath>
<clipPath id="clip5_1666_1740">
<rect width="120.162" height="138.785" fill="white" transform="matrix(0.829856 0.557977 0.557977 -0.829856 86.9956 138.876)"/>
</clipPath>
<clipPath id="clip6_1666_1740">
<rect width="120.162" height="138.785" fill="white" transform="matrix(0.829856 0.557977 0.557977 -0.829856 184.82 204.65)"/>
</clipPath>
<clipPath id="clip7_1666_1740">
<rect width="120.162" height="138.785" fill="white" transform="matrix(0.829856 0.557977 0.557977 -0.829856 192.545 87.3086)"/>
</clipPath>
<clipPath id="clip8_1666_1740">
<rect width="120.162" height="138.785" fill="white" transform="matrix(0.829856 0.557977 0.557977 -0.829856 282.842 270.566)"/>
</clipPath>
<clipPath id="clip9_1666_1740">
<rect width="120.162" height="138.785" fill="white" transform="matrix(0.829856 0.557977 0.557977 -0.829856 291.226 152.792)"/>
</clipPath>
</defs>
</svg>
