<svg width="60" height="60" viewBox="0 0 60 60" fill="none" xmlns="http://www.w3.org/2000/svg">
<rect width="60" height="60" rx="30" fill="#47867A"/>
<path d="M44.3712 39.5243C41.3141 34.407 33.7378 29.2897 29.6174 28.758C29.3931 28.7241 29.1637 28.7481 28.9513 28.8279C28.7389 28.9076 28.5504 29.0404 28.4038 29.2137C28.2572 29.3869 28.1574 29.5947 28.114 29.8175C28.0705 30.0402 28.0847 30.2703 28.1553 30.4859C28.2425 30.7222 28.3949 30.9288 28.595 31.0817C28.795 31.2347 29.0343 31.3277 29.2851 31.3499C31.146 31.6822 34.336 33.3437 37.1937 35.6032C34.8012 37.8628 31.2124 38.8597 28.2883 37.9957C23.171 36.5336 20.5791 29.9543 18.7183 24.5047L23.7691 23.7737C28.1553 22.9762 31.9435 22.3116 34.4689 24.0395C36.9943 25.7674 37.1272 27.3624 37.526 29.5555L39.2539 30.7518C39.3571 30.8303 39.4811 30.8769 39.6104 30.8858C39.7398 30.8948 39.869 30.8657 39.9821 30.8021C40.0951 30.7385 40.1871 30.6432 40.2466 30.528C40.3062 30.4128 40.3307 30.2826 40.3172 30.1537C39.9185 27.0301 38.9216 23.9066 35.9974 21.9128C33.0733 19.9191 28.0889 20.3178 23.3039 21.1153C21.1745 21.5336 19.0218 21.8221 16.8574 21.9793H15.9935C15.8865 21.9678 15.7784 21.9853 15.6806 22.03C15.5828 22.0748 15.4989 22.1451 15.4377 22.2335C15.3764 22.3219 15.3402 22.4253 15.3327 22.5326C15.3253 22.6399 15.3469 22.7472 15.3953 22.8432L15.6612 23.6407C17.7214 29.8878 20.5791 38.4609 27.4908 40.5212C28.4659 40.7841 29.4714 40.9182 30.4814 40.9199C33.7447 40.8922 36.8775 39.6344 39.2539 37.3976C40.34 38.4568 41.299 39.6388 42.1116 40.9199C42.221 41.1235 42.3843 41.2931 42.5835 41.4103C42.7827 41.5275 43.0103 41.5877 43.2414 41.5845C43.5502 41.5894 43.8527 41.4963 44.1053 41.3186C44.3562 41.1003 44.5208 40.7995 44.5695 40.4705C44.6183 40.1416 44.5479 39.806 44.3712 39.5243Z" fill="white"/>
</svg>
