<svg width="60" height="60" viewBox="0 0 60 60" fill="none" xmlns="http://www.w3.org/2000/svg">
<rect width="60" height="60" rx="30" fill="#47867A"/>
<path d="M17.7786 29.339C17.9914 29.4454 18.0978 29.4454 18.3106 29.4454C18.5234 29.4454 18.7362 29.339 18.8426 29.339L26.2902 24.9768C26.6094 24.764 26.8222 24.4449 26.8222 24.0193C26.8222 23.5937 26.6094 23.2745 26.2902 23.0617L23.6303 21.4658L25.8646 17.4228C26.2902 16.678 26.9286 16.0396 27.6734 15.6141C29.8013 14.4437 32.4611 15.2949 33.6315 17.4228C33.9507 17.9548 34.589 18.0612 35.121 17.742C35.121 17.742 35.121 17.742 35.2274 17.742C35.653 17.4228 35.7594 16.7844 35.5466 16.3588C34.9082 15.2949 34.0571 14.3373 32.9931 13.8054C29.8013 12.103 25.8646 13.167 24.1623 16.3588L21.1833 21.3594C20.8641 21.8914 21.0769 22.5298 21.5024 22.8489L23.6303 24.1257L19.3745 26.6792V19.5507C19.3745 18.9123 18.949 18.4867 18.3106 18.4867C17.7786 18.5931 17.353 19.0187 17.353 19.6571V28.4879C17.353 28.8071 17.5658 29.1262 17.7786 29.339Z" fill="white"/>
<path d="M45.1219 33.1689L41.3981 26.5724C41.2917 26.3596 40.9725 26.1468 40.7597 26.0404C40.4405 25.934 40.2277 26.0404 39.9085 26.1468L37.5678 27.53V22.5294L43.4196 26.0404C43.526 26.0404 43.526 26.1468 43.6324 26.1468C44.1643 26.3596 44.8027 26.1468 45.0155 25.6148C45.2283 25.0829 45.0155 24.4445 44.4835 24.2317L37.0359 19.7631C36.7167 19.5503 36.2911 19.5503 35.9719 19.7631C35.5463 19.8695 35.4399 20.1887 35.4399 20.6143V29.4451C35.4399 29.8706 35.5463 30.2962 35.8655 30.509C36.1847 30.7218 36.6103 30.7218 36.9295 30.509L40.0149 28.7003L43.2068 34.3392C43.9516 35.7224 43.9516 37.3183 43.2068 38.7014C42.5684 39.9782 41.1853 40.7229 39.8021 40.7229H38.8446C38.3126 40.7229 37.5678 41.1485 37.5678 41.7869C37.6742 42.4253 38.2062 42.8509 38.8446 42.8509H39.8021C42.0364 42.8509 44.0579 41.6805 45.1219 39.7654C46.2922 37.6375 46.2922 35.1904 45.1219 33.1689Z" fill="white"/>
<path d="M34.8019 40.8294L27.3542 36.3608C27.0351 36.148 26.6095 36.148 26.2903 36.3608C25.9711 36.5736 25.8647 36.8928 25.8647 37.3184V40.8294H20.6514C19.0554 40.723 17.5659 39.8718 16.8211 38.3823C15.97 36.8928 15.97 34.9777 16.8211 33.4881C17.1403 32.9562 16.9275 32.3178 16.3956 31.9986C15.8636 31.6794 15.2252 31.8922 14.906 32.4242C13.6293 34.6585 13.7357 37.3184 15.0124 39.4463C16.1828 41.4678 18.4171 42.7445 20.7578 42.7445H26.9287C27.567 42.7445 27.9926 42.3189 27.9926 41.6806V39.1271L32.2484 41.6806L26.2903 45.1916C25.9711 45.4044 25.7583 45.7236 25.7583 46.1492C25.7583 46.7875 26.2903 47.2131 26.8223 47.2131C27.0351 47.2131 27.1415 47.1067 27.3542 47.0003L34.8019 42.5317C35.0147 42.4253 35.1211 42.3189 35.2275 42.1061C35.5467 41.6806 35.3339 41.0422 34.8019 40.8294Z" fill="white"/>
</svg>
