<svg width="48" height="48" viewBox="0 0 48 48" fill="none" xmlns="http://www.w3.org/2000/svg">
<rect width="48" height="48" rx="24" fill="#293F52"/>
<g clip-path="url(#clip0_1140_1541)">
<path d="M31.1812 25.3992L34.5412 23.4123L33.4585 22.7742L34.6053 22.0952L36.8337 23.4112L32.6757 25.8705C32.1904 25.6749 31.6908 25.5174 31.1812 25.3992ZM19.5997 32.6768L19.308 32.3117C19.209 32.1841 19.1379 32.0372 19.0993 31.8804C19.0607 31.7237 19.0555 31.5606 19.084 31.4017L13.4607 28.0767L14.5422 27.4385L13.3953 26.7595L11.167 28.0755L20.3113 33.4842C20.0643 33.2239 19.8269 32.9546 19.5997 32.6768ZM24.0015 26.3337L11.167 18.7422L24.0003 11.167L36.8337 18.7445L24.0015 26.3337ZM13.4607 18.7433L24.0003 24.978L34.5388 18.7457L24.0003 12.5215L13.4607 18.7433ZM21.7557 28.3158L13.4607 23.41L14.5422 22.7718L13.3953 22.0928L11.167 23.4088L20.8503 29.1372C21.1152 28.8782 21.4185 28.6017 21.7545 28.3158H21.7557ZM37.732 31.9395L38.0003 31.5837L37.732 31.2278C37.5803 31.0283 33.9088 26.3337 29.2503 26.3337C24.5965 26.3337 20.9425 31.0202 20.7862 31.2197L20.5003 31.5837L20.7862 31.9477C20.9425 32.146 24.5953 36.8337 29.2503 36.8337C33.9088 36.8337 37.5803 32.139 37.732 31.9395ZM29.2503 27.3837C32.7445 27.3837 35.8047 30.501 36.7392 31.5837C35.807 32.6687 32.7515 35.7837 29.2503 35.7837C25.7597 35.7837 22.7578 32.6768 21.7837 31.5837C22.7578 30.4905 25.7597 27.3837 29.2503 27.3837ZM32.0503 31.5837C32.0503 31.0299 31.8861 30.4885 31.5784 30.0281C31.2708 29.5676 30.8335 29.2087 30.3218 28.9968C29.8102 28.7849 29.2472 28.7294 28.7041 28.8375C28.1609 28.9455 27.662 29.2122 27.2704 29.6038C26.8788 29.9953 26.6122 30.4943 26.5041 31.0374C26.3961 31.5806 26.4515 32.1435 26.6635 32.6552C26.8754 33.1668 27.2343 33.6041 27.6947 33.9118C28.1552 34.2194 28.6965 34.3837 29.2503 34.3837C29.9926 34.3827 30.7043 34.0874 31.2292 33.5625C31.7541 33.0376 32.0494 32.326 32.0503 31.5837Z" fill="white"/>
</g>
<defs>
<clipPath id="clip0_1140_1541">
<rect width="28" height="28" fill="white" transform="translate(10 10)"/>
</clipPath>
</defs>
</svg>
