<svg width="261" height="246" viewBox="0 0 261 246" fill="none" xmlns="http://www.w3.org/2000/svg">
<g clip-path="url(#clip0_1012_869)">
<path d="M201.121 149.606C157.37 125.801 76.2953 149.606 76.2953 149.606C104.821 136.519 126.874 135.502 138.459 131.649C129.405 113.686 109.753 93.6466 87.2316 69.8412C100.101 77.5664 114.903 88.5213 132.273 111.685C149.651 134.848 176.673 130.39 186.325 125.882C195.977 121.38 191.469 91.377 182.466 62.4215C197.91 88.8019 196.619 108.424 202.087 124.516C207.555 140.603 228.143 138.028 257.741 165.05C260.079 167.27 262.249 169.552 264.419 171.834C262.249 169.477 260.029 167.189 257.741 165.05C273.996 132.728 263.272 103.498 242.665 81.482C261.869 93.1976 267.967 101.16 274.52 112.402C288.106 25.7408 242.665 -10.8027 242.665 -10.8027C266.084 -0.0348301 279.208 49.6397 286.235 72.1295C295.6 54.3284 323.702 32.3125 323.702 32.3125C323.702 32.3125 303.562 59.0109 290.912 96.9574C278.261 134.898 283.885 171.441 297.938 173.779C332.599 168.155 342.438 138.645 350.637 120.844C348.997 135.833 341.503 153.634 341.503 153.634C341.503 153.634 358.368 155.043 376.169 148.477C398.659 135.159 419.353 91.9943 443.795 77.1611C430.009 87.4926 404.383 131.032 387.879 151.757C405.68 152.225 440.814 166.752 458.615 183.612C407.083 151.757 366.798 156.92 343.373 165.343C341.97 174.714 367.733 205.628 381.793 221.558C360.713 202.816 343.373 185.95 330.728 169.558C300.838 179.628 299.435 210.123 304.841 225.331C315.758 256.051 311.69 285.064 311.69 296.879C311.69 316.177 276.933 621 276.933 621C276.933 621 283.401 621 259.602 621C270.538 621 264.419 308.826 264.419 262.5C264.419 194.295 213.354 154.756 206.277 156.047C199.194 157.337 174.104 186.28 146.433 196.575C168.954 186.287 195.328 159.258 201.121 149.606Z" fill="white"/>
<path d="M196.446 9.25224C212.769 -10.4879 233.918 -6.92768 241.463 1.22775C241.463 1.22775 221.33 22.9631 196.446 9.25224Z" fill="white"/>
<path d="M223.826 31.9297C233.958 19.6778 247.089 21.885 251.777 26.9541C251.777 26.9541 239.27 40.4467 223.826 31.9297Z" fill="white"/>
<path d="M237.316 75.6676C237.316 75.6676 213.024 71.8455 210.973 48.3457C232.128 50.4718 239.461 66.6954 237.316 75.6676Z" fill="white"/>
<path d="M170.382 55.0711C170.382 55.0711 135.791 49.6216 132.866 16.1582C162.988 19.1947 173.431 42.3017 170.382 55.0711Z" fill="white"/>
<path d="M99.6234 68.2639C99.6234 68.2639 75.5811 56.4984 80.9744 31.4023C102.298 40.3933 104.73 59.6221 99.6234 68.2639Z" fill="white"/>
<path d="M124.288 95.7376C124.288 95.7376 110.128 79.645 121.832 62.748C134.838 75.9538 130.723 90.9179 124.288 95.7376Z" fill="white"/>
<path d="M59.4159 6.82812C72.7963 9.87082 76.2068 20.8445 74.1181 26.4248C74.1181 26.4248 58.861 22.0416 59.4159 6.82812Z" fill="white"/>
<path d="M46.474 20.4922C71.6074 26.2097 78.0171 46.8227 74.0952 57.2976C74.0952 57.2976 45.439 49.0736 46.474 20.4922Z" fill="white"/>
<path d="M72.8379 66.7668C72.8379 66.7668 51.6388 87.729 27.2224 72.8273C44.5122 53.7107 65.6177 58.2124 72.8379 66.7668Z" fill="white"/>
<path d="M91.541 86.5599C91.541 86.5599 79.5074 112.41 52.6531 107.179C61.7937 84.2841 82.2134 81.2913 91.541 86.5599Z" fill="white"/>
<path d="M60.6465 143.181C60.6465 143.181 47.7836 170.821 19.0775 165.228C28.8478 140.756 50.6767 137.545 60.6465 143.181Z" fill="white"/>
<path d="M64.627 167.847C64.627 167.847 59.1464 191.558 35.7962 191.939C39.3875 171.207 55.9166 165.097 64.627 167.847Z" fill="white"/>
<path d="M87.8758 167.502C87.8758 167.502 94.5972 190.883 74.3707 202.555C67.4436 182.691 78.9161 169.329 87.8758 167.502Z" fill="white"/>
<path d="M86.7559 155.937C86.7559 155.937 80.5957 166.805 69.0546 163.569C73.8556 153.898 82.8714 153.312 86.7559 155.937Z" fill="white"/>
<path d="M101.993 160.549C101.993 160.549 114.725 172.37 106.65 186.96C95.0966 177.365 97.1978 164.969 101.993 160.549Z" fill="white"/>
<path d="M99.1087 205.049C111.011 185.091 130.458 185.34 138.377 191.607C138.377 191.607 123.338 213.903 99.1087 205.049Z" fill="white"/>
<path d="M120.976 162.846C143.678 157.902 156.79 172.261 157.619 182.324C157.619 182.324 131.07 186.589 120.976 162.846Z" fill="white"/>
<path d="M179.502 157.913C179.502 157.913 163.235 166.773 151.226 153.654C164.85 145.237 176.659 151.559 179.502 157.913Z" fill="white"/>
<path d="M116.09 217.994C116.09 217.994 115.728 240.683 94.5229 245.59C93.7435 225.987 107.61 217.208 116.09 217.994Z" fill="white"/>
<path d="M144.665 206.131C144.665 206.131 147.876 232.867 123.722 242.038C119.662 219.118 134.558 206.561 144.665 206.131Z" fill="white"/>
<path d="M172.078 193.074C172.078 193.074 184.735 213.725 168.436 230.285C156.521 213.076 163.978 197.221 172.078 193.074Z" fill="white"/>
<path d="M214.135 211.615C195.56 203.834 193.384 187.111 197.805 179.561C197.805 179.561 218.774 189.736 214.135 211.615Z" fill="white"/>
<path d="M203.178 162.631C203.178 162.631 221.715 164.682 224.084 182.408C207.991 181.529 201.869 169.502 203.178 162.631Z" fill="white"/>
<path d="M190.059 173.82C190.059 173.82 196.088 186.64 185.545 195.213C179.728 184.439 185.084 175.697 190.059 173.82Z" fill="white"/>
<path d="M17.4546 39.0531C35.0062 35.4118 45.0197 46.5912 45.5684 54.3476C45.5684 54.3476 25.0675 57.434 17.4546 39.0531Z" fill="white"/>
<path d="M173.352 76.9309C173.352 76.9309 151.236 83.2221 140.268 64.093C159.048 57.5961 171.637 68.4762 173.352 76.9309Z" fill="white"/>
<path d="M159.891 107.414C159.891 107.414 142.895 104.732 141.46 88.2969C156.262 89.787 161.388 101.135 159.891 107.414Z" fill="white"/>
<path d="M165.631 115.005C165.631 115.005 162.476 100.078 175.645 93.6934C179.087 106.413 171.299 114.257 165.631 115.005Z" fill="white"/>
<path d="M161.734 113.188C161.734 113.188 153.754 120.976 144.663 115.346C151.172 108.25 159.053 109.977 161.734 113.188Z" fill="white"/>
<path d="M57.9091 120.706C76.689 114.209 89.2776 125.089 90.9922 133.544C90.9922 133.544 68.8765 139.835 57.9091 120.706Z" fill="white"/>
<path d="M114.821 126.856C114.821 126.856 91.8512 127.934 85.5413 106.81C105.306 104.765 115.083 118.233 114.821 126.856Z" fill="white"/>
<path d="M35.498 99.6952C35.498 99.6952 18.5762 115.258 0.176575 103.106C14.0308 88.8525 30.1671 92.9115 35.498 99.6952Z" fill="white"/>
<path d="M30.4083 84.0152C43.0093 82.8056 49.1695 91.4287 48.9638 96.9217C48.9638 96.9217 34.3239 97.5016 30.4083 84.0152Z" fill="white"/>
<path d="M28.2302 121.658C30.0696 106.694 41.6855 101.743 48.0078 103.396C48.0078 103.396 44.9214 120.573 28.2302 121.658Z" fill="white"/>
<path d="M191.768 29.0762C197.08 44.4268 188.183 54.7271 181.274 56.1238C181.274 56.1238 176.13 38.0484 191.768 29.0762Z" fill="white"/>
<path d="M189.229 -20.998C193.681 -8.1227 186.224 0.512814 180.425 1.685C180.425 1.685 176.117 -13.4724 189.229 -20.998Z" fill="white"/>
<path d="M128.952 11.9823C128.952 11.9823 124.643 -3.18134 137.749 -10.707C142.207 2.17455 134.75 10.8038 128.952 11.9823Z" fill="white"/>
<path d="M87.2956 22.7214C87.2956 22.7214 103.145 8.79859 119.768 20.3209C106.761 33.1027 92.0467 29.05 87.2956 22.7214Z" fill="white"/>
<path d="M151.94 4.88359C165.021 0.419309 173.738 8.03229 174.91 13.9119C174.91 13.9119 159.503 18.2141 151.94 4.88359Z" fill="white"/>
<path d="M115.945 7.33817C115.945 7.33817 87.4636 4.9065 83.1365 -22.166C107.846 -21.449 117.679 -3.24269 115.945 7.33817Z" fill="white"/>
<path d="M261.328 65.5645C262.226 77.2489 254.132 82.8106 249.057 82.5175C249.057 82.5175 248.777 68.9563 261.328 65.5645Z" fill="white"/>
<path d="M238.808 63.876C238.808 63.876 230.659 50.8073 240.928 40.1953C248.603 51.0817 243.933 61.2074 238.808 63.876Z" fill="white"/>
<path d="M211.299 94.8321C211.299 94.8321 222.616 79.5064 239.5 86.5146C230.465 100.275 216.692 99.5146 211.299 94.8321Z" fill="white"/>
</g>
<defs>
<clipPath id="clip0_1012_869">
<rect width="261" height="246" fill="white"/>
</clipPath>
</defs>
</svg>
