<svg width="22" height="22" viewBox="0 0 22 22" fill="none" xmlns="http://www.w3.org/2000/svg">
<g clip-path="url(#clip0_820_1073)">
<path d="M17.1881 0H4.57743C2.09042 0 0.0736084 2.01681 0.0736084 4.50382V17.1145C0.0736084 19.6015 2.09042 21.6183 4.57743 21.6183H17.1881C19.676 21.6183 21.6919 19.6015 21.6919 17.1145V4.50382C21.6919 2.01681 19.676 0 17.1881 0ZM7.27972 17.1145H4.57743V7.20611H7.27972V17.1145ZM5.92857 6.06394C5.05843 6.06394 4.35223 5.35234 4.35223 4.47499C4.35223 3.59765 5.05843 2.88605 5.92857 2.88605C6.79871 2.88605 7.50491 3.59765 7.50491 4.47499C7.50491 5.35234 6.79961 6.06394 5.92857 6.06394ZM18.0889 17.1145H15.3866V12.0666C15.3866 9.03286 11.7835 9.26255 11.7835 12.0666V17.1145H9.08124V7.20611H11.7835V8.79595C13.041 6.46658 18.0889 6.29453 18.0889 11.0262V17.1145Z" fill="#ABABAB"/>
</g>
<defs>
<clipPath id="clip0_820_1073">
<rect width="21.6183" height="21.6183" fill="white" transform="translate(0.0736084)"/>
</clipPath>
</defs>
</svg>
