<svg width="75" height="75" viewBox="0 0 75 75" fill="none" xmlns="http://www.w3.org/2000/svg">
<circle cx="37.5" cy="37.5" r="37.5" fill="#293F52"/>
<path d="M42.3776 52.7625H34.0715C33.3141 52.7625 32.7036 52.1476 32.7036 51.3947V50.4333C32.7126 49.6069 32.6721 49.0265 32.5851 48.7025C32.1187 46.9942 30.8843 45.5619 29.6889 44.1731C29.2945 43.7187 28.9225 43.2852 28.5805 42.8488C26.8602 40.6605 25.9453 38.0389 25.9453 35.2582C25.9453 28.47 31.4707 22.9492 38.259 22.9492C45.0458 22.9492 50.5698 28.47 50.5698 35.2582C50.5698 38.0404 49.6594 40.665 47.9345 42.8518C47.6331 43.2387 47.2851 43.6437 46.9221 44.0711C45.6983 45.5109 44.3319 47.1172 43.861 48.8135C43.7785 49.1165 43.738 49.6609 43.744 50.4228V51.3917C43.744 52.1476 43.1335 52.7625 42.3776 52.7625ZM35.4423 50.0239H41.0098C41.0248 48.959 41.1282 48.4341 41.2227 48.0921C41.8572 45.8079 43.429 43.9526 44.8164 42.3238C45.1808 41.8949 45.5003 41.5199 45.7838 41.163C47.1231 39.4592 47.8325 37.4209 47.8325 35.2597C47.8325 29.9804 43.54 25.6849 38.2605 25.6849C32.9811 25.6849 28.6855 29.9804 28.6855 35.2597C28.6855 37.4164 29.3935 39.4562 30.7343 41.16C31.0508 41.5649 31.3972 41.9624 31.7647 42.3868C33.0291 43.8551 34.5964 45.6744 35.2294 47.9856C35.3223 48.3471 35.4303 48.8975 35.4423 50.0239Z" fill="white"/>
<path d="M42.3654 56.3856H34.0593C33.3018 56.3856 32.6914 55.7722 32.6914 55.0148C32.6914 54.2589 33.3018 53.6484 34.0593 53.6484H42.3654C43.1213 53.6484 43.7318 54.2589 43.7318 55.0148C43.7318 55.7722 43.1213 56.3856 42.3654 56.3856Z" fill="white"/>
<path d="M40.3013 60.0004H36.1482C35.3908 60.0004 34.7773 59.387 34.7773 58.6326C34.7773 57.8766 35.3908 57.2617 36.1482 57.2617H40.3013C41.0542 57.2617 41.6691 57.8766 41.6691 58.6326C41.6691 59.387 41.0542 60.0004 40.3013 60.0004Z" fill="white"/>
<path d="M60.1392 36.6302H54.6677C53.9118 36.6302 53.2969 36.0198 53.2969 35.2624C53.2969 34.5065 53.9118 33.8945 54.6677 33.8945H60.1392C60.8951 33.8945 61.5055 34.5065 61.5055 35.2624C61.5055 36.0198 60.8951 36.6302 60.1392 36.6302Z" fill="white"/>
<path d="M21.8393 36.6302H16.3664C15.6104 36.6302 15 36.0198 15 35.2624C15 34.5065 15.6104 33.8945 16.3664 33.8945H21.8378C22.5937 33.8945 23.2087 34.5065 23.2087 35.2624C23.2102 36.0198 22.5952 36.6302 21.8393 36.6302Z" fill="white"/>
<path d="M38.2576 20.21C37.5002 20.21 36.8867 19.5996 36.8867 18.8422V13.3678C36.8867 12.6134 37.5002 12 38.2576 12C39.015 12 39.6254 12.6134 39.6254 13.3678V18.8407C39.6254 19.5981 39.015 20.21 38.2576 20.21Z" fill="white"/>
<path d="M53.7227 52.0989C53.3748 52.0989 53.0253 51.9654 52.7568 51.6969L48.8887 47.8274C48.3548 47.295 48.3548 46.4266 48.8887 45.8911C49.4242 45.3572 50.2896 45.3602 50.8235 45.8941L54.6916 49.7622C55.2271 50.2976 55.2271 51.166 54.6916 51.6999C54.4247 51.9684 54.0767 52.0989 53.7227 52.0989Z" fill="white"/>
<path d="M26.6496 25.0222C26.3017 25.0222 25.9507 24.8888 25.6807 24.6203L21.8156 20.7538C21.2802 20.2183 21.2802 19.3499 21.8156 18.8145C22.3511 18.2806 23.2165 18.2806 23.7504 18.8145L27.6185 22.6825C28.154 23.2165 28.154 24.0864 27.6185 24.6203C27.3516 24.8888 27.0021 25.0222 26.6496 25.0222Z" fill="white"/>
<path d="M22.783 52.0965C22.4336 52.0965 22.0841 51.966 21.8156 51.6975C21.2802 51.1636 21.2802 50.2952 21.8156 49.7598L25.6867 45.8887C26.2177 45.3548 27.0831 45.3548 27.6185 45.8887C28.154 46.4242 28.154 47.2926 27.6185 47.828L23.7504 51.6975C23.482 51.9645 23.134 52.0965 22.783 52.0965Z" fill="white"/>
<path d="M49.8554 25.0208C49.5059 25.0208 49.1565 24.8873 48.8865 24.6188C48.3555 24.0849 48.3555 23.218 48.8865 22.684L52.7546 18.816C53.2855 18.2821 54.1569 18.2791 54.6894 18.813C55.2248 19.3485 55.2248 20.2138 54.6894 20.7493L50.8243 24.6158C50.5573 24.8843 50.2079 25.0208 49.8554 25.0208Z" fill="white"/>
</svg>
