<svg width="75" height="75" viewBox="0 0 75 75" fill="none" xmlns="http://www.w3.org/2000/svg">
<circle cx="37.5" cy="37.5" r="37.5" fill="#293F52"/>
<path d="M27.9694 33.9527V33.4678C27.9694 32.57 28.2466 31.7027 28.7707 30.9822C30.1156 29.1336 32.9371 25.2667 35.5524 21.7559C36.7412 20.1601 38.9619 21.2991 38.4613 23.2386L37.6061 26.9317C36.997 29.5624 38.9487 32.0853 41.5931 32.0853H50.9015C53.4788 32.0853 55.416 34.4889 54.923 37.0751L52.5334 49.6125C52.1584 51.5799 50.4725 53 48.5119 53H29.0653C28.46 53 27.9694 52.4984 27.9694 51.8796M27.9694 33.9527H23.0971C20.8343 33.9527 19 35.828 19 38.1413V47.6909C19 50.0043 20.8343 51.8796 23.0971 51.8796H27.9694M27.9694 33.9527V51.8796" stroke="white" stroke-width="3" stroke-linejoin="round"/>
<ellipse cx="24" cy="48.035" rx="1" ry="0.992048" stroke="white" stroke-width="3"/>
</svg>
