<svg width="437" height="275" viewBox="0 0 437 275" fill="none" xmlns="http://www.w3.org/2000/svg">
<g clip-path="url(#clip0_1321_2210)">
<g clip-path="url(#clip1_1321_2210)">
<path d="M23.5925 256.939C23.5668 256.951 23.5395 256.959 23.5116 256.963C23.4845 256.966 23.4572 256.966 23.4302 256.963C22.5434 256.601 -37.7671 225.802 -38.3309 225.409L-41.8452 156.292C-41.7969 156.222 -41.7423 156.156 -41.682 156.096C-41.5221 155.98 -41.3601 155.868 -41.1959 155.762C-22.0224 143.339 -2.84581 130.923 16.3338 118.513C16.359 118.501 16.3862 118.494 16.414 118.492C16.436 118.478 16.4715 118.489 16.558 118.483C16.8324 118.618 17.163 118.781 17.4834 118.948L68.2026 144.824C71.2518 146.386 74.2986 147.941 77.3432 149.49C78.3752 150.023 78.2338 149.78 78.3063 151.01C78.3566 152.051 78.4041 153.088 78.4625 154.117C79.5575 175.54 80.6497 196.962 81.7389 218.382C81.7512 218.662 81.7541 218.941 81.7605 219.177C81.7175 219.238 81.6675 219.293 81.6115 219.342C62.5333 231.703 43.4571 244.069 24.3831 256.439C24.1316 256.615 23.865 256.772 23.5925 256.939ZM-37.0711 205.01C-36.8904 208.821 -36.6984 212.63 -36.4949 216.435L-36.1498 223.153C-36.1345 223.293 -36.1278 223.434 -36.1299 223.574C-36.1435 223.728 -36.1053 223.882 -36.0214 224.011C-35.9376 224.141 -35.8128 224.238 -35.667 224.289C-34.4874 224.876 -33.3271 225.492 -32.1447 226.083L21.2718 253.333C21.5548 253.519 21.8679 253.656 22.1973 253.735C22.2313 253.638 22.2831 253.564 22.2783 253.489C21.9525 246.965 21.6253 240.438 21.2862 233.825C1.83615 223.907 -17.5847 214.001 -36.9764 204.106C-37.1071 204.388 -37.1404 204.706 -37.0711 205.01ZM31.7901 225.602C34.2817 223.988 36.7784 222.37 39.2802 220.749C39.5353 220.584 39.7854 220.406 40.0699 220.209L39.0741 200.713C39.0637 200.619 39.0447 200.527 39.0174 200.437C38.819 200.329 38.7107 200.446 38.6001 200.511C38.4352 200.618 38.2703 200.725 38.1054 200.831C27.204 207.895 16.3018 214.958 5.39891 222.022L4.60526 222.536C4.70496 222.69 4.73011 222.768 4.76337 222.78C10.574 225.756 16.3784 228.725 22.1766 231.687C22.5773 231.665 22.8254 231.417 23.1024 231.237C26.0074 229.352 28.8933 227.476 31.7901 225.602ZM-29.0467 197.373L-35.1232 201.31C-35.3805 201.477 -35.6355 201.642 -35.8666 201.81C-35.8325 202.147 -35.5728 202.182 -35.3866 202.277C-33.82 203.089 -32.249 203.891 -30.6734 204.685C-20.0201 210.125 -9.36501 215.562 1.29179 220.997C1.53935 221.124 1.79209 221.244 2.06281 221.378C2.27206 221.267 2.47163 221.175 2.65993 221.056C7.8615 217.686 13.0645 214.315 18.269 210.943C18.4471 210.828 18.6024 210.677 18.7852 210.531C18.7258 210.45 18.655 210.378 18.5751 210.317C5.99649 203.901 -6.56291 197.495 -19.1031 191.099C-19.4377 191.149 -19.7505 191.296 -20.0038 191.52C-23.0224 193.468 -26.0367 195.419 -29.0467 197.373ZM22.0364 208.505C26.0156 205.927 29.9948 203.349 33.9741 200.771C35.3606 199.872 36.7529 198.97 38.1511 198.064C38.4084 197.898 38.6548 197.719 38.8762 197.57C38.9493 196.873 38.0064 177.554 37.8452 176.27C37.67 175.999 37.3601 175.916 37.0916 175.781C32.5387 173.456 27.9912 171.137 23.4493 168.826C22.1486 168.164 20.8492 167.503 19.5509 166.841C19.3033 166.715 19.0498 166.598 18.7747 166.467C17.9458 166.898 1.56613 177.542 1.07167 177.959C1.00882 178.652 2.01632 198.528 2.16208 199.327L21.1629 209.012C21.4616 208.847 21.755 208.688 22.0342 208.507L22.0364 208.505ZM-39.4478 158.316L-37.3904 198.88C-37.3754 199.183 -37.3473 199.477 -37.3134 199.886C-36.5479 199.521 -21.0795 189.499 -20.4908 188.986C-21.2042 175.038 -21.9169 161.054 -22.6289 147.035C-22.6465 146.876 -22.6723 146.719 -22.7062 146.564C-22.8431 146.602 -22.9772 146.649 -23.1077 146.705C-23.2812 146.799 -23.4375 146.919 -23.6024 147.025C-28.6193 150.276 -33.6369 153.527 -38.6553 156.778C-39.5853 157.39 -39.5082 157.215 -39.45 158.317L-39.4478 158.316ZM15.23 121.906C14.9002 122.12 14.6537 122.245 14.4229 122.395L-19.7808 144.556C-20.3964 144.955 -20.4008 144.957 -20.3613 145.712C-20.1083 150.698 -19.8544 155.683 -19.5995 160.666L-18.2097 187.964C-18.197 188.268 -18.171 188.563 -18.1407 188.856C-17.4959 189.33 -4.51351 196.023 -0.786292 197.816C-0.665682 197.872 -0.53461 197.906 -0.379849 197.961C-0.274947 197.689 -0.250872 197.391 -0.310499 197.105C-0.442735 194.331 -0.582253 191.56 -0.729061 188.789C-0.865298 186.1 -1.00227 183.41 -1.13997 180.722L-2.47218 155.016C-2.48958 154.681 -2.49393 154.346 -2.50579 153.976L16.3306 141.772L15.3508 122.334C15.3201 122.189 15.279 122.047 15.2278 121.908L15.23 121.906ZM35.3012 152.885C35.2965 152.846 35.2882 152.807 35.2765 152.77C35.2678 152.745 35.2531 152.722 35.2338 152.704C35.0888 152.62 34.9447 152.532 34.796 152.457C29.1041 149.549 23.4115 146.645 17.8133 143.796C17.6776 143.784 17.6522 143.778 17.6253 143.78C17.5969 143.785 17.5693 143.795 17.5436 143.808C17.4512 143.868 17.3439 143.909 17.2515 143.969C11.5516 147.662 5.85176 151.355 0.151879 155.048C0.0866537 155.097 0.0256647 155.151 -0.030435 155.21C-0.0981168 155.828 0.800337 173.99 0.942355 175.018C1.08318 175.139 1.20072 175.041 1.31569 174.973C1.50256 174.852 1.69383 174.728 1.8807 174.607C12.7616 167.557 23.6411 160.508 34.5191 153.46C34.8035 153.31 35.0641 153.118 35.2924 152.891L35.3012 152.885ZM77.034 171.034L76.0394 151.389L17.9925 121.796C17.9276 121.763 17.8387 121.78 17.7458 121.771C17.7075 121.849 17.6821 121.931 17.6707 122.017C17.9958 128.536 18.3179 135.06 18.6508 141.489L18.7519 141.646C18.7686 141.668 18.7896 141.688 18.8136 141.702C25.0448 144.896 31.2815 148.088 37.5239 151.276C50.6068 157.944 63.6904 164.61 76.7744 171.274C76.8008 171.281 76.8282 171.284 76.8556 171.283C76.884 171.284 76.9102 171.276 76.9546 171.272C76.9826 171.185 77.0374 171.106 77.034 171.034ZM75.8431 173.531C75.6253 173.31 75.3588 173.143 75.0647 173.043C72.0454 171.495 69.0246 169.951 66.0022 168.411L38.7342 154.503C37.7165 153.982 37.9331 153.979 37.0098 154.578C31.9709 157.842 26.932 161.107 21.8931 164.372C21.6158 164.499 21.3702 164.686 21.1739 164.919C21.3225 165.225 21.6226 165.274 21.8672 165.406C25.4563 167.243 29.0498 169.076 32.6477 170.907C41.1868 175.261 49.7279 179.611 58.271 183.958C59.2887 184.479 59.0578 184.522 60.0815 183.862C65.072 180.629 70.064 177.394 75.0574 174.159C75.3592 174.008 75.6255 173.795 75.8387 173.534L75.8431 173.531ZM58.0828 186.505L40.6339 177.606C40.5124 177.563 40.3874 177.531 40.2602 177.511C40.1634 178.354 40.2931 179.157 40.3247 179.966C40.3562 180.776 40.4022 181.589 40.4468 182.4L40.5682 184.837L40.6918 187.273L40.8175 189.707L40.9411 192.143C40.9813 192.956 41.0187 193.766 41.0647 194.579C41.1107 195.392 41.1743 196.193 41.2094 197.013C41.2444 197.833 41.2978 198.691 41.3421 199.53C41.3863 200.369 41.421 201.155 41.4549 201.954L41.5799 204.392L41.7057 206.827L41.8278 209.26L41.9514 211.696L42.075 214.132L42.1986 216.567C42.2395 217.377 42.2856 218.19 42.3243 219.002C42.3631 219.813 42.3991 220.62 42.4381 221.466L23.6852 233.616C23.6143 234.311 24.5302 252.586 24.6642 253.395C24.805 253.516 24.9261 253.428 25.0404 253.354C25.2295 253.232 25.4163 253.111 25.6076 252.987C36.8857 245.679 48.1646 238.372 59.4441 231.064C60.4115 230.437 60.3438 230.665 60.2832 229.468L58.1417 187.391C58.1272 187.113 58.1032 186.835 58.0784 186.508L58.0828 186.505ZM79.4108 218.055C79.4176 217.992 79.4199 217.928 79.4177 217.864L77.281 175.861C77.2696 175.786 77.2491 175.712 77.2199 175.642C77.047 175.529 76.94 175.658 76.8316 175.722C76.6354 175.833 76.4535 175.967 76.2666 176.088L60.4135 186.359C61.1314 200.44 61.8497 214.498 62.5682 228.534C62.5827 228.633 62.6082 228.731 62.6444 228.825C62.7402 228.828 62.8031 228.853 62.8419 228.831C63.6762 228.375 78.8908 218.477 79.4064 218.058L79.4108 218.055Z" fill="#D7D8DD"/>
</g>
<g clip-path="url(#clip2_1321_2210)">
<path d="M77.7224 151.637C77.6966 151.649 77.6694 151.657 77.6414 151.662C77.6144 151.664 77.5871 151.664 77.5601 151.661C76.6733 151.299 16.3628 120.501 15.799 120.108L12.2847 50.9901C12.333 50.9199 12.3876 50.8542 12.4478 50.7939C12.6078 50.6778 12.7698 50.5666 12.9339 50.4602C32.1075 38.0376 51.2841 25.6213 70.4637 13.2113C70.4889 13.1993 70.5161 13.1922 70.5439 13.1906C70.5659 13.1763 70.6014 13.1877 70.6879 13.1815C70.9623 13.3159 71.2929 13.4794 71.6133 13.6463L122.333 39.5224C125.382 41.0844 128.429 42.6395 131.473 44.1878C132.505 44.7208 132.364 44.4785 132.436 45.7081C132.487 46.7493 132.534 47.786 132.592 48.8157C133.687 70.2386 134.78 91.6602 135.869 113.081C135.881 113.36 135.884 113.639 135.89 113.875C135.847 113.936 135.797 113.991 135.741 114.04C116.663 126.401 97.587 138.767 78.513 151.138C78.2614 151.313 77.9949 151.47 77.7224 151.637ZM17.0588 99.708C17.2395 103.52 17.4315 107.328 17.635 111.133L17.98 117.852C17.9954 117.991 18.0021 118.132 18 118.273C17.9864 118.426 18.0246 118.58 18.1084 118.71C18.1923 118.839 18.3171 118.937 18.4629 118.987C19.6425 119.574 20.8028 120.19 21.9852 120.781L75.4017 148.031C75.6847 148.218 75.9978 148.354 76.3272 148.434C76.3611 148.337 76.413 148.263 76.4081 148.188C76.0824 141.663 75.7552 135.136 75.416 128.523C55.966 118.605 36.5452 108.699 17.1535 98.8039C17.0228 99.0865 16.9895 99.4045 17.0588 99.708ZM85.92 120.3C88.4116 118.686 90.9083 117.068 93.4101 115.447C93.6652 115.282 93.9153 115.105 94.1997 114.908L93.204 95.4109C93.1935 95.3176 93.1746 95.2254 93.1473 95.1355C92.9489 95.0268 92.8406 95.1438 92.73 95.2092C92.5651 95.3161 92.4002 95.4229 92.2353 95.5297C81.3339 102.593 70.4317 109.656 59.5288 116.72L58.7351 117.235C58.8348 117.389 58.86 117.466 58.8932 117.479C64.7039 120.454 70.5083 123.423 76.3065 126.385C76.7072 126.363 76.9553 126.115 77.2323 125.935C80.1372 124.05 83.0232 122.174 85.92 120.3ZM25.0832 92.0712L19.0066 96.0082C18.7494 96.1749 18.4944 96.3401 18.2633 96.5086C18.2974 96.8454 18.5571 96.8801 18.7433 96.9748C20.3099 97.7868 21.8809 98.5897 23.4564 99.3835C34.1098 104.823 44.7649 110.26 55.4217 115.695C55.6692 115.822 55.922 115.942 56.1927 116.076C56.4019 115.965 56.6015 115.873 56.7898 115.755C61.9914 112.384 67.1944 109.013 72.3989 105.641C72.577 105.526 72.7323 105.375 72.9151 105.229C72.8557 105.148 72.7849 105.076 72.705 105.015C60.1264 98.5989 47.567 92.1929 35.0268 85.7972C34.6922 85.8477 34.3794 85.994 34.1261 86.2185C31.1075 88.1659 28.0932 90.1168 25.0832 92.0712ZM76.1663 103.204C80.1455 100.625 84.1247 98.0472 88.1039 95.4691C89.4904 94.5707 90.8828 93.6686 92.281 92.7627C92.5382 92.596 92.7847 92.4176 93.0061 92.2679C93.0792 91.5714 92.1363 72.2525 91.9751 70.968C91.7999 70.6975 91.49 70.6143 91.2215 70.4793C86.6686 68.1541 82.1211 65.8357 77.5792 63.5242C76.2785 62.8625 74.979 62.2009 73.6808 61.5397C73.4332 61.4129 73.1797 61.2962 72.9046 61.1655C72.0757 61.5964 55.696 72.2401 55.2016 72.6572C55.1387 73.3503 56.1462 93.2266 56.292 94.0249L75.2928 103.71C75.5914 103.545 75.8849 103.386 76.1641 103.205L76.1663 103.204ZM14.6821 53.0139L16.7395 93.5786C16.7544 93.881 16.7826 94.175 16.8164 94.5837C17.582 94.2188 33.0504 84.1968 33.6391 83.6843C32.9257 69.7363 32.213 55.7525 31.501 41.7329C31.4834 41.5746 31.4576 41.4173 31.4236 41.2617C31.2868 41.2999 31.1527 41.3472 31.0222 41.4033C30.8487 41.4969 30.6924 41.6169 30.5275 41.7237C25.5106 44.9742 20.493 48.2252 15.4746 51.4766C14.5446 52.0885 14.6217 51.9137 14.6799 53.0153L14.6821 53.0139ZM69.3599 16.6046C69.0301 16.8183 68.7836 16.9436 68.5528 17.0932L34.3491 39.254C33.7335 39.6528 33.7291 39.6556 33.7686 40.4104C34.0216 45.3967 34.2755 50.3814 34.5304 55.3643L35.9202 82.662C35.9329 82.9659 35.9588 83.2613 35.9892 83.5537C36.634 84.0287 49.6164 90.7215 53.3436 92.5141C53.4642 92.5702 53.5953 92.6039 53.75 92.6597C53.8549 92.3868 53.879 92.0894 53.8194 91.8032C53.6871 89.0297 53.5476 86.2579 53.4008 83.4876C53.2646 80.7979 53.1276 78.1086 52.9899 75.4199L51.6577 49.7142C51.6403 49.379 51.636 49.0447 51.6241 48.6747L70.4605 36.4705L69.4807 17.032C69.45 16.8872 69.4089 16.7449 69.3577 16.606L69.3599 16.6046ZM89.4311 47.5831C89.4264 47.5441 89.4181 47.5056 89.4064 47.468C89.3977 47.4429 89.383 47.4203 89.3637 47.4021C89.2187 47.3181 89.0746 47.2304 88.9259 47.1551C83.234 44.2475 77.5413 41.3435 71.9432 38.4939C71.8074 38.4819 71.7821 38.4765 71.7552 38.4783C71.7267 38.4837 71.6992 38.4931 71.6734 38.5063C71.5811 38.5661 71.4737 38.6076 71.3814 38.6674C65.6815 42.3604 59.9816 46.0534 54.2818 49.7464C54.2165 49.7951 54.1555 49.8492 54.0994 49.9082C54.0318 50.5264 54.9302 68.6879 55.0722 69.7164C55.2131 69.8374 55.3306 69.7394 55.4456 69.6712C55.6324 69.5501 55.8237 69.4262 56.0106 69.3051C66.8915 62.2553 77.771 55.2065 88.649 48.1585C88.9334 48.0078 89.194 47.8159 89.4223 47.5888L89.4311 47.5831ZM131.164 65.7318L130.169 46.0875L72.1224 16.494C72.0575 16.4612 71.9686 16.4782 71.8757 16.4697C71.8374 16.5468 71.812 16.6297 71.8005 16.715C72.1257 23.234 72.4478 29.758 72.7806 36.1877L72.8818 36.3438C72.8985 36.3665 72.9195 36.3858 72.9435 36.4005C79.1746 39.5945 85.4114 42.7858 91.6537 45.9745C104.737 52.6427 117.82 59.3085 130.904 65.9718C130.931 65.9793 130.958 65.9826 130.986 65.9816C131.014 65.982 131.04 65.9743 131.084 65.9705C131.112 65.8837 131.167 65.8045 131.164 65.7318ZM129.973 68.2295C129.755 68.0082 129.489 67.841 129.195 67.7412C126.175 66.1932 123.154 64.6494 120.132 63.1096L92.8641 49.2012C91.8464 48.6807 92.063 48.6777 91.1396 49.276C86.1008 52.5407 81.0619 55.8054 76.023 59.0701C75.7457 59.197 75.5 59.3839 75.3038 59.6173C75.4523 59.9237 75.7525 59.9727 75.9971 60.1045C79.5862 61.9409 83.1797 63.7744 86.7775 65.6051C95.3167 69.9589 103.858 74.3093 112.401 78.6563C113.419 79.1768 113.188 79.2203 114.211 78.5602C119.202 75.3268 124.194 72.0925 129.187 68.8572C129.489 68.7067 129.755 68.4937 129.969 68.2324L129.973 68.2295ZM112.213 81.2035L94.7637 72.3044C94.6423 72.2615 94.5172 72.2297 94.3901 72.2094C94.2933 73.0524 94.423 73.8548 94.4545 74.6647C94.4861 75.4745 94.5321 76.2875 94.5767 77.0982L94.6981 79.5354L94.8217 81.9711L94.9474 84.4054L95.071 86.8411C95.1112 87.6547 95.1486 88.4639 95.1946 89.2769C95.2406 90.0898 95.3042 90.8914 95.3393 91.7114C95.3743 92.5315 95.4277 93.3896 95.4719 94.2286C95.5162 95.0677 95.5509 95.8536 95.5848 96.6526L95.7098 99.0905L95.8356 101.525L95.9577 103.958L96.0813 106.394L96.2049 108.83L96.3285 111.266C96.3694 112.076 96.4154 112.888 96.4542 113.7C96.493 114.511 96.5289 115.318 96.568 116.164L77.8151 128.314C77.7442 129.009 78.6601 147.284 78.7941 148.093C78.9349 148.214 79.0559 148.126 79.1703 148.052C79.3593 147.93 79.5462 147.809 79.7375 147.685C91.0156 140.378 102.294 133.07 113.574 125.762C114.541 125.135 114.474 125.363 114.413 124.166L112.272 82.0893C112.257 81.8115 112.233 81.5337 112.208 81.2064L112.213 81.2035ZM133.541 112.754C133.547 112.69 133.55 112.626 133.548 112.562L131.411 70.5597C131.4 70.4843 131.379 70.4106 131.35 70.3402C131.177 70.2275 131.07 70.3561 130.962 70.4201C130.765 70.5316 130.583 70.6651 130.396 70.7862L114.543 81.0575C115.261 95.1377 115.98 109.196 116.698 123.232C116.713 123.332 116.738 123.429 116.774 123.523C116.87 123.527 116.933 123.551 116.972 123.529C117.806 123.073 133.021 113.175 133.536 112.756L133.541 112.754Z" fill="#D7D8DD"/>
</g>
<g clip-path="url(#clip3_1321_2210)">
<path d="M141.822 250.568C141.796 250.58 141.769 250.588 141.741 250.592C141.714 250.595 141.687 250.595 141.66 250.592C140.773 250.23 80.4627 219.431 79.8989 219.038L76.3845 149.921C76.4328 149.851 76.4875 149.785 76.5477 149.725C76.7076 149.608 76.8696 149.497 77.0338 149.391C96.2073 136.968 115.384 124.552 134.564 112.142C134.589 112.13 134.616 112.123 134.644 112.121C134.666 112.107 134.701 112.118 134.788 112.112C135.062 112.247 135.393 112.41 135.713 112.577L186.432 138.453C189.482 140.015 192.528 141.57 195.573 143.118C196.605 143.652 196.464 143.409 196.536 144.639C196.586 145.68 196.634 146.717 196.692 147.746C197.787 169.169 198.879 190.591 199.969 212.011C199.981 212.29 199.984 212.569 199.99 212.806C199.947 212.866 199.897 212.922 199.841 212.971C180.763 225.332 161.687 237.698 142.613 250.068C142.361 250.244 142.095 250.401 141.822 250.568ZM81.1587 198.639C81.3393 202.45 81.5314 206.259 81.7349 210.064L82.0799 216.782C82.0953 216.922 82.1019 217.063 82.0998 217.203C82.0862 217.357 82.1244 217.511 82.2083 217.64C82.2922 217.77 82.4169 217.867 82.5627 217.918C83.7423 218.505 84.9026 219.12 86.085 219.712L139.502 246.962C139.785 247.148 140.098 247.284 140.427 247.364C140.461 247.267 140.513 247.193 140.508 247.118C140.182 240.593 139.855 234.067 139.516 227.454C120.066 217.536 100.645 207.63 81.2534 197.735C81.1226 198.017 81.0893 198.335 81.1587 198.639ZM150.02 219.231C152.511 217.617 155.008 215.999 157.51 214.378C157.765 214.213 158.015 214.035 158.3 213.838L157.304 194.342C157.293 194.248 157.274 194.156 157.247 194.066C157.049 193.957 156.94 194.075 156.83 194.14C156.665 194.247 156.5 194.354 156.335 194.46C145.434 201.523 134.532 208.587 123.629 215.651L122.835 216.165C122.935 216.319 122.96 216.397 122.993 216.409C128.804 219.385 134.608 222.354 140.406 225.316C140.807 225.294 141.055 225.046 141.332 224.866C144.237 222.981 147.123 221.105 150.02 219.231ZM89.183 191.002L83.1065 194.939C82.8493 195.106 82.5942 195.271 82.3632 195.439C82.3973 195.776 82.6569 195.811 82.8431 195.905C84.4097 196.717 85.9808 197.52 87.5563 198.314C98.2096 203.754 108.865 209.191 119.522 214.626C119.769 214.753 120.022 214.873 120.293 215.007C120.502 214.896 120.701 214.804 120.89 214.685C126.091 211.315 131.294 207.944 136.499 204.572C136.677 204.457 136.832 204.306 137.015 204.16C136.956 204.079 136.885 204.007 136.805 203.946C124.226 197.53 111.667 191.124 99.1267 184.728C98.7921 184.778 98.4792 184.925 98.226 185.149C95.2073 187.097 92.193 189.048 89.183 191.002ZM140.266 202.134C144.245 199.556 148.225 196.978 152.204 194.4C153.59 193.501 154.983 192.599 156.381 191.693C156.638 191.527 156.885 191.348 157.106 191.199C157.179 190.502 156.236 171.183 156.075 169.899C155.9 169.628 155.59 169.545 155.321 169.41C150.768 167.085 146.221 164.766 141.679 162.455C140.378 161.793 139.079 161.132 137.781 160.47C137.533 160.344 137.28 160.227 137.004 160.096C136.176 160.527 119.796 171.171 119.301 171.588C119.239 172.281 120.246 192.157 120.392 192.956L139.393 202.641C139.691 202.475 139.985 202.317 140.264 202.136L140.266 202.134ZM78.782 151.945L80.8394 192.509C80.8543 192.812 80.8824 193.106 80.9163 193.514C81.6818 193.15 97.1502 183.127 97.7389 182.615C97.0255 168.667 96.3128 154.683 95.6009 140.664C95.5833 140.505 95.5574 140.348 95.5235 140.192C95.3867 140.231 95.2525 140.278 95.122 140.334C94.9486 140.428 94.7922 140.548 94.6274 140.654C89.6105 143.905 84.5928 147.156 79.5745 150.407C78.6444 151.019 78.7215 150.844 78.7798 151.946L78.782 151.945ZM133.46 115.535C133.13 115.749 132.883 115.874 132.653 116.024L98.4489 138.185C97.8334 138.583 97.829 138.586 97.8685 139.341C98.1214 144.327 98.3753 149.312 98.6302 154.295L100.02 181.593C100.033 181.897 100.059 182.192 100.089 182.484C100.734 182.959 113.716 189.652 117.443 191.445C117.564 191.501 117.695 191.535 117.85 191.59C117.955 191.317 117.979 191.02 117.919 190.734C117.787 187.96 117.647 185.189 117.501 182.418C117.364 179.729 117.227 177.039 117.09 174.351L115.758 148.645C115.74 148.31 115.736 147.975 115.724 147.605L134.56 135.401L133.581 115.963C133.55 115.818 133.509 115.676 133.458 115.537L133.46 115.535ZM153.531 146.514C153.526 146.475 153.518 146.436 153.506 146.399C153.498 146.374 153.483 146.351 153.464 146.333C153.319 146.249 153.174 146.161 153.026 146.086C147.334 143.178 141.641 140.274 136.043 137.425C135.907 137.413 135.882 137.407 135.855 137.409C135.827 137.414 135.799 137.424 135.773 137.437C135.681 137.497 135.574 137.538 135.481 137.598C129.781 141.291 124.081 144.984 118.382 148.677C118.316 148.726 118.255 148.78 118.199 148.839C118.132 149.457 119.03 167.619 119.172 168.647C119.313 168.768 119.43 168.67 119.545 168.602C119.732 168.481 119.924 168.357 120.11 168.236C130.991 161.186 141.871 154.137 152.749 147.089C153.033 146.939 153.294 146.747 153.522 146.52L153.531 146.514ZM195.264 164.662L194.269 145.018L136.222 115.425C136.157 115.392 136.068 115.409 135.976 115.4C135.937 115.477 135.912 115.56 135.9 115.646C136.226 122.165 136.548 128.689 136.88 135.118L136.982 135.274C136.998 135.297 137.019 135.316 137.043 135.331C143.274 138.525 149.511 141.716 155.754 144.905C168.837 151.573 181.92 158.239 195.004 164.902C195.031 164.91 195.058 164.913 195.085 164.912C195.114 164.913 195.14 164.905 195.184 164.901C195.212 164.814 195.267 164.735 195.264 164.662ZM194.073 167.16C193.855 166.939 193.588 166.772 193.294 166.672C190.275 165.124 187.254 163.58 184.232 162.04L156.964 148.132C155.946 147.611 156.163 147.608 155.239 148.207C150.201 151.471 145.162 154.736 140.123 158.001C139.846 158.128 139.6 158.315 139.404 158.548C139.552 158.854 139.852 158.903 140.097 159.035C143.686 160.872 147.28 162.705 150.877 164.536C159.417 168.89 167.958 173.24 176.501 177.587C177.518 178.107 177.287 178.151 178.311 177.491C183.302 174.257 188.294 171.023 193.287 167.788C193.589 167.637 193.855 167.424 194.068 167.163L194.073 167.16ZM176.313 180.134L158.864 171.235C158.742 171.192 158.617 171.16 158.49 171.14C158.393 171.983 158.523 172.785 158.554 173.595C158.586 174.405 158.632 175.218 158.677 176.029L158.798 178.466L158.922 180.902L159.047 183.336L159.171 185.772C159.211 186.585 159.248 187.395 159.294 188.208C159.34 189.02 159.404 189.822 159.439 190.642C159.474 191.462 159.528 192.32 159.572 193.159C159.616 193.998 159.651 194.784 159.685 195.583L159.81 198.021L159.935 200.456L160.058 202.889L160.181 205.325L160.305 207.76L160.428 210.196C160.469 211.006 160.515 211.819 160.554 212.631C160.593 213.442 160.629 214.249 160.668 215.094L141.915 227.245C141.844 227.94 142.76 246.215 142.894 247.024C143.035 247.145 143.156 247.057 143.27 246.983C143.459 246.86 143.646 246.739 143.837 246.615C155.115 239.308 166.394 232.001 177.674 224.693C178.641 224.066 178.574 224.294 178.513 223.097L176.371 181.02C176.357 180.742 176.333 180.464 176.308 180.137L176.313 180.134ZM197.641 211.684C197.647 211.621 197.65 211.557 197.647 211.493L195.511 169.49C195.499 169.415 195.479 169.341 195.45 169.271C195.277 169.158 195.17 169.287 195.061 169.351C194.865 169.462 194.683 169.596 194.496 169.717L178.643 179.988C179.361 194.068 180.079 208.127 180.798 222.163C180.812 222.262 180.838 222.36 180.874 222.454C180.97 222.457 181.033 222.482 181.072 222.46C181.906 222.004 197.121 212.105 197.636 211.687L197.641 211.684Z" fill="#D7D8DD"/>
</g>
<g clip-path="url(#clip4_1321_2210)">
<path d="M88.7773 356.101C88.7516 356.113 88.7243 356.121 88.6964 356.126C88.6693 356.128 88.642 356.128 88.615 356.125C87.7282 355.763 27.4177 324.965 26.854 324.571L23.3396 255.454C23.3879 255.384 23.4425 255.318 23.5028 255.258C23.6627 255.142 23.8247 255.03 23.9889 254.924C43.1624 242.501 62.339 230.085 81.5187 217.675C81.5438 217.663 81.571 217.656 81.5989 217.654C81.6208 217.64 81.6563 217.652 81.7428 217.645C82.0172 217.78 82.3478 217.943 82.6682 218.11L133.387 243.986C136.437 245.548 139.483 247.103 142.528 248.652C143.56 249.185 143.419 248.942 143.491 250.172C143.541 251.213 143.589 252.25 143.647 253.28C144.742 274.702 145.834 296.124 146.924 317.544C146.936 317.824 146.939 318.103 146.945 318.339C146.902 318.4 146.852 318.455 146.796 318.504C127.718 330.865 108.642 343.231 89.5679 355.601C89.3164 355.777 89.0498 355.934 88.7773 356.101ZM28.1138 304.172C28.2944 307.984 28.4865 311.792 28.6899 315.597L29.035 322.316C29.0504 322.455 29.057 322.596 29.0549 322.736C29.0413 322.89 29.0795 323.044 29.1634 323.173C29.2473 323.303 29.372 323.401 29.5178 323.451C30.6974 324.038 31.8577 324.654 33.0401 325.245L86.4566 352.495C86.7396 352.682 87.0527 352.818 87.3821 352.897C87.4161 352.801 87.4679 352.726 87.4631 352.651C87.1373 346.127 86.8101 339.6 86.471 332.987C67.021 323.069 47.6001 313.163 28.2084 303.268C28.0777 303.55 28.0444 303.868 28.1138 304.172ZM96.9749 324.764C99.4665 323.15 101.963 321.532 104.465 319.911C104.72 319.746 104.97 319.568 105.255 319.372L104.259 299.875C104.248 299.781 104.229 299.689 104.202 299.599C104.004 299.491 103.895 299.608 103.785 299.673C103.62 299.78 103.455 299.887 103.29 299.994C92.3888 307.057 81.4866 314.12 70.5837 321.184L69.7901 321.699C69.8898 321.852 69.9149 321.93 69.9482 321.943C75.7588 324.918 81.5632 327.887 87.3614 330.849C87.7621 330.827 88.0102 330.579 88.2872 330.399C91.1922 328.514 94.0781 326.638 96.9749 324.764ZM36.1381 296.535L30.0616 300.472C29.8043 300.639 29.5493 300.804 29.3182 300.972C29.3523 301.309 29.612 301.344 29.7982 301.439C31.3648 302.251 32.9358 303.054 34.5114 303.847C45.1647 309.287 55.8198 314.724 66.4766 320.159C66.7242 320.286 66.9769 320.406 67.2476 320.54C67.4569 320.429 67.6564 320.337 67.8447 320.218C73.0463 316.848 78.2493 313.477 83.4538 310.105C83.6319 309.99 83.7872 309.839 83.97 309.693C83.9106 309.612 83.8398 309.54 83.7599 309.479C71.1813 303.063 58.6219 296.657 46.0817 290.261C45.7471 290.312 45.4343 290.458 45.181 290.682C42.1624 292.63 39.1481 294.581 36.1381 296.535ZM87.2212 307.667C91.2004 305.089 95.1797 302.511 99.1589 299.933C100.545 299.035 101.938 298.132 103.336 297.227C103.593 297.06 103.84 296.881 104.061 296.732C104.134 296.035 103.191 276.716 103.03 275.432C102.855 275.161 102.545 275.078 102.276 274.943C97.7235 272.618 93.1761 270.3 88.6341 267.988C87.3334 267.326 86.034 266.665 84.7357 266.004C84.4882 265.877 84.2346 265.76 83.9595 265.629C83.1306 266.06 66.7509 276.704 66.2565 277.121C66.1936 277.814 67.2011 297.69 67.3469 298.489L86.3478 308.174C86.6464 308.009 86.9398 307.85 87.219 307.669L87.2212 307.667ZM25.737 257.478L27.7944 298.042C27.8094 298.345 27.8375 298.639 27.8714 299.048C28.6369 298.683 44.1053 288.661 44.694 288.148C43.9806 274.2 43.2679 260.216 42.556 246.197C42.5383 246.038 42.5125 245.881 42.4786 245.726C42.3417 245.764 42.2076 245.811 42.0771 245.867C41.9037 245.961 41.7473 246.081 41.5824 246.188C36.5655 249.438 31.5479 252.689 26.5296 255.94C25.5995 256.552 25.6766 256.378 25.7348 257.479L25.737 257.478ZM80.4148 221.068C80.085 221.282 79.8385 221.408 79.6077 221.557L45.404 243.718C44.7884 244.117 44.784 244.12 44.8236 244.874C45.0765 249.861 45.3304 254.845 45.5853 259.828L46.9751 287.126C46.9879 287.43 47.0138 287.725 47.0441 288.018C47.6889 288.493 60.6713 295.185 64.3985 296.978C64.5191 297.034 64.6502 297.068 64.805 297.124C64.9099 296.851 64.9339 296.553 64.8743 296.267C64.7421 293.494 64.6026 290.722 64.4558 287.951C64.3195 285.262 64.1825 282.572 64.0448 279.884L62.7126 254.178C62.6952 253.843 62.6909 253.509 62.679 253.139L81.5155 240.934L80.5356 221.496C80.5049 221.351 80.4638 221.209 80.4126 221.07L80.4148 221.068ZM100.486 252.047C100.481 252.008 100.473 251.969 100.461 251.932C100.453 251.907 100.438 251.884 100.419 251.866C100.274 251.782 100.129 251.694 99.9808 251.619C94.2889 248.711 88.5963 245.807 82.9981 242.958C82.8624 242.946 82.837 242.94 82.8101 242.942C82.7817 242.948 82.7541 242.957 82.7284 242.97C82.636 243.03 82.5287 243.071 82.4363 243.131C76.7365 246.824 71.0366 250.517 65.3367 254.21C65.2715 254.259 65.2105 254.313 65.1544 254.372C65.0867 254.99 65.9852 273.152 66.1272 274.18C66.268 274.301 66.3855 274.203 66.5005 274.135C66.6874 274.014 66.8786 273.89 67.0655 273.769C77.9464 266.719 88.8259 259.67 99.7039 252.622C99.9884 252.472 100.249 252.28 100.477 252.053L100.486 252.047ZM142.219 270.196L141.224 250.551L83.1773 220.958C83.1124 220.925 83.0235 220.942 82.9306 220.934C82.8923 221.011 82.8669 221.094 82.8555 221.179C83.1806 227.698 83.5027 234.222 83.8356 240.652L83.9367 240.808C83.9534 240.83 83.9744 240.85 83.9984 240.864C90.2296 244.058 96.4663 247.25 102.709 250.438C115.792 257.107 128.875 263.772 141.959 270.436C141.986 270.443 142.013 270.446 142.04 270.445C142.069 270.446 142.095 270.438 142.139 270.434C142.167 270.348 142.222 270.268 142.219 270.196ZM141.028 272.693C140.81 272.472 140.544 272.305 140.25 272.205C137.23 270.657 134.209 269.113 131.187 267.573L103.919 253.665C102.901 253.145 103.118 253.142 102.195 253.74C97.1557 257.005 92.1168 260.269 87.0779 263.534C86.8006 263.661 86.555 263.848 86.3587 264.081C86.5073 264.388 86.8074 264.437 87.052 264.568C90.6411 266.405 94.2346 268.238 97.8325 270.069C106.372 274.423 114.913 278.773 123.456 283.12C124.473 283.641 124.243 283.684 125.266 283.024C130.257 279.791 135.249 276.556 140.242 273.321C140.544 273.171 140.81 272.958 141.023 272.696L141.028 272.693ZM123.268 285.667L105.819 276.768C105.697 276.725 105.572 276.694 105.445 276.673C105.348 277.516 105.478 278.319 105.509 279.129C105.541 279.938 105.587 280.751 105.632 281.562L105.753 283.999L105.877 286.435L106.002 288.869L106.126 291.305C106.166 292.119 106.204 292.928 106.25 293.741C106.296 294.554 106.359 295.355 106.394 296.175C106.429 296.995 106.483 297.853 106.527 298.693C106.571 299.532 106.606 300.317 106.64 301.116L106.765 303.554L106.89 305.989L107.013 308.422L107.136 310.858L107.26 313.294L107.383 315.729C107.424 316.539 107.47 317.352 107.509 318.164C107.548 318.975 107.584 319.782 107.623 320.628L88.87 332.778C88.7992 333.473 89.715 351.748 89.849 352.557C89.9899 352.678 90.1109 352.59 90.2252 352.516C90.4143 352.394 90.6011 352.273 90.7924 352.149C102.071 344.842 113.349 337.534 124.629 330.226C125.596 329.599 125.529 329.827 125.468 328.63L123.327 286.553C123.312 286.275 123.288 285.998 123.263 285.67L123.268 285.667ZM144.596 317.218C144.602 317.154 144.605 317.09 144.602 317.026L142.466 275.024C142.454 274.948 142.434 274.874 142.405 274.804C142.232 274.691 142.125 274.82 142.016 274.884C141.82 274.995 141.638 275.129 141.451 275.25L125.598 285.521C126.316 299.602 127.035 313.66 127.753 327.696C127.768 327.796 127.793 327.893 127.829 327.987C127.925 327.99 127.988 328.015 128.027 327.993C128.861 327.537 144.076 317.639 144.591 317.22L144.596 317.218Z" fill="#D7D8DD"/>
</g>
<g clip-path="url(#clip5_1321_2210)">
<path d="M207.007 349.731C206.981 349.743 206.954 349.751 206.926 349.755C206.899 349.758 206.871 349.758 206.844 349.755C205.957 349.393 145.647 318.594 145.083 318.201L141.569 249.084C141.617 249.014 141.672 248.948 141.732 248.888C141.892 248.772 142.054 248.66 142.218 248.554C161.392 236.131 180.568 223.715 199.748 211.305C199.773 211.293 199.8 211.286 199.828 211.284C199.85 211.27 199.886 211.281 199.972 211.275C200.246 211.41 200.577 211.573 200.897 211.74L251.617 237.616C254.666 239.178 257.713 240.733 260.757 242.282C261.789 242.815 261.648 242.572 261.72 243.802C261.771 244.843 261.818 245.88 261.877 246.909C262.972 268.332 264.064 289.754 265.153 311.174C265.165 311.454 265.168 311.733 265.175 311.969C265.132 312.03 265.082 312.085 265.026 312.134C245.947 324.495 226.871 336.861 207.797 349.231C207.546 349.407 207.279 349.564 207.007 349.731ZM146.343 297.802C146.524 301.613 146.716 305.422 146.919 309.227L147.264 315.945C147.28 316.085 147.286 316.226 147.284 316.366C147.271 316.52 147.309 316.674 147.393 316.803C147.477 316.933 147.601 317.03 147.747 317.081C148.927 317.668 150.087 318.284 151.269 318.875L204.686 346.125C204.969 346.311 205.282 346.448 205.611 346.527C205.645 346.43 205.697 346.356 205.692 346.281C205.367 339.757 205.039 333.23 204.7 326.617C185.25 316.699 165.829 306.793 146.438 296.898C146.307 297.18 146.274 297.498 146.343 297.802ZM215.204 318.394C217.696 316.78 220.192 315.162 222.694 313.541C222.949 313.376 223.199 313.198 223.484 313.001L222.488 293.505C222.478 293.411 222.459 293.319 222.431 293.229C222.233 293.121 222.125 293.238 222.014 293.303C221.849 293.41 221.684 293.517 221.52 293.623C210.618 300.687 199.716 307.75 188.813 314.814L188.019 315.328C188.119 315.482 188.144 315.56 188.177 315.572C193.988 318.548 199.792 321.517 205.591 324.479C205.991 324.457 206.239 324.209 206.516 324.029C209.421 322.144 212.307 320.268 215.204 318.394ZM154.367 290.165L148.291 294.102C148.034 294.269 147.779 294.434 147.547 294.602C147.582 294.939 147.841 294.974 148.027 295.069C149.594 295.881 151.165 296.683 152.741 297.477C163.394 302.917 174.049 308.354 184.706 313.789C184.953 313.916 185.206 314.036 185.477 314.17C185.686 314.059 185.886 313.967 186.074 313.848C191.276 310.478 196.479 307.107 201.683 303.735C201.861 303.62 202.016 303.469 202.199 303.323C202.14 303.242 202.069 303.17 201.989 303.109C189.411 296.693 176.851 290.287 164.311 283.891C163.976 283.941 163.664 284.088 163.41 284.312C160.392 286.26 157.377 288.211 154.367 290.165ZM205.45 301.297C209.43 298.719 213.409 296.141 217.388 293.563C218.775 292.664 220.167 291.762 221.565 290.856C221.822 290.69 222.069 290.511 222.29 290.362C222.363 289.665 221.42 270.346 221.259 269.062C221.084 268.791 220.774 268.708 220.506 268.573C215.953 266.248 211.405 263.929 206.863 261.618C205.563 260.956 204.263 260.295 202.965 259.633C202.717 259.507 202.464 259.39 202.189 259.259C201.36 259.69 184.98 270.334 184.486 270.751C184.423 271.444 185.43 291.32 185.576 292.119L204.577 301.804C204.876 301.639 205.169 301.48 205.448 301.299L205.45 301.297ZM143.966 251.108L146.024 291.672C146.039 291.975 146.067 292.269 146.101 292.677C146.866 292.313 162.335 282.291 162.923 281.778C162.21 267.83 161.497 253.846 160.785 239.827C160.768 239.668 160.742 239.511 160.708 239.355C160.571 239.394 160.437 239.441 160.306 239.497C160.133 239.591 159.977 239.711 159.812 239.817C154.795 243.068 149.777 246.319 144.759 249.57C143.829 250.182 143.906 250.007 143.964 251.109L143.966 251.108ZM198.644 214.698C198.314 214.912 198.068 215.037 197.837 215.187L163.633 237.348C163.018 237.747 163.013 237.749 163.053 238.504C163.306 243.49 163.56 248.475 163.815 253.458L165.204 280.756C165.217 281.06 165.243 281.355 165.273 281.647C165.918 282.122 178.901 288.815 182.628 290.608C182.748 290.664 182.879 290.698 183.034 290.753C183.139 290.481 183.163 290.183 183.104 289.897C182.971 287.123 182.832 284.352 182.685 281.581C182.549 278.892 182.412 276.202 182.274 273.514L180.942 247.808C180.924 247.473 180.92 247.138 180.908 246.768L199.745 234.564L198.765 215.126C198.734 214.981 198.693 214.839 198.642 214.7L198.644 214.698ZM218.715 245.677C218.711 245.638 218.702 245.599 218.691 245.562C218.682 245.537 218.667 245.514 218.648 245.496C218.503 245.412 218.359 245.324 218.21 245.249C212.518 242.341 206.826 239.437 201.227 236.588C201.092 236.576 201.066 236.57 201.039 236.572C201.011 236.577 200.983 236.587 200.958 236.6C200.865 236.66 200.758 236.701 200.666 236.761C194.966 240.454 189.266 244.147 183.566 247.84C183.501 247.889 183.44 247.943 183.384 248.002C183.316 248.62 184.214 266.782 184.356 267.81C184.497 267.931 184.615 267.833 184.73 267.765C184.917 267.644 185.108 267.52 185.295 267.399C196.176 260.349 207.055 253.3 217.933 246.252C218.218 246.102 218.478 245.91 218.706 245.683L218.715 245.677ZM260.448 263.826L259.454 244.181L201.407 214.588C201.342 214.555 201.253 214.572 201.16 214.563C201.122 214.641 201.096 214.723 201.085 214.809C201.41 221.328 201.732 227.852 202.065 234.281L202.166 234.438C202.183 234.46 202.204 234.48 202.228 234.494C208.459 237.688 214.696 240.88 220.938 244.068C234.021 250.736 247.104 257.402 260.188 264.066C260.215 264.073 260.242 264.076 260.27 264.075C260.298 264.076 260.324 264.068 260.369 264.064C260.397 263.977 260.451 263.898 260.448 263.826ZM259.257 266.323C259.039 266.102 258.773 265.935 258.479 265.835C255.459 264.287 252.439 262.743 249.416 261.203L222.148 247.295C221.131 246.774 221.347 246.771 220.424 247.37C215.385 250.634 210.346 253.899 205.307 257.164C205.03 257.291 204.784 257.478 204.588 257.711C204.737 258.017 205.037 258.066 205.281 258.198C208.87 260.035 212.464 261.868 216.062 263.699C224.601 268.053 233.142 272.403 241.685 276.75C242.703 277.271 242.472 277.314 243.496 276.654C248.486 273.421 253.478 270.186 258.471 266.951C258.773 266.8 259.04 266.587 259.253 266.326L259.257 266.323ZM241.497 279.297L224.048 270.398C223.926 270.355 223.801 270.323 223.674 270.303C223.577 271.146 223.707 271.949 223.739 272.758C223.77 273.568 223.816 274.381 223.861 275.192L223.982 277.629L224.106 280.065L224.232 282.499L224.355 284.935C224.395 285.748 224.433 286.558 224.479 287.371C224.525 288.184 224.588 288.985 224.623 289.805C224.658 290.625 224.712 291.483 224.756 292.322C224.8 293.161 224.835 293.947 224.869 294.746L224.994 297.184L225.12 299.619L225.242 302.052L225.365 304.488L225.489 306.924L225.613 309.359C225.654 310.169 225.7 310.982 225.738 311.794C225.777 312.605 225.813 313.412 225.852 314.258L207.099 326.408C207.028 327.103 207.944 345.378 208.078 346.187C208.219 346.308 208.34 346.22 208.454 346.146C208.644 346.024 208.83 345.902 209.022 345.779C220.3 338.471 231.579 331.164 242.858 323.856C243.826 323.229 243.758 323.457 243.697 322.26L241.556 280.183C241.541 279.905 241.517 279.627 241.492 279.3L241.497 279.297ZM262.825 310.847C262.832 310.784 262.834 310.72 262.832 310.656L260.695 268.653C260.684 268.578 260.663 268.504 260.634 268.434C260.461 268.321 260.354 268.45 260.246 268.514C260.049 268.625 259.868 268.759 259.681 268.88L243.828 279.151C244.546 293.231 245.264 307.29 245.982 321.326C245.997 321.425 246.022 321.523 246.058 321.617C246.154 321.62 246.217 321.645 246.256 321.623C247.09 321.167 262.305 311.269 262.82 310.85L262.825 310.847Z" fill="#D7D8DD"/>
</g>
<g clip-path="url(#clip6_1321_2210)">
<path d="M196.172 145.124C196.146 145.135 196.119 145.144 196.091 145.148C196.064 145.151 196.036 145.151 196.009 145.148C195.122 144.786 134.812 113.987 134.248 113.594L130.734 44.4764C130.782 44.4062 130.837 44.3405 130.897 44.2802C131.057 44.1641 131.219 44.0529 131.383 43.9465C150.557 31.5239 169.733 19.1076 188.913 6.69763C188.938 6.68558 188.965 6.67853 188.993 6.67689C189.015 6.66264 189.051 6.67401 189.137 6.66788C189.411 6.80226 189.742 6.96572 190.063 7.13267L240.782 33.0088C243.831 34.5707 246.878 36.1258 249.922 37.6741C250.954 38.2072 250.813 37.9648 250.885 39.1944C250.936 40.2356 250.983 41.2724 251.042 42.302C252.137 63.7249 253.229 85.1465 254.318 106.567C254.33 106.846 254.333 107.125 254.34 107.361C254.297 107.422 254.247 107.478 254.191 107.527C235.112 119.887 216.036 132.253 196.962 144.624C196.711 144.799 196.444 144.956 196.172 145.124ZM135.508 93.1943C135.689 97.006 135.881 100.814 136.084 104.62L136.429 111.338C136.445 111.478 136.451 111.618 136.449 111.759C136.436 111.913 136.474 112.066 136.558 112.196C136.642 112.325 136.766 112.423 136.912 112.473C138.092 113.061 139.252 113.676 140.434 114.268L193.851 141.518C194.134 141.704 194.447 141.84 194.776 141.92C194.81 141.823 194.862 141.749 194.857 141.674C194.532 135.149 194.204 128.622 193.865 122.009C174.415 112.092 154.994 102.185 135.603 92.2902C135.472 92.5728 135.439 92.8908 135.508 93.1943ZM204.369 113.787C206.861 112.172 209.357 110.555 211.859 108.934C212.114 108.769 212.364 108.591 212.649 108.394L211.653 88.8972C211.643 88.8039 211.624 88.7117 211.597 88.6218C211.398 88.5131 211.29 88.6302 211.179 88.6956C211.014 88.8024 210.849 88.9092 210.685 89.0161C199.783 96.0792 188.881 103.143 177.978 110.207L177.184 110.721C177.284 110.875 177.309 110.952 177.342 110.965C183.153 113.94 188.958 116.909 194.756 119.872C195.156 119.849 195.405 119.601 195.682 119.422C198.586 117.536 201.472 115.66 204.369 113.787ZM143.532 85.5575L137.456 89.4946C137.199 89.6612 136.944 89.8264 136.713 89.9949C136.747 90.3318 137.006 90.3664 137.193 90.4611C138.759 91.2732 140.33 92.0761 141.906 92.8698C152.559 98.3092 163.214 103.746 173.871 109.182C174.118 109.308 174.371 109.429 174.642 109.562C174.851 109.452 175.051 109.36 175.239 109.241C180.441 105.871 185.644 102.5 190.848 99.1277C191.026 99.0123 191.181 98.8617 191.364 98.7152C191.305 98.6343 191.234 98.5624 191.154 98.5017C178.576 92.0852 166.016 85.6792 153.476 79.2836C153.141 79.3341 152.829 79.4804 152.575 79.7048C149.557 81.6523 146.542 83.6032 143.532 85.5575ZM194.616 96.6899C198.595 94.1117 202.574 91.5335 206.553 88.9554C207.94 88.0571 209.332 87.1549 210.73 86.249C210.987 86.0824 211.234 85.904 211.455 85.7543C211.528 85.0577 210.586 65.7388 210.424 64.4543C210.249 64.1839 209.939 64.1006 209.671 63.9656C205.118 61.6404 200.57 59.322 196.028 57.0106C194.728 56.3488 193.428 55.6873 192.13 55.026C191.882 54.8992 191.629 54.7826 191.354 54.6518C190.525 55.0827 174.145 65.7264 173.651 66.1436C173.588 66.8366 174.595 86.7129 174.741 87.5112L193.742 97.1965C194.041 97.0311 194.334 96.8722 194.613 96.6913L194.616 96.6899ZM133.131 46.5002L135.189 87.0649C135.204 87.3674 135.232 87.6613 135.266 88.0701C136.031 87.7052 151.5 77.6831 152.088 77.1706C151.375 63.2226 150.662 49.2388 149.95 35.2192C149.933 35.0609 149.907 34.9037 149.873 34.7481C149.736 34.7863 149.602 34.8335 149.471 34.8896C149.298 34.9832 149.142 35.1032 148.977 35.2101C143.96 38.4605 138.942 41.7115 133.924 44.9629C132.994 45.5749 133.071 45.4001 133.129 46.5016L133.131 46.5002ZM187.809 10.0909C187.479 10.3046 187.233 10.43 187.002 10.5795L152.798 32.7403C152.183 33.1391 152.178 33.142 152.218 33.8967C152.471 38.883 152.725 43.8677 152.98 48.8507L154.369 76.1484C154.382 76.4522 154.408 76.7476 154.438 77.0401C155.083 77.515 168.066 84.2078 171.793 86.0005C171.913 86.0565 172.044 86.0902 172.199 86.146C172.304 85.8731 172.328 85.5758 172.269 85.2895C172.136 82.5161 171.997 79.7442 171.85 76.9739C171.714 74.2842 171.577 71.595 171.439 68.9062L170.107 43.2005C170.09 42.8653 170.085 42.531 170.073 42.161L188.91 29.9568L187.93 10.5183C187.899 10.3735 187.858 10.2312 187.807 10.0924L187.809 10.0909ZM207.88 41.0695C207.876 41.0304 207.867 40.9919 207.856 40.9543C207.847 40.9292 207.832 40.9066 207.813 40.8884C207.668 40.8044 207.524 40.7168 207.375 40.6414C201.683 37.7338 195.991 34.8299 190.392 31.9802C190.257 31.9682 190.231 31.9628 190.204 31.9646C190.176 31.97 190.148 31.9795 190.123 31.9926C190.03 32.0525 189.923 32.0939 189.831 32.1537C184.131 35.8467 178.431 39.5397 172.731 43.2327C172.666 43.2814 172.605 43.3355 172.549 43.3945C172.481 44.0127 173.379 62.1742 173.521 63.2028C173.662 63.3238 173.78 63.2258 173.895 63.1575C174.082 63.0365 174.273 62.9125 174.46 62.7915C185.341 55.7416 196.22 48.6928 207.098 41.6449C207.383 41.4942 207.643 41.3022 207.871 41.0752L207.88 41.0695ZM249.613 59.2181L248.619 39.5738L190.572 9.98035C190.507 9.94752 190.418 9.96452 190.325 9.95604C190.287 10.0331 190.261 10.116 190.25 10.2014C190.575 16.7203 190.897 23.2443 191.23 29.674L191.331 29.8301C191.348 29.8528 191.369 29.8721 191.393 29.8869C197.624 33.0808 203.861 36.2721 210.103 39.4608C223.186 46.129 236.269 52.7948 249.353 59.4581C249.38 59.4656 249.407 59.4689 249.435 59.4679C249.463 59.4683 249.489 59.4606 249.534 59.4569C249.562 59.37 249.617 59.2908 249.613 59.2181ZM248.422 61.7158C248.204 61.4945 247.938 61.3273 247.644 61.2275C244.625 59.6796 241.604 58.1357 238.581 56.5959L211.313 42.6875C210.296 42.167 210.512 42.1641 209.589 42.7623C204.55 46.027 199.511 49.2917 194.472 52.5565C194.195 52.6833 193.949 52.8702 193.753 53.1036C193.902 53.41 194.202 53.459 194.446 53.5908C198.035 55.4272 201.629 57.2607 205.227 59.0914C213.766 63.4452 222.307 67.7956 230.85 72.1427C231.868 72.6632 231.637 72.7066 232.661 72.0465C237.651 68.8131 242.643 65.5788 247.637 62.3435C247.938 62.193 248.205 61.98 248.418 61.7187L248.422 61.7158ZM230.662 74.6898L213.213 65.7907C213.092 65.7478 212.966 65.716 212.839 65.6957C212.742 66.5388 212.872 67.3412 212.904 68.151C212.935 68.9609 212.981 69.7738 213.026 70.5845L213.147 73.0217L213.271 75.4574L213.397 77.8917L213.52 80.3275C213.56 81.1411 213.598 81.9502 213.644 82.7632C213.69 83.5761 213.753 84.3777 213.788 85.1978C213.824 86.0178 213.877 86.8759 213.921 87.715C213.965 88.554 214 89.34 214.034 90.1389L214.159 92.5769L214.285 95.0112L214.407 97.4447L214.531 99.8804L214.654 102.316L214.778 104.752C214.819 105.562 214.865 106.375 214.903 107.186C214.942 107.998 214.978 108.805 215.017 109.65L196.264 121.8C196.193 122.495 197.109 140.77 197.243 141.58C197.384 141.701 197.505 141.613 197.619 141.539C197.809 141.416 197.995 141.295 198.187 141.171C209.465 133.864 220.744 126.556 232.023 119.248C232.991 118.622 232.923 118.85 232.862 117.653L230.721 75.5756C230.706 75.2979 230.682 75.02 230.658 74.6927L230.662 74.6898ZM251.99 106.24C251.997 106.176 251.999 106.112 251.997 106.048L249.86 64.046C249.849 63.9706 249.828 63.8969 249.799 63.8265C249.626 63.7138 249.519 63.8424 249.411 63.9064C249.215 64.0179 249.033 64.1514 248.846 64.2725L232.993 74.5438C233.711 88.6241 234.429 102.682 235.147 116.718C235.162 116.818 235.187 116.916 235.223 117.009C235.319 117.013 235.382 117.038 235.421 117.016C236.255 116.559 251.47 106.661 251.986 106.243L251.99 106.24Z" fill="#D7D8DD"/>
</g>
<g clip-path="url(#clip7_1321_2210)">
<path d="M260.27 244.054C260.244 244.066 260.217 244.074 260.189 244.079C260.162 244.081 260.135 244.081 260.108 244.078C259.221 243.716 198.911 212.918 198.347 212.525L194.833 143.407C194.881 143.337 194.935 143.271 194.996 143.211C195.156 143.095 195.318 142.984 195.482 142.877C214.655 130.455 233.832 118.038 253.012 105.628C253.037 105.616 253.064 105.609 253.092 105.608C253.114 105.593 253.149 105.605 253.236 105.599C253.51 105.733 253.841 105.896 254.161 106.063L304.88 131.939C307.93 133.501 310.976 135.056 314.021 136.605C315.053 137.138 314.912 136.895 314.984 138.125C315.034 139.166 315.082 140.203 315.14 141.233C316.235 162.656 317.327 184.077 318.417 205.498C318.429 205.777 318.432 206.056 318.438 206.292C318.395 206.353 318.345 206.408 318.289 206.457C299.211 218.818 280.135 231.184 261.061 243.555C260.809 243.73 260.543 243.887 260.27 244.054ZM199.607 192.125C199.787 195.937 199.979 199.745 200.183 203.55L200.528 210.269C200.543 210.408 200.55 210.549 200.548 210.69C200.534 210.843 200.572 210.997 200.656 211.127C200.74 211.256 200.865 211.354 201.011 211.404C202.19 211.991 203.351 212.607 204.533 213.198L257.95 240.448C258.233 240.635 258.546 240.771 258.875 240.851C258.909 240.754 258.961 240.68 258.956 240.605C258.63 234.08 258.303 227.553 257.964 220.94C238.514 211.022 219.093 201.116 199.701 191.221C199.571 191.503 199.537 191.821 199.607 192.125ZM268.468 212.717C270.959 211.103 273.456 209.485 275.958 207.864C276.213 207.699 276.463 207.522 276.748 207.325L275.752 187.828C275.741 187.735 275.722 187.642 275.695 187.552C275.497 187.444 275.388 187.561 275.278 187.626C275.113 187.733 274.948 187.84 274.783 187.947C263.882 195.01 252.98 202.073 242.077 209.137L241.283 209.652C241.383 209.806 241.408 209.883 241.441 209.896C247.252 212.871 253.056 215.84 258.854 218.802C259.255 218.78 259.503 218.532 259.78 218.352C262.685 216.467 265.571 214.591 268.468 212.717ZM207.631 184.488L201.554 188.425C201.297 188.592 201.042 188.757 200.811 188.926C200.845 189.262 201.105 189.297 201.291 189.392C202.858 190.204 204.429 191.007 206.004 191.8C216.658 197.24 227.313 202.677 237.97 208.112C238.217 208.239 238.47 208.359 238.741 208.493C238.95 208.382 239.149 208.29 239.338 208.172C244.539 204.801 249.742 201.43 254.947 198.058C255.125 197.943 255.28 197.792 255.463 197.646C255.404 197.565 255.333 197.493 255.253 197.432C242.674 191.016 230.115 184.61 217.575 178.214C217.24 178.265 216.927 178.411 216.674 178.635C213.655 180.583 210.641 182.534 207.631 184.488ZM258.714 195.621C262.693 193.042 266.673 190.464 270.652 187.886C272.038 186.988 273.431 186.086 274.829 185.18C275.086 185.013 275.333 184.835 275.554 184.685C275.627 183.988 274.684 164.67 274.523 163.385C274.348 163.115 274.038 163.031 273.769 162.896C269.216 160.571 264.669 158.253 260.127 155.941C258.826 155.279 257.527 154.618 256.229 153.957C255.981 153.83 255.728 153.713 255.452 153.582C254.624 154.013 238.244 164.657 237.749 165.074C237.687 165.767 238.694 185.644 238.84 186.442L257.841 196.127C258.139 195.962 258.433 195.803 258.712 195.622L258.714 195.621ZM197.23 145.431L199.287 185.996C199.302 186.298 199.33 186.592 199.364 187.001C200.13 186.636 215.598 176.614 216.187 176.101C215.474 162.153 214.761 148.169 214.049 134.15C214.031 133.992 214.005 133.834 213.971 133.679C213.835 133.717 213.701 133.764 213.57 133.82C213.397 133.914 213.24 134.034 213.075 134.141C208.058 137.391 203.041 140.642 198.022 143.894C197.092 144.506 197.17 144.331 197.228 145.432L197.23 145.431ZM251.908 109.022C251.578 109.235 251.331 109.361 251.101 109.51L216.897 131.671C216.281 132.07 216.277 132.073 216.316 132.827C216.569 137.814 216.823 142.798 217.078 147.781L218.468 175.079C218.481 175.383 218.507 175.678 218.537 175.971C219.182 176.446 232.164 183.138 235.891 184.931C236.012 184.987 236.143 185.021 236.298 185.077C236.403 184.804 236.427 184.506 236.367 184.22C236.235 181.447 236.095 178.675 235.949 175.905C235.812 173.215 235.675 170.526 235.538 167.837L234.206 142.131C234.188 141.796 234.184 141.462 234.172 141.092L253.008 128.887L252.029 109.449C251.998 109.304 251.957 109.162 251.906 109.023L251.908 109.022ZM271.979 140C271.974 139.961 271.966 139.923 271.954 139.885C271.946 139.86 271.931 139.837 271.912 139.819C271.767 139.735 271.622 139.647 271.474 139.572C265.782 136.664 260.089 133.761 254.491 130.911C254.355 130.899 254.33 130.893 254.303 130.895C254.275 130.901 254.247 130.91 254.221 130.923C254.129 130.983 254.022 131.025 253.929 131.084C248.229 134.777 242.529 138.47 236.83 142.163C236.764 142.212 236.703 142.266 236.647 142.325C236.58 142.943 237.478 161.105 237.62 162.133C237.761 162.254 237.878 162.156 237.993 162.088C238.18 161.967 238.372 161.843 238.558 161.722C249.439 154.672 260.319 147.623 271.197 140.576C271.481 140.425 271.742 140.233 271.97 140.006L271.979 140ZM313.712 158.149L312.717 138.504L254.67 108.911C254.605 108.878 254.516 108.895 254.424 108.887C254.385 108.964 254.36 109.047 254.348 109.132C254.674 115.651 254.996 122.175 255.328 128.605L255.43 128.761C255.446 128.783 255.467 128.803 255.491 128.818C261.722 132.011 267.959 135.203 274.202 138.391C287.285 145.06 300.368 151.725 313.452 158.389C313.479 158.396 313.506 158.4 313.533 158.399C313.562 158.399 313.588 158.391 313.632 158.388C313.66 158.301 313.715 158.221 313.712 158.149ZM312.521 160.646C312.303 160.425 312.036 160.258 311.742 160.158C308.723 158.61 305.702 157.066 302.68 155.527L275.412 141.618C274.394 141.098 274.611 141.095 273.687 141.693C268.649 144.958 263.61 148.222 258.571 151.487C258.294 151.614 258.048 151.801 257.852 152.034C258 152.341 258.3 152.39 258.545 152.521C262.134 154.358 265.728 156.191 269.325 158.022C277.865 162.376 286.406 166.726 294.949 171.073C295.966 171.594 295.735 171.637 296.759 170.977C301.75 167.744 306.742 164.509 311.735 161.274C312.037 161.124 312.303 160.911 312.516 160.649L312.521 160.646ZM294.761 173.621L277.312 164.721C277.19 164.678 277.065 164.647 276.938 164.626C276.841 165.469 276.971 166.272 277.002 167.082C277.034 167.892 277.08 168.704 277.125 169.515L277.246 171.952L277.37 174.388L277.495 176.822L277.619 179.258C277.659 180.072 277.696 180.881 277.742 181.694C277.788 182.507 277.852 183.308 277.887 184.128C277.922 184.948 277.976 185.807 278.02 186.646C278.064 187.485 278.099 188.271 278.133 189.07L278.258 191.508L278.383 193.942L278.506 196.375L278.629 198.811L278.753 201.247L278.876 203.683C278.917 204.493 278.963 205.305 279.002 206.117C279.041 206.928 279.077 207.735 279.116 208.581L260.363 220.731C260.292 221.426 261.208 239.701 261.342 240.51C261.483 240.631 261.604 240.543 261.718 240.469C261.907 240.347 262.094 240.226 262.285 240.102C273.563 232.795 284.842 225.487 296.122 218.179C297.089 217.552 297.022 217.78 296.961 216.583L294.819 174.506C294.805 174.229 294.781 173.951 294.756 173.623L294.761 173.621ZM316.089 205.171C316.095 205.107 316.098 205.043 316.095 204.979L313.959 162.977C313.947 162.901 313.927 162.828 313.898 162.757C313.725 162.644 313.618 162.773 313.509 162.837C313.313 162.949 313.131 163.082 312.944 163.203L297.091 173.474C297.809 187.555 298.527 201.613 299.246 215.649C299.26 215.749 299.286 215.846 299.322 215.94C299.418 215.944 299.481 215.968 299.52 215.946C300.354 215.49 315.569 205.592 316.084 205.173L316.089 205.171Z" fill="#D7D8DD"/>
</g>
<g clip-path="url(#clip8_1321_2210)">
<path d="M313.496 139.193C313.47 139.205 313.443 139.213 313.415 139.217C313.388 139.22 313.36 139.22 313.333 139.217C312.447 138.855 252.136 108.056 251.572 107.663L248.058 38.5458C248.106 38.4756 248.161 38.4099 248.221 38.3496C248.381 38.2335 248.543 38.1222 248.707 38.0159C267.881 25.5932 287.057 13.1769 306.237 0.766969C306.262 0.754915 306.289 0.74787 306.317 0.746224C306.339 0.731978 306.375 0.743347 306.461 0.737212C306.736 0.871595 307.066 1.03505 307.387 1.20201L358.106 27.0781C361.155 28.64 364.202 30.1952 367.246 31.7435C368.278 32.2765 368.137 32.0342 368.21 33.2638C368.26 34.3049 368.307 35.3417 368.366 36.3713C369.461 57.7942 370.553 79.2159 371.642 100.636C371.654 100.915 371.657 101.194 371.664 101.431C371.621 101.491 371.571 101.547 371.515 101.596C352.436 113.957 333.36 126.323 314.286 138.693C314.035 138.869 313.768 139.026 313.496 139.193ZM252.832 87.2637C253.013 91.0754 253.205 94.8838 253.408 98.689L253.753 105.407C253.769 105.547 253.775 105.688 253.773 105.828C253.76 105.982 253.798 106.136 253.882 106.265C253.966 106.395 254.09 106.492 254.236 106.543C255.416 107.13 256.576 107.745 257.759 108.337L311.175 135.587C311.458 135.773 311.771 135.909 312.1 135.989C312.134 135.892 312.186 135.818 312.181 135.743C311.856 129.218 311.528 122.692 311.189 116.079C291.739 106.161 272.319 96.2546 252.927 86.3596C252.796 86.6421 252.763 86.9601 252.832 87.2637ZM321.693 107.856C324.185 106.242 326.682 104.624 329.183 103.003C329.438 102.838 329.689 102.66 329.973 102.463L328.977 82.9666C328.967 82.8732 328.948 82.781 328.921 82.6912C328.722 82.5825 328.614 82.6995 328.503 82.7649C328.338 82.8717 328.174 82.9786 328.009 83.0854C317.107 90.1485 306.205 97.2121 295.302 104.276L294.508 104.79C294.608 104.944 294.633 105.022 294.667 105.034C300.477 108.01 306.282 110.979 312.08 113.941C312.48 113.919 312.729 113.671 313.006 113.491C315.911 111.606 318.796 109.73 321.693 107.856ZM260.857 79.6269L254.78 83.5639C254.523 83.7306 254.268 83.8958 254.037 84.0642C254.071 84.4011 254.33 84.4357 254.517 84.5305C256.083 85.3425 257.654 86.1454 259.23 86.9391C269.883 92.3785 280.538 97.8158 291.195 103.251C291.443 103.378 291.695 103.498 291.966 103.632C292.175 103.521 292.375 103.429 292.563 103.31C297.765 99.9401 302.968 96.569 308.172 93.197C308.35 93.0816 308.506 92.9311 308.688 92.7845C308.629 92.7037 308.558 92.6318 308.478 92.571C295.9 86.1546 283.34 79.7485 270.8 73.3529C270.466 73.4034 270.153 73.5497 269.899 73.7741C266.881 75.7216 263.867 77.6725 260.857 79.6269ZM311.94 90.7592C315.919 88.181 319.898 85.6029 323.877 83.0247C325.264 82.1264 326.656 81.2243 328.054 80.3184C328.312 80.1517 328.558 79.9733 328.779 79.8236C328.853 79.127 327.91 59.8082 327.748 58.5236C327.573 58.2532 327.263 58.1699 326.995 58.0349C322.442 55.7097 317.894 53.3914 313.352 51.0799C312.052 50.4181 310.752 49.7566 309.454 49.0953C309.207 48.9686 308.953 48.8519 308.678 48.7211C307.849 49.1521 291.469 59.7958 290.975 60.2129C290.912 60.906 291.92 80.7822 292.065 81.5805L311.066 91.2658C311.365 91.1004 311.658 90.9415 311.937 90.7606L311.94 90.7592ZM250.455 40.5695L252.513 81.1342C252.528 81.4367 252.556 81.7306 252.59 82.1394C253.355 81.7745 268.824 71.7525 269.412 71.2399C268.699 57.292 267.986 43.3082 267.274 29.2885C267.257 29.1303 267.231 28.973 267.197 28.8174C267.06 28.8556 266.926 28.9029 266.795 28.9589C266.622 29.0526 266.466 29.1726 266.301 29.2794C261.284 32.5299 256.266 35.7808 251.248 39.0323C250.318 39.6442 250.395 39.4694 250.453 40.571L250.455 40.5695ZM305.133 4.16026C304.803 4.37392 304.557 4.4993 304.326 4.64886L270.122 26.8096C269.507 27.2085 269.502 27.2113 269.542 27.966C269.795 32.9524 270.049 37.937 270.304 42.92L271.694 70.2177C271.706 70.5216 271.732 70.8169 271.762 71.1094C272.407 71.5843 285.39 78.2771 289.117 80.0698C289.238 80.1259 289.369 80.1596 289.523 80.2154C289.628 79.9424 289.652 79.6451 289.593 79.3589C289.46 76.5854 289.321 73.8135 289.174 71.0433C289.038 68.3535 288.901 65.6643 288.763 62.9755L287.431 37.2698C287.414 36.9346 287.409 36.6004 287.397 36.2304L306.234 24.0261L305.254 4.58764C305.223 4.44288 305.182 4.30053 305.131 4.16169L305.133 4.16026ZM325.204 35.1388C325.2 35.0998 325.191 35.0612 325.18 35.0237C325.171 34.9986 325.156 34.976 325.137 34.9577C324.992 34.8737 324.848 34.7861 324.699 34.7108C319.007 31.8032 313.315 28.8992 307.716 26.0495C307.581 26.0376 307.555 26.0321 307.528 26.034C307.5 26.0394 307.473 26.0488 307.447 26.062C307.354 26.1218 307.247 26.1633 307.155 26.2231C301.455 29.9161 295.755 33.6091 290.055 37.302C289.99 37.3507 289.929 37.4049 289.873 37.4639C289.805 38.082 290.704 56.2436 290.846 57.2721C290.986 57.3931 291.104 57.2951 291.219 57.2269C291.406 57.1058 291.597 56.9819 291.784 56.8608C302.665 49.811 313.544 42.7621 324.422 35.7142C324.707 35.5635 324.967 35.3715 325.196 35.1445L325.204 35.1388ZM366.937 53.2875L365.943 33.6432L307.896 4.04968C307.831 4.01686 307.742 4.03386 307.649 4.02538C307.611 4.10248 307.585 4.18537 307.574 4.27071C307.899 10.7897 308.221 17.3137 308.554 23.7434L308.655 23.8995C308.672 23.9222 308.693 23.9414 308.717 23.9562C314.948 27.1501 321.185 30.3414 327.427 33.5302C340.51 40.1983 353.594 46.8641 366.678 53.5275C366.704 53.535 366.731 53.5383 366.759 53.5373C366.787 53.5376 366.813 53.53 366.858 53.5262C366.886 53.4394 366.941 53.3602 366.937 53.2875ZM365.746 55.7852C365.529 55.5639 365.262 55.3966 364.968 55.2969C361.949 53.7489 358.928 52.205 355.905 50.6652L328.637 36.7569C327.62 36.2364 327.836 36.2334 326.913 36.8316C321.874 40.0964 316.835 43.3611 311.796 46.6258C311.519 46.7527 311.273 46.9395 311.077 47.1729C311.226 47.4793 311.526 47.5283 311.77 47.6601C315.359 49.4965 318.953 51.3301 322.551 53.1608C331.09 57.5146 339.631 61.865 348.174 66.212C349.192 66.7325 348.961 66.776 349.985 66.1158C354.975 62.8824 359.967 59.6481 364.961 56.4128C365.262 56.2624 365.529 56.0494 365.742 55.788L365.746 55.7852ZM347.986 68.7592L330.537 59.86C330.416 59.8171 330.291 59.7853 330.163 59.765C330.067 60.6081 330.196 61.4105 330.228 62.2203C330.259 63.0302 330.305 63.8431 330.35 64.6539L330.471 67.091L330.595 69.5268L330.721 71.9611L330.844 74.3968C330.885 75.2104 330.922 76.0196 330.968 76.8325C331.014 77.6455 331.078 78.447 331.113 79.2671C331.148 80.0872 331.201 80.9452 331.245 81.7843C331.289 82.6234 331.324 83.4093 331.358 84.2083L331.483 86.6462L331.609 89.0805L331.731 91.514L331.855 93.9498L331.978 96.3855L332.102 98.8212C332.143 99.6312 332.189 100.444 332.228 101.256C332.266 102.067 332.302 102.874 332.341 103.719L313.588 115.87C313.518 116.565 314.433 134.84 314.567 135.649C314.708 135.77 314.829 135.682 314.944 135.608C315.133 135.485 315.32 135.364 315.511 135.24C326.789 127.933 338.068 120.626 349.347 113.318C350.315 112.691 350.247 112.919 350.186 111.722L348.045 69.6449C348.03 69.3672 348.006 69.0893 347.982 68.762L347.986 68.7592ZM369.314 100.309C369.321 100.246 369.323 100.182 369.321 100.118L367.184 58.1153C367.173 58.04 367.152 57.9663 367.123 57.8958C366.95 57.7831 366.843 57.9118 366.735 57.9757C366.539 58.0873 366.357 58.2207 366.17 58.3418L350.317 68.6132C351.035 82.6934 351.753 96.7516 352.471 110.788C352.486 110.887 352.511 110.985 352.548 111.079C352.643 111.082 352.706 111.107 352.745 111.085C353.579 110.629 368.794 100.73 369.31 100.312L369.314 100.309Z" fill="#D7D8DD"/>
</g>
<g clip-path="url(#clip9_1321_2210)">
<path d="M324.496 343.19C324.47 343.202 324.443 343.21 324.415 343.214C324.388 343.217 324.361 343.217 324.334 343.214C323.447 342.852 263.136 312.053 262.573 311.66L259.058 242.543C259.107 242.473 259.161 242.407 259.221 242.347C259.381 242.231 259.543 242.119 259.708 242.013C278.881 229.59 298.058 217.174 317.237 204.764C317.262 204.752 317.29 204.745 317.317 204.743C317.339 204.729 317.375 204.74 317.461 204.734C317.736 204.869 318.066 205.032 318.387 205.199L369.106 231.075C372.155 232.637 375.202 234.192 378.247 235.741C379.279 236.274 379.137 236.031 379.21 237.261C379.26 238.302 379.308 239.339 379.366 240.368C380.461 261.791 381.553 283.213 382.642 304.633C382.655 304.913 382.658 305.192 382.664 305.428C382.621 305.488 382.571 305.544 382.515 305.593C363.437 317.954 344.361 330.32 325.287 342.69C325.035 342.866 324.768 343.023 324.496 343.19ZM263.832 291.261C264.013 295.072 264.205 298.881 264.409 302.686L264.754 309.404C264.769 309.544 264.776 309.685 264.774 309.825C264.76 309.979 264.798 310.133 264.882 310.262C264.966 310.392 265.091 310.489 265.236 310.54C266.416 311.127 267.576 311.743 268.759 312.334L322.175 339.584C322.458 339.77 322.771 339.907 323.101 339.986C323.135 339.889 323.187 339.815 323.182 339.74C322.856 333.216 322.529 326.689 322.19 320.076C302.74 310.158 283.319 300.252 263.927 290.357C263.796 290.639 263.763 290.957 263.832 291.261ZM332.694 311.853C335.185 310.239 337.682 308.621 340.184 307C340.439 306.835 340.689 306.657 340.973 306.46L339.978 286.964C339.967 286.87 339.948 286.778 339.921 286.688C339.722 286.58 339.614 286.697 339.504 286.762C339.339 286.869 339.174 286.976 339.009 287.082C328.107 294.146 317.205 301.209 306.302 308.273L305.509 308.787C305.608 308.941 305.634 309.019 305.667 309.031C311.477 312.007 317.282 314.976 323.08 317.938C323.481 317.916 323.729 317.668 324.006 317.488C326.911 315.603 329.797 313.727 332.694 311.853ZM271.857 283.624L265.78 287.561C265.523 287.728 265.268 287.893 265.037 288.061C265.071 288.398 265.331 288.433 265.517 288.528C267.083 289.34 268.654 290.142 270.23 290.936C280.883 296.376 291.538 301.813 302.195 307.248C302.443 307.375 302.696 307.495 302.966 307.629C303.176 307.518 303.375 307.426 303.563 307.307C308.765 303.937 313.968 300.566 319.172 297.194C319.351 297.079 319.506 296.928 319.689 296.782C319.629 296.701 319.558 296.629 319.479 296.568C306.9 290.152 294.341 283.746 281.8 277.35C281.466 277.4 281.153 277.547 280.9 277.771C277.881 279.719 274.867 281.67 271.857 283.624ZM322.94 294.756C326.919 292.178 330.898 289.6 334.878 287.022C336.264 286.123 337.656 285.221 339.055 284.315C339.312 284.149 339.558 283.97 339.78 283.821C339.853 283.124 338.91 263.805 338.749 262.521C338.573 262.25 338.264 262.167 337.995 262.032C333.442 259.707 328.895 257.388 324.353 255.077C323.052 254.415 321.753 253.754 320.454 253.092C320.207 252.966 319.953 252.849 319.678 252.718C318.849 253.149 302.47 263.793 301.975 264.21C301.912 264.903 302.92 284.779 303.066 285.578L322.066 295.263C322.365 295.098 322.658 294.939 322.938 294.758L322.94 294.756ZM261.456 244.567L263.513 285.131C263.528 285.434 263.556 285.728 263.59 286.136C264.356 285.772 279.824 275.75 280.413 275.237C279.699 261.289 278.987 247.305 278.275 233.286C278.257 233.127 278.231 232.97 278.197 232.814C278.06 232.853 277.926 232.9 277.796 232.956C277.622 233.05 277.466 233.17 277.301 233.276C272.284 236.527 267.267 239.778 262.248 243.029C261.318 243.641 261.395 243.466 261.453 244.568L261.456 244.567ZM316.133 208.157C315.804 208.371 315.557 208.496 315.326 208.646L281.123 230.807C280.507 231.206 280.503 231.208 280.542 231.963C280.795 236.949 281.049 241.934 281.304 246.917L282.694 274.215C282.706 274.519 282.732 274.814 282.763 275.106C283.408 275.581 296.39 282.274 300.117 284.067C300.238 284.123 300.369 284.157 300.524 284.212C300.628 283.94 300.653 283.642 300.593 283.356C300.461 280.582 300.321 277.811 300.174 275.04C300.038 272.351 299.901 269.661 299.763 266.973L298.431 241.267C298.414 240.932 298.41 240.597 298.398 240.227L317.234 228.023L316.254 208.585C316.224 208.44 316.182 208.298 316.131 208.159L316.133 208.157ZM336.205 239.136C336.2 239.097 336.192 239.058 336.18 239.021C336.171 238.996 336.157 238.973 336.137 238.955C335.992 238.871 335.848 238.783 335.699 238.708C330.008 235.8 324.315 232.896 318.717 230.047C318.581 230.035 318.556 230.029 318.529 230.031C318.5 230.036 318.473 230.046 318.447 230.059C318.355 230.119 318.247 230.16 318.155 230.22C312.455 233.913 306.755 237.606 301.055 241.299C300.99 241.348 300.929 241.402 300.873 241.461C300.805 242.079 301.704 260.241 301.846 261.269C301.987 261.39 302.104 261.292 302.219 261.224C302.406 261.103 302.597 260.979 302.784 260.858C313.665 253.808 324.545 246.759 335.423 239.711C335.707 239.561 335.968 239.369 336.196 239.142L336.205 239.136ZM377.937 257.285L376.943 237.64L318.896 208.047C318.831 208.014 318.742 208.031 318.649 208.022C318.611 208.1 318.586 208.182 318.574 208.268C318.899 214.787 319.221 221.311 319.554 227.74L319.655 227.897C319.672 227.919 319.693 227.938 319.717 227.953C325.948 231.147 332.185 234.339 338.427 237.527C351.51 244.195 364.594 250.861 377.678 257.525C377.704 257.532 377.732 257.535 377.759 257.534C377.787 257.535 377.814 257.527 377.858 257.523C377.886 257.436 377.941 257.357 377.937 257.285ZM376.747 259.782C376.529 259.561 376.262 259.394 375.968 259.294C372.949 257.746 369.928 256.202 366.906 254.662L339.638 240.754C338.62 240.233 338.837 240.23 337.913 240.829C332.874 244.093 327.835 247.358 322.797 250.623C322.519 250.75 322.274 250.937 322.077 251.17C322.226 251.476 322.526 251.525 322.771 251.657C326.36 253.494 329.953 255.327 333.551 257.158C342.09 261.512 350.631 265.862 359.174 270.209C360.192 270.73 359.961 270.773 360.985 270.113C365.975 266.88 370.967 263.645 375.961 260.41C376.263 260.259 376.529 260.046 376.742 259.785L376.747 259.782ZM358.986 272.756L341.537 263.857C341.416 263.814 341.291 263.782 341.164 263.762C341.067 264.605 341.197 265.408 341.228 266.217C341.26 267.027 341.306 267.84 341.35 268.651L341.472 271.088L341.595 273.524L341.721 275.958L341.845 278.394C341.885 279.207 341.922 280.017 341.968 280.83C342.014 281.643 342.078 282.444 342.113 283.264C342.148 284.084 342.201 284.942 342.245 285.781C342.29 286.62 342.324 287.406 342.358 288.205L342.483 290.643L342.609 293.078L342.731 295.511L342.855 297.947L342.978 300.383L343.102 302.818C343.143 303.628 343.189 304.441 343.228 305.253C343.267 306.064 343.303 306.871 343.342 307.717L324.589 319.867C324.518 320.562 325.434 338.837 325.568 339.646C325.708 339.767 325.83 339.679 325.944 339.605C326.133 339.483 326.32 339.361 326.511 339.238C337.789 331.93 349.068 324.623 360.348 317.315C361.315 316.688 361.247 316.916 361.187 315.719L359.045 273.642C359.031 273.364 359.007 273.086 358.982 272.759L358.986 272.756ZM380.314 304.306C380.321 304.243 380.323 304.179 380.321 304.115L378.184 262.112C378.173 262.037 378.153 261.963 378.123 261.893C377.95 261.78 377.843 261.909 377.735 261.973C377.539 262.084 377.357 262.218 377.17 262.339L361.317 272.61C362.035 286.69 362.753 300.749 363.472 314.785C363.486 314.884 363.512 314.982 363.548 315.076C363.644 315.079 363.707 315.104 363.745 315.082C364.58 314.626 379.794 304.728 380.31 304.309L380.314 304.306Z" fill="#D7D8DD"/>
</g>
<g clip-path="url(#clip10_1321_2210)">
<path d="M378.496 238.19C378.47 238.202 378.443 238.21 378.415 238.214C378.388 238.217 378.361 238.217 378.334 238.214C377.447 237.852 317.136 207.053 316.573 206.66L313.058 137.543C313.107 137.473 313.161 137.407 313.221 137.347C313.381 137.231 313.543 137.119 313.708 137.013C332.881 124.59 352.058 112.174 371.237 99.764C371.262 99.752 371.29 99.7449 371.317 99.7433C371.339 99.729 371.375 99.7404 371.461 99.7343C371.736 99.8687 372.066 100.032 372.387 100.199L423.106 126.075C426.155 127.637 429.202 129.192 432.247 130.741C433.279 131.274 433.137 131.031 433.21 132.261C433.26 133.302 433.308 134.339 433.366 135.368C434.461 156.791 435.553 178.213 436.642 199.633C436.655 199.913 436.658 200.192 436.664 200.428C436.621 200.488 436.571 200.544 436.515 200.593C417.437 212.954 398.361 225.32 379.287 237.69C379.035 237.866 378.768 238.023 378.496 238.19ZM317.832 186.261C318.013 190.072 318.205 193.881 318.409 197.686L318.754 204.404C318.769 204.544 318.776 204.685 318.774 204.825C318.76 204.979 318.798 205.133 318.882 205.262C318.966 205.392 319.091 205.489 319.236 205.54C320.416 206.127 321.576 206.743 322.759 207.334L376.175 234.584C376.458 234.77 376.771 234.907 377.101 234.986C377.135 234.889 377.187 234.815 377.182 234.74C376.856 228.216 376.529 221.689 376.19 215.076C356.74 205.158 337.319 195.252 317.927 185.357C317.796 185.639 317.763 185.957 317.832 186.261ZM386.694 206.853C389.185 205.239 391.682 203.621 394.184 202C394.439 201.835 394.689 201.657 394.973 201.46L393.978 181.964C393.967 181.87 393.948 181.778 393.921 181.688C393.722 181.58 393.614 181.697 393.504 181.762C393.339 181.869 393.174 181.976 393.009 182.082C382.107 189.146 371.205 196.209 360.302 203.273L359.509 203.787C359.608 203.941 359.634 204.019 359.667 204.031C365.477 207.007 371.282 209.976 377.08 212.938C377.481 212.916 377.729 212.668 378.006 212.488C380.911 210.603 383.797 208.727 386.694 206.853ZM325.857 178.624L319.78 182.561C319.523 182.728 319.268 182.893 319.037 183.061C319.071 183.398 319.331 183.433 319.517 183.528C321.083 184.34 322.654 185.142 324.23 185.936C334.883 191.376 345.538 196.813 356.195 202.248C356.443 202.375 356.696 202.495 356.966 202.629C357.176 202.518 357.375 202.426 357.563 202.307C362.765 198.937 367.968 195.566 373.172 192.194C373.351 192.079 373.506 191.928 373.689 191.782C373.629 191.701 373.558 191.629 373.479 191.568C360.9 185.152 348.341 178.746 335.8 172.35C335.466 172.4 335.153 172.547 334.9 172.771C331.881 174.719 328.867 176.67 325.857 178.624ZM376.94 189.756C380.919 187.178 384.898 184.6 388.878 182.022C390.264 181.123 391.656 180.221 393.055 179.315C393.312 179.149 393.558 178.97 393.78 178.821C393.853 178.124 392.91 158.805 392.749 157.521C392.573 157.25 392.264 157.167 391.995 157.032C387.442 154.707 382.895 152.388 378.353 150.077C377.052 149.415 375.753 148.754 374.454 148.092C374.207 147.966 373.953 147.849 373.678 147.718C372.849 148.149 356.47 158.793 355.975 159.21C355.912 159.903 356.92 179.779 357.066 180.578L376.066 190.263C376.365 190.098 376.658 189.939 376.938 189.758L376.94 189.756ZM315.456 139.567L317.513 180.131C317.528 180.434 317.556 180.728 317.59 181.136C318.356 180.772 333.824 170.75 334.413 170.237C333.699 156.289 332.987 142.305 332.275 128.286C332.257 128.127 332.231 127.97 332.197 127.814C332.06 127.853 331.926 127.9 331.796 127.956C331.622 128.05 331.466 128.17 331.301 128.276C326.284 131.527 321.267 134.778 316.248 138.029C315.318 138.641 315.395 138.466 315.453 139.568L315.456 139.567ZM370.133 103.157C369.804 103.371 369.557 103.496 369.326 103.646L335.123 125.807C334.507 126.206 334.503 126.208 334.542 126.963C334.795 131.949 335.049 136.934 335.304 141.917L336.694 169.215C336.706 169.519 336.732 169.814 336.763 170.106C337.408 170.581 350.39 177.274 354.117 179.067C354.238 179.123 354.369 179.157 354.524 179.212C354.628 178.94 354.653 178.642 354.593 178.356C354.461 175.582 354.321 172.811 354.174 170.04C354.038 167.351 353.901 164.661 353.763 161.973L352.431 136.267C352.414 135.932 352.41 135.597 352.398 135.227L371.234 123.023L370.254 103.585C370.224 103.44 370.182 103.298 370.131 103.159L370.133 103.157ZM390.205 134.136C390.2 134.097 390.192 134.058 390.18 134.021C390.171 133.996 390.157 133.973 390.137 133.955C389.992 133.871 389.848 133.783 389.699 133.708C384.008 130.8 378.315 127.896 372.717 125.047C372.581 125.035 372.556 125.029 372.529 125.031C372.5 125.036 372.473 125.046 372.447 125.059C372.355 125.119 372.247 125.16 372.155 125.22C366.455 128.913 360.755 132.606 355.055 136.299C354.99 136.348 354.929 136.402 354.873 136.461C354.805 137.079 355.704 155.241 355.846 156.269C355.987 156.39 356.104 156.292 356.219 156.224C356.406 156.103 356.597 155.979 356.784 155.858C367.665 148.808 378.545 141.759 389.423 134.711C389.707 134.561 389.968 134.369 390.196 134.142L390.205 134.136ZM431.937 152.285L430.943 132.64L372.896 103.047C372.831 103.014 372.742 103.031 372.649 103.022C372.611 103.1 372.586 103.182 372.574 103.268C372.899 109.787 373.221 116.311 373.554 122.74L373.655 122.897C373.672 122.919 373.693 122.938 373.717 122.953C379.948 126.147 386.185 129.339 392.427 132.527C405.51 139.195 418.594 145.861 431.678 152.525C431.704 152.532 431.732 152.535 431.759 152.534C431.787 152.535 431.814 152.527 431.858 152.523C431.886 152.436 431.941 152.357 431.937 152.285ZM430.747 154.782C430.529 154.561 430.262 154.394 429.968 154.294C426.949 152.746 423.928 151.202 420.906 149.662L393.638 135.754C392.62 135.233 392.837 135.23 391.913 135.829C386.874 139.093 381.835 142.358 376.797 145.623C376.519 145.75 376.274 145.937 376.077 146.17C376.226 146.476 376.526 146.525 376.771 146.657C380.36 148.494 383.953 150.327 387.551 152.158C396.09 156.512 404.631 160.862 413.174 165.209C414.192 165.73 413.961 165.773 414.985 165.113C419.975 161.88 424.967 158.645 429.961 155.41C430.263 155.259 430.529 155.046 430.742 154.785L430.747 154.782ZM412.986 167.756L395.537 158.857C395.416 158.814 395.291 158.782 395.164 158.762C395.067 159.605 395.197 160.408 395.228 161.217C395.26 162.027 395.306 162.84 395.35 163.651L395.472 166.088L395.595 168.524L395.721 170.958L395.845 173.394C395.885 174.207 395.922 175.017 395.968 175.83C396.014 176.643 396.078 177.444 396.113 178.264C396.148 179.084 396.201 179.942 396.245 180.781C396.29 181.62 396.324 182.406 396.358 183.205L396.483 185.643L396.609 188.078L396.731 190.511L396.855 192.947L396.978 195.383L397.102 197.818C397.143 198.628 397.189 199.441 397.228 200.253C397.267 201.064 397.303 201.871 397.342 202.717L378.589 214.867C378.518 215.562 379.434 233.837 379.568 234.646C379.708 234.767 379.83 234.679 379.944 234.605C380.133 234.483 380.32 234.361 380.511 234.238C391.789 226.93 403.068 219.623 414.348 212.315C415.315 211.688 415.247 211.916 415.187 210.719L413.045 168.642C413.031 168.364 413.007 168.086 412.982 167.759L412.986 167.756ZM434.314 199.306C434.321 199.243 434.323 199.179 434.321 199.115L432.184 157.112C432.173 157.037 432.153 156.963 432.123 156.893C431.95 156.78 431.843 156.909 431.735 156.973C431.539 157.084 431.357 157.218 431.17 157.339L415.317 167.61C416.035 181.69 416.753 195.749 417.472 209.785C417.486 209.884 417.512 209.982 417.548 210.076C417.644 210.079 417.707 210.104 417.745 210.082C418.58 209.626 433.794 199.728 434.31 199.309L434.314 199.306Z" fill="#D7D8DD"/>
</g>
</g>
<defs>
<clipPath id="clip0_1321_2210">
<rect width="437" height="275" fill="white"/>
</clipPath>
<clipPath id="clip1_1321_2210">
<rect width="120.162" height="138.785" fill="white" transform="matrix(0.543752 0.839246 0.839246 -0.543752 -70.9521 175.041)"/>
</clipPath>
<clipPath id="clip2_1321_2210">
<rect width="120.162" height="138.785" fill="white" transform="matrix(0.543752 0.839246 0.839246 -0.543752 -16.8213 69.7393)"/>
</clipPath>
<clipPath id="clip3_1321_2210">
<rect width="120.162" height="138.785" fill="white" transform="matrix(0.543752 0.839246 0.839246 -0.543752 47.2773 168.67)"/>
</clipPath>
<clipPath id="clip4_1321_2210">
<rect width="120.162" height="138.785" fill="white" transform="matrix(0.543752 0.839246 0.839246 -0.543752 -5.76758 274.203)"/>
</clipPath>
<clipPath id="clip5_1321_2210">
<rect width="120.162" height="138.785" fill="white" transform="matrix(0.543752 0.839246 0.839246 -0.543752 112.462 267.833)"/>
</clipPath>
<clipPath id="clip6_1321_2210">
<rect width="120.162" height="138.785" fill="white" transform="matrix(0.543752 0.839246 0.839246 -0.543752 101.627 63.2256)"/>
</clipPath>
<clipPath id="clip7_1321_2210">
<rect width="120.162" height="138.785" fill="white" transform="matrix(0.543752 0.839246 0.839246 -0.543752 165.726 162.156)"/>
</clipPath>
<clipPath id="clip8_1321_2210">
<rect width="120.162" height="138.785" fill="white" transform="matrix(0.543752 0.839246 0.839246 -0.543752 218.951 57.2949)"/>
</clipPath>
<clipPath id="clip9_1321_2210">
<rect width="120.162" height="138.785" fill="white" transform="matrix(0.543752 0.839246 0.839246 -0.543752 229.951 261.292)"/>
</clipPath>
<clipPath id="clip10_1321_2210">
<rect width="120.162" height="138.785" fill="white" transform="matrix(0.543752 0.839246 0.839246 -0.543752 283.951 156.292)"/>
</clipPath>
</defs>
</svg>
