<svg width="41" height="28" viewBox="0 0 41 28" fill="none" xmlns="http://www.w3.org/2000/svg">
<path fill-rule="evenodd" clip-rule="evenodd" d="M20.9576 6.91666C21.2209 6.91666 21.5501 7.04729 21.9448 7.43885L29.642 15.0751C30.8913 16.3152 30.1682 17.2944 28.5231 17.164H20.9576L25.497 21.7979H35.1678C38.1281 21.9286 40.4963 19.1872 37.536 16.3808L24.0499 3.066C22.9315 1.95625 21.9448 1.23828 20.9576 1.23828C19.9709 1.23828 18.9842 1.95625 17.8659 3.066L4.37965 16.3808C1.41943 19.1872 3.78765 21.9286 6.74787 21.7979H16.4186L20.9576 17.164H13.3923C11.7476 17.2945 11.0241 16.3152 12.2741 15.0751L19.971 7.43885C20.3656 7.04729 20.6949 6.91666 20.9576 6.91666Z" fill="#293F52"/>
<path fill-rule="evenodd" clip-rule="evenodd" d="M20.912 11.3721C22.4568 11.3721 23.7083 12.6139 23.7083 14.1458C23.7083 15.6781 22.4567 16.9199 20.912 16.9199C19.368 16.9199 18.1162 15.6781 18.1162 14.1458C18.1162 12.6138 19.3679 11.3721 20.912 11.3721Z" fill="#293F52"/>
<path fill-rule="evenodd" clip-rule="evenodd" d="M20.927 26.8024H35.0707C37.3738 26.7372 37.9658 26.1497 39.8736 22.4297C37.2422 24.9098 36.6502 25.0403 35.0707 25.0403C30.4008 25.0403 25.6637 25.0403 20.927 25.0403C16.1907 25.0403 11.4539 25.0403 6.78302 25.0403C5.20425 25.0403 4.61214 24.9098 1.98047 22.4297C3.88814 26.1497 4.48047 26.7372 6.78302 26.8024H20.927Z" fill="#293F52"/>
<path d="M33.1767 24.0474H33.6063V24.3414H33.1767V24.0474ZM33.1767 23.2024H33.6063V23.4964H33.1767V23.2024ZM30.4825 23.8143C30.4825 23.3401 31.2165 23.3713 31.2165 23.3713L31.2979 23.576C31.2249 23.558 30.8477 23.5514 30.8314 23.8084C30.823 23.94 30.9491 24.0473 31.1072 24.0473C31.3299 24.0532 31.4482 23.9096 31.4482 23.9035V23.2H30.2593V22.9946H32.8967V23.2H31.8128V23.509C31.8128 23.509 31.939 23.3952 32.1864 23.3952C32.4948 23.3952 32.7543 23.5849 32.7543 23.8084C32.7543 24.1054 32.3282 24.3748 32.3282 24.3748L32.0567 24.2312C32.0651 24.2312 32.3892 24.0354 32.3892 23.8143C32.3892 23.7078 32.3041 23.5976 32.1461 23.5976C31.9638 23.5976 31.8129 23.7785 31.8129 23.7844V24.5436H31.4483V24.1783C31.0505 24.3748 30.4825 24.2036 30.4825 23.8143ZM30.211 22.337V22.4929C30.1446 22.4684 30.0928 22.4684 30.0112 22.4684C29.6377 22.4684 29.6787 22.9307 29.9708 22.9947H29.7354C29.6618 22.9641 29.4639 22.7929 29.4717 22.6369C29.4795 22.3553 29.9014 22.1993 30.211 22.337ZM29.3057 22.9947H30.2025V23.2001H29.9877V24.5437H29.6142V23.2001H29.3058V22.9947H29.3057ZM28.6165 23.4845C28.7421 23.4905 28.8598 23.4264 28.8845 23.3773C28.9088 23.1755 28.377 23.0959 28.377 23.3342C28.3769 23.4264 28.4904 23.4845 28.6165 23.4845ZM27.736 22.9947H29.3057V23.2001H29.115C29.4482 23.5331 29.1392 24.0289 28.584 24.06C28.6002 24.06 28.718 24.1487 28.8072 24.1978C28.9653 24.2864 29.1072 24.363 29.115 24.3691L28.9002 24.5619C28.5357 24.4242 28.2267 24.1606 27.943 23.9463L28.1783 23.7786L28.3159 23.8672C28.3243 23.8672 28.3769 23.9036 28.474 23.8851C28.7987 23.8331 28.8519 23.6899 28.8597 23.6217C28.4824 23.8145 27.8862 23.5396 28.1094 23.2001H27.736V22.9947ZM25.6912 22.9947H27.7438V23.2001H27.3545V23.6282H26.4909C26.381 23.6282 26.2833 23.6958 26.2833 23.8024C26.2797 24.0839 26.815 24.1844 26.9205 24.13C26.9049 24.0964 26.9447 23.8731 27.2042 23.867C27.4805 23.867 27.5289 24.191 27.2857 24.2551C27.2857 24.2611 27.3382 24.3563 27.387 24.4114C27.4438 24.488 27.5451 24.5988 27.5451 24.5988H27.1637C27.1637 24.5988 27.1027 24.5126 27.0701 24.4599C27.046 24.4114 27.0303 24.381 27.0055 24.3413C26.9892 24.3473 25.9065 24.3809 25.9137 23.7785C25.9137 23.5851 26.1497 23.4264 26.4212 23.4264H26.9807V23.2001H25.691V22.9947H25.6912ZM25.0618 23.9162V24.0964L24.1613 24.5437L23.9543 24.3413L25.0618 23.9162ZM24.6937 24.1055C24.2109 24.0994 24.0563 23.7719 24.0563 23.6773V23.2H23.7883V22.9946H25.6509V23.2H25.436V24.5436H25.0709V24.0286C24.9447 24.0898 24.8674 24.1055 24.6937 24.1055ZM25.0709 23.2001H24.4221V23.6899C24.4221 23.8024 24.5029 23.9097 24.7093 23.9163C24.9042 23.9163 25.0582 23.7905 25.0709 23.7595V23.2001ZM22.8843 22.9947H23.7805V23.2001H23.5658V24.5437H23.1921V23.2001H22.8843V22.9947ZM22.1257 23.3953V23.5761C22.0363 23.5821 21.6265 23.5456 21.6265 23.2702C21.6265 23.0834 21.8698 22.9579 22.142 22.9642C22.4943 22.9642 22.7908 23.1816 22.7908 23.4386C22.7908 23.702 22.4498 23.9282 22.1178 23.9163C22.1178 23.9163 22.227 24.0779 22.5271 24.072C22.9248 24.072 23.2248 23.766 23.2331 23.7414V24.0839C22.661 24.4479 21.7364 24.2676 21.578 23.6898C21.6021 23.7018 21.7443 23.7234 21.9187 23.7292C22.154 23.7292 22.4255 23.6401 22.4255 23.4203C22.4255 23.2945 22.3532 23.1629 22.142 23.1629C21.9023 23.163 21.8943 23.3953 22.1257 23.3953ZM20.6042 24.1055C20.1217 24.0994 19.9674 23.7719 19.9674 23.6773V23.2H19.6995V22.9946H21.5618V23.2H21.3469V24.5436H20.9817V24.0286C20.8559 24.0898 20.7787 24.1055 20.6042 24.1055ZM20.9817 23.2001H20.3327V23.6899C20.3327 23.8024 20.4135 23.9097 20.6205 23.9163C20.8154 23.9163 20.9693 23.7905 20.9817 23.7595V23.2001ZM17.4158 24.0474H17.8454V24.3414H17.4158V24.0474ZM17.4158 23.2024H17.8454V23.4964H17.4158V23.2024ZM14.7217 23.8143C14.7217 23.3401 15.4561 23.3713 15.4561 23.3713L15.5373 23.576C15.4643 23.558 15.087 23.5514 15.0708 23.8084C15.0627 23.94 15.1885 24.0473 15.3465 24.0473C15.5699 24.0532 15.6872 23.9096 15.6872 23.9035V23.2H14.4985V22.9946H17.1353V23.2H16.0523V23.509C16.0523 23.509 16.1783 23.3952 16.4255 23.3952C16.7337 23.3952 16.9934 23.5849 16.9934 23.8084C16.9934 24.1054 16.5675 24.3748 16.5675 24.3748L16.2957 24.2312C16.3039 24.2312 16.6283 24.0354 16.6283 23.8143C16.6283 23.7078 16.5431 23.5976 16.3851 23.5976C16.2025 23.5976 16.0523 23.7785 16.0523 23.7844V24.5436H15.6871V24.1783C15.29 24.3748 14.7217 24.2036 14.7217 23.8143ZM12.4543 22.9947H14.4988V23.2001H14.2921V24.5437H13.9189V23.7473H13.2693V23.9586C13.2693 23.9646 13.2693 24.0598 13.1682 24.0532C13.0423 24.0473 12.6772 23.7137 12.6772 23.6401C12.6772 23.5395 12.811 23.5329 12.8272 23.5329H13.9188V23.1999H12.4543V22.9947ZM11.5497 22.9947H12.4462V23.2001H12.2313V24.5437H11.8578V23.2001H11.5497V22.9947ZM10.9693 23.2001H10.3529V23.6588H10.9693V23.2001ZM9.50488 22.9947H11.5497V23.2001H11.3427V24.5437H10.9693V23.8611H10.3529V24.0413C10.3529 24.0474 10.3447 24.1425 10.2351 24.1425C10.1294 24.1425 9.71188 23.8024 9.71188 23.7354C9.71188 23.6646 9.84566 23.6587 9.85366 23.6587H9.99588V23.2H9.50488V22.9947Z" fill="#293F52"/>
</svg>
