<svg width="56" height="36" viewBox="0 0 56 36" fill="none" xmlns="http://www.w3.org/2000/svg">
<path d="M0 3.08203C46.2116 -9.7987 44.029 23.8963 45.3989 28.6239L55.43 34.3472L52.9143 35.0484L44.1823 30.0579C40.522 31.5161 33.0761 36.7511 22.4395 32.2602C11.7836 27.7746 9.95878 19.3573 0 3.08203ZM8.95222 5.38341C3.50956 4.45 8.6972 6.41383 8.6972 6.41383C13.9121 8.21367 17.0709 11.7649 20.6584 15.5825C25.3299 20.5577 32.07 26.9689 39.1338 27.9197C46.1782 28.8759 42.78 28.2068 39.4851 26.9355C36.1848 25.6448 30.5398 20.3569 27.1686 16.7918C22.4832 11.8413 18.0678 6.96148 8.95222 5.38341Z" fill="white"/>
</svg>
