<svg width="48" height="48" viewBox="0 0 48 48" fill="none" xmlns="http://www.w3.org/2000/svg">
<rect width="48" height="48" rx="24" fill="#3A70B4"/>
<path d="M27.4286 16.7852V18.4994H33.0736L25.7143 25.8588L22.0346 22.1792C21.955 22.0995 21.8605 22.0364 21.7566 21.9933C21.6526 21.9502 21.5411 21.928 21.4286 21.928C21.316 21.928 21.2046 21.9502 21.1006 21.9933C20.9966 22.0364 20.9021 22.0995 20.8226 22.1792L12 31.0016L13.2121 32.2137L21.4286 23.9972L25.1083 27.6769C25.1878 27.7565 25.2823 27.8197 25.3863 27.8628C25.4903 27.9059 25.6017 27.928 25.7143 27.928C25.8268 27.928 25.9383 27.9059 26.0423 27.8628C26.1463 27.8197 26.2407 27.7565 26.3203 27.6769L34.2857 19.7115V25.3566H36V16.7852H27.4286Z" fill="white"/>
</svg>
