<svg width="48" height="48" viewBox="0 0 48 48" fill="none" xmlns="http://www.w3.org/2000/svg">
<rect width="48" height="48" rx="24" fill="#3A70B4"/>
<path d="M24.1324 19.8672C21.606 19.8672 19.5391 21.9342 19.5391 24.4605C19.5391 26.9868 21.606 29.0538 24.1324 29.0538C26.6587 29.0538 28.7257 26.9868 28.7257 24.4605C28.7257 21.9342 26.6587 19.8672 24.1324 19.8672ZM24.1324 27.5227C22.4482 27.5227 21.0702 26.1447 21.0702 24.4605C21.0702 22.7763 22.4482 21.3983 24.1324 21.3983C25.8166 21.3983 27.1946 22.7763 27.1946 24.4605C27.1946 26.1447 25.8166 27.5227 24.1324 27.5227Z" fill="white"/>
<path d="M24.1316 31.1172C21.28 31.1172 18.5431 32.3038 16.591 34.3899L16.0742 34.9449L17.1843 35.9976L17.701 35.4425C19.3852 33.6435 21.6627 32.6483 24.1316 32.6483C26.6005 32.6483 28.878 33.6435 30.5623 35.4425L31.079 35.9976L32.189 34.9449L31.6723 34.3899C29.7201 32.3229 26.9833 31.1172 24.1316 31.1172Z" fill="white"/>
<path d="M30.4492 20.9961V22.5272C32.2483 22.5272 33.9133 23.2545 35.1574 24.575L36.2674 23.5224C34.7746 21.9148 32.6502 20.9961 30.4492 20.9961Z" fill="white"/>
<path d="M34.104 15.6555C34.104 13.6459 32.458 12 30.4485 12C28.4389 12 26.793 13.6459 26.793 15.6555C26.793 17.6651 28.4389 19.311 30.4485 19.311C32.458 19.311 34.104 17.6651 34.104 15.6555ZM28.3241 15.6555C28.3241 14.488 29.281 13.5311 30.4485 13.5311C31.6159 13.5311 32.5729 14.488 32.5729 15.6555C32.5729 16.823 31.6159 17.7799 30.4485 17.7799C29.281 17.7799 28.3241 16.823 28.3241 15.6555Z" fill="white"/>
<path d="M17.8182 20.9961C15.6172 20.9961 13.4928 21.9148 12 23.5224L13.11 24.575C14.3349 23.2545 16.0191 22.5272 17.8182 22.5272V20.9961Z" fill="white"/>
<path d="M21.4712 15.6555C21.4712 13.6459 19.8252 12 17.8157 12C15.8061 12 14.1602 13.6459 14.1602 15.6555C14.1602 17.6651 15.8061 19.311 17.8157 19.311C19.8252 19.311 21.4712 17.6651 21.4712 15.6555ZM17.8157 17.7799C16.6482 17.7799 15.6913 16.823 15.6913 15.6555C15.6913 14.488 16.6482 13.5311 17.8157 13.5311C18.9831 13.5311 19.9401 14.488 19.9401 15.6555C19.9401 16.823 18.9831 17.7799 17.8157 17.7799Z" fill="white"/>
</svg>
