<svg width="48" height="48" viewBox="0 0 48 48" fill="none" xmlns="http://www.w3.org/2000/svg">
<rect width="48" height="48" rx="24" fill="#3A70B4"/>
<mask id="path-2-inside-1_1092_1047" fill="white">
<path fill-rule="evenodd" clip-rule="evenodd" d="M26.5049 20.4125C28.1596 20.4125 29.3276 21.0243 30.3565 22.4843L33.8467 27.6013H39.951C42.3791 27.6013 42.2474 31.0097 40.0859 31.063L40.0344 31.0636H33.0403L32.9878 31.0631C32.4426 31.0511 31.8044 30.8502 31.4273 30.2711L28.7575 26.4612L28.7435 36H19.1771L19.1632 26.4612L16.4934 30.2711C16.1162 30.8368 15.4782 31.0502 14.933 31.063L14.8806 31.0636H7.88639L7.83365 31.063C5.63558 31.0102 5.51553 27.6548 7.87153 27.602L7.92808 27.6013H13.9905L17.4667 22.4843C18.4957 21.0799 19.6638 20.4125 21.3184 20.4125H26.5049ZM21.3184 21.8658C21.0554 21.8658 20.8214 21.8878 20.6099 21.929L20.6283 34.5467H27.2923L27.3107 21.9422C27.0767 21.8925 26.8116 21.8658 26.5049 21.8658H21.3184ZM20.5569 21.9397C20.2913 21.9965 20.0615 22.0843 19.8541 22.1975C19.4661 22.4092 19.0727 22.7556 18.6527 23.3248L14.7602 29.0547H7.92808C7.79808 29.0547 7.72784 29.0773 7.69829 29.0897C7.66983 29.1017 7.65823 29.1128 7.65176 29.1199C7.63571 29.1375 7.59667 29.1996 7.59805 29.315C7.59946 29.4318 7.64213 29.5141 7.6743 29.5499C7.6876 29.5646 7.70178 29.5753 7.72202 29.5842C7.74185 29.5929 7.79128 29.6103 7.88639 29.6103H14.8806C14.9861 29.6103 15.089 29.5891 15.1653 29.5556C15.233 29.5259 15.2644 29.4946 15.2842 29.4649L15.2935 29.4509L20.5569 21.9397ZM32.6316 29.4573L32.6451 29.478C32.6636 29.5064 32.6889 29.532 32.7486 29.5578C32.8192 29.5884 32.9224 29.6103 33.0403 29.6103H40.0344C40.1175 29.6103 40.1576 29.5949 40.1709 29.5889C40.1851 29.5826 40.1967 29.5744 40.2094 29.56C40.2412 29.5241 40.285 29.4386 40.2862 29.3179C40.2874 29.1994 40.2476 29.1371 40.2322 29.1203C40.2261 29.1135 40.2147 29.1025 40.1857 29.0903C40.1555 29.0777 40.0838 29.0547 39.951 29.0547H33.0788L29.1632 23.314C28.7455 22.723 28.3575 22.3843 27.9802 22.1825C27.8016 22.087 27.6035 22.0106 27.3756 21.9567L32.6316 29.4573Z"/>
<path fill-rule="evenodd" clip-rule="evenodd" d="M38.6049 20.9164C38.8455 20.876 39.0944 20.8757 39.3419 20.9194L39.7481 20.2772L40.4076 20.5537L40.2345 21.2935C40.4392 21.4394 40.6135 21.6171 40.7534 21.817L41.4948 21.6501L41.7656 22.3118L41.1199 22.7127C41.1603 22.9532 41.1606 23.2022 41.1169 23.4497L41.7591 23.8559L41.4826 24.5154L40.7428 24.3422C40.5969 24.5469 40.4192 24.7212 40.2193 24.8612L40.3862 25.6026L39.7244 25.8734L39.3236 25.2277C39.0831 25.2682 38.8341 25.2685 38.5866 25.2248L38.1804 25.8669L37.5208 25.5904L37.694 24.8505C37.4893 24.7046 37.3151 24.5269 37.1751 24.3271L36.4337 24.494L36.1629 23.8322L36.8087 23.4314C36.7682 23.1908 36.7679 22.9419 36.8117 22.6943L36.1694 22.2882L36.4459 21.6286L37.1858 21.8017C37.3317 21.5971 37.5094 21.4228 37.7092 21.2829L37.5423 20.5414L38.2041 20.2707L38.6049 20.9164ZM39.4037 22.0236C38.8248 21.7809 38.1585 22.0535 37.9158 22.6325C37.6732 23.2114 37.9458 23.8776 38.5247 24.1203C39.1036 24.363 39.7699 24.0904 40.0126 23.5114C40.2552 22.9325 39.9827 22.2664 39.4037 22.0236Z"/>
<path fill-rule="evenodd" clip-rule="evenodd" d="M10.1098 17.4581C12.3902 17.4581 14.2318 19.2996 14.2318 21.5801C14.2318 23.8606 12.378 25.7021 10.1098 25.7021C7.84149 25.7021 6 23.8605 6 21.5923C6 19.3118 7.82929 17.4581 10.1098 17.4581ZM9.82933 19.3321C9.06903 19.4865 8.65448 19.9784 8.65448 20.6045C8.65448 21.2833 9.1261 21.6654 9.88215 21.9297C10.4268 22.1411 10.6505 22.2586 10.6505 22.5432C10.6505 22.8277 10.4187 23.0351 9.94726 23.0351C9.50814 23.0351 9.09358 22.8807 8.82932 22.7505L8.62197 23.584C8.86183 23.7181 9.35773 23.8482 9.84964 23.8482V24.4742H10.4188V23.8279C11.2522 23.641 11.6464 23.1491 11.6464 22.5027C11.6464 21.8564 11.2847 21.4621 10.5082 21.1776C9.93906 20.9458 9.67477 20.8361 9.67476 20.5515C9.67476 20.3443 9.90242 20.1369 10.3211 20.1369C10.7398 20.1369 11.0446 20.2671 11.2317 20.3443L11.4635 19.5314C11.2114 19.3971 10.8699 19.2996 10.3985 19.2996V18.6533H9.82933V19.3321Z"/>
<path fill-rule="evenodd" clip-rule="evenodd" d="M35.5736 17.2868L35.6669 17.8406C35.8483 17.8819 36.018 17.953 36.1703 18.0492L36.6281 17.7235L37.0021 18.0975L36.6764 18.5553C36.7726 18.7079 36.8441 18.8776 36.885 19.0587L37.4391 19.1523V19.681L36.885 19.7742C36.8441 19.9557 36.7726 20.1255 36.6764 20.278L37.0021 20.7359L36.6281 21.1096L36.1703 20.7839C36.018 20.8801 35.8484 20.9516 35.6669 20.9925L35.5736 21.5466H35.0447L34.9514 20.9925C34.7701 20.9516 34.6003 20.8801 34.448 20.7839L33.9901 21.1096L33.6162 20.7359L33.9419 20.278C33.8457 20.1253 33.7741 19.9557 33.7333 19.7742L33.1792 19.681V19.1523L33.7333 19.0587C33.7741 18.8776 33.8457 18.7079 33.9419 18.5553L33.6162 18.0975L33.9901 17.7235L34.448 18.0492C34.6003 17.953 34.7699 17.8819 34.9514 17.8406L35.0447 17.2868H35.5736ZM35.3089 18.5762C34.8451 18.5762 34.4687 18.9526 34.4687 19.4167C34.4687 19.8808 34.8451 20.2572 35.3089 20.2572C35.7732 20.2572 36.1494 19.8809 36.1494 19.4167C36.1494 18.9526 35.7732 18.5762 35.3089 18.5762Z"/>
<path fill-rule="evenodd" clip-rule="evenodd" d="M23.9695 12.0003C26.1146 12.0272 27.8121 13.755 27.8121 15.8933L27.8118 15.9438C27.7849 18.0756 26.0572 19.7867 23.9187 19.7867C21.7773 19.7867 20.0392 18.0625 20.0254 15.8933C20.0254 13.7382 21.7634 12 23.9187 12L23.9695 12.0003ZM23.9187 13.4533C22.5674 13.4533 21.4808 14.5387 21.4787 15.8894C21.4902 17.2623 22.5834 18.3334 23.9187 18.3334C25.2713 18.3334 26.3587 17.2459 26.3587 15.8933C26.3587 14.5374 25.2818 13.4533 23.9187 13.4533Z"/>
</mask>
<path fill-rule="evenodd" clip-rule="evenodd" d="M26.5049 20.4125C28.1596 20.4125 29.3276 21.0243 30.3565 22.4843L33.8467 27.6013H39.951C42.3791 27.6013 42.2474 31.0097 40.0859 31.063L40.0344 31.0636H33.0403L32.9878 31.0631C32.4426 31.0511 31.8044 30.8502 31.4273 30.2711L28.7575 26.4612L28.7435 36H19.1771L19.1632 26.4612L16.4934 30.2711C16.1162 30.8368 15.4782 31.0502 14.933 31.063L14.8806 31.0636H7.88639L7.83365 31.063C5.63558 31.0102 5.51553 27.6548 7.87153 27.602L7.92808 27.6013H13.9905L17.4667 22.4843C18.4957 21.0799 19.6638 20.4125 21.3184 20.4125H26.5049ZM21.3184 21.8658C21.0554 21.8658 20.8214 21.8878 20.6099 21.929L20.6283 34.5467H27.2923L27.3107 21.9422C27.0767 21.8925 26.8116 21.8658 26.5049 21.8658H21.3184ZM20.5569 21.9397C20.2913 21.9965 20.0615 22.0843 19.8541 22.1975C19.4661 22.4092 19.0727 22.7556 18.6527 23.3248L14.7602 29.0547H7.92808C7.79808 29.0547 7.72784 29.0773 7.69829 29.0897C7.66983 29.1017 7.65823 29.1128 7.65176 29.1199C7.63571 29.1375 7.59667 29.1996 7.59805 29.315C7.59946 29.4318 7.64213 29.5141 7.6743 29.5499C7.6876 29.5646 7.70178 29.5753 7.72202 29.5842C7.74185 29.5929 7.79128 29.6103 7.88639 29.6103H14.8806C14.9861 29.6103 15.089 29.5891 15.1653 29.5556C15.233 29.5259 15.2644 29.4946 15.2842 29.4649L15.2935 29.4509L20.5569 21.9397ZM32.6316 29.4573L32.6451 29.478C32.6636 29.5064 32.6889 29.532 32.7486 29.5578C32.8192 29.5884 32.9224 29.6103 33.0403 29.6103H40.0344C40.1175 29.6103 40.1576 29.5949 40.1709 29.5889C40.1851 29.5826 40.1967 29.5744 40.2094 29.56C40.2412 29.5241 40.285 29.4386 40.2862 29.3179C40.2874 29.1994 40.2476 29.1371 40.2322 29.1203C40.2261 29.1135 40.2147 29.1025 40.1857 29.0903C40.1555 29.0777 40.0838 29.0547 39.951 29.0547H33.0788L29.1632 23.314C28.7455 22.723 28.3575 22.3843 27.9802 22.1825C27.8016 22.087 27.6035 22.0106 27.3756 21.9567L32.6316 29.4573Z" stroke="white" stroke-width="1.6" mask="url(#path-2-inside-1_1092_1047)"/>
<path fill-rule="evenodd" clip-rule="evenodd" d="M38.6049 20.9164C38.8455 20.876 39.0944 20.8757 39.3419 20.9194L39.7481 20.2772L40.4076 20.5537L40.2345 21.2935C40.4392 21.4394 40.6135 21.6171 40.7534 21.817L41.4948 21.6501L41.7656 22.3118L41.1199 22.7127C41.1603 22.9532 41.1606 23.2022 41.1169 23.4497L41.7591 23.8559L41.4826 24.5154L40.7428 24.3422C40.5969 24.5469 40.4192 24.7212 40.2193 24.8612L40.3862 25.6026L39.7244 25.8734L39.3236 25.2277C39.0831 25.2682 38.8341 25.2685 38.5866 25.2248L38.1804 25.8669L37.5208 25.5904L37.694 24.8505C37.4893 24.7046 37.3151 24.5269 37.1751 24.3271L36.4337 24.494L36.1629 23.8322L36.8087 23.4314C36.7682 23.1908 36.7679 22.9419 36.8117 22.6943L36.1694 22.2882L36.4459 21.6286L37.1858 21.8017C37.3317 21.5971 37.5094 21.4228 37.7092 21.2829L37.5423 20.5414L38.2041 20.2707L38.6049 20.9164ZM39.4037 22.0236C38.8248 21.7809 38.1585 22.0535 37.9158 22.6325C37.6732 23.2114 37.9458 23.8776 38.5247 24.1203C39.1036 24.363 39.7699 24.0904 40.0126 23.5114C40.2552 22.9325 39.9827 22.2664 39.4037 22.0236Z" stroke="white" stroke-width="1.6" mask="url(#path-2-inside-1_1092_1047)"/>
<path fill-rule="evenodd" clip-rule="evenodd" d="M10.1098 17.4581C12.3902 17.4581 14.2318 19.2996 14.2318 21.5801C14.2318 23.8606 12.378 25.7021 10.1098 25.7021C7.84149 25.7021 6 23.8605 6 21.5923C6 19.3118 7.82929 17.4581 10.1098 17.4581ZM9.82933 19.3321C9.06903 19.4865 8.65448 19.9784 8.65448 20.6045C8.65448 21.2833 9.1261 21.6654 9.88215 21.9297C10.4268 22.1411 10.6505 22.2586 10.6505 22.5432C10.6505 22.8277 10.4187 23.0351 9.94726 23.0351C9.50814 23.0351 9.09358 22.8807 8.82932 22.7505L8.62197 23.584C8.86183 23.7181 9.35773 23.8482 9.84964 23.8482V24.4742H10.4188V23.8279C11.2522 23.641 11.6464 23.1491 11.6464 22.5027C11.6464 21.8564 11.2847 21.4621 10.5082 21.1776C9.93906 20.9458 9.67477 20.8361 9.67476 20.5515C9.67476 20.3443 9.90242 20.1369 10.3211 20.1369C10.7398 20.1369 11.0446 20.2671 11.2317 20.3443L11.4635 19.5314C11.2114 19.3971 10.8699 19.2996 10.3985 19.2996V18.6533H9.82933V19.3321Z" stroke="white" stroke-width="1.6" mask="url(#path-2-inside-1_1092_1047)"/>
<path fill-rule="evenodd" clip-rule="evenodd" d="M35.5736 17.2868L35.6669 17.8406C35.8483 17.8819 36.018 17.953 36.1703 18.0492L36.6281 17.7235L37.0021 18.0975L36.6764 18.5553C36.7726 18.7079 36.8441 18.8776 36.885 19.0587L37.4391 19.1523V19.681L36.885 19.7742C36.8441 19.9557 36.7726 20.1255 36.6764 20.278L37.0021 20.7359L36.6281 21.1096L36.1703 20.7839C36.018 20.8801 35.8484 20.9516 35.6669 20.9925L35.5736 21.5466H35.0447L34.9514 20.9925C34.7701 20.9516 34.6003 20.8801 34.448 20.7839L33.9901 21.1096L33.6162 20.7359L33.9419 20.278C33.8457 20.1253 33.7741 19.9557 33.7333 19.7742L33.1792 19.681V19.1523L33.7333 19.0587C33.7741 18.8776 33.8457 18.7079 33.9419 18.5553L33.6162 18.0975L33.9901 17.7235L34.448 18.0492C34.6003 17.953 34.7699 17.8819 34.9514 17.8406L35.0447 17.2868H35.5736ZM35.3089 18.5762C34.8451 18.5762 34.4687 18.9526 34.4687 19.4167C34.4687 19.8808 34.8451 20.2572 35.3089 20.2572C35.7732 20.2572 36.1494 19.8809 36.1494 19.4167C36.1494 18.9526 35.7732 18.5762 35.3089 18.5762Z" stroke="white" stroke-width="1.6" mask="url(#path-2-inside-1_1092_1047)"/>
<path fill-rule="evenodd" clip-rule="evenodd" d="M23.9695 12.0003C26.1146 12.0272 27.8121 13.755 27.8121 15.8933L27.8118 15.9438C27.7849 18.0756 26.0572 19.7867 23.9187 19.7867C21.7773 19.7867 20.0392 18.0625 20.0254 15.8933C20.0254 13.7382 21.7634 12 23.9187 12L23.9695 12.0003ZM23.9187 13.4533C22.5674 13.4533 21.4808 14.5387 21.4787 15.8894C21.4902 17.2623 22.5834 18.3334 23.9187 18.3334C25.2713 18.3334 26.3587 17.2459 26.3587 15.8933C26.3587 14.5374 25.2818 13.4533 23.9187 13.4533Z" stroke="white" stroke-width="1.6" mask="url(#path-2-inside-1_1092_1047)"/>
</svg>
