<svg width="48" height="48" viewBox="0 0 48 48" fill="none" xmlns="http://www.w3.org/2000/svg">
<rect width="48" height="48" rx="24" fill="#3A70B4"/>
<path d="M29.4384 19.8262C29.8842 19.7487 30.313 20.0406 30.4023 20.4869C30.493 20.9403 30.1989 21.3814 29.7455 21.4721L24.8372 22.4537V24.955L27.0098 30.3867L27.0176 30.4069C27.175 30.8311 26.966 31.3059 26.5434 31.475C26.1208 31.644 25.6421 31.4443 25.4634 31.0285L25.4552 31.0086L23.9999 27.3705L22.5447 31.0086C22.373 31.4379 21.8857 31.6467 21.4564 31.475C21.0271 31.3032 20.8183 30.816 20.9901 30.3867L23.1627 24.955V22.4537L18.2543 21.4721L18.2332 21.4676C17.7919 21.3676 17.5083 20.9332 17.5976 20.4869C17.6869 20.0406 18.1156 19.7487 18.5615 19.8262L18.5828 19.8302L23.9999 20.9136L29.4172 19.8302L29.4384 19.8262Z" fill="white"/>
<path d="M24.036 16.4655C24.7899 16.4846 25.3953 17.1018 25.3953 17.8604C25.3953 18.6311 24.7705 19.2558 24 19.2558C23.2415 19.2558 22.6242 18.6505 22.605 17.8964L22.6046 17.8604L22.605 17.8244C22.6242 17.0704 23.2415 16.4651 24 16.4651L24.036 16.4655Z" fill="white"/>
<path fill-rule="evenodd" clip-rule="evenodd" d="M24 12C30.6273 12 36 17.3726 36 24C36 30.6273 30.6273 36 24 36C17.3726 36 12 30.6273 12 24C12 17.3726 17.3726 12 24 12ZM24 13.6744C18.2973 13.6744 13.6744 18.2973 13.6744 24C13.6744 29.7026 18.2973 34.3256 24 34.3256C29.7026 34.3256 34.3256 29.7026 34.3256 24C34.3256 18.2973 29.7026 13.6744 24 13.6744Z" fill="white"/>
</svg>
