<svg width="366" height="273" viewBox="0 0 366 273" fill="none" xmlns="http://www.w3.org/2000/svg">
<g clip-path="url(#clip0_1321_2210)">
<g clip-path="url(#clip1_1321_2210)">
<path d="M-47.4077 256.939C-47.4335 256.951 -47.4607 256.959 -47.4887 256.963C-47.5157 256.966 -47.543 256.966 -47.5701 256.963C-48.4569 256.601 -108.767 225.802 -109.331 225.409L-112.845 156.292C-112.797 156.222 -112.743 156.156 -112.682 156.096C-112.522 155.98 -112.36 155.868 -112.196 155.762C-93.0227 143.339 -73.8461 130.923 -54.6664 118.513C-54.6413 118.501 -54.614 118.494 -54.5862 118.492C-54.5642 118.478 -54.5288 118.489 -54.4422 118.483C-54.1679 118.618 -53.8372 118.781 -53.5168 118.948L-2.79763 144.824C0.251551 146.386 3.2984 147.941 6.34291 149.49C7.37497 150.023 7.23355 149.78 7.30608 151.01C7.35638 152.051 7.40383 153.088 7.46227 154.117C8.55729 175.54 9.64943 196.962 10.7387 218.382C10.751 218.662 10.7539 218.941 10.7602 219.177C10.7172 219.238 10.6672 219.293 10.6113 219.342C-8.46698 231.703 -27.5431 244.069 -46.6172 256.439C-46.8687 256.615 -47.1352 256.772 -47.4077 256.939ZM-108.071 205.01C-107.891 208.821 -107.699 212.63 -107.495 216.435L-107.15 223.153C-107.135 223.293 -107.128 223.434 -107.13 223.574C-107.144 223.728 -107.106 223.882 -107.022 224.011C-106.938 224.141 -106.813 224.238 -106.667 224.289C-105.488 224.876 -104.327 225.492 -103.145 226.083L-49.7285 253.333C-49.4454 253.519 -49.1323 253.656 -48.803 253.735C-48.769 253.638 -48.7171 253.564 -48.722 253.489C-49.0477 246.965 -49.3749 240.438 -49.7141 233.825C-69.1641 223.907 -88.5849 214.001 -107.977 204.106C-108.107 204.388 -108.141 204.706 -108.071 205.01ZM-39.2102 225.602C-36.7186 223.988 -34.2219 222.37 -31.72 220.749C-31.465 220.584 -31.2149 220.406 -30.9304 220.209L-31.9261 200.713C-31.9366 200.619 -31.9556 200.527 -31.9828 200.437C-32.1812 200.329 -32.2896 200.446 -32.4001 200.511C-32.565 200.618 -32.7299 200.725 -32.8948 200.831C-43.7962 207.895 -54.6984 214.958 -65.6013 222.022L-66.395 222.536C-66.2953 222.69 -66.2701 222.768 -66.2369 222.78C-60.4262 225.756 -54.6218 228.725 -48.8236 231.687C-48.423 231.665 -48.1748 231.417 -47.8978 231.237C-44.9929 229.352 -42.107 227.476 -39.2102 225.602ZM-100.047 197.373L-106.123 201.31C-106.381 201.477 -106.636 201.642 -106.867 201.81C-106.833 202.147 -106.573 202.182 -106.387 202.277C-104.82 203.089 -103.249 203.891 -101.674 204.685C-91.0203 210.125 -80.3653 215.562 -69.7085 220.997C-69.4609 221.124 -69.2082 221.244 -68.9374 221.378C-68.7282 221.267 -68.5286 221.175 -68.3403 221.056C-63.1387 217.686 -57.9357 214.315 -52.7312 210.943C-52.5531 210.828 -52.3979 210.677 -52.215 210.531C-52.2745 210.45 -52.3452 210.378 -52.4251 210.317C-65.0038 203.901 -77.5632 197.495 -90.1033 191.099C-90.4379 191.149 -90.7507 191.296 -91.004 191.52C-94.0226 193.468 -97.0369 195.419 -100.047 197.373ZM-48.9638 208.505C-44.9846 205.927 -41.0054 203.349 -37.0262 200.771C-35.6397 199.872 -34.2473 198.97 -32.8491 198.064C-32.5919 197.898 -32.3454 197.719 -32.124 197.57C-32.0509 196.873 -32.9938 177.554 -33.155 176.27C-33.3302 175.999 -33.6401 175.916 -33.9086 175.781C-38.4616 173.456 -43.009 171.137 -47.551 168.826C-48.8516 168.164 -50.1511 167.503 -51.4493 166.841C-51.6969 166.715 -51.9504 166.598 -52.2255 166.467C-53.0544 166.898 -69.4341 177.542 -69.9286 177.959C-69.9914 178.652 -68.9839 198.528 -68.8382 199.327L-49.8373 209.012C-49.5387 208.847 -49.2452 208.688 -48.966 208.507L-48.9638 208.505ZM-110.448 158.316L-108.391 198.88C-108.376 199.183 -108.348 199.477 -108.314 199.886C-107.548 199.521 -92.0798 189.499 -91.491 188.986C-92.2044 175.038 -92.9171 161.054 -93.6291 147.035C-93.6467 146.876 -93.6726 146.719 -93.7065 146.564C-93.8433 146.602 -93.9774 146.649 -94.108 146.705C-94.2814 146.799 -94.4377 146.919 -94.6026 147.025C-99.6195 150.276 -104.637 153.527 -109.656 156.778C-110.586 157.39 -110.508 157.215 -110.45 158.317L-110.448 158.316ZM-55.7702 121.906C-56.1 122.12 -56.3465 122.245 -56.5774 122.395L-90.781 144.556C-91.3966 144.955 -91.401 144.957 -91.3615 145.712C-91.1086 150.698 -90.8547 155.683 -90.5998 160.666L-89.2099 187.964C-89.1972 188.268 -89.1713 188.563 -89.141 188.856C-88.4962 189.33 -75.5138 196.023 -71.7865 197.816C-71.6659 197.872 -71.5349 197.906 -71.3801 197.961C-71.2752 197.689 -71.2511 197.391 -71.3107 197.105C-71.443 194.331 -71.5825 191.56 -71.7293 188.789C-71.8655 186.1 -72.0025 183.41 -72.1402 180.722L-73.4724 155.016C-73.4898 154.681 -73.4942 154.346 -73.506 153.976L-54.6696 141.772L-55.6494 122.334C-55.6801 122.189 -55.7212 122.047 -55.7724 121.908L-55.7702 121.906ZM-35.6991 152.885C-35.7037 152.846 -35.712 152.807 -35.7237 152.77C-35.7325 152.745 -35.7471 152.722 -35.7665 152.704C-35.9114 152.62 -36.0556 152.532 -36.2043 152.457C-41.8961 149.549 -47.5888 146.645 -53.187 143.796C-53.3227 143.784 -53.348 143.778 -53.3749 143.78C-53.4034 143.785 -53.4309 143.795 -53.4567 143.808C-53.549 143.868 -53.6564 143.909 -53.7487 143.969C-59.4486 147.662 -65.1485 151.355 -70.8484 155.048C-70.9136 155.097 -70.9746 155.151 -71.0307 155.21C-71.0984 155.828 -70.1999 173.99 -70.0579 175.018C-69.9171 175.139 -69.7995 175.041 -69.6846 174.973C-69.4977 174.852 -69.3064 174.728 -69.1195 174.607C-58.2386 167.557 -47.3592 160.508 -36.4812 153.46C-36.1967 153.31 -35.9361 153.118 -35.7079 152.891L-35.6991 152.885ZM6.03377 171.034L5.03921 151.389L-53.0077 121.796C-53.0727 121.763 -53.1615 121.78 -53.2544 121.771C-53.2928 121.849 -53.3181 121.931 -53.3296 122.017C-53.0045 128.536 -52.6823 135.06 -52.3495 141.489L-52.2484 141.646C-52.2316 141.668 -52.2106 141.688 -52.1866 141.702C-45.9555 144.896 -39.7187 148.088 -33.4764 151.276C-20.3934 157.944 -7.30989 164.61 5.77413 171.274C5.80053 171.281 5.82795 171.284 5.85538 171.283C5.88371 171.284 5.90997 171.276 5.95434 171.272C5.98237 171.185 6.03717 171.106 6.03377 171.034ZM4.84284 173.531C4.62508 173.31 4.35852 173.143 4.0645 173.043C1.04517 171.495 -1.97566 169.951 -4.998 168.411L-32.266 154.503C-33.2837 153.982 -33.0671 153.979 -33.9905 154.578C-39.0294 157.842 -44.0682 161.107 -49.1071 164.372C-49.3844 164.499 -49.6301 164.686 -49.8264 164.919C-49.6778 165.225 -49.3776 165.274 -49.133 165.406C-45.5439 167.243 -41.9505 169.076 -38.3526 170.907C-29.8135 175.261 -21.2724 179.611 -12.7293 183.958C-11.7116 184.479 -11.9425 184.522 -10.9188 183.862C-5.92826 180.629 -0.936284 177.394 4.05716 174.159C4.35897 174.008 4.62531 173.795 4.83844 173.534L4.84284 173.531ZM-12.9174 186.505L-30.3664 177.606C-30.4878 177.563 -30.6129 177.531 -30.7401 177.511C-30.8368 178.354 -30.7071 179.157 -30.6756 179.966C-30.6441 180.776 -30.598 181.589 -30.5534 182.4L-30.4321 184.837L-30.3085 187.273L-30.1827 189.707L-30.0591 192.143C-30.0189 192.956 -29.9816 193.766 -29.9355 194.579C-29.8895 195.392 -29.8259 196.193 -29.7909 197.013C-29.7558 197.833 -29.7024 198.691 -29.6582 199.53C-29.614 200.369 -29.5792 201.155 -29.5454 201.954L-29.4203 204.392L-29.2946 206.827L-29.1724 209.26L-29.0488 211.696L-28.9253 214.132L-28.8017 216.567C-28.7607 217.377 -28.7147 218.19 -28.6759 219.002C-28.6371 219.813 -28.6012 220.62 -28.5621 221.466L-47.315 233.616C-47.3859 234.311 -46.47 252.586 -46.336 253.395C-46.1952 253.516 -46.0742 253.428 -45.9599 253.354C-45.7708 253.232 -45.5839 253.111 -45.3927 252.987C-34.1145 245.679 -22.8357 238.372 -11.5561 231.064C-10.5888 230.437 -10.6564 230.665 -10.717 229.468L-12.8585 187.391C-12.8731 187.113 -12.897 186.835 -12.9218 186.508L-12.9174 186.505ZM8.41055 218.055C8.41736 217.992 8.41967 217.928 8.41743 217.864L6.28076 175.861C6.26938 175.786 6.24888 175.712 6.2197 175.642C6.0468 175.529 5.93975 175.658 5.83138 175.722C5.63519 175.833 5.45324 175.967 5.26637 176.088L-10.5868 186.359C-9.8688 200.44 -9.15054 214.498 -8.43201 228.534C-8.41756 228.633 -8.39202 228.731 -8.35589 228.825C-8.26002 228.828 -8.19713 228.853 -8.15833 228.831C-7.32403 228.375 7.89061 218.477 8.40616 218.058L8.41055 218.055Z" fill="#D7D8DD"/>
</g>
<g clip-path="url(#clip2_1321_2210)">
<path d="M6.72217 151.637C6.69639 151.649 6.66916 151.657 6.6412 151.662C6.61414 151.664 6.58686 151.664 6.55983 151.661C5.67303 151.299 -54.6374 120.501 -55.2012 120.108L-58.7156 50.9901C-58.6673 50.9199 -58.6126 50.8542 -58.5524 50.7939C-58.3925 50.6778 -58.2305 50.5666 -58.0663 50.4602C-38.8928 38.0376 -19.7162 25.6213 -0.536516 13.2113C-0.511381 13.1993 -0.484146 13.1922 -0.456322 13.1906C-0.434334 13.1763 -0.398887 13.1877 -0.312336 13.1815C-0.0379892 13.3159 0.292649 13.4794 0.613073 13.6463L51.3323 39.5224C54.3814 41.0844 57.4283 42.6395 60.4728 44.1878C61.5049 44.7208 61.3634 44.4785 61.436 45.7081C61.4863 46.7493 61.5337 47.786 61.5921 48.8157C62.6872 70.2386 63.7793 91.6602 64.8685 113.081C64.8809 113.36 64.8837 113.639 64.8901 113.875C64.8471 113.936 64.7971 113.991 64.7412 114.04C45.6629 126.401 26.5868 138.767 7.51272 151.138C7.2612 151.313 6.99466 151.47 6.72217 151.637ZM-53.9414 99.708C-53.7608 103.52 -53.5687 107.328 -53.3652 111.133L-53.0202 117.852C-53.0048 117.991 -52.9982 118.132 -53.0003 118.273C-53.0139 118.426 -52.9757 118.58 -52.8918 118.71C-52.8079 118.839 -52.6832 118.937 -52.5374 118.987C-51.3578 119.574 -50.1975 120.19 -49.0151 120.781L4.40142 148.031C4.68445 148.218 4.99756 148.354 5.32693 148.434C5.36089 148.337 5.41273 148.263 5.4079 148.188C5.08214 141.663 4.75494 135.136 4.41579 128.523C-15.0342 118.605 -34.4551 108.699 -53.8467 98.8039C-53.9775 99.0865 -54.0108 99.4045 -53.9414 99.708ZM14.9197 120.3C17.4113 118.686 19.908 117.068 22.4099 115.447C22.6649 115.282 22.915 115.105 23.1995 114.908L22.2037 95.4109C22.1933 95.3176 22.1743 95.2254 22.147 95.1355C21.9487 95.0268 21.8403 95.1438 21.7297 95.2092C21.5648 95.3161 21.4 95.4229 21.2351 95.5297C10.3336 102.593 -0.568542 109.656 -11.4715 116.72L-12.2651 117.235C-12.1654 117.389 -12.1402 117.466 -12.107 117.479C-6.29636 120.454 -0.491932 123.423 5.30627 126.385C5.70692 126.363 5.95504 126.115 6.23205 125.935C9.13699 124.05 12.0229 122.174 14.9197 120.3ZM-45.9171 92.0712L-51.9936 96.0082C-52.2508 96.1749 -52.5058 96.3401 -52.7369 96.5086C-52.7028 96.8454 -52.4432 96.8801 -52.257 96.9748C-50.6904 97.7868 -49.1193 98.5897 -47.5438 99.3835C-36.8904 104.823 -26.2354 110.26 -15.5786 115.695C-15.331 115.822 -15.0783 115.942 -14.8076 116.076C-14.5983 115.965 -14.3987 115.873 -14.2104 115.755C-9.00887 112.384 -3.80584 109.013 1.39866 105.641C1.57673 105.526 1.73201 105.375 1.91486 105.229C1.85541 105.148 1.78466 105.076 1.70477 105.015C-10.8739 98.5989 -23.4333 92.1929 -35.9734 85.7972C-36.308 85.8477 -36.6209 85.994 -36.8741 86.2185C-39.8928 88.1659 -42.9071 90.1168 -45.9171 92.0712ZM5.16604 103.204C9.14526 100.625 13.1245 98.0472 17.1037 95.4691C18.4902 94.5707 19.8826 93.6686 21.2808 92.7627C21.538 92.596 21.7845 92.4176 22.0059 92.2679C22.0789 91.5714 21.1361 72.2525 20.9749 70.968C20.7997 70.6975 20.4898 70.6143 20.2213 70.4793C15.6683 68.1541 11.1209 65.8357 6.57891 63.5242C5.27825 62.8625 3.97879 62.2009 2.68054 61.5397C2.43298 61.4129 2.17947 61.2962 1.90435 61.1655C1.07546 61.5964 -15.3042 72.2401 -15.7987 72.6572C-15.8615 73.3503 -14.854 93.2266 -14.7083 94.0249L4.29258 103.71C4.5912 103.545 4.88464 103.386 5.16385 103.205L5.16604 103.204ZM-56.3181 53.0139L-54.2607 93.5786C-54.2458 93.881 -54.2177 94.175 -54.1838 94.5837C-53.4183 94.2188 -37.9499 84.1968 -37.3612 83.6843C-38.0746 69.7363 -38.7872 55.7525 -39.4992 41.7329C-39.5168 41.5746 -39.5427 41.4173 -39.5766 41.2617C-39.7134 41.2999 -39.8476 41.3472 -39.9781 41.4033C-40.1515 41.4969 -40.3079 41.6169 -40.4727 41.7237C-45.4896 44.9742 -50.5073 48.2252 -55.5256 51.4766C-56.4557 52.0885 -56.3786 51.9137 -56.3203 53.0153L-56.3181 53.0139ZM-1.64036 16.6046C-1.97013 16.8183 -2.21663 16.9436 -2.44747 17.0932L-36.6512 39.254C-37.2667 39.6528 -37.2711 39.6556 -37.2316 40.4104C-36.9787 45.3967 -36.7248 50.3814 -36.4699 55.3643L-35.0801 82.662C-35.0673 82.9659 -35.0414 83.2613 -35.0111 83.5537C-34.3663 84.0287 -21.3839 90.7215 -17.6567 92.5141C-17.536 92.5702 -17.405 92.6039 -17.2502 92.6597C-17.1453 92.3868 -17.1212 92.0894 -17.1809 91.8032C-17.3131 89.0297 -17.4526 86.2579 -17.5994 83.4876C-17.7357 80.7979 -17.8726 78.1086 -18.0103 75.4199L-19.3425 49.7142C-19.3599 49.379 -19.3643 49.0447 -19.3762 48.6747L-0.539715 36.4705L-1.51953 17.032C-1.55024 16.8872 -1.59136 16.7449 -1.64256 16.606L-1.64036 16.6046ZM18.4308 47.5831C18.4261 47.5441 18.4179 47.5056 18.4062 47.468C18.3974 47.4429 18.3828 47.4203 18.3634 47.4021C18.2185 47.3181 18.0743 47.2304 17.9256 47.1551C12.2337 44.2475 6.54109 41.3435 0.942921 38.4939C0.8072 38.4819 0.781842 38.4765 0.754935 38.4783C0.726492 38.4837 0.69897 38.4931 0.67319 38.5063C0.580854 38.5661 0.473495 38.6076 0.381165 38.6674C-5.31872 42.3604 -11.0186 46.0534 -16.7185 49.7464C-16.7837 49.7951 -16.8447 49.8492 -16.9008 49.9082C-16.9685 50.5264 -16.07 68.6879 -15.928 69.7164C-15.7872 69.8374 -15.6696 69.7394 -15.5547 69.6712C-15.3678 69.5501 -15.1765 69.4262 -14.9897 69.3051C-4.10874 62.2553 6.77072 55.2065 17.6487 48.1585C17.9332 48.0078 18.1938 47.8159 18.422 47.5888L18.4308 47.5831ZM60.1636 65.7318L59.1691 46.0875L1.12217 16.494C1.05721 16.4612 0.968347 16.4782 0.875453 16.4697C0.837132 16.5468 0.811742 16.6297 0.800301 16.715C1.12542 23.234 1.44756 29.758 1.78039 36.1877L1.88152 36.3438C1.89827 36.3665 1.91924 36.3858 1.94326 36.4005C8.1744 39.5945 14.4111 42.7858 20.6535 45.9745C33.7365 52.6427 46.82 59.3085 59.904 65.9718C59.9304 65.9793 59.9578 65.9826 59.9853 65.9816C60.0136 65.982 60.0399 65.9743 60.0842 65.9705C60.1123 65.8837 60.1671 65.8045 60.1636 65.7318ZM58.9727 68.2295C58.755 68.0082 58.4884 67.841 58.1944 67.7412C55.1751 66.1932 52.1542 64.6494 49.1319 63.1096L21.8639 49.2012C20.8462 48.6807 21.0628 48.6777 20.1394 49.276C15.1005 52.5407 10.0616 55.8054 5.02276 59.0701C4.74546 59.197 4.49979 59.3839 4.30353 59.6173C4.45209 59.9237 4.75226 59.9727 4.99685 60.1045C8.58594 61.9409 12.1794 63.7744 15.7773 65.6051C24.3164 69.9589 32.8575 74.3093 41.4006 78.6563C42.4183 79.1768 42.1874 79.2203 43.2111 78.5602C48.2016 75.3268 53.1936 72.0925 58.187 68.8572C58.4889 68.7067 58.7552 68.4937 58.9683 68.2324L58.9727 68.2295ZM41.2125 81.2035L23.7635 72.3044C23.6421 72.2615 23.517 72.2297 23.3898 72.2094C23.293 73.0524 23.4228 73.8548 23.4543 74.6647C23.4858 75.4745 23.5318 76.2875 23.5764 77.0982L23.6978 79.5354L23.8214 81.9711L23.9472 84.4054L24.0708 86.8411C24.111 87.6547 24.1483 88.4639 24.1943 89.2769C24.2404 90.0898 24.304 90.8914 24.339 91.7114C24.374 92.5315 24.4275 93.3896 24.4717 94.2286C24.5159 95.0677 24.5507 95.8536 24.5845 96.6526L24.7095 99.0905L24.8353 101.525L24.9575 103.958L25.0811 106.394L25.2046 108.83L25.3282 111.266C25.3692 112.076 25.4152 112.888 25.454 113.7C25.4928 114.511 25.5287 115.318 25.5677 116.164L6.81485 128.314C6.74399 129.009 7.65985 147.284 7.79385 148.093C7.93467 148.214 8.0557 148.126 8.17002 148.052C8.35909 147.93 8.54596 147.809 8.73723 147.685C20.0153 140.378 31.2942 133.07 42.5738 125.762C43.5411 125.135 43.4734 125.363 43.4128 124.166L41.2713 82.0893C41.2568 81.8115 41.2328 81.5337 41.2081 81.2064L41.2125 81.2035ZM62.5404 112.754C62.5472 112.69 62.5496 112.626 62.5473 112.562L60.4106 70.5597C60.3993 70.4843 60.3788 70.4106 60.3496 70.3402C60.1767 70.2275 60.0696 70.3561 59.9613 70.4201C59.7651 70.5316 59.5831 70.6651 59.3963 70.7862L43.5431 81.0575C44.2611 95.1377 44.9793 109.196 45.6979 123.232C45.7123 123.332 45.7379 123.429 45.774 123.523C45.8699 123.527 45.9328 123.551 45.9716 123.529C46.8058 123.073 62.0205 113.175 62.536 112.756L62.5404 112.754Z" fill="#D7D8DD"/>
</g>
<g clip-path="url(#clip3_1321_2210)">
<path d="M70.822 250.568C70.7962 250.58 70.769 250.588 70.7411 250.592C70.714 250.595 70.6867 250.595 70.6597 250.592C69.7729 250.23 9.46241 219.431 8.89863 219.038L5.38429 149.921C5.4326 149.851 5.48722 149.785 5.54744 149.725C5.70736 149.608 5.8694 149.497 6.03355 149.391C25.2071 136.968 44.3837 124.552 63.5633 112.142C63.5885 112.13 63.6157 112.123 63.6435 112.121C63.6655 112.107 63.701 112.118 63.7875 112.112C64.0619 112.247 64.3925 112.41 64.7129 112.577L115.432 138.453C118.481 140.015 121.528 141.57 124.573 143.118C125.605 143.652 125.463 143.409 125.536 144.639C125.586 145.68 125.634 146.717 125.692 147.746C126.787 169.169 127.879 190.591 128.968 212.011C128.981 212.29 128.984 212.569 128.99 212.806C128.947 212.866 128.897 212.922 128.841 212.971C109.763 225.332 90.6866 237.698 71.6126 250.068C71.3611 250.244 71.0945 250.401 70.822 250.568ZM10.1584 198.639C10.3391 202.45 10.5311 206.259 10.7346 210.064L11.0797 216.782C11.095 216.922 11.1017 217.063 11.0996 217.203C11.086 217.357 11.1242 217.511 11.2081 217.64C11.2919 217.77 11.4167 217.867 11.5625 217.918C12.7421 218.505 13.9024 219.12 15.0848 219.712L68.5013 246.962C68.7843 247.148 69.0974 247.284 69.4268 247.364C69.4607 247.267 69.5126 247.193 69.5078 247.118C69.182 240.593 68.8548 234.067 68.5156 227.454C49.0656 217.536 29.6448 207.63 10.2531 197.735C10.1224 198.017 10.0891 198.335 10.1584 198.639ZM79.0196 219.231C81.5112 217.617 84.0079 215.999 86.5097 214.378C86.7648 214.213 87.0149 214.035 87.2994 213.838L86.3036 194.342C86.2931 194.248 86.2742 194.156 86.2469 194.066C86.0485 193.957 85.9402 194.075 85.8296 194.14C85.6647 194.247 85.4998 194.354 85.3349 194.46C74.4335 201.523 63.5313 208.587 52.6284 215.651L51.8348 216.165C51.9345 216.319 51.9596 216.397 51.9929 216.409C57.8035 219.385 63.6079 222.354 69.4061 225.316C69.8068 225.294 70.0549 225.046 70.3319 224.866C73.2368 222.981 76.1228 221.105 79.0196 219.231ZM18.1828 191.002L12.1062 194.939C11.849 195.106 11.594 195.271 11.3629 195.439C11.397 195.776 11.6567 195.811 11.8429 195.905C13.4095 196.717 14.9805 197.52 16.5561 198.314C27.2094 203.754 37.8645 209.191 48.5213 214.626C48.7688 214.753 49.0216 214.873 49.2923 215.007C49.5016 214.896 49.7011 214.804 49.8894 214.685C55.091 211.315 60.294 207.944 65.4985 204.572C65.6766 204.457 65.8319 204.306 66.0147 204.16C65.9553 204.079 65.8845 204.007 65.8046 203.946C53.226 197.53 40.6666 191.124 28.1264 184.728C27.7918 184.778 27.479 184.925 27.2257 185.149C24.2071 187.097 21.1928 189.048 18.1828 191.002ZM69.2659 202.134C73.2451 199.556 77.2243 196.978 81.2036 194.4C82.5901 193.501 83.9824 192.599 85.3806 191.693C85.6379 191.527 85.8843 191.348 86.1057 191.199C86.1788 190.502 85.2359 171.183 85.0747 169.899C84.8995 169.628 84.5896 169.545 84.3211 169.41C79.7682 167.085 75.2207 164.766 70.6788 162.455C69.3781 161.793 68.0786 161.132 66.7804 160.47C66.5328 160.344 66.2793 160.227 66.0042 160.096C65.1753 160.527 48.7956 171.171 48.3012 171.588C48.2383 172.281 49.2458 192.157 49.3916 192.956L68.3924 202.641C68.6911 202.475 68.9845 202.317 69.2637 202.136L69.2659 202.134ZM7.78171 151.945L9.83912 192.509C9.85405 192.812 9.88217 193.106 9.91605 193.514C10.6816 193.15 26.15 183.127 26.7387 182.615C26.0253 168.667 25.3126 154.683 24.6006 140.664C24.583 140.505 24.5572 140.348 24.5232 140.192C24.3864 140.231 24.2523 140.278 24.1218 140.334C23.9483 140.428 23.792 140.548 23.6271 140.654C18.6102 143.905 13.5926 147.156 8.57423 150.407C7.64416 151.019 7.72129 150.844 7.77951 151.946L7.78171 151.945ZM62.4595 115.535C62.1297 115.749 61.8832 115.874 61.6524 116.024L27.4487 138.185C26.8331 138.583 26.8287 138.586 26.8682 139.341C27.1212 144.327 27.3751 149.312 27.63 154.295L29.0198 181.593C29.0325 181.897 29.0585 182.192 29.0888 182.484C29.7336 182.959 42.716 189.652 46.4432 191.445C46.5638 191.501 46.6949 191.535 46.8496 191.59C46.9545 191.317 46.9786 191.02 46.919 190.734C46.7868 187.96 46.6472 185.189 46.5004 182.418C46.3642 179.729 46.2272 177.039 46.0895 174.351L44.7573 148.645C44.7399 148.31 44.7356 147.975 44.7237 147.605L63.5601 135.401L62.5803 115.963C62.5496 115.818 62.5085 115.676 62.4573 115.537L62.4595 115.535ZM82.5307 146.514C82.526 146.475 82.5177 146.436 82.506 146.399C82.4973 146.374 82.4826 146.351 82.4633 146.333C82.3183 146.249 82.1742 146.161 82.0255 146.086C76.3336 143.178 70.6409 140.274 65.0428 137.425C64.9071 137.413 64.8817 137.407 64.8548 137.409C64.8263 137.414 64.7988 137.424 64.773 137.437C64.6807 137.497 64.5733 137.538 64.481 137.598C58.7811 141.291 53.0813 144.984 47.3814 148.677C47.3161 148.726 47.2552 148.78 47.1991 148.839C47.1314 149.457 48.0298 167.619 48.1718 168.647C48.3127 168.768 48.4302 168.67 48.5452 168.602C48.7321 168.481 48.9233 168.357 49.1102 168.236C59.9911 161.186 70.8706 154.137 81.7486 147.089C82.033 146.939 82.2936 146.747 82.5219 146.52L82.5307 146.514ZM124.264 164.662L123.269 145.018L65.222 115.425C65.1571 115.392 65.0682 115.409 64.9753 115.4C64.937 115.477 64.9116 115.56 64.9002 115.646C65.2253 122.165 65.5474 128.689 65.8802 135.118L65.9814 135.274C65.9981 135.297 66.0191 135.316 66.0431 135.331C72.2743 138.525 78.511 141.716 84.7533 144.905C97.8363 151.573 110.92 158.239 124.004 164.902C124.03 164.91 124.058 164.913 124.085 164.912C124.113 164.913 124.14 164.905 124.184 164.901C124.212 164.814 124.267 164.735 124.264 164.662ZM123.073 167.16C122.855 166.939 122.588 166.772 122.294 166.672C119.275 165.124 116.254 163.58 113.232 162.04L85.9637 148.132C84.946 147.611 85.1626 147.608 84.2393 148.207C79.2004 151.471 74.1615 154.736 69.1226 158.001C68.8453 158.128 68.5996 158.315 68.4034 158.548C68.5519 158.854 68.8521 158.903 69.0967 159.035C72.6858 160.872 76.2793 162.705 79.8771 164.536C88.4163 168.89 96.9574 173.24 105.5 177.587C106.518 178.107 106.287 178.151 107.311 177.491C112.301 174.257 117.293 171.023 122.287 167.788C122.589 167.637 122.855 167.424 123.068 167.163L123.073 167.16ZM105.312 180.134L87.8634 171.235C87.7419 171.192 87.6169 171.16 87.4897 171.14C87.3929 171.983 87.5226 172.785 87.5541 173.595C87.5857 174.405 87.6317 175.218 87.6763 176.029L87.7977 178.466L87.9213 180.902L88.047 183.336L88.1706 185.772C88.2108 186.585 88.2482 187.395 88.2942 188.208C88.3402 189.02 88.4038 189.822 88.4389 190.642C88.4739 191.462 88.5273 192.32 88.5715 193.159C88.6158 193.998 88.6505 194.784 88.6844 195.583L88.8094 198.021L88.9352 200.456L89.0573 202.889L89.1809 205.325L89.3045 207.76L89.4281 210.196C89.469 211.006 89.5151 211.819 89.5538 212.631C89.5926 213.442 89.6286 214.249 89.6676 215.094L70.9147 227.245C70.8438 227.94 71.7597 246.215 71.8937 247.024C72.0345 247.145 72.1556 247.057 72.2699 246.983C72.4589 246.86 72.6458 246.739 72.8371 246.615C84.1152 239.308 95.394 232.001 106.674 224.693C107.641 224.066 107.573 224.294 107.513 223.097L105.371 181.02C105.357 180.742 105.333 180.464 105.308 180.137L105.312 180.134ZM126.64 211.684C126.647 211.621 126.649 211.557 126.647 211.493L124.51 169.49C124.499 169.415 124.479 169.341 124.449 169.271C124.277 169.158 124.169 169.287 124.061 169.351C123.865 169.462 123.683 169.596 123.496 169.717L107.643 179.988C108.361 194.068 109.079 208.127 109.798 222.163C109.812 222.262 109.838 222.36 109.874 222.454C109.97 222.457 110.033 222.482 110.071 222.46C110.906 222.004 126.12 212.105 126.636 211.687L126.64 211.684Z" fill="#D7D8DD"/>
</g>
<g clip-path="url(#clip4_1321_2210)">
<path d="M17.7771 356.101C17.7513 356.113 17.7241 356.121 17.6961 356.126C17.6691 356.128 17.6418 356.128 17.6148 356.125C16.728 355.763 -43.5825 324.965 -44.1463 324.571L-47.6606 255.454C-47.6123 255.384 -47.5577 255.318 -47.4975 255.258C-47.3376 255.142 -47.1755 255.03 -47.0114 254.924C-27.8378 242.501 -8.66124 230.085 10.5184 217.675C10.5436 217.663 10.5708 217.656 10.5986 217.654C10.6206 217.64 10.656 217.652 10.7426 217.645C11.0169 217.78 11.3476 217.943 11.668 218.11L62.3872 243.986C65.4364 245.548 68.4832 247.103 71.5277 248.652C72.5598 249.185 72.4184 248.942 72.4909 250.172C72.5412 251.213 72.5886 252.25 72.6471 253.28C73.7421 274.702 74.8342 296.124 75.9235 317.544C75.9358 317.824 75.9387 318.103 75.945 318.339C75.902 318.4 75.852 318.455 75.7961 318.504C56.7178 330.865 37.6417 343.231 18.5677 355.601C18.3161 355.777 18.0496 355.934 17.7771 356.101ZM-42.8865 304.172C-42.7058 307.984 -42.5138 311.792 -42.3103 315.597L-41.9653 322.316C-41.9499 322.455 -41.9432 322.596 -41.9454 322.736C-41.9589 322.89 -41.9207 323.044 -41.8369 323.173C-41.753 323.303 -41.6282 323.401 -41.4824 323.451C-40.3029 324.038 -39.1425 324.654 -37.9601 325.245L15.4564 352.495C15.7394 352.682 16.0525 352.818 16.3819 352.897C16.4158 352.801 16.4677 352.726 16.4628 352.651C16.1371 346.127 15.8099 339.6 15.4707 332.987C-3.97928 323.069 -23.4001 313.163 -42.7918 303.268C-42.9226 303.55 -42.9559 303.868 -42.8865 304.172ZM25.9746 324.764C28.4662 323.15 30.963 321.532 33.4648 319.911C33.7198 319.746 33.9699 319.568 34.2544 319.372L33.2587 299.875C33.2482 299.781 33.2292 299.689 33.202 299.599C33.0036 299.491 32.8952 299.608 32.7847 299.673C32.6198 299.78 32.4549 299.887 32.29 299.994C21.3886 307.057 10.4864 314.12 -0.416523 321.184L-1.21017 321.699C-1.11047 321.852 -1.08532 321.93 -1.05206 321.943C4.75857 324.918 10.563 327.887 16.3612 330.849C16.7619 330.827 17.01 330.579 17.287 330.399C20.1919 328.514 23.0778 326.638 25.9746 324.764ZM-34.8621 296.535L-40.9387 300.472C-41.1959 300.639 -41.4509 300.804 -41.682 300.972C-41.6479 301.309 -41.3882 301.344 -41.202 301.439C-39.6355 302.251 -38.0644 303.054 -36.4889 303.847C-25.8355 309.287 -15.1804 314.724 -4.52364 320.159C-4.27608 320.286 -4.02334 320.406 -3.75262 320.54C-3.54336 320.429 -3.3438 320.337 -3.1555 320.218C2.04607 316.848 7.24909 313.477 12.4536 310.105C12.6317 309.99 12.7869 309.839 12.9698 309.693C12.9103 309.612 12.8396 309.54 12.7597 309.479C0.181058 303.063 -12.3783 296.657 -24.9185 290.261C-25.2531 290.312 -25.5659 290.458 -25.8192 290.682C-28.8378 292.63 -31.8521 294.581 -34.8621 296.535ZM16.221 307.667C20.2002 305.089 24.1794 302.511 28.1586 299.933C29.5451 299.035 30.9375 298.132 32.3357 297.227C32.5929 297.06 32.8394 296.881 33.0608 296.732C33.1339 296.035 32.191 276.716 32.0298 275.432C31.8546 275.161 31.5447 275.078 31.2762 274.943C26.7233 272.618 22.1758 270.3 17.6338 267.988C16.3332 267.326 15.0337 266.665 13.7355 266.004C13.4879 265.877 13.2344 265.76 12.9593 265.629C12.1304 266.06 -4.24929 276.704 -4.74376 277.121C-4.80661 277.814 -3.79911 297.69 -3.65335 298.489L15.3475 308.174C15.6461 308.009 15.9396 307.85 16.2188 307.669L16.221 307.667ZM-45.2632 257.478L-43.2058 298.042C-43.1909 298.345 -43.1628 298.639 -43.1289 299.048C-42.3633 298.683 -26.895 288.661 -26.3062 288.148C-27.0196 274.2 -27.7323 260.216 -28.4443 246.197C-28.4619 246.038 -28.4877 245.881 -28.5217 245.726C-28.6585 245.764 -28.7926 245.811 -28.9232 245.867C-29.0966 245.961 -29.2529 246.081 -29.4178 246.188C-34.4347 249.438 -39.4523 252.689 -44.4707 255.94C-45.4008 256.552 -45.3236 256.378 -45.2654 257.479L-45.2632 257.478ZM9.41457 221.068C9.0848 221.282 8.8383 221.408 8.60746 221.557L-25.5962 243.718C-26.2118 244.117 -26.2162 244.12 -26.1767 244.874C-25.9238 249.861 -25.6699 254.845 -25.4149 259.828L-24.0251 287.126C-24.0124 287.43 -23.9865 287.725 -23.9562 288.018C-23.3113 288.493 -10.3289 295.185 -6.60172 296.978C-6.48111 297.034 -6.35004 297.068 -6.19528 297.124C-6.09038 296.851 -6.0663 296.553 -6.12593 296.267C-6.25816 293.494 -6.39768 290.722 -6.54449 287.951C-6.68073 285.262 -6.8177 282.572 -6.9554 279.884L-8.28761 254.178C-8.30501 253.843 -8.30936 253.509 -8.32122 253.139L10.5152 240.934L9.5354 221.496C9.50469 221.351 9.46358 221.209 9.41237 221.07L9.41457 221.068ZM29.4857 252.047C29.4811 252.008 29.4728 251.969 29.4611 251.932C29.4524 251.907 29.4377 251.884 29.4184 251.866C29.2734 251.782 29.1292 251.694 28.9806 251.619C23.2887 248.711 17.596 245.807 11.9979 242.958C11.8621 242.946 11.8368 242.94 11.8099 242.942C11.7814 242.948 11.7539 242.957 11.7281 242.97C11.6358 243.03 11.5284 243.071 11.4361 243.131C5.73621 246.824 0.0363318 250.517 -5.66355 254.21C-5.72878 254.259 -5.78977 254.313 -5.84586 254.372C-5.91355 254.99 -5.01509 273.152 -4.87307 274.18C-4.73225 274.301 -4.61471 274.203 -4.49974 274.135C-4.31287 274.014 -4.1216 273.89 -3.93473 273.769C6.9462 266.719 17.8257 259.67 28.7036 252.622C28.9881 252.472 29.2487 252.28 29.477 252.053L29.4857 252.047ZM71.2186 270.196L70.224 250.551L12.1771 220.958C12.1121 220.925 12.0233 220.942 11.9304 220.934C11.8921 221.011 11.8667 221.094 11.8552 221.179C12.1804 227.698 12.5025 234.222 12.8353 240.652L12.9365 240.808C12.9532 240.83 12.9742 240.85 12.9982 240.864C19.2293 244.058 25.4661 247.25 31.7084 250.438C44.7914 257.107 57.8749 263.772 70.9589 270.436C70.9853 270.443 71.0128 270.446 71.0402 270.445C71.0685 270.446 71.0948 270.438 71.1392 270.434C71.1672 270.348 71.222 270.268 71.2186 270.196ZM70.0277 272.693C69.8099 272.472 69.5433 272.305 69.2493 272.205C66.23 270.657 63.2092 269.113 60.1868 267.573L32.9188 253.665C31.9011 253.145 32.1177 253.142 31.1943 253.74C26.1555 257.005 21.1166 260.269 16.0777 263.534C15.8004 263.661 15.5547 263.848 15.3585 264.081C15.507 264.388 15.8072 264.437 16.0518 264.568C19.6409 266.405 23.2344 268.238 26.8322 270.069C35.3713 274.423 43.9125 278.773 52.4555 283.12C53.4732 283.641 53.2423 283.684 54.266 283.024C59.2566 279.791 64.2485 276.556 69.242 273.321C69.5438 273.171 69.8101 272.958 70.0233 272.696L70.0277 272.693ZM52.2674 285.667L34.8184 276.768C34.697 276.725 34.5719 276.694 34.4448 276.673C34.348 277.516 34.4777 278.319 34.5092 279.129C34.5408 279.938 34.5868 280.751 34.6314 281.562L34.7528 283.999L34.8763 286.435L35.0021 288.869L35.1257 291.305C35.1659 292.119 35.2033 292.928 35.2493 293.741C35.2953 294.554 35.3589 295.355 35.3939 296.175C35.429 296.995 35.4824 297.853 35.5266 298.693C35.5709 299.532 35.6056 300.317 35.6395 301.116L35.7645 303.554L35.8902 305.989L36.0124 308.422L36.136 310.858L36.2596 313.294L36.3831 315.729C36.4241 316.539 36.4701 317.352 36.5089 318.164C36.5477 318.975 36.5836 319.782 36.6227 320.628L17.8698 332.778C17.7989 333.473 18.7148 351.748 18.8488 352.557C18.9896 352.678 19.1106 352.59 19.225 352.516C19.414 352.394 19.6009 352.273 19.7922 352.149C31.0703 344.842 42.3491 337.534 53.6287 330.226C54.596 329.599 54.5284 329.827 54.4678 328.63L52.3263 286.553C52.3117 286.275 52.2878 285.998 52.263 285.67L52.2674 285.667ZM73.5954 317.218C73.6022 317.154 73.6045 317.09 73.6022 317.026L71.4656 275.024C71.4542 274.948 71.4337 274.874 71.4045 274.804C71.2316 274.691 71.1246 274.82 71.0162 274.884C70.82 274.995 70.6381 275.129 70.4512 275.25L54.5981 285.521C55.316 299.602 56.0343 313.66 56.7528 327.696C56.7673 327.796 56.7928 327.893 56.8289 327.987C56.9248 327.99 56.9877 328.015 57.0265 327.993C57.8608 327.537 73.0754 317.639 73.591 317.22L73.5954 317.218Z" fill="#D7D8DD"/>
</g>
<g clip-path="url(#clip5_1321_2210)">
<path d="M136.006 349.731C135.981 349.743 135.953 349.751 135.925 349.755C135.898 349.758 135.871 349.758 135.844 349.755C134.957 349.393 74.6467 318.594 74.083 318.201L70.5686 249.084C70.6169 249.014 70.6715 248.948 70.7318 248.888C70.8917 248.772 71.0537 248.66 71.2179 248.554C90.3914 236.131 109.568 223.715 128.748 211.305C128.773 211.293 128.8 211.286 128.828 211.284C128.85 211.27 128.885 211.281 128.972 211.275C129.246 211.41 129.577 211.573 129.897 211.74L180.616 237.616C183.666 239.178 186.712 240.733 189.757 242.282C190.789 242.815 190.648 242.572 190.72 243.802C190.77 244.843 190.818 245.88 190.876 246.909C191.971 268.332 193.063 289.754 194.153 311.174C194.165 311.454 194.168 311.733 194.174 311.969C194.131 312.03 194.081 312.085 194.025 312.134C174.947 324.495 155.871 336.861 136.797 349.231C136.545 349.407 136.279 349.564 136.006 349.731ZM75.3428 297.802C75.5234 301.613 75.7155 305.422 75.919 309.227L76.264 315.945C76.2794 316.085 76.286 316.226 76.2839 316.366C76.2703 316.52 76.3085 316.674 76.3924 316.803C76.4763 316.933 76.601 317.03 76.7468 317.081C77.9264 317.668 79.0867 318.284 80.2691 318.875L133.686 346.125C133.969 346.311 134.282 346.448 134.611 346.527C134.645 346.43 134.697 346.356 134.692 346.281C134.366 339.757 134.039 333.23 133.7 326.617C114.25 316.699 94.8291 306.793 75.4374 296.898C75.3067 297.18 75.2734 297.498 75.3428 297.802ZM144.204 318.394C146.695 316.78 149.192 315.162 151.694 313.541C151.949 313.376 152.199 313.198 152.484 313.001L151.488 293.505C151.477 293.411 151.458 293.319 151.431 293.229C151.233 293.121 151.124 293.238 151.014 293.303C150.849 293.41 150.684 293.517 150.519 293.623C139.618 300.687 128.716 307.75 117.813 314.814L117.019 315.328C117.119 315.482 117.144 315.56 117.177 315.572C122.988 318.548 128.792 321.517 134.59 324.479C134.991 324.457 135.239 324.209 135.516 324.029C138.421 322.144 141.307 320.268 144.204 318.394ZM83.3671 290.165L77.2906 294.102C77.0334 294.269 76.7783 294.434 76.5472 294.602C76.5813 294.939 76.841 294.974 77.0272 295.069C78.5938 295.881 80.1649 296.683 81.7404 297.477C92.3937 302.917 103.049 308.354 113.706 313.789C113.953 313.916 114.206 314.036 114.477 314.17C114.686 314.059 114.885 313.967 115.074 313.848C120.275 310.478 125.478 307.107 130.683 303.735C130.861 303.62 131.016 303.469 131.199 303.323C131.14 303.242 131.069 303.17 130.989 303.109C118.41 296.693 105.851 290.287 93.3107 283.891C92.9761 283.941 92.6633 284.088 92.4101 284.312C89.3914 286.26 86.3771 288.211 83.3671 290.165ZM134.45 301.297C138.429 298.719 142.409 296.141 146.388 293.563C147.774 292.664 149.167 291.762 150.565 290.856C150.822 290.69 151.069 290.511 151.29 290.362C151.363 289.665 150.42 270.346 150.259 269.062C150.084 268.791 149.774 268.708 149.505 268.573C144.953 266.248 140.405 263.929 135.863 261.618C134.562 260.956 133.263 260.295 131.965 259.633C131.717 259.507 131.464 259.39 131.189 259.259C130.36 259.69 113.98 270.334 113.485 270.751C113.423 271.444 114.43 291.32 114.576 292.119L133.577 301.804C133.875 301.639 134.169 301.48 134.448 301.299L134.45 301.297ZM72.966 251.108L75.0234 291.672C75.0384 291.975 75.0665 292.269 75.1004 292.677C75.8659 292.313 91.3343 282.291 91.923 281.778C91.2096 267.83 90.4969 253.846 89.785 239.827C89.7673 239.668 89.7415 239.511 89.7076 239.355C89.5707 239.394 89.4366 239.441 89.3061 239.497C89.1327 239.591 88.9763 239.711 88.8114 239.817C83.7945 243.068 78.7769 246.319 73.7586 249.57C72.8285 250.182 72.9056 250.007 72.9638 251.109L72.966 251.108ZM127.644 214.698C127.314 214.912 127.068 215.037 126.837 215.187L92.633 237.348C92.0174 237.747 92.013 237.749 92.0526 238.504C92.3055 243.49 92.5594 248.475 92.8143 253.458L94.2041 280.756C94.2169 281.06 94.2428 281.355 94.2731 281.647C94.9179 282.122 107.9 288.815 111.628 290.608C111.748 290.664 111.879 290.698 112.034 290.753C112.139 290.481 112.163 290.183 112.103 289.897C111.971 287.123 111.832 284.352 111.685 281.581C111.549 278.892 111.412 276.202 111.274 273.514L109.942 247.808C109.924 247.473 109.92 247.138 109.908 246.768L128.744 234.564L127.765 215.126C127.734 214.981 127.693 214.839 127.642 214.7L127.644 214.698ZM147.715 245.677C147.71 245.638 147.702 245.599 147.69 245.562C147.682 245.537 147.667 245.514 147.648 245.496C147.503 245.412 147.358 245.324 147.21 245.249C141.518 242.341 135.825 239.437 130.227 236.588C130.091 236.576 130.066 236.57 130.039 236.572C130.011 236.577 129.983 236.587 129.957 236.6C129.865 236.66 129.758 236.701 129.665 236.761C123.965 240.454 118.266 244.147 112.566 247.84C112.5 247.889 112.439 247.943 112.383 248.002C112.316 248.62 113.214 266.782 113.356 267.81C113.497 267.931 113.615 267.833 113.73 267.765C113.916 267.644 114.108 267.52 114.295 267.399C125.175 260.349 136.055 253.3 146.933 246.252C147.217 246.102 147.478 245.91 147.706 245.683L147.715 245.677ZM189.448 263.826L188.453 244.181L130.406 214.588C130.341 214.555 130.253 214.572 130.16 214.563C130.121 214.641 130.096 214.723 130.084 214.809C130.41 221.328 130.732 227.852 131.065 234.281L131.166 234.438C131.182 234.46 131.203 234.48 131.227 234.494C137.459 237.688 143.695 240.88 149.938 244.068C163.021 250.736 176.104 257.402 189.188 264.066C189.215 264.073 189.242 264.076 189.269 264.075C189.298 264.076 189.324 264.068 189.368 264.064C189.396 263.977 189.451 263.898 189.448 263.826ZM188.257 266.323C188.039 266.102 187.773 265.935 187.479 265.835C184.459 264.287 181.438 262.743 178.416 261.203L151.148 247.295C150.13 246.774 150.347 246.771 149.424 247.37C144.385 250.634 139.346 253.899 134.307 257.164C134.03 257.291 133.784 257.478 133.588 257.711C133.736 258.017 134.036 258.066 134.281 258.198C137.87 260.035 141.464 261.868 145.061 263.699C153.601 268.053 162.142 272.403 170.685 276.75C171.702 277.271 171.472 277.314 172.495 276.654C177.486 273.421 182.478 270.186 187.471 266.951C187.773 266.8 188.039 266.587 188.252 266.326L188.257 266.323ZM170.497 279.297L153.048 270.398C152.926 270.355 152.801 270.323 152.674 270.303C152.577 271.146 152.707 271.949 152.738 272.758C152.77 273.568 152.816 274.381 152.861 275.192L152.982 277.629L153.106 280.065L153.231 282.499L153.355 284.935C153.395 285.748 153.433 286.558 153.479 287.371C153.525 288.184 153.588 288.985 153.623 289.805C153.658 290.625 153.712 291.483 153.756 292.322C153.8 293.161 153.835 293.947 153.869 294.746L153.994 297.184L154.119 299.619L154.242 302.052L154.365 304.488L154.489 306.924L154.612 309.359C154.653 310.169 154.699 310.982 154.738 311.794C154.777 312.605 154.813 313.412 154.852 314.258L136.099 326.408C136.028 327.103 136.944 345.378 137.078 346.187C137.219 346.308 137.34 346.22 137.454 346.146C137.643 346.024 137.83 345.902 138.021 345.779C149.3 338.471 160.578 331.164 171.858 323.856C172.825 323.229 172.758 323.457 172.697 322.26L170.556 280.183C170.541 279.905 170.517 279.627 170.492 279.3L170.497 279.297ZM191.825 310.847C191.831 310.784 191.834 310.72 191.831 310.656L189.695 268.653C189.683 268.578 189.663 268.504 189.634 268.434C189.461 268.321 189.354 268.45 189.245 268.514C189.049 268.625 188.867 268.759 188.68 268.88L172.827 279.151C173.545 293.231 174.264 307.29 174.982 321.326C174.997 321.425 175.022 321.523 175.058 321.617C175.154 321.62 175.217 321.645 175.256 321.623C176.09 321.167 191.305 311.269 191.82 310.85L191.825 310.847Z" fill="#D7D8DD"/>
</g>
<g clip-path="url(#clip6_1321_2210)">
<path d="M125.171 145.124C125.146 145.135 125.118 145.144 125.09 145.148C125.063 145.151 125.036 145.151 125.009 145.148C124.122 144.786 63.8118 113.987 63.248 113.594L59.7337 44.4764C59.782 44.4062 59.8366 44.3405 59.8968 44.2802C60.0567 44.1641 60.2188 44.0529 60.3829 43.9465C79.5564 31.5239 98.733 19.1076 117.913 6.69763C117.938 6.68558 117.965 6.67853 117.993 6.67689C118.015 6.66264 118.05 6.67401 118.137 6.66788C118.411 6.80226 118.742 6.96572 119.062 7.13267L169.781 33.0088C172.831 34.5707 175.878 36.1258 178.922 37.6741C179.954 38.2072 179.813 37.9648 179.885 39.1944C179.935 40.2356 179.983 41.2724 180.041 42.302C181.136 63.7249 182.229 85.1465 183.318 106.567C183.33 106.846 183.333 107.125 183.339 107.361C183.296 107.422 183.246 107.478 183.19 107.527C164.112 119.887 145.036 132.253 125.962 144.624C125.71 144.799 125.444 144.956 125.171 145.124ZM64.5078 93.1943C64.6884 97.006 64.8805 100.814 65.084 104.62L65.429 111.338C65.4444 111.478 65.4511 111.618 65.4489 111.759C65.4354 111.913 65.4735 112.066 65.5574 112.196C65.6413 112.325 65.7661 112.423 65.9119 112.473C67.0914 113.061 68.2517 113.676 69.4342 114.268L122.851 141.518C123.134 141.704 123.447 141.84 123.776 141.92C123.81 141.823 123.862 141.749 123.857 141.674C123.531 135.149 123.204 128.622 122.865 122.009C103.415 112.092 83.9942 102.185 64.6025 92.2902C64.4717 92.5728 64.4384 92.8908 64.5078 93.1943ZM133.369 113.787C135.861 112.172 138.357 110.555 140.859 108.934C141.114 108.769 141.364 108.591 141.649 108.394L140.653 88.8972C140.643 88.8039 140.624 88.7117 140.596 88.6218C140.398 88.5131 140.29 88.6302 140.179 88.6956C140.014 88.8024 139.849 88.9092 139.684 89.0161C128.783 96.0792 117.881 103.143 106.978 110.207L106.184 110.721C106.284 110.875 106.309 110.952 106.342 110.965C112.153 113.94 117.957 116.909 123.755 119.872C124.156 119.849 124.404 119.601 124.681 119.422C127.586 117.536 130.472 115.66 133.369 113.787ZM72.5322 85.5575L66.4556 89.4946C66.1984 89.6612 65.9434 89.8264 65.7123 89.9949C65.7464 90.3318 66.006 90.3664 66.1923 90.4611C67.7588 91.2732 69.3299 92.0761 70.9054 92.8698C81.5588 98.3092 92.2138 103.746 102.871 109.182C103.118 109.308 103.371 109.429 103.642 109.562C103.851 109.452 104.05 109.36 104.239 109.241C109.44 105.871 114.643 102.5 119.848 99.1277C120.026 99.0123 120.181 98.8617 120.364 98.7152C120.305 98.6343 120.234 98.5624 120.154 98.5017C107.575 92.0852 95.0159 85.6792 82.4758 79.2836C82.1412 79.3341 81.8284 79.4804 81.5751 79.7048C78.5565 81.6523 75.5422 83.6032 72.5322 85.5575ZM123.615 96.6899C127.594 94.1117 131.574 91.5335 135.553 88.9554C136.939 88.0571 138.332 87.1549 139.73 86.249C139.987 86.0824 140.234 85.904 140.455 85.7543C140.528 85.0577 139.585 65.7388 139.424 64.4543C139.249 64.1839 138.939 64.1006 138.67 63.9656C134.118 61.6404 129.57 59.322 125.028 57.0106C123.727 56.3488 122.428 55.6873 121.13 55.026C120.882 54.8992 120.629 54.7826 120.354 54.6518C119.525 55.0827 103.145 65.7264 102.651 66.1436C102.588 66.8366 103.595 86.7129 103.741 87.5112L122.742 97.1965C123.04 97.0311 123.334 96.8722 123.613 96.6913L123.615 96.6899ZM62.1311 46.5002L64.1885 87.0649C64.2034 87.3674 64.2315 87.6613 64.2654 88.0701C65.0309 87.7052 80.4993 77.6831 81.0881 77.1706C80.3747 63.2226 79.662 49.2388 78.95 35.2192C78.9324 35.0609 78.9065 34.9037 78.8726 34.7481C78.7358 34.7863 78.6017 34.8335 78.4711 34.8896C78.2977 34.9832 78.1414 35.1032 77.9765 35.2101C72.9596 38.4605 67.942 41.7115 62.9236 44.9629C61.9935 45.5749 62.0707 45.4001 62.1289 46.5016L62.1311 46.5002ZM116.809 10.0909C116.479 10.3046 116.233 10.43 116.002 10.5795L81.7981 32.7403C81.1825 33.1391 81.1781 33.142 81.2176 33.8967C81.4705 38.883 81.7244 43.8677 81.9793 48.8507L83.3692 76.1484C83.3819 76.4522 83.4078 76.7476 83.4381 77.0401C84.0829 77.515 97.0653 84.2078 100.793 86.0005C100.913 86.0565 101.044 86.0902 101.199 86.146C101.304 85.8731 101.328 85.5758 101.268 85.2895C101.136 82.5161 100.997 79.7442 100.85 76.9739C100.714 74.2842 100.577 71.595 100.439 68.9062L99.1067 43.2005C99.0893 42.8653 99.0849 42.531 99.0731 42.161L117.91 29.9568L116.93 10.5183C116.899 10.3735 116.858 10.2312 116.807 10.0924L116.809 10.0909ZM136.88 41.0695C136.875 41.0304 136.867 40.9919 136.855 40.9543C136.847 40.9292 136.832 40.9066 136.813 40.8884C136.668 40.8044 136.524 40.7168 136.375 40.6414C130.683 37.7338 124.99 34.8299 119.392 31.9802C119.256 31.9682 119.231 31.9628 119.204 31.9646C119.176 31.97 119.148 31.9795 119.122 31.9926C119.03 32.0525 118.923 32.0939 118.83 32.1537C113.131 35.8467 107.431 39.5397 101.731 43.2327C101.666 43.2814 101.605 43.3355 101.548 43.3945C101.481 44.0127 102.379 62.1742 102.521 63.2028C102.662 63.3238 102.78 63.2258 102.895 63.1575C103.081 63.0365 103.273 62.9125 103.46 62.7915C114.34 55.7416 125.22 48.6928 136.098 41.6449C136.382 41.4942 136.643 41.3022 136.871 41.0752L136.88 41.0695ZM178.613 59.2181L177.618 39.5738L119.571 9.98035C119.506 9.94752 119.418 9.96452 119.325 9.95604C119.286 10.0331 119.261 10.116 119.25 10.2014C119.575 16.7203 119.897 23.2443 120.23 29.674L120.331 29.8301C120.347 29.8528 120.368 29.8721 120.392 29.8869C126.624 33.0808 132.86 36.2721 139.103 39.4608C152.186 46.129 165.269 52.7948 178.353 59.4581C178.38 59.4656 178.407 59.4689 178.434 59.4679C178.463 59.4683 178.489 59.4606 178.533 59.4569C178.561 59.37 178.616 59.2908 178.613 59.2181ZM177.422 61.7158C177.204 61.4945 176.938 61.3273 176.644 61.2275C173.624 59.6796 170.603 58.1357 167.581 56.5959L140.313 42.6875C139.295 42.167 139.512 42.1641 138.589 42.7623C133.55 46.027 128.511 49.2917 123.472 52.5565C123.195 52.6833 122.949 52.8702 122.753 53.1036C122.901 53.41 123.201 53.459 123.446 53.5908C127.035 55.4272 130.629 57.2607 134.227 59.0914C142.766 63.4452 151.307 67.7956 159.85 72.1427C160.868 72.6632 160.637 72.7066 161.66 72.0465C166.651 68.8131 171.643 65.5788 176.636 62.3435C176.938 62.193 177.204 61.98 177.418 61.7187L177.422 61.7158ZM159.662 74.6898L142.213 65.7907C142.091 65.7478 141.966 65.716 141.839 65.6957C141.742 66.5388 141.872 67.3412 141.904 68.151C141.935 68.9609 141.981 69.7738 142.026 70.5845L142.147 73.0217L142.271 75.4574L142.396 77.8917L142.52 80.3275C142.56 81.1411 142.598 81.9502 142.644 82.7632C142.69 83.5761 142.753 84.3777 142.788 85.1978C142.823 86.0178 142.877 86.8759 142.921 87.715C142.965 88.554 143 89.34 143.034 90.1389L143.159 92.5769L143.285 95.0112L143.407 97.4447L143.53 99.8804L143.654 102.316L143.777 104.752C143.818 105.562 143.864 106.375 143.903 107.186C143.942 107.998 143.978 108.805 144.017 109.65L125.264 121.8C125.193 122.495 126.109 140.77 126.243 141.58C126.384 141.701 126.505 141.613 126.619 141.539C126.808 141.416 126.995 141.295 127.186 141.171C138.465 133.864 149.743 126.556 161.023 119.248C161.99 118.622 161.923 118.85 161.862 117.653L159.721 75.5756C159.706 75.2979 159.682 75.02 159.657 74.6927L159.662 74.6898ZM180.99 106.24C180.996 106.176 180.999 106.112 180.997 106.048L178.86 64.046C178.848 63.9706 178.828 63.8969 178.799 63.8265C178.626 63.7138 178.519 63.8424 178.41 63.9064C178.214 64.0179 178.032 64.1514 177.845 64.2725L161.992 74.5438C162.71 88.6241 163.429 102.682 164.147 116.718C164.162 116.818 164.187 116.916 164.223 117.009C164.319 117.013 164.382 117.038 164.421 117.016C165.255 116.559 180.47 106.661 180.985 106.243L180.99 106.24Z" fill="#D7D8DD"/>
</g>
<g clip-path="url(#clip7_1321_2210)">
<path d="M189.27 244.054C189.244 244.066 189.217 244.074 189.189 244.079C189.162 244.081 189.135 244.081 189.108 244.078C188.221 243.716 127.91 212.918 127.347 212.525L123.832 143.407C123.881 143.337 123.935 143.271 123.995 143.211C124.155 143.095 124.317 142.984 124.482 142.877C143.655 130.455 162.832 118.038 182.011 105.628C182.036 105.616 182.064 105.609 182.092 105.608C182.114 105.593 182.149 105.605 182.236 105.599C182.51 105.733 182.841 105.896 183.161 106.063L233.88 131.939C236.929 133.501 239.976 135.056 243.021 136.605C244.053 137.138 243.911 136.895 243.984 138.125C244.034 139.166 244.082 140.203 244.14 141.233C245.235 162.656 246.327 184.077 247.416 205.498C247.429 205.777 247.432 206.056 247.438 206.292C247.395 206.353 247.345 206.408 247.289 206.457C228.211 218.818 209.135 231.184 190.061 243.555C189.809 243.73 189.543 243.887 189.27 244.054ZM128.606 192.125C128.787 195.937 128.979 199.745 129.183 203.55L129.528 210.269C129.543 210.408 129.55 210.549 129.548 210.69C129.534 210.843 129.572 210.997 129.656 211.127C129.74 211.256 129.865 211.354 130.01 211.404C131.19 211.991 132.35 212.607 133.533 213.198L186.949 240.448C187.232 240.635 187.545 240.771 187.875 240.851C187.909 240.754 187.961 240.68 187.956 240.605C187.63 234.08 187.303 227.553 186.964 220.94C167.514 211.022 148.093 201.116 128.701 191.221C128.57 191.503 128.537 191.821 128.606 192.125ZM197.468 212.717C199.959 211.103 202.456 209.485 204.958 207.864C205.213 207.699 205.463 207.522 205.747 207.325L204.752 187.828C204.741 187.735 204.722 187.642 204.695 187.552C204.497 187.444 204.388 187.561 204.278 187.626C204.113 187.733 203.948 187.84 203.783 187.947C192.881 195.01 181.979 202.073 171.076 209.137L170.283 209.652C170.382 209.806 170.408 209.883 170.441 209.896C176.251 212.871 182.056 215.84 187.854 218.802C188.255 218.78 188.503 218.532 188.78 218.352C191.685 216.467 194.571 214.591 197.468 212.717ZM136.631 184.488L130.554 188.425C130.297 188.592 130.042 188.757 129.811 188.926C129.845 189.262 130.105 189.297 130.291 189.392C131.857 190.204 133.429 191.007 135.004 191.8C145.657 197.24 156.312 202.677 166.969 208.112C167.217 208.239 167.47 208.359 167.74 208.493C167.95 208.382 168.149 208.29 168.337 208.172C173.539 204.801 178.742 201.43 183.947 198.058C184.125 197.943 184.28 197.792 184.463 197.646C184.403 197.565 184.333 197.493 184.253 197.432C171.674 191.016 159.115 184.61 146.574 178.214C146.24 178.265 145.927 178.411 145.674 178.635C142.655 180.583 139.641 182.534 136.631 184.488ZM187.714 195.621C191.693 193.042 195.672 190.464 199.652 187.886C201.038 186.988 202.43 186.086 203.829 185.18C204.086 185.013 204.332 184.835 204.554 184.685C204.627 183.988 203.684 164.67 203.523 163.385C203.348 163.115 203.038 163.031 202.769 162.896C198.216 160.571 193.669 158.253 189.127 155.941C187.826 155.279 186.527 154.618 185.228 153.957C184.981 153.83 184.727 153.713 184.452 153.582C183.623 154.013 167.244 164.657 166.749 165.074C166.686 165.767 167.694 185.644 167.84 186.442L186.84 196.127C187.139 195.962 187.432 195.803 187.712 195.622L187.714 195.621ZM126.23 145.431L128.287 185.996C128.302 186.298 128.33 186.592 128.364 187.001C129.13 186.636 144.598 176.614 145.187 176.101C144.473 162.153 143.761 148.169 143.049 134.15C143.031 133.992 143.005 133.834 142.971 133.679C142.834 133.717 142.7 133.764 142.57 133.82C142.396 133.914 142.24 134.034 142.075 134.141C137.058 137.391 132.041 140.642 127.022 143.894C126.092 144.506 126.169 144.331 126.228 145.432L126.23 145.431ZM180.907 109.022C180.578 109.235 180.331 109.361 180.1 109.51L145.897 131.671C145.281 132.07 145.277 132.073 145.316 132.827C145.569 137.814 145.823 142.798 146.078 147.781L147.468 175.079C147.481 175.383 147.506 175.678 147.537 175.971C148.182 176.446 161.164 183.138 164.891 184.931C165.012 184.987 165.143 185.021 165.298 185.077C165.403 184.804 165.427 184.506 165.367 184.22C165.235 181.447 165.095 178.675 164.948 175.905C164.812 173.215 164.675 170.526 164.538 167.837L163.205 142.131C163.188 141.796 163.184 141.462 163.172 141.092L182.008 128.887L181.028 109.449C180.998 109.304 180.956 109.162 180.905 109.023L180.907 109.022ZM200.979 140C200.974 139.961 200.966 139.923 200.954 139.885C200.945 139.86 200.931 139.837 200.911 139.819C200.766 139.735 200.622 139.647 200.473 139.572C194.782 136.664 189.089 133.761 183.491 130.911C183.355 130.899 183.33 130.893 183.303 130.895C183.274 130.901 183.247 130.91 183.221 130.923C183.129 130.983 183.021 131.025 182.929 131.084C177.229 134.777 171.529 138.47 165.829 142.163C165.764 142.212 165.703 142.266 165.647 142.325C165.579 142.943 166.478 161.105 166.62 162.133C166.761 162.254 166.878 162.156 166.993 162.088C167.18 161.967 167.371 161.843 167.558 161.722C178.439 154.672 189.319 147.623 200.197 140.576C200.481 140.425 200.742 140.233 200.97 140.006L200.979 140ZM242.712 158.149L241.717 138.504L183.67 108.911C183.605 108.878 183.516 108.895 183.423 108.887C183.385 108.964 183.36 109.047 183.348 109.132C183.673 115.651 183.995 122.175 184.328 128.605L184.429 128.761C184.446 128.783 184.467 128.803 184.491 128.818C190.722 132.011 196.959 135.203 203.201 138.391C216.284 145.06 229.368 151.725 242.452 158.389C242.478 158.396 242.506 158.4 242.533 158.399C242.561 158.399 242.588 158.391 242.632 158.388C242.66 158.301 242.715 158.221 242.712 158.149ZM241.521 160.646C241.303 160.425 241.036 160.258 240.742 160.158C237.723 158.61 234.702 157.066 231.68 155.527L204.412 141.618C203.394 141.098 203.611 141.095 202.687 141.693C197.648 144.958 192.609 148.222 187.571 151.487C187.293 151.614 187.048 151.801 186.851 152.034C187 152.341 187.3 152.39 187.545 152.521C191.134 154.358 194.727 156.191 198.325 158.022C206.864 162.376 215.405 166.726 223.948 171.073C224.966 171.594 224.735 171.637 225.759 170.977C230.749 167.744 235.741 164.509 240.735 161.274C241.037 161.124 241.303 160.911 241.516 160.649L241.521 160.646ZM223.76 173.621L206.311 164.721C206.19 164.678 206.065 164.647 205.938 164.626C205.841 165.469 205.971 166.272 206.002 167.082C206.034 167.892 206.08 168.704 206.124 169.515L206.246 171.952L206.369 174.388L206.495 176.822L206.619 179.258C206.659 180.072 206.696 180.881 206.742 181.694C206.788 182.507 206.852 183.308 206.887 184.128C206.922 184.948 206.975 185.807 207.02 186.646C207.064 187.485 207.099 188.271 207.132 189.07L207.257 191.508L207.383 193.942L207.505 196.375L207.629 198.811L207.752 201.247L207.876 203.683C207.917 204.493 207.963 205.305 208.002 206.117C208.041 206.928 208.077 207.735 208.116 208.581L189.363 220.731C189.292 221.426 190.208 239.701 190.342 240.51C190.483 240.631 190.604 240.543 190.718 240.469C190.907 240.347 191.094 240.226 191.285 240.102C202.563 232.795 213.842 225.487 225.122 218.179C226.089 217.552 226.021 217.78 225.961 216.583L223.819 174.506C223.805 174.229 223.781 173.951 223.756 173.623L223.76 173.621ZM245.088 205.171C245.095 205.107 245.097 205.043 245.095 204.979L242.958 162.977C242.947 162.901 242.927 162.828 242.897 162.757C242.725 162.644 242.617 162.773 242.509 162.837C242.313 162.949 242.131 163.082 241.944 163.203L226.091 173.474C226.809 187.555 227.527 201.613 228.246 215.649C228.26 215.749 228.286 215.846 228.322 215.94C228.418 215.944 228.481 215.968 228.519 215.946C229.354 215.49 244.568 205.592 245.084 205.173L245.088 205.171Z" fill="#D7D8DD"/>
</g>
<g clip-path="url(#clip8_1321_2210)">
<path d="M242.495 139.193C242.47 139.205 242.442 139.213 242.414 139.217C242.387 139.22 242.36 139.22 242.333 139.217C241.446 138.855 181.136 108.056 180.572 107.663L177.058 38.5458C177.106 38.4756 177.161 38.4099 177.221 38.3496C177.381 38.2335 177.543 38.1222 177.707 38.0159C196.88 25.5932 216.057 13.1769 235.237 0.766969C235.262 0.754915 235.289 0.74787 235.317 0.746224C235.339 0.731978 235.374 0.743347 235.461 0.737212C235.735 0.871595 236.066 1.03505 236.386 1.20201L287.105 27.0781C290.155 28.64 293.201 30.1952 296.246 31.7435C297.278 32.2765 297.137 32.0342 297.209 33.2638C297.259 34.3049 297.307 35.3417 297.365 36.3713C298.46 57.7942 299.553 79.2159 300.642 100.636C300.654 100.915 300.657 101.194 300.663 101.431C300.62 101.491 300.57 101.547 300.514 101.596C281.436 113.957 262.36 126.323 243.286 138.693C243.034 138.869 242.768 139.026 242.495 139.193ZM181.832 87.2637C182.012 91.0754 182.204 94.8838 182.408 98.689L182.753 105.407C182.768 105.547 182.775 105.688 182.773 105.828C182.759 105.982 182.798 106.136 182.881 106.265C182.965 106.395 183.09 106.492 183.236 106.543C184.415 107.13 185.576 107.745 186.758 108.337L240.175 135.587C240.458 135.773 240.771 135.909 241.1 135.989C241.134 135.892 241.186 135.818 241.181 135.743C240.855 129.218 240.528 122.692 240.189 116.079C220.739 106.161 201.318 96.2546 181.926 86.3596C181.796 86.6421 181.762 86.9601 181.832 87.2637ZM250.693 107.856C253.185 106.242 255.681 104.624 258.183 103.003C258.438 102.838 258.688 102.66 258.973 102.463L257.977 82.9666C257.966 82.8732 257.948 82.781 257.92 82.6912C257.722 82.5825 257.614 82.6995 257.503 82.7649C257.338 82.8717 257.173 82.9786 257.008 83.0854C246.107 90.1485 235.205 97.2121 224.302 104.276L223.508 104.79C223.608 104.944 223.633 105.022 223.666 105.034C229.477 108.01 235.281 110.979 241.079 113.941C241.48 113.919 241.728 113.671 242.005 113.491C244.91 111.606 247.796 109.73 250.693 107.856ZM189.856 79.6269L183.78 83.5639C183.522 83.7306 183.267 83.8958 183.036 84.0642C183.07 84.4011 183.33 84.4357 183.516 84.5305C185.083 85.3425 186.654 86.1454 188.229 86.9391C198.883 92.3785 209.538 97.8158 220.195 103.251C220.442 103.378 220.695 103.498 220.966 103.632C221.175 103.521 221.374 103.429 221.563 103.31C226.764 99.9401 231.967 96.569 237.172 93.197C237.35 93.0816 237.505 92.9311 237.688 92.7845C237.629 92.7037 237.558 92.6318 237.478 92.571C224.899 86.1546 212.34 79.7485 199.8 73.3529C199.465 73.4034 199.152 73.5497 198.899 73.7741C195.88 75.7216 192.866 77.6725 189.856 79.6269ZM240.939 90.7592C244.918 88.181 248.898 85.6029 252.877 83.0247C254.263 82.1264 255.656 81.2243 257.054 80.3184C257.311 80.1517 257.558 79.9733 257.779 79.8236C257.852 79.127 256.909 59.8082 256.748 58.5236C256.573 58.2532 256.263 58.1699 255.994 58.0349C251.442 55.7097 246.894 53.3914 242.352 51.0799C241.051 50.4181 239.752 49.7566 238.454 49.0953C238.206 48.9686 237.953 48.8519 237.678 48.7211C236.849 49.1521 220.469 59.7958 219.975 60.2129C219.912 60.906 220.919 80.7822 221.065 81.5805L240.066 91.2658C240.364 91.1004 240.658 90.9415 240.937 90.7606L240.939 90.7592ZM179.455 40.5695L181.512 81.1342C181.527 81.4367 181.556 81.7306 181.589 82.1394C182.355 81.7745 197.823 71.7525 198.412 71.2399C197.699 57.292 196.986 43.3082 196.274 29.2885C196.256 29.1303 196.231 28.973 196.197 28.8174C196.06 28.8556 195.926 28.9029 195.795 28.9589C195.622 29.0526 195.465 29.1726 195.3 29.2794C190.284 32.5299 185.266 35.7808 180.248 39.0323C179.318 39.6442 179.395 39.4694 179.453 40.571L179.455 40.5695ZM234.133 4.16026C233.803 4.37392 233.557 4.4993 233.326 4.64886L199.122 26.8096C198.506 27.2085 198.502 27.2113 198.542 27.966C198.795 32.9524 199.048 37.937 199.303 42.92L200.693 70.2177C200.706 70.5216 200.732 70.8169 200.762 71.1094C201.407 71.5843 214.389 78.2771 218.117 80.0698C218.237 80.1259 218.368 80.1596 218.523 80.2154C218.628 79.9424 218.652 79.6451 218.592 79.3589C218.46 76.5854 218.321 73.8135 218.174 71.0433C218.038 68.3535 217.901 65.6643 217.763 62.9755L216.431 37.2698C216.413 36.9346 216.409 36.6004 216.397 36.2304L235.233 24.0261L234.254 4.58764C234.223 4.44288 234.182 4.30053 234.131 4.16169L234.133 4.16026ZM254.204 35.1388C254.199 35.0998 254.191 35.0612 254.179 35.0237C254.171 34.9986 254.156 34.976 254.137 34.9577C253.992 34.8737 253.848 34.7861 253.699 34.7108C248.007 31.8032 242.314 28.8992 236.716 26.0495C236.58 26.0376 236.555 26.0321 236.528 26.034C236.5 26.0394 236.472 26.0488 236.446 26.062C236.354 26.1218 236.247 26.1633 236.154 26.2231C230.454 29.9161 224.755 33.6091 219.055 37.302C218.989 37.3507 218.928 37.4049 218.872 37.4639C218.805 38.082 219.703 56.2436 219.845 57.2721C219.986 57.3931 220.104 57.2951 220.219 57.2269C220.405 57.1058 220.597 56.9819 220.784 56.8608C231.664 49.811 242.544 42.7621 253.422 35.7142C253.706 35.5635 253.967 35.3715 254.195 35.1445L254.204 35.1388ZM295.937 53.2875L294.942 33.6432L236.895 4.04968C236.83 4.01686 236.742 4.03386 236.649 4.02538C236.61 4.10248 236.585 4.18537 236.573 4.27071C236.899 10.7897 237.221 17.3137 237.554 23.7434L237.655 23.8995C237.671 23.9222 237.692 23.9414 237.716 23.9562C243.948 27.1501 250.184 30.3414 256.427 33.5302C269.51 40.1983 282.593 46.8641 295.677 53.5275C295.704 53.535 295.731 53.5383 295.758 53.5373C295.787 53.5376 295.813 53.53 295.857 53.5262C295.885 53.4394 295.94 53.3602 295.937 53.2875ZM294.746 55.7852C294.528 55.5639 294.262 55.3966 293.968 55.2969C290.948 53.7489 287.927 52.205 284.905 50.6652L257.637 36.7569C256.619 36.2364 256.836 36.2334 255.913 36.8316C250.874 40.0964 245.835 43.3611 240.796 46.6258C240.519 46.7527 240.273 46.9395 240.077 47.1729C240.225 47.4793 240.525 47.5283 240.77 47.6601C244.359 49.4965 247.953 51.3301 251.55 53.1608C260.09 57.5146 268.631 61.865 277.174 66.212C278.191 66.7325 277.961 66.776 278.984 66.1158C283.975 62.8824 288.967 59.6481 293.96 56.4128C294.262 56.2624 294.528 56.0494 294.742 55.788L294.746 55.7852ZM276.986 68.7592L259.537 59.86C259.415 59.8171 259.29 59.7853 259.163 59.765C259.066 60.6081 259.196 61.4105 259.227 62.2203C259.259 63.0302 259.305 63.8431 259.35 64.6539L259.471 67.091L259.595 69.5268L259.72 71.9611L259.844 74.3968C259.884 75.2104 259.922 76.0196 259.968 76.8325C260.014 77.6455 260.077 78.447 260.112 79.2671C260.147 80.0872 260.201 80.9452 260.245 81.7843C260.289 82.6234 260.324 83.4093 260.358 84.2083L260.483 86.6462L260.609 89.0805L260.731 91.514L260.854 93.9498L260.978 96.3855L261.101 98.8212C261.142 99.6312 261.188 100.444 261.227 101.256C261.266 102.067 261.302 102.874 261.341 103.719L242.588 115.87C242.517 116.565 243.433 134.84 243.567 135.649C243.708 135.77 243.829 135.682 243.943 135.608C244.132 135.485 244.319 135.364 244.51 135.24C255.789 127.933 267.067 120.626 278.347 113.318C279.314 112.691 279.247 112.919 279.186 111.722L277.045 69.6449C277.03 69.3672 277.006 69.0893 276.981 68.762L276.986 68.7592ZM298.314 100.309C298.32 100.246 298.323 100.182 298.321 100.118L296.184 58.1153C296.172 58.04 296.152 57.9663 296.123 57.8958C295.95 57.7831 295.843 57.9118 295.734 57.9757C295.538 58.0873 295.356 58.2207 295.169 58.3418L279.316 68.6132C280.034 82.6934 280.753 96.7516 281.471 110.788C281.486 110.887 281.511 110.985 281.547 111.079C281.643 111.082 281.706 111.107 281.745 111.085C282.579 110.629 297.794 100.73 298.309 100.312L298.314 100.309Z" fill="#D7D8DD"/>
</g>
<g clip-path="url(#clip9_1321_2210)">
<path d="M253.496 343.19C253.47 343.202 253.443 343.21 253.415 343.214C253.388 343.217 253.361 343.217 253.334 343.214C252.447 342.852 192.136 312.053 191.572 311.66L188.058 242.543C188.106 242.473 188.161 242.407 188.221 242.347C188.381 242.231 188.543 242.119 188.707 242.013C207.881 229.59 227.058 217.174 246.237 204.764C246.262 204.752 246.29 204.745 246.317 204.743C246.339 204.729 246.375 204.74 246.461 204.734C246.736 204.869 247.066 205.032 247.387 205.199L298.106 231.075C301.155 232.637 304.202 234.192 307.246 235.741C308.279 236.274 308.137 236.031 308.21 237.261C308.26 238.302 308.307 239.339 308.366 240.368C309.461 261.791 310.553 283.213 311.642 304.633C311.655 304.913 311.657 305.192 311.664 305.428C311.621 305.488 311.571 305.544 311.515 305.593C292.437 317.954 273.36 330.32 254.286 342.69C254.035 342.866 253.768 343.023 253.496 343.19ZM192.832 291.261C193.013 295.072 193.205 298.881 193.408 302.686L193.753 309.404C193.769 309.544 193.776 309.685 193.773 309.825C193.76 309.979 193.798 310.133 193.882 310.262C193.966 310.392 194.091 310.489 194.236 310.54C195.416 311.127 196.576 311.743 197.759 312.334L251.175 339.584C251.458 339.77 251.771 339.907 252.101 339.986C252.135 339.889 252.186 339.815 252.182 339.74C251.856 333.216 251.529 326.689 251.189 320.076C231.739 310.158 212.319 300.252 192.927 290.357C192.796 290.639 192.763 290.957 192.832 291.261ZM261.693 311.853C264.185 310.239 266.682 308.621 269.184 307C269.439 306.835 269.689 306.657 269.973 306.46L268.977 286.964C268.967 286.87 268.948 286.778 268.921 286.688C268.722 286.58 268.614 286.697 268.503 286.762C268.339 286.869 268.174 286.976 268.009 287.082C257.107 294.146 246.205 301.209 235.302 308.273L234.509 308.787C234.608 308.941 234.633 309.019 234.667 309.031C240.477 312.007 246.282 314.976 252.08 317.938C252.481 317.916 252.729 317.668 253.006 317.488C255.911 315.603 258.797 313.727 261.693 311.853ZM200.857 283.624L194.78 287.561C194.523 287.728 194.268 287.893 194.037 288.061C194.071 288.398 194.331 288.433 194.517 288.528C196.083 289.34 197.654 290.142 199.23 290.936C209.883 296.376 220.538 301.813 231.195 307.248C231.443 307.375 231.695 307.495 231.966 307.629C232.175 307.518 232.375 307.426 232.563 307.307C237.765 303.937 242.968 300.566 248.172 297.194C248.35 297.079 248.506 296.928 248.689 296.782C248.629 296.701 248.558 296.629 248.478 296.568C235.9 290.152 223.34 283.746 210.8 277.35C210.466 277.4 210.153 277.547 209.9 277.771C206.881 279.719 203.867 281.67 200.857 283.624ZM251.94 294.756C255.919 292.178 259.898 289.6 263.877 287.022C265.264 286.123 266.656 285.221 268.054 284.315C268.312 284.149 268.558 283.97 268.78 283.821C268.853 283.124 267.91 263.805 267.749 262.521C267.573 262.25 267.263 262.167 266.995 262.032C262.442 259.707 257.895 257.388 253.353 255.077C252.052 254.415 250.752 253.754 249.454 253.092C249.207 252.966 248.953 252.849 248.678 252.718C247.849 253.149 231.469 263.793 230.975 264.21C230.912 264.903 231.92 284.779 232.065 285.578L251.066 295.263C251.365 295.098 251.658 294.939 251.938 294.758L251.94 294.756ZM190.456 244.567L192.513 285.131C192.528 285.434 192.556 285.728 192.59 286.136C193.355 285.772 208.824 275.75 209.413 275.237C208.699 261.289 207.986 247.305 207.274 233.286C207.257 233.127 207.231 232.97 207.197 232.814C207.06 232.853 206.926 232.9 206.796 232.956C206.622 233.05 206.466 233.17 206.301 233.276C201.284 236.527 196.266 239.778 191.248 243.029C190.318 243.641 190.395 243.466 190.453 244.568L190.456 244.567ZM245.133 208.157C244.804 208.371 244.557 208.496 244.326 208.646L210.123 230.807C209.507 231.206 209.503 231.208 209.542 231.963C209.795 236.949 210.049 241.934 210.304 246.917L211.694 274.215C211.706 274.519 211.732 274.814 211.763 275.106C212.407 275.581 225.39 282.274 229.117 284.067C229.238 284.123 229.369 284.157 229.523 284.212C229.628 283.94 229.652 283.642 229.593 283.356C229.461 280.582 229.321 277.811 229.174 275.04C229.038 272.351 228.901 269.661 228.763 266.973L227.431 241.267C227.414 240.932 227.409 240.597 227.398 240.227L246.234 228.023L245.254 208.585C245.223 208.44 245.182 208.298 245.131 208.159L245.133 208.157ZM265.204 239.136C265.2 239.097 265.192 239.058 265.18 239.021C265.171 238.996 265.156 238.973 265.137 238.955C264.992 238.871 264.848 238.783 264.699 238.708C259.007 235.8 253.315 232.896 247.717 230.047C247.581 230.035 247.556 230.029 247.529 230.031C247.5 230.036 247.473 230.046 247.447 230.059C247.355 230.119 247.247 230.16 247.155 230.22C241.455 233.913 235.755 237.606 230.055 241.299C229.99 241.348 229.929 241.402 229.873 241.461C229.805 242.079 230.704 260.241 230.846 261.269C230.987 261.39 231.104 261.292 231.219 261.224C231.406 261.103 231.597 260.979 231.784 260.858C242.665 253.808 253.544 246.759 264.422 239.711C264.707 239.561 264.967 239.369 265.196 239.142L265.204 239.136ZM306.937 257.285L305.943 237.64L247.896 208.047C247.831 208.014 247.742 208.031 247.649 208.022C247.611 208.1 247.585 208.182 247.574 208.268C247.899 214.787 248.221 221.311 248.554 227.74L248.655 227.897C248.672 227.919 248.693 227.938 248.717 227.953C254.948 231.147 261.185 234.339 267.427 237.527C280.51 244.195 293.594 250.861 306.678 257.525C306.704 257.532 306.732 257.535 306.759 257.534C306.787 257.535 306.814 257.527 306.858 257.523C306.886 257.436 306.941 257.357 306.937 257.285ZM305.746 259.782C305.529 259.561 305.262 259.394 304.968 259.294C301.949 257.746 298.928 256.202 295.906 254.662L268.638 240.754C267.62 240.233 267.836 240.23 266.913 240.829C261.874 244.093 256.835 247.358 251.796 250.623C251.519 250.75 251.273 250.937 251.077 251.17C251.226 251.476 251.526 251.525 251.771 251.657C255.36 253.494 258.953 255.327 262.551 257.158C271.09 261.512 279.631 265.862 288.174 270.209C289.192 270.73 288.961 270.773 289.985 270.113C294.975 266.88 299.967 263.645 304.961 260.41C305.263 260.259 305.529 260.046 305.742 259.785L305.746 259.782ZM287.986 272.756L270.537 263.857C270.416 263.814 270.291 263.782 270.164 263.762C270.067 264.605 270.196 265.408 270.228 266.217C270.26 267.027 270.306 267.84 270.35 268.651L270.472 271.088L270.595 273.524L270.721 275.958L270.844 278.394C270.885 279.207 270.922 280.017 270.968 280.83C271.014 281.643 271.078 282.444 271.113 283.264C271.148 284.084 271.201 284.942 271.245 285.781C271.29 286.62 271.324 287.406 271.358 288.205L271.483 290.643L271.609 293.078L271.731 295.511L271.855 297.947L271.978 300.383L272.102 302.818C272.143 303.628 272.189 304.441 272.228 305.253C272.266 306.064 272.302 306.871 272.341 307.717L253.589 319.867C253.518 320.562 254.434 338.837 254.568 339.646C254.708 339.767 254.829 339.679 254.944 339.605C255.133 339.483 255.32 339.361 255.511 339.238C266.789 331.93 278.068 324.623 289.347 317.315C290.315 316.688 290.247 316.916 290.187 315.719L288.045 273.642C288.03 273.364 288.007 273.086 287.982 272.759L287.986 272.756ZM309.314 304.306C309.321 304.243 309.323 304.179 309.321 304.115L307.184 262.112C307.173 262.037 307.152 261.963 307.123 261.893C306.95 261.78 306.843 261.909 306.735 261.973C306.539 262.084 306.357 262.218 306.17 262.339L290.317 272.61C291.035 286.69 291.753 300.749 292.472 314.785C292.486 314.884 292.512 314.982 292.548 315.076C292.644 315.079 292.706 315.104 292.745 315.082C293.58 314.626 308.794 304.728 309.31 304.309L309.314 304.306Z" fill="#D7D8DD"/>
</g>
<g clip-path="url(#clip10_1321_2210)">
<path d="M307.496 238.19C307.47 238.202 307.443 238.21 307.415 238.214C307.388 238.217 307.361 238.217 307.334 238.214C306.447 237.852 246.136 207.053 245.573 206.66L242.058 137.543C242.107 137.473 242.161 137.407 242.221 137.347C242.381 137.231 242.543 137.119 242.708 137.013C261.881 124.59 281.058 112.174 300.237 99.764C300.262 99.752 300.29 99.7449 300.317 99.7433C300.339 99.729 300.375 99.7404 300.461 99.7343C300.736 99.8687 301.066 100.032 301.387 100.199L352.106 126.075C355.155 127.637 358.202 129.192 361.247 130.741C362.279 131.274 362.137 131.031 362.21 132.261C362.26 133.302 362.308 134.339 362.366 135.368C363.461 156.791 364.553 178.213 365.642 199.633C365.655 199.913 365.658 200.192 365.664 200.428C365.621 200.488 365.571 200.544 365.515 200.593C346.437 212.954 327.361 225.32 308.287 237.69C308.035 237.866 307.768 238.023 307.496 238.19ZM246.832 186.261C247.013 190.072 247.205 193.881 247.409 197.686L247.754 204.404C247.769 204.544 247.776 204.685 247.774 204.825C247.76 204.979 247.798 205.133 247.882 205.262C247.966 205.392 248.091 205.489 248.236 205.54C249.416 206.127 250.576 206.743 251.759 207.334L305.175 234.584C305.458 234.77 305.771 234.907 306.101 234.986C306.135 234.889 306.187 234.815 306.182 234.74C305.856 228.216 305.529 221.689 305.19 215.076C285.74 205.158 266.319 195.252 246.927 185.357C246.796 185.639 246.763 185.957 246.832 186.261ZM315.694 206.853C318.185 205.239 320.682 203.621 323.184 202C323.439 201.835 323.689 201.657 323.973 201.46L322.978 181.964C322.967 181.87 322.948 181.778 322.921 181.688C322.722 181.58 322.614 181.697 322.504 181.762C322.339 181.869 322.174 181.976 322.009 182.082C311.107 189.146 300.205 196.209 289.302 203.273L288.509 203.787C288.608 203.941 288.634 204.019 288.667 204.031C294.477 207.007 300.282 209.976 306.08 212.938C306.481 212.916 306.729 212.668 307.006 212.488C309.911 210.603 312.797 208.727 315.694 206.853ZM254.857 178.624L248.78 182.561C248.523 182.728 248.268 182.893 248.037 183.061C248.071 183.398 248.331 183.433 248.517 183.528C250.083 184.34 251.654 185.142 253.23 185.936C263.883 191.376 274.538 196.813 285.195 202.248C285.443 202.375 285.696 202.495 285.966 202.629C286.176 202.518 286.375 202.426 286.563 202.307C291.765 198.937 296.968 195.566 302.172 192.194C302.351 192.079 302.506 191.928 302.689 191.782C302.629 191.701 302.558 191.629 302.479 191.568C289.9 185.152 277.341 178.746 264.8 172.35C264.466 172.4 264.153 172.547 263.9 172.771C260.881 174.719 257.867 176.67 254.857 178.624ZM305.94 189.756C309.919 187.178 313.898 184.6 317.878 182.022C319.264 181.123 320.656 180.221 322.055 179.315C322.312 179.149 322.558 178.97 322.78 178.821C322.853 178.124 321.91 158.805 321.749 157.521C321.573 157.25 321.264 157.167 320.995 157.032C316.442 154.707 311.895 152.388 307.353 150.077C306.052 149.415 304.753 148.754 303.454 148.092C303.207 147.966 302.953 147.849 302.678 147.718C301.849 148.149 285.47 158.793 284.975 159.21C284.912 159.903 285.92 179.779 286.066 180.578L305.066 190.263C305.365 190.098 305.658 189.939 305.938 189.758L305.94 189.756ZM244.456 139.567L246.513 180.131C246.528 180.434 246.556 180.728 246.59 181.136C247.356 180.772 262.824 170.75 263.413 170.237C262.699 156.289 261.987 142.305 261.275 128.286C261.257 128.127 261.231 127.97 261.197 127.814C261.06 127.853 260.926 127.9 260.796 127.956C260.622 128.05 260.466 128.17 260.301 128.276C255.284 131.527 250.267 134.778 245.248 138.029C244.318 138.641 244.395 138.466 244.453 139.568L244.456 139.567ZM299.133 103.157C298.804 103.371 298.557 103.496 298.326 103.646L264.123 125.807C263.507 126.206 263.503 126.208 263.542 126.963C263.795 131.949 264.049 136.934 264.304 141.917L265.694 169.215C265.706 169.519 265.732 169.814 265.763 170.106C266.408 170.581 279.39 177.274 283.117 179.067C283.238 179.123 283.369 179.157 283.524 179.212C283.628 178.94 283.653 178.642 283.593 178.356C283.461 175.582 283.321 172.811 283.174 170.04C283.038 167.351 282.901 164.661 282.763 161.973L281.431 136.267C281.414 135.932 281.41 135.597 281.398 135.227L300.234 123.023L299.254 103.585C299.224 103.44 299.182 103.298 299.131 103.159L299.133 103.157ZM319.205 134.136C319.2 134.097 319.192 134.058 319.18 134.021C319.171 133.996 319.157 133.973 319.137 133.955C318.992 133.871 318.848 133.783 318.699 133.708C313.008 130.8 307.315 127.896 301.717 125.047C301.581 125.035 301.556 125.029 301.529 125.031C301.5 125.036 301.473 125.046 301.447 125.059C301.355 125.119 301.247 125.16 301.155 125.22C295.455 128.913 289.755 132.606 284.055 136.299C283.99 136.348 283.929 136.402 283.873 136.461C283.805 137.079 284.704 155.241 284.846 156.269C284.987 156.39 285.104 156.292 285.219 156.224C285.406 156.103 285.597 155.979 285.784 155.858C296.665 148.808 307.545 141.759 318.423 134.711C318.707 134.561 318.968 134.369 319.196 134.142L319.205 134.136ZM360.937 152.285L359.943 132.64L301.896 103.047C301.831 103.014 301.742 103.031 301.649 103.022C301.611 103.1 301.586 103.182 301.574 103.268C301.899 109.787 302.221 116.311 302.554 122.74L302.655 122.897C302.672 122.919 302.693 122.938 302.717 122.953C308.948 126.147 315.185 129.339 321.427 132.527C334.51 139.195 347.594 145.861 360.678 152.525C360.704 152.532 360.732 152.535 360.759 152.534C360.787 152.535 360.814 152.527 360.858 152.523C360.886 152.436 360.941 152.357 360.937 152.285ZM359.747 154.782C359.529 154.561 359.262 154.394 358.968 154.294C355.949 152.746 352.928 151.202 349.906 149.662L322.638 135.754C321.62 135.233 321.837 135.23 320.913 135.829C315.874 139.093 310.835 142.358 305.797 145.623C305.519 145.75 305.274 145.937 305.077 146.17C305.226 146.476 305.526 146.525 305.771 146.657C309.36 148.494 312.953 150.327 316.551 152.158C325.09 156.512 333.631 160.862 342.174 165.209C343.192 165.73 342.961 165.773 343.985 165.113C348.975 161.88 353.967 158.645 358.961 155.41C359.263 155.259 359.529 155.046 359.742 154.785L359.747 154.782ZM341.986 167.756L324.537 158.857C324.416 158.814 324.291 158.782 324.164 158.762C324.067 159.605 324.197 160.408 324.228 161.217C324.26 162.027 324.306 162.84 324.35 163.651L324.472 166.088L324.595 168.524L324.721 170.958L324.845 173.394C324.885 174.207 324.922 175.017 324.968 175.83C325.014 176.643 325.078 177.444 325.113 178.264C325.148 179.084 325.201 179.942 325.245 180.781C325.29 181.62 325.324 182.406 325.358 183.205L325.483 185.643L325.609 188.078L325.731 190.511L325.855 192.947L325.978 195.383L326.102 197.818C326.143 198.628 326.189 199.441 326.228 200.253C326.267 201.064 326.303 201.871 326.342 202.717L307.589 214.867C307.518 215.562 308.434 233.837 308.568 234.646C308.708 234.767 308.83 234.679 308.944 234.605C309.133 234.483 309.32 234.361 309.511 234.238C320.789 226.93 332.068 219.623 343.348 212.315C344.315 211.688 344.247 211.916 344.187 210.719L342.045 168.642C342.031 168.364 342.007 168.086 341.982 167.759L341.986 167.756ZM363.314 199.306C363.321 199.243 363.323 199.179 363.321 199.115L361.184 157.112C361.173 157.037 361.153 156.963 361.123 156.893C360.95 156.78 360.843 156.909 360.735 156.973C360.539 157.084 360.357 157.218 360.17 157.339L344.317 167.61C345.035 181.69 345.753 195.749 346.472 209.785C346.486 209.884 346.512 209.982 346.548 210.076C346.644 210.079 346.707 210.104 346.745 210.082C347.58 209.626 362.794 199.728 363.31 199.309L363.314 199.306Z" fill="#D7D8DD"/>
</g>
</g>
<defs>
<clipPath id="clip0_1321_2210">
<rect width="366" height="273" fill="white"/>
</clipPath>
<clipPath id="clip1_1321_2210">
<rect width="120.162" height="138.785" fill="white" transform="matrix(0.543752 0.839246 0.839246 -0.543752 -141.952 175.041)"/>
</clipPath>
<clipPath id="clip2_1321_2210">
<rect width="120.162" height="138.785" fill="white" transform="matrix(0.543752 0.839246 0.839246 -0.543752 -87.8215 69.7393)"/>
</clipPath>
<clipPath id="clip3_1321_2210">
<rect width="120.162" height="138.785" fill="white" transform="matrix(0.543752 0.839246 0.839246 -0.543752 -23.7229 168.67)"/>
</clipPath>
<clipPath id="clip4_1321_2210">
<rect width="120.162" height="138.785" fill="white" transform="matrix(0.543752 0.839246 0.839246 -0.543752 -76.7678 274.203)"/>
</clipPath>
<clipPath id="clip5_1321_2210">
<rect width="120.162" height="138.785" fill="white" transform="matrix(0.543752 0.839246 0.839246 -0.543752 41.4617 267.833)"/>
</clipPath>
<clipPath id="clip6_1321_2210">
<rect width="120.162" height="138.785" fill="white" transform="matrix(0.543752 0.839246 0.839246 -0.543752 30.6267 63.2256)"/>
</clipPath>
<clipPath id="clip7_1321_2210">
<rect width="120.162" height="138.785" fill="white" transform="matrix(0.543752 0.839246 0.839246 -0.543752 94.7253 162.156)"/>
</clipPath>
<clipPath id="clip8_1321_2210">
<rect width="120.162" height="138.785" fill="white" transform="matrix(0.543752 0.839246 0.839246 -0.543752 147.951 57.2949)"/>
</clipPath>
<clipPath id="clip9_1321_2210">
<rect width="120.162" height="138.785" fill="white" transform="matrix(0.543752 0.839246 0.839246 -0.543752 158.951 261.292)"/>
</clipPath>
<clipPath id="clip10_1321_2210">
<rect width="120.162" height="138.785" fill="white" transform="matrix(0.543752 0.839246 0.839246 -0.543752 212.951 156.292)"/>
</clipPath>
</defs>
</svg>
