<svg width="310" height="239" viewBox="0 0 310 239" fill="none" xmlns="http://www.w3.org/2000/svg">
<g clip-path="url(#clip0_1330_2213)">
<g clip-path="url(#clip1_1330_2213)">
<path d="M126.594 40.94C126.568 40.9517 126.54 40.9599 126.513 40.9644C126.485 40.9672 126.458 40.9671 126.431 40.9641C125.544 40.6022 65.2339 9.80346 64.6701 9.41024L61.1558 -59.7072C61.2041 -59.7774 61.2587 -59.8431 61.3189 -59.9034C61.4788 -60.0195 61.6409 -60.1307 61.805 -60.2371C80.9786 -72.6597 100.155 -85.076 119.335 -97.486C119.36 -97.498 119.387 -97.5051 119.415 -97.5067C119.437 -97.521 119.472 -97.5096 119.559 -97.5157C119.833 -97.3813 120.164 -97.2179 120.484 -97.0509L171.204 -71.1748C174.253 -69.6129 177.3 -68.0578 180.344 -66.5095C181.376 -65.9764 181.235 -66.2188 181.307 -64.9891C181.358 -63.948 181.405 -62.9112 181.463 -61.8816C182.559 -40.4587 183.651 -19.0371 184.74 2.38333C184.752 2.66251 184.755 2.94155 184.761 3.17778C184.718 3.23849 184.668 3.29393 184.613 3.34296C165.534 15.7039 146.458 28.0697 127.384 40.4403C127.133 40.6158 126.866 40.7729 126.594 40.94ZM65.9299 -10.9893C66.1106 -7.17758 66.3026 -3.36913 66.5061 0.43608L66.8511 7.15439C66.8665 7.29415 66.8732 7.43475 66.8711 7.57535C66.8575 7.72902 66.8957 7.88281 66.9795 8.01228C67.0634 8.14175 67.1882 8.23945 67.334 8.28985C68.5136 8.87714 69.6739 9.49251 70.8563 10.0842L124.273 37.334C124.556 37.5204 124.869 37.6565 125.198 37.7363C125.232 37.6394 125.284 37.5653 125.279 37.4903C124.953 30.9656 124.626 24.4386 124.287 17.8257C104.837 7.90808 85.4163 -1.99829 66.0246 -11.8934C65.8939 -11.6108 65.8606 -11.2928 65.9299 -10.9893ZM134.791 9.60307C137.283 7.98876 139.779 6.37112 142.281 4.75015C142.536 4.58492 142.786 4.40728 143.071 4.21047L142.075 -15.2864C142.065 -15.3797 142.046 -15.4719 142.018 -15.5618C141.82 -15.6704 141.712 -15.5534 141.601 -15.488C141.436 -15.3812 141.271 -15.2744 141.106 -15.1675C130.205 -8.10443 119.303 -1.04085 108.4 6.02321L107.606 6.53742C107.706 6.6913 107.731 6.76866 107.764 6.78145C113.575 9.75671 119.379 12.7256 125.178 15.6881C125.578 15.6657 125.826 15.4176 126.103 15.2381C129.008 13.3529 131.894 11.4768 134.791 9.60307ZM73.9543 -18.6261L67.8777 -14.689C67.6205 -14.5224 67.3655 -14.3571 67.1344 -14.1887C67.1685 -13.8518 67.4282 -13.8172 67.6144 -13.7225C69.181 -12.9104 70.752 -12.1075 72.3275 -11.3138C82.9809 -5.87439 93.636 -0.437155 104.293 4.99793C104.54 5.1247 104.793 5.245 105.064 5.3786C105.273 5.26799 105.473 5.17615 105.661 5.05727C110.862 1.68715 116.065 -1.68392 121.27 -5.05594C121.448 -5.17132 121.603 -5.32187 121.786 -5.46843C121.727 -5.54928 121.656 -5.62117 121.576 -5.68189C108.997 -12.0984 96.4381 -18.5044 83.8979 -24.9C83.5633 -24.8495 83.2505 -24.7032 82.9972 -24.4788C79.9786 -22.5313 76.9643 -20.5804 73.9543 -18.6261ZM125.037 -7.49373C129.017 -10.0719 132.996 -12.6501 136.975 -15.2282C138.362 -16.1265 139.754 -17.0286 141.152 -17.9346C141.409 -18.1012 141.656 -18.2796 141.877 -18.4293C141.95 -19.1259 141.007 -38.4447 140.846 -39.7293C140.671 -39.9997 140.361 -40.083 140.093 -40.218C135.54 -42.5432 130.992 -44.8615 126.45 -47.173C125.15 -47.8348 123.85 -48.4963 122.552 -49.1576C122.304 -49.2844 122.051 -49.401 121.776 -49.5318C120.947 -49.1009 104.567 -38.4572 104.073 -38.04C104.01 -37.347 105.017 -17.4707 105.163 -16.6724L124.164 -6.98712C124.463 -7.1525 124.756 -7.31141 125.035 -7.49231L125.037 -7.49373ZM63.5532 -57.6834L65.6106 -17.1187C65.6255 -16.8162 65.6537 -16.5223 65.6875 -16.1135C66.4531 -16.4784 81.9215 -26.5005 82.5102 -27.013C81.7968 -40.961 81.0841 -54.9448 80.3721 -68.9644C80.3545 -69.1227 80.3287 -69.2799 80.2947 -69.4355C80.1579 -69.3973 80.0238 -69.3501 79.8933 -69.294C79.7198 -69.2004 79.5635 -69.0804 79.3986 -68.9735C74.3817 -65.7231 69.3641 -62.4721 64.3457 -59.2207C63.4156 -58.6087 63.4928 -58.7835 63.551 -57.682L63.5532 -57.6834ZM118.231 -94.0927C117.901 -93.879 117.655 -93.7536 117.424 -93.6041L83.2202 -71.4433C82.6046 -71.0445 82.6002 -71.0416 82.6397 -70.2869C82.8926 -65.3006 83.1466 -60.3159 83.4015 -55.3329L84.7913 -28.0352C84.804 -27.7313 84.8299 -27.436 84.8603 -27.1435C85.5051 -26.6686 98.4875 -19.9758 102.215 -18.1831C102.335 -18.1271 102.466 -18.0934 102.621 -18.0376C102.726 -18.3105 102.75 -18.6078 102.69 -18.8941C102.558 -21.6675 102.419 -24.4394 102.272 -27.2097C102.136 -29.8994 101.999 -32.5886 101.861 -35.2774L100.529 -60.9831C100.511 -61.3183 100.507 -61.6526 100.495 -62.0226L119.332 -74.2268L118.352 -93.6653C118.321 -93.8101 118.28 -93.9524 118.229 -94.0912L118.231 -94.0927ZM138.302 -63.1141C138.297 -63.1532 138.289 -63.1917 138.277 -63.2293C138.269 -63.2544 138.254 -63.277 138.235 -63.2952C138.09 -63.3792 137.946 -63.4668 137.797 -63.5422C132.105 -66.4498 126.412 -69.3537 120.814 -72.2034C120.679 -72.2154 120.653 -72.2208 120.626 -72.219C120.598 -72.2136 120.57 -72.2041 120.545 -72.191C120.452 -72.1311 120.345 -72.0897 120.253 -72.0298C114.553 -68.3369 108.853 -64.6439 103.153 -60.9509C103.088 -60.9022 103.027 -60.8481 102.971 -60.7891C102.903 -60.1709 103.801 -42.0094 103.943 -40.9808C104.084 -40.8598 104.202 -40.9578 104.317 -41.0261C104.504 -41.1471 104.695 -41.2711 104.882 -41.3921C115.763 -48.442 126.642 -55.4908 137.52 -62.5387C137.805 -62.6894 138.065 -62.8814 138.293 -63.1084L138.302 -63.1141ZM180.035 -44.9655L179.04 -64.6098L120.994 -94.2032C120.929 -94.2361 120.84 -94.2191 120.747 -94.2276C120.708 -94.1504 120.683 -94.0676 120.672 -93.9822C120.997 -87.4633 121.319 -80.9393 121.652 -74.5096L121.753 -74.3535C121.77 -74.3308 121.791 -74.3115 121.815 -74.2967C128.046 -71.1028 134.282 -67.9115 140.525 -64.7228C153.608 -58.0546 166.691 -51.3888 179.775 -44.7254C179.802 -44.718 179.829 -44.7146 179.857 -44.7157C179.885 -44.7153 179.911 -44.7229 179.956 -44.7267C179.984 -44.8136 180.038 -44.8928 180.035 -44.9655ZM178.844 -42.4678C178.626 -42.6891 178.36 -42.8563 178.066 -42.9561C175.046 -44.504 172.026 -46.0479 169.003 -47.5877L141.735 -61.4961C140.718 -62.0166 140.934 -62.0195 140.011 -61.4213C134.972 -58.1566 129.933 -54.8919 124.894 -51.6271C124.617 -51.5003 124.371 -51.3134 124.175 -51.08C124.323 -50.7736 124.624 -50.7246 124.868 -50.5928C128.457 -48.7564 132.051 -46.9228 135.649 -45.0921C144.188 -40.7384 152.729 -36.388 161.272 -32.0409C162.29 -31.5204 162.059 -31.477 163.082 -32.1371C168.073 -35.3705 173.065 -38.6048 178.058 -41.8401C178.36 -41.9906 178.627 -42.2035 178.84 -42.4649L178.844 -42.4678ZM161.084 -29.4938L143.635 -38.3929C143.513 -38.4358 143.388 -38.4676 143.261 -38.4879C143.164 -37.6448 143.294 -36.8424 143.326 -36.0326C143.357 -35.2227 143.403 -34.4098 143.448 -33.5991L143.569 -31.1619L143.693 -28.7262L143.819 -26.2919L143.942 -23.8561C143.982 -23.0425 144.02 -22.2333 144.066 -21.4204C144.112 -20.6075 144.175 -19.8059 144.21 -18.9858C144.245 -18.1658 144.299 -17.3077 144.343 -16.4686C144.387 -15.6295 144.422 -14.8436 144.456 -14.0447L144.581 -11.6067L144.707 -9.17242L144.829 -6.7389L144.952 -4.30317L145.076 -1.86743L145.2 0.568299C145.241 1.37827 145.287 2.19121 145.325 3.00261C145.364 3.81399 145.4 4.62099 145.439 5.46654L126.686 17.6166C126.615 18.3118 127.531 36.5869 127.665 37.3959C127.806 37.5169 127.927 37.4291 128.041 37.3551C128.23 37.2326 128.417 37.1115 128.609 36.9876C139.887 29.6804 151.166 22.3728 162.445 15.0647C163.412 14.4379 163.345 14.6659 163.284 13.4692L161.143 -28.608C161.128 -28.8857 161.104 -29.1636 161.079 -29.4909L161.084 -29.4938ZM182.412 2.05638C182.419 1.99271 182.421 1.92863 182.419 1.86465L180.282 -40.1376C180.271 -40.213 180.25 -40.2867 180.221 -40.3571C180.048 -40.4698 179.941 -40.3412 179.833 -40.2772C179.636 -40.1657 179.454 -40.0322 179.268 -39.9111L163.414 -29.6398C164.132 -15.5595 164.851 -1.50129 165.569 12.5349C165.584 12.6344 165.609 12.732 165.645 12.8258C165.741 12.8292 165.804 12.854 165.843 12.832C166.677 12.3758 181.892 2.47753 182.407 2.05922L182.412 2.05638Z" fill="#D7D8DD"/>
</g>
<g clip-path="url(#clip2_1330_2213)">
<path d="M244.823 34.5689C244.797 34.5806 244.77 34.5888 244.742 34.5933C244.715 34.5961 244.688 34.596 244.661 34.593C243.774 34.2311 183.464 3.43236 182.9 3.03915L179.385 -66.0782C179.434 -66.1485 179.488 -66.2142 179.549 -66.2745C179.708 -66.3906 179.87 -66.5018 180.035 -66.6082C199.208 -79.0308 218.385 -91.4471 237.564 -103.857C237.59 -103.869 237.617 -103.876 237.645 -103.878C237.667 -103.892 237.702 -103.881 237.789 -103.887C238.063 -103.752 238.394 -103.589 238.714 -103.422L289.433 -77.5459C292.482 -75.984 295.529 -74.4289 298.574 -72.8806C299.606 -72.3475 299.464 -72.5899 299.537 -71.3602C299.587 -70.3191 299.635 -69.2823 299.693 -68.2527C300.788 -46.8298 301.88 -25.4082 302.969 -3.98776C302.982 -3.70858 302.985 -3.42954 302.991 -3.19331C302.948 -3.1326 302.898 -3.07716 302.842 -3.02814C283.764 9.33278 264.688 21.6986 245.614 34.0692C245.362 34.2447 245.096 34.4018 244.823 34.5689ZM184.16 -17.3604C184.34 -13.5487 184.532 -9.74022 184.736 -5.93501L185.081 0.783293C185.096 0.923061 185.103 1.06366 185.101 1.20426C185.087 1.35792 185.125 1.51172 185.209 1.64118C185.293 1.77065 185.418 1.86836 185.564 1.91876C186.743 2.50605 187.903 3.12142 189.086 3.7131L242.502 30.9629C242.785 31.1493 243.099 31.2854 243.428 31.3652C243.462 31.2683 243.514 31.1942 243.509 31.1193C243.183 24.5945 242.856 18.0675 242.517 11.4546C223.067 1.53698 203.646 -8.36938 184.254 -18.2645C184.123 -17.9819 184.09 -17.6639 184.16 -17.3604ZM253.021 3.23198C255.512 1.61767 258.009 2.40703e-05 260.511 -1.62094C260.766 -1.78617 261.016 -1.96381 261.3 -2.16063L260.305 -21.6575C260.294 -21.7508 260.275 -21.843 260.248 -21.9329C260.05 -22.0415 259.941 -21.9245 259.831 -21.8591C259.666 -21.7523 259.501 -21.6455 259.336 -21.5386C248.435 -14.4755 237.532 -7.41194 226.629 -0.347886L225.836 0.166323C225.936 0.320211 225.961 0.39757 225.994 0.410352C231.805 3.38562 237.609 6.3545 243.407 9.31701C243.808 9.29465 244.056 9.0465 244.333 8.86703C247.238 6.98177 250.124 5.10572 253.021 3.23198ZM192.184 -24.9972L186.107 -21.0601C185.85 -20.8935 185.595 -20.7282 185.364 -20.5598C185.398 -20.2229 185.658 -20.1883 185.844 -20.0936C187.411 -19.2815 188.982 -18.4786 190.557 -17.6849C201.211 -12.2455 211.866 -6.80825 222.522 -1.37316C222.77 -1.2464 223.023 -1.1261 223.293 -0.992495C223.503 -1.1031 223.702 -1.19495 223.891 -1.31382C229.092 -4.68394 234.295 -8.05501 239.5 -11.427C239.678 -11.5424 239.833 -11.693 240.016 -11.8395C239.956 -11.9204 239.886 -11.9923 239.806 -12.053C227.227 -18.4695 214.668 -24.8755 202.128 -31.2711C201.793 -31.2206 201.48 -31.0743 201.227 -30.8499C198.208 -28.9024 195.194 -26.9515 192.184 -24.9972ZM243.267 -13.8648C247.246 -16.443 251.225 -19.0211 255.205 -21.5993C256.591 -22.4976 257.984 -23.3997 259.382 -24.3057C259.639 -24.4723 259.885 -24.6507 260.107 -24.8004C260.18 -25.497 259.237 -44.8158 259.076 -46.1004C258.901 -46.3708 258.591 -46.4541 258.322 -46.5891C253.769 -48.9143 249.222 -51.2326 244.68 -53.5441C243.379 -54.2059 242.08 -54.8674 240.781 -55.5287C240.534 -55.6555 240.28 -55.7721 240.005 -55.9029C239.176 -55.472 222.797 -44.8283 222.302 -44.4111C222.239 -43.718 223.247 -23.8418 223.393 -23.0435L242.394 -13.3582C242.692 -13.5236 242.986 -13.6825 243.265 -13.8634L243.267 -13.8648ZM181.783 -64.0545L183.84 -23.4898C183.855 -23.1873 183.883 -22.8934 183.917 -22.4846C184.683 -22.8495 200.151 -32.8716 200.74 -33.3841C200.026 -47.3321 199.314 -61.3159 198.602 -75.3355C198.584 -75.4938 198.558 -75.651 198.524 -75.8066C198.388 -75.7684 198.253 -75.7212 198.123 -75.6651C197.949 -75.5715 197.793 -75.4514 197.628 -75.3446C192.611 -72.0941 187.594 -68.8432 182.575 -65.5918C181.645 -64.9798 181.722 -65.1546 181.781 -64.0531L181.783 -64.0545ZM236.461 -100.464C236.131 -100.25 235.884 -100.125 235.653 -99.9752L201.45 -77.8144C200.834 -77.4156 200.83 -77.4127 200.869 -76.658C201.122 -71.6716 201.376 -66.687 201.631 -61.704L203.021 -34.4063C203.034 -34.1024 203.06 -33.8071 203.09 -33.5146C203.735 -33.0397 216.717 -26.3469 220.444 -24.5542C220.565 -24.4982 220.696 -24.4645 220.851 -24.4087C220.956 -24.6816 220.98 -24.9789 220.92 -25.2652C220.788 -28.0386 220.648 -30.8105 220.502 -33.5808C220.365 -36.2705 220.228 -38.9597 220.091 -41.6485L218.758 -67.3542C218.741 -67.6894 218.737 -68.0237 218.725 -68.3937L237.561 -80.5979L236.581 -100.036C236.551 -100.181 236.51 -100.323 236.458 -100.462L236.461 -100.464ZM256.532 -69.4852C256.527 -69.5243 256.519 -69.5628 256.507 -69.6003C256.498 -69.6254 256.484 -69.6481 256.464 -69.6663C256.319 -69.7503 256.175 -69.8379 256.027 -69.9133C250.335 -72.8209 244.642 -75.7248 239.044 -78.5745C238.908 -78.5865 238.883 -78.5919 238.856 -78.59C238.827 -78.5847 238.8 -78.5752 238.774 -78.5621C238.682 -78.5022 238.574 -78.4608 238.482 -78.4009C232.782 -74.708 227.082 -71.015 221.382 -67.322C221.317 -67.2733 221.256 -67.2191 221.2 -67.1602C221.132 -66.542 222.031 -48.3805 222.173 -47.3519C222.314 -47.2309 222.431 -47.3289 222.546 -47.3972C222.733 -47.5182 222.924 -47.6422 223.111 -47.7632C233.992 -54.813 244.872 -61.8619 255.75 -68.9098C256.034 -69.0605 256.295 -69.2525 256.523 -69.4795L256.532 -69.4852ZM298.265 -51.3366L297.27 -70.9809L239.223 -100.574C239.158 -100.607 239.069 -100.59 238.976 -100.599C238.938 -100.522 238.913 -100.439 238.901 -100.353C239.226 -93.8344 239.549 -87.3103 239.881 -80.8807L239.982 -80.7246C239.999 -80.7019 240.02 -80.6826 240.044 -80.6678C246.275 -77.4739 252.512 -74.2826 258.754 -71.0939C271.837 -64.4257 284.921 -57.7599 298.005 -51.0965C298.031 -51.0891 298.059 -51.0857 298.086 -51.0868C298.115 -51.0864 298.141 -51.094 298.185 -51.0978C298.213 -51.1846 298.268 -51.2639 298.265 -51.3366ZM297.074 -48.8389C296.856 -49.0602 296.589 -49.2274 296.295 -49.3271C293.276 -50.8751 290.255 -52.419 287.233 -53.9588L259.965 -67.8672C258.947 -68.3877 259.164 -68.3906 258.24 -67.7924C253.201 -64.5277 248.163 -61.2629 243.124 -57.9982C242.846 -57.8714 242.601 -57.6845 242.404 -57.4511C242.553 -57.1447 242.853 -57.0957 243.098 -56.9639C246.687 -55.1275 250.28 -53.2939 253.878 -51.4632C262.417 -47.1095 270.958 -42.7591 279.502 -38.412C280.519 -37.8915 280.288 -37.8481 281.312 -38.5082C286.303 -41.7416 291.295 -44.9759 296.288 -48.2112C296.59 -48.3616 296.856 -48.5746 297.069 -48.836L297.074 -48.8389ZM279.313 -35.8649L261.864 -44.764C261.743 -44.8069 261.618 -44.8387 261.491 -44.859C261.394 -44.0159 261.524 -43.2135 261.555 -42.4037C261.587 -41.5938 261.633 -40.7809 261.677 -39.9701L261.799 -37.533L261.922 -35.0973L262.048 -32.663L262.172 -30.2272C262.212 -29.4136 262.249 -28.6044 262.295 -27.7915C262.341 -26.9786 262.405 -26.177 262.44 -25.3569C262.475 -24.5369 262.528 -23.6788 262.573 -22.8397C262.617 -22.0006 262.652 -21.2147 262.685 -20.4157L262.81 -17.9778L262.936 -15.5435L263.058 -13.11L263.182 -10.6743L263.306 -8.23853L263.429 -5.8028C263.47 -4.99283 263.516 -4.17989 263.555 -3.36849C263.594 -2.5571 263.63 -1.7501 263.669 -0.904553L244.916 11.2456C244.845 11.9407 245.761 30.2158 245.895 31.0248C246.036 31.1458 246.157 31.058 246.271 30.984C246.46 30.8615 246.647 30.7404 246.838 30.6165C258.116 23.3093 269.395 16.0017 280.675 8.69358C281.642 8.06684 281.574 8.29484 281.514 7.09806L279.372 -34.9791C279.358 -35.2568 279.334 -35.5347 279.309 -35.862L279.313 -35.8649ZM300.641 -4.31471C300.648 -4.37838 300.651 -4.44246 300.648 -4.50644L298.512 -46.5087C298.5 -46.5841 298.48 -46.6578 298.451 -46.7282C298.278 -46.8409 298.171 -46.7123 298.062 -46.6483C297.866 -46.5368 297.684 -46.4033 297.497 -46.2822L281.644 -36.0109C282.362 -21.9306 283.08 -7.87239 283.799 6.1638C283.813 6.26331 283.839 6.36089 283.875 6.45472C283.971 6.45815 284.034 6.48295 284.073 6.46094C284.907 6.00466 300.121 -3.89357 300.637 -4.31187L300.641 -4.31471Z" fill="#D7D8DD"/>
</g>
<g clip-path="url(#clip3_1330_2213)">
<path d="M191.778 140.102C191.752 140.114 191.725 140.122 191.697 140.127C191.67 140.129 191.643 140.129 191.616 140.126C190.729 139.764 130.419 108.966 129.855 108.572L126.34 39.455C126.389 39.3847 126.443 39.3191 126.504 39.2587C126.663 39.1426 126.826 39.0314 126.99 38.9251C146.163 26.5024 165.34 14.0861 184.519 1.67615C184.545 1.66409 184.572 1.65705 184.6 1.6554C184.622 1.64116 184.657 1.65253 184.744 1.64639C185.018 1.78077 185.349 1.94423 185.669 2.11119L236.388 27.9873C239.437 29.5492 242.484 31.1043 245.529 32.6526C246.561 33.1857 246.419 32.9433 246.492 34.173C246.542 35.2141 246.59 36.2509 246.648 37.2805C247.743 58.7034 248.835 80.125 249.925 101.545C249.937 101.825 249.94 102.104 249.946 102.34C249.903 102.401 249.853 102.456 249.797 102.505C230.719 114.866 211.643 127.232 192.569 139.602C192.317 139.778 192.051 139.935 191.778 140.102ZM131.115 88.1728C131.295 91.9845 131.487 95.793 131.691 99.5982L132.036 106.316C132.051 106.456 132.058 106.597 132.056 106.737C132.042 106.891 132.08 107.045 132.164 107.174C132.248 107.304 132.373 107.402 132.519 107.452C133.698 108.039 134.858 108.655 136.041 109.246L189.457 136.496C189.74 136.683 190.054 136.819 190.383 136.898C190.417 136.802 190.469 136.727 190.464 136.652C190.138 130.128 189.811 123.601 189.472 116.988C170.022 107.07 150.601 97.1638 131.209 87.2687C131.078 87.5513 131.045 87.8693 131.115 88.1728ZM199.976 108.765C202.467 107.151 204.964 105.533 207.466 103.912C207.721 103.747 207.971 103.569 208.255 103.373L207.26 83.8757C207.249 83.7824 207.23 83.6902 207.203 83.6003C207.005 83.4917 206.896 83.6087 206.786 83.6741C206.621 83.7809 206.456 83.8877 206.291 83.9946C195.39 91.0577 184.487 98.1213 173.585 105.185L172.791 105.7C172.891 105.853 172.916 105.931 172.949 105.944C178.76 108.919 184.564 111.888 190.362 114.85C190.763 114.828 191.011 114.58 191.288 114.4C194.193 112.515 197.079 110.639 199.976 108.765ZM139.139 80.536L133.062 84.4731C132.805 84.6397 132.55 84.805 132.319 84.9734C132.353 85.3103 132.613 85.3449 132.799 85.4396C134.366 86.2517 135.937 87.0546 137.512 87.8483C148.166 93.2877 158.821 98.725 169.477 104.16C169.725 104.287 169.978 104.407 170.248 104.541C170.458 104.43 170.657 104.338 170.846 104.219C176.047 100.849 181.25 97.4782 186.455 94.1062C186.633 93.9908 186.788 93.8402 186.971 93.6937C186.911 93.6128 186.841 93.5409 186.761 93.4802C174.182 87.0637 161.623 80.6577 149.083 74.2621C148.748 74.3126 148.435 74.4589 148.182 74.6833C145.163 76.6308 142.149 78.5817 139.139 80.536ZM190.222 91.6684C194.201 89.0902 198.18 86.5121 202.16 83.9339C203.546 83.0356 204.939 82.1335 206.337 81.2275C206.594 81.0609 206.84 80.8825 207.062 80.7328C207.135 80.0362 206.192 60.7174 206.031 59.4328C205.856 59.1624 205.546 59.0791 205.277 58.9441C200.724 56.6189 196.177 54.3006 191.635 51.9891C190.334 51.3273 189.035 50.6658 187.737 50.0045C187.489 49.8777 187.235 49.7611 186.96 49.6303C186.131 50.0612 169.752 60.7049 169.257 61.1221C169.194 61.8152 170.202 81.6914 170.348 82.4897L189.349 92.175C189.647 92.0096 189.941 91.8507 190.22 91.6698L190.222 91.6684ZM128.738 41.4787L130.795 82.0434C130.81 82.3459 130.838 82.6398 130.872 83.0486C131.638 82.6837 147.106 72.6616 147.695 72.1491C146.981 58.2011 146.269 44.2173 145.557 30.1977C145.539 30.0394 145.513 29.8822 145.479 29.7266C145.343 29.7648 145.208 29.812 145.078 29.8681C144.904 29.9617 144.748 30.0818 144.583 30.1886C139.566 33.4391 134.549 36.69 129.53 39.9414C128.6 40.5534 128.677 40.3786 128.736 41.4801L128.738 41.4787ZM183.416 5.06944C183.086 5.2831 182.839 5.40848 182.608 5.55804L148.405 27.7188C147.789 28.1176 147.785 28.1205 147.824 28.8752C148.077 33.8616 148.331 38.8462 148.586 43.8292L149.976 71.1269C149.989 71.4308 150.015 71.7261 150.045 72.0186C150.69 72.4935 163.672 79.1863 167.399 80.979C167.52 81.035 167.651 81.0687 167.806 81.1245C167.911 80.8516 167.935 80.5543 167.875 80.2681C167.743 77.4946 167.603 74.7227 167.457 71.9524C167.32 69.2627 167.183 66.5735 167.046 63.8847L165.713 38.179C165.696 37.8438 165.692 37.5095 165.68 37.1395L184.516 24.9353L183.536 5.49681C183.506 5.35206 183.465 5.20971 183.413 5.07087L183.416 5.06944ZM203.487 36.048C203.482 36.0089 203.474 35.9704 203.462 35.9329C203.453 35.9078 203.439 35.8851 203.419 35.8669C203.274 35.7829 203.13 35.6953 202.982 35.6199C197.29 32.7123 191.597 29.8084 185.999 26.9587C185.863 26.9467 185.838 26.9413 185.811 26.9432C185.782 26.9485 185.755 26.958 185.729 26.9711C185.637 27.031 185.529 27.0724 185.437 27.1323C179.737 30.8252 174.037 34.5182 168.337 38.2112C168.272 38.2599 168.211 38.3141 168.155 38.373C168.087 38.9912 168.986 57.1527 169.128 58.1813C169.269 58.3023 169.386 58.2043 169.501 58.136C169.688 58.015 169.879 57.891 170.066 57.77C180.947 50.7202 191.827 43.6713 202.705 36.6234C202.989 36.4727 203.25 36.2807 203.478 36.0537L203.487 36.048ZM245.22 54.1966L244.225 34.5523L186.178 4.95886C186.113 4.92604 186.024 4.94304 185.931 4.93456C185.893 5.01166 185.868 5.09455 185.856 5.17989C186.181 11.6988 186.504 18.2229 186.836 24.6525L186.937 24.8086C186.954 24.8313 186.975 24.8506 186.999 24.8654C193.23 28.0593 199.467 31.2506 205.709 34.4393C218.792 41.1075 231.876 47.7733 244.96 54.4367C244.986 54.4442 245.014 54.4475 245.041 54.4464C245.07 54.4468 245.096 54.4392 245.14 54.4354C245.168 54.3486 245.223 54.2694 245.22 54.1966ZM244.029 56.6944C243.811 56.473 243.544 56.3058 243.25 56.2061C240.231 54.6581 237.21 53.1142 234.188 51.5744L206.92 37.6661C205.902 37.1456 206.119 37.1426 205.195 37.7408C200.156 41.0055 195.118 44.2703 190.079 47.535C189.801 47.6618 189.556 47.8487 189.359 48.0821C189.508 48.3885 189.808 48.4375 190.053 48.5693C193.642 50.4057 197.235 52.2393 200.833 54.07C209.372 58.4237 217.913 62.7741 226.457 67.1212C227.474 67.6417 227.243 67.6851 228.267 67.025C233.258 63.7916 238.25 60.5573 243.243 57.322C243.545 57.1716 243.811 56.9586 244.024 56.6972L244.029 56.6944ZM226.268 69.6684L208.819 60.7692C208.698 60.7263 208.573 60.6945 208.446 60.6742C208.349 61.5173 208.479 62.3197 208.51 63.1295C208.542 63.9394 208.588 64.7523 208.632 65.5631L208.754 68.0002L208.877 70.4359L209.003 72.8702L209.127 75.306C209.167 76.1196 209.204 76.9288 209.25 77.7417C209.296 78.5546 209.36 79.3562 209.395 80.1763C209.43 80.9963 209.483 81.8544 209.528 82.6935C209.572 83.5326 209.607 84.3185 209.64 85.1175L209.766 87.5554L209.891 89.9897L210.013 92.4232L210.137 94.8589L210.261 97.2947L210.384 99.7304C210.425 100.54 210.471 101.353 210.51 102.165C210.549 102.976 210.585 103.783 210.624 104.629L191.871 116.779C191.8 117.474 192.716 135.749 192.85 136.558C192.991 136.679 193.112 136.591 193.226 136.517C193.415 136.395 193.602 136.274 193.793 136.15C205.071 128.843 216.35 121.535 227.63 114.227C228.597 113.6 228.529 113.828 228.469 112.631L226.327 70.5541C226.313 70.2764 226.289 69.9985 226.264 69.6712L226.268 69.6684ZM247.596 101.218C247.603 101.155 247.606 101.091 247.603 101.027L245.467 59.0245C245.455 58.9491 245.435 58.8754 245.406 58.805C245.233 58.6923 245.126 58.8209 245.017 58.8849C244.821 58.9964 244.639 59.1299 244.452 59.251L228.599 69.5223C229.317 83.6026 230.035 97.6608 230.754 111.697C230.768 111.797 230.794 111.894 230.83 111.988C230.926 111.991 230.989 112.016 231.028 111.994C231.862 111.538 247.076 101.64 247.592 101.221L247.596 101.218Z" fill="#D7D8DD"/>
</g>
<g clip-path="url(#clip4_1330_2213)">
<path d="M255.877 239.034C255.851 239.045 255.824 239.054 255.796 239.058C255.769 239.061 255.741 239.061 255.714 239.058C254.828 238.696 194.517 207.897 193.953 207.504L190.439 138.387C190.487 138.316 190.542 138.251 190.602 138.19C190.762 138.074 190.924 137.963 191.088 137.857C210.262 125.434 229.438 113.018 248.618 100.608C248.643 100.596 248.67 100.589 248.698 100.587C248.72 100.573 248.756 100.584 248.842 100.578C249.117 100.712 249.447 100.876 249.768 101.043L300.487 126.919C303.536 128.481 306.583 130.036 309.627 131.584C310.659 132.117 310.518 131.875 310.591 133.105C310.641 134.146 310.688 135.183 310.747 136.212C311.842 157.635 312.934 179.057 314.023 200.477C314.035 200.756 314.038 201.035 314.045 201.272C314.002 201.332 313.952 201.388 313.896 201.437C294.817 213.798 275.741 226.163 256.667 238.534C256.416 238.71 256.149 238.867 255.877 239.034ZM195.213 187.104C195.394 190.916 195.586 194.725 195.789 198.53L196.134 205.248C196.15 205.388 196.156 205.529 196.154 205.669C196.141 205.823 196.179 205.977 196.263 206.106C196.347 206.235 196.471 206.333 196.617 206.384C197.797 206.971 198.957 207.586 200.139 208.178L253.556 235.428C253.839 235.614 254.152 235.75 254.481 235.83C254.515 235.733 254.567 235.659 254.562 235.584C254.237 229.059 253.909 222.532 253.57 215.919C234.12 206.002 214.699 196.095 195.308 186.2C195.177 186.483 195.144 186.801 195.213 187.104ZM264.074 207.697C266.566 206.083 269.063 204.465 271.564 202.844C271.819 202.679 272.07 202.501 272.354 202.304L271.358 182.807C271.348 182.714 271.329 182.622 271.302 182.532C271.103 182.423 270.995 182.54 270.884 182.606C270.719 182.713 270.555 182.819 270.39 182.926C259.488 189.989 248.586 197.053 237.683 204.117L236.889 204.631C236.989 204.785 237.014 204.862 237.048 204.875C242.858 207.85 248.663 210.819 254.461 213.782C254.861 213.759 255.11 213.511 255.387 213.332C258.292 211.447 261.177 209.571 264.074 207.697ZM203.237 179.468L197.161 183.405C196.904 183.571 196.649 183.737 196.418 183.905C196.452 184.242 196.711 184.277 196.898 184.371C198.464 185.183 200.035 185.986 201.611 186.78C212.264 192.219 222.919 197.657 233.576 203.092C233.824 203.218 234.076 203.339 234.347 203.472C234.556 203.362 234.756 203.27 234.944 203.151C240.146 199.781 245.349 196.41 250.553 193.038C250.731 192.922 250.887 192.772 251.069 192.625C251.01 192.544 250.939 192.473 250.859 192.412C238.281 185.995 225.721 179.589 213.181 173.194C212.847 173.244 212.534 173.391 212.28 173.615C209.262 175.562 206.247 177.513 203.237 179.468ZM254.321 190.6C258.3 188.022 262.279 185.444 266.258 182.866C267.645 181.967 269.037 181.065 270.435 180.159C270.693 179.993 270.939 179.814 271.16 179.664C271.233 178.968 270.291 159.649 270.129 158.364C269.954 158.094 269.644 158.011 269.376 157.876C264.823 155.551 260.275 153.232 255.733 150.921C254.433 150.259 253.133 149.597 251.835 148.936C251.588 148.809 251.334 148.693 251.059 148.562C250.23 148.993 233.85 159.637 233.356 160.054C233.293 160.747 234.3 180.623 234.446 181.421L253.447 191.107C253.746 190.941 254.039 190.782 254.318 190.601L254.321 190.6ZM192.836 140.41L194.894 180.975C194.909 181.278 194.937 181.571 194.971 181.98C195.736 181.615 211.205 171.593 211.793 171.081C211.08 157.133 210.367 143.149 209.655 129.129C209.638 128.971 209.612 128.814 209.578 128.658C209.441 128.696 209.307 128.744 209.176 128.8C209.003 128.893 208.847 129.013 208.682 129.12C203.665 132.371 198.647 135.622 193.629 138.873C192.699 139.485 192.776 139.31 192.834 140.412L192.836 140.41ZM247.514 104.001C247.184 104.215 246.938 104.34 246.707 104.49L212.503 126.65C211.888 127.049 211.883 127.052 211.923 127.807C212.176 132.793 212.43 137.778 212.685 142.761L214.074 170.059C214.087 170.362 214.113 170.658 214.143 170.95C214.788 171.425 227.771 178.118 231.498 179.911C231.618 179.967 231.75 180 231.904 180.056C232.009 179.783 232.033 179.486 231.974 179.2C231.841 176.426 231.702 173.654 231.555 170.884C231.419 168.194 231.282 165.505 231.144 162.816L229.812 137.111C229.795 136.775 229.79 136.441 229.778 136.071L248.615 123.867L247.635 104.428C247.604 104.284 247.563 104.141 247.512 104.003L247.514 104.001ZM267.585 134.98C267.581 134.941 267.572 134.902 267.561 134.864C267.552 134.839 267.537 134.817 267.518 134.799C267.373 134.715 267.229 134.627 267.08 134.552C261.388 131.644 255.696 128.74 250.097 125.89C249.962 125.878 249.936 125.873 249.909 125.875C249.881 125.88 249.854 125.89 249.828 125.903C249.735 125.963 249.628 126.004 249.536 126.064C243.836 129.757 238.136 133.45 232.436 137.143C232.371 137.192 232.31 137.246 232.254 137.305C232.186 137.923 233.085 156.084 233.227 157.113C233.367 157.234 233.485 157.136 233.6 157.068C233.787 156.947 233.978 156.823 234.165 156.702C245.046 149.652 255.925 142.603 266.803 135.555C267.088 135.404 267.348 135.212 267.577 134.985L267.585 134.98ZM309.318 153.128L308.324 133.484L250.277 103.891C250.212 103.858 250.123 103.875 250.03 103.866C249.992 103.943 249.966 104.026 249.955 104.112C250.28 110.63 250.602 117.154 250.935 123.584L251.036 123.74C251.053 123.763 251.074 123.782 251.098 123.797C257.329 126.991 263.566 130.182 269.808 133.371C282.891 140.039 295.975 146.705 309.059 153.368C309.085 153.376 309.112 153.379 309.14 153.378C309.168 153.378 309.194 153.371 309.239 153.367C309.267 153.28 309.322 153.201 309.318 153.128ZM308.127 155.626C307.91 155.405 307.643 155.237 307.349 155.138C304.33 153.59 301.309 152.046 298.286 150.506L271.018 136.598C270.001 136.077 270.217 136.074 269.294 136.672C264.255 139.937 259.216 143.202 254.177 146.467C253.9 146.593 253.654 146.78 253.458 147.014C253.607 147.32 253.907 147.369 254.151 147.501C257.74 149.337 261.334 151.171 264.932 153.002C273.471 157.355 282.012 161.706 290.555 166.053C291.573 166.573 291.342 166.617 292.366 165.957C297.356 162.723 302.348 159.489 307.342 156.254C307.643 156.103 307.91 155.89 308.123 155.629L308.127 155.626ZM290.367 168.6L272.918 159.701C272.797 159.658 272.672 159.626 272.544 159.606C272.448 160.449 272.577 161.251 272.609 162.061C272.64 162.871 272.686 163.684 272.731 164.495L272.852 166.932L272.976 169.368L273.102 171.802L273.225 174.238C273.266 175.051 273.303 175.86 273.349 176.673C273.395 177.486 273.459 178.288 273.494 179.108C273.529 179.928 273.582 180.786 273.626 181.625C273.67 182.464 273.705 183.25 273.739 184.049L273.864 186.487L273.99 188.921L274.112 191.355L274.236 193.791L274.359 196.226L274.483 198.662C274.524 199.472 274.57 200.285 274.609 201.096C274.647 201.908 274.683 202.715 274.722 203.56L255.969 215.71C255.899 216.406 256.814 234.681 256.948 235.49C257.089 235.611 257.21 235.523 257.325 235.449C257.514 235.326 257.701 235.205 257.892 235.081C269.17 227.774 280.449 220.467 291.728 213.158C292.696 212.532 292.628 212.76 292.567 211.563L290.426 169.486C290.411 169.208 290.387 168.93 290.363 168.603L290.367 168.6ZM311.695 200.15C311.702 200.086 311.704 200.022 311.702 199.958L309.565 157.956C309.554 157.881 309.533 157.807 309.504 157.737C309.331 157.624 309.224 157.753 309.116 157.817C308.92 157.928 308.738 158.062 308.551 158.183L292.698 168.454C293.416 182.534 294.134 196.592 294.852 210.629C294.867 210.728 294.892 210.826 294.929 210.92C295.024 210.923 295.087 210.948 295.126 210.926C295.96 210.47 311.175 200.571 311.691 200.153L311.695 200.15Z" fill="#D7D8DD"/>
</g>
<g clip-path="url(#clip5_1330_2213)">
<path d="M310.008 133.732C309.982 133.744 309.955 133.752 309.927 133.756C309.9 133.759 309.872 133.759 309.845 133.756C308.958 133.394 248.648 102.595 248.084 102.202L244.57 33.0848C244.618 33.0146 244.673 32.9489 244.733 32.8886C244.893 32.7725 245.055 32.6613 245.219 32.5549C264.393 20.1323 283.569 7.71599 302.749 -4.69397C302.774 -4.70602 302.801 -4.71307 302.829 -4.71471C302.851 -4.72896 302.887 -4.71759 302.973 -4.72373C303.247 -4.58934 303.578 -4.42588 303.898 -4.25893L354.618 21.6172C357.667 23.1791 360.714 24.7342 363.758 26.2825C364.79 26.8156 364.649 26.5732 364.721 27.8028C364.772 28.844 364.819 29.8808 364.878 30.9104C365.973 52.3333 367.065 73.7549 368.154 95.1753C368.166 95.4545 368.169 95.7335 368.175 95.9698C368.132 96.0305 368.083 96.0859 368.027 96.1349C348.948 108.496 329.872 120.862 310.798 133.232C310.547 133.408 310.28 133.565 310.008 133.732ZM249.344 81.8027C249.525 85.6144 249.717 89.4229 249.92 93.2281L250.265 99.9464C250.281 100.086 250.287 100.227 250.285 100.367C250.272 100.521 250.31 100.675 250.394 100.804C250.477 100.934 250.602 101.031 250.748 101.082C251.928 101.669 253.088 102.285 254.27 102.876L307.687 130.126C307.97 130.312 308.283 130.449 308.612 130.528C308.646 130.431 308.698 130.357 308.693 130.282C308.368 123.758 308.04 117.231 307.701 110.618C288.251 100.7 268.83 90.7937 249.439 80.8986C249.308 81.1812 249.275 81.4992 249.344 81.8027ZM318.205 102.395C320.697 100.781 323.193 99.1631 325.695 97.5421C325.95 97.3769 326.2 97.1993 326.485 97.0025L325.489 77.5056C325.479 77.4123 325.46 77.3201 325.432 77.2302C325.234 77.1215 325.126 77.2386 325.015 77.304C324.85 77.4108 324.685 77.5176 324.52 77.6245C313.619 84.6876 302.717 91.7511 291.814 98.8152L291.02 99.3294C291.12 99.4833 291.145 99.5607 291.178 99.5734C296.989 102.549 302.793 105.518 308.592 108.48C308.992 108.458 309.24 108.21 309.517 108.03C312.422 106.145 315.308 104.269 318.205 102.395ZM257.368 74.1659L251.292 78.103C251.035 78.2696 250.78 78.4348 250.548 78.6033C250.583 78.9402 250.842 78.9748 251.028 79.0695C252.595 79.8816 254.166 80.6845 255.742 81.4782C266.395 86.9176 277.05 92.3548 287.707 97.7899C287.954 97.9167 288.207 98.037 288.478 98.1706C288.687 98.06 288.887 97.9681 289.075 97.8493C294.277 94.4791 299.48 91.1081 304.684 87.736C304.862 87.6207 305.017 87.4701 305.2 87.3236C305.141 87.2427 305.07 87.1708 304.99 87.1101C292.412 80.6936 279.852 74.2876 267.312 67.892C266.977 67.9425 266.665 68.0888 266.411 68.3132C263.393 70.2607 260.378 72.2116 257.368 74.1659ZM308.451 85.2983C312.431 82.7201 316.41 80.1419 320.389 77.5638C321.776 76.6655 323.168 75.7633 324.566 74.8574C324.823 74.6908 325.07 74.5124 325.291 74.3627C325.364 73.6661 324.421 54.3472 324.26 53.0627C324.085 52.7923 323.775 52.709 323.507 52.574C318.954 50.2488 314.406 47.9304 309.864 45.619C308.564 44.9572 307.264 44.2957 305.966 43.6344C305.718 43.5076 305.465 43.391 305.19 43.2602C304.361 43.6911 287.981 54.3348 287.487 54.752C287.424 55.445 288.431 75.3213 288.577 76.1196L307.578 85.8049C307.877 85.6395 308.17 85.4806 308.449 85.2997L308.451 85.2983ZM246.967 35.1086L249.025 75.6733C249.04 75.9758 249.068 76.2697 249.102 76.6785C249.867 76.3136 265.336 66.2915 265.924 65.779C265.211 51.831 264.498 37.8472 263.786 23.8276C263.769 23.6693 263.743 23.5121 263.709 23.3565C263.572 23.3946 263.438 23.4419 263.307 23.498C263.134 23.5916 262.978 23.7116 262.813 23.8185C257.796 27.0689 252.778 30.3199 247.76 33.5713C246.83 34.1833 246.907 34.0085 246.965 35.11L246.967 35.1086ZM301.645 -1.30067C301.315 -1.08701 301.069 -0.961639 300.838 -0.812077L266.634 21.3487C266.019 21.7475 266.014 21.7504 266.054 22.5051C266.307 27.4914 266.561 32.4761 266.816 37.4591L268.205 64.7568C268.218 65.0606 268.244 65.356 268.274 65.6485C268.919 66.1234 281.902 72.8162 285.629 74.6089C285.749 74.6649 285.88 74.6986 286.035 74.7544C286.14 74.4815 286.164 74.1842 286.105 73.8979C285.972 71.1245 285.833 68.3526 285.686 65.5823C285.55 62.8926 285.413 60.2034 285.275 57.5146L283.943 31.8089C283.925 31.4737 283.921 31.1394 283.909 30.7694L302.746 18.5652L301.766 -0.873302C301.735 -1.01806 301.694 -1.16041 301.643 -1.29925L301.645 -1.30067ZM321.716 29.6779C321.712 29.6388 321.703 29.6003 321.692 29.5627C321.683 29.5376 321.668 29.515 321.649 29.4968C321.504 29.4128 321.36 29.3252 321.211 29.2498C315.519 26.3422 309.826 23.4383 304.228 20.5886C304.093 20.5766 304.067 20.5712 304.04 20.573C304.012 20.5784 303.984 20.5879 303.959 20.601C303.866 20.6609 303.759 20.7023 303.667 20.7621C297.967 24.4551 292.267 28.1481 286.567 31.8411C286.502 31.8898 286.441 31.9439 286.385 32.0029C286.317 32.6211 287.215 50.7826 287.357 51.8112C287.498 51.9322 287.616 51.8342 287.731 51.7659C287.918 51.6449 288.109 51.5209 288.296 51.3999C299.177 44.35 310.056 37.3012 320.934 30.2533C321.219 30.1026 321.479 29.9106 321.707 29.6836L321.716 29.6779ZM363.449 47.8265L362.454 28.1822L304.408 -1.41125C304.343 -1.44408 304.254 -1.42708 304.161 -1.43556C304.123 -1.35845 304.097 -1.27557 304.086 -1.19023C304.411 5.32873 304.733 11.8527 305.066 18.2824L305.167 18.4385C305.184 18.4612 305.205 18.4805 305.229 18.4953C311.46 21.6892 317.697 24.8805 323.939 28.0692C337.022 34.7374 350.105 41.4032 363.189 48.0665C363.216 48.074 363.243 48.0773 363.271 48.0763C363.299 48.0767 363.325 48.069 363.37 48.0653C363.398 47.9784 363.452 47.8992 363.449 47.8265ZM362.258 50.3242C362.04 50.1029 361.774 49.9357 361.48 49.8359C358.46 48.288 355.44 46.7441 352.417 45.2043L325.149 31.2959C324.132 30.7754 324.348 30.7725 323.425 31.3707C318.386 34.6354 313.347 37.9001 308.308 41.1649C308.031 41.2917 307.785 41.4786 307.589 41.712C307.737 42.0184 308.038 42.0674 308.282 42.1992C311.871 44.0356 315.465 45.8691 319.063 47.6998C327.602 52.0536 336.143 56.404 344.686 60.7511C345.704 61.2716 345.473 61.315 346.497 60.6549C351.487 57.4215 356.479 54.1872 361.472 50.9519C361.774 50.8014 362.041 50.5884 362.254 50.3271L362.258 50.3242ZM344.498 63.2982L327.049 54.3991C326.927 54.3562 326.802 54.3244 326.675 54.3041C326.578 55.1472 326.708 55.9496 326.74 56.7594C326.771 57.5693 326.817 58.3822 326.862 59.1929L326.983 61.6301L327.107 64.0658L327.233 66.5001L327.356 68.9359C327.396 69.7495 327.434 70.5586 327.48 71.3716C327.526 72.1845 327.589 72.9861 327.624 73.8061C327.659 74.6262 327.713 75.4843 327.757 76.3234C327.801 77.1624 327.836 77.9484 327.87 78.7473L327.995 81.1853L328.121 83.6196L328.243 86.0531L328.366 88.4888L328.49 90.9246L328.614 93.3603C328.655 94.1703 328.701 94.9832 328.739 95.7946C328.778 96.606 328.814 97.413 328.853 98.2585L310.1 110.409C310.029 111.104 310.945 129.379 311.079 130.188C311.22 130.309 311.341 130.221 311.455 130.147C311.644 130.025 311.831 129.903 312.023 129.78C323.301 122.472 334.58 115.165 345.859 107.857C346.826 107.23 346.759 107.458 346.698 106.261L344.557 64.184C344.542 63.9063 344.518 63.6284 344.493 63.3011L344.498 63.2982ZM365.826 94.8484C365.833 94.7847 365.835 94.7206 365.833 94.6566L363.696 52.6544C363.685 52.579 363.664 52.5053 363.635 52.4349C363.462 52.3222 363.355 52.4508 363.247 52.5148C363.05 52.6263 362.869 52.7598 362.682 52.8809L346.829 63.1522C347.546 77.2325 348.265 91.2907 348.983 105.327C348.998 105.426 349.023 105.524 349.059 105.618C349.155 105.621 349.218 105.646 349.257 105.624C350.091 105.168 365.306 95.2695 365.821 94.8512L365.826 94.8484Z" fill="#D7D8DD"/>
</g>
<g clip-path="url(#clip6_1330_2213)">
<path d="M374.105 232.663C374.079 232.674 374.052 232.683 374.024 232.687C373.997 232.69 373.97 232.69 373.943 232.687C373.056 232.325 312.746 201.526 312.182 201.133L308.667 132.016C308.716 131.945 308.77 131.88 308.831 131.819C308.991 131.703 309.153 131.592 309.317 131.486C328.49 119.063 347.667 106.647 366.846 94.2367C366.872 94.2246 366.899 94.2176 366.927 94.216C366.949 94.2017 366.984 94.2131 367.071 94.2069C367.345 94.3413 367.676 94.5048 367.996 94.6717L418.715 120.548C421.764 122.11 424.811 123.665 427.856 125.213C428.888 125.746 428.746 125.504 428.819 126.734C428.869 127.775 428.917 128.811 428.975 129.841C430.07 151.264 431.162 172.686 432.252 194.106C432.264 194.385 432.267 194.664 432.273 194.9C432.23 194.961 432.18 195.017 432.124 195.066C413.046 207.427 393.97 219.792 374.896 232.163C374.644 232.338 374.378 232.496 374.105 232.663ZM313.442 180.733C313.622 184.545 313.814 188.354 314.018 192.159L314.363 198.877C314.378 199.017 314.385 199.157 314.383 199.298C314.369 199.452 314.407 199.605 314.491 199.735C314.575 199.864 314.7 199.962 314.846 200.013C316.025 200.6 317.186 201.215 318.368 201.807L371.784 229.057C372.067 229.243 372.381 229.379 372.71 229.459C372.744 229.362 372.796 229.288 372.791 229.213C372.465 222.688 372.138 216.161 371.799 209.548C352.349 199.631 332.928 189.724 313.536 179.829C313.406 180.112 313.372 180.43 313.442 180.733ZM382.303 201.326C384.794 199.711 387.291 198.094 389.793 196.473C390.048 196.308 390.298 196.13 390.582 195.933L389.587 176.436C389.576 176.343 389.557 176.251 389.53 176.161C389.332 176.052 389.223 176.169 389.113 176.235C388.948 176.341 388.783 176.448 388.618 176.555C377.717 183.618 366.814 190.682 355.912 197.746L355.118 198.26C355.218 198.414 355.243 198.491 355.276 198.504C361.087 201.479 366.891 204.448 372.689 207.411C373.09 207.388 373.338 207.14 373.615 206.961C376.52 205.076 379.406 203.199 382.303 201.326ZM321.466 173.097L315.389 177.034C315.132 177.2 314.877 177.366 314.646 177.534C314.68 177.871 314.94 177.905 315.126 178C316.693 178.812 318.264 179.615 319.839 180.409C330.493 185.848 341.148 191.286 351.804 196.721C352.052 196.847 352.305 196.968 352.575 197.101C352.785 196.991 352.984 196.899 353.173 196.78C358.374 193.41 363.577 190.039 368.782 186.667C368.96 186.551 369.115 186.401 369.298 186.254C369.238 186.173 369.168 186.101 369.088 186.041C356.509 179.624 343.95 173.218 331.41 166.823C331.075 166.873 330.762 167.019 330.509 167.244C327.49 169.191 324.476 171.142 321.466 173.097ZM372.549 184.229C376.528 181.651 380.507 179.073 384.487 176.494C385.873 175.596 387.266 174.694 388.664 173.788C388.921 173.621 389.167 173.443 389.389 173.293C389.462 172.597 388.519 153.278 388.358 151.993C388.183 151.723 387.873 151.64 387.604 151.505C383.051 149.179 378.504 146.861 373.962 144.55C372.661 143.888 371.362 143.226 370.064 142.565C369.816 142.438 369.562 142.322 369.287 142.191C368.458 142.622 352.079 153.265 351.584 153.683C351.521 154.376 352.529 174.252 352.675 175.05L371.676 184.736C371.974 184.57 372.268 184.411 372.547 184.23L372.549 184.229ZM311.065 134.039L313.122 174.604C313.137 174.906 313.165 175.2 313.199 175.609C313.965 175.244 329.433 165.222 330.022 164.71C329.308 150.762 328.596 136.778 327.884 122.758C327.866 122.6 327.84 122.443 327.806 122.287C327.67 122.325 327.535 122.373 327.405 122.429C327.231 122.522 327.075 122.642 326.91 122.749C321.893 126 316.876 129.251 311.857 132.502C310.927 133.114 311.004 132.939 311.063 134.041L311.065 134.039ZM365.743 97.63C365.413 97.8437 365.166 97.969 364.936 98.1186L330.732 120.279C330.116 120.678 330.112 120.681 330.151 121.436C330.404 126.422 330.658 131.407 330.913 136.39L332.303 163.687C332.316 163.991 332.342 164.287 332.372 164.579C333.017 165.054 345.999 171.747 349.726 173.54C349.847 173.596 349.978 173.629 350.133 173.685C350.238 173.412 350.262 173.115 350.202 172.829C350.07 170.055 349.93 167.283 349.784 164.513C349.647 161.823 349.51 159.134 349.373 156.445L348.04 130.74C348.023 130.404 348.019 130.07 348.007 129.7L366.843 117.496L365.863 98.0574C365.833 97.9126 365.792 97.7703 365.74 97.6314L365.743 97.63ZM385.814 128.609C385.809 128.569 385.801 128.531 385.789 128.493C385.78 128.468 385.766 128.446 385.746 128.427C385.601 128.343 385.457 128.256 385.309 128.18C379.617 125.273 373.924 122.369 368.326 119.519C368.19 119.507 368.165 119.502 368.138 119.504C368.109 119.509 368.082 119.519 368.056 119.532C367.964 119.592 367.856 119.633 367.764 119.693C362.064 123.386 356.364 127.079 350.665 130.772C350.599 130.82 350.538 130.875 350.482 130.934C350.415 131.552 351.313 149.713 351.455 150.742C351.596 150.863 351.713 150.765 351.828 150.697C352.015 150.576 352.206 150.452 352.393 150.331C363.274 143.281 374.154 136.232 385.032 129.184C385.316 129.033 385.577 128.841 385.805 128.614L385.814 128.609ZM427.547 146.757L426.552 127.113L368.505 97.5194C368.44 97.4866 368.351 97.5036 368.258 97.4951C368.22 97.5722 368.195 97.6551 368.183 97.7404C368.508 104.259 368.831 110.783 369.163 117.213L369.265 117.369C369.281 117.392 369.302 117.411 369.326 117.426C375.557 120.62 381.794 123.811 388.036 127C401.119 133.668 414.203 140.334 427.287 146.997C427.313 147.005 427.341 147.008 427.368 147.007C427.397 147.007 427.423 147 427.467 146.996C427.495 146.909 427.55 146.83 427.547 146.757ZM426.356 149.255C426.138 149.034 425.871 148.866 425.577 148.767C422.558 147.219 419.537 145.675 416.515 144.135L389.247 130.227C388.229 129.706 388.446 129.703 387.522 130.301C382.484 133.566 377.445 136.831 372.406 140.096C372.128 140.222 371.883 140.409 371.687 140.643C371.835 140.949 372.135 140.998 372.38 141.13C375.969 142.966 379.562 144.8 383.16 146.631C391.699 150.984 400.241 155.335 408.784 159.682C409.801 160.202 409.57 160.246 410.594 159.586C415.585 156.352 420.577 153.118 425.57 149.883C425.872 149.732 426.138 149.519 426.351 149.258L426.356 149.255ZM408.595 162.229L391.146 153.33C391.025 153.287 390.9 153.255 390.773 153.235C390.676 154.078 390.806 154.88 390.837 155.69C390.869 156.5 390.915 157.313 390.959 158.124L391.081 160.561L391.204 162.996L391.33 165.431L391.454 167.867C391.494 168.68 391.531 169.489 391.577 170.302C391.623 171.115 391.687 171.917 391.722 172.737C391.757 173.557 391.81 174.415 391.855 175.254C391.899 176.093 391.934 176.879 391.968 177.678L392.093 180.116L392.218 182.55L392.34 184.984L392.464 187.419L392.588 189.855L392.711 192.291C392.752 193.101 392.798 193.914 392.837 194.725C392.876 195.537 392.912 196.344 392.951 197.189L374.198 209.339C374.127 210.034 375.043 228.31 375.177 229.119C375.318 229.24 375.439 229.152 375.553 229.078C375.742 228.955 375.929 228.834 376.12 228.71C387.398 221.403 398.677 214.095 409.957 206.787C410.924 206.161 410.856 206.389 410.796 205.192L408.654 163.115C408.64 162.837 408.616 162.559 408.591 162.232L408.595 162.229ZM429.923 193.779C429.93 193.715 429.933 193.651 429.93 193.587L427.794 151.585C427.782 151.51 427.762 151.436 427.733 151.366C427.56 151.253 427.453 151.381 427.344 151.445C427.148 151.557 426.966 151.69 426.779 151.812L410.926 162.083C411.644 176.163 412.362 190.221 413.081 204.258C413.095 204.357 413.121 204.455 413.157 204.548C413.253 204.552 413.316 204.577 413.355 204.555C414.189 204.098 429.403 194.2 429.919 193.782L429.923 193.779Z" fill="#D7D8DD"/>
</g>
<g clip-path="url(#clip7_1330_2213)">
<path d="M363.271 28.0553C363.245 28.067 363.218 28.0752 363.19 28.0796C363.163 28.0824 363.136 28.0823 363.109 28.0793C362.222 27.7175 301.912 -3.08131 301.348 -3.47452L297.834 -72.5919C297.882 -72.6621 297.936 -72.7278 297.997 -72.7881C298.157 -72.9042 298.319 -73.0155 298.483 -73.1218C317.656 -85.5445 336.833 -97.9608 356.013 -110.371C356.038 -110.383 356.065 -110.39 356.093 -110.391C356.115 -110.406 356.15 -110.394 356.237 -110.4C356.511 -110.266 356.842 -110.103 357.162 -109.936L407.881 -84.0596C410.931 -82.4977 413.977 -80.9425 417.022 -79.3942C418.054 -78.8612 417.913 -79.1035 417.985 -77.8739C418.035 -76.8328 418.083 -75.796 418.141 -74.7664C419.236 -53.3435 420.328 -31.9218 421.418 -10.5014C421.43 -10.2223 421.433 -9.94321 421.439 -9.70699C421.396 -9.64627 421.346 -9.59083 421.29 -9.54181C402.212 2.8191 383.136 15.1849 364.062 27.5555C363.81 27.731 363.544 27.8881 363.271 28.0553ZM302.608 -23.874C302.788 -20.0623 302.98 -16.2539 303.184 -12.4487L303.529 -5.73038C303.544 -5.59061 303.551 -5.45001 303.549 -5.30941C303.535 -5.15575 303.573 -5.00196 303.657 -4.87249C303.741 -4.74302 303.866 -4.64531 304.012 -4.59491C305.191 -4.00762 306.352 -3.39225 307.534 -2.80057L360.95 24.4493C361.234 24.6357 361.547 24.7718 361.876 24.8516C361.91 24.7546 361.962 24.6805 361.957 24.6056C361.631 18.0808 361.304 11.5538 360.965 4.94096C341.515 -4.97669 322.094 -14.8831 302.702 -24.7781C302.572 -24.4955 302.538 -24.1776 302.608 -23.874ZM371.469 -3.28169C373.96 -4.89601 376.457 -6.51365 378.959 -8.13461C379.214 -8.29984 379.464 -8.47748 379.749 -8.6743L378.753 -28.1711C378.742 -28.2645 378.723 -28.3567 378.696 -28.4465C378.498 -28.5552 378.389 -28.4382 378.279 -28.3728C378.114 -28.266 377.949 -28.1591 377.784 -28.0523C366.883 -20.9892 355.981 -13.9256 345.078 -6.86156L344.284 -6.34735C344.384 -6.19346 344.409 -6.1161 344.442 -6.10332C350.253 -3.12805 356.057 -0.159167 361.855 2.80333C362.256 2.78097 362.504 2.53283 362.781 2.35335C365.686 0.468098 368.572 -1.40796 371.469 -3.28169ZM310.632 -31.5108L304.555 -27.5738C304.298 -27.4071 304.043 -27.2419 303.812 -27.0735C303.846 -26.7366 304.106 -26.702 304.292 -26.6072C305.859 -25.7952 307.43 -24.9923 309.005 -24.1986C319.659 -18.7592 330.314 -13.3219 340.971 -7.88683C341.218 -7.76007 341.471 -7.63977 341.742 -7.50617C341.951 -7.61677 342.15 -7.70862 342.339 -7.82749C347.54 -11.1976 352.743 -14.5687 357.948 -17.9407C358.126 -18.0561 358.281 -18.2066 358.464 -18.3532C358.404 -18.434 358.334 -18.5059 358.254 -18.5667C345.675 -24.9831 333.116 -31.3892 320.576 -37.7848C320.241 -37.7343 319.928 -37.588 319.675 -37.3636C316.656 -35.4161 313.642 -33.4652 310.632 -31.5108ZM361.715 -20.3785C365.694 -22.9567 369.674 -25.5348 373.653 -28.113C375.039 -29.0113 376.432 -29.9134 377.83 -30.8193C378.087 -30.986 378.334 -31.1644 378.555 -31.3141C378.628 -32.0107 377.685 -51.3295 377.524 -52.6141C377.349 -52.8845 377.039 -52.9677 376.77 -53.1028C372.217 -55.428 367.67 -57.7463 363.128 -60.0578C361.827 -60.7196 360.528 -61.3811 359.23 -62.0424C358.982 -62.1691 358.729 -62.2858 358.453 -62.4165C357.625 -61.9856 341.245 -51.3419 340.75 -50.9248C340.688 -50.2317 341.695 -30.3554 341.841 -29.5572L360.842 -19.8719C361.14 -20.0373 361.434 -20.1962 361.713 -20.3771L361.715 -20.3785ZM300.231 -70.5682L302.288 -30.0035C302.303 -29.701 302.331 -29.4071 302.365 -28.9983C303.131 -29.3632 318.599 -39.3852 319.188 -39.8978C318.475 -53.8457 317.762 -67.8295 317.05 -81.8492C317.032 -82.0074 317.006 -82.1647 316.972 -82.3203C316.836 -82.2821 316.702 -82.2348 316.571 -82.1788C316.398 -82.0851 316.241 -81.9651 316.076 -81.8583C311.059 -78.6078 306.042 -75.3569 301.023 -72.1054C300.093 -71.4935 300.171 -71.6683 300.229 -70.5667L300.231 -70.5682ZM354.909 -106.977C354.579 -106.764 354.332 -106.638 354.102 -106.489L319.898 -84.3281C319.282 -83.9292 319.278 -83.9264 319.317 -83.1717C319.57 -78.1853 319.824 -73.2007 320.079 -68.2177L321.469 -40.92C321.482 -40.6161 321.508 -40.3208 321.538 -40.0283C322.183 -39.5534 335.165 -32.8606 338.892 -31.0679C339.013 -31.0118 339.144 -30.9781 339.299 -30.9223C339.404 -31.1952 339.428 -31.4926 339.368 -31.7788C339.236 -34.5523 339.096 -37.3242 338.95 -40.0944C338.813 -42.7842 338.676 -45.4734 338.539 -48.1622L337.207 -73.8679C337.189 -74.203 337.185 -74.5373 337.173 -74.9073L356.009 -87.1116L355.03 -106.55C354.999 -106.695 354.958 -106.837 354.907 -106.976L354.909 -106.977ZM374.98 -75.9989C374.975 -76.0379 374.967 -76.0765 374.955 -76.114C374.947 -76.1391 374.932 -76.1617 374.912 -76.18C374.768 -76.264 374.623 -76.3516 374.475 -76.4269C368.783 -79.3345 363.09 -82.2385 357.492 -85.0882C357.356 -85.1001 357.331 -85.1055 357.304 -85.1037C357.276 -85.0983 357.248 -85.0889 357.222 -85.0757C357.13 -85.0159 357.023 -84.9744 356.93 -84.9146C351.23 -81.2216 345.53 -77.5286 339.831 -73.8357C339.765 -73.787 339.704 -73.7328 339.648 -73.6738C339.581 -73.0557 340.479 -54.8941 340.621 -53.8656C340.762 -53.7446 340.879 -53.8426 340.994 -53.9108C341.181 -54.0319 341.373 -54.1558 341.559 -54.2769C352.44 -61.3267 363.32 -68.3756 374.198 -75.4235C374.482 -75.5742 374.743 -75.7662 374.971 -75.9932L374.98 -75.9989ZM416.713 -57.8502L415.718 -77.4945L357.671 -107.088C357.606 -107.121 357.517 -107.104 357.425 -107.112C357.386 -107.035 357.361 -106.952 357.349 -106.867C357.674 -100.348 357.997 -93.824 358.329 -87.3943L358.431 -87.2382C358.447 -87.2155 358.468 -87.1963 358.492 -87.1815C364.723 -83.9876 370.96 -80.7963 377.203 -77.6075C390.286 -70.9393 403.369 -64.2736 416.453 -57.6102C416.479 -57.6027 416.507 -57.5994 416.534 -57.6004C416.563 -57.6001 416.589 -57.6077 416.633 -57.6115C416.661 -57.6983 416.716 -57.7775 416.713 -57.8502ZM415.522 -55.3525C415.304 -55.5738 415.037 -55.7411 414.743 -55.8408C411.724 -57.3888 408.703 -58.9327 405.681 -60.4725L378.413 -74.3808C377.395 -74.9013 377.612 -74.9043 376.688 -74.3061C371.65 -71.0413 366.611 -67.7766 361.572 -64.5119C361.295 -64.385 361.049 -64.1981 360.853 -63.9648C361.001 -63.6584 361.301 -63.6094 361.546 -63.4776C365.135 -61.6412 368.728 -59.8076 372.326 -57.9769C380.865 -53.6231 389.407 -49.2727 397.95 -44.9257C398.967 -44.4052 398.736 -44.3617 399.76 -45.0219C404.751 -48.2552 409.743 -51.4896 414.736 -54.7249C415.038 -54.8753 415.304 -55.0883 415.517 -55.3497L415.522 -55.3525ZM397.762 -42.3785L380.313 -51.2777C380.191 -51.3206 380.066 -51.3524 379.939 -51.3726C379.842 -50.5296 379.972 -49.7272 380.003 -48.9173C380.035 -48.1075 380.081 -47.2946 380.126 -46.4838L380.247 -44.0467L380.37 -41.6109L380.496 -39.1766L380.62 -36.7409C380.66 -35.9273 380.697 -35.1181 380.743 -34.3052C380.789 -33.4922 380.853 -32.6907 380.888 -31.8706C380.923 -31.0505 380.977 -30.1925 381.021 -29.3534C381.065 -28.5143 381.1 -27.7284 381.134 -26.9294L381.259 -24.4915L381.384 -22.0572L381.507 -19.6237L381.63 -17.1879L381.754 -14.7522L381.877 -12.3165C381.918 -11.5065 381.964 -10.6936 382.003 -9.88216C382.042 -9.07077 382.078 -8.26377 382.117 -7.41822L363.364 4.73188C363.293 5.42703 364.209 23.7021 364.343 24.5111C364.484 24.6322 364.605 24.5444 364.719 24.4703C364.908 24.3478 365.095 24.2267 365.286 24.1028C376.564 16.7956 387.843 9.48801 399.123 2.17991C400.09 1.55317 400.023 1.78117 399.962 0.584389L397.82 -41.4927C397.806 -41.7705 397.782 -42.0484 397.757 -42.3757L397.762 -42.3785ZM419.09 -10.8284C419.096 -10.8921 419.099 -10.9561 419.096 -11.0201L416.96 -53.0224C416.948 -53.0977 416.928 -53.1714 416.899 -53.2419C416.726 -53.3546 416.619 -53.2259 416.51 -53.1619C416.314 -53.0504 416.132 -52.9169 415.945 -52.7959L400.092 -42.5245C400.81 -28.4443 401.528 -14.3861 402.247 -0.349871C402.261 -0.250364 402.287 -0.152786 402.323 -0.0589527C402.419 -0.0555212 402.482 -0.0307208 402.521 -0.052733C403.355 -0.509007 418.57 -10.4072 419.085 -10.8255L419.09 -10.8284Z" fill="#D7D8DD"/>
</g>
</g>
<defs>
<clipPath id="clip0_1330_2213">
<rect width="310" height="239" fill="white"/>
</clipPath>
<clipPath id="clip1_1330_2213">
<rect width="120.162" height="138.785" fill="white" transform="matrix(0.543752 0.839246 0.839246 -0.543752 32.0488 -40.958)"/>
</clipPath>
<clipPath id="clip2_1330_2213">
<rect width="120.162" height="138.785" fill="white" transform="matrix(0.543752 0.839246 0.839246 -0.543752 150.278 -47.3291)"/>
</clipPath>
<clipPath id="clip3_1330_2213">
<rect width="120.162" height="138.785" fill="white" transform="matrix(0.543752 0.839246 0.839246 -0.543752 97.2333 58.2041)"/>
</clipPath>
<clipPath id="clip4_1330_2213">
<rect width="120.162" height="138.785" fill="white" transform="matrix(0.543752 0.839246 0.839246 -0.543752 161.332 157.136)"/>
</clipPath>
<clipPath id="clip5_1330_2213">
<rect width="120.162" height="138.785" fill="white" transform="matrix(0.543752 0.839246 0.839246 -0.543752 215.463 51.834)"/>
</clipPath>
<clipPath id="clip6_1330_2213">
<rect width="120.162" height="138.785" fill="white" transform="matrix(0.543752 0.839246 0.839246 -0.543752 279.56 150.765)"/>
</clipPath>
<clipPath id="clip7_1330_2213">
<rect width="120.162" height="138.785" fill="white" transform="matrix(0.543752 0.839246 0.839246 -0.543752 268.727 -53.8428)"/>
</clipPath>
</defs>
</svg>
