<svg width="356" height="276" viewBox="0 0 356 276" fill="none" xmlns="http://www.w3.org/2000/svg">
<g clip-path="url(#clip0_1321_2210)">
<g clip-path="url(#clip1_1321_2210)">
<path d="M-61.9837 176.689C-62.0137 176.703 -62.0453 176.712 -62.0779 176.718C-62.1093 176.721 -62.1411 176.721 -62.1725 176.717C-63.2042 176.296 -133.369 140.465 -134.025 140.008L-138.114 59.5965C-138.058 59.5148 -137.994 59.4384 -137.924 59.3682C-137.738 59.2331 -137.549 59.1037 -137.359 58.98C-115.052 44.5275 -92.742 30.0824 -70.4284 15.6446C-70.3992 15.6306 -70.3675 15.6224 -70.3351 15.6205C-70.3095 15.6039 -70.2683 15.6172 -70.1676 15.61C-69.8484 15.7664 -69.4638 15.9565 -69.091 16.1508L-10.0844 46.255C-6.53694 48.0721 -2.99225 49.8814 0.549737 51.6827C1.75043 52.3028 1.5859 52.0209 1.67029 53.4514C1.72881 54.6627 1.78401 55.8688 1.852 57.0667C3.12594 81.9901 4.39653 106.912 5.66375 131.832C5.67809 132.157 5.68143 132.482 5.68882 132.757C5.6388 132.827 5.58065 132.892 5.51555 132.949C-16.6801 147.33 -38.8732 161.716 -61.0639 176.108C-61.3566 176.312 -61.6667 176.495 -61.9837 176.689ZM-132.56 116.275C-132.349 120.709 -132.126 125.14 -131.889 129.567L-131.488 137.383C-131.47 137.546 -131.462 137.709 -131.465 137.873C-131.481 138.052 -131.436 138.231 -131.338 138.381C-131.241 138.532 -131.096 138.645 -130.926 138.704C-129.554 139.387 -128.204 140.103 -126.828 140.792L-64.6836 172.494C-64.3544 172.711 -63.9901 172.869 -63.6069 172.962C-63.5674 172.849 -63.5071 172.763 -63.5127 172.676C-63.8917 165.085 -64.2723 157.492 -64.6669 149.798C-87.295 138.26 -109.889 126.735 -132.449 115.223C-132.602 115.552 -132.64 115.922 -132.56 116.275ZM-52.4467 140.232C-49.5479 138.354 -46.6433 136.472 -43.7326 134.586C-43.4359 134.394 -43.1449 134.187 -42.814 133.958L-43.9724 111.276C-43.9846 111.167 -44.0067 111.06 -44.0384 110.955C-44.2692 110.829 -44.3952 110.965 -44.5239 111.041C-44.7157 111.165 -44.9075 111.29 -45.0994 111.414C-57.7821 119.631 -70.4657 127.849 -83.1501 136.067L-84.0734 136.665C-83.9574 136.844 -83.9282 136.934 -83.8895 136.949C-77.1294 140.411 -70.3765 143.865 -63.6309 147.311C-63.1648 147.285 -62.8761 146.997 -62.5539 146.788C-59.1743 144.594 -55.8168 142.412 -52.4467 140.232ZM-123.224 107.39L-130.294 111.971C-130.593 112.164 -130.889 112.357 -131.158 112.553C-131.119 112.944 -130.817 112.985 -130.6 113.095C-128.777 114.04 -126.95 114.974 -125.117 115.897C-112.723 122.225 -100.326 128.551 -87.9283 134.874C-87.6403 135.022 -87.3463 135.162 -87.0313 135.317C-86.7879 135.188 -86.5557 135.082 -86.3366 134.943C-80.2851 131.023 -74.2319 127.101 -68.177 123.178C-67.9699 123.043 -67.7892 122.868 -67.5765 122.698C-67.6457 122.604 -67.728 122.52 -67.8209 122.449C-82.4549 114.984 -97.0665 107.532 -111.656 100.091C-112.045 100.15 -112.409 100.32 -112.704 100.581C-116.215 102.847 -119.722 105.116 -123.224 107.39ZM-63.7941 120.342C-59.1646 117.342 -54.5352 114.343 -49.9058 111.343C-48.2928 110.298 -46.6729 109.249 -45.0462 108.195C-44.7469 108.001 -44.4602 107.793 -44.2026 107.619C-44.1176 106.809 -45.2146 84.3331 -45.4021 82.8387C-45.6059 82.5241 -45.9664 82.4272 -46.2788 82.2701C-51.5757 79.565 -56.8662 76.8678 -62.1503 74.1787C-63.6635 73.4087 -65.1753 72.6391 -66.6857 71.8698C-66.9737 71.7223 -67.2686 71.5866 -67.5887 71.4345C-68.553 71.9358 -87.6092 84.3187 -88.1844 84.804C-88.2575 85.6103 -87.0854 108.734 -86.9158 109.663L-64.8103 120.931C-64.4628 120.738 -64.1214 120.554 -63.7966 120.343L-63.7941 120.342ZM-135.325 61.9509L-132.931 109.144C-132.914 109.496 -132.881 109.838 -132.842 110.313C-131.951 109.889 -113.955 98.2291 -113.27 97.6328C-114.1 81.4058 -114.929 65.137 -115.758 48.8266C-115.778 48.6425 -115.808 48.4595 -115.848 48.2785C-116.007 48.3229 -116.163 48.3779 -116.315 48.4431C-116.516 48.5521 -116.698 48.6917 -116.89 48.816C-122.727 52.5976 -128.564 56.3797 -134.403 60.1624C-135.485 60.8744 -135.395 60.671 -135.327 61.9526L-135.325 61.9509ZM-71.7126 19.5924C-72.0963 19.841 -72.3831 19.9868 -72.6516 20.1608L-112.444 45.9426C-113.16 46.4066 -113.165 46.41 -113.119 47.288C-112.825 53.0891 -112.53 58.8883 -112.233 64.6854L-110.616 96.4435C-110.602 96.7971 -110.571 97.1407 -110.536 97.481C-109.786 98.0335 -94.6822 105.82 -90.346 107.905C-90.2056 107.971 -90.0532 108.01 -89.8731 108.075C-89.7511 107.757 -89.7231 107.411 -89.7924 107.078C-89.9463 103.852 -90.1086 100.627 -90.2794 97.404C-90.4379 94.2748 -90.5972 91.1461 -90.7574 88.018L-92.3073 58.112C-92.3276 57.7221 -92.3326 57.3332 -92.3464 56.9027L-70.4321 42.7043L-71.5721 20.0896C-71.6078 19.9212 -71.6556 19.7556 -71.7152 19.5941L-71.7126 19.5924ZM-48.3619 55.6328C-48.3673 55.5874 -48.3769 55.5425 -48.3905 55.4989C-48.4007 55.4697 -48.4177 55.4433 -48.4403 55.4221C-48.6089 55.3244 -48.7766 55.2225 -48.9496 55.1348C-55.5715 51.7521 -62.1943 48.3737 -68.7072 45.0583C-68.8651 45.0444 -68.8946 45.0381 -68.926 45.0403C-68.959 45.0465 -68.9911 45.0575 -69.021 45.0728C-69.1285 45.1424 -69.2534 45.1907 -69.3608 45.2603C-75.992 49.5567 -82.6233 53.8531 -89.2545 58.1495C-89.3304 58.2062 -89.4013 58.2691 -89.4666 58.3378C-89.5453 59.057 -88.5001 80.186 -88.3349 81.3827C-88.171 81.5234 -88.0343 81.4094 -87.9005 81.33C-87.6831 81.1892 -87.4606 81.045 -87.2432 80.9041C-74.5843 72.7024 -61.9272 64.5018 -49.2717 56.3022C-48.9408 56.1269 -48.6376 55.9035 -48.3721 55.6394L-48.3619 55.6328ZM0.190078 76.7469L-0.966996 53.8928L-68.4987 19.4638C-68.5743 19.4256 -68.6777 19.4453 -68.7857 19.4355C-68.8303 19.5252 -68.8599 19.6216 -68.8732 19.7209C-68.4949 27.305 -68.1201 34.8951 -67.7329 42.3754L-67.6153 42.557C-67.5958 42.5834 -67.5714 42.6058 -67.5434 42.623C-60.2941 46.3388 -53.0383 50.0516 -45.776 53.7613C-30.5553 61.5191 -15.3339 69.274 -0.111983 77.0262C-0.081265 77.0349 -0.0493672 77.0387 -0.0174563 77.0376C0.0155057 77.038 0.0460581 77.0291 0.0976805 77.0247C0.130281 76.9237 0.194041 76.8315 0.190078 76.7469ZM-1.19544 79.6528C-1.44879 79.3953 -1.75891 79.2008 -2.10096 79.0847C-5.61365 77.2838 -9.12808 75.4876 -12.6443 73.6962L-44.3678 57.5153C-45.5518 56.9097 -45.2999 56.9063 -46.3741 57.6023C-52.2363 61.4004 -58.0985 65.1986 -63.9608 68.9968C-64.2834 69.1444 -64.5692 69.3618 -64.7975 69.6333C-64.6247 69.9898 -64.2755 70.0468 -63.9909 70.2001C-59.8154 72.3366 -55.6347 74.4697 -51.449 76.5996C-41.5145 81.6647 -31.5778 86.726 -21.6388 91.7833C-20.4548 92.3889 -20.7235 92.4394 -19.5325 91.6714C-13.7265 87.9097 -7.91888 84.1469 -2.10951 80.383C-1.75837 80.2079 -1.44852 79.9601 -1.20056 79.6561L-1.19544 79.6528ZM-21.8577 94.7467L-42.1578 84.3935C-42.2991 84.3435 -42.4446 84.3065 -42.5926 84.2829C-42.7051 85.2637 -42.5542 86.1973 -42.5175 87.1394C-42.4809 88.0816 -42.4273 89.0274 -42.3754 89.9706L-42.2342 92.806L-42.0904 95.6397L-41.9441 98.4718L-41.8003 101.306C-41.7536 102.252 -41.7101 103.193 -41.6566 104.139C-41.603 105.085 -41.529 106.018 -41.4883 106.972C-41.4475 107.926 -41.3853 108.924 -41.3339 109.9C-41.2824 110.876 -41.242 111.791 -41.2026 112.72L-41.0572 115.556L-40.9109 118.389L-40.7687 121.22L-40.625 124.053L-40.4812 126.887L-40.3374 129.721C-40.2898 130.663 -40.2362 131.609 -40.1911 132.553C-40.146 133.497 -40.1042 134.436 -40.0587 135.419L-61.8758 149.555C-61.9583 150.364 -60.8928 171.625 -60.7369 172.566C-60.573 172.707 -60.4322 172.605 -60.2992 172.519C-60.0793 172.376 -59.8619 172.235 -59.6394 172.091C-46.5184 163.59 -33.3966 155.088 -20.274 146.586C-19.1486 145.857 -19.2273 146.122 -19.2978 144.73L-21.7892 95.7772C-21.8061 95.4541 -21.834 95.1308 -21.8628 94.75L-21.8577 94.7467ZM2.95523 131.452C2.96315 131.378 2.96584 131.303 2.96324 131.229L0.477434 82.3637C0.46419 82.276 0.440339 82.1902 0.406396 82.1083C0.205235 81.9772 0.0807058 82.1269 -0.0453776 82.2013C-0.273625 82.331 -0.485302 82.4863 -0.702706 82.6272L-19.1462 94.5768C-18.3109 110.958 -17.4753 127.313 -16.6394 143.643C-16.6226 143.759 -16.5929 143.872 -16.5508 143.981C-16.4393 143.985 -16.3661 144.014 -16.321 143.988C-15.3504 143.458 2.35033 131.942 2.95012 131.455L2.95523 131.452Z" fill="#D7D8DD"/>
</g>
<g clip-path="url(#clip2_1321_2210)">
<path d="M12.5898 291.785C12.5598 291.799 12.5281 291.808 12.4956 291.813C12.4641 291.817 12.4324 291.816 12.4009 291.813C11.3692 291.392 -58.7959 255.561 -59.4518 255.103L-63.5404 174.692C-63.4842 174.61 -63.4206 174.534 -63.3506 174.464C-63.1645 174.329 -62.976 174.199 -62.785 174.076C-40.4786 159.623 -18.1685 145.178 4.14507 130.74C4.17431 130.726 4.20599 130.718 4.23837 130.716C4.26394 130.7 4.30519 130.713 4.40587 130.706C4.72505 130.862 5.10972 131.052 5.4825 131.246L64.4891 161.351C68.0365 163.168 71.5812 164.977 75.1232 166.778C76.3239 167.399 76.1594 167.117 76.2438 168.547C76.3023 169.758 76.3575 170.965 76.4255 172.162C77.6994 197.086 78.97 222.008 80.2372 246.928C80.2516 247.253 80.2549 247.578 80.2623 247.852C80.2123 247.923 80.1541 247.988 80.089 248.045C57.8934 262.425 35.7003 276.812 13.5095 291.204C13.2169 291.408 12.9068 291.59 12.5898 291.785ZM-57.9861 231.37C-57.776 235.805 -57.5525 240.236 -57.3158 244.663L-56.9144 252.479C-56.8965 252.641 -56.8887 252.805 -56.8912 252.969C-56.907 253.147 -56.8626 253.326 -56.765 253.477C-56.6674 253.627 -56.5223 253.741 -56.3526 253.8C-54.9803 254.483 -53.6304 255.199 -52.2548 255.887L9.88986 287.59C10.2191 287.807 10.5834 287.965 10.9666 288.058C11.0061 287.945 11.0664 287.859 11.0608 287.772C10.6818 280.181 10.3011 272.587 9.90658 264.894C-12.7215 253.356 -35.3157 241.831 -57.876 230.319C-58.0281 230.647 -58.0668 231.017 -57.9861 231.37ZM22.1268 255.328C25.0255 253.45 27.9302 251.568 30.8409 249.682C31.1376 249.49 31.4285 249.283 31.7595 249.054L30.6011 226.371C30.5889 226.263 30.5668 226.155 30.5351 226.051C30.3043 225.924 30.1782 226.061 30.0496 226.137C29.8578 226.261 29.6659 226.385 29.4741 226.51C16.7914 234.727 4.10781 242.944 -8.57662 251.163L-9.49995 251.761C-9.38395 251.94 -9.3547 252.03 -9.31601 252.045C-2.55592 255.506 4.19694 258.96 10.9426 262.407C11.4087 262.381 11.6973 262.092 12.0196 261.883C15.3992 259.69 18.7567 257.508 22.1268 255.328ZM-48.6506 222.486L-55.72 227.066C-56.0193 227.26 -56.316 227.452 -56.5848 227.648C-56.5452 228.04 -56.2431 228.081 -56.0264 228.191C-54.2039 229.135 -52.3761 230.07 -50.5432 230.993C-38.1491 237.321 -25.7529 243.647 -13.3548 249.97C-13.0668 250.117 -12.7728 250.257 -12.4578 250.413C-12.2144 250.284 -11.9822 250.177 -11.7631 250.039C-5.71165 246.118 0.341544 242.196 6.39645 238.273C6.60362 238.139 6.78427 237.964 6.99699 237.793C6.92783 237.699 6.84552 237.616 6.75257 237.545C-7.8814 230.08 -22.493 222.627 -37.0822 215.187C-37.4715 215.245 -37.8354 215.416 -38.1301 215.677C-41.6419 217.942 -45.1488 220.212 -48.6506 222.486ZM10.7794 235.437C15.4088 232.438 20.0383 229.438 24.6677 226.439C26.2807 225.394 27.9006 224.344 29.5273 223.29C29.8265 223.096 30.1133 222.889 30.3709 222.715C30.4559 221.904 29.3589 199.429 29.1714 197.934C28.9676 197.62 28.607 197.523 28.2946 197.366C22.9978 194.661 17.7073 191.964 12.4231 189.274C10.91 188.504 9.39817 187.735 7.88779 186.966C7.59978 186.818 7.30484 186.682 6.98477 186.53C6.02044 187.032 -13.0357 199.414 -13.6109 199.9C-13.684 200.706 -12.5119 223.83 -12.3423 224.759L9.76323 236.027C10.1106 235.834 10.452 235.649 10.7769 235.439L10.7794 235.437ZM-60.7512 177.047L-58.3576 224.24C-58.3403 224.591 -58.3075 224.933 -58.2681 225.409C-57.3775 224.984 -39.3816 213.325 -38.6967 212.729C-39.5266 196.501 -40.3558 180.233 -41.1841 163.922C-41.2046 163.738 -41.2346 163.555 -41.2741 163.374C-41.4333 163.419 -41.5894 163.474 -41.7412 163.539C-41.943 163.648 -42.1249 163.787 -42.3167 163.912C-48.1533 167.693 -53.9908 171.475 -59.8292 175.258C-60.9112 175.97 -60.8215 175.767 -60.7538 177.048L-60.7512 177.047ZM2.86085 134.688C2.4772 134.937 2.19042 135.083 1.92186 135.257L-37.8707 161.038C-38.5868 161.502 -38.5919 161.506 -38.546 162.384C-38.2517 168.185 -37.9563 173.984 -37.6598 179.781L-36.0428 211.539C-36.028 211.893 -35.9979 212.236 -35.9626 212.577C-35.2124 213.129 -20.1087 220.916 -15.7725 223.001C-15.6322 223.066 -15.4797 223.106 -15.2996 223.171C-15.1776 222.853 -15.1496 222.507 -15.2189 222.174C-15.3728 218.947 -15.5351 215.723 -15.7059 212.5C-15.8644 209.37 -16.0237 206.242 -16.1839 203.114L-17.7338 173.208C-17.7541 172.818 -17.7591 172.429 -17.7729 171.998L4.14134 157.8L3.00143 135.185C2.9657 135.017 2.91786 134.851 2.85829 134.69L2.86085 134.688ZM26.2116 170.729C26.2062 170.683 26.1966 170.638 26.1829 170.595C26.1728 170.565 26.1557 170.539 26.1332 170.518C25.9646 170.42 25.7969 170.318 25.6239 170.231C19.002 166.848 12.3792 163.469 5.86624 160.154C5.70835 160.14 5.67884 160.134 5.64754 160.136C5.61444 160.142 5.58243 160.153 5.55244 160.169C5.44501 160.238 5.32012 160.286 5.21269 160.356C-1.41854 164.652 -8.04978 168.949 -14.681 173.245C-14.7569 173.302 -14.8279 173.365 -14.8931 173.433C-14.9719 174.153 -13.9266 195.282 -13.7614 196.478C-13.5975 196.619 -13.4608 196.505 -13.327 196.426C-13.1096 196.285 -12.8871 196.141 -12.6697 196C-0.0108533 187.798 12.6463 179.597 25.3017 171.398C25.6327 171.223 25.9359 170.999 26.2014 170.735L26.2116 170.729ZM74.7636 191.843L73.6065 168.988L6.07478 134.559C5.9992 134.521 5.89582 134.541 5.78775 134.531C5.74316 134.621 5.71363 134.717 5.70032 134.817C6.07856 142.401 6.45334 149.991 6.84055 157.471L6.95821 157.653C6.9777 157.679 7.00209 157.701 7.03004 157.719C14.2793 161.434 21.5352 165.147 28.7975 168.857C44.0182 176.615 59.2396 184.37 74.4615 192.122C74.4922 192.131 74.5241 192.134 74.556 192.133C74.589 192.134 74.6195 192.125 74.6712 192.12C74.7038 192.019 74.7675 191.927 74.7636 191.843ZM73.378 194.748C73.1247 194.491 72.8146 194.296 72.4725 194.18C68.9598 192.379 65.4454 190.583 61.9292 188.792L30.2057 172.611C29.0217 172.005 29.2736 172.002 28.1994 172.698C22.3372 176.496 16.475 180.294 10.6127 184.092C10.2901 184.24 10.0043 184.457 9.77597 184.729C9.94881 185.085 10.298 185.142 10.5826 185.296C14.7581 187.432 18.9388 189.565 23.1245 191.695C33.0589 196.76 42.9957 201.822 52.9347 206.879C54.1186 207.485 53.85 207.535 55.041 206.767C60.847 203.005 66.6546 199.243 72.464 195.479C72.8151 195.304 73.125 195.056 73.3729 194.752L73.378 194.748ZM52.7158 209.842L32.4157 199.489C32.2744 199.439 32.1289 199.402 31.9809 199.379C31.8683 200.359 32.0193 201.293 32.0559 202.235C32.0926 203.177 32.1462 204.123 32.1981 205.066L32.3393 207.902L32.4831 210.735L32.6294 213.567L32.7731 216.401C32.8199 217.348 32.8634 218.289 32.9169 219.235C32.9705 220.181 33.0445 221.113 33.0852 222.067C33.126 223.021 33.1881 224.02 33.2396 224.996C33.291 225.972 33.3315 226.886 33.3709 227.816L33.5163 230.652L33.6626 233.484L33.8047 236.315L33.9485 239.149L34.0923 241.983L34.2361 244.817C34.2837 245.759 34.3373 246.705 34.3824 247.649C34.4275 248.593 34.4693 249.531 34.5147 250.515L12.6976 264.651C12.6152 265.459 13.6807 286.721 13.8366 287.662C14.0004 287.803 14.1412 287.7 14.2742 287.614C14.4942 287.472 14.7116 287.331 14.9341 287.187C28.0551 278.686 41.1769 270.184 54.2995 261.682C55.4249 260.952 55.3462 261.218 55.2757 259.825L52.7843 210.873C52.7674 210.55 52.7395 210.226 52.7107 209.846L52.7158 209.842ZM77.5287 246.548C77.5366 246.474 77.5393 246.399 77.5367 246.325L75.0509 197.459C75.0377 197.372 75.0138 197.286 74.9799 197.204C74.7787 197.073 74.6542 197.223 74.5281 197.297C74.2999 197.427 74.0882 197.582 73.8708 197.723L55.4273 209.673C56.2625 226.053 57.0982 242.409 57.9341 258.738C57.9509 258.854 57.9806 258.968 58.0227 259.077C58.1342 259.081 58.2074 259.11 58.2525 259.084C59.2231 258.553 76.9238 247.038 77.5236 246.551L77.5287 246.548Z" fill="#D7D8DD"/>
</g>
<g clip-path="url(#clip3_1321_2210)">
<path d="M-49.1226 414.562C-49.1526 414.576 -49.1843 414.585 -49.2168 414.591C-49.2483 414.594 -49.28 414.594 -49.3115 414.59C-50.3432 414.169 -120.508 378.338 -121.164 377.881L-125.253 297.47C-125.197 297.388 -125.133 297.311 -125.063 297.241C-124.877 297.106 -124.688 296.977 -124.497 296.853C-102.191 282.401 -79.8809 267.955 -57.5673 253.518C-57.5381 253.504 -57.5064 253.495 -57.474 253.494C-57.4485 253.477 -57.4072 253.49 -57.3065 253.483C-56.9874 253.639 -56.6027 253.83 -56.2299 254.024L2.77673 284.128C6.32414 285.945 9.86884 287.754 13.4108 289.556C14.6115 290.176 14.447 289.894 14.5314 291.324C14.5899 292.536 14.6451 293.742 14.7131 294.94C15.987 319.863 17.2576 344.785 18.5248 369.706C18.5392 370.03 18.5425 370.355 18.5499 370.63C18.4999 370.7 18.4417 370.765 18.3766 370.822C-3.81899 385.203 -26.0122 399.589 -48.2029 413.981C-48.4955 414.185 -48.8056 414.368 -49.1226 414.562ZM-119.699 354.148C-119.488 358.582 -119.265 363.013 -119.028 367.44L-118.627 375.256C-118.609 375.419 -118.601 375.582 -118.604 375.746C-118.619 375.925 -118.575 376.104 -118.477 376.254C-118.38 376.405 -118.235 376.519 -118.065 376.577C-116.693 377.26 -115.343 377.976 -113.967 378.665L-51.8225 410.367C-51.4933 410.584 -51.129 410.742 -50.7458 410.835C-50.7063 410.722 -50.646 410.636 -50.6516 410.549C-51.0306 402.958 -51.4113 395.365 -51.8058 387.671C-74.4339 376.133 -97.0281 364.608 -119.588 353.096C-119.74 353.425 -119.779 353.795 -119.699 354.148ZM-39.5856 378.105C-36.6869 376.227 -33.7822 374.345 -30.8715 372.459C-30.5748 372.267 -30.2839 372.06 -29.9529 371.831L-31.1113 349.149C-31.1235 349.04 -31.1456 348.933 -31.1773 348.828C-31.4081 348.702 -31.5342 348.838 -31.6628 348.914C-31.8546 349.038 -32.0465 349.163 -32.2383 349.287C-44.921 357.504 -57.6046 365.722 -70.289 373.94L-71.2124 374.538C-71.0964 374.717 -71.0671 374.807 -71.0284 374.822C-64.2683 378.284 -57.5155 381.738 -50.7698 385.184C-50.3037 385.158 -50.0151 384.87 -49.6928 384.661C-46.3132 382.467 -42.9557 380.285 -39.5856 378.105ZM-110.363 345.263L-117.432 349.844C-117.732 350.037 -118.028 350.23 -118.297 350.426C-118.258 350.818 -117.955 350.858 -117.739 350.968C-115.916 351.913 -114.089 352.847 -112.256 353.77C-99.8615 360.098 -87.4654 366.424 -75.0672 372.747C-74.7792 372.895 -74.4852 373.035 -74.1702 373.19C-73.9268 373.062 -73.6946 372.955 -73.4755 372.816C-67.4241 368.896 -61.3709 364.974 -55.316 361.051C-55.1088 360.916 -54.9281 360.741 -54.7154 360.571C-54.7846 360.477 -54.8669 360.393 -54.9598 360.322C-69.5938 352.858 -84.2054 345.405 -98.7946 337.964C-99.1839 338.023 -99.5478 338.193 -99.8425 338.454C-103.354 340.72 -106.861 342.99 -110.363 345.263ZM-50.933 358.215C-46.3036 355.215 -41.6741 352.216 -37.0447 349.216C-35.4317 348.171 -33.8118 347.122 -32.1851 346.068C-31.8859 345.874 -31.5991 345.666 -31.3415 345.492C-31.2565 344.682 -32.3535 322.206 -32.541 320.712C-32.7448 320.397 -33.1054 320.3 -33.4178 320.143C-38.7146 317.438 -44.0051 314.741 -49.2893 312.052C-50.8024 311.282 -52.3142 310.512 -53.8246 309.743C-54.1126 309.595 -54.4076 309.46 -54.7276 309.308C-55.692 309.809 -74.7481 322.192 -75.3233 322.677C-75.3965 323.483 -74.2243 346.607 -74.0548 347.536L-51.9492 358.804C-51.6018 358.612 -51.2604 358.427 -50.9355 358.216L-50.933 358.215ZM-122.464 299.824L-120.07 347.017C-120.053 347.369 -120.02 347.711 -119.981 348.186C-119.09 347.762 -101.094 336.102 -100.409 335.506C-101.239 319.279 -102.068 303.01 -102.896 286.7C-102.917 286.516 -102.947 286.333 -102.987 286.152C-103.146 286.196 -103.302 286.251 -103.454 286.316C-103.655 286.425 -103.837 286.565 -104.029 286.689C-109.866 290.471 -115.703 294.253 -121.542 298.035C-122.624 298.747 -122.534 298.544 -122.466 299.826L-122.464 299.824ZM-58.8515 257.465C-59.2352 257.714 -59.522 257.86 -59.7905 258.034L-99.5831 283.816C-100.299 284.28 -100.304 284.283 -100.258 285.161C-99.9641 290.962 -99.6687 296.761 -99.3722 302.558L-97.7552 334.317C-97.7404 334.67 -97.7103 335.014 -97.675 335.354C-96.9248 335.907 -81.8211 343.693 -77.4849 345.779C-77.3446 345.844 -77.1921 345.883 -77.012 345.948C-76.89 345.63 -76.862 345.284 -76.9313 344.951C-77.0852 341.725 -77.2475 338.5 -77.4183 335.277C-77.5768 332.148 -77.7361 329.019 -77.8963 325.891L-79.4462 295.985C-79.4665 295.595 -79.4715 295.206 -79.4853 294.776L-57.5711 280.577L-58.711 257.963C-58.7467 257.794 -58.7945 257.629 -58.8541 257.467L-58.8515 257.465ZM-35.5008 293.506C-35.5062 293.46 -35.5158 293.416 -35.5295 293.372C-35.5396 293.343 -35.5567 293.316 -35.5792 293.295C-35.7478 293.197 -35.9155 293.096 -36.0885 293.008C-42.7104 289.625 -49.3333 286.247 -55.8462 282.931C-56.0041 282.917 -56.0336 282.911 -56.0649 282.913C-56.098 282.92 -56.13 282.931 -56.16 282.946C-56.2674 283.015 -56.3923 283.064 -56.4997 283.133C-63.1309 287.43 -69.7622 291.726 -76.3934 296.023C-76.4693 296.079 -76.5403 296.142 -76.6055 296.211C-76.6843 296.93 -75.639 318.059 -75.4738 319.256C-75.3099 319.396 -75.1732 319.282 -75.0394 319.203C-74.822 319.062 -74.5995 318.918 -74.3821 318.777C-61.7233 310.575 -49.0661 302.375 -36.4107 294.175C-36.0797 294 -35.7765 293.777 -35.511 293.512L-35.5008 293.506ZM13.0512 314.62L11.8941 291.766L-55.6376 257.337C-55.7132 257.299 -55.8166 257.318 -55.9247 257.309C-55.9692 257.398 -55.9988 257.495 -56.0121 257.594C-55.6338 265.178 -55.2591 272.768 -54.8719 280.248L-54.7542 280.43C-54.7347 280.456 -54.7103 280.479 -54.6824 280.496C-47.4331 284.212 -40.1772 287.925 -32.9149 291.634C-17.6942 299.392 -2.47284 307.147 12.7491 314.899C12.7798 314.908 12.8117 314.912 12.8436 314.911C12.8766 314.911 12.9071 314.902 12.9588 314.898C12.9914 314.797 13.0551 314.705 13.0512 314.62ZM11.6656 317.526C11.4123 317.268 11.1022 317.074 10.7601 316.958C7.24744 315.157 3.73301 313.361 0.216814 311.569L-31.5067 295.388C-32.6907 294.783 -32.4388 294.779 -33.513 295.475C-39.3752 299.273 -45.2375 303.072 -51.0997 306.87C-51.4223 307.017 -51.7081 307.235 -51.9364 307.506C-51.7636 307.863 -51.4144 307.92 -51.1298 308.073C-46.9543 310.21 -42.7736 312.343 -38.5879 314.473C-28.6535 319.538 -18.7167 324.599 -8.77773 329.656C-7.59375 330.262 -7.86239 330.312 -6.6714 329.544C-0.86545 325.783 4.94221 322.02 10.7516 318.256C11.1027 318.081 11.4126 317.833 11.6605 317.529L11.6656 317.526ZM-8.99661 332.62L-29.2967 322.267C-29.438 322.217 -29.5835 322.18 -29.7315 322.156C-29.8441 323.137 -29.6931 324.07 -29.6565 325.012C-29.6198 325.955 -29.5662 326.9 -29.5143 327.844L-29.3731 330.679L-29.2294 333.513L-29.083 336.345L-28.9393 339.179C-28.8925 340.125 -28.849 341.067 -28.7955 342.012C-28.7419 342.958 -28.6679 343.891 -28.6272 344.845C-28.5864 345.799 -28.5243 346.797 -28.4728 347.773C-28.4214 348.749 -28.3809 349.664 -28.3415 350.593L-28.1961 353.429L-28.0498 356.262L-27.9077 359.093L-27.7639 361.926L-27.6201 364.76L-27.4763 367.594C-27.4287 368.536 -27.3751 369.482 -27.33 370.426C-27.2849 371.37 -27.2431 372.309 -27.1977 373.293L-49.0148 387.428C-49.0972 388.237 -48.0317 409.498 -47.8758 410.439C-47.712 410.58 -47.5712 410.478 -47.4382 410.392C-47.2182 410.249 -47.0008 410.108 -46.7783 409.964C-33.6573 401.463 -20.5355 392.961 -7.41287 384.459C-6.28749 383.73 -6.3662 383.995 -6.43671 382.603L-8.92813 333.65C-8.94503 333.327 -8.97291 333.004 -9.00173 332.623L-8.99661 332.62ZM15.8163 369.325C15.8242 369.251 15.8269 369.177 15.8243 369.102L13.3385 320.237C13.3253 320.149 13.3014 320.063 13.2675 319.981C13.0663 319.85 12.9418 320 12.8157 320.074C12.5875 320.204 12.3758 320.359 12.1584 320.5L-6.28513 332.45C-5.44986 348.831 -4.61424 365.186 -3.7783 381.516C-3.76148 381.632 -3.73178 381.745 -3.68974 381.854C-3.57821 381.858 -3.50504 381.887 -3.45991 381.862C-2.48928 381.331 15.2114 369.815 15.8112 369.328L15.8163 369.325Z" fill="#D7D8DD"/>
</g>
<g clip-path="url(#clip4_1321_2210)">
<path d="M88.4255 407.151C88.3955 407.165 88.3638 407.174 88.3313 407.18C88.2998 407.183 88.2681 407.183 88.2366 407.179C87.2049 406.758 17.0398 370.927 16.3839 370.469L12.2953 290.058C12.3515 289.977 12.4151 289.9 12.4851 289.83C12.6712 289.695 12.8597 289.566 13.0507 289.442C35.3571 274.989 57.6672 260.544 79.9808 246.107C80.01 246.093 80.0417 246.084 80.0741 246.082C80.0996 246.066 80.1409 246.079 80.2416 246.072C80.5607 246.228 80.9454 246.418 81.3182 246.613L140.325 276.717C143.872 278.534 147.417 280.343 150.959 282.145C152.16 282.765 151.995 282.483 152.079 283.913C152.138 285.125 152.193 286.331 152.261 287.529C153.535 312.452 154.806 337.374 156.073 362.294C156.087 362.619 156.091 362.944 156.098 363.219C156.048 363.289 155.99 363.354 155.925 363.411C133.729 377.791 111.536 392.178 89.3452 406.57C89.0526 406.774 88.7425 406.957 88.4255 407.151ZM17.8496 346.737C18.0597 351.171 18.2832 355.602 18.5199 360.029L18.9213 367.845C18.9392 368.008 18.947 368.171 18.9445 368.335C18.9287 368.514 18.9731 368.692 19.0707 368.843C19.1683 368.994 19.3134 369.107 19.4831 369.166C20.8554 369.849 22.2053 370.565 23.5809 371.254L85.7256 402.956C86.0548 403.173 86.4191 403.331 86.8023 403.424C86.8418 403.311 86.9021 403.225 86.8965 403.138C86.5175 395.547 86.1368 387.953 85.7423 380.26C63.1142 368.722 40.52 357.197 17.9597 345.685C17.8076 346.014 17.7689 346.384 17.8496 346.737ZM97.9625 370.694C100.861 368.816 103.766 366.934 106.677 365.048C106.973 364.856 107.264 364.649 107.595 364.42L106.437 341.737C106.425 341.629 106.403 341.522 106.371 341.417C106.14 341.291 106.014 341.427 105.885 341.503C105.693 341.627 105.502 341.751 105.31 341.876C92.6271 350.093 79.9435 358.311 67.2591 366.529L66.3357 367.127C66.4517 367.306 66.481 367.396 66.5197 367.411C73.2798 370.873 80.0326 374.327 86.7783 377.773C87.2444 377.747 87.533 377.458 87.8553 377.25C91.2349 375.056 94.5924 372.874 97.9625 370.694ZM27.1851 337.852L20.1156 342.432C19.8164 342.626 19.5197 342.819 19.2509 343.015C19.2905 343.406 19.5926 343.447 19.8093 343.557C21.6318 344.502 23.4596 345.436 25.2925 346.359C37.6866 352.687 50.0827 359.013 62.4809 365.336C62.7689 365.484 63.0629 365.624 63.3779 365.779C63.6213 365.65 63.8535 365.544 64.0725 365.405C70.124 361.484 76.1772 357.563 82.2321 353.64C82.4393 353.505 82.62 353.33 82.8327 353.16C82.7635 353.066 82.6812 352.982 82.5883 352.911C67.9543 345.446 53.3427 337.994 38.7535 330.553C38.3642 330.612 38.0003 330.782 37.7056 331.043C34.1938 333.309 30.6869 335.578 27.1851 337.852ZM86.6151 350.803C91.2445 347.804 95.874 344.805 100.503 341.805C102.116 340.76 103.736 339.711 105.363 338.657C105.662 338.463 105.949 338.255 106.207 338.081C106.292 337.271 105.195 314.795 105.007 313.301C104.803 312.986 104.443 312.889 104.13 312.732C98.8335 310.027 93.543 307.33 88.2588 304.641C86.7457 303.871 85.2339 303.101 83.7235 302.332C83.4355 302.184 83.1405 302.049 82.8205 301.896C81.8561 302.398 62.8 314.781 62.2248 315.266C62.1516 316.072 63.3238 339.196 63.4933 340.125L85.5989 351.393C85.9463 351.2 86.2877 351.016 86.6126 350.805L86.6151 350.803ZM15.0845 292.413L17.4781 339.606C17.4954 339.958 17.5282 340.3 17.5676 340.775C18.4582 340.351 36.4541 328.691 37.139 328.095C36.309 311.868 35.4799 295.599 34.6516 279.289C34.6311 279.104 34.601 278.921 34.5616 278.74C34.4024 278.785 34.2463 278.84 34.0945 278.905C33.8927 279.014 33.7108 279.154 33.519 279.278C27.6824 283.059 21.8449 286.842 16.0065 290.624C14.9245 291.336 15.0142 291.133 15.0819 292.414L15.0845 292.413ZM78.6965 250.054C78.3129 250.303 78.0261 250.449 77.7576 250.623L37.965 276.405C37.2489 276.869 37.2438 276.872 37.2897 277.75C37.584 283.551 37.8794 289.35 38.1759 295.147L39.7929 326.905C39.8077 327.259 39.8378 327.603 39.8731 327.943C40.6233 328.495 55.727 336.282 60.0632 338.367C60.2035 338.433 60.356 338.472 60.5361 338.537C60.6581 338.219 60.6861 337.873 60.6168 337.54C60.4629 334.314 60.3006 331.089 60.1298 327.866C59.9713 324.737 59.812 321.608 59.6517 318.48L58.1019 288.574C58.0816 288.184 58.0766 287.795 58.0627 287.365L79.977 273.166L78.8371 250.552C78.8014 250.383 78.7536 250.218 78.694 250.056L78.6965 250.054ZM102.047 286.095C102.042 286.049 102.032 286.004 102.019 285.961C102.008 285.932 101.991 285.905 101.969 285.884C101.8 285.786 101.633 285.684 101.46 285.597C94.8377 282.214 88.2148 278.836 81.7019 275.52C81.544 275.506 81.5145 275.5 81.4832 275.502C81.4501 275.508 81.4181 275.519 81.3881 275.535C81.2807 275.604 81.1558 275.653 81.0484 275.722C74.4172 280.019 67.7859 284.315 61.1547 288.611C61.0788 288.668 61.0078 288.731 60.9426 288.8C60.8638 289.519 61.9091 310.648 62.0743 311.845C62.2382 311.985 62.3749 311.871 62.5087 311.792C62.7261 311.651 62.9486 311.507 63.166 311.366C75.8248 303.164 88.482 294.964 101.137 286.764C101.468 286.589 101.772 286.365 102.037 286.101L102.047 286.095ZM150.599 307.209L149.442 284.355L81.9105 249.926C81.8349 249.887 81.7315 249.907 81.6234 249.897C81.5789 249.987 81.5493 250.084 81.536 250.183C81.9143 257.767 82.289 265.357 82.6762 272.837L82.7939 273.019C82.8134 273.045 82.8378 273.068 82.8657 273.085C90.115 276.801 97.3709 280.513 104.633 284.223C119.854 291.981 135.075 299.736 150.297 307.488C150.328 307.497 150.36 307.501 150.392 307.499C150.425 307.5 150.455 307.491 150.507 307.487C150.539 307.386 150.603 307.293 150.599 307.209ZM149.214 310.115C148.96 309.857 148.65 309.663 148.308 309.547C144.796 307.746 141.281 305.95 137.765 304.158L106.041 287.977C104.857 287.372 105.109 287.368 104.035 288.064C98.1729 291.862 92.3106 295.661 86.4484 299.459C86.1258 299.606 85.84 299.824 85.6117 300.095C85.7845 300.452 86.1337 300.509 86.4183 300.662C90.5938 302.798 94.7745 304.932 98.9602 307.061C108.895 312.127 118.831 317.188 128.77 322.245C129.954 322.851 129.686 322.901 130.877 322.133C136.683 318.372 142.49 314.609 148.3 310.845C148.651 310.67 148.961 310.422 149.209 310.118L149.214 310.115ZM128.551 325.209L108.251 314.855C108.11 314.805 107.965 314.768 107.817 314.745C107.704 315.726 107.855 316.659 107.892 317.601C107.928 318.544 107.982 319.489 108.034 320.433L108.175 323.268L108.319 326.102L108.465 328.934L108.609 331.767C108.656 332.714 108.699 333.655 108.753 334.601C108.806 335.547 108.88 336.479 108.921 337.434C108.962 338.388 109.024 339.386 109.075 340.362C109.127 341.338 109.167 342.253 109.207 343.182L109.352 346.018L109.498 348.85L109.64 351.682L109.784 354.515L109.928 357.349L110.072 360.183C110.119 361.125 110.173 362.071 110.218 363.015C110.263 363.959 110.305 364.898 110.35 365.881L88.5333 380.017C88.4509 380.826 89.5164 402.087 89.6723 403.028C89.8361 403.169 89.9769 403.067 90.1099 402.98C90.3299 402.838 90.5473 402.697 90.7698 402.553C103.891 394.052 117.013 385.55 130.135 377.048C131.261 376.319 131.182 376.584 131.111 375.192L128.62 326.239C128.603 325.916 128.575 325.593 128.546 325.212L128.551 325.209ZM153.364 361.914C153.372 361.84 153.375 361.765 153.372 361.691L150.887 312.826C150.873 312.738 150.85 312.652 150.816 312.57C150.614 312.439 150.49 312.589 150.364 312.663C150.136 312.793 149.924 312.948 149.706 313.089L131.263 325.039C132.098 341.42 132.934 357.775 133.77 374.105C133.787 374.22 133.816 374.334 133.858 374.443C133.97 374.447 134.043 374.476 134.088 374.45C135.059 373.92 152.76 362.404 153.359 361.917L153.364 361.914Z" fill="#D7D8DD"/>
</g>
<g clip-path="url(#clip5_1321_2210)">
<path d="M75.8201 169.111C75.7901 169.125 75.7584 169.134 75.7258 169.14C75.6944 169.143 75.6626 169.143 75.6312 169.139C74.5995 168.718 4.43434 132.887 3.77845 132.429L-0.310143 52.0183C-0.253934 51.9366 -0.190396 51.8602 -0.120329 51.7901C0.0657219 51.655 0.254235 51.5256 0.445209 51.4019C22.7517 36.9494 45.0617 22.5043 67.3753 8.06652C67.4045 8.0525 67.4362 8.0443 67.4686 8.04239C67.4942 8.02582 67.5354 8.03904 67.6361 8.03191C67.9553 8.18825 68.3399 8.37841 68.7127 8.57265L127.719 38.6769C131.267 40.494 134.811 42.3033 138.353 44.1046C139.554 44.7247 139.39 44.4427 139.474 45.8733C139.533 47.0846 139.588 48.2907 139.656 49.4886C140.93 74.412 142.2 99.3339 143.467 124.254C143.482 124.579 143.485 124.904 143.493 125.179C143.443 125.249 143.384 125.314 143.319 125.371C121.124 139.751 98.9305 154.138 76.7398 168.53C76.4472 168.734 76.1371 168.917 75.8201 169.111ZM5.2441 108.697C5.45425 113.131 5.6777 117.562 5.91443 121.989L6.31584 129.805C6.33374 129.968 6.34149 130.131 6.33901 130.295C6.32321 130.474 6.36764 130.652 6.46523 130.803C6.56282 130.954 6.70796 131.067 6.87758 131.126C8.24989 131.809 9.5998 132.525 10.9754 133.214L73.1201 164.916C73.4494 165.133 73.8136 165.291 74.1968 165.384C74.2363 165.271 74.2966 165.185 74.291 165.098C73.912 157.507 73.5314 149.913 73.1368 142.22C50.5087 130.682 27.9145 119.157 5.35425 107.645C5.20214 107.974 5.1634 108.344 5.2441 108.697ZM85.3571 132.654C88.2558 130.776 91.1605 128.894 94.0711 127.008C94.3678 126.816 94.6588 126.609 94.9898 126.38L93.8313 103.697C93.8191 103.589 93.797 103.482 93.7653 103.377C93.5345 103.251 93.4085 103.387 93.2798 103.463C93.088 103.587 92.8962 103.711 92.7043 103.836C80.0216 112.053 67.338 120.271 54.6536 128.489L53.7303 129.087C53.8463 129.266 53.8755 129.356 53.9142 129.371C60.6743 132.833 67.4272 136.287 74.1728 139.733C74.6389 139.707 74.9276 139.418 75.2498 139.21C78.6294 137.016 81.9869 134.834 85.3571 132.654ZM14.5796 99.812L7.51018 104.392C7.21093 104.586 6.91424 104.778 6.64539 104.974C6.68506 105.366 6.98715 105.407 7.2038 105.517C9.02635 106.462 10.8541 107.396 12.6871 108.319C25.0812 114.647 37.4773 120.973 49.8754 127.296C50.1634 127.444 50.4574 127.584 50.7724 127.739C51.0158 127.61 51.248 127.503 51.4671 127.365C57.5186 123.444 63.5718 119.523 69.6267 115.599C69.8338 115.465 70.0145 115.29 70.2272 115.12C70.1581 115.026 70.0757 114.942 69.9828 114.871C55.3488 107.406 40.7372 99.9536 26.148 92.5129C25.7588 92.5717 25.3948 92.7419 25.1002 93.003C21.5883 95.2687 18.0815 97.5383 14.5796 99.812ZM74.0096 112.763C78.6391 109.764 83.2685 106.765 87.8979 103.765C89.511 102.72 91.1308 101.67 92.7575 100.617C93.0568 100.423 93.3435 100.215 93.6011 100.041C93.6861 99.2305 92.5891 76.755 92.4016 75.2605C92.1978 74.946 91.8373 74.8491 91.5249 74.692C86.228 71.9869 80.9375 69.2897 75.6534 66.6005C74.1402 65.8306 72.6284 65.061 71.118 64.2917C70.83 64.1442 70.5351 64.0085 70.215 63.8564C69.2507 64.3577 50.1946 76.7406 49.6193 77.2258C49.5462 78.0322 50.7183 101.156 50.8879 102.085L72.9935 113.353C73.3409 113.16 73.6823 112.975 74.0071 112.765L74.0096 112.763ZM2.47902 54.3728L4.8726 101.566C4.88997 101.918 4.92269 102.26 4.9621 102.735C5.85272 102.311 23.8486 90.651 24.5335 90.0547C23.7036 73.8276 22.8744 57.5589 22.0461 41.2485C22.0256 41.0643 21.9956 40.8814 21.9561 40.7004C21.7969 40.7448 21.6409 40.7998 21.489 40.865C21.2872 40.9739 21.1054 41.1136 20.9135 41.2379C15.0769 45.0195 9.23939 48.8016 3.40104 52.5843C2.31899 53.2963 2.40872 53.0929 2.47646 54.3744L2.47902 54.3728ZM66.0911 12.0143C65.7074 12.2629 65.4206 12.4087 65.1521 12.5827L25.3596 38.3645C24.6434 38.8285 24.6383 38.8318 24.6843 39.7099C24.9785 45.511 25.2739 51.3101 25.5705 57.1073L27.1874 88.8654C27.2022 89.219 27.2323 89.5626 27.2676 89.9028C28.0178 90.4554 43.1215 98.2417 47.4577 100.327C47.5981 100.393 47.7506 100.432 47.9306 100.497C48.0526 100.179 48.0807 99.8332 48.0113 99.5003C47.8574 96.2736 47.6951 93.0488 47.5243 89.8259C47.3658 86.6967 47.2065 83.568 47.0463 80.4399L45.4964 50.5339C45.4761 50.144 45.4711 49.755 45.4573 49.3246L67.3716 35.1262L66.2317 12.5115C66.1959 12.3431 66.1481 12.1775 66.0885 12.0159L66.0911 12.0143ZM89.4419 48.0547C89.4364 48.0093 89.4268 47.9644 89.4132 47.9207C89.403 47.8915 89.386 47.8652 89.3635 47.844C89.1948 47.7463 89.0271 47.6443 88.8541 47.5567C82.2322 44.174 75.6094 40.7955 69.0965 37.4802C68.9386 37.4663 68.9091 37.46 68.8778 37.4621C68.8447 37.4684 68.8127 37.4794 68.7827 37.4947C68.6752 37.5643 68.5503 37.6125 68.4429 37.6821C61.8117 41.9786 55.1804 46.275 48.5492 50.5714C48.4733 50.628 48.4024 50.691 48.3371 50.7596C48.2584 51.4788 49.3036 72.6079 49.4689 73.8045C49.6327 73.9453 49.7694 73.8313 49.9032 73.7519C50.1206 73.611 50.3431 73.4669 50.5605 73.326C63.2194 65.1243 75.8765 56.9236 88.532 48.7241C88.8629 48.5488 89.1661 48.3254 89.4316 48.0613L89.4419 48.0547ZM137.994 69.1688L136.837 46.3146L69.305 11.8856C69.2294 11.8474 69.126 11.8672 69.018 11.8574C68.9734 11.9471 68.9439 12.0435 68.9305 12.1428C69.3088 19.7269 69.6836 27.3169 70.0708 34.7972L70.1884 34.9788C70.2079 35.0052 70.2323 35.0277 70.2603 35.0449C77.5096 38.7606 84.7654 42.4734 92.0277 46.1832C107.248 53.941 122.47 61.6959 137.692 69.448C137.722 69.4568 137.754 69.4606 137.786 69.4594C137.819 69.4599 137.85 69.451 137.901 69.4466C137.934 69.3455 137.998 69.2534 137.994 69.1688ZM136.608 72.0746C136.355 71.8172 136.045 71.6226 135.703 71.5066C132.19 69.7056 128.676 67.9095 125.159 66.1181L93.4359 49.9371C92.2519 49.3316 92.5039 49.3281 91.4296 50.0241C85.5674 53.8223 79.7052 57.6205 73.843 61.4186C73.5203 61.5662 73.2345 61.7836 73.0062 62.0552C73.179 62.4116 73.5283 62.4686 73.8128 62.622C77.9883 64.7584 82.169 66.8916 86.3548 69.0214C96.2892 74.0866 106.226 79.1479 116.165 84.2052C117.349 84.8107 117.08 84.8613 118.271 84.0933C124.077 80.3316 129.885 76.5688 135.694 72.8049C136.045 72.6298 136.355 72.382 136.603 72.078L136.608 72.0746ZM115.946 87.1686L95.6459 76.8153C95.5046 76.7654 95.3591 76.7284 95.2112 76.7048C95.0986 77.6856 95.2495 78.6191 95.2862 79.5613C95.3229 80.5035 95.3764 81.4493 95.4283 82.3925L95.5695 85.2279L95.7133 88.0616L95.8596 90.8937L96.0034 93.7274C96.0501 94.6739 96.0936 95.6153 96.1471 96.5611C96.2007 97.5069 96.2747 98.4394 96.3154 99.3935C96.3562 100.348 96.4184 101.346 96.4698 102.322C96.5213 103.298 96.5617 104.213 96.6011 105.142L96.7465 107.978L96.8928 110.81L97.035 113.642L97.1787 116.475L97.3225 119.309L97.4663 122.143C97.514 123.085 97.5675 124.031 97.6126 124.975C97.6577 125.919 97.6995 126.858 97.745 127.841L75.9279 141.977C75.8454 142.786 76.9109 164.047 77.0668 164.988C77.2307 165.129 77.3715 165.027 77.5045 164.94C77.7244 164.798 77.9418 164.657 78.1644 164.513C91.2853 156.012 104.407 147.51 117.53 139.008C118.655 138.279 118.576 138.544 118.506 137.152L116.014 88.1991C115.998 87.8759 115.97 87.5527 115.941 87.1719L115.946 87.1686ZM140.759 123.874C140.767 123.8 140.77 123.725 140.767 123.651L138.281 74.7856C138.268 74.6979 138.244 74.6121 138.21 74.5302C138.009 74.3991 137.884 74.5487 137.758 74.6232C137.53 74.7529 137.318 74.9082 137.101 75.049L118.657 86.9987C119.493 103.38 120.328 119.735 121.164 136.065C121.181 136.18 121.211 136.294 121.253 136.403C121.364 136.407 121.438 136.436 121.483 136.41C122.453 135.88 140.154 124.364 140.754 123.877L140.759 123.874Z" fill="#D7D8DD"/>
</g>
<g clip-path="url(#clip6_1321_2210)">
<path d="M150.392 284.207C150.362 284.22 150.331 284.23 150.298 284.235C150.267 284.238 150.235 284.238 150.203 284.235C149.172 283.814 79.0066 247.983 78.3507 247.525L74.2621 167.114C74.3183 167.032 74.3819 166.956 74.4519 166.886C74.638 166.751 74.8265 166.621 75.0175 166.498C97.3239 152.045 119.634 137.6 141.948 123.162C141.977 123.148 142.008 123.14 142.041 123.138C142.066 123.122 142.108 123.135 142.208 123.128C142.528 123.284 142.912 123.474 143.285 123.668L202.292 153.773C205.839 155.59 209.384 157.399 212.926 159.2C214.126 159.82 213.962 159.538 214.046 160.969C214.105 162.18 214.16 163.386 214.228 164.584C215.502 189.508 216.773 214.43 218.04 239.35C218.054 239.675 218.057 239.999 218.065 240.274C218.015 240.345 217.957 240.409 217.892 240.466C195.696 254.847 173.503 269.233 151.312 283.625C151.019 283.83 150.709 284.012 150.392 284.207ZM79.8164 223.792C80.0265 228.227 80.25 232.658 80.4867 237.085L80.8881 244.901C80.906 245.063 80.9138 245.227 80.9113 245.39C80.8955 245.569 80.9399 245.748 81.0375 245.899C81.1351 246.049 81.2802 246.163 81.4498 246.222C82.8222 246.905 84.1721 247.621 85.5477 248.309L147.692 280.012C148.022 280.229 148.386 280.387 148.769 280.48C148.809 280.367 148.869 280.281 148.863 280.194C148.484 272.603 148.104 265.009 147.709 257.316C125.081 245.778 102.487 234.252 79.9265 222.741C79.7744 223.069 79.7357 223.439 79.8164 223.792ZM159.929 247.749C162.828 245.871 165.733 243.989 168.643 242.104C168.94 241.911 169.231 241.705 169.562 241.476L168.404 218.793C168.391 218.685 168.369 218.577 168.338 218.473C168.107 218.346 167.981 218.482 167.852 218.559C167.66 218.683 167.468 218.807 167.277 218.931C154.594 227.149 141.91 235.366 129.226 243.585L128.303 244.183C128.419 244.362 128.448 244.452 128.486 244.467C135.247 247.928 141.999 251.382 148.745 254.829C149.211 254.803 149.5 254.514 149.822 254.305C153.202 252.112 156.559 249.929 159.929 247.749ZM89.1519 214.908L82.0824 219.488C81.7832 219.682 81.4865 219.874 81.2177 220.07C81.2573 220.462 81.5594 220.502 81.7761 220.613C83.5986 221.557 85.4264 222.491 87.2593 223.415C99.6534 229.743 112.05 236.069 124.448 242.392C124.736 242.539 125.03 242.679 125.345 242.835C125.588 242.706 125.82 242.599 126.039 242.461C132.091 238.54 138.144 234.618 144.199 230.695C144.406 230.561 144.587 230.386 144.799 230.215C144.73 230.121 144.648 230.038 144.555 229.967C129.921 222.502 115.31 215.049 100.72 207.609C100.331 207.667 99.9671 207.838 99.6724 208.099C96.1606 210.364 92.6537 212.634 89.1519 214.908ZM148.582 227.859C153.211 224.86 157.841 221.86 162.47 218.861C164.083 217.816 165.703 216.766 167.33 215.712C167.629 215.518 167.916 215.311 168.173 215.137C168.258 214.326 167.161 191.851 166.974 190.356C166.77 190.042 166.41 189.945 166.097 189.788C160.8 187.083 155.51 184.385 150.226 181.696C148.712 180.926 147.201 180.157 145.69 179.387C145.402 179.24 145.107 179.104 144.787 178.952C143.823 179.453 124.767 191.836 124.192 192.322C124.118 193.128 125.291 216.252 125.46 217.181L147.566 228.448C147.913 228.256 148.255 228.071 148.579 227.861L148.582 227.859ZM77.0513 169.468L79.4449 216.661C79.4622 217.013 79.495 217.355 79.5344 217.831C80.425 217.406 98.4209 205.747 99.1058 205.15C98.2758 188.923 97.4467 172.655 96.6184 156.344C96.5979 156.16 96.5678 155.977 96.5284 155.796C96.3692 155.84 96.2131 155.895 96.0613 155.961C95.8595 156.07 95.6776 156.209 95.4858 156.334C89.6492 160.115 83.8117 163.897 77.9733 167.68C76.8913 168.392 76.981 168.189 77.0487 169.47L77.0513 169.468ZM140.663 127.11C140.28 127.359 139.993 127.504 139.724 127.678L99.9318 153.46C99.2157 153.924 99.2105 153.928 99.2565 154.806C99.5508 160.607 99.8462 166.406 100.143 172.203L101.76 203.961C101.774 204.315 101.805 204.658 101.84 204.999C102.59 205.551 117.694 213.337 122.03 215.423C122.17 215.488 122.323 215.527 122.503 215.592C122.625 215.275 122.653 214.929 122.584 214.596C122.43 211.369 122.267 208.145 122.097 204.922C121.938 201.792 121.779 198.664 121.619 195.536L120.069 165.63C120.048 165.24 120.043 164.851 120.03 164.42L141.944 150.222L140.804 127.607C140.768 127.439 140.72 127.273 140.661 127.112L140.663 127.11ZM164.014 163.15C164.009 163.105 163.999 163.06 163.985 163.016C163.975 162.987 163.958 162.961 163.936 162.94C163.767 162.842 163.599 162.74 163.426 162.652C156.804 159.27 150.182 155.891 143.669 152.576C143.511 152.562 143.481 152.556 143.45 152.558C143.417 152.564 143.385 152.575 143.355 152.59C143.248 152.66 143.123 152.708 143.015 152.778C136.384 157.074 129.753 161.371 123.121 165.667C123.046 165.724 122.975 165.787 122.909 165.855C122.831 166.575 123.876 187.704 124.041 188.9C124.205 189.041 124.342 188.927 124.475 188.848C124.693 188.707 124.915 188.563 125.133 188.422C137.792 180.22 150.449 172.019 163.104 163.82C163.435 163.644 163.738 163.421 164.004 163.157L164.014 163.15ZM212.566 184.265L211.409 161.41L143.877 126.981C143.802 126.943 143.698 126.963 143.59 126.953C143.546 127.043 143.516 127.139 143.503 127.238C143.881 134.823 144.256 142.413 144.643 149.893L144.761 150.075C144.78 150.101 144.805 150.123 144.833 150.141C152.082 153.856 159.338 157.569 166.6 161.279C181.821 169.037 197.042 176.792 212.264 184.544C212.295 184.552 212.327 184.556 212.359 184.555C212.391 184.556 212.422 184.547 212.474 184.542C212.506 184.441 212.57 184.349 212.566 184.265ZM211.181 187.17C210.927 186.913 210.617 186.718 210.275 186.602C206.762 184.801 203.248 183.005 199.732 181.214L168.008 165.033C166.824 164.427 167.076 164.424 166.002 165.12C160.14 168.918 154.277 172.716 148.415 176.514C148.093 176.662 147.807 176.879 147.578 177.151C147.751 177.507 148.101 177.564 148.385 177.718C152.561 179.854 156.741 181.987 160.927 184.117C170.861 189.182 180.798 194.244 190.737 199.301C191.921 199.906 191.653 199.957 192.843 199.189C198.649 195.427 204.457 191.664 210.266 187.901C210.618 187.726 210.927 187.478 211.175 187.174L211.181 187.17ZM190.518 202.264L170.218 191.911C170.077 191.861 169.931 191.824 169.783 191.801C169.671 192.781 169.822 193.715 169.858 194.657C169.895 195.599 169.949 196.545 170.001 197.488L170.142 200.324L170.286 203.157L170.432 205.989L170.576 208.823C170.622 209.77 170.666 210.711 170.719 211.657C170.773 212.603 170.847 213.535 170.888 214.489C170.928 215.443 170.991 216.442 171.042 217.418C171.094 218.394 171.134 219.308 171.173 220.238L171.319 223.074L171.465 225.906L171.607 228.737L171.751 231.571L171.895 234.405L172.039 237.238C172.086 238.181 172.14 239.127 172.185 240.071C172.23 241.014 172.272 241.953 172.317 242.937L150.5 257.072C150.418 257.881 151.483 279.142 151.639 280.084C151.803 280.224 151.944 280.122 152.077 280.036C152.297 279.894 152.514 279.753 152.737 279.609C165.858 271.107 178.979 262.606 192.102 254.104C193.227 253.374 193.149 253.64 193.078 252.247L190.587 203.295C190.57 202.972 190.542 202.648 190.513 202.268L190.518 202.264ZM215.331 238.97C215.339 238.896 215.342 238.821 215.339 238.747L212.853 189.881C212.84 189.794 212.816 189.708 212.782 189.626C212.581 189.495 212.457 189.644 212.331 189.719C212.102 189.849 211.891 190.004 211.673 190.145L193.23 202.094C194.065 218.475 194.901 234.831 195.737 251.16C195.753 251.276 195.783 251.39 195.825 251.499C195.937 251.503 196.01 251.532 196.055 251.506C197.026 250.975 214.726 239.46 215.326 238.973L215.331 238.97Z" fill="#D7D8DD"/>
</g>
<g clip-path="url(#clip7_1321_2210)">
<path d="M212.314 162.212C212.284 162.225 212.253 162.235 212.22 162.24C212.189 162.243 212.157 162.243 212.126 162.24C211.094 161.819 140.929 125.987 140.273 125.53L136.184 45.1189C136.24 45.0372 136.304 44.9608 136.374 44.8906C136.56 44.7556 136.749 44.6262 136.94 44.5024C159.246 30.05 181.556 15.6048 203.87 1.16711C203.899 1.15309 203.931 1.14489 203.963 1.14297C203.989 1.1264 204.03 1.13963 204.13 1.13249C204.45 1.28883 204.834 1.479 205.207 1.67324L264.214 31.7774C267.761 33.5946 271.306 35.4038 274.848 37.2051C276.049 37.8253 275.884 37.5433 275.968 38.9739C276.027 40.1851 276.082 41.3913 276.15 42.5892C277.424 67.5126 278.695 92.4345 279.962 117.355C279.976 117.68 279.98 118.004 279.987 118.279C279.937 118.35 279.879 118.414 279.814 118.471C257.618 132.852 235.425 147.238 213.234 161.63C212.942 161.834 212.631 162.017 212.314 162.212ZM141.738 101.797C141.949 106.232 142.172 110.663 142.409 115.089L142.81 122.906C142.828 123.068 142.836 123.232 142.833 123.395C142.818 123.574 142.862 123.753 142.96 123.904C143.057 124.054 143.202 124.168 143.372 124.227C144.744 124.91 146.094 125.626 147.47 126.314L209.614 158.017C209.944 158.233 210.308 158.392 210.691 158.485C210.731 158.372 210.791 158.286 210.785 158.198C210.406 150.607 210.026 143.014 209.631 135.321C187.003 123.782 164.409 112.257 141.849 100.745C141.697 101.074 141.658 101.444 141.738 101.797ZM221.851 125.754C224.75 123.876 227.655 121.994 230.565 120.108C230.862 119.916 231.153 119.71 231.484 119.481L230.326 96.798C230.314 96.6894 230.291 96.5822 230.26 96.4776C230.029 96.3512 229.903 96.4873 229.774 96.5634C229.582 96.6877 229.391 96.812 229.199 96.9363C216.516 105.153 203.832 113.371 191.148 121.59L190.225 122.188C190.341 122.367 190.37 122.457 190.409 122.472C197.169 125.933 203.922 129.387 210.667 132.834C211.133 132.808 211.422 132.519 211.744 132.31C215.124 130.117 218.481 127.934 221.851 125.754ZM151.074 92.9126L144.005 97.493C143.705 97.6868 143.409 97.8791 143.14 98.075C143.179 98.467 143.482 98.5073 143.698 98.6175C145.521 99.5622 147.348 100.496 149.181 101.42C161.576 107.748 173.972 114.074 186.37 120.397C186.658 120.544 186.952 120.684 187.267 120.84C187.51 120.711 187.742 120.604 187.961 120.466C194.013 116.545 200.066 112.623 206.121 108.7C206.328 108.566 206.509 108.391 206.722 108.22C206.652 108.126 206.57 108.043 206.477 107.972C191.843 100.507 177.232 93.0541 162.642 85.6135C162.253 85.6723 161.889 85.8425 161.595 86.1036C158.083 88.3692 154.576 90.6389 151.074 92.9126ZM210.504 105.864C215.133 102.865 219.763 99.8651 224.392 96.8657C226.005 95.8206 227.625 94.7711 229.252 93.7171C229.551 93.5232 229.838 93.3156 230.095 93.1415C230.18 92.3311 229.084 69.8556 228.896 68.3611C228.692 68.0465 228.332 67.9497 228.019 67.7926C222.722 65.0875 217.432 62.3903 212.148 59.7011C210.635 58.9312 209.123 58.1616 207.612 57.3923C207.324 57.2448 207.029 57.1091 206.709 56.9569C205.745 57.4583 186.689 69.8411 186.114 70.3264C186.041 71.1328 187.213 94.2568 187.382 95.1855L209.488 106.453C209.835 106.261 210.177 106.076 210.501 105.866L210.504 105.864ZM138.973 47.4734L141.367 94.6663C141.384 95.0182 141.417 95.3601 141.456 95.8357C142.347 95.4112 160.343 83.7515 161.028 83.1553C160.198 66.9282 159.369 50.6595 158.541 34.3491C158.52 34.1649 158.49 33.982 158.45 33.801C158.291 33.8454 158.135 33.9004 157.983 33.9656C157.782 34.0745 157.6 34.2142 157.408 34.3384C151.571 38.12 145.734 41.9022 139.895 45.6849C138.813 46.3968 138.903 46.1935 138.971 47.475L138.973 47.4734ZM202.585 5.11487C202.202 5.36344 201.915 5.5093 201.646 5.6833L161.854 31.4651C161.138 31.9291 161.133 31.9324 161.179 32.8105C161.473 38.6116 161.768 44.4107 162.065 50.2079L163.682 81.966C163.697 82.3195 163.727 82.6631 163.762 83.0034C164.512 83.5559 179.616 91.3423 183.952 93.4279C184.092 93.4932 184.245 93.5324 184.425 93.5973C184.547 93.2798 184.575 92.9338 184.506 92.6008C184.352 89.3742 184.19 86.1494 184.019 82.9265C183.86 79.7972 183.701 76.6686 183.541 73.5405L181.991 43.6345C181.971 43.2445 181.965 42.8556 181.952 42.4252L203.866 28.2268L202.726 5.61207C202.69 5.44366 202.642 5.27805 202.583 5.11653L202.585 5.11487ZM225.936 41.1553C225.931 41.1098 225.921 41.065 225.908 41.0213C225.897 40.9921 225.88 40.9658 225.858 40.9446C225.689 40.8469 225.521 40.7449 225.349 40.6573C218.727 37.2746 212.104 33.8961 205.591 30.5808C205.433 30.5669 205.403 30.5606 205.372 30.5627C205.339 30.569 205.307 30.58 205.277 30.5953C205.17 30.6649 205.045 30.7131 204.937 30.7827C198.306 35.0791 191.675 39.3756 185.044 43.672C184.968 43.7286 184.897 43.7916 184.831 43.8602C184.753 44.5794 185.798 65.7085 185.963 66.9051C186.127 67.0459 186.264 66.9319 186.398 66.8525C186.615 66.7116 186.837 66.5675 187.055 66.4266C199.714 58.2249 212.371 50.0242 225.026 41.8247C225.357 41.6494 225.66 41.426 225.926 41.1619L225.936 41.1553ZM274.488 62.2694L273.331 39.4152L205.799 4.98622C205.724 4.94803 205.62 4.96781 205.512 4.95794C205.468 5.04765 205.438 5.14407 205.425 5.24336C205.803 12.8275 206.178 20.4175 206.565 27.8978L206.683 28.0794C206.702 28.1058 206.727 28.1282 206.755 28.1454C214.004 31.8612 221.26 35.574 228.522 39.2838C243.743 47.0415 258.964 54.7965 274.186 62.5486C274.217 62.5574 274.249 62.5612 274.281 62.56C274.314 62.5604 274.344 62.5515 274.396 62.5471C274.428 62.4461 274.492 62.354 274.488 62.2694ZM273.103 65.1752C272.849 64.9178 272.539 64.7232 272.197 64.6071C268.684 62.8062 265.17 61.0101 261.654 59.2187L229.93 43.0377C228.746 42.4322 228.998 42.4287 227.924 43.1247C222.062 46.9229 216.2 50.721 210.337 54.5192C210.015 54.6668 209.729 54.8842 209.501 55.1558C209.673 55.5122 210.023 55.5692 210.307 55.7226C214.483 57.859 218.663 59.9922 222.849 62.122C232.784 67.1872 242.72 72.2484 252.659 77.3058C253.843 77.9113 253.575 77.9619 254.766 77.1939C260.572 73.4322 266.379 69.6694 272.189 65.9055C272.54 65.7304 272.85 65.4826 273.098 65.1785L273.103 65.1752ZM252.44 80.2692L232.14 69.9159C231.999 69.866 231.854 69.829 231.706 69.8054C231.593 70.7862 231.744 71.7197 231.781 72.6619C231.817 73.6041 231.871 74.5498 231.923 75.4931L232.064 78.3284L232.208 81.1622L232.354 83.9942L232.498 86.828C232.545 87.7745 232.588 88.7159 232.642 89.6617C232.695 90.6075 232.769 91.54 232.81 92.4941C232.851 93.4481 232.913 94.4464 232.964 95.4226C233.016 96.3988 233.056 97.3131 233.095 98.2426L233.241 101.079L233.387 103.911L233.529 106.742L233.673 109.576L233.817 112.41L233.961 115.243C234.008 116.186 234.062 117.131 234.107 118.075C234.152 119.019 234.194 119.958 234.239 120.942L212.422 135.077C212.34 135.886 213.405 157.147 213.561 158.089C213.725 158.229 213.866 158.127 213.999 158.041C214.219 157.898 214.436 157.758 214.659 157.613C227.78 149.112 240.901 140.611 254.024 132.108C255.15 131.379 255.071 131.644 255 130.252L252.509 81.2997C252.492 80.9765 252.464 80.6533 252.435 80.2725L252.44 80.2692ZM277.253 116.975C277.261 116.9 277.264 116.826 277.261 116.751L274.776 67.8861C274.762 67.7984 274.738 67.7127 274.704 67.6308C274.503 67.4996 274.379 67.6493 274.253 67.7237C274.024 67.8535 273.813 68.0088 273.595 68.1496L255.152 80.0993C255.987 96.4802 256.823 112.836 257.659 129.165C257.676 129.281 257.705 129.395 257.747 129.504C257.859 129.508 257.932 129.537 257.977 129.511C258.948 128.98 276.648 117.465 277.248 116.978L277.253 116.975Z" fill="#D7D8DD"/>
</g>
<g clip-path="url(#clip8_1321_2210)">
<path d="M225.113 399.542C225.083 399.555 225.051 399.565 225.019 399.57C224.987 399.573 224.956 399.573 224.924 399.57C223.892 399.149 153.727 363.318 153.071 362.86L148.983 282.449C149.039 282.367 149.103 282.291 149.173 282.221C149.359 282.086 149.547 281.956 149.738 281.833C172.045 267.38 194.355 252.935 216.668 238.497C216.698 238.483 216.729 238.475 216.762 238.473C216.787 238.456 216.828 238.47 216.929 238.463C217.248 238.619 217.633 238.809 218.006 239.003L277.012 269.108C280.56 270.925 284.104 272.734 287.646 274.535C288.847 275.155 288.683 274.873 288.767 276.304C288.825 277.515 288.881 278.721 288.949 279.919C290.223 304.843 291.493 329.765 292.76 354.685C292.775 355.01 292.778 355.334 292.786 355.609C292.735 355.68 292.677 355.744 292.612 355.801C270.417 370.182 248.223 384.568 226.033 398.96C225.74 399.165 225.43 399.347 225.113 399.542ZM154.537 339.127C154.747 343.562 154.971 347.993 155.207 352.42L155.609 360.236C155.627 360.398 155.634 360.562 155.632 360.725C155.616 360.904 155.661 361.083 155.758 361.234C155.856 361.384 156.001 361.498 156.171 361.557C157.543 362.24 158.893 362.956 160.268 363.644L222.413 395.347C222.742 395.563 223.107 395.722 223.49 395.815C223.529 395.702 223.59 395.616 223.584 395.528C223.205 387.938 222.824 380.344 222.43 372.651C199.802 361.112 177.207 349.587 154.647 338.076C154.495 338.404 154.456 338.774 154.537 339.127ZM234.65 363.084C237.549 361.206 240.453 359.324 243.364 357.439C243.661 357.246 243.952 357.04 244.283 356.811L243.124 334.128C243.112 334.02 243.09 333.912 243.058 333.808C242.827 333.681 242.701 333.817 242.573 333.893C242.381 334.018 242.189 334.142 241.997 334.266C229.315 342.484 216.631 350.701 203.947 358.92L203.023 359.518C203.139 359.697 203.168 359.787 203.207 359.802C209.967 363.263 216.72 366.717 223.466 370.164C223.932 370.138 224.221 369.849 224.543 369.64C227.922 367.447 231.28 365.264 234.65 363.084ZM163.873 330.243L156.803 334.823C156.504 335.017 156.207 335.209 155.938 335.405C155.978 335.797 156.28 335.837 156.497 335.948C158.319 336.892 160.147 337.826 161.98 338.75C174.374 345.078 186.77 351.404 199.168 357.727C199.456 357.874 199.75 358.014 200.065 358.17C200.309 358.041 200.541 357.934 200.76 357.796C206.812 353.875 212.865 349.953 218.92 346.03C219.127 345.896 219.307 345.721 219.52 345.55C219.451 345.456 219.369 345.373 219.276 345.302C204.642 337.837 190.03 330.384 175.441 322.944C175.052 323.002 174.688 323.173 174.393 323.434C170.881 325.699 167.374 327.969 163.873 330.243ZM223.303 343.194C227.932 340.195 232.561 337.195 237.191 334.196C238.804 333.151 240.424 332.101 242.05 331.047C242.35 330.853 242.636 330.646 242.894 330.472C242.979 329.661 241.882 307.186 241.695 305.691C241.491 305.377 241.13 305.28 240.818 305.123C235.521 302.418 230.23 299.72 224.946 297.031C223.433 296.261 221.921 295.492 220.411 294.722C220.123 294.575 219.828 294.439 219.508 294.287C218.544 294.788 199.488 307.171 198.912 307.657C198.839 308.463 200.011 331.587 200.181 332.516L222.286 343.783C222.634 343.591 222.975 343.406 223.3 343.196L223.303 343.194ZM151.772 284.803L154.166 331.996C154.183 332.348 154.216 332.69 154.255 333.166C155.146 332.741 173.142 321.082 173.827 320.485C172.997 304.258 172.167 287.99 171.339 271.679C171.319 271.495 171.289 271.312 171.249 271.131C171.09 271.175 170.934 271.23 170.782 271.296C170.58 271.405 170.398 271.544 170.207 271.669C164.37 275.45 158.532 279.232 152.694 283.015C151.612 283.727 151.702 283.524 151.769 284.805L151.772 284.803ZM215.384 242.445C215 242.694 214.714 242.839 214.445 243.013L174.653 268.795C173.936 269.259 173.931 269.262 173.977 270.141C174.271 275.942 174.567 281.741 174.863 287.538L176.48 319.296C176.495 319.65 176.525 319.993 176.561 320.334C177.311 320.886 192.414 328.672 196.751 330.758C196.891 330.823 197.044 330.862 197.224 330.927C197.346 330.61 197.374 330.264 197.304 329.931C197.15 326.704 196.988 323.479 196.817 320.257C196.659 317.127 196.499 313.999 196.339 310.871L194.789 280.965C194.769 280.575 194.764 280.186 194.75 279.755L216.665 265.557L215.525 242.942C215.489 242.774 215.441 242.608 215.381 242.447L215.384 242.445ZM238.735 278.485C238.729 278.44 238.72 278.395 238.706 278.351C238.696 278.322 238.679 278.296 238.656 278.275C238.488 278.177 238.32 278.075 238.147 277.987C231.525 274.605 224.902 271.226 218.389 267.911C218.232 267.897 218.202 267.891 218.171 267.893C218.138 267.899 218.106 267.91 218.076 267.925C217.968 267.995 217.843 268.043 217.736 268.113C211.105 272.409 204.473 276.706 197.842 281.002C197.766 281.059 197.695 281.122 197.63 281.19C197.551 281.909 198.597 303.039 198.762 304.235C198.926 304.376 199.062 304.262 199.196 304.183C199.414 304.042 199.636 303.898 199.853 303.757C212.512 295.555 225.169 287.354 237.825 279.155C238.156 278.979 238.459 278.756 238.725 278.492L238.735 278.485ZM287.287 299.599L286.13 276.745L218.598 242.316C218.522 242.278 218.419 242.298 218.311 242.288C218.266 242.378 218.237 242.474 218.224 242.573C218.602 250.158 218.977 257.748 219.364 265.228L219.481 265.409C219.501 265.436 219.525 265.458 219.553 265.476C226.803 269.191 234.058 272.904 241.321 276.614C256.541 284.372 271.763 292.127 286.985 299.879C287.015 299.887 287.047 299.891 287.079 299.89C287.112 299.891 287.143 299.882 287.194 299.877C287.227 299.776 287.291 299.684 287.287 299.599ZM285.901 302.505C285.648 302.248 285.338 302.053 284.996 301.937C281.483 300.136 277.969 298.34 274.452 296.549L242.729 280.368C241.545 279.762 241.797 279.759 240.723 280.455C234.86 284.253 228.998 288.051 223.136 291.849C222.813 291.997 222.527 292.214 222.299 292.486C222.472 292.842 222.821 292.899 223.106 293.053C227.281 295.189 231.462 297.322 235.648 299.452C245.582 304.517 255.519 309.579 265.458 314.636C266.642 315.241 266.373 315.292 267.564 314.524C273.37 310.762 279.178 306.999 284.987 303.236C285.338 303.06 285.648 302.813 285.896 302.509L285.901 302.505ZM265.239 317.599L244.939 307.246C244.798 307.196 244.652 307.159 244.504 307.135C244.392 308.116 244.542 309.05 244.579 309.992C244.616 310.934 244.669 311.88 244.721 312.823L244.862 315.659L245.006 318.492L245.153 321.324L245.296 324.158C245.343 325.105 245.387 326.046 245.44 326.992C245.494 327.938 245.568 328.87 245.608 329.824C245.649 330.778 245.711 331.776 245.763 332.753C245.814 333.729 245.855 334.643 245.894 335.573L246.039 338.409L246.186 341.241L246.328 344.072L246.472 346.906L246.615 349.74L246.759 352.573C246.807 353.516 246.86 354.461 246.906 355.405C246.951 356.349 246.992 357.288 247.038 358.272L225.221 372.407C225.138 373.216 226.204 394.477 226.36 395.419C226.524 395.559 226.664 395.457 226.797 395.371C227.017 395.229 227.235 395.088 227.457 394.944C240.578 386.442 253.7 377.941 266.823 369.438C267.948 368.709 267.869 368.975 267.799 367.582L265.307 318.63C265.291 318.307 265.263 317.983 265.234 317.603L265.239 317.599ZM290.052 354.305C290.06 354.231 290.063 354.156 290.06 354.082L287.574 305.216C287.561 305.129 287.537 305.043 287.503 304.961C287.302 304.83 287.177 304.979 287.051 305.054C286.823 305.184 286.611 305.339 286.394 305.48L267.95 317.429C268.786 333.81 269.621 350.166 270.457 366.495C270.474 366.611 270.504 366.725 270.546 366.834C270.657 366.838 270.731 366.867 270.776 366.841C271.746 366.31 289.447 354.795 290.047 354.308L290.052 354.305Z" fill="#D7D8DD"/>
</g>
<g clip-path="url(#clip9_1321_2210)">
<path d="M287.936 277.385C287.906 277.398 287.875 277.408 287.842 277.413C287.811 277.416 287.779 277.416 287.748 277.413C286.716 276.992 216.551 241.16 215.895 240.703L211.806 160.292C211.862 160.21 211.926 160.134 211.996 160.063C212.182 159.928 212.371 159.799 212.562 159.675C234.868 145.223 257.178 130.778 279.492 116.34C279.521 116.326 279.553 116.318 279.585 116.316C279.61 116.299 279.652 116.312 279.752 116.305C280.072 116.462 280.456 116.652 280.829 116.846L339.836 146.95C343.383 148.767 346.928 150.577 350.47 152.378C351.67 152.998 351.506 152.716 351.59 154.147C351.649 155.358 351.704 156.564 351.772 157.762C353.046 182.685 354.317 207.607 355.584 232.528C355.598 232.853 355.601 233.177 355.609 233.452C355.559 233.523 355.501 233.587 355.436 233.644C333.24 248.025 311.047 262.411 288.856 276.803C288.563 277.007 288.253 277.19 287.936 277.385ZM217.36 216.97C217.571 221.405 217.794 225.835 218.031 230.262L218.432 238.078C218.45 238.241 218.458 238.405 218.455 238.568C218.44 238.747 218.484 238.926 218.582 239.076C218.679 239.227 218.824 239.341 218.994 239.399C220.366 240.083 221.716 240.799 223.092 241.487L285.236 273.189C285.566 273.406 285.93 273.565 286.313 273.657C286.353 273.545 286.413 273.458 286.407 273.371C286.028 265.78 285.648 258.187 285.253 250.493C262.625 238.955 240.031 227.43 217.471 215.918C217.318 216.247 217.28 216.617 217.36 216.97ZM297.473 240.927C300.372 239.049 303.277 237.167 306.187 235.281C306.484 235.089 306.775 234.882 307.106 234.653L305.948 211.971C305.935 211.862 305.913 211.755 305.882 211.65C305.651 211.524 305.525 211.66 305.396 211.736C305.204 211.861 305.013 211.985 304.821 212.109C292.138 220.326 279.454 228.544 266.77 236.762L265.847 237.361C265.963 237.54 265.992 237.63 266.031 237.645C272.791 241.106 279.543 244.56 286.289 248.007C286.755 247.981 287.044 247.692 287.366 247.483C290.746 245.29 294.103 243.107 297.473 240.927ZM226.696 208.085L219.627 212.666C219.327 212.86 219.031 213.052 218.762 213.248C218.801 213.64 219.103 213.68 219.32 213.79C221.143 214.735 222.97 215.669 224.803 216.593C237.198 222.921 249.594 229.246 261.992 235.57C262.28 235.717 262.574 235.857 262.889 236.012C263.132 235.884 263.364 235.777 263.583 235.639C269.635 231.718 275.688 227.796 281.743 223.873C281.95 223.739 282.131 223.564 282.344 223.393C282.274 223.299 282.192 223.215 282.099 223.145C267.465 215.68 252.854 208.227 238.264 200.786C237.875 200.845 237.511 201.015 237.216 201.276C233.705 203.542 230.198 205.812 226.696 208.085ZM286.126 221.037C290.755 218.037 295.385 215.038 300.014 212.039C301.627 210.993 303.247 209.944 304.874 208.89C305.173 208.696 305.46 208.489 305.717 208.314C305.802 207.504 304.705 185.028 304.518 183.534C304.314 183.219 303.954 183.123 303.641 182.965C298.344 180.26 293.054 177.563 287.77 174.874C286.257 174.104 284.745 173.334 283.234 172.565C282.946 172.418 282.651 172.282 282.331 172.13C281.367 172.631 262.311 185.014 261.736 185.499C261.663 186.306 262.835 209.43 263.004 210.358L285.11 221.626C285.457 221.434 285.799 221.249 286.123 221.038L286.126 221.037ZM214.595 162.646L216.989 209.839C217.006 210.191 217.039 210.533 217.078 211.009C217.969 210.584 235.965 198.924 236.65 198.328C235.82 182.101 234.991 165.832 234.162 149.522C234.142 149.338 234.112 149.155 234.072 148.974C233.913 149.018 233.757 149.073 233.605 149.138C233.404 149.247 233.222 149.387 233.03 149.511C227.193 153.293 221.356 157.075 215.517 160.858C214.435 161.57 214.525 161.366 214.593 162.648L214.595 162.646ZM278.207 120.288C277.824 120.536 277.537 120.682 277.268 120.856L237.476 146.638C236.76 147.102 236.755 147.105 236.801 147.983C237.095 153.784 237.39 159.584 237.687 165.381L239.304 197.139C239.319 197.492 239.349 197.836 239.384 198.176C240.134 198.729 255.238 206.515 259.574 208.601C259.714 208.666 259.867 208.705 260.047 208.77C260.169 208.453 260.197 208.107 260.128 207.774C259.974 204.547 259.811 201.322 259.641 198.099C259.482 194.97 259.323 191.841 259.163 188.713L257.613 158.807C257.592 158.417 257.587 158.028 257.574 157.598L279.488 143.4L278.348 120.785C278.312 120.617 278.264 120.451 278.205 120.289L278.207 120.288ZM301.558 156.328C301.553 156.283 301.543 156.238 301.53 156.194C301.519 156.165 301.502 156.139 301.48 156.117C301.311 156.02 301.143 155.918 300.97 155.83C294.349 152.447 287.726 149.069 281.213 145.754C281.055 145.74 281.025 145.733 280.994 145.736C280.961 145.742 280.929 145.753 280.899 145.768C280.792 145.838 280.667 145.886 280.559 145.956C273.928 150.252 267.297 154.548 260.666 158.845C260.59 158.901 260.519 158.964 260.453 159.033C260.375 159.752 261.42 180.881 261.585 182.078C261.749 182.219 261.886 182.105 262.02 182.025C262.237 181.884 262.459 181.74 262.677 181.599C275.336 173.398 287.993 165.197 300.648 156.998C300.979 156.822 301.282 156.599 301.548 156.335L301.558 156.328ZM350.11 177.442L348.953 154.588L281.421 120.159C281.346 120.121 281.242 120.141 281.134 120.131C281.09 120.22 281.06 120.317 281.047 120.416C281.425 128 281.8 135.59 282.187 143.071L282.305 143.252C282.324 143.279 282.349 143.301 282.377 143.318C289.626 147.034 296.882 150.747 304.144 154.457C319.365 162.214 334.586 169.969 349.808 177.721C349.839 177.73 349.871 177.734 349.903 177.733C349.936 177.733 349.966 177.724 350.018 177.72C350.05 177.619 350.114 177.527 350.11 177.442ZM348.725 180.348C348.471 180.091 348.161 179.896 347.819 179.78C344.306 177.979 340.792 176.183 337.276 174.392L305.552 158.211C304.368 157.605 304.62 157.602 303.546 158.298C297.684 162.096 291.822 165.894 285.959 169.692C285.637 169.84 285.351 170.057 285.123 170.329C285.295 170.685 285.645 170.742 285.929 170.895C290.105 173.032 294.285 175.165 298.471 177.295C308.405 182.36 318.342 187.421 328.281 192.479C329.465 193.084 329.197 193.135 330.388 192.367C336.194 188.605 342.001 184.842 347.811 181.078C348.162 180.903 348.472 180.655 348.719 180.351L348.725 180.348ZM328.062 195.442L307.762 185.089C307.621 185.039 307.475 185.002 307.327 184.978C307.215 185.959 307.366 186.893 307.403 187.835C307.439 188.777 307.493 189.723 307.545 190.666L307.686 193.501L307.83 196.335L307.976 199.167L308.12 202.001C308.166 202.947 308.21 203.889 308.263 204.835C308.317 205.78 308.391 206.713 308.432 207.667C308.473 208.621 308.535 209.619 308.586 210.595C308.638 211.572 308.678 212.486 308.717 213.415L308.863 216.252L309.009 219.084L309.151 221.915L309.295 224.749L309.439 227.582L309.583 230.416C309.63 231.358 309.684 232.304 309.729 233.248C309.774 234.192 309.816 235.131 309.861 236.115L288.044 250.25C287.962 251.059 289.027 272.32 289.183 273.261C289.347 273.402 289.488 273.3 289.621 273.214C289.841 273.071 290.058 272.93 290.281 272.786C303.402 264.285 316.523 255.783 329.646 247.281C330.771 246.552 330.693 246.817 330.622 245.425L328.131 196.473C328.114 196.149 328.086 195.826 328.057 195.445L328.062 195.442ZM352.875 232.147C352.883 232.073 352.886 231.999 352.883 231.924L350.397 183.059C350.384 182.971 350.36 182.886 350.326 182.804C350.125 182.672 350.001 182.822 349.875 182.897C349.646 183.026 349.435 183.182 349.217 183.322L330.774 195.272C331.609 211.653 332.445 228.008 333.281 244.338C333.297 244.454 333.327 244.567 333.369 244.677C333.481 244.681 333.554 244.709 333.599 244.684C334.57 244.153 352.27 232.637 352.87 232.151L352.875 232.147Z" fill="#D7D8DD"/>
</g>
</g>
<defs>
<clipPath id="clip0_1321_2210">
<rect width="356" height="275.725" fill="white" transform="translate(0 0.274414)"/>
</clipPath>
<clipPath id="clip1_1321_2210">
<rect width="139.797" height="161.462" fill="white" transform="matrix(0.543752 0.839246 0.839246 -0.543752 -171.976 81.4092)"/>
</clipPath>
<clipPath id="clip2_1321_2210">
<rect width="139.797" height="161.462" fill="white" transform="matrix(0.543752 0.839246 0.839246 -0.543752 -97.4036 196.505)"/>
</clipPath>
<clipPath id="clip3_1321_2210">
<rect width="139.797" height="161.462" fill="white" transform="matrix(0.543752 0.839246 0.839246 -0.543752 -159.116 319.282)"/>
</clipPath>
<clipPath id="clip4_1321_2210">
<rect width="139.797" height="161.462" fill="white" transform="matrix(0.543752 0.839246 0.839246 -0.543752 -21.5679 311.871)"/>
</clipPath>
<clipPath id="clip5_1321_2210">
<rect width="139.797" height="161.462" fill="white" transform="matrix(0.543752 0.839246 0.839246 -0.543752 -34.1731 73.8311)"/>
</clipPath>
<clipPath id="clip6_1321_2210">
<rect width="139.797" height="161.462" fill="white" transform="matrix(0.543752 0.839246 0.839246 -0.543752 40.3992 188.927)"/>
</clipPath>
<clipPath id="clip7_1321_2210">
<rect width="139.797" height="161.462" fill="white" transform="matrix(0.543752 0.839246 0.839246 -0.543752 102.321 66.9316)"/>
</clipPath>
<clipPath id="clip8_1321_2210">
<rect width="139.797" height="161.462" fill="white" transform="matrix(0.543752 0.839246 0.839246 -0.543752 115.12 304.262)"/>
</clipPath>
<clipPath id="clip9_1321_2210">
<rect width="139.797" height="161.462" fill="white" transform="matrix(0.543752 0.839246 0.839246 -0.543752 177.943 182.104)"/>
</clipPath>
</defs>
</svg>
