<svg width="35" height="29" viewBox="0 0 35 29" fill="none" xmlns="http://www.w3.org/2000/svg">
<path d="M34.2283 11.134C33.8974 10.2655 33.218 9.49014 32.3911 8.93104C30.004 7.41527 26.366 7.30733 23.9063 8.67766C22.5648 9.36159 21.6831 10.715 21.4087 12.1089C20.911 14.3988 21.0395 17.1234 22.8037 18.8398C24.8609 20.6432 27.855 21.0416 30.5173 20.3008C30.6438 20.2765 31.0447 20.1755 31.3212 20.0289L31.399 19.9955C32.2259 19.6519 33.0145 19.0924 33.6033 18.3347C34.9621 16.348 35.0552 13.3712 34.2283 11.134ZM29.8936 16.2763C29.7996 16.7106 29.5075 17.1605 29.0469 17.3236C28.3135 17.6462 27.3214 17.5568 26.642 17.1794C26.0722 16.781 25.9989 16.114 25.9255 15.4828C25.8699 14.2385 25.7801 12.9209 26.1286 11.7834C26.4018 11.0788 27.1554 10.8976 27.8368 10.8444C28.5525 10.8444 29.2492 10.9536 29.6913 11.5308C29.9665 11.9449 29.9496 12.4867 30.004 12.9745C29.9846 14.0024 30.0769 15.2286 29.8936 16.2763ZM8.12848 17.397C7.52201 17.3599 6.84261 17.413 6.2555 17.3409L6.27363 11.0051L6.31071 10.9523L8.12848 10.9346C8.14743 9.90626 8.16556 8.80332 8.10953 7.86601L1.18658 7.84664L0.0465572 7.86642C0.0284289 8.82227 0.0284289 9.94005 0.0465572 10.9157C0.671571 10.935 1.25827 10.9157 1.86474 10.9721V17.1081L1.84703 17.3603L0.0284289 17.3974C-0.0094763 18.3897 -0.0094763 19.3831 0.0284289 20.3754H8.12807L8.12848 17.397ZM28.5146 21.7276C27.7441 22.8297 26.7705 23.8943 25.7076 24.7224C25.6688 24.7789 25.5588 24.7575 25.5238 24.7055C25.0632 24.4176 24.5675 24.1819 24.1259 23.8943C24.7142 23.191 25.284 22.4873 25.7249 21.7082H25.1534C24.6969 22.3785 24.2182 23.0818 23.6125 23.6755C22.8037 23.3513 22.0696 23.0629 21.2431 22.8445L21.1512 22.7757C21.2797 22.4111 21.5179 22.0687 21.5908 21.7074H21.0952L20.5995 22.6826C19.5172 22.4482 18.3228 22.3204 17.2206 22.2492C17.165 22.0872 17.2379 21.8524 17.165 21.7074H16.6875C16.6496 21.9245 16.7427 22.0881 16.6323 22.2681C15.4935 22.3204 14.3918 22.4482 13.3276 22.6669L12.8299 21.7074C12.6482 21.7074 12.4438 21.6728 12.3169 21.7267L12.7751 22.7918L12.7203 22.8445C11.8971 23.0827 11.0878 23.3663 10.296 23.6941L10.2231 23.657C9.7077 23.0975 9.21165 22.4865 8.80706 21.8726C8.716 21.564 8.34849 21.7445 8.1462 21.7082C8.5854 22.5034 9.17498 23.2063 9.76168 23.9293C9.26603 24.219 8.77204 24.542 8.25538 24.7789C7.13192 23.9233 6.15256 22.8934 5.35444 21.7284C5.1336 21.693 4.98817 21.709 4.76609 21.7284C6.08864 23.7859 8.1462 25.5901 10.2952 26.6552C10.2952 26.6552 10.2952 26.6391 10.315 26.6391C10.3307 26.6391 10.3673 26.6725 10.3307 26.6914C11.7826 27.3955 13.3264 27.9007 14.9596 28.1182C20.5987 28.8573 25.9807 26.4582 29.1013 21.7284C28.9062 21.7083 28.7097 21.708 28.5146 21.7276ZM20.8574 23.3517L20.9114 23.3154C21.7033 23.4959 22.4548 23.7489 23.1531 24.0908C22.5648 24.757 21.8116 25.3359 21.1145 25.8229C20.6926 26.0746 20.2687 26.3482 19.8274 26.5633L19.0392 26.2205L19.0932 26.0957C19.7557 25.2119 20.3437 24.3084 20.8574 23.3517ZM17.2379 22.8099C18.2857 22.8297 19.333 22.9376 20.3049 23.1712L20.3243 23.226C19.8109 24.1996 19.1666 25.1402 18.4698 26.0227C18.1559 26.0598 17.8634 25.935 17.5515 25.9156L17.2375 25.8785C17.2017 24.8135 17.1823 23.8749 17.2379 22.8099ZM13.6947 23.1346C14.6497 22.9541 15.641 22.8099 16.669 22.8099L16.6879 25.8633C16.3015 25.9506 15.8792 25.9506 15.5116 26.0433C14.7585 25.1567 14.1347 24.1996 13.6028 23.2063L13.6947 23.1346ZM10.7361 24.1102C11.4542 23.7662 12.2061 23.512 12.9766 23.315L13.0511 23.334C13.5822 24.3269 14.2443 25.2646 14.9052 26.2032C14.6501 26.3486 14.3362 26.4356 14.0799 26.5822C12.8379 25.9687 11.7077 25.1509 10.7365 24.1629V24.1102H10.7361ZM13.1063 27.1961C11.5634 26.7977 10.1296 26.1121 8.80747 25.1752V25.1192C9.24832 24.851 9.69081 24.5613 10.1667 24.3607C11.2144 25.3924 12.2972 26.1686 13.4726 26.9069C13.3812 27.0153 13.2345 27.124 13.1063 27.1961ZM19.9197 27.4293C17.9734 27.8471 15.805 27.8632 13.8591 27.3947C13.822 27.3049 13.951 27.2855 14.0058 27.2328C15.7139 26.1307 18.3759 26.1307 20.0491 27.3206C20.1035 27.4293 19.9568 27.3947 19.9197 27.4293ZM21.6835 26.9258L20.8203 27.1957C20.6728 27.1236 20.5451 27.0153 20.4153 26.9065L20.4524 26.8513C21.6283 26.1682 22.6929 25.3355 23.7036 24.343C24.1996 24.5412 24.6776 24.8135 25.1196 25.1188C24.09 25.935 22.8956 26.4739 21.6835 26.9258ZM5.3186 6.47548C5.7729 5.84678 6.26985 5.25003 6.80594 4.68943C7.28181 4.23829 7.7243 3.80527 8.23931 3.47896C8.71724 3.78549 9.24914 4.04094 9.70812 4.32852C9.13913 5.02893 8.5512 5.73593 8.12889 6.49196C8.25662 6.54841 8.4964 6.53069 8.68057 6.49196C9.13913 5.82534 9.63354 5.15789 10.2235 4.56171C11.0113 4.85135 11.7838 5.15706 12.593 5.3746L12.6643 5.44629L12.2069 6.49196C12.4096 6.53069 12.5382 6.51174 12.7388 6.49196C12.9036 6.18708 13.0314 5.84511 13.2151 5.53652C14.2818 5.77219 15.4025 5.89785 16.5412 5.93287C16.6871 6.06101 16.5775 6.33046 16.6327 6.49196H17.1284C17.1823 6.3148 17.1098 6.11374 17.1823 5.95306C18.2486 5.89703 19.3684 5.78867 20.4005 5.5357L20.4899 5.55465L20.986 6.49114C21.1516 6.49114 21.3716 6.52987 21.5002 6.45406L21.0399 5.41003L21.0783 5.37378C21.9216 5.15706 22.7127 4.8324 23.5206 4.50815C24.0917 5.1035 24.6228 5.80721 25.1019 6.49073C25.303 6.49073 25.5053 6.5105 25.6524 6.45365C25.4255 6.05071 25.1609 5.67022 24.8621 5.31733C24.6196 4.97169 24.3489 4.64661 24.053 4.34541V4.25188L25.3388 3.51316L25.5242 3.44105C26.6425 4.28747 27.6211 5.30402 28.4243 6.45365C28.6448 6.45365 28.8289 6.52946 29.0131 6.4384C26.5493 2.7596 22.491 0.392617 18.1036 0.051887L18.0842 0.0869076L18.0467 0.051887C17.5515 -0.00126181 16.943 -0.0222742 16.4111 0.0308747C16.2096 0.0152185 15.9714 0.0308747 15.7321 0.051887C11.3248 0.392617 7.26615 2.65 4.73025 6.49279C4.914 6.47548 5.13443 6.54882 5.3186 6.47548ZM12.942 4.88967L12.8686 4.90533C12.1146 4.7088 11.3792 4.4719 10.6813 4.16619L10.7167 4.05783C11.7269 3.10156 12.792 2.3068 13.9674 1.69456C14.2443 1.80292 14.5195 1.89232 14.7948 2.02046L14.7408 2.16136C14.0416 3.02987 13.492 3.96636 12.942 4.88967ZM16.5956 5.37543C16.0827 5.44753 15.6233 5.35936 15.1071 5.31939C14.6135 5.24688 13.9876 5.19455 13.492 5.02975C14.0247 4.04176 14.6501 3.08343 15.4025 2.20133L16.5783 2.3616C16.6327 3.2985 16.5956 4.38208 16.5956 5.37543ZM17.1646 5.39479C17.1284 4.43523 17.1473 3.37184 17.1646 2.3789C17.5334 2.32616 17.9355 2.27013 18.3038 2.21698C19.0199 3.11804 19.7195 4.04176 20.1974 5.02975C19.2043 5.27003 18.1864 5.39255 17.1646 5.39479ZM23.0254 4.12952C22.3077 4.43481 21.5723 4.72404 20.7837 4.88967C20.2147 3.93299 19.5905 2.97672 18.8905 2.05259C19.148 1.91127 19.462 1.80292 19.7368 1.65913C20.9328 2.25406 22.0885 3.10156 23.0608 4.07307L23.0254 4.12952ZM20.6728 1.04359C22.2158 1.44159 23.6669 2.12634 24.9894 3.06489L24.9528 3.13699L23.6867 3.83988H23.5932C22.6212 2.86878 21.4829 2.02046 20.3243 1.35094C20.361 1.22446 20.5455 1.1334 20.6728 1.04359ZM19.9391 0.862304V0.900621C18.3401 2.05259 15.751 2.16136 14.0622 1.09632C13.9674 1.02422 13.7862 0.989202 13.7664 0.862716C15.7143 0.413629 18.0088 0.377372 19.9391 0.862304ZM8.73454 3.10156C9.89269 2.25406 11.1777 1.62246 12.5374 1.18903C12.593 1.13258 12.6284 1.07943 12.7009 1.07943V1.11651C12.8476 1.15194 12.9584 0.988378 13.0866 1.0955C13.1974 1.18903 13.3272 1.2603 13.4178 1.35012C12.2799 2.05259 11.1588 2.88443 10.13 3.89303C9.63395 3.71586 9.17663 3.44353 8.73413 3.13699L8.73454 3.10156ZM16.6146 17.5379C14.8883 18.008 13.0136 17.6495 11.7653 16.348C11.619 16.1675 11.5263 15.9525 11.3788 15.7728L8.90017 15.7901C8.86103 17.2515 8.84373 18.9304 8.90017 20.3749L11.654 20.3572L11.6907 19.4904C12.0042 19.6346 12.3169 19.8146 12.6284 19.9765C14.5385 20.7717 16.9973 20.9522 18.8897 19.9765C20.2683 19.2205 21.0033 17.7591 20.8006 16.1857C20.5995 14.6534 19.1295 13.2629 17.643 12.8851L13.197 11.6025L12.8682 11.4393C12.7211 11.3141 12.6288 11.1526 12.6647 10.9523C13.0136 10.3582 13.8228 10.5387 14.4289 10.5548C15.7143 10.7356 17.0365 11.1687 17.79 12.3425C18.5972 12.3425 19.5337 12.3581 20.4145 12.3235C20.452 10.844 20.4001 9.54535 20.3783 8.04688C19.5518 8.02792 18.5411 8.02792 17.7159 8.06583C17.6788 8.28049 17.7513 8.58619 17.6594 8.80373L16.8152 8.35217C14.7939 7.50426 11.9651 7.41568 10.1292 8.73328C8.93478 9.59808 8.56851 11.1518 8.88081 12.5229C9.11853 13.8203 10.3673 14.7778 11.5617 15.2277C13.1962 15.8046 14.9035 16.2223 16.5594 16.781C16.7234 16.8543 16.9434 17.0179 16.9079 17.2161C16.9088 17.3764 16.7423 17.4691 16.6146 17.5379Z" fill="#293F52"/>
</svg>
