<svg width="80" height="80" viewBox="0 0 80 80" fill="none" xmlns="http://www.w3.org/2000/svg">
<g clip-path="url(#clip0_820_1294)">
<path d="M79.9282 41.5271C79.8776 41.4854 79.8042 41.4722 79.7471 41.4914C79.6773 41.5129 79.6133 41.5315 79.553 41.5492L79.5235 41.5578C79.3747 41.6013 79.2462 41.6386 79.1189 41.6897C77.1073 42.489 75.5235 43.8583 74.2771 45.8758C73.9693 46.3743 73.7309 46.8924 73.541 47.4092C73.8524 45.671 73.9246 44.9939 73.9797 43.049C73.9824 42.9674 73.9824 42.8844 73.9824 42.802C73.9824 42.577 73.9824 42.3645 74.0315 42.1706C74.0904 41.9408 74.2089 41.7116 74.3236 41.4898C74.3559 41.427 74.3882 41.3643 74.4149 41.3091C74.4241 41.2983 74.454 41.2801 74.4656 41.2783C75.0409 41.1904 75.5496 40.9462 76.0212 40.5317C76.4965 40.112 76.8873 39.5983 77.183 39.0044C78.2446 36.8756 78.7758 34.5227 78.7623 32.0118C78.7611 31.7696 78.7327 31.5338 78.7014 31.2773C78.6871 31.1624 78.6727 31.0449 78.6607 30.9232C78.6539 30.8564 78.6128 30.7971 78.5532 30.7682C78.4944 30.7397 78.4235 30.7417 78.3641 30.7776C78.3282 30.8001 78.2975 30.8183 78.2697 30.8346C78.2157 30.8667 78.1746 30.8917 78.1357 30.9198C77.2302 31.5689 76.4315 32.377 75.7616 33.321C74.6683 34.864 74.0325 36.6088 73.8612 38.5281C73.8442 38.3142 73.8269 38.1002 73.8097 37.8863L73.8037 37.8087C73.7365 36.9699 73.6671 36.1024 73.6106 35.2494C73.5964 35.0335 73.5548 34.8233 73.5147 34.62C73.4373 34.2292 73.3641 33.86 73.4812 33.4732C73.5079 33.3858 73.5304 33.2978 73.5528 33.2099C73.6082 32.9924 73.8755 32.6573 74.2859 32.291L74.3014 32.2771C74.4528 32.1488 75.2304 31.4373 75.6715 30.0301C76.1193 28.6004 76.0854 27.1065 76.0607 26.0157L76.0601 25.9866C76.0273 24.4871 75.8652 23.3572 75.5348 22.3223C75.4921 22.19 75.4413 22.0594 75.3876 21.9223C75.3597 21.8509 75.3312 21.7771 75.302 21.6999C75.2779 21.6345 75.2202 21.587 75.1526 21.5758L75.1195 21.5728C75.0609 21.5728 75.0062 21.599 74.9691 21.6444L74.6481 22.0356C73.1089 23.9128 72.3527 26.1145 72.4 28.5797C72.4083 29.0139 72.4408 29.4592 72.4983 29.919C72.1071 28.5689 71.6483 27.2547 71.1265 25.9904C71.1157 25.9628 71.1087 25.9285 71.1079 25.8994L71.1043 25.7265C71.0989 25.4771 71.0933 25.219 71.1039 24.9652C71.1055 24.9231 71.1328 24.8475 71.1895 24.7731C71.2701 24.6666 71.3596 24.5625 71.4522 24.4542C71.61 24.2706 71.773 24.0809 71.9022 23.8643C72.318 23.1677 72.5133 22.3448 72.5165 21.2742C72.5222 20.0139 72.3279 18.6877 71.9044 17.1002C71.673 16.2341 71.3237 15.109 70.6732 14.089C70.6291 14.0204 70.5797 13.9558 70.5272 13.8874C70.5035 13.8572 70.4787 13.8249 70.4534 13.7902C70.4165 13.7407 70.3656 13.7118 70.2834 13.7118C70.2178 13.7166 70.1592 13.7539 70.1266 13.8119C69.31 15.2855 68.9034 16.8598 68.8841 18.6247C68.8677 20.0963 69.0975 21.3626 69.3856 22.3634C68.6523 21.0237 67.8374 19.7294 66.9541 18.5016L66.9339 18.4737C66.9138 18.4471 66.9054 18.434 66.9068 18.4433C66.8513 18.046 66.8128 17.7282 66.7861 17.4515C66.7867 17.4473 66.7919 17.424 66.8332 17.355C66.8916 17.2556 66.9555 17.1581 67.0235 17.0551C67.1599 16.8477 67.3006 16.6332 67.3909 16.3929C67.6632 15.6679 67.7243 14.8455 67.5773 13.8798C67.2547 11.7425 66.3125 9.8179 64.6975 7.99577C64.5312 7.80869 64.3476 7.64326 64.1533 7.4684L64.0995 7.41968C64.0235 7.3509 63.9455 7.28052 63.8667 7.20612C63.8166 7.1584 63.7448 7.14056 63.6752 7.16101C63.6095 7.18186 63.5587 7.2364 63.5431 7.30418L63.5078 7.45898C63.4837 7.56165 63.4651 7.64266 63.4512 7.72407C63.2339 9.02143 63.2497 10.411 63.5 11.9727C63.7482 13.5215 64.2429 14.8574 65.0019 16.0178C63.8637 14.6767 62.7566 13.5506 61.5996 12.5526C61.5944 12.5458 61.5868 12.5251 61.5862 12.5199C61.6766 11.7409 61.4846 11.007 60.9985 10.2763C60.3602 9.316 59.4733 8.5841 58.3625 8.10125C57.6977 7.8129 57.0089 7.55764 56.3346 7.30759C56.0116 7.18768 55.6885 7.06817 55.3559 6.94004C55.0216 6.80709 54.8786 6.78343 54.801 6.85522C54.7012 6.94826 54.7252 7.02766 54.7687 7.17204L54.7828 7.21916C55.1904 8.59232 55.7314 9.67833 56.4371 10.5392C57.7324 12.1211 59.2474 12.9248 61.0661 12.9957C61.1298 12.9995 61.1804 13.0172 61.201 13.0332C61.4571 13.2249 61.6456 13.3783 61.8122 13.5303C62.3392 14.012 62.8581 14.5251 63.3658 15.0655C62.6107 14.5963 61.6877 14.3845 60.6482 14.4371C60.0793 14.4657 59.5146 14.5492 58.9686 14.6298L58.9478 14.633C58.7864 14.6566 58.6257 14.6801 58.4655 14.7028C58.1146 14.7503 57.7609 14.8124 57.4485 14.867C57.322 14.8896 57.0198 14.9584 56.9502 15.105C56.9261 15.1551 56.9281 15.2101 56.9554 15.26C56.9795 15.3035 57.0059 15.3444 57.0348 15.3817C57.9366 16.5518 58.9652 17.3224 60.1796 17.7372C61.6602 18.2457 63.0201 18.2038 64.2421 17.6057C64.429 17.5028 64.6544 17.4507 64.9118 17.4507C65.1061 17.4507 65.2519 17.4814 65.3002 17.4924C65.3726 17.5044 65.4709 17.5449 65.4909 17.571C66.2509 18.5702 66.9722 19.6374 67.6457 20.7585C67.0766 20.205 66.3345 19.8319 65.3235 19.5888C64.4374 19.3777 63.5315 19.3324 62.6556 19.2882L62.3622 19.2734C62.0875 19.2594 61.8128 19.2419 61.5299 19.2241L61.0554 19.1948C60.9941 19.1948 60.9357 19.2245 60.9 19.2738C60.8605 19.3269 60.8511 19.3959 60.8744 19.4579C60.8934 19.5096 60.9281 19.6009 60.946 19.6313C61.8698 21.1765 62.9546 22.2453 64.262 22.899C65.5401 23.5375 66.6949 23.7063 67.8597 23.4278C67.9944 23.3953 68.1506 23.3781 68.312 23.3781C68.8075 23.3781 69.153 23.5292 69.2256 23.6692C69.8665 24.9912 70.4384 26.365 70.9316 27.7662C70.4143 27.053 69.6908 26.4737 68.7749 26.0404C67.8649 25.6108 66.9174 25.2182 65.9852 24.8318C65.5846 24.6662 65.1823 24.5 64.7819 24.3299C64.7223 24.3039 64.652 24.3093 64.5964 24.346C64.5419 24.3823 64.5094 24.4428 64.5094 24.508C64.5094 24.6331 65.8388 28.3229 67.7696 29.7768C68.5573 30.37 69.5274 30.9802 70.7508 31.0088C71.1169 31.0163 71.4955 31.068 71.7814 31.393C71.8252 31.4448 71.8831 31.4851 71.9463 31.5065C72.0439 31.5386 72.0708 31.5984 72.1189 31.8021C72.5151 33.4656 72.8037 35.1802 72.9814 36.9214C72.9276 36.7447 72.8653 36.5662 72.7937 36.3856C72.3615 35.2897 71.6343 34.3308 70.5049 33.3677C69.9228 32.8693 69.3132 32.3866 68.7237 31.9196L68.6956 31.8975C68.4271 31.6848 68.1593 31.4728 67.8922 31.2583C67.837 31.214 67.7833 31.1682 67.7209 31.1149L67.5543 30.9721C67.4959 30.9228 67.4091 30.9126 67.3409 30.9467C67.271 30.9822 67.229 31.0556 67.2345 31.134C67.2427 31.2517 67.2493 31.363 67.2555 31.4698L67.2587 31.5198C67.272 31.7397 67.2844 31.9473 67.3066 32.1522C67.5156 34.1476 68.1089 35.8135 69.1205 37.245C69.7468 38.1299 70.6451 39.2115 72.0459 39.723C72.3868 39.8481 72.6341 40.0376 72.8989 40.3777C73.1488 40.6961 73.1953 40.9871 73.1897 41.3533C73.1658 42.887 73.0566 44.4086 72.8639 45.8986C72.8187 45.484 72.7233 45.0571 72.5767 44.6135C72.2733 43.6951 71.8005 42.8022 71.131 41.8838C70.5531 41.0886 69.9517 40.2905 69.3702 39.5183L69.3315 39.4668C69.1009 39.161 68.8705 38.8548 68.6461 38.5552C68.604 38.4936 68.5432 38.4716 68.5082 38.4594C68.4584 38.4351 68.3991 38.4327 68.3463 38.4551C68.2946 38.4772 68.2549 38.5207 68.2375 38.574L68.2306 38.5949C68.221 38.623 68.2134 38.6478 68.2094 38.6727C67.8083 41.0641 68.0544 43.2067 68.9613 45.2235C69.4043 46.2096 69.9984 47.3261 71.0459 48.1294C71.5242 48.4962 71.9018 49.0107 72.1091 49.578C72.153 49.7001 72.1514 49.753 72.1464 49.7735C71.703 51.6098 71.1239 53.381 70.4199 55.0574C70.6012 54.1739 70.5888 53.2459 70.3818 52.2844C70.0881 50.9217 69.5831 49.601 69.1328 48.4701L68.9978 48.1314C68.7867 47.6015 68.5741 47.0673 68.3546 46.5136C68.3267 46.4428 68.2595 46.3945 68.1699 46.3901C68.0993 46.3901 68.0343 46.4304 68.0006 46.4958L67.9299 46.6289C67.8988 46.6873 67.8697 46.7416 67.8448 46.7978C66.9389 48.8419 66.6329 50.9373 66.9359 53.0259C67.1524 54.5194 67.5194 55.5888 68.1258 56.4935C68.4396 56.9611 68.7378 57.4821 68.7919 58.1227C68.8047 58.2743 68.7987 58.3788 68.7311 58.4977C67.9664 59.837 67.1089 61.1009 66.1699 62.2751C66.1735 62.2687 66.1769 62.2623 66.1805 62.2558C66.8561 61.0212 66.8765 59.6864 66.8076 58.5432C66.748 57.5633 66.6357 56.5847 66.5276 55.6387L66.5214 55.5839C66.4779 55.205 66.4346 54.8262 66.3951 54.4466C66.3722 54.2314 66.3468 54.0163 66.3205 53.7979L66.2858 53.5024C66.2782 53.437 66.2383 53.3804 66.1809 53.352C66.0743 53.2962 65.9016 53.3822 65.7151 53.6028C64.4336 55.1185 63.6383 56.8314 63.3512 58.694C63.0534 60.6252 63.2148 62.2779 63.8453 63.7465C63.8621 63.7856 63.8617 63.8654 63.8615 63.8921L63.8276 64.7371C63.8226 64.7978 63.7905 64.8664 63.7641 64.8919C62.4843 66.1243 61.0755 67.1957 59.5636 68.0874C60.2792 67.4405 60.7938 66.5965 61.1272 65.5269C61.4968 64.3415 61.6865 63.1077 61.8703 61.9114L61.8864 61.8049C61.9516 61.3846 62.0195 60.9651 62.0889 60.5364L62.1673 60.0517C62.1785 59.9812 62.1507 59.9106 62.0959 59.8683C62.0416 59.8249 61.963 59.8145 61.9004 59.8414L61.832 59.8697C61.7591 59.8995 61.6955 59.9262 61.6355 59.9569C58.7773 61.3844 56.8959 64.7138 57.1617 67.8732C57.2035 68.3681 57.1581 68.8329 57.023 69.2933C57.0103 69.3352 56.9698 69.3807 56.9534 69.3883C55.5959 69.9608 54.3051 70.3785 53.0064 70.6652C52.9396 70.6807 52.8867 70.7284 52.865 70.7928C52.8431 70.8576 52.8564 70.9279 52.9009 70.9809C53.0421 71.1481 53.165 71.328 53.266 71.5163C53.3076 71.5933 53.4064 71.6328 53.4804 71.6135C54.5385 71.3721 55.569 71.0595 56.5441 70.6837C56.6229 70.652 56.6831 70.637 56.7394 70.6462C56.9564 70.6751 57.1856 70.7196 57.4401 70.7828C57.4926 70.7956 57.5361 70.8198 57.5369 70.8176C58.0928 71.9257 59.048 72.6315 60.4583 72.975C60.7651 73.0486 61.0815 73.103 61.3987 73.1363C61.7308 73.1713 62.1011 73.1892 62.4992 73.1892C63.0506 73.1892 63.4438 73.1551 63.4486 73.1547C64.671 73.018 65.7149 72.7428 66.6395 72.3135C67.0189 72.1377 67.4512 71.9009 67.7835 71.478C67.847 71.3969 67.8364 71.28 67.7592 71.2121C66.82 70.3833 65.8637 69.7812 64.8352 69.3713C63.3115 68.7657 61.9235 68.6017 60.563 68.8634C60.3596 68.9029 60.1611 68.9526 59.9682 69.0098C61.2409 68.249 62.4595 67.3549 63.6103 66.3362C63.6323 66.3162 63.6686 66.2985 63.6969 66.2935C63.8852 66.2622 64.1352 66.2237 64.3911 66.2053C64.4147 66.2053 64.4448 66.2167 64.4482 66.2179C65.1416 66.9939 66.0349 67.3711 67.1793 67.3711C67.2377 67.3711 67.2962 67.3699 67.3546 67.3679C68.5988 67.3278 69.8496 66.9859 71.073 66.3513C71.9621 65.8875 72.8889 65.3475 73.6405 64.5422C73.8071 64.3631 73.9559 64.1606 74.0872 63.9819L74.1001 63.9645C74.1582 63.8857 74.217 63.8063 74.2773 63.7279C74.3102 63.6856 74.324 63.631 74.3154 63.5761C74.3062 63.5231 74.2755 63.476 74.2232 63.4419C74.2099 63.4347 73.8917 63.2641 73.6012 63.1516C71.6557 62.3998 69.6916 62.3228 67.818 62.9266C67.2046 63.1237 66.6273 63.4197 66.0652 63.8287C67.1047 62.6204 68.0672 61.2958 68.9411 59.8705C68.9505 59.8554 68.9754 59.8147 68.9834 59.8073C69.0598 59.7586 69.138 59.7125 69.216 59.6669C69.3558 59.5849 69.5005 59.5001 69.6365 59.399C69.7512 59.3134 69.7835 59.3112 69.8994 59.3858C70.0634 59.4923 70.2541 59.5476 70.4203 59.5911C71.3928 59.8402 72.3732 59.7161 73.4576 59.2069C74.4482 58.7425 75.2097 58.0084 75.8855 57.2846C76.8684 56.2286 77.5107 55.276 77.9069 54.2862C77.9901 54.0784 78.0495 53.8637 78.1113 53.6391C78.1367 53.5449 78.1628 53.4506 78.1905 53.358C78.2207 53.2585 78.1678 53.1532 78.0695 53.1186L77.9881 53.1123C77.5873 53.1123 74.0116 53.1711 71.9202 55.2004C71.4652 55.6419 71.0574 56.1111 70.685 56.6248C71.5124 54.8727 72.214 53.0261 72.7794 51.1093L72.7877 51.0813C72.7945 51.0578 72.8047 51.0223 72.8115 51.0127L73.3585 50.2615C73.379 50.2315 73.3814 50.2315 73.4135 50.2315C73.4277 50.2315 73.4433 50.2325 73.4612 50.2335L73.5781 50.2405C73.9852 50.2658 74.2248 50.2621 74.4219 50.2313C75.2007 50.1083 75.9037 49.7161 76.5709 49.032C78.1311 47.4318 79.2051 45.4354 79.854 42.9293C79.9236 42.6608 79.943 42.3897 79.9639 42.1022C79.9731 41.9719 79.9833 41.8375 79.9981 41.6987C80.0044 41.6322 79.9783 41.5686 79.9282 41.5271Z" fill="#FABD47"/>
<path d="M26.9904 70.6639C25.6929 70.3773 24.4023 69.9596 23.0444 69.3871C23.0282 69.3795 22.9879 69.334 22.9752 69.2931C22.8399 68.8317 22.7945 68.3669 22.8363 67.872C23.1021 64.7124 21.2207 61.3832 18.3631 59.9559C18.3023 59.925 18.2389 59.8983 18.166 59.8685L18.0982 59.8404C18.0338 59.8129 17.9554 59.8244 17.9035 59.8661C17.8473 59.9094 17.8195 59.98 17.8309 60.0507L17.9091 60.5352C17.9785 60.9639 18.0464 61.3834 18.1116 61.8033L18.1281 61.9132C18.3115 63.1065 18.5012 64.3405 18.8708 65.5259C19.2042 66.5955 19.7188 67.4395 20.4344 68.0862C18.9225 67.1947 17.5137 66.1233 16.2341 64.8911C16.2073 64.8652 16.1754 64.7966 16.1708 64.7401L16.1365 63.8945C16.1363 63.8644 16.1359 63.7846 16.1529 63.7451C16.7832 62.2769 16.9446 60.6242 16.6468 58.693C16.3597 56.8304 15.5644 55.1176 14.2829 53.6018C14.1329 53.4244 14.0006 53.3345 13.8895 53.3345C13.8624 53.3345 13.8379 53.3399 13.8187 53.35C13.7597 53.3792 13.7198 53.436 13.712 53.5016L13.6777 53.7965C13.6512 54.0155 13.6258 54.2304 13.6029 54.4458C13.5634 54.8252 13.5201 55.204 13.4766 55.583L13.4704 55.6377C13.3621 56.584 13.2498 57.5625 13.1905 58.5422C13.1215 59.6852 13.1419 61.0201 13.8175 62.2549C13.8211 62.2611 13.8243 62.2677 13.8279 62.2739C12.8889 61.0997 12.0316 59.836 11.2669 58.4969C11.1993 58.3778 11.1935 58.2733 11.2061 58.1217C11.2604 57.4807 11.5584 56.9597 11.8722 56.4925C12.4784 55.5878 12.8454 54.5184 13.0621 53.0249C13.3651 50.9363 13.0591 48.8411 12.1532 46.797C12.1283 46.7406 12.0992 46.6863 12.0681 46.6279L11.9974 46.4944C11.9635 46.4292 11.8911 46.3863 11.8147 46.3897C11.7385 46.3937 11.6713 46.4421 11.6436 46.5122C11.4239 47.0665 11.2113 47.6005 11.0002 48.1304L10.8652 48.4691C10.4149 49.6003 9.90975 50.9209 9.61619 52.2834C9.40925 53.2449 9.39662 54.1729 9.57809 55.0564C8.87386 53.3802 8.29496 51.6091 7.85161 49.7725C7.8466 49.752 7.845 49.6991 7.88891 49.577C8.09625 49.0095 8.47383 48.495 8.95227 48.1282C9.99958 47.3249 10.5937 46.2085 11.0367 45.2223C11.9436 43.2055 12.1897 41.0629 11.7886 38.6717C11.7844 38.6467 11.7768 38.6218 11.7678 38.5947L11.7605 38.5731C11.7431 38.5195 11.7034 38.4762 11.6509 38.4535C11.5995 38.4321 11.535 38.4361 11.4951 38.4558C11.455 38.4704 11.3942 38.4927 11.3547 38.5506C11.1277 38.8538 10.8973 39.1598 10.6667 39.4656L10.628 39.5171C10.0465 40.2893 9.44514 41.0874 8.86725 41.8824C8.19771 42.801 7.72488 43.6939 7.4215 44.6123C7.27512 45.0559 7.17947 45.4828 7.13435 45.8974C6.94165 44.4074 6.83237 42.886 6.80851 41.3521C6.80289 40.9859 6.84941 40.695 7.09946 40.3763C7.36415 40.0367 7.61139 39.847 7.95227 39.7218C9.3529 39.2101 10.2514 38.1287 10.8777 37.2438C11.8893 35.8123 12.4826 34.1466 12.6916 32.1514C12.7138 31.9461 12.7264 31.7383 12.7395 31.5186L12.7427 31.4686C12.7489 31.3618 12.7555 31.2505 12.7639 31.1326C12.7692 31.0544 12.7273 30.981 12.6573 30.9455C12.5895 30.9114 12.5027 30.9214 12.4437 30.9713L12.2775 31.1137C12.2149 31.1671 12.1614 31.2128 12.1058 31.2573C11.8389 31.4716 11.5711 31.6838 11.3026 31.8965L11.2745 31.9186C10.6852 32.3854 10.0756 32.8681 9.49347 33.3666C8.36394 34.3299 7.63666 35.2887 7.20454 36.3846C7.13315 36.5653 7.07059 36.7439 7.01685 36.9208C7.19451 35.1795 7.48306 33.4646 7.87928 31.8009C7.92741 31.5974 7.95428 31.5376 8.05313 31.5051C8.1153 31.4841 8.17325 31.4436 8.21556 31.3934C8.5029 31.0668 8.88128 31.0151 9.24783 31.0076C10.471 30.979 11.4411 30.3688 12.2286 29.7757C14.1594 28.3215 15.4888 24.6319 15.4888 24.5068C15.4888 24.4416 15.4563 24.3809 15.4012 24.3442C15.3468 24.3083 15.2735 24.3033 15.2181 24.3279C14.8159 24.4986 14.4136 24.6648 13.9971 24.837C13.0808 25.217 12.1333 25.6097 11.2234 26.039C10.3076 26.4723 9.5839 27.0518 9.06656 27.7648C9.55964 26.3638 10.1313 24.9902 10.7714 23.6702C10.845 23.5279 11.1907 23.3767 11.6864 23.3767C11.8476 23.3767 12.0038 23.3939 12.1387 23.4264C13.3033 23.7055 14.4581 23.5363 15.7363 22.8976C17.0438 22.2439 18.1287 21.1752 19.0527 19.6293C19.0703 19.5995 19.105 19.5082 19.1236 19.4571C19.1471 19.3945 19.1377 19.3256 19.0988 19.2732C19.0627 19.2235 19.0049 19.1938 18.9313 19.1938C18.9307 19.1938 18.9303 19.1938 18.9297 19.1938L18.4681 19.2229C18.1852 19.2407 17.9105 19.2582 17.6358 19.2722L17.3424 19.2871C16.4665 19.3312 15.5606 19.3765 14.6743 19.5876C13.6635 19.8307 12.9214 20.2038 12.3523 20.7573C13.0258 19.6362 13.7471 18.5694 14.5069 17.5702C14.5273 17.5437 14.6254 17.5032 14.7058 17.4898C14.7459 17.4804 14.8919 17.4497 15.086 17.4497C15.3434 17.4497 15.5688 17.502 15.7599 17.6071C16.9741 18.2008 18.3376 18.245 19.818 17.7364C21.0324 17.3216 22.0608 16.551 22.9624 15.3813C22.9917 15.3436 23.0181 15.3025 23.0422 15.2592C23.0697 15.2093 23.0715 15.1543 23.0474 15.1042C22.9776 14.9578 22.6756 14.8891 22.5485 14.8662C22.2365 14.8117 21.883 14.7495 21.5325 14.702C21.3719 14.6795 21.211 14.6561 21.0498 14.6322L21.0292 14.629C20.483 14.5484 19.9183 14.465 19.3494 14.4363C18.3099 14.3831 17.3869 14.5953 16.6316 15.0649C17.1395 14.5243 17.6584 14.0114 18.1854 13.5295C18.352 13.3775 18.5405 13.2243 18.7974 13.032C18.8172 13.0168 18.8678 12.999 18.9297 12.9953C20.7502 12.9242 22.2652 12.1205 23.5605 10.5388C24.2662 9.67775 24.8072 8.59173 25.2148 7.21857L25.2289 7.17145C25.2724 7.02707 25.2964 6.94767 25.1964 6.85463C25.1192 6.78284 24.9832 6.8041 24.6299 6.94406C24.3091 7.06738 23.9862 7.18709 23.6548 7.31001C22.9889 7.55685 22.3001 7.81211 21.6353 8.10046C20.5245 8.58331 19.6374 9.31521 18.9991 10.2755C18.5131 11.0062 18.321 11.7403 18.4114 12.5159C18.4108 12.5245 18.4032 12.5452 18.402 12.5476C17.2424 13.5488 16.1339 14.6759 14.9957 16.0174C15.7547 14.857 16.2494 13.5209 16.4976 11.9721C16.7479 10.4106 16.7637 9.02084 16.5464 7.72348C16.5325 7.64227 16.5139 7.56106 16.49 7.45939L16.4545 7.30279C16.4385 7.23561 16.3879 7.18127 16.3216 7.16042C16.2552 7.14077 16.1808 7.15821 16.1313 7.20534C16.0519 7.28013 15.9741 7.35071 15.8981 7.41929L15.8445 7.46762C15.65 7.64287 15.4664 7.8083 15.3001 7.99538C13.6849 9.81751 12.7429 11.7421 12.4203 13.8792C12.2733 14.8451 12.3342 15.6675 12.6067 16.3926C12.697 16.6328 12.8377 16.8473 12.9779 17.0603C13.0421 17.1575 13.1062 17.2552 13.165 17.3554C13.2083 17.4274 13.2119 17.4461 13.2117 17.4427C13.185 17.7284 13.1467 18.0468 13.095 18.429C13.0928 18.4338 13.0856 18.4451 13.0625 18.4756L13.0439 18.5014C12.1606 19.7292 11.3457 21.0236 10.6124 22.3632C10.9007 21.3626 11.1303 20.0962 11.1141 18.6245C11.0944 16.8594 10.688 15.2851 9.87105 13.8111C9.83876 13.7537 9.78021 13.7164 9.6982 13.7108C9.63864 13.7108 9.5813 13.7403 9.5438 13.7906C9.51934 13.8247 9.49447 13.8568 9.47081 13.8873C9.41807 13.9554 9.36874 14.02 9.32463 14.089C8.67414 15.109 8.32524 16.2337 8.09364 17.0998C7.67034 18.6881 7.47584 20.0143 7.48145 21.2738C7.48466 22.3444 7.67977 23.1673 8.09564 23.8637C8.22498 24.0805 8.3878 24.2702 8.55143 24.4611C8.63825 24.5623 8.72748 24.6664 8.80829 24.7731C8.86484 24.8473 8.89211 24.9229 8.89371 24.965C8.90434 25.2188 8.89873 25.4769 8.89331 25.7264L8.8895 25.8988C8.8889 25.9285 8.88208 25.9626 8.87186 25.9886C8.3497 27.2537 7.89071 28.5685 7.4993 29.9188C7.55685 29.459 7.58933 29.0139 7.59755 28.5795C7.64488 26.1144 6.88872 23.9129 5.34953 22.0354L5.02869 21.6446C4.9916 21.5987 4.93666 21.5726 4.8781 21.5726L4.84602 21.5754C4.77744 21.5868 4.71969 21.6343 4.69583 21.6991C4.66655 21.7771 4.63788 21.8507 4.61001 21.9219C4.55627 22.0594 4.50554 22.1898 4.46263 22.3223C4.13237 23.3568 3.97035 24.4869 3.93746 25.986L3.93686 26.0153C3.9122 27.1059 3.87831 28.6 4.32627 30.0297C4.76722 31.4372 5.54483 32.1484 5.69562 32.2761L5.71166 32.2906C6.12213 32.6569 6.38942 32.992 6.44477 33.2096C6.46702 33.2974 6.48968 33.3854 6.51615 33.4724C6.63325 33.8596 6.56006 34.2286 6.48106 34.627C6.44176 34.8281 6.40085 35.0359 6.38661 35.249C6.33007 36.1021 6.26069 36.9695 6.19351 37.8083L6.1875 37.8859C6.17025 38.0998 6.15301 38.3138 6.13596 38.5277C5.96472 36.6084 5.32907 34.8636 4.23544 33.3206C3.5657 32.3766 2.76723 31.5689 1.86168 30.9194C1.82258 30.8913 1.78148 30.8663 1.72653 30.8336C1.69986 30.8182 1.66898 30.7997 1.63149 30.7762C1.57494 30.7424 1.50235 30.7393 1.444 30.7678C1.38425 30.7969 1.34314 30.8561 1.33632 30.923C1.32409 31.0443 1.30985 31.1618 1.29481 31.2838C1.26454 31.5334 1.23586 31.7692 1.23466 32.0114C1.22122 34.5224 1.7524 36.8753 2.81395 39.004C3.10972 39.5979 3.50053 40.1116 3.97596 40.5315C4.44739 40.9456 4.95611 41.1898 5.53019 41.2777C5.54283 41.2799 5.5729 41.2981 5.57752 41.3017C5.6086 41.3641 5.64088 41.4267 5.67316 41.4894C5.78786 41.711 5.90637 41.9402 5.96532 42.17C6.01445 42.3643 6.01445 42.5766 6.01445 42.8016C6.01445 42.884 6.01445 42.967 6.01706 43.0485C6.0722 44.9935 6.14459 45.6709 6.45579 47.4088C6.2659 46.892 6.02748 46.3739 5.71969 45.8754C4.47325 43.858 2.88975 42.4886 0.878735 41.6895C0.750804 41.638 0.622471 41.6009 0.473685 41.5576L0.444008 41.5488C0.383652 41.5311 0.319686 41.5123 0.251309 41.4914C0.189549 41.4712 0.119166 41.485 0.0688358 41.5267C0.0187058 41.5682 -0.00756227 41.6318 -0.000945114 41.698C0.0138934 41.8359 0.0241199 41.9701 0.0335443 42.101C0.0541978 42.3881 0.0736483 42.6593 0.143229 42.9275C0.792111 45.4338 1.86609 47.43 3.42634 49.0304C4.09347 49.7145 4.79649 50.1068 5.57551 50.2297C5.77202 50.2604 6.01224 50.2642 6.4189 50.2389L6.536 50.2319C6.55385 50.2309 6.56949 50.2299 6.58373 50.2299C6.61581 50.2299 6.61842 50.2299 6.64067 50.2628L7.18549 51.0109C7.1925 51.0207 7.20273 51.0562 7.20975 51.0807L7.21777 51.1076C7.78323 53.0245 8.48485 54.8709 9.3122 56.6233C8.93983 56.1093 8.53178 55.6401 8.077 55.1988C5.98557 53.1695 2.4099 53.1107 2.00907 53.1107L1.95914 53.1111L1.92765 53.117C1.8294 53.1519 1.77626 53.2569 1.80654 53.3558C1.83441 53.449 1.86048 53.5433 1.89036 53.654C1.94751 53.8619 2.00686 54.0767 2.09008 54.2844C2.4863 55.2746 3.12857 56.227 4.11172 57.283C4.78727 58.0068 5.54884 58.7409 6.53921 59.2052C7.62382 59.7145 8.60316 59.8388 9.57708 59.5893C9.74271 59.5458 9.93321 59.4907 10.097 59.3844C10.2137 59.3096 10.2456 59.312 10.3603 59.3974C10.4963 59.4985 10.6408 59.5833 10.7812 59.6655C10.8588 59.7111 10.937 59.757 11.01 59.8031C11.0216 59.8129 11.0465 59.8536 11.0557 59.8687C11.9296 61.294 12.8923 62.6186 13.9318 63.8269C13.3695 63.4179 12.7922 63.1219 12.179 62.9248C10.3052 62.321 8.34108 62.3978 6.39584 63.15C6.10549 63.2625 5.78726 63.4329 5.76601 63.4449C5.72149 63.4742 5.69081 63.5215 5.68119 63.5759C5.67276 63.6292 5.6866 63.6838 5.71908 63.7255C5.77984 63.8045 5.83859 63.8839 5.89674 63.9627L5.90958 63.9799C6.04092 64.1588 6.1897 64.3611 6.35654 64.5404C7.10788 65.3459 8.03449 65.8859 8.92399 66.3495C10.1472 66.9841 11.398 67.326 12.642 67.3661C12.7006 67.3681 12.7591 67.3693 12.8175 67.3693C13.9619 67.3693 14.8552 66.9921 15.5438 66.2207C15.5522 66.2147 15.5821 66.2033 15.5985 66.2031C15.8616 66.2219 16.1116 66.2602 16.2985 66.2913C16.328 66.2965 16.3643 66.3142 16.3869 66.3346C17.5373 67.3531 18.7557 68.247 20.0284 69.0078C19.8355 68.9506 19.6368 68.9009 19.4334 68.861C18.0733 68.5995 16.6853 68.7635 15.1612 69.3691C14.1329 69.779 13.1766 70.3811 12.2376 71.2099C12.1602 71.2778 12.1494 71.3948 12.2131 71.4758C12.5454 71.8987 12.9777 72.1355 13.3569 72.3111C14.2817 72.7408 15.3256 73.016 16.5494 73.1527C16.553 73.1529 16.9462 73.187 17.4976 73.187C17.8957 73.187 18.266 73.1692 18.5979 73.1341C18.9151 73.1008 19.2315 73.0464 19.5385 72.9726C20.9486 72.6293 21.904 71.9235 22.4515 70.8277C22.4613 70.8183 22.5034 70.7938 22.5567 70.7808C22.8112 70.7176 23.0402 70.6731 23.258 70.644C23.3093 70.6358 23.3733 70.6496 23.4539 70.6821C24.4276 71.0573 25.4581 71.3699 26.5146 71.6109C26.5294 71.6145 26.5449 71.6163 26.5603 71.6163C26.6313 71.6163 26.6967 71.5772 26.7312 71.5135C26.832 71.3258 26.9549 71.1457 27.0963 70.9783C27.1406 70.9255 27.1539 70.8554 27.132 70.7904C27.1111 70.7274 27.0582 70.6797 26.9904 70.6639Z" fill="#FABD47"/>
<path d="M21.5996 40.0002L33.8338 51.8002L58.2996 28.2002" stroke="#FABD47" stroke-width="4.8" stroke-linecap="round" stroke-linejoin="round"/>
</g>
<defs>
<clipPath id="clip0_820_1294">
<rect width="80" height="80" fill="white"/>
</clipPath>
</defs>
</svg>
