<svg width="80" height="80" viewBox="0 0 80 80" fill="none" xmlns="http://www.w3.org/2000/svg">
<path d="M74.685 14.5825L75.3213 13.9462C76.7262 12.5412 77.5 10.6737 77.5 8.6875C77.5 4.58625 74.1637 1.25 70.0625 1.25C68.0762 1.25 66.2087 2.02375 64.8037 3.42875L63.695 4.5375C62.325 2.52625 60.0375 1.25 57.53 1.25C55.5712 1.25 53.7188 2.00375 52.315 3.37125L4.1275 50.355C2.37875 51.73 1.25 53.8587 1.25 56.25C1.25 60.3862 4.61375 63.75 8.75 63.75C11.14 63.75 13.2675 62.6225 14.6413 60.8763L19.5875 55.93C20.3038 57.315 21.435 58.4463 22.82 59.1625L16.6237 65.3587C14.8775 66.7325 13.75 68.86 13.75 71.25C13.75 75.3863 17.1138 78.75 21.25 78.75C23.64 78.75 25.7675 77.6225 27.1412 75.8763L76.5713 26.4462C77.9762 25.0413 78.75 23.1738 78.75 21.1875C78.75 18.3275 77.1213 15.8238 74.685 14.5825ZM28.75 59.5625C30.1 59.0825 31.2725 58.2313 32.1412 57.1263L33.75 55.5175V65.7325L28.75 70.7325V59.5625ZM60 11.7675V25.7325L55 30.7325V16.7675L60 11.7675ZM52.5 33.2325L47.5 38.2325V24.2675L52.5 19.2675V33.2325ZM40 45.7325V31.7675L45 26.7675V40.7325L40 45.7325ZM42.5 25.7325V16.4338L47.5 11.5588V20.7325L42.5 25.7325ZM40 28.2325L35 33.2325V23.7463L40 18.8713V28.2325ZM32.5 35.7325L27.5 40.7325V31.0588L32.5 26.1838V35.7325ZM30 41.7675V46.015C29.03 45.4513 27.9237 45.1025 26.7425 45.025L30 41.7675ZM32.5 48.3625V39.2675L37.5 34.2675V48.2325L33.725 52.0075C33.6375 50.6675 33.2025 49.4212 32.5 48.3625ZM36.25 53.0175L41.25 48.0175V58.2325L36.25 63.2325V53.0175ZM43.75 45.5175L48.75 40.5175V50.7325L43.75 55.7325V45.5175ZM51.25 38.0175L56.25 33.0175V43.2325L51.25 48.2325V38.0175ZM58.75 30.5175L63.75 25.5175V35.7325L58.75 40.7325V30.5175ZM66.25 23.0175L71.25 18.0175V28.2325L66.25 33.2325V23.0175ZM75 8.6875C75 10.0062 74.4863 11.2463 73.5537 12.1788L70 15.7325V3.75625C70.0212 3.75625 70.0413 3.75 70.0625 3.75C72.785 3.75 75 5.965 75 8.6875ZM66.5713 5.19625C66.8525 4.915 67.1687 4.68625 67.5 4.48375V18.2337L62.5 23.2337V9.2675L66.5713 5.19625ZM61.8937 6.33875L57.5 10.7325V3.7525C57.51 3.7525 57.52 3.75 57.53 3.75C59.3625 3.75 61.0325 4.765 61.8937 6.33875ZM54.0612 5.16125C54.3463 4.88375 54.6662 4.65875 55 4.45875V13.2325L50 18.2325V9.12125L54.0612 5.16125ZM8.75 61.25C5.9925 61.25 3.75 59.0075 3.75 56.25C3.75 53.4925 5.9925 51.25 8.75 51.25C11.5075 51.25 13.75 53.4925 13.75 56.25C13.75 59.0075 11.5075 61.25 8.75 61.25ZM16.225 55.7575C15.9812 52.0425 13.0288 49.0625 9.325 48.7787L17.5 40.8088V45H20V38.3713L25 33.4963V43.2325L21.6237 46.6087C19.8775 47.9825 18.75 50.11 18.75 52.5C18.75 52.735 18.7638 52.9675 18.785 53.1975L16.225 55.7575ZM21.25 52.5C21.25 49.7425 23.4925 47.5 26.25 47.5C29.0075 47.5 31.25 49.7425 31.25 52.5C31.25 55.2575 29.0075 57.5 26.25 57.5C23.4925 57.5 21.25 55.2575 21.25 52.5ZM26.25 60V65.675C25.0362 64.585 23.47 63.8875 21.7425 63.7738L25.5525 59.9638C25.7825 59.9863 26.015 60 26.25 60ZM21.25 76.25C18.4925 76.25 16.25 74.0075 16.25 71.25C16.25 68.4925 18.4925 66.25 21.25 66.25C24.0075 66.25 26.25 68.4925 26.25 71.25C26.25 74.0075 24.0075 76.25 21.25 76.25ZM74.8037 24.6787L73.75 25.7325V16.895C75.2588 17.7512 76.25 19.365 76.25 21.1862C76.25 22.5062 75.7363 23.7463 74.8037 24.6787Z" fill="#FABD47"/>
<path d="M20.6971 4.26855L20.8484 4.40527L21.0526 4.39746L26.4051 4.19043L27.1307 9.49316L27.158 9.69531L27.3201 9.82129L31.5535 13.0967L28.699 17.6211L28.5897 17.7939L28.6326 17.9941L29.7664 23.2236L24.6668 24.8555L24.4725 24.918L24.3768 25.0986L21.8787 29.8311L16.9197 27.8076L16.7303 27.7314L16.5418 27.8076L11.5809 29.8311L9.08478 25.0986L8.98907 24.918L8.79474 24.8555L3.69318 23.2236L4.82794 17.9941L4.87189 17.7939L4.76251 17.6211L1.90704 13.0967L6.14142 9.82129L6.30255 9.69531L6.33087 9.49316L7.05548 4.19043L12.409 4.39746L12.6131 4.40527L12.7635 4.26855L16.7303 0.673828L20.6971 4.26855ZM16.3953 1.94922L13.2469 4.80078L12.8777 5.13477L12.3797 5.11719H12.3807L8.13263 4.9541L7.6795 4.93652L7.61798 5.38574L7.04376 9.58984L6.97638 10.082L6.5838 10.3848L6.58185 10.3857L3.22443 12.9863L2.86603 13.2646L3.10822 13.6484L5.37286 17.2402L5.37384 17.2422L5.63849 17.6592L5.53302 18.1465H5.53204L4.63361 22.2939L4.5379 22.7373L4.97052 22.876L9.01642 24.1719L9.49103 24.3242L9.72443 24.7637V24.7646L11.7039 28.5176L11.9149 28.9189L12.3348 28.748L16.2684 27.1445L16.2693 27.1436L16.7303 26.9551L17.1912 27.1436L17.1922 27.1445L21.1268 28.748L21.5457 28.9189L21.7576 28.5186L23.7381 24.7646L23.9695 24.3242L24.4451 24.1719L28.491 22.876L28.9236 22.7373L28.827 22.2939L27.9285 18.1465L27.8221 17.6592L28.0877 17.2422L28.0887 17.2412L30.3553 13.6484L30.5975 13.2646L30.2381 12.9863L26.8787 10.3857L26.8777 10.3848L26.4842 10.082L26.4178 9.58984L25.8406 5.38574L25.7791 4.93652L25.326 4.9541L21.0828 5.11719L20.5818 5.13477L20.2137 4.80078L17.0662 1.94922L16.7303 1.64551L16.3953 1.94922ZM22.5731 13.4795L14.2586 19.7812L10.8065 16.333L11.3143 15.8252L14.0154 18.5215L14.3231 18.8291L14.6707 18.5654L22.1365 12.9053L22.5731 13.4795Z" fill="#FABD47" stroke="#FABD47"/>
</svg>
