<svg width="197" height="363" viewBox="0 0 197 363" fill="none" xmlns="http://www.w3.org/2000/svg">
<g clip-path="url(#clip0_1889_1728)">
<g clip-path="url(#clip1_1889_1728)">
<path d="M96.8095 296.238C96.8286 296.259 96.8505 296.277 96.8744 296.293C96.8982 296.306 96.9233 296.316 96.9494 296.324C97.907 296.34 165.469 291.725 166.142 291.585L196.54 229.412C196.523 229.328 196.499 229.247 196.467 229.167C196.366 228.998 196.261 228.832 196.151 228.67C183.404 209.711 170.651 190.756 157.893 171.806C157.874 171.785 157.852 171.768 157.827 171.756C157.812 171.734 157.775 171.731 157.698 171.691C157.393 171.707 157.025 171.727 156.665 171.755L99.8568 175.613C96.4392 175.85 93.0263 176.083 89.6182 176.31C88.4597 176.394 88.685 176.227 88.135 177.329C87.6795 178.267 87.2284 179.202 86.77 180.125C77.3428 199.394 67.9187 218.662 58.4978 237.93C58.3767 238.182 58.2644 238.438 58.1657 238.652C58.1814 238.725 58.2056 238.796 58.2378 238.863C70.922 257.727 83.6025 276.596 96.279 295.468C96.4413 295.728 96.6247 295.977 96.8095 296.238ZM173.002 272.332C171.337 275.766 169.664 279.193 167.981 282.612L165.023 288.654C164.954 288.776 164.893 288.903 164.839 289.033C164.791 289.18 164.696 289.306 164.568 289.392C164.44 289.478 164.287 289.519 164.133 289.508C162.817 289.584 161.509 289.694 160.189 289.773L100.361 293.835C100.027 293.895 99.6859 293.897 99.3517 293.841C99.3586 293.738 99.34 293.65 99.3739 293.583C102.238 287.711 105.104 281.838 108.015 275.891C129.798 274.416 151.55 272.941 173.27 271.464C173.279 271.775 173.185 272.081 173.002 272.332ZM101.589 264.201C99.9323 261.738 98.2723 259.269 96.6089 256.795C96.4394 256.543 96.2792 256.281 96.095 255.988L104.674 238.452C104.72 238.37 104.774 238.293 104.834 238.221C105.059 238.199 105.113 238.349 105.189 238.453C105.299 238.616 105.408 238.779 105.518 238.942C112.766 249.722 120.014 260.502 127.263 271.283L127.791 272.068C127.638 272.17 127.585 272.231 127.549 272.23C121.037 272.682 114.533 273.13 108.037 273.575C107.677 273.397 107.547 273.072 107.362 272.798C105.432 269.922 103.516 267.063 101.589 264.201ZM168.625 262.156L172.665 268.165C172.836 268.419 173.005 268.671 173.152 268.917C172.988 269.213 172.735 269.143 172.527 269.157C170.767 269.288 169.007 269.409 167.246 269.519C155.313 270.334 143.378 271.145 131.443 271.954C131.165 271.974 130.885 271.985 130.584 272.001C130.435 271.817 130.288 271.654 130.161 271.471C126.703 266.328 123.244 261.183 119.783 256.037C119.665 255.861 119.581 255.661 119.471 255.454C119.557 255.404 119.651 255.365 119.748 255.341C133.836 254.385 147.903 253.431 161.947 252.479C162.235 252.657 162.465 252.914 162.61 253.22C164.62 256.197 166.625 259.176 168.625 262.156ZM117.277 252.314C114.632 248.38 111.986 244.445 109.341 240.51C108.419 239.139 107.493 237.762 106.563 236.38C106.392 236.126 106.236 235.865 106.091 235.64C106.298 234.971 114.758 217.577 115.411 216.459C115.679 216.28 115.996 216.325 116.296 216.306C121.397 215.958 126.489 215.613 131.574 215.273C133.03 215.176 134.485 215.078 135.939 214.981C136.216 214.961 136.495 214.954 136.8 214.942C137.393 215.664 148.27 231.889 148.561 232.467C148.347 233.129 139.608 251.009 139.16 251.686L117.881 253.123C117.672 252.854 117.465 252.593 117.279 252.316L117.277 252.314ZM193.54 230.331L175.704 266.822C175.572 267.094 175.43 267.353 175.239 267.716C174.678 267.079 164.394 251.784 164.054 251.081C170.192 238.536 176.344 225.958 182.509 213.347C182.587 213.208 182.673 213.074 182.765 212.944C182.876 213.033 182.981 213.129 183.079 213.232C183.202 213.386 183.298 213.558 183.408 213.721C186.743 218.682 190.079 223.643 193.416 228.606C194.03 229.534 194.028 229.343 193.542 230.333L193.54 230.331ZM157.574 175.36C157.793 175.687 157.971 175.899 158.124 176.127L180.865 209.948C181.274 210.557 181.277 210.561 180.944 211.239C178.751 215.725 176.559 220.209 174.366 224.69L162.358 249.245C162.227 249.519 162.087 249.781 161.944 250.038C161.165 250.221 146.597 251.272 142.465 251.456C142.332 251.46 142.198 251.439 142.034 251.43C142.045 251.138 142.139 250.855 142.307 250.615C143.518 248.117 144.736 245.623 145.96 243.133C147.143 240.713 148.325 238.295 149.509 235.876L160.838 212.763C160.985 212.462 161.121 212.156 161.277 211.821L148.754 193.195L157.295 175.706C157.38 175.585 157.474 175.47 157.575 175.363L157.574 175.36ZM126.942 195.957C126.962 195.923 126.984 195.89 127.01 195.861C127.028 195.841 127.05 195.826 127.075 195.817C127.241 195.796 127.408 195.772 127.575 195.762C133.951 195.325 140.327 194.893 146.595 194.473C146.724 194.515 146.75 194.52 146.774 194.532C146.798 194.548 146.82 194.568 146.838 194.59C146.899 194.681 146.982 194.762 147.043 194.853C150.833 200.489 154.622 206.125 158.412 211.761C158.453 211.832 158.488 211.906 158.516 211.982C158.335 212.577 150.371 228.923 149.836 229.813C149.659 229.869 149.589 229.733 149.51 229.625C149.386 229.44 149.259 229.251 149.135 229.066C141.901 218.307 134.667 207.549 127.435 196.793C127.233 196.543 127.068 196.264 126.948 195.965L126.942 195.957ZM81.4346 196.241L90.0703 178.569L155.077 174.173C155.15 174.168 155.225 174.219 155.314 174.248C155.319 174.334 155.309 174.42 155.286 174.503C152.425 180.369 149.565 186.242 146.731 192.023L146.577 192.127C146.553 192.141 146.526 192.15 146.498 192.155C139.513 192.642 132.524 193.125 125.53 193.604C110.879 194.593 96.229 195.58 81.579 196.564C81.5518 196.561 81.5253 196.553 81.5004 196.541C81.4742 196.531 81.4531 196.513 81.4138 196.492C81.4221 196.401 81.4029 196.307 81.4346 196.241ZM81.5479 199.006C81.8352 198.888 82.146 198.839 82.4556 198.863C85.8403 198.627 89.2248 198.394 92.6092 198.166L123.149 196.095C124.29 196.017 124.092 195.929 124.706 196.842C128.056 201.824 131.406 206.807 134.756 211.789C134.961 212.015 135.113 212.283 135.202 212.575C134.945 212.798 134.65 212.725 134.373 212.751C130.351 213.028 126.326 213.302 122.298 213.571C112.735 214.218 103.172 214.861 93.6075 215.501C92.4671 215.579 92.6624 215.71 91.9805 214.701C88.6625 209.766 85.3436 204.83 82.0237 199.892C81.8053 199.635 81.6441 199.335 81.5509 199.011L81.5479 199.006ZM92.7793 217.917L112.322 216.592C112.45 216.601 112.578 216.62 112.703 216.652C112.46 217.465 112.026 218.152 111.678 218.884C111.331 219.616 110.969 220.346 110.61 221.074L109.54 223.267L108.469 225.458L107.397 227.647L106.326 229.838C105.969 230.571 105.616 231.3 105.255 232.029C104.893 232.759 104.519 233.471 104.165 234.211C103.81 234.951 103.424 235.719 103.053 236.474C102.683 237.228 102.342 237.937 101.997 238.658L100.923 240.851L99.851 243.04L98.7822 245.229L97.7112 247.42L96.6402 249.612L95.5692 251.803C95.2132 252.531 94.8513 253.261 94.4967 253.992C94.1421 254.722 93.7919 255.45 93.4237 256.213L105.892 274.756C105.684 275.423 97.6583 291.867 97.2171 292.558C97.0401 292.614 96.9633 292.486 96.8873 292.373C96.7616 292.186 96.6373 292.001 96.5102 291.812C89.0119 280.66 81.5131 269.507 74.0138 258.354C73.3706 257.397 73.3432 257.634 73.8694 256.557L92.377 218.708C92.4995 218.458 92.6308 218.212 92.7822 217.921L92.7793 217.917ZM60.7671 238.545C60.7858 238.483 60.8089 238.424 60.8361 238.366L79.3099 200.584C79.35 200.519 79.3978 200.459 79.4523 200.406C79.6556 200.37 79.7034 200.531 79.7779 200.632C79.9145 200.812 80.0293 201.006 80.1536 201.191L90.6936 216.866C84.4992 229.531 78.3131 242.176 72.1355 254.8C72.0831 254.886 72.0212 254.965 71.9511 255.037C71.8616 255.003 71.794 255.001 71.767 254.965C71.1792 254.218 61.0796 239.136 60.77 238.549L60.7671 238.545Z" fill="#D7D8DD"/>
</g>
<g clip-path="url(#clip2_1889_1728)">
<path d="M88.4255 178.135C88.4446 178.156 88.4664 178.174 88.4904 178.189C88.5142 178.202 88.5393 178.213 88.5653 178.221C89.523 178.237 157.085 173.622 157.758 173.482L188.156 111.309C188.139 111.225 188.115 111.143 188.083 111.064C187.982 110.894 187.877 110.728 187.767 110.566C175.02 91.607 162.267 72.6526 149.509 53.7029C149.49 53.6819 149.468 53.6647 149.443 53.6523C149.428 53.6305 149.391 53.6271 149.314 53.5874C149.009 53.6031 148.641 53.6235 148.281 53.6511L91.4728 57.5092C88.0551 57.747 84.6423 57.9794 81.2342 58.2064C80.0757 58.2909 80.301 58.1236 79.751 59.2258C79.2955 60.1634 78.8444 61.098 78.386 62.0218C68.9587 81.2901 59.5347 100.558 50.1138 119.827C49.9927 120.079 49.8804 120.334 49.7817 120.549C49.7974 120.621 49.8215 120.692 49.8537 120.759C62.538 139.624 75.2184 158.492 87.895 177.365C88.0573 177.625 88.2407 177.874 88.4255 178.135ZM164.618 154.229C162.953 157.663 161.28 161.089 159.597 164.508L156.639 170.55C156.57 170.673 156.509 170.799 156.455 170.929C156.407 171.076 156.312 171.202 156.184 171.289C156.056 171.375 155.903 171.415 155.749 171.404C154.433 171.481 153.125 171.591 151.805 171.67L91.9768 175.731C91.6433 175.791 91.3019 175.793 90.9677 175.737C90.9745 175.635 90.956 175.546 90.9899 175.479C93.854 169.608 96.7203 163.735 99.6314 157.787C121.414 156.313 143.166 154.837 164.886 153.36C164.895 153.672 164.801 153.977 164.618 154.229ZM93.2048 146.098C91.5482 143.634 89.8883 141.165 88.2249 138.691C88.0554 138.439 87.8952 138.178 87.711 137.885L96.2899 120.349C96.3362 120.267 96.3898 120.19 96.4502 120.118C96.6754 120.096 96.729 120.246 96.805 120.349C96.9146 120.513 97.0242 120.676 97.1339 120.839C104.382 131.618 111.63 142.398 118.879 153.179L119.407 153.964C119.254 154.066 119.201 154.128 119.165 154.126C112.653 154.578 106.149 155.027 99.6528 155.472C99.2932 155.294 99.1626 154.968 98.9784 154.694C97.0482 151.819 95.132 148.959 93.2048 146.098ZM160.241 144.053L164.281 150.061C164.452 150.316 164.621 150.568 164.768 150.814C164.604 151.11 164.351 151.04 164.143 151.054C162.383 151.185 160.623 151.305 158.862 151.416C146.929 152.23 134.994 153.042 123.059 153.851C122.781 153.87 122.501 153.881 122.2 153.898C122.051 153.714 121.904 153.551 121.777 153.368C118.319 148.224 114.86 143.079 111.399 137.933C111.281 137.757 111.197 137.558 111.087 137.351C111.173 137.3 111.267 137.262 111.364 137.237C125.452 136.281 139.519 135.327 153.563 134.375C153.851 134.553 154.081 134.811 154.226 135.117C156.236 138.094 158.241 141.073 160.241 144.053ZM108.893 134.211C106.248 130.276 103.602 126.341 100.957 122.407C100.035 121.036 99.109 119.659 98.1794 118.276C98.0084 118.022 97.8519 117.761 97.7072 117.536C97.9138 116.867 106.374 99.4738 107.027 98.3559C107.295 98.1762 107.612 98.2214 107.912 98.2028C113.013 97.8543 118.105 97.5099 123.19 97.1697C124.646 97.0724 126.101 96.9749 127.555 96.8771C127.832 96.8579 128.111 96.8502 128.416 96.8381C129.009 97.5602 139.886 113.785 140.177 114.363C139.962 115.025 131.224 132.906 130.776 133.582L109.497 135.02C109.288 134.75 109.08 134.489 108.895 134.213L108.893 134.211ZM185.156 112.227L167.32 148.718C167.188 148.991 167.046 149.25 166.855 149.612C166.294 148.976 156.01 133.681 155.67 132.978C161.808 120.433 167.96 107.855 174.125 95.2433C174.203 95.1047 174.289 94.9702 174.381 94.8405C174.492 94.9294 174.597 95.0256 174.695 95.1284C174.818 95.2827 174.914 95.4545 175.024 95.6175C178.359 100.578 181.695 105.54 185.032 110.502C185.646 111.43 185.644 111.239 185.158 112.229L185.156 112.227ZM149.19 57.2569C149.409 57.583 149.587 57.7952 149.74 58.0234L172.481 91.8445C172.89 92.4531 172.893 92.4575 172.56 93.136C170.367 97.6216 168.175 102.105 165.982 106.587L153.974 131.141C153.843 131.416 153.703 131.677 153.56 131.934C152.781 132.117 138.213 133.169 134.081 133.352C133.948 133.356 133.814 133.336 133.65 133.326C133.661 133.034 133.755 132.751 133.923 132.511C135.134 130.013 136.352 127.519 137.576 125.03C138.758 122.61 139.941 120.191 141.125 117.773L152.454 94.6596C152.601 94.3582 152.737 94.0526 152.893 93.717L140.37 75.0913L148.911 57.6024C148.996 57.4814 149.09 57.3666 149.191 57.2591L149.19 57.2569ZM118.558 77.8532C118.578 77.8191 118.6 77.7869 118.626 77.757C118.644 77.7374 118.666 77.7223 118.691 77.7132C118.857 77.6929 119.024 77.669 119.191 77.6581C125.567 77.2218 131.943 76.7891 138.211 76.3691C138.34 76.4115 138.366 76.4164 138.39 76.4287C138.414 76.4448 138.436 76.4643 138.454 76.4866C138.515 76.5779 138.598 76.6582 138.659 76.7495C142.449 82.3856 146.238 88.0217 150.028 93.6578C150.069 93.7282 150.104 93.802 150.132 93.8783C149.951 94.4733 141.987 110.82 141.452 111.71C141.275 111.766 141.205 111.63 141.126 111.522C141.002 111.337 140.875 111.148 140.751 110.963C133.516 100.204 126.283 89.446 119.051 78.6897C118.849 78.4393 118.684 78.1603 118.564 77.8619L118.558 77.8532ZM73.0506 78.138L81.6863 60.4656L146.693 56.0694C146.766 56.0648 146.841 56.1153 146.93 56.1441C146.935 56.23 146.925 56.3162 146.902 56.3992C144.041 62.2657 141.181 68.138 138.347 73.9194L138.193 74.0232C138.169 74.0374 138.142 74.0469 138.114 74.0511C131.129 74.5388 124.14 75.0219 117.146 75.5004C102.495 76.4896 87.845 77.4764 73.195 78.4607C73.1677 78.4572 73.1412 78.4495 73.1164 78.4378C73.0902 78.427 73.0691 78.4096 73.0298 78.3887C73.0381 78.2979 73.0188 78.2035 73.0506 78.138ZM73.1639 80.9028C73.4511 80.7849 73.762 80.7359 74.0715 80.7597C77.4563 80.5231 80.8408 80.2908 84.2251 80.0629L114.765 77.9916C115.906 77.913 115.708 77.8252 116.322 78.7382C119.672 83.7207 123.022 88.7032 126.372 93.6857C126.577 93.9114 126.729 94.1798 126.818 94.4715C126.561 94.6949 126.266 94.6219 125.989 94.647C121.967 94.9249 117.942 95.1985 113.914 95.4677C104.351 96.1147 94.7876 96.7579 85.2235 97.3972C84.0831 97.4758 84.2783 97.6065 83.5965 96.5971C80.2785 91.6624 76.9596 86.7263 73.6397 81.7887C73.4213 81.5317 73.2601 81.2312 73.1668 80.9071L73.1639 80.9028ZM84.3953 99.8133L103.938 98.4887C104.066 98.497 104.194 98.5169 104.319 98.5483C104.076 99.3615 103.642 100.048 103.294 100.781C102.947 101.513 102.585 102.242 102.225 102.97L101.156 105.164L100.085 107.355L99.0125 109.544L97.9415 111.735C97.5847 112.467 97.2323 113.196 96.8705 113.926C96.5086 114.655 96.1351 115.367 95.7805 116.108C95.426 116.848 95.0396 117.616 94.6691 118.37C94.2987 119.124 93.9578 119.833 93.6126 120.555L92.5395 122.747L91.467 124.936L90.3982 127.126L89.3272 129.317L88.2562 131.508L87.1852 133.699C86.8291 134.428 86.4673 135.157 86.1127 135.888C85.7581 136.619 85.4079 137.347 85.0396 138.109L97.5076 156.652C97.2995 157.319 89.2743 173.763 88.8331 174.455C88.6561 174.511 88.5793 174.382 88.5033 174.269C88.3776 174.082 88.2533 173.898 88.1262 173.708C80.6278 162.556 73.129 151.404 65.6298 140.25C64.9866 139.294 64.9592 139.53 65.4853 138.454L83.993 100.605C84.1155 100.355 84.2468 100.109 84.3982 99.8176L84.3953 99.8133ZM52.383 120.441C52.4018 120.38 52.4248 120.32 52.4521 120.262L70.9258 82.4802C70.9659 82.4154 71.0138 82.3557 71.0683 82.3024C71.2716 82.2667 71.3194 82.4271 71.3939 82.5285C71.5305 82.7081 71.6453 82.9024 71.7696 83.0872L82.3096 98.7629C76.1151 111.428 69.9291 124.072 63.7514 136.696C63.699 136.782 63.6372 136.862 63.5671 136.934C63.4776 136.899 63.41 136.897 63.383 136.862C62.7952 136.114 52.6956 121.033 52.3859 120.445L52.383 120.441Z" fill="#D7D8DD"/>
</g>
<g clip-path="url(#clip3_1889_1728)">
<path d="M-9.3991 243.91C-9.38 243.931 -9.35817 243.949 -9.33422 243.964C-9.31044 243.978 -9.28532 243.988 -9.25927 243.996C-8.30162 244.012 59.2604 239.397 59.9333 239.257L90.3316 177.084C90.3147 177 90.2903 176.918 90.2587 176.839C90.1573 176.67 90.052 176.504 89.9428 176.341C77.1952 157.382 64.4423 138.428 51.684 119.478C51.6657 119.457 51.6434 119.44 51.6185 119.428C51.6038 119.406 51.5668 119.402 51.4896 119.363C51.1845 119.379 50.8162 119.399 50.456 119.426L-6.35179 123.285C-9.76948 123.522 -13.1824 123.755 -16.5904 123.982C-17.7489 124.066 -17.5236 123.899 -18.0736 125.001C-18.5291 125.939 -18.9802 126.873 -19.4386 127.797C-28.8659 147.066 -38.2899 166.334 -47.7108 185.602C-47.8319 185.854 -47.9442 186.109 -48.0429 186.324C-48.0272 186.397 -48.0031 186.467 -47.9709 186.535C-35.2866 205.399 -22.6062 224.268 -9.92961 243.14C-9.76729 243.4 -9.58395 243.649 -9.3991 243.91ZM66.793 220.004C65.1287 223.438 63.4552 226.865 61.7724 230.284L58.8145 236.326C58.7454 236.448 58.684 236.575 58.6307 236.705C58.5828 236.851 58.4873 236.978 58.3592 237.064C58.2312 237.15 58.0781 237.191 57.9242 237.18C56.6088 237.256 55.3 237.366 53.9801 237.445L-5.84778 241.507C-6.1813 241.567 -6.52271 241.569 -6.85693 241.513C-6.85007 241.41 -6.86859 241.322 -6.8347 241.255C-3.97057 235.383 -1.10427 229.51 1.80678 223.563C23.5895 222.088 45.341 220.612 67.0613 219.136C67.0704 219.447 66.9761 219.752 66.793 220.004ZM-4.61981 211.873C-6.27636 209.41 -7.93632 206.941 -9.59969 204.467C-9.76924 204.215 -9.92939 203.953 -10.1136 203.66L-1.53474 186.124C-1.48844 186.042 -1.43476 185.965 -1.37436 185.893C-1.14921 185.871 -1.09559 186.021 -1.01962 186.125C-0.90999 186.288 -0.800368 186.451 -0.690741 186.614C6.55714 197.393 13.8055 208.174 21.0544 218.955L21.582 219.739C21.4299 219.842 21.3763 219.903 21.3407 219.902C14.8283 220.354 8.32413 220.802 1.82817 221.247C1.46856 221.069 1.33794 220.743 1.15377 220.469C-0.776364 217.594 -2.69263 214.735 -4.61981 211.873ZM62.4161 209.828L66.4561 215.837C66.6272 216.091 66.7967 216.343 66.943 216.589C66.7792 216.885 66.5268 216.815 66.3184 216.829C64.5587 216.96 62.7985 217.081 61.0378 217.191C49.1039 218.006 37.1693 218.817 25.2339 219.626C24.9565 219.645 24.6768 219.657 24.3753 219.673C24.2264 219.489 24.079 219.326 23.9526 219.143C20.4943 214 17.035 208.855 13.5748 203.709C13.4564 203.532 13.3728 203.333 13.2623 203.126C13.3487 203.075 13.442 203.037 13.5393 203.013C27.6276 202.057 41.6941 201.103 55.7388 200.151C56.0266 200.329 56.2568 200.586 56.4014 200.892C58.4116 203.869 60.4165 206.848 62.4161 209.828ZM11.0688 199.986C8.42319 196.051 5.77758 192.117 3.13197 188.182C2.21015 186.811 1.28444 185.434 0.354821 184.052C0.183803 183.797 0.0272927 183.536 -0.117447 183.312C0.0891572 182.643 8.54946 165.249 9.20257 164.131C9.46996 163.952 9.78764 163.997 10.0876 163.978C15.188 163.63 20.2807 163.285 25.3657 162.945C26.8218 162.848 28.2766 162.75 29.7303 162.653C30.0078 162.633 30.2867 162.626 30.5911 162.614C31.1839 163.336 42.0618 179.561 42.3525 180.139C42.1379 180.801 33.399 198.681 32.9513 199.358L11.6728 200.795C11.4632 200.526 11.2559 200.264 11.0702 199.988L11.0688 199.986ZM87.3317 178.002L69.4958 214.494C69.3632 214.766 69.2218 215.025 69.03 215.388C68.4695 214.751 58.1852 199.456 57.8453 198.753C63.9836 186.208 70.1353 173.63 76.3004 161.019C76.3788 160.88 76.4644 160.746 76.5567 160.616C76.6676 160.705 76.7723 160.801 76.8703 160.904C76.993 161.058 77.0895 161.23 77.1992 161.393C80.5347 166.354 83.8707 171.315 87.2071 176.277C87.8218 177.206 87.8196 177.015 87.3331 178.005L87.3317 178.002ZM51.3653 123.032C51.5845 123.358 51.7619 123.571 51.9154 123.799L74.6559 157.62C75.0652 158.229 75.0681 158.233 74.7351 158.911C72.5427 163.397 70.35 167.881 68.157 172.362L56.1496 196.917C56.0185 197.191 55.8785 197.453 55.7357 197.71C54.9561 197.893 40.388 198.944 36.2561 199.128C36.1232 199.132 35.9894 199.111 35.8252 199.102C35.836 198.81 35.9307 198.527 36.0981 198.287C37.3098 195.789 38.5275 193.295 39.7514 190.805C40.9339 188.385 42.1168 185.966 43.3003 183.548L54.6289 160.435C54.7767 160.134 54.9121 159.828 55.0684 159.492L42.5449 140.867L51.0862 123.378C51.1713 123.257 51.2651 123.142 51.3668 123.035L51.3653 123.032ZM20.7333 143.629C20.753 143.595 20.7757 143.562 20.8013 143.532C20.8192 143.513 20.8415 143.498 20.8665 143.489C21.0328 143.468 21.1998 143.444 21.3661 143.434C27.7427 142.997 34.1186 142.564 40.3863 142.144C40.5158 142.187 40.5412 142.192 40.5653 142.204C40.5893 142.22 40.6109 142.24 40.6294 142.262C40.6908 142.353 40.7732 142.434 40.8346 142.525C44.6242 148.161 48.4138 153.797 52.2034 159.433C52.2443 159.504 52.2791 159.577 52.3075 159.654C52.1267 160.249 44.1621 176.595 43.6273 177.485C43.4502 177.541 43.3807 177.405 43.3018 177.297C43.1775 177.112 43.0504 176.923 42.9261 176.738C35.6919 165.979 28.4586 155.221 21.2263 144.465C21.024 144.215 20.8598 143.936 20.7392 143.637L20.7333 143.629ZM-24.774 143.913L-16.1383 126.241L48.8686 121.845C48.9412 121.84 49.0162 121.891 49.105 121.919C49.1099 122.005 49.1007 122.092 49.0777 122.175C46.2164 128.041 43.3559 133.913 40.5227 139.695L40.3683 139.799C40.344 139.813 40.3172 139.822 40.2893 139.826C33.3043 140.314 26.3151 140.797 19.3218 141.276C4.67086 142.265 -9.97963 143.252 -24.6296 144.236C-24.6569 144.233 -24.6834 144.225 -24.7082 144.213C-24.7344 144.202 -24.7555 144.185 -24.7949 144.164C-24.7865 144.073 -24.8058 143.979 -24.774 143.913ZM-24.6607 146.678C-24.3735 146.56 -24.0626 146.511 -23.7531 146.535C-20.3683 146.298 -16.9838 146.066 -13.5995 145.838L16.9406 143.767C18.081 143.688 17.883 143.601 18.4969 144.514C21.847 149.496 25.1971 154.479 28.5473 159.461C28.7524 159.687 28.9048 159.955 28.9936 160.247C28.7365 160.47 28.4413 160.397 28.1645 160.422C24.1425 160.7 20.1176 160.974 16.0897 161.243C6.52659 161.89 -3.03703 162.533 -12.6012 163.173C-13.7415 163.251 -13.5463 163.382 -14.2281 162.372C-17.5461 157.438 -20.865 152.502 -24.185 147.564C-24.4033 147.307 -24.5645 147.007 -24.6578 146.683L-24.6607 146.678ZM-13.4293 165.589L6.11311 164.264C6.24164 164.272 6.36914 164.292 6.49405 164.324C6.25169 165.137 5.81702 165.824 5.46971 166.556C5.1224 167.288 4.76056 168.018 4.40088 168.746L3.33134 170.939L2.26033 173.13L1.18788 175.319L0.116871 177.51C-0.239882 178.242 -0.592289 178.972 -0.954133 179.701C-1.31598 180.431 -1.68953 181.143 -2.04407 181.883C-2.39861 182.623 -2.785 183.391 -3.15547 184.145C-3.52594 184.9 -3.8668 185.609 -4.21197 186.33L-5.28514 188.523L-6.35761 190.712L-7.42644 192.901L-8.49744 195.092L-9.56844 197.283L-10.6394 199.475C-10.9955 200.203 -11.3573 200.933 -11.7119 201.664C-12.0665 202.394 -12.4167 203.122 -12.785 203.884L-0.317013 222.428C-0.52508 223.095 -8.55031 239.539 -8.9915 240.23C-9.16855 240.286 -9.24533 240.158 -9.32134 240.045C-9.44704 239.858 -9.57128 239.673 -9.69845 239.484C-17.1968 228.332 -24.6956 217.179 -32.1949 206.026C-32.838 205.069 -32.8654 205.306 -32.3393 204.229L-13.8316 166.38C-13.7091 166.13 -13.5778 165.884 -13.4264 165.593L-13.4293 165.589ZM-45.4416 186.217C-45.4228 186.155 -45.3998 186.095 -45.3726 186.038L-26.8988 148.256C-26.8587 148.191 -26.8109 148.131 -26.7563 148.078C-26.5531 148.042 -26.5052 148.202 -26.4307 148.304C-26.2941 148.484 -26.1793 148.678 -26.055 148.863L-15.515 164.538C-21.7095 177.203 -27.8955 189.848 -34.0732 202.472C-34.1256 202.558 -34.1874 202.637 -34.2575 202.709C-34.347 202.675 -34.4146 202.673 -34.4416 202.637C-35.0294 201.89 -45.129 186.808 -45.4387 186.221L-45.4416 186.217Z" fill="#D7D8DD"/>
</g>
<g clip-path="url(#clip4_1889_1728)">
<path d="M-2.10513 361.799C-2.08602 361.82 -2.0642 361.838 -2.04025 361.853C-2.01647 361.866 -1.99134 361.877 -1.96529 361.885C-1.00764 361.901 66.5543 357.286 67.2273 357.146L97.6255 294.973C97.6087 294.889 97.5843 294.807 97.5526 294.728C97.4512 294.558 97.346 294.392 97.2368 294.23C84.4892 275.271 71.7363 256.317 58.978 237.367C58.9596 237.346 58.9374 237.329 58.9124 237.316C58.8978 237.295 58.8607 237.291 58.7836 237.251C58.4785 237.267 58.1102 237.288 57.75 237.315L0.942189 241.173C-2.4755 241.411 -5.88838 241.643 -9.29642 241.87C-10.4549 241.955 -10.2296 241.788 -10.7796 242.89C-11.2351 243.827 -11.6862 244.762 -12.1447 245.686C-21.5719 264.954 -30.9959 284.222 -40.4168 303.491C-40.5379 303.743 -40.6502 303.998 -40.7489 304.213C-40.7333 304.286 -40.7091 304.356 -40.6769 304.423C-27.9926 323.288 -15.3122 342.156 -2.63563 361.029C-2.47331 361.289 -2.28997 361.538 -2.10513 361.799ZM74.087 337.893C72.4227 341.327 70.7491 344.753 69.0664 348.172L66.1085 354.214C66.0394 354.337 65.978 354.463 65.9247 354.594C65.8768 354.74 65.7812 354.867 65.6532 354.953C65.5252 355.039 65.3721 355.08 65.2182 355.069C63.9027 355.145 62.5939 355.255 61.2741 355.334L1.4462 359.395C1.11268 359.455 0.771271 359.457 0.437045 359.401C0.443909 359.299 0.425389 359.21 0.459274 359.143C3.3234 353.272 6.18971 347.399 9.10076 341.451C30.8835 339.977 52.635 338.501 74.3553 337.024C74.3644 337.336 74.27 337.641 74.087 337.893ZM2.67416 329.762C1.01762 327.298 -0.642344 324.829 -2.30571 322.356C-2.47527 322.103 -2.63542 321.842 -2.81965 321.549L5.75924 304.013C5.80554 303.931 5.85922 303.854 5.91962 303.782C6.14476 303.76 6.19839 303.91 6.27436 304.014C6.38399 304.177 6.49361 304.34 6.60324 304.503C13.8511 315.282 21.0995 326.062 28.3483 336.843L28.876 337.628C28.7238 337.73 28.6703 337.792 28.6347 337.79C22.1223 338.242 15.6181 338.691 9.12215 339.136C8.76253 338.958 8.63192 338.632 8.44775 338.358C6.51761 335.483 4.60134 332.623 2.67416 329.762ZM69.7101 327.717L73.7501 333.725C73.9211 333.98 74.0907 334.232 74.237 334.478C74.0732 334.774 73.8208 334.704 73.6124 334.718C71.8527 334.849 70.0925 334.969 68.3318 335.08C56.3979 335.894 44.4633 336.706 32.5279 337.515C32.2504 337.534 31.9708 337.545 31.6693 337.562C31.5204 337.378 31.373 337.215 31.2465 337.032C27.7883 331.888 24.329 326.743 20.8688 321.597C20.7504 321.421 20.6668 321.222 20.5562 321.015C20.6427 320.964 20.736 320.926 20.8333 320.901C34.9216 319.945 48.9881 318.991 63.0328 318.039C63.3206 318.217 63.5507 318.475 63.6954 318.781C65.7056 321.758 67.7105 324.737 69.7101 327.717ZM18.3628 317.875C15.7172 313.94 13.0716 310.005 10.4259 306.071C9.50413 304.7 8.57841 303.323 7.6488 301.94C7.47778 301.686 7.32127 301.425 7.17653 301.2C7.38313 300.531 15.8434 283.138 16.4965 282.02C16.7639 281.84 17.0816 281.885 17.3816 281.867C22.482 281.518 27.5747 281.174 32.6596 280.834C34.1157 280.736 35.5706 280.639 37.0243 280.541C37.3018 280.522 37.5807 280.514 37.8851 280.502C38.4779 281.224 49.3558 297.449 49.6465 298.027C49.4318 298.689 40.693 316.57 40.2452 317.247L18.9668 318.684C18.7572 318.415 18.5499 318.153 18.3642 317.877L18.3628 317.875ZM94.6256 295.891L76.7898 332.382C76.6571 332.655 76.5158 332.914 76.3239 333.276C75.7634 332.64 65.4792 317.345 65.1393 316.642C71.2776 304.097 77.4293 291.519 83.5944 278.907C83.6728 278.769 83.7584 278.634 83.8507 278.505C83.9615 278.593 84.0663 278.69 84.1643 278.792C84.2869 278.947 84.3835 279.119 84.4931 279.282C87.8286 284.242 91.1646 289.204 94.5011 294.166C95.1158 295.094 95.1136 294.903 94.6271 295.893L94.6256 295.891ZM58.6593 240.921C58.8785 241.247 59.0559 241.459 59.2094 241.688L81.9499 275.509C82.3592 276.117 82.3621 276.122 82.0291 276.8C79.8366 281.286 77.6439 285.769 75.451 290.251L63.4436 314.805C63.3124 315.08 63.1725 315.341 63.0297 315.598C62.2501 315.782 47.682 316.833 43.5501 317.016C43.4172 317.02 43.2834 317 43.1192 316.99C43.13 316.698 43.2247 316.415 43.392 316.176C44.6037 313.677 45.8215 311.183 47.0454 308.694C48.2278 306.274 49.4108 303.855 50.5943 301.437L61.9229 278.324C62.0707 278.022 62.2061 277.717 62.3624 277.381L49.8389 258.755L58.3802 241.266C58.4653 241.145 58.5591 241.031 58.6607 240.923L58.6593 240.921ZM28.0273 261.517C28.047 261.483 28.0697 261.451 28.0952 261.421C28.1131 261.401 28.1355 261.386 28.1605 261.377C28.3268 261.357 28.4938 261.333 28.6601 261.322C35.0367 260.886 41.4126 260.453 47.6803 260.033C47.8098 260.076 47.8352 260.08 47.8592 260.093C47.8833 260.109 47.9049 260.128 47.9234 260.151C47.9848 260.242 48.0672 260.322 48.1286 260.414C51.9182 266.05 55.7078 271.686 59.4974 277.322C59.5382 277.392 59.573 277.466 59.6014 277.542C59.4207 278.137 51.4561 294.484 50.9213 295.374C50.7442 295.43 50.6747 295.294 50.5958 295.186C50.4715 295.001 50.3444 294.812 50.2201 294.627C42.9859 283.868 35.7526 273.11 28.5203 262.354C28.318 262.103 28.1538 261.824 28.0332 261.526L28.0273 261.517ZM-17.4801 261.802L-8.84432 244.13L56.1625 239.733C56.2352 239.729 56.3102 239.779 56.399 239.808C56.4039 239.894 56.3947 239.98 56.3716 240.063C53.5104 245.93 50.6499 251.802 47.8167 257.583L47.6623 257.687C47.638 257.702 47.6111 257.711 47.5832 257.715C40.5982 258.203 33.6091 258.686 26.6158 259.164C11.9648 260.154 -2.68565 261.14 -17.3357 262.125C-17.3629 262.121 -17.3894 262.114 -17.4142 262.102C-17.4404 262.091 -17.4616 262.074 -17.5009 262.053C-17.4925 261.962 -17.5118 261.868 -17.4801 261.802ZM-17.3667 264.567C-17.0795 264.449 -16.7687 264.4 -16.4591 264.424C-13.0743 264.187 -9.68982 263.955 -6.3055 263.727L24.2346 261.656C25.3749 261.577 25.177 261.489 25.7909 262.402C29.141 267.385 32.4911 272.367 35.8412 277.35C36.0464 277.575 36.1988 277.844 36.2875 278.136C36.0305 278.359 35.7352 278.286 35.4585 278.311C31.4365 278.589 27.4116 278.863 23.3837 279.132C13.8206 279.779 4.25694 280.422 -5.30718 281.061C-6.44754 281.14 -6.25231 281.271 -6.93416 280.261C-10.2521 275.326 -13.5711 270.39 -16.891 265.453C-17.1094 265.196 -17.2705 264.895 -17.3638 264.571L-17.3667 264.567ZM-6.13535 283.477L13.4071 282.153C13.5356 282.161 13.6631 282.181 13.788 282.212C13.5457 283.026 13.111 283.712 12.7637 284.445C12.4164 285.177 12.0545 285.906 11.6949 286.634L10.6253 288.828L9.55431 291.019L8.48185 293.208L7.41085 295.399C7.05409 296.131 6.70169 296.86 6.33984 297.59C5.97799 298.319 5.60445 299.031 5.24991 299.772C4.89537 300.512 4.50898 301.28 4.13851 302.034C3.76803 302.788 3.42718 303.497 3.08201 304.219L2.00883 306.411L0.936368 308.6L-0.132462 310.79L-1.20347 312.981L-2.27447 315.172L-3.34547 317.363C-3.70151 318.092 -4.06335 318.821 -4.41794 319.552C-4.77251 320.283 -5.12275 321.011 -5.491 321.773L6.97696 340.316C6.7689 340.983 -1.25633 357.428 -1.69752 358.119C-1.87458 358.175 -1.95136 358.046 -2.02736 357.933C-2.15307 357.746 -2.27731 357.562 -2.40447 357.372C-9.90279 346.221 -17.4016 335.068 -24.9009 323.914C-25.544 322.958 -25.5714 323.194 -25.0453 322.118L-6.53763 284.269C-6.41511 284.019 -6.28385 283.773 -6.13242 283.482L-6.13535 283.477ZM-38.1476 304.105C-38.1288 304.044 -38.1058 303.984 -38.0786 303.926L-19.6048 266.144C-19.5647 266.079 -19.5169 266.02 -19.4624 265.966C-19.2591 265.931 -19.2112 266.091 -19.1367 266.193C-19.0001 266.372 -18.8853 266.566 -18.7611 266.751L-8.22103 282.427C-14.4155 295.092 -20.6015 307.736 -26.7792 320.36C-26.8316 320.446 -26.8934 320.526 -26.9635 320.598C-27.0531 320.563 -27.1206 320.562 -27.1476 320.526C-27.7355 319.779 -37.835 304.697 -38.1447 304.11L-38.1476 304.105Z" fill="#D7D8DD"/>
</g>
<g clip-path="url(#clip5_1889_1728)">
<path d="M-99.9288 427.574C-99.9097 427.595 -99.8879 427.613 -99.8639 427.628C-99.8401 427.642 -99.815 427.652 -99.7889 427.66C-98.8313 427.676 -31.2693 423.061 -30.5964 422.921L-0.198114 360.748C-0.214938 360.664 -0.23934 360.583 -0.27101 360.503C-0.372426 360.334 -0.477704 360.168 -0.586841 360.006C-13.3345 341.046 -26.0874 322.092 -38.8456 303.142C-38.864 303.121 -38.8863 303.104 -38.9112 303.092C-38.9258 303.07 -38.9629 303.067 -39.0401 303.027C-39.3452 303.043 -39.7134 303.063 -40.0737 303.091L-96.8815 306.949C-100.299 307.186 -103.712 307.419 -107.12 307.646C-108.279 307.73 -108.053 307.563 -108.603 308.665C-109.059 309.603 -109.51 310.538 -109.968 311.461C-119.396 330.73 -128.82 349.998 -138.241 369.266C-138.362 369.518 -138.474 369.773 -138.573 369.988C-138.557 370.061 -138.533 370.132 -138.501 370.199C-125.816 389.063 -113.136 407.932 -100.459 426.804C-100.297 427.064 -100.114 427.313 -99.9288 427.574ZM-23.7367 403.668C-25.401 407.102 -27.0745 410.529 -28.7573 413.948L-31.7152 419.99C-31.7843 420.112 -31.8456 420.239 -31.899 420.369C-31.9469 420.516 -32.0424 420.642 -32.1704 420.728C-32.2985 420.814 -32.4516 420.855 -32.6055 420.844C-33.9209 420.92 -35.2297 421.03 -36.5495 421.109L-96.3775 425.171C-96.711 425.231 -97.0524 425.233 -97.3866 425.177C-97.3797 425.074 -97.3983 424.986 -97.3644 424.919C-94.5003 419.047 -91.6339 413.174 -88.7229 407.227C-66.9402 405.752 -45.1887 404.277 -23.4684 402.8C-23.4592 403.111 -23.5536 403.417 -23.7367 403.668ZM-95.1495 395.537C-96.806 393.074 -98.466 390.605 -100.129 388.131C-100.299 387.879 -100.459 387.617 -100.643 387.324L-92.0644 369.788C-92.0181 369.706 -91.9644 369.629 -91.904 369.557C-91.6789 369.535 -91.6253 369.685 -91.5493 369.789C-91.4397 369.952 -91.33 370.115 -91.2204 370.278C-83.9725 381.058 -76.7242 391.838 -69.4753 402.619L-68.9476 403.403C-69.0998 403.506 -69.1533 403.567 -69.1889 403.566C-75.7014 404.018 -82.2055 404.466 -88.7015 404.911C-89.0611 404.733 -89.1917 404.407 -89.3759 404.134C-91.306 401.258 -93.2223 398.399 -95.1495 395.537ZM-28.1136 393.492L-24.0735 399.501C-23.9025 399.755 -23.733 400.007 -23.5867 400.253C-23.7505 400.549 -24.0028 400.479 -24.2113 400.493C-25.971 400.624 -27.7311 400.745 -29.4919 400.855C-41.4258 401.67 -53.3604 402.481 -65.2958 403.29C-65.5732 403.309 -65.8529 403.321 -66.1543 403.337C-66.3033 403.153 -66.4507 402.99 -66.5771 402.807C-70.0354 397.664 -73.4947 392.519 -76.9549 387.373C-77.0733 387.197 -77.1569 386.997 -77.2674 386.79C-77.181 386.739 -77.0877 386.701 -76.9903 386.677C-62.9021 385.721 -48.8356 384.767 -34.7909 383.815C-34.5031 383.993 -34.2729 384.25 -34.1283 384.556C-32.118 387.533 -30.1131 390.512 -28.1136 393.492ZM-79.4609 383.65C-82.1065 379.716 -84.7521 375.781 -87.3977 371.846C-88.3195 370.475 -89.2452 369.098 -90.1749 367.716C-90.3459 367.461 -90.5024 367.2 -90.6471 366.976C-90.4405 366.307 -81.9802 348.913 -81.3271 347.795C-81.0597 347.616 -80.742 347.661 -80.4421 347.642C-75.3416 347.294 -70.249 346.949 -65.164 346.609C-63.7079 346.512 -62.253 346.414 -60.7994 346.317C-60.5219 346.297 -60.2429 346.29 -59.9386 346.278C-59.3458 347 -48.4679 363.225 -48.1772 363.803C-48.3918 364.465 -57.1306 382.345 -57.5784 383.022L-78.8568 384.459C-79.0664 384.19 -79.2738 383.928 -79.4594 383.652L-79.4609 383.65ZM-3.19802 361.667L-21.0339 398.158C-21.1665 398.43 -21.3079 398.689 -21.4997 399.052C-22.0602 398.415 -32.3445 383.12 -32.6843 382.417C-26.5461 369.872 -20.3944 357.294 -14.2293 344.683C-14.1509 344.544 -14.0653 344.41 -13.9729 344.28C-13.8621 344.369 -13.7574 344.465 -13.6594 344.568C-13.5367 344.722 -13.4401 344.894 -13.3305 345.057C-9.99501 350.018 -6.65901 354.979 -3.32253 359.941C-2.70785 360.87 -2.71005 360.679 -3.19656 361.669L-3.19802 361.667ZM-39.1644 306.696C-38.9451 307.022 -38.7677 307.235 -38.6143 307.463L-15.8738 341.284C-15.4645 341.893 -15.4616 341.897 -15.7946 342.575C-17.987 347.061 -20.1797 351.545 -22.3727 356.026L-34.3801 380.581C-34.5112 380.855 -34.6511 381.117 -34.794 381.374C-35.5736 381.557 -50.1417 382.608 -54.2736 382.792C-54.4065 382.796 -54.5403 382.775 -54.7045 382.766C-54.6937 382.474 -54.599 382.191 -54.4316 381.951C-53.2199 379.453 -52.0021 376.959 -50.7783 374.469C-49.5958 372.049 -48.4128 369.63 -47.2294 367.212L-35.9007 344.099C-35.753 343.798 -35.6176 343.492 -35.4613 343.156L-47.9848 324.531L-39.4435 307.042C-39.3583 306.921 -39.2646 306.806 -39.1629 306.699L-39.1644 306.696ZM-69.7963 327.293C-69.7767 327.259 -69.754 327.226 -69.7284 327.196C-69.7105 327.177 -69.6882 327.162 -69.6632 327.153C-69.4969 327.132 -69.3299 327.108 -69.1636 327.098C-62.787 326.661 -56.4111 326.229 -50.1434 325.809C-50.0139 325.851 -49.9884 325.856 -49.9644 325.868C-49.9404 325.884 -49.9188 325.904 -49.9002 325.926C-49.8389 326.017 -49.7564 326.098 -49.695 326.189C-45.9054 331.825 -42.1159 337.461 -38.3263 343.097C-38.2854 343.168 -38.2506 343.241 -38.2222 343.318C-38.403 343.913 -46.3675 360.259 -46.9024 361.149C-47.0794 361.205 -47.149 361.069 -47.2279 360.961C-47.3521 360.776 -47.4793 360.587 -47.6035 360.402C-54.8378 349.643 -62.0711 338.885 -69.3033 328.129C-69.5057 327.879 -69.6699 327.6 -69.7905 327.301L-69.7963 327.293ZM-115.304 327.577L-106.668 309.905L-41.6611 305.509C-41.5885 305.504 -41.5134 305.555 -41.4247 305.584C-41.4198 305.669 -41.429 305.756 -41.452 305.839C-44.3133 311.705 -47.1738 317.577 -50.007 323.359L-50.1613 323.463C-50.1857 323.477 -50.2125 323.486 -50.2404 323.491C-57.2254 323.978 -64.2146 324.461 -71.2078 324.94C-85.8588 325.929 -100.509 326.916 -115.159 327.9C-115.187 327.897 -115.213 327.889 -115.238 327.877C-115.264 327.866 -115.285 327.849 -115.325 327.828C-115.316 327.737 -115.335 327.643 -115.304 327.577ZM-115.19 330.342C-114.903 330.224 -114.592 330.175 -114.283 330.199C-110.898 329.963 -107.513 329.73 -104.129 329.502L-73.5891 327.431C-72.4487 327.352 -72.6467 327.265 -72.0328 328.178C-68.6827 333.16 -65.3325 338.143 -61.9824 343.125C-61.7773 343.351 -61.6248 343.619 -61.5361 343.911C-61.7932 344.134 -62.0884 344.061 -62.3651 344.086C-66.3872 344.364 -70.4121 344.638 -74.44 344.907C-84.0031 345.554 -93.5667 346.197 -103.131 346.837C-104.271 346.915 -104.076 347.046 -104.758 346.037C-108.076 341.102 -111.395 336.166 -114.715 331.228C-114.933 330.971 -115.094 330.671 -115.187 330.347L-115.19 330.342ZM-103.959 349.253L-84.4166 347.928C-84.288 347.936 -84.1605 347.956 -84.0356 347.988C-84.278 348.801 -84.7127 349.488 -85.06 350.22C-85.4073 350.952 -85.7691 351.682 -86.1288 352.41L-87.1983 354.603L-88.2693 356.794L-89.3418 358.983L-90.4128 361.174C-90.7696 361.907 -91.122 362.636 -91.4838 363.365C-91.8457 364.095 -92.2192 364.807 -92.5737 365.547C-92.9283 366.287 -93.3147 367.055 -93.6851 367.81C-94.0556 368.564 -94.3965 369.273 -94.7416 369.994L-95.8148 372.187L-96.8873 374.376L-97.9561 376.565L-99.0271 378.756L-100.098 380.947L-101.169 383.139C-101.525 383.867 -101.887 384.597 -102.242 385.328C-102.596 386.058 -102.946 386.786 -103.315 387.548L-90.8467 406.092C-91.0548 406.759 -99.08 423.203 -99.5212 423.894C-99.6982 423.95 -99.775 423.822 -99.851 423.709C-99.9767 423.522 -100.101 423.337 -100.228 423.148C-107.726 411.996 -115.225 400.843 -122.725 389.69C-123.368 388.733 -123.395 388.97 -122.869 387.893L-104.361 350.044C-104.239 349.794 -104.108 349.548 -103.956 349.257L-103.959 349.253ZM-135.971 369.881C-135.953 369.819 -135.929 369.76 -135.902 369.702L-117.428 331.92C-117.388 331.855 -117.341 331.795 -117.286 331.742C-117.083 331.706 -117.035 331.867 -116.96 331.968C-116.824 332.148 -116.709 332.342 -116.585 332.527L-106.045 348.202C-112.239 360.867 -118.425 373.512 -124.603 386.136C-124.655 386.222 -124.717 386.301 -124.787 386.373C-124.877 386.339 -124.944 386.337 -124.971 386.301C-125.559 385.554 -135.659 370.472 -135.968 369.885L-135.971 369.881Z" fill="#D7D8DD"/>
</g>
<g clip-path="url(#clip6_1889_1728)">
<path d="M-108.314 309.471C-108.294 309.492 -108.273 309.51 -108.249 309.525C-108.225 309.538 -108.2 309.549 -108.174 309.557C-107.216 309.572 -39.6541 304.958 -38.9811 304.818L-8.58288 242.644C-8.5997 242.561 -8.62411 242.479 -8.65578 242.4C-8.75719 242.23 -8.86247 242.064 -8.97161 241.902C-21.7192 222.943 -34.4722 203.989 -47.2304 185.039C-47.2488 185.018 -47.2711 185.001 -47.296 184.988C-47.3106 184.966 -47.3477 184.963 -47.4248 184.923C-47.7299 184.939 -48.0982 184.959 -48.4585 184.987L-105.266 188.845C-108.684 189.083 -112.097 189.315 -115.505 189.542C-116.663 189.627 -116.438 189.46 -116.988 190.562C-117.444 191.499 -117.895 192.434 -118.353 193.358C-127.78 212.626 -137.204 231.894 -146.625 251.163C-146.746 251.414 -146.859 251.67 -146.957 251.885C-146.942 251.957 -146.918 252.028 -146.885 252.095C-134.201 270.96 -121.521 289.828 -108.844 308.7C-108.682 308.961 -108.498 309.21 -108.314 309.471ZM-32.1215 285.565C-33.7858 288.999 -35.4593 292.425 -37.142 295.844L-40.0999 301.886C-40.169 302.009 -40.2304 302.135 -40.2837 302.265C-40.3316 302.412 -40.4272 302.538 -40.5552 302.625C-40.6832 302.711 -40.8363 302.751 -40.9902 302.74C-42.3057 302.817 -43.6145 302.927 -44.9343 303.006L-104.762 307.067C-105.096 307.127 -105.437 307.129 -105.771 307.073C-105.765 306.971 -105.783 306.882 -105.749 306.815C-102.885 300.944 -100.019 295.071 -97.1077 289.123C-75.3249 287.649 -53.5734 286.173 -31.8532 284.696C-31.844 285.008 -31.9384 285.313 -32.1215 285.565ZM-103.534 277.434C-105.191 274.97 -106.851 272.501 -108.514 270.027C-108.684 269.775 -108.844 269.514 -109.028 269.221L-100.449 251.685C-100.403 251.603 -100.349 251.526 -100.289 251.454C-100.064 251.432 -100.01 251.582 -99.9341 251.685C-99.8244 251.848 -99.7148 252.012 -99.6052 252.175C-92.3573 262.954 -85.1089 273.734 -77.8601 284.515L-77.3324 285.3C-77.4846 285.402 -77.5381 285.463 -77.5737 285.462C-84.0861 285.914 -90.5903 286.363 -97.0863 286.808C-97.4459 286.63 -97.5765 286.304 -97.7607 286.03C-99.6908 283.155 -101.607 280.295 -103.534 277.434ZM-36.4983 275.389L-32.4583 281.397C-32.2873 281.652 -32.1177 281.904 -31.9715 282.149C-32.1352 282.446 -32.3876 282.376 -32.5961 282.39C-34.3557 282.52 -36.1159 282.641 -37.8766 282.752C-49.8105 283.566 -61.7451 284.378 -73.6805 285.187C-73.958 285.206 -74.2377 285.217 -74.5391 285.234C-74.6881 285.05 -74.8355 284.887 -74.9619 284.704C-78.4202 279.56 -81.8794 274.415 -85.3397 269.269C-85.4581 269.093 -85.5417 268.894 -85.6522 268.687C-85.5657 268.636 -85.4724 268.598 -85.3751 268.573C-71.2868 267.617 -57.2203 266.663 -43.1757 265.711C-42.8878 265.889 -42.6577 266.147 -42.513 266.453C-40.5028 269.43 -38.4979 272.409 -36.4983 275.389ZM-87.8457 265.547C-90.4913 261.612 -93.1369 257.677 -95.7825 253.743C-96.7043 252.372 -97.63 250.995 -98.5596 249.612C-98.7306 249.358 -98.8872 249.097 -99.0319 248.872C-98.8253 248.203 -90.365 230.81 -89.7119 229.692C-89.4445 229.512 -89.1268 229.557 -88.8268 229.539C-83.7264 229.19 -78.6337 228.846 -73.5488 228.506C-72.0927 228.408 -70.6378 228.311 -69.1841 228.213C-68.9067 228.194 -68.6277 228.186 -68.3233 228.174C-67.7305 228.896 -56.8527 245.121 -56.5619 245.699C-56.7766 246.361 -65.5154 264.242 -65.9632 264.918L-87.2416 266.356C-87.4512 266.086 -87.6586 265.825 -87.8442 265.549L-87.8457 265.547ZM-11.5828 243.563L-29.4187 280.054C-29.5513 280.326 -29.6927 280.586 -29.8845 280.948C-30.445 280.312 -40.7292 265.017 -41.0691 264.314C-34.9308 251.769 -28.7792 239.191 -22.614 226.579C-22.5356 226.441 -22.4501 226.306 -22.3577 226.176C-22.2469 226.265 -22.1421 226.362 -22.0442 226.464C-21.9215 226.619 -21.8249 226.79 -21.7153 226.953C-18.3798 231.914 -15.0438 236.876 -11.7073 241.838C-11.0926 242.766 -11.0948 242.575 -11.5813 243.565L-11.5828 243.563ZM-47.5491 188.593C-47.3299 188.919 -47.1525 189.131 -46.999 189.359L-24.2585 223.18C-23.8493 223.789 -23.8463 223.793 -24.1793 224.472C-26.3718 228.957 -28.5645 233.441 -30.7574 237.923L-42.7648 262.477C-42.896 262.752 -43.0359 263.013 -43.1787 263.27C-43.9583 263.453 -58.5265 264.505 -62.6583 264.688C-62.7913 264.692 -62.925 264.672 -63.0893 264.662C-63.0785 264.37 -62.9837 264.087 -62.8164 263.847C-61.6047 261.349 -60.3869 258.855 -59.163 256.366C-57.9806 253.946 -56.7976 251.527 -55.6142 249.109L-44.2855 225.996C-44.1377 225.694 -44.0024 225.388 -43.846 225.053L-56.3695 206.427L-47.8282 188.938C-47.7431 188.817 -47.6493 188.703 -47.5477 188.595L-47.5491 188.593ZM-78.1811 209.189C-78.1615 209.155 -78.1387 209.123 -78.1132 209.093C-78.0953 209.073 -78.0729 209.058 -78.048 209.049C-77.8817 209.029 -77.7147 209.005 -77.5483 208.994C-71.1717 208.558 -64.7958 208.125 -58.5281 207.705C-58.3986 207.747 -58.3732 207.752 -58.3492 207.765C-58.3251 207.781 -58.3035 207.8 -58.285 207.822C-58.2236 207.914 -58.1412 207.994 -58.0798 208.085C-54.2902 213.722 -50.5006 219.358 -46.711 224.994C-46.6702 225.064 -46.6354 225.138 -46.607 225.214C-46.7877 225.809 -54.7523 242.156 -55.2872 243.046C-55.4642 243.102 -55.5338 242.965 -55.6127 242.858C-55.7369 242.673 -55.8641 242.484 -55.9883 242.299C-63.2226 231.54 -70.4558 220.782 -77.6881 210.026C-77.8905 209.775 -78.0546 209.496 -78.1753 209.198L-78.1811 209.189ZM-123.688 209.474L-115.053 191.802L-50.0459 187.405C-49.9732 187.401 -49.8982 187.451 -49.8095 187.48C-49.8045 187.566 -49.8138 187.652 -49.8368 187.735C-52.698 193.602 -55.5585 199.474 -58.3918 205.255L-58.5461 205.359C-58.5704 205.373 -58.5973 205.383 -58.6252 205.387C-65.6102 205.875 -72.5993 206.358 -79.5926 206.836C-94.2436 207.826 -108.894 208.812 -123.544 209.797C-123.571 209.793 -123.598 209.785 -123.623 209.774C-123.649 209.763 -123.67 209.746 -123.709 209.725C-123.701 209.634 -123.72 209.539 -123.688 209.474ZM-123.575 212.239C-123.288 212.121 -122.977 212.072 -122.668 212.096C-119.283 211.859 -115.898 211.627 -112.514 211.399L-81.9738 209.328C-80.8335 209.249 -81.0314 209.161 -80.4175 210.074C-77.0674 215.057 -73.7173 220.039 -70.3672 225.022C-70.1621 225.247 -70.0096 225.516 -69.9209 225.807C-70.1779 226.031 -70.4732 225.958 -70.7499 225.983C-74.7719 226.261 -78.7969 226.534 -82.8247 226.804C-92.3878 227.451 -101.951 228.094 -111.516 228.733C-112.656 228.812 -112.461 228.942 -113.143 227.933C-116.461 222.998 -119.779 218.062 -123.099 213.125C-123.318 212.868 -123.479 212.567 -123.572 212.243L-123.575 212.239ZM-112.344 231.149L-92.8013 229.825C-92.6728 229.833 -92.5453 229.853 -92.4204 229.884C-92.6628 230.697 -93.0974 231.384 -93.4447 232.117C-93.792 232.849 -94.1539 233.578 -94.5136 234.306L-95.5831 236.499L-96.6541 238.691L-97.7266 240.88L-98.7976 243.071C-99.1543 243.803 -99.5067 244.532 -99.8686 245.262C-100.23 245.991 -100.604 246.703 -100.959 247.444C-101.313 248.184 -101.699 248.952 -102.07 249.706C-102.44 250.46 -102.781 251.169 -103.126 251.891L-104.2 254.083L-105.272 256.272L-106.341 258.462L-107.412 260.653L-108.483 262.844L-109.554 265.035C-109.91 265.764 -110.272 266.493 -110.626 267.224C-110.981 267.955 -111.331 268.683 -111.699 269.445L-99.2315 287.988C-99.4395 288.655 -107.465 305.099 -107.906 305.791C-108.083 305.847 -108.16 305.718 -108.236 305.605C-108.361 305.418 -108.486 305.233 -108.613 305.044C-116.111 293.892 -123.61 282.74 -131.109 271.586C-131.752 270.63 -131.78 270.866 -131.254 269.789L-112.746 231.941C-112.624 231.691 -112.492 231.445 -112.341 231.154L-112.344 231.149ZM-144.356 251.777C-144.337 251.716 -144.314 251.656 -144.287 251.598L-125.813 213.816C-125.773 213.751 -125.725 213.692 -125.671 213.638C-125.467 213.603 -125.42 213.763 -125.345 213.864C-125.209 214.044 -125.094 214.238 -124.969 214.423L-114.429 230.099C-120.624 242.764 -126.81 255.408 -132.988 268.032C-133.04 268.118 -133.102 268.198 -133.172 268.27C-133.261 268.235 -133.329 268.233 -133.356 268.198C-133.944 267.45 -144.043 252.369 -144.353 251.781L-144.356 251.777Z" fill="#D7D8DD"/>
</g>
<g clip-path="url(#clip7_1889_1728)">
<path d="M-17.9298 125.59C-17.9107 125.611 -17.8889 125.629 -17.865 125.644C-17.8412 125.657 -17.8161 125.668 -17.79 125.676C-16.8324 125.692 50.7296 121.077 51.4026 120.937L81.8008 58.7636C81.784 58.68 81.7596 58.5982 81.7279 58.519C81.6265 58.3494 81.5212 58.1835 81.4121 58.0211C68.6645 39.0621 55.9115 20.1077 43.1533 1.15796C43.1349 1.13699 43.1126 1.11981 43.0877 1.10736C43.0731 1.08562 43.036 1.08214 42.9588 1.04248C42.6538 1.05821 42.2855 1.07856 41.9252 1.10613L-14.8825 4.96432C-18.3002 5.20206 -21.7131 5.43445 -25.1211 5.66149C-26.2797 5.74598 -26.0543 5.57872 -26.6044 6.68087C-27.0598 7.61846 -27.511 8.55313 -27.9694 9.47692C-37.3966 28.7452 -46.8207 48.0135 -56.2416 67.2818C-56.3626 67.5336 -56.475 67.7891 -56.5737 68.0038C-56.558 68.0765 -56.5338 68.1472 -56.5016 68.2142C-43.8173 87.079 -31.1369 105.948 -18.4604 124.82C-18.298 125.08 -18.1147 125.329 -17.9298 125.59ZM58.2622 101.684C56.5979 105.118 54.9244 108.544 53.2417 111.963L50.2838 118.005C50.2147 118.128 50.1533 118.254 50.1 118.385C50.0521 118.531 49.9565 118.658 49.8285 118.744C49.7005 118.83 49.5473 118.871 49.3935 118.86C48.078 118.936 46.7692 119.046 45.4494 119.125L-14.3785 123.186C-14.712 123.246 -15.0535 123.248 -15.3877 123.192C-15.3808 123.09 -15.3993 123.001 -15.3654 122.934C-12.5013 117.063 -9.63502 111.19 -6.72396 105.242C15.0588 103.768 36.8103 102.292 58.5305 100.815C58.5397 101.127 58.4453 101.432 58.2622 101.684ZM-13.1506 93.5529C-14.8071 91.0892 -16.4671 88.6204 -18.1304 86.1466C-18.3 85.8944 -18.4601 85.6328 -18.6444 85.34L-10.0655 67.8037C-10.0192 67.722 -9.96551 67.6447 -9.90511 67.5727C-9.67996 67.5508 -9.62633 67.701 -9.55036 67.8046C-9.44074 67.9676 -9.33111 68.1307 -9.22149 68.2937C-1.9736 79.0732 5.27477 89.8534 12.5236 100.634L13.0513 101.419C12.8991 101.521 12.8456 101.583 12.81 101.581C6.29758 102.033 -0.206614 102.482 -6.70257 102.927C-7.06219 102.749 -7.1928 102.423 -7.37697 102.149C-9.30711 99.2739 -11.2234 96.4145 -13.1506 93.5529ZM53.8854 91.5078L57.9254 97.5164C58.0964 97.7707 58.266 98.0229 58.4122 98.2686C58.2485 98.565 57.9961 98.4948 57.7876 98.5087C56.028 98.6396 54.2678 98.7604 52.5071 98.871C40.5732 99.6853 28.6385 100.497 16.7032 101.306C16.4257 101.325 16.146 101.336 15.8446 101.353C15.6956 101.169 15.5482 101.006 15.4218 100.823C11.9635 95.6793 8.50427 90.5345 5.04403 85.3882C4.92564 85.2121 4.84203 85.0127 4.73151 84.806C4.81795 84.7551 4.91126 84.7168 5.00859 84.6923C19.0969 83.7363 33.1634 82.7824 47.208 81.8304C47.4959 82.0084 47.726 82.2659 47.8707 82.5718C49.8809 85.549 51.8858 88.5277 53.8854 91.5078ZM2.53804 81.6659C-0.10756 77.7312 -2.75317 73.7965 -5.39877 69.8618C-6.32059 68.4908 -7.24631 67.114 -8.17593 65.7314C-8.34694 65.4771 -8.50345 65.2161 -8.64819 64.9915C-8.44159 64.3222 0.0187159 46.9288 0.671827 45.811C0.939214 45.6312 1.25689 45.6765 1.55688 45.6579C6.6573 45.3094 11.75 44.965 16.8349 44.6248C18.291 44.5275 19.7459 44.43 21.1996 44.3322C21.477 44.3129 21.756 44.3053 22.0604 44.2932C22.6532 45.0152 33.531 61.2404 33.8217 61.8183C33.6071 62.4803 24.8683 80.3608 24.4205 81.0376L3.14208 82.475C2.9325 82.2056 2.72513 81.9441 2.5395 81.668L2.53804 81.6659ZM78.8009 59.6821L60.965 96.1734C60.8324 96.4456 60.691 96.7048 60.4992 97.0674C59.9387 96.431 49.6545 81.1357 49.3146 80.433C55.4528 67.888 61.6045 55.3098 67.7697 42.6984C67.8481 42.5598 67.9336 42.4253 68.026 42.2956C68.1368 42.3845 68.2416 42.4807 68.3395 42.5835C68.4622 42.7378 68.5588 42.9096 68.6684 43.0726C72.0039 48.0334 75.3399 52.9949 78.6764 57.9571C79.2911 58.8854 79.2889 58.6943 78.8024 59.6843L78.8009 59.6821ZM42.8346 4.71201C43.0538 5.03809 43.2312 5.25027 43.3847 5.47852L66.1252 39.2995C66.5344 39.9082 66.5374 39.9126 66.2044 40.591C64.0119 45.0766 61.8192 49.5603 59.6262 54.042L47.6189 78.5964C47.4877 78.8709 47.3478 79.1322 47.205 79.3893C46.4254 79.5725 31.8572 80.6239 27.7254 80.8073C27.5924 80.8114 27.4587 80.7909 27.2944 80.7814C27.3052 80.4892 27.4 80.2063 27.5673 79.9666C28.779 77.4683 29.9968 74.9744 31.2207 72.4848C32.4031 70.0651 33.5861 67.6461 34.7695 65.2278L46.0982 42.1147C46.2459 41.8133 46.3813 41.5076 46.5377 41.1721L34.0142 22.5464L42.5555 5.0575C42.6406 4.93646 42.7344 4.82172 42.836 4.71419L42.8346 4.71201ZM12.2026 25.3083C12.2222 25.2742 12.245 25.242 12.2705 25.2121C12.2884 25.1924 12.3108 25.1774 12.3357 25.1682C12.502 25.148 12.669 25.1241 12.8354 25.1132C19.212 24.6769 25.5879 24.2441 31.8556 23.8242C31.9851 23.8665 32.0105 23.8715 32.0345 23.8838C32.0586 23.8999 32.0802 23.9194 32.0987 23.9416C32.1601 24.0329 32.2425 24.1133 32.3039 24.2046C36.0935 29.8407 39.8831 35.4768 43.6727 41.1129C43.7135 41.1833 43.7483 41.2571 43.7767 41.3334C43.596 41.9284 35.6314 58.2751 35.0965 59.165C34.9195 59.2209 34.8499 59.0846 34.771 58.9767C34.6468 58.7919 34.5196 58.6028 34.3954 58.418C27.1611 47.6588 19.9279 36.901 12.6956 26.1448C12.4932 25.8944 12.3291 25.6154 12.2084 25.317L12.2026 25.3083ZM-33.3048 25.5931L-24.669 7.92071L40.3378 3.52451C40.4105 3.51986 40.4855 3.57042 40.5742 3.59914C40.5792 3.6851 40.5699 3.77129 40.5469 3.85426C37.6857 9.72076 34.8252 15.5931 31.9919 21.3745L31.8376 21.4782C31.8133 21.4925 31.7864 21.502 31.7585 21.5062C24.7735 21.9938 17.7844 22.4769 10.7911 22.9555C-3.85988 23.9447 -18.5104 24.9315 -33.1604 25.9158C-33.1876 25.9123 -33.2141 25.9046 -33.239 25.8929C-33.2651 25.8821 -33.2863 25.8647 -33.3256 25.8438C-33.3172 25.7529 -33.3365 25.6586 -33.3048 25.5931ZM-33.1914 28.3578C-32.9042 28.2399 -32.5934 28.1909 -32.2838 28.2148C-28.8991 27.9781 -25.5145 27.7459 -22.1302 27.5179L8.40985 25.4467C9.55022 25.3681 9.35225 25.2803 9.96615 26.1933C13.3163 31.1758 16.6664 36.1583 20.0165 41.1408C20.2216 41.3665 20.3741 41.6349 20.4628 41.9266C20.2058 42.1499 19.9105 42.077 19.6338 42.1021C15.6118 42.38 11.5868 42.6535 7.55897 42.9227C-2.00415 43.5698 -11.5678 44.2129 -21.1319 44.8522C-22.2723 44.9308 -22.077 45.0616 -22.7589 44.0522C-26.0768 39.1175 -29.3958 34.1814 -32.7157 29.2438C-32.9341 28.9868 -33.0953 28.6863 -33.1885 28.3622L-33.1914 28.3578ZM-21.9601 47.2683L-2.41763 45.9438C-2.28911 45.9521 -2.16161 45.972 -2.03669 46.0033C-2.27905 46.8166 -2.71373 47.5034 -3.06104 48.2357C-3.40834 48.968 -3.77019 49.6974 -4.12986 50.4253L-5.1994 52.6186L-6.27041 54.8098L-7.34287 56.9987L-8.41388 59.1898C-8.77063 59.9221 -9.12304 60.6515 -9.48488 61.3809C-9.84673 62.1104 -10.2203 62.8224 -10.5748 63.5627C-10.9294 64.303 -11.3157 65.071 -11.6862 65.8252C-12.0567 66.5793 -12.3975 67.2883 -12.7427 68.0097L-13.8159 70.2023L-14.8884 72.3912L-15.9572 74.5809L-17.0282 76.772L-18.0992 78.9631L-19.1702 81.1542C-19.5262 81.8829 -19.8881 82.6123 -20.2427 83.3432C-20.5972 84.074 -20.9475 84.802 -21.3157 85.5641L-8.84776 104.107C-9.05583 104.774 -17.0811 121.219 -17.5222 121.91C-17.6993 121.966 -17.7761 121.837 -17.8521 121.724C-17.9778 121.537 -18.102 121.353 -18.2292 121.163C-25.7275 110.012 -33.2263 98.8589 -40.7256 87.7055C-41.3687 86.749 -41.3961 86.9852 -40.87 85.9086L-22.3624 48.0597C-22.2398 47.81 -22.1086 47.5639 -21.9571 47.2727L-21.9601 47.2683ZM-53.9723 67.8962C-53.9536 67.835 -53.9305 67.7752 -53.9033 67.7172L-35.4295 29.9353C-35.3894 29.8704 -35.3416 29.8107 -35.2871 29.7574C-35.0838 29.7218 -35.0359 29.8821 -34.9614 29.9836C-34.8249 30.1632 -34.71 30.3575 -34.5858 30.5422L-24.0458 46.218C-30.2402 58.8828 -36.4263 71.5273 -42.6039 84.1514C-42.6563 84.2372 -42.7182 84.3169 -42.7883 84.389C-42.8778 84.3544 -42.9453 84.3525 -42.9724 84.317C-43.5602 83.5696 -53.6598 68.4878 -53.9694 67.9005L-53.9723 67.8962Z" fill="#D7D8DD"/>
</g>
<g clip-path="url(#clip8_1889_1728)">
<path d="M-115.755 191.364C-115.735 191.385 -115.714 191.403 -115.69 191.418C-115.666 191.432 -115.641 191.442 -115.615 191.45C-114.657 191.466 -47.0951 186.851 -46.4221 186.711L-16.0239 124.538C-16.0407 124.454 -16.0651 124.373 -16.0968 124.293C-16.1982 124.124 -16.3035 123.958 -16.4126 123.796C-29.1602 104.837 -41.9132 85.8821 -54.6714 66.9324C-54.6898 66.9114 -54.7121 66.8942 -54.737 66.8818C-54.7516 66.86 -54.7887 66.8566 -54.8659 66.8169C-55.1709 66.8326 -55.5392 66.853 -55.8995 66.8805L-112.707 70.7387C-116.125 70.9765 -119.538 71.2089 -122.946 71.4359C-124.104 71.5204 -123.879 71.3531 -124.429 72.4553C-124.885 73.3929 -125.336 74.3275 -125.794 75.2513C-135.221 94.5196 -144.645 113.788 -154.066 133.056C-154.187 133.308 -154.3 133.564 -154.398 133.778C-154.383 133.851 -154.359 133.922 -154.326 133.989C-141.642 152.853 -128.962 171.722 -116.285 190.594C-116.123 190.854 -115.939 191.103 -115.755 191.364ZM-39.5625 167.458C-41.2268 170.892 -42.9003 174.319 -44.583 177.738L-47.541 183.78C-47.61 183.902 -47.6714 184.029 -47.7247 184.159C-47.7726 184.306 -47.8682 184.432 -47.9962 184.518C-48.1242 184.604 -48.2774 184.645 -48.4312 184.634C-49.7467 184.71 -51.0555 184.82 -52.3753 184.899L-112.203 188.961C-112.537 189.021 -112.878 189.023 -113.212 188.967C-113.206 188.864 -113.224 188.776 -113.19 188.709C-110.326 182.837 -107.46 176.964 -104.549 171.017C-82.7659 169.542 -61.0144 168.067 -39.2942 166.59C-39.285 166.901 -39.3794 167.207 -39.5625 167.458ZM-110.975 159.327C-112.632 156.864 -114.292 154.395 -115.955 151.921C-116.125 151.669 -116.285 151.407 -116.469 151.114L-107.89 133.578C-107.844 133.496 -107.79 133.419 -107.73 133.347C-107.505 133.325 -107.451 133.475 -107.375 133.579C-107.265 133.742 -107.156 133.905 -107.046 134.068C-99.7983 144.848 -92.5499 155.628 -85.3011 166.409L-84.7734 167.193C-84.9256 167.296 -84.9791 167.357 -85.0147 167.356C-91.5271 167.808 -98.0313 168.256 -104.527 168.701C-104.887 168.523 -105.018 168.197 -105.202 167.924C-107.132 165.048 -109.048 162.189 -110.975 159.327ZM-43.9393 157.282L-39.8993 163.291C-39.7283 163.545 -39.5587 163.797 -39.4125 164.043C-39.5762 164.339 -39.8286 164.269 -40.0371 164.283C-41.7967 164.414 -43.5569 164.535 -45.3176 164.645C-57.2515 165.46 -69.1862 166.271 -81.1215 167.08C-81.399 167.1 -81.6787 167.111 -81.9801 167.127C-82.1291 166.943 -82.2765 166.78 -82.4029 166.597C-85.8612 161.454 -89.3204 156.309 -92.7807 151.163C-92.8991 150.987 -92.9827 150.787 -93.0932 150.58C-93.0068 150.529 -92.9134 150.491 -92.8161 150.467C-78.7278 149.511 -64.6614 148.557 -50.6167 147.605C-50.3288 147.783 -50.0987 148.04 -49.954 148.346C-47.9438 151.323 -45.9389 154.302 -43.9393 157.282ZM-95.2867 147.44C-97.9323 143.506 -100.578 139.571 -103.223 135.636C-104.145 134.265 -105.071 132.888 -106.001 131.506C-106.172 131.251 -106.328 130.991 -106.473 130.766C-106.266 130.097 -97.806 112.703 -97.1529 111.585C-96.8855 111.406 -96.5678 111.451 -96.2678 111.432C-91.1674 111.084 -86.0747 110.739 -80.9898 110.399C-79.5337 110.302 -78.0788 110.204 -76.6251 110.107C-76.3477 110.087 -76.0687 110.08 -75.7643 110.068C-75.1715 110.79 -64.2937 127.015 -64.003 127.593C-64.2176 128.255 -72.9564 146.135 -73.4042 146.812L-94.6826 148.249C-94.8922 147.98 -95.0996 147.719 -95.2852 147.442L-95.2867 147.44ZM-19.0238 125.457L-36.8597 161.948C-36.9923 162.22 -37.1337 162.479 -37.3255 162.842C-37.886 162.205 -48.1702 146.91 -48.5101 146.207C-42.3719 133.662 -36.2202 121.084 -30.055 108.473C-29.9766 108.334 -29.8911 108.2 -29.7987 108.07C-29.6879 108.159 -29.5832 108.255 -29.4852 108.358C-29.3625 108.512 -29.2659 108.684 -29.1563 108.847C-25.8208 113.808 -22.4848 118.769 -19.1483 123.732C-18.5336 124.66 -18.5358 124.469 -19.0223 125.459L-19.0238 125.457ZM-54.9902 70.4864C-54.7709 70.8125 -54.5935 71.0247 -54.44 71.2529L-31.6995 105.074C-31.2903 105.683 -31.2874 105.687 -31.6203 106.365C-33.8128 110.851 -36.0055 115.335 -38.1985 119.816L-50.2058 144.371C-50.337 144.645 -50.4769 144.907 -50.6198 145.164C-51.3993 145.347 -65.9675 146.398 -70.0993 146.582C-70.2323 146.586 -70.366 146.565 -70.5303 146.556C-70.5195 146.264 -70.4247 145.981 -70.2574 145.741C-69.0457 143.243 -67.8279 140.749 -66.6041 138.259C-65.4216 135.839 -64.2386 133.421 -63.0552 131.002L-51.7265 107.889C-51.5788 107.588 -51.4434 107.282 -51.287 106.946L-63.8105 88.3208L-55.2692 70.8319C-55.1841 70.7109 -55.0903 70.5961 -54.9887 70.4886L-54.9902 70.4864ZM-85.6221 91.0827C-85.6025 91.0486 -85.5797 91.0164 -85.5542 90.9865C-85.5363 90.9669 -85.5139 90.9518 -85.489 90.9427C-85.3227 90.9224 -85.1557 90.8985 -84.9893 90.8876C-78.6127 90.4513 -72.2368 90.0185 -65.9691 89.5986C-65.8397 89.6409 -65.8142 89.6459 -65.7902 89.6582C-65.7661 89.6743 -65.7445 89.6938 -65.726 89.716C-65.6646 89.8074 -65.5822 89.8877 -65.5208 89.979C-61.7312 95.6151 -57.9416 101.251 -54.152 106.887C-54.1112 106.958 -54.0764 107.031 -54.048 107.108C-54.2287 107.703 -62.1933 124.049 -62.7282 124.939C-62.9052 124.995 -62.9748 124.859 -63.0537 124.751C-63.1779 124.566 -63.3051 124.377 -63.4293 124.192C-70.6636 113.433 -77.8968 102.675 -85.1291 91.9192C-85.3315 91.6688 -85.4956 91.3898 -85.6163 91.0914L-85.6221 91.0827ZM-131.129 91.3675L-122.494 73.6951L-57.4869 69.2989C-57.4143 69.2943 -57.3392 69.3448 -57.2505 69.3735C-57.2455 69.4595 -57.2548 69.5457 -57.2778 69.6287C-60.139 75.4952 -62.9995 81.3675 -65.8328 87.1489L-65.9871 87.2526C-66.0114 87.2669 -66.0383 87.2764 -66.0662 87.2806C-73.0512 87.7683 -80.0403 88.2514 -87.0336 88.7299C-101.685 89.7191 -116.335 90.7059 -130.985 91.6902C-131.012 91.6867 -131.039 91.679 -131.064 91.6673C-131.09 91.6565 -131.111 91.6391 -131.15 91.6182C-131.142 91.5274 -131.161 91.433 -131.129 91.3675ZM-131.016 94.1322C-130.729 94.0143 -130.418 93.9654 -130.109 93.9892C-126.724 93.7525 -123.339 93.5203 -119.955 93.2923L-89.4149 91.2211C-88.2745 91.1425 -88.4725 91.0547 -87.8586 91.9677C-84.5084 96.9502 -81.1583 101.933 -77.8082 106.915C-77.6031 107.141 -77.4506 107.409 -77.3619 107.701C-77.6189 107.924 -77.9142 107.851 -78.1909 107.876C-82.2129 108.154 -86.2379 108.428 -90.2657 108.697C-99.8289 109.344 -109.392 109.987 -118.957 110.627C-120.097 110.705 -119.902 110.836 -120.584 109.827C-123.902 104.892 -127.22 99.9558 -130.54 95.0182C-130.759 94.7612 -130.92 94.4607 -131.013 94.1366L-131.016 94.1322ZM-119.785 113.043L-100.242 111.718C-100.114 111.726 -99.9863 111.746 -99.8614 111.778C-100.104 112.591 -100.538 113.278 -100.886 114.01C-101.233 114.742 -101.595 115.472 -101.955 116.2L-103.024 118.393L-104.095 120.584L-105.168 122.773L-106.239 124.964C-106.595 125.697 -106.948 126.426 -107.31 127.155C-107.671 127.885 -108.045 128.597 -108.4 129.337C-108.754 130.077 -109.14 130.845 -109.511 131.6C-109.881 132.354 -110.222 133.063 -110.567 133.784L-111.641 135.977L-112.713 138.166L-113.782 140.355L-114.853 142.546L-115.924 144.738L-116.995 146.929C-117.351 147.657 -117.713 148.387 -118.067 149.118C-118.422 149.848 -118.772 150.576 -119.14 151.339L-106.672 169.882C-106.881 170.549 -114.906 186.993 -115.347 187.684C-115.524 187.74 -115.601 187.612 -115.677 187.499C-115.802 187.312 -115.927 187.127 -116.054 186.938C-123.552 175.786 -131.051 164.633 -138.55 153.48C-139.193 152.523 -139.221 152.76 -138.695 151.683L-120.187 113.834C-120.065 113.584 -119.933 113.338 -119.782 113.047L-119.785 113.043ZM-151.797 133.671C-151.778 133.609 -151.755 133.55 -151.728 133.492L-133.254 95.7097C-133.214 95.6449 -133.166 95.5851 -133.112 95.5319C-132.909 95.4962 -132.861 95.6565 -132.786 95.758C-132.65 95.9376 -132.535 96.1319 -132.41 96.3167L-121.87 111.992C-128.065 124.657 -134.251 137.302 -140.429 149.926C-140.481 150.012 -140.543 150.091 -140.613 150.163C-140.702 150.129 -140.77 150.127 -140.797 150.091C-141.385 149.344 -151.484 134.262 -151.794 133.675L-151.797 133.671Z" fill="#D7D8DD"/>
</g>
</g>
<defs>
<clipPath id="clip0_1889_1728">
<rect width="197" height="363" fill="white"/>
</clipPath>
<clipPath id="clip1_1889_1728">
<rect width="120.162" height="138.785" fill="white" transform="translate(215.935 258.093) rotate(146.084)"/>
</clipPath>
<clipPath id="clip2_1889_1728">
<rect width="120.162" height="138.785" fill="white" transform="translate(207.55 139.989) rotate(146.084)"/>
</clipPath>
<clipPath id="clip3_1889_1728">
<rect width="120.162" height="138.785" fill="white" transform="translate(109.727 205.765) rotate(146.084)"/>
</clipPath>
<clipPath id="clip4_1889_1728">
<rect width="120.162" height="138.785" fill="white" transform="translate(117.021 323.653) rotate(146.084)"/>
</clipPath>
<clipPath id="clip5_1889_1728">
<rect width="120.162" height="138.785" fill="white" transform="translate(19.1968 389.429) rotate(146.084)"/>
</clipPath>
<clipPath id="clip6_1889_1728">
<rect width="120.162" height="138.785" fill="white" transform="translate(10.812 271.325) rotate(146.084)"/>
</clipPath>
<clipPath id="clip7_1889_1728">
<rect width="120.162" height="138.785" fill="white" transform="translate(101.196 87.4443) rotate(146.084)"/>
</clipPath>
<clipPath id="clip8_1889_1728">
<rect width="120.162" height="138.785" fill="white" transform="translate(3.37109 153.219) rotate(146.084)"/>
</clipPath>
</defs>
</svg>
