<svg width="53" height="53" viewBox="0 0 53 53" fill="none" xmlns="http://www.w3.org/2000/svg">
<rect width="53" height="53" rx="26.5" fill="#293F52"/>
<path fill-rule="evenodd" clip-rule="evenodd" d="M16.5625 33.125C16.5625 30.2481 18.3963 27.7994 20.9588 26.8842C21.6553 26.6355 22.4056 26.5 23.1875 26.5C23.9694 26.5 24.7198 26.6355 25.4162 26.8842C25.7945 27.0193 26.1569 27.1879 26.5 27.3863C26.8431 27.1879 27.2055 27.0193 27.5838 26.8842C28.2802 26.6355 29.0305 26.5 29.8125 26.5C30.5945 26.5 31.3448 26.6355 32.0412 26.8842C34.6037 27.7994 36.4375 30.2481 36.4375 33.125V36.4375H30.6406V34.7812H34.7812V33.125C34.7812 30.3808 32.5567 28.1562 29.8125 28.1562C29.1532 28.1562 28.5239 28.2847 27.9482 28.5179C29.1023 29.7101 29.8125 31.3346 29.8125 33.125V36.4375H16.5625V33.125ZM23.1875 25.6719C22.4268 25.6719 21.714 25.4667 21.1014 25.1087C19.8725 24.3906 19.0469 23.0573 19.0469 21.5312C19.0469 19.2444 20.9007 17.3906 23.1875 17.3906C24.542 17.3906 25.7445 18.041 26.5 19.0465C27.2555 18.041 28.458 17.3906 29.8125 17.3906C32.0993 17.3906 33.9531 19.2444 33.9531 21.5312C33.9531 23.0573 33.1275 24.3906 31.8986 25.1087C31.286 25.4667 30.5733 25.6719 29.8125 25.6719C29.0517 25.6719 28.339 25.4667 27.7264 25.1087C27.2482 24.8293 26.8311 24.4567 26.5 24.016C26.1689 24.4568 25.7518 24.8293 25.2736 25.1087C24.661 25.4667 23.9482 25.6719 23.1875 25.6719ZM28.1562 33.125V34.7812H18.2188V33.125C18.2188 30.3808 20.4433 28.1562 23.1875 28.1562C25.9317 28.1562 28.1562 30.3808 28.1562 33.125ZM25.6719 21.5312C25.6719 22.9033 24.5595 24.0156 23.1875 24.0156C21.8154 24.0156 20.7031 22.9033 20.7031 21.5312C20.7031 20.1592 21.8154 19.0469 23.1875 19.0469C24.5595 19.0469 25.6719 20.1592 25.6719 21.5312ZM29.8125 19.0469C28.4405 19.0469 27.3281 20.1592 27.3281 21.5312C27.3281 22.9033 28.4405 24.0156 29.8125 24.0156C31.1845 24.0156 32.2969 22.9033 32.2969 21.5312C32.2969 20.1592 31.1845 19.0469 29.8125 19.0469Z" fill="white"/>
</svg>
