<svg width="80" height="80" viewBox="0 0 80 80" fill="none" xmlns="http://www.w3.org/2000/svg">
<path d="M36.5105 37.0887C33.4339 37.0887 30.4264 36.1763 27.8683 34.4671C25.3102 32.7578 23.3164 30.3284 22.139 27.486C20.9616 24.6435 20.6536 21.5158 21.2538 18.4984C21.854 15.4809 23.3355 12.7091 25.511 10.5337C27.6865 8.35818 30.4582 6.87666 33.4757 6.27644C36.4932 5.67623 39.6209 5.98428 42.4633 7.16164C45.3057 8.33901 47.7352 10.3328 49.4444 12.8909C51.1537 15.449 52.066 18.4565 52.066 21.5331C52.066 25.6587 50.4271 29.6153 47.5099 32.5325C44.5927 35.4498 40.636 37.0887 36.5105 37.0887ZM36.5105 10.5998C34.3129 10.5998 32.1647 11.2514 30.3375 12.4723C28.5102 13.6932 27.0861 15.4286 26.2451 17.4588C25.4042 19.4891 25.1841 21.7232 25.6128 23.8785C26.0416 26.0339 27.0998 28.0137 28.6537 29.5676C30.2076 31.1215 32.1874 32.1798 34.3428 32.6085C36.4981 33.0372 38.7322 32.8172 40.7625 31.9762C42.7928 31.1352 44.5281 29.7111 45.749 27.8839C46.9699 26.0567 47.6216 23.9084 47.6216 21.7109C47.6216 20.2517 47.3342 18.8069 46.7758 17.4588C46.2174 16.1108 45.399 14.8859 44.3672 13.8541C43.3354 12.8224 42.1106 12.0039 40.7625 11.4456C39.4144 10.8872 37.9696 10.5998 36.5105 10.5998Z" fill="#FABD47"/>
<path d="M48.8882 39.7779C36.8625 37.0719 24.2816 38.3752 13.066 43.489C11.5236 44.2258 10.2222 45.3856 9.31336 46.8334C8.40455 48.2812 7.92574 49.9574 7.93269 51.6668V64.889C7.93269 65.4784 8.16682 66.0436 8.58357 66.4604C9.00031 66.8771 9.56554 67.1112 10.1549 67.1112C10.7443 67.1112 11.3095 66.8771 11.7263 66.4604C12.143 66.0436 12.3771 65.4784 12.3771 64.889V51.6668C12.3578 50.8017 12.5914 49.9498 13.0493 49.2155C13.5072 48.4813 14.1695 47.8967 14.9549 47.5335C21.7111 44.4139 29.069 42.8134 36.5105 42.8446C40.6801 42.8393 44.8354 43.3316 48.8882 44.3112V39.7779Z" fill="#FABD47"/>
<path d="M73.7102 47.7106H62.2214V52.155H71.488V70.755H39.9991V52.155H53.9991V53.0883C53.9991 53.6777 54.2333 54.2429 54.65 54.6597C55.0668 55.0764 55.632 55.3106 56.2214 55.3106C56.8107 55.3106 57.376 55.0764 57.7927 54.6597C58.2094 54.2429 58.4436 53.6777 58.4436 53.0883V44.4439C58.4436 43.8545 58.2094 43.2893 57.7927 42.8726C57.376 42.4558 56.8107 42.2217 56.2214 42.2217C55.632 42.2217 55.0668 42.4558 54.65 42.8726C54.2333 43.2893 53.9991 43.8545 53.9991 44.4439V47.7106H37.7769C37.1875 47.7106 36.6223 47.9447 36.2056 48.3614C35.7888 48.7782 35.5547 49.3434 35.5547 49.9328V72.9772C35.5547 73.5666 35.7888 74.1318 36.2056 74.5486C36.6223 74.9653 37.1875 75.1995 37.7769 75.1995H73.7102C74.2996 75.1995 74.8648 74.9653 75.2816 74.5486C75.6983 74.1318 75.9325 73.5666 75.9325 72.9772V49.9328C75.9325 49.3434 75.6983 48.7782 75.2816 48.3614C74.8648 47.9447 74.2996 47.7106 73.7102 47.7106Z" fill="#FABD47"/>
<path d="M48.9004 60.7004L54.4008 66.0004L65.4004 55.4004" stroke="#FABD47" stroke-width="3.6" stroke-linecap="round" stroke-linejoin="round"/>
<path d="M73.1328 15.2298C73.0209 14.8823 72.7383 14.6167 72.3848 14.5266L67.2292 13.2112L64.409 8.69918C64.2155 8.38965 63.8766 8.20117 63.5116 8.2002C63.5106 8.2002 63.5097 8.2002 63.5088 8.2002C63.1448 8.2002 62.8061 8.38658 62.6115 8.69429L59.7674 13.191L54.6048 14.4787C54.2506 14.567 53.9668 14.8311 53.8529 15.1779C53.7391 15.5247 53.8116 15.9057 54.0447 16.1866L57.4428 20.2812L57.0723 25.5889C57.0468 25.9532 57.2103 26.3047 57.5049 26.52C57.7996 26.7353 58.1846 26.7843 58.5235 26.6494L63.4676 24.6831L68.4011 26.6757C68.5294 26.7275 68.6643 26.753 68.7986 26.753C69.0187 26.753 69.2367 26.6846 69.4205 26.552C69.7163 26.3382 69.8816 25.9874 69.8582 25.6231L69.5158 20.3134L72.9355 16.2373C73.1701 15.9577 73.2447 15.5773 73.1328 15.2298ZM67.6155 19.275C67.44 19.4841 67.3519 19.753 67.3695 20.0256L67.6306 24.0748L63.8683 22.5552C63.7409 22.5037 63.6058 22.4779 63.4707 22.4779C63.3375 22.4779 63.2043 22.5029 63.0785 22.553L59.308 24.0526L59.5908 20.0049C59.6097 19.7324 59.5229 19.4632 59.3487 19.2529L56.7573 16.1304L60.6944 15.1483C60.9594 15.0822 61.1887 14.9165 61.3348 14.6857L63.5036 11.2564L65.6542 14.6973C65.7989 14.9289 66.0273 15.0958 66.292 15.1633L70.2237 16.1663L67.6155 19.275Z" fill="#FABD47"/>
<path d="M57.1123 4.00658C56.9878 3.76223 56.7465 3.59905 56.4735 3.5744L53.6346 3.3182L51.7585 1.17209C51.578 0.965599 51.3044 0.866284 51.0333 0.909282C50.7625 0.952175 50.5327 1.13119 50.4249 1.38331L49.3039 4.00406L46.6831 5.12504C46.431 5.23285 46.2519 5.46263 46.2091 5.73341C46.1662 6.00419 46.2654 6.27812 46.4719 6.4586L48.618 8.33477L48.8742 11.1737C48.8988 11.4467 49.0621 11.688 49.3064 11.8124C49.4203 11.8705 49.5444 11.8993 49.6683 11.8993C49.8099 11.8993 49.9515 11.8615 50.0771 11.7864L52.5245 10.325L55.3036 10.9586C55.5709 11.0196 55.8508 10.9389 56.0448 10.745C56.2387 10.5512 56.3195 10.2712 56.2584 10.0039L55.6249 7.2248L57.0863 4.77739C57.227 4.54206 57.2368 4.25093 57.1123 4.00658ZM53.9991 7.26769L54.4217 9.12183L52.5676 8.6992C52.3678 8.65368 52.1577 8.68682 51.9815 8.79201L50.3487 9.7669L50.1777 7.87291C50.1593 7.66851 50.0628 7.47922 49.9083 7.34425L48.4765 6.0926L50.225 5.34465C50.4137 5.2639 50.5639 5.11372 50.6446 4.92505L51.3926 3.17652L52.6442 4.60834C52.7793 4.76282 52.9685 4.8593 53.1729 4.87776L55.067 5.0487L54.0921 6.68156C53.9868 6.85775 53.9535 7.0676 53.9991 7.26769Z" fill="#FABD47"/>
<path d="M71.7528 36.2321L69.3217 33.3184L69.5758 29.5322C69.6003 29.168 69.4359 28.8168 69.1405 28.6023C68.8451 28.3877 68.4602 28.3398 68.1216 28.4758L64.5993 29.8874L61.0769 28.4758C60.7381 28.3398 60.3532 28.3875 60.058 28.6023C59.7627 28.8168 59.5983 29.168 59.6227 29.5322L59.8768 33.3184L57.4457 36.2321C57.2118 36.5123 57.1384 36.8931 57.2512 37.2404C57.364 37.5874 57.6473 37.8524 58.0011 37.9416L61.6805 38.8699L63.7003 42.0826C63.8946 42.3917 64.234 42.5792 64.5991 42.5792C64.9642 42.5792 65.3036 42.3917 65.4978 42.0826L67.5178 38.8699L71.1972 37.9416C71.5511 37.8524 71.8342 37.5874 71.947 37.2402C72.0601 36.8931 71.9867 36.5123 71.7528 36.2321ZM66.586 36.9152C66.3211 36.9821 66.0923 37.1482 65.9468 37.3794L64.5991 39.5228L63.2516 37.3794C63.1062 37.1481 62.8773 36.9818 62.6124 36.9152L60.1576 36.2959L61.7796 34.3521C61.9545 34.1424 62.0421 33.8734 62.0238 33.6007L61.8542 31.0747L64.2042 32.0165C64.4577 32.1182 64.7406 32.1182 64.994 32.0165L67.344 31.0747L67.1743 33.6007C67.156 33.8733 67.2436 34.1423 67.4185 34.3521L69.0405 36.296L66.586 36.9152Z" fill="#FABD47"/>
</svg>
