<svg width="325" height="318" viewBox="0 0 325 318" fill="none" xmlns="http://www.w3.org/2000/svg">
<g clip-path="url(#clip0_1656_1727)">
<g clip-path="url(#clip1_1656_1727)">
<path d="M124.074 381.771C124.059 381.795 124.041 381.817 124.021 381.836C124 381.854 123.977 381.869 123.953 381.882C123.017 382.082 55.8302 390.561 55.1429 390.553L13.343 335.396C13.3434 335.311 13.3516 335.226 13.3674 335.142C13.4343 334.956 13.5056 334.773 13.5815 334.593C22.4403 313.534 31.3053 292.479 40.1764 271.427C40.1904 271.403 40.209 271.382 40.231 271.365C40.2412 271.341 40.2769 271.33 40.345 271.277C40.6474 271.233 41.0127 271.182 41.3715 271.14L97.8593 263.989C101.259 263.564 104.653 263.135 108.041 262.702C109.194 262.561 108.94 262.441 109.692 263.416C110.32 264.249 110.942 265.079 111.57 265.897C124.531 282.99 137.488 300.083 150.443 317.177C150.61 317.401 150.769 317.63 150.908 317.822C150.906 317.896 150.896 317.97 150.877 318.042C142.063 338.996 133.252 359.953 124.446 380.913C124.337 381.199 124.205 381.479 124.074 381.771ZM44.7047 372.982C46.999 376.031 49.3009 379.071 51.6105 382.102L55.6763 387.461C55.7677 387.568 55.8523 387.681 55.9297 387.798C56.0049 387.933 56.123 388.038 56.2652 388.098C56.4074 388.158 56.5655 388.169 56.7144 388.128C58.02 387.95 59.3254 387.806 60.6358 387.629L120.126 380.096C120.465 380.091 120.801 380.027 121.118 379.908C121.091 379.808 121.092 379.718 121.046 379.659C117.105 374.448 113.162 369.237 109.16 363.961C87.5011 366.708 65.8724 369.448 44.2742 372.181C44.3252 372.488 44.4766 372.77 44.7047 372.982ZM113.216 351.253C114.367 348.517 115.521 345.775 116.677 343.027C116.794 342.747 116.901 342.459 117.026 342.136L105.231 326.58C105.17 326.509 105.102 326.443 105.029 326.384C104.804 326.406 104.78 326.564 104.726 326.68C104.65 326.861 104.573 327.042 104.497 327.223C99.4603 339.196 94.423 351.17 89.3855 363.145L89.0188 364.017C89.1878 364.088 89.2521 364.138 89.2868 364.13C95.7644 363.319 102.233 362.507 108.693 361.693C109.012 361.449 109.077 361.105 109.205 360.8C110.546 357.607 111.876 354.432 113.216 351.253ZM47.0405 362.153L44.2329 368.827C44.114 369.11 43.9962 369.39 43.9 369.659C44.1177 369.918 44.3519 369.801 44.5591 369.774C46.311 369.564 48.0616 369.344 49.8106 369.113C61.678 367.615 73.5456 366.113 85.4134 364.609C85.6894 364.575 85.966 364.532 86.265 364.49C86.3757 364.281 86.489 364.092 86.5778 363.888C88.9811 358.175 91.3851 352.461 93.7898 346.744C93.872 346.549 93.9157 346.337 93.9844 346.113C93.8897 346.08 93.7908 346.06 93.6906 346.055C79.6818 347.829 65.6948 349.601 51.7296 351.371C51.4815 351.601 51.3052 351.898 51.2221 352.226C49.8227 355.535 48.4289 358.844 47.0405 362.153ZM95.5322 342.609C97.3707 338.239 99.2093 333.868 101.048 329.498C101.688 327.975 102.332 326.446 102.978 324.91C103.097 324.628 103.2 324.341 103.299 324.093C102.967 323.476 91.3164 308.037 90.4603 307.066C90.1633 306.941 89.8602 307.047 89.5623 307.086C84.4902 307.726 79.4265 308.369 74.3712 309.014C72.9236 309.199 71.4772 309.383 70.0319 309.567C69.7559 309.602 69.4807 309.648 69.1797 309.694C68.737 310.517 61.1865 328.533 61.0125 329.156C61.3506 329.764 73.3685 345.628 73.9382 346.206L95.0952 343.52C95.249 343.215 95.4022 342.918 95.5312 342.612L95.5322 342.609ZM16.4636 335.72L40.9915 368.094C41.1741 368.336 41.3627 368.563 41.6208 368.882C42.0482 368.15 49.1952 351.16 49.3935 350.405C40.9547 339.277 32.4964 328.119 24.0185 316.93C23.9149 316.809 23.805 316.694 23.6894 316.584C23.5978 316.693 23.5135 316.807 23.4372 316.927C23.3465 317.102 23.2848 317.289 23.2086 317.47C20.8906 322.98 18.5723 328.491 16.2536 334.003C15.8292 335.032 15.7946 334.845 16.4626 335.722L16.4636 335.72ZM41.1735 274.854C41.0211 275.216 40.8879 275.458 40.7812 275.712L24.9779 313.278C24.6934 313.954 24.6914 313.959 25.1488 314.561C28.1638 318.54 31.1788 322.518 34.1936 326.494L50.7039 348.277C50.8854 348.521 51.073 348.75 51.2627 348.975C52.0629 349.005 66.5609 347.232 70.6508 346.616C70.7821 346.595 70.9094 346.549 71.0687 346.508C71.0018 346.223 70.8544 345.964 70.6441 345.761C68.974 343.542 67.2989 341.33 65.6186 339.122C63.9923 336.975 62.3658 334.83 60.7389 332.684L45.1721 312.185C44.9691 311.918 44.7774 311.644 44.5594 311.344L53.2625 290.656L41.5139 275.139C41.407 275.036 41.2929 274.942 41.1725 274.856L41.1735 274.854ZM75.1978 289.167C75.1719 289.137 75.1434 289.11 75.1126 289.086C75.0913 289.07 75.0664 289.059 75.0402 289.055C74.8731 289.067 74.7046 289.076 74.5393 289.097C68.198 289.897 61.858 290.7 55.6268 291.494C55.5079 291.561 55.4838 291.571 55.4626 291.587C55.4422 291.608 55.4247 291.631 55.4108 291.656C55.3681 291.758 55.3027 291.853 55.2601 291.954C52.6265 298.214 49.993 304.474 47.3594 310.735C47.3329 310.812 47.3129 310.891 47.2998 310.971C47.5917 311.52 58.5545 326.028 59.2507 326.798C59.4352 326.819 59.4772 326.672 59.5339 326.55C59.6202 326.345 59.7086 326.135 59.7949 325.93C64.8223 313.979 69.849 302.03 74.8751 290.083C75.0254 289.798 75.1328 289.493 75.1937 289.176L75.1978 289.167ZM119.909 280.685L108.032 265.006L43.3949 273.208C43.3227 273.217 43.2588 273.281 43.1772 273.326C43.1889 273.412 43.2146 273.494 43.2532 273.571C47.1904 278.777 51.128 283.989 55.0213 289.117L55.1927 289.189C55.2194 289.198 55.2475 289.202 55.2757 289.201C62.2239 288.335 69.1753 287.463 76.1299 286.586C90.6972 284.736 105.264 282.884 119.829 281.029C119.855 281.02 119.88 281.008 119.902 280.991C119.925 280.976 119.943 280.955 119.977 280.927C119.952 280.839 119.952 280.743 119.909 280.685ZM120.33 283.419C120.025 283.359 119.711 283.371 119.411 283.454C116.044 283.873 112.679 284.297 109.314 284.725L78.9462 288.572C77.8121 288.715 77.9894 288.591 77.5628 289.605C75.2346 295.139 72.9065 300.673 70.5783 306.208C70.4205 306.468 70.3226 306.761 70.2917 307.065C70.5869 307.234 70.8626 307.106 71.139 307.077C75.1392 306.575 79.1416 306.069 83.1459 305.558C92.6547 304.351 102.163 303.141 111.671 301.927C112.806 301.785 112.639 301.951 113.114 300.829C115.42 295.348 117.726 289.865 120.033 284.38C120.198 284.086 120.299 283.76 120.328 283.424L120.33 283.419ZM112.949 304.139L93.5175 306.601C93.393 306.634 93.2717 306.678 93.1551 306.733C93.5495 307.485 94.1083 308.075 94.5901 308.727C95.0719 309.378 95.5674 310.024 96.0605 310.669L97.5323 312.616L99.0052 314.56L100.479 316.501L101.952 318.445C102.443 319.095 102.929 319.743 103.425 320.389C103.92 321.035 104.424 321.662 104.914 322.32C105.405 322.978 105.932 323.658 106.44 324.326C106.949 324.995 107.42 325.625 107.898 326.267L109.373 328.211L110.847 330.153L112.317 332.096L113.79 334.04L115.263 335.984L116.736 337.928C117.225 338.574 117.721 339.22 118.21 339.869C118.698 340.518 119.182 341.165 119.69 341.842L111.026 362.439C111.358 363.053 122.399 377.645 122.965 378.238C123.15 378.259 123.201 378.118 123.253 377.992C123.341 377.785 123.427 377.58 123.515 377.369C128.726 364.983 133.938 352.595 139.149 340.206C139.596 339.144 139.669 339.37 138.945 338.415L113.496 304.838C113.328 304.616 113.152 304.4 112.947 304.143L112.949 304.139ZM148.334 318.217C148.304 318.161 148.27 318.106 148.232 318.055L122.83 284.537C122.778 284.481 122.719 284.431 122.656 284.389C122.449 284.394 122.433 284.56 122.38 284.674C122.28 284.877 122.205 285.089 122.118 285.295L114.794 302.706C123.311 313.942 131.816 325.158 140.308 336.357C140.376 336.431 140.452 336.497 140.535 336.555C140.616 336.503 140.682 336.489 140.702 336.449C141.134 335.602 148.141 318.858 148.332 318.222L148.334 318.217Z" fill="#D7D8DD"/>
</g>
<g clip-path="url(#clip2_1656_1727)">
<path d="M109.562 264.263C109.548 264.287 109.53 264.309 109.509 264.329C109.488 264.346 109.466 264.361 109.442 264.374C108.505 264.574 41.3186 273.053 40.6313 273.046L-1.16858 217.888C-1.16816 217.803 -1.15998 217.718 -1.14414 217.634C-1.07727 217.448 -1.00592 217.265 -0.930076 217.085C7.92881 196.026 16.7938 174.971 25.6649 153.92C25.6789 153.895 25.6974 153.874 25.7195 153.857C25.7297 153.833 25.7654 153.823 25.8335 153.769C26.1359 153.725 26.5012 153.675 26.86 153.632L83.3477 146.481C86.7473 146.056 90.141 145.627 93.529 145.194C94.6821 145.054 94.4288 144.933 95.1807 145.908C95.8082 146.741 96.4309 147.571 97.0586 148.389C110.019 165.482 122.977 182.575 135.931 199.669C136.098 199.893 136.258 200.122 136.396 200.314C136.395 200.388 136.385 200.462 136.366 200.534C127.551 221.488 118.741 242.445 109.935 263.405C109.826 263.691 109.694 263.971 109.562 264.263ZM30.1932 255.474C32.4875 258.523 34.7894 261.563 37.0989 264.594L41.1648 269.954C41.2562 270.06 41.3408 270.173 41.4181 270.29C41.4934 270.425 41.6115 270.531 41.7537 270.59C41.8959 270.65 42.054 270.661 42.2029 270.62C43.5085 270.442 44.8139 270.298 46.1243 270.122L105.615 262.588C105.954 262.583 106.289 262.519 106.606 262.4C106.58 262.3 106.581 262.21 106.535 262.151C102.594 256.941 98.6503 251.729 94.6486 246.454C72.9895 249.201 51.3609 251.94 29.7627 254.673C29.8136 254.98 29.965 255.262 30.1932 255.474ZM98.7044 233.746C99.8556 231.009 101.009 228.267 102.165 225.519C102.283 225.239 102.39 224.951 102.514 224.628L90.7195 209.072C90.6583 209.001 90.5907 208.935 90.5176 208.876C90.2925 208.898 90.2688 209.056 90.2141 209.172C90.138 209.353 90.0618 209.534 89.9856 209.715C84.9487 221.689 79.9115 233.663 74.874 245.638L74.5073 246.509C74.6763 246.58 74.7406 246.63 74.7753 246.622C81.2529 245.812 87.7217 244.999 94.1818 244.185C94.5004 243.942 94.5659 243.597 94.6939 243.293C96.0343 240.099 97.3642 236.925 98.7044 233.746ZM32.5289 244.645L29.7213 251.319C29.6025 251.602 29.4847 251.882 29.3884 252.151C29.6062 252.41 29.8403 252.293 30.0476 252.266C31.7995 252.056 33.55 251.836 35.2991 251.605C47.1665 250.107 59.0341 248.605 70.9019 247.101C71.1779 247.067 71.4545 247.024 71.7535 246.982C71.8642 246.773 71.9775 246.585 72.0663 246.38C74.4696 240.667 76.8736 234.953 79.2782 229.237C79.3605 229.041 79.4042 228.829 79.4728 228.605C79.3782 228.572 79.2792 228.552 79.179 228.547C65.1703 230.321 51.1833 232.093 37.2181 233.863C36.9699 234.093 36.7937 234.39 36.7106 234.718C35.3112 238.027 33.9173 241.336 32.5289 244.645ZM81.0207 225.101C82.8592 220.731 84.6978 216.361 86.5363 211.99C87.1769 210.467 87.8202 208.938 88.4663 207.402C88.5851 207.12 88.6885 206.834 88.7872 206.585C88.4557 205.968 76.8048 190.529 75.9487 189.558C75.6517 189.433 75.3487 189.539 75.0507 189.578C69.9787 190.218 64.915 190.861 59.8596 191.506C58.4121 191.691 56.9656 191.875 55.5203 192.059C55.2443 192.094 54.9691 192.14 54.6681 192.187C54.2254 193.009 46.675 211.025 46.501 211.648C46.839 212.257 58.8569 228.12 59.4266 228.698L80.5837 226.012C80.7375 225.707 80.8906 225.41 81.0196 225.104L81.0207 225.101ZM1.95205 218.212L26.48 250.587C26.6625 250.828 26.8512 251.055 27.1092 251.374C27.5367 250.642 34.6837 233.653 34.8819 232.898C26.4432 221.769 17.9849 210.611 9.50697 199.422C9.40334 199.301 9.2935 199.186 9.17789 199.076C9.08626 199.185 9.00199 199.299 8.92564 199.419C8.83497 199.594 8.77327 199.781 8.69709 199.963C6.3791 205.473 4.06077 210.984 1.7421 216.495C1.31764 217.525 1.28301 217.337 1.95104 218.215L1.95205 218.212ZM26.6619 157.346C26.5096 157.708 26.3764 157.95 26.2697 158.204L10.4663 195.77C10.1819 196.446 10.1799 196.451 10.6372 197.053C13.6523 201.033 16.6672 205.01 19.6821 208.986L36.1923 230.769C36.3738 231.013 36.5615 231.243 36.7511 231.467C37.5514 231.497 52.0494 229.724 56.1393 229.108C56.2705 229.087 56.3978 229.041 56.5572 229C56.4903 228.715 56.3429 228.456 56.1325 228.253C54.4625 226.035 52.7873 223.822 51.107 221.614C49.4808 219.468 47.8543 217.322 46.2274 215.177L30.6606 194.677C30.4576 194.41 30.2659 194.136 30.0479 193.837L38.751 173.148L27.0023 157.631C26.8955 157.529 26.7814 157.434 26.6609 157.348L26.6619 157.346ZM60.6862 171.659C60.6604 171.629 60.6319 171.602 60.6011 171.578C60.5797 171.562 60.5549 171.551 60.5286 171.547C60.3615 171.559 60.1931 171.568 60.0278 171.589C53.6864 172.389 47.3465 173.192 41.1152 173.987C40.9963 174.053 40.9723 174.063 40.9511 174.079C40.9306 174.1 40.9132 174.123 40.8993 174.149C40.8566 174.25 40.7912 174.345 40.7485 174.446C38.115 180.706 35.4814 186.967 32.8479 193.227C32.8214 193.304 32.8014 193.383 32.7882 193.463C33.0801 194.012 44.043 208.52 44.7392 209.29C44.9237 209.311 44.9657 209.164 45.0223 209.043C45.1087 208.837 45.197 208.627 45.2834 208.422C50.3108 196.471 55.3375 184.522 60.3635 172.575C60.5139 172.29 60.6213 171.985 60.6822 171.669L60.6862 171.659ZM105.397 163.177L93.5203 147.498L28.8833 155.7C28.8112 155.709 28.7473 155.773 28.6657 155.819C28.6774 155.904 28.7031 155.987 28.7416 156.064C32.6788 161.269 36.6164 166.481 40.5098 171.609L40.6812 171.681C40.7078 171.69 40.736 171.694 40.7642 171.693C47.7124 170.827 54.6638 169.955 61.6183 169.078C76.1857 167.228 90.752 165.376 105.317 163.521C105.344 163.513 105.368 163.5 105.39 163.484C105.414 163.468 105.431 163.447 105.466 163.419C105.44 163.331 105.441 163.235 105.397 163.177ZM105.818 165.912C105.514 165.851 105.199 165.863 104.9 165.946C101.533 166.365 98.167 166.789 94.8021 167.217L64.4347 171.065C63.3005 171.207 63.4779 171.083 63.0512 172.097C60.7231 177.631 58.3949 183.165 56.0668 188.7C55.909 188.961 55.811 189.253 55.7801 189.557C56.0754 189.726 56.3511 189.598 56.6274 189.569C60.6277 189.068 64.63 188.561 68.6344 188.05C78.1431 186.844 87.6517 185.633 97.1599 184.419C98.2941 184.277 98.1277 184.443 98.6024 183.321C100.908 177.84 103.215 172.357 105.522 166.873C105.687 166.578 105.787 166.252 105.816 165.916L105.818 165.912ZM98.4378 186.631L79.006 189.094C78.8814 189.126 78.7601 189.171 78.6436 189.225C79.038 189.977 79.5968 190.567 80.0786 191.219C80.5604 191.87 81.0559 192.517 81.549 193.162L83.0208 195.108L84.4936 197.052L85.9675 198.993L87.4403 200.937C87.9314 201.587 88.4176 202.235 88.9131 202.881C89.4086 203.527 89.9123 204.154 90.4027 204.812C90.8932 205.47 91.4202 206.15 91.9289 206.818C92.4377 207.487 92.9087 208.117 93.3863 208.759L94.8615 210.704L96.3354 212.645L97.8058 214.588L99.2786 216.532L100.751 218.476L102.224 220.42C102.714 221.066 103.209 221.712 103.698 222.361C104.187 223.01 104.671 223.657 105.179 224.334L96.5141 244.931C96.8467 245.545 107.888 260.137 108.454 260.73C108.638 260.751 108.689 260.61 108.742 260.485C108.829 260.277 108.916 260.072 109.004 259.862C114.215 247.475 119.426 235.087 124.638 222.698C125.085 221.636 125.157 221.862 124.433 220.907L98.9849 187.33C98.8166 187.108 98.6404 186.892 98.4357 186.636L98.4378 186.631ZM133.823 200.709C133.792 200.653 133.758 200.599 133.72 200.547L108.318 167.029C108.266 166.973 108.208 166.923 108.144 166.882C107.938 166.886 107.922 167.052 107.868 167.166C107.769 167.369 107.693 167.582 107.607 167.787L100.282 185.199C108.799 196.434 117.304 207.651 125.797 218.849C125.865 218.923 125.941 218.99 126.023 219.047C126.104 218.996 126.17 218.981 126.19 218.941C126.623 218.094 133.63 201.35 133.821 200.714L133.823 200.709Z" fill="#D7D8DD"/>
</g>
<g clip-path="url(#clip3_1656_1727)">
<path d="M218.221 309.973C218.206 309.997 218.188 310.019 218.167 310.039C218.147 310.056 218.124 310.071 218.1 310.084C217.163 310.284 149.977 318.763 149.29 318.756L107.49 263.598C107.49 263.513 107.498 263.428 107.514 263.344C107.581 263.158 107.652 262.975 107.728 262.795C116.587 241.736 125.452 220.681 134.323 199.63C134.337 199.605 134.356 199.584 134.378 199.567C134.388 199.543 134.424 199.533 134.492 199.479C134.794 199.435 135.159 199.385 135.518 199.342L192.006 192.191C195.405 191.766 198.799 191.337 202.187 190.904C203.34 190.764 203.087 190.643 203.839 191.618C204.466 192.451 205.089 193.281 205.717 194.099C218.677 211.192 231.635 228.285 244.589 245.379C244.757 245.603 244.916 245.832 245.054 246.024C245.053 246.098 245.043 246.172 245.024 246.244C236.209 267.198 227.399 288.155 218.593 309.115C218.484 309.401 218.352 309.681 218.221 309.973ZM138.851 301.184C141.146 304.233 143.448 307.273 145.757 310.304L149.823 315.664C149.914 315.77 149.999 315.883 150.076 316C150.152 316.135 150.27 316.241 150.412 316.3C150.554 316.36 150.712 316.371 150.861 316.33C152.167 316.152 153.472 316.008 154.782 315.832L214.273 308.298C214.612 308.293 214.947 308.229 215.264 308.11C215.238 308.01 215.239 307.92 215.193 307.861C211.252 302.65 207.308 297.439 203.307 292.164C181.648 294.91 160.019 297.65 138.421 300.383C138.472 300.69 138.623 300.972 138.851 301.184ZM207.363 279.455C208.514 276.719 209.667 273.977 210.823 271.229C210.941 270.949 211.048 270.661 211.172 270.338L199.378 254.782C199.317 254.711 199.249 254.645 199.176 254.586C198.951 254.608 198.927 254.766 198.872 254.882C198.796 255.063 198.72 255.244 198.644 255.425C193.607 267.399 188.57 279.373 183.532 291.347L183.165 292.219C183.334 292.29 183.399 292.34 183.433 292.332C189.911 291.522 196.38 290.709 202.84 289.895C203.159 289.651 203.224 289.307 203.352 289.002C204.693 285.809 206.022 282.635 207.363 279.455ZM141.187 290.355L138.38 297.029C138.261 297.312 138.143 297.592 138.047 297.861C138.264 298.12 138.499 298.003 138.706 297.976C140.458 297.766 142.208 297.546 143.957 297.315C155.825 295.817 167.692 294.315 179.56 292.811C179.836 292.777 180.113 292.734 180.412 292.692C180.522 292.483 180.636 292.295 180.724 292.09C183.128 286.377 185.532 280.663 187.936 274.947C188.019 274.751 188.062 274.539 188.131 274.315C188.036 274.282 187.937 274.262 187.837 274.257C173.828 276.031 159.842 277.803 145.876 279.573C145.628 279.803 145.452 280.1 145.369 280.428C143.969 283.737 142.576 287.046 141.187 290.355ZM189.679 270.811C191.517 266.441 193.356 262.07 195.195 257.7C195.835 256.177 196.478 254.648 197.124 253.112C197.243 252.83 197.347 252.544 197.445 252.295C197.114 251.678 185.463 236.239 184.607 235.268C184.31 235.143 184.007 235.249 183.709 235.288C178.637 235.928 173.573 236.571 168.518 237.216C167.07 237.401 165.624 237.585 164.179 237.769C163.903 237.804 163.627 237.85 163.326 237.897C162.884 238.719 155.333 256.735 155.159 257.358C155.497 257.967 167.515 273.83 168.085 274.408L189.242 271.722C189.396 271.417 189.549 271.12 189.678 270.814L189.679 270.811ZM110.61 263.922L135.138 296.297C135.321 296.538 135.509 296.765 135.767 297.084C136.195 296.352 143.342 279.363 143.54 278.608C135.101 267.479 126.643 256.321 118.165 245.132C118.062 245.011 117.952 244.896 117.836 244.786C117.744 244.895 117.66 245.009 117.584 245.129C117.493 245.304 117.431 245.491 117.355 245.672C115.037 251.183 112.719 256.694 110.4 262.205C109.976 263.235 109.941 263.047 110.609 263.924L110.61 263.922ZM135.32 203.056C135.168 203.418 135.035 203.66 134.928 203.914L119.125 241.48C118.84 242.156 118.838 242.161 119.295 242.763C122.311 246.742 125.325 250.72 128.34 254.696L144.851 276.479C145.032 276.723 145.22 276.953 145.409 277.177C146.21 277.207 160.708 275.434 164.797 274.818C164.929 274.797 165.056 274.751 165.215 274.71C165.149 274.425 165.001 274.166 164.791 273.963C163.121 271.745 161.446 269.532 159.765 267.324C158.139 265.178 156.512 263.032 154.886 260.887L139.319 240.387C139.116 240.12 138.924 239.846 138.706 239.547L147.409 218.858L135.661 203.341C135.554 203.239 135.44 203.144 135.319 203.058L135.32 203.056ZM169.344 217.369C169.319 217.339 169.29 217.312 169.259 217.288C169.238 217.272 169.213 217.261 169.187 217.257C169.02 217.269 168.851 217.278 168.686 217.299C162.345 218.099 156.005 218.902 149.773 219.696C149.655 219.763 149.631 219.773 149.609 219.789C149.589 219.81 149.571 219.833 149.557 219.859C149.515 219.96 149.449 220.055 149.407 220.156C146.773 226.416 144.14 232.677 141.506 238.937C141.48 239.014 141.46 239.093 141.446 239.173C141.738 239.722 152.701 254.23 153.397 255C153.582 255.021 153.624 254.874 153.681 254.753C153.767 254.547 153.855 254.337 153.942 254.132C158.969 242.181 163.996 230.232 169.022 218.285C169.172 218 169.279 217.695 169.34 217.379L169.344 217.369ZM214.055 208.887L202.179 193.208L137.542 201.41C137.469 201.419 137.405 201.483 137.324 201.528C137.336 201.614 137.361 201.697 137.4 201.774C141.337 206.979 145.275 212.191 149.168 217.319L149.339 217.391C149.366 217.4 149.394 217.404 149.422 217.403C156.371 216.537 163.322 215.665 170.277 214.788C184.844 212.938 199.41 211.086 213.976 209.231C214.002 209.223 214.026 209.21 214.048 209.194C214.072 209.178 214.089 209.157 214.124 209.129C214.098 209.041 214.099 208.945 214.055 208.887ZM214.476 211.622C214.172 211.561 213.857 211.573 213.558 211.656C210.191 212.075 206.825 212.499 203.46 212.927L173.093 216.775C171.959 216.917 172.136 216.793 171.709 217.807C169.381 223.341 167.053 228.875 164.725 234.41C164.567 234.671 164.469 234.963 164.438 235.267C164.734 235.436 165.009 235.308 165.286 235.279C169.286 234.778 173.288 234.271 177.293 233.76C186.801 232.554 196.31 231.343 205.818 230.129C206.952 229.987 206.786 230.153 207.261 229.031C209.566 223.55 211.873 218.067 214.18 212.583C214.345 212.288 214.445 211.962 214.474 211.626L214.476 211.622ZM207.096 232.341L187.664 234.804C187.54 234.836 187.418 234.88 187.302 234.935C187.696 235.687 188.255 236.277 188.737 236.929C189.219 237.58 189.714 238.226 190.207 238.872L191.679 240.818L193.152 242.762L194.626 244.703L196.099 246.647C196.59 247.297 197.076 247.945 197.571 248.591C198.067 249.237 198.57 249.864 199.061 250.522C199.551 251.18 200.078 251.86 200.587 252.528C201.096 253.197 201.567 253.827 202.044 254.469L203.52 256.414L204.994 258.355L206.464 260.298L207.937 262.242L209.41 264.186L210.882 266.13C211.372 266.776 211.868 267.422 212.356 268.071C212.845 268.72 213.329 269.367 213.837 270.044L205.172 290.641C205.505 291.255 216.546 305.847 217.112 306.44C217.297 306.461 217.347 306.32 217.4 306.195C217.487 305.987 217.574 305.782 217.662 305.572C222.873 293.185 228.084 280.797 233.296 268.408C233.743 267.346 233.815 267.572 233.092 266.617L207.643 233.04C207.475 232.818 207.299 232.602 207.094 232.346L207.096 232.341ZM242.481 246.419C242.451 246.363 242.417 246.309 242.379 246.257L216.976 212.739C216.924 212.683 216.866 212.633 216.802 212.592C216.596 212.596 216.58 212.762 216.526 212.876C216.427 213.079 216.351 213.291 216.265 213.497L208.94 230.908C217.457 242.144 225.962 253.361 234.455 264.559C234.523 264.633 234.599 264.699 234.681 264.757C234.763 264.706 234.829 264.691 234.848 264.651C235.281 263.804 242.288 247.06 242.479 246.424L242.481 246.419Z" fill="#D7D8DD"/>
</g>
<g clip-path="url(#clip4_1656_1727)">
<path d="M233.761 427.061C233.746 427.085 233.728 427.107 233.707 427.126C233.687 427.144 233.664 427.159 233.64 427.172C232.703 427.372 165.517 435.851 164.83 435.844L123.03 380.686C123.03 380.601 123.038 380.516 123.054 380.432C123.121 380.246 123.192 380.063 123.268 379.883C132.127 358.824 140.992 337.769 149.863 316.717C149.877 316.693 149.896 316.672 149.918 316.655C149.928 316.631 149.964 316.62 150.032 316.567C150.334 316.523 150.699 316.472 151.058 316.43L207.546 309.279C210.946 308.854 214.339 308.425 217.727 307.992C218.88 307.851 218.627 307.731 219.379 308.706C220.006 309.539 220.629 310.369 221.257 311.187C234.217 328.28 247.175 345.373 260.129 362.467C260.297 362.691 260.456 362.92 260.594 363.112C260.593 363.186 260.583 363.26 260.564 363.332C251.749 384.286 242.939 405.243 234.133 426.203C234.024 426.489 233.892 426.769 233.761 427.061ZM154.391 418.272C156.686 421.321 158.988 424.361 161.297 427.392L165.363 432.751C165.454 432.858 165.539 432.971 165.616 433.088C165.692 433.223 165.81 433.329 165.952 433.388C166.094 433.448 166.252 433.459 166.401 433.418C167.707 433.24 169.012 433.096 170.323 432.919L229.813 425.386C230.152 425.381 230.487 425.317 230.804 425.198C230.778 425.098 230.779 425.008 230.733 424.949C226.792 419.738 222.849 414.527 218.847 409.251C197.188 411.998 175.559 414.738 153.961 417.471C154.012 417.778 154.163 418.06 154.391 418.272ZM222.903 396.543C224.054 393.807 225.207 391.065 226.363 388.317C226.481 388.037 226.588 387.749 226.712 387.426L214.918 371.87C214.857 371.799 214.789 371.733 214.716 371.674C214.491 371.696 214.467 371.854 214.412 371.97C214.336 372.151 214.26 372.332 214.184 372.513C209.147 384.486 204.11 396.461 199.072 408.435L198.706 409.307C198.875 409.378 198.939 409.428 198.974 409.42C205.451 408.609 211.92 407.797 218.38 406.983C218.699 406.739 218.764 406.395 218.892 406.09C220.233 402.897 221.562 399.722 222.903 396.543ZM156.727 407.443L153.92 414.117C153.801 414.4 153.683 414.68 153.587 414.949C153.804 415.208 154.039 415.091 154.246 415.064C155.998 414.854 157.748 414.634 159.497 414.403C171.365 412.905 183.232 411.403 195.1 409.899C195.376 409.865 195.653 409.822 195.952 409.78C196.062 409.571 196.176 409.382 196.264 409.178C198.668 403.465 201.072 397.751 203.476 392.034C203.559 391.839 203.602 391.627 203.671 391.403C203.576 391.37 203.477 391.35 203.377 391.345C189.369 393.119 175.382 394.891 161.416 396.661C161.168 396.891 160.992 397.188 160.909 397.516C159.509 400.825 158.116 404.134 156.727 407.443ZM205.219 387.899C207.057 383.529 208.896 379.158 210.735 374.788C211.375 373.265 212.018 371.736 212.665 370.2C212.783 369.918 212.887 369.631 212.985 369.383C212.654 368.766 201.003 353.327 200.147 352.356C199.85 352.231 199.547 352.337 199.249 352.376C194.177 353.016 189.113 353.659 184.058 354.304C182.61 354.489 181.164 354.673 179.719 354.857C179.443 354.892 179.167 354.938 178.866 354.985C178.424 355.807 170.873 373.823 170.699 374.446C171.037 375.054 183.055 390.918 183.625 391.496L204.782 388.81C204.936 388.505 205.089 388.208 205.218 387.902L205.219 387.899ZM126.15 381.01L150.678 413.384C150.861 413.626 151.049 413.853 151.307 414.172C151.735 413.44 158.882 396.45 159.08 395.695C150.641 384.567 142.183 373.409 133.705 362.22C133.602 362.099 133.492 361.984 133.376 361.874C133.285 361.983 133.2 362.097 133.124 362.217C133.033 362.392 132.972 362.579 132.895 362.76C130.577 368.271 128.259 373.781 125.94 379.293C125.516 380.322 125.481 380.135 126.149 381.012L126.15 381.01ZM150.86 320.144C150.708 320.506 150.575 320.748 150.468 321.002L134.665 358.568C134.38 359.244 134.378 359.249 134.835 359.851C137.851 363.83 140.865 367.808 143.88 371.784L160.391 393.567C160.572 393.811 160.76 394.04 160.949 394.265C161.75 394.295 176.248 392.522 180.338 391.906C180.469 391.885 180.596 391.839 180.755 391.798C180.689 391.513 180.541 391.254 180.331 391.051C178.661 388.832 176.986 386.62 175.305 384.412C173.679 382.266 172.052 380.12 170.426 377.974L154.859 357.475C154.656 357.208 154.464 356.934 154.246 356.634L162.949 335.946L151.201 320.429C151.094 320.327 150.98 320.232 150.859 320.146L150.86 320.144ZM184.884 334.457C184.859 334.427 184.83 334.4 184.799 334.376C184.778 334.36 184.753 334.349 184.727 334.345C184.56 334.357 184.391 334.366 184.226 334.387C177.885 335.187 171.545 335.99 165.313 336.784C165.195 336.851 165.171 336.861 165.149 336.877C165.129 336.898 165.111 336.921 165.098 336.946C165.055 337.048 164.989 337.143 164.947 337.244C162.313 343.504 159.68 349.765 157.046 356.025C157.02 356.102 157 356.181 156.986 356.261C157.278 356.81 168.241 371.318 168.937 372.088C169.122 372.109 169.164 371.962 169.221 371.84C169.307 371.635 169.395 371.425 169.482 371.22C174.509 359.269 179.536 347.32 184.562 335.373C184.712 335.088 184.82 334.783 184.88 334.466L184.884 334.457ZM229.595 325.975L217.719 310.296L153.082 318.498C153.009 318.507 152.946 318.571 152.864 318.616C152.876 318.702 152.901 318.784 152.94 318.861C156.877 324.067 160.815 329.279 164.708 334.407L164.879 334.479C164.906 334.488 164.934 334.492 164.962 334.491C171.911 333.625 178.862 332.753 185.817 331.876C200.384 330.026 214.95 328.174 229.516 326.319C229.542 326.31 229.566 326.298 229.588 326.282C229.612 326.266 229.629 326.245 229.664 326.217C229.638 326.129 229.639 326.033 229.595 325.975ZM230.016 328.71C229.712 328.649 229.397 328.661 229.098 328.744C225.731 329.163 222.365 329.587 219 330.015L188.633 333.862C187.499 334.005 187.676 333.881 187.249 334.895C184.921 340.429 182.593 345.963 180.265 351.498C180.107 351.759 180.009 352.051 179.978 352.355C180.274 352.524 180.549 352.396 180.826 352.367C184.826 351.866 188.828 351.359 192.833 350.848C202.341 349.641 211.85 348.431 221.358 347.217C222.492 347.075 222.326 347.241 222.801 346.119C225.106 340.638 227.413 335.155 229.72 329.67C229.885 329.376 229.985 329.05 230.014 328.714L230.016 328.71ZM222.636 349.429L203.204 351.891C203.08 351.924 202.958 351.968 202.842 352.023C203.236 352.775 203.795 353.365 204.277 354.017C204.759 354.668 205.254 355.314 205.747 355.959L207.219 357.906L208.692 359.85L210.166 361.791L211.639 363.735C212.13 364.385 212.616 365.033 213.111 365.679C213.607 366.325 214.111 366.952 214.601 367.61C215.091 368.268 215.618 368.948 216.127 369.616C216.636 370.285 217.107 370.915 217.585 371.557L219.06 373.501L220.534 375.443L222.004 377.386L223.477 379.33L224.95 381.274L226.422 383.218C226.912 383.864 227.408 384.51 227.896 385.159C228.385 385.808 228.869 386.455 229.377 387.132L220.712 407.729C221.045 408.343 232.086 422.935 232.652 423.528C232.837 423.549 232.887 423.408 232.94 423.282C233.027 423.075 233.114 422.87 233.202 422.66C238.413 410.273 243.624 397.885 248.836 385.496C249.283 384.434 249.355 384.66 248.632 383.705L223.183 350.128C223.015 349.906 222.839 349.69 222.634 349.433L222.636 349.429ZM258.021 363.507C257.991 363.451 257.957 363.396 257.919 363.345L232.516 329.827C232.464 329.771 232.406 329.721 232.342 329.679C232.136 329.684 232.12 329.85 232.066 329.964C231.967 330.167 231.892 330.379 231.805 330.585L224.48 347.996C232.997 359.232 241.502 370.448 249.995 381.647C250.063 381.721 250.139 381.787 250.221 381.845C250.303 381.794 250.369 381.779 250.388 381.739C250.821 380.892 257.828 364.148 258.019 363.512L258.021 363.507Z" fill="#D7D8DD"/>
</g>
<g clip-path="url(#clip5_1656_1727)">
<path d="M327.907 355.263C327.892 355.287 327.874 355.309 327.854 355.329C327.833 355.346 327.81 355.361 327.786 355.374C326.85 355.574 259.663 364.053 258.976 364.046L217.176 308.888C217.176 308.803 217.185 308.718 217.2 308.634C217.267 308.448 217.339 308.265 217.415 308.085C226.273 287.026 235.138 265.971 244.009 244.92C244.023 244.895 244.042 244.874 244.064 244.857C244.074 244.833 244.11 244.823 244.178 244.769C244.48 244.725 244.846 244.675 245.205 244.632L301.692 237.481C305.092 237.056 308.486 236.627 311.874 236.194C313.027 236.054 312.773 235.933 313.525 236.908C314.153 237.741 314.775 238.571 315.403 239.389C328.364 256.482 341.321 273.575 354.276 290.669C354.443 290.893 354.602 291.122 354.741 291.314C354.739 291.388 354.729 291.462 354.71 291.534C345.896 312.488 337.085 333.445 328.279 354.405C328.17 354.691 328.038 354.971 327.907 355.263ZM248.538 346.474C250.832 349.523 253.134 352.563 255.444 355.594L259.509 360.954C259.601 361.06 259.685 361.173 259.763 361.29C259.838 361.425 259.956 361.531 260.098 361.59C260.24 361.65 260.399 361.661 260.547 361.62C261.853 361.442 263.159 361.298 264.469 361.122L323.959 353.588C324.298 353.583 324.634 353.519 324.951 353.4C324.924 353.3 324.925 353.21 324.879 353.151C320.938 347.941 316.995 342.729 312.993 337.454C291.334 340.201 269.705 342.94 248.107 345.673C248.158 345.98 248.31 346.262 248.538 346.474ZM317.049 324.746C318.2 322.009 319.354 319.267 320.51 316.519C320.628 316.239 320.734 315.951 320.859 315.628L309.064 300.072C309.003 300.001 308.935 299.935 308.862 299.876C308.637 299.898 308.613 300.056 308.559 300.172C308.483 300.353 308.406 300.534 308.33 300.715C303.293 312.689 298.256 324.663 293.219 336.638L292.852 337.509C293.021 337.58 293.085 337.63 293.12 337.622C299.597 336.812 306.066 335.999 312.526 335.185C312.845 334.942 312.911 334.597 313.038 334.293C314.379 331.099 315.709 327.925 317.049 324.746ZM250.874 335.645L248.066 342.319C247.947 342.602 247.829 342.882 247.733 343.151C247.951 343.41 248.185 343.293 248.392 343.266C250.144 343.056 251.895 342.836 253.644 342.605C265.511 341.107 277.379 339.605 289.247 338.101C289.522 338.067 289.799 338.024 290.098 337.982C290.209 337.773 290.322 337.585 290.411 337.38C292.814 331.667 295.218 325.953 297.623 320.237C297.705 320.041 297.749 319.829 297.817 319.605C297.723 319.572 297.624 319.552 297.524 319.547C283.515 321.321 269.528 323.093 255.563 324.863C255.315 325.093 255.138 325.39 255.055 325.718C253.656 329.027 252.262 332.336 250.874 335.645ZM299.365 316.101C301.204 311.731 303.042 307.361 304.881 302.99C305.522 301.467 306.165 299.938 306.811 298.402C306.93 298.12 307.033 297.834 307.132 297.585C306.8 296.968 295.149 281.529 294.293 280.558C293.996 280.433 293.693 280.539 293.395 280.578C288.323 281.218 283.26 281.861 278.204 282.506C276.757 282.691 275.31 282.875 273.865 283.059C273.589 283.094 273.314 283.14 273.013 283.187C272.57 284.009 265.02 302.025 264.846 302.648C265.184 303.257 277.202 319.12 277.771 319.698L298.928 317.012C299.082 316.707 299.235 316.41 299.364 316.104L299.365 316.101ZM220.297 309.212L244.825 341.587C245.007 341.828 245.196 342.055 245.454 342.374C245.881 341.642 253.028 324.653 253.227 323.898C244.788 312.769 236.329 301.611 227.852 290.422C227.748 290.301 227.638 290.186 227.522 290.076C227.431 290.185 227.347 290.299 227.27 290.419C227.18 290.594 227.118 290.781 227.042 290.963C224.724 296.473 222.405 301.984 220.087 307.495C219.662 308.525 219.628 308.337 220.296 309.215L220.297 309.212ZM245.007 248.346C244.854 248.708 244.721 248.95 244.614 249.204L228.811 286.77C228.527 287.446 228.524 287.451 228.982 288.053C231.997 292.033 235.012 296.01 238.027 299.986L254.537 321.769C254.718 322.013 254.906 322.243 255.096 322.467C255.896 322.497 270.394 320.724 274.484 320.108C274.615 320.087 274.742 320.041 274.902 320C274.835 319.715 274.687 319.456 274.477 319.253C272.807 317.035 271.132 314.822 269.452 312.614C267.825 310.468 266.199 308.322 264.572 306.177L249.005 285.677C248.802 285.41 248.61 285.136 248.392 284.837L257.096 264.148L245.347 248.631C245.24 248.529 245.126 248.434 245.006 248.348L245.007 248.346ZM279.031 262.659C279.005 262.629 278.976 262.602 278.946 262.578C278.924 262.562 278.899 262.551 278.873 262.547C278.706 262.559 278.538 262.568 278.372 262.589C272.031 263.389 265.691 264.192 259.46 264.987C259.341 265.053 259.317 265.063 259.296 265.079C259.275 265.1 259.258 265.123 259.244 265.149C259.201 265.25 259.136 265.345 259.093 265.446C256.46 271.706 253.826 277.967 251.192 284.227C251.166 284.304 251.146 284.383 251.133 284.463C251.425 285.012 262.388 299.52 263.084 300.29C263.268 300.311 263.31 300.164 263.367 300.043C263.453 299.837 263.542 299.627 263.628 299.422C268.655 287.471 273.682 275.522 278.708 263.575C278.858 263.29 278.966 262.985 279.027 262.669L279.031 262.659ZM323.742 254.177L311.865 238.498L247.228 246.7C247.156 246.709 247.092 246.773 247.01 246.819C247.022 246.904 247.048 246.987 247.086 247.064C251.023 252.269 254.961 257.481 258.854 262.609L259.026 262.681C259.052 262.69 259.081 262.694 259.109 262.693C266.057 261.827 273.008 260.955 279.963 260.078C294.53 258.228 309.097 256.376 323.662 254.521C323.688 254.513 323.713 254.5 323.735 254.484C323.758 254.468 323.776 254.447 323.81 254.419C323.785 254.331 323.785 254.235 323.742 254.177ZM324.163 256.912C323.858 256.851 323.544 256.863 323.245 256.946C319.878 257.365 316.512 257.789 313.147 258.217L282.779 262.065C281.645 262.207 281.822 262.083 281.396 263.097C279.068 268.631 276.74 274.165 274.411 279.7C274.254 279.961 274.156 280.253 274.125 280.557C274.42 280.726 274.696 280.598 274.972 280.569C278.972 280.068 282.975 279.561 286.979 279.05C296.488 277.844 305.996 276.633 315.505 275.419C316.639 275.277 316.472 275.443 316.947 274.321C319.253 268.84 321.559 263.357 323.866 257.873C324.031 257.578 324.132 257.252 324.161 256.916L324.163 256.912ZM316.782 277.631L297.351 280.094C297.226 280.126 297.105 280.171 296.988 280.225C297.383 280.977 297.941 281.567 298.423 282.219C298.905 282.87 299.4 283.517 299.894 284.162L301.365 286.108L302.838 288.052L304.312 289.993L305.785 291.937C306.276 292.587 306.762 293.235 307.258 293.881C307.753 294.527 308.257 295.154 308.747 295.812C309.238 296.47 309.765 297.15 310.274 297.818C310.782 298.487 311.253 299.117 311.731 299.759L313.206 301.704L314.68 303.645L316.15 305.588L317.623 307.532L319.096 309.476L320.569 311.42C321.059 312.066 321.554 312.712 322.043 313.361C322.531 314.01 323.015 314.657 323.523 315.334L314.859 335.931C315.191 336.545 326.232 351.137 326.799 351.73C326.983 351.751 327.034 351.61 327.086 351.485C327.174 351.277 327.26 351.072 327.349 350.862C332.559 338.475 337.771 326.087 342.982 313.698C343.429 312.636 343.502 312.862 342.778 311.907L317.329 278.33C317.161 278.108 316.985 277.892 316.78 277.636L316.782 277.631ZM352.167 291.709C352.137 291.653 352.103 291.599 352.065 291.547L326.663 258.029C326.611 257.973 326.552 257.923 326.489 257.882C326.282 257.886 326.266 258.052 326.213 258.166C326.113 258.369 326.038 258.582 325.952 258.787L318.627 276.199C327.144 287.434 335.649 298.651 344.141 309.849C344.209 309.923 344.285 309.99 344.368 310.047C344.449 309.996 344.515 309.981 344.535 309.941C344.968 309.094 351.974 292.35 352.165 291.714L352.167 291.709Z" fill="#D7D8DD"/>
</g>
<g clip-path="url(#clip6_1656_1727)">
<path d="M436.565 400.973C436.551 400.997 436.533 401.019 436.512 401.039C436.491 401.056 436.469 401.071 436.445 401.084C435.508 401.284 368.322 409.763 367.634 409.756L325.834 354.598C325.835 354.513 325.843 354.428 325.859 354.344C325.926 354.158 325.997 353.975 326.073 353.795C334.932 332.736 343.797 311.681 352.668 290.63C352.682 290.605 352.7 290.584 352.722 290.567C352.733 290.543 352.768 290.533 352.836 290.479C353.139 290.435 353.504 290.385 353.863 290.342L410.351 283.191C413.75 282.766 417.144 282.337 420.532 281.904C421.685 281.764 421.432 281.643 422.184 282.618C422.811 283.451 423.434 284.281 424.062 285.099C437.022 302.192 449.98 319.285 462.934 336.379C463.101 336.603 463.261 336.832 463.399 337.024C463.398 337.098 463.387 337.172 463.369 337.244C454.554 358.198 445.744 379.155 436.938 400.115C436.828 400.401 436.697 400.681 436.565 400.973ZM357.196 392.184C359.49 395.233 361.792 398.273 364.102 401.304L368.168 406.664C368.259 406.77 368.344 406.883 368.421 407C368.496 407.135 368.614 407.241 368.757 407.3C368.899 407.36 369.057 407.371 369.206 407.33C370.511 407.152 371.817 407.008 373.127 406.832L432.618 399.298C432.957 399.293 433.292 399.229 433.609 399.11C433.583 399.01 433.584 398.92 433.538 398.861C429.597 393.65 425.653 388.439 421.652 383.164C399.992 385.91 378.364 388.65 356.766 391.383C356.817 391.69 356.968 391.972 357.196 392.184ZM425.707 370.455C426.859 367.719 428.012 364.977 429.168 362.229C429.286 361.949 429.393 361.661 429.517 361.338L417.722 345.782C417.661 345.711 417.594 345.645 417.521 345.586C417.295 345.608 417.272 345.766 417.217 345.882C417.141 346.063 417.065 346.244 416.989 346.425C411.952 358.399 406.914 370.373 401.877 382.347L401.51 383.219C401.679 383.29 401.744 383.34 401.778 383.332C408.256 382.522 414.725 381.709 421.185 380.895C421.503 380.651 421.569 380.307 421.697 380.002C423.037 376.809 424.367 373.635 425.707 370.455ZM359.532 381.355L356.724 388.029C356.605 388.312 356.488 388.592 356.391 388.861C356.609 389.12 356.843 389.003 357.05 388.976C358.802 388.766 360.553 388.546 362.302 388.315C374.169 386.817 386.037 385.315 397.905 383.811C398.181 383.777 398.457 383.734 398.756 383.692C398.867 383.483 398.98 383.295 399.069 383.09C401.473 377.377 403.876 371.663 406.281 365.947C406.363 365.751 406.407 365.539 406.476 365.315C406.381 365.282 406.282 365.262 406.182 365.257C392.173 367.031 378.186 368.803 364.221 370.573C363.973 370.803 363.797 371.1 363.714 371.428C362.314 374.737 360.92 378.046 359.532 381.355ZM408.024 361.811C409.862 357.441 411.701 353.07 413.539 348.7C414.18 347.177 414.823 345.648 415.469 344.112C415.588 343.83 415.691 343.544 415.79 343.295C415.459 342.678 403.808 327.239 402.952 326.268C402.655 326.143 402.352 326.249 402.054 326.288C396.982 326.928 391.918 327.571 386.863 328.216C385.415 328.401 383.969 328.585 382.523 328.769C382.247 328.804 381.972 328.85 381.671 328.897C381.228 329.719 373.678 347.735 373.504 348.358C373.842 348.967 385.86 364.83 386.43 365.408L407.587 362.722C407.74 362.417 407.894 362.12 408.023 361.814L408.024 361.811ZM328.955 354.922L353.483 387.297C353.665 387.538 353.854 387.765 354.112 388.084C354.54 387.352 361.687 370.363 361.885 369.608C353.446 358.479 344.988 347.321 336.51 336.132C336.406 336.011 336.296 335.896 336.181 335.786C336.089 335.895 336.005 336.009 335.929 336.129C335.838 336.304 335.776 336.491 335.7 336.672C333.382 342.183 331.064 347.694 328.745 353.205C328.321 354.235 328.286 354.047 328.954 354.924L328.955 354.922ZM353.665 294.056C353.513 294.418 353.379 294.66 353.273 294.914L337.469 332.48C337.185 333.156 337.183 333.161 337.64 333.763C340.655 337.742 343.67 341.72 346.685 345.696L363.195 367.479C363.377 367.723 363.564 367.953 363.754 368.177C364.554 368.207 379.052 366.434 383.142 365.818C383.273 365.797 383.401 365.751 383.56 365.71C383.493 365.425 383.346 365.166 383.135 364.963C381.465 362.745 379.79 360.532 378.11 358.324C376.484 356.178 374.857 354.032 373.23 351.887L357.664 331.387C357.461 331.12 357.269 330.846 357.051 330.547L365.754 309.858L354.005 294.341C353.898 294.239 353.784 294.144 353.664 294.058L353.665 294.056ZM387.689 308.369C387.663 308.339 387.635 308.312 387.604 308.288C387.583 308.272 387.558 308.261 387.532 308.257C387.364 308.269 387.196 308.278 387.031 308.299C380.689 309.099 374.349 309.902 368.118 310.696C367.999 310.763 367.975 310.773 367.954 310.789C367.934 310.81 367.916 310.833 367.902 310.859C367.86 310.96 367.794 311.055 367.751 311.156C365.118 317.416 362.484 323.677 359.851 329.937C359.824 330.014 359.804 330.093 359.791 330.173C360.083 330.722 371.046 345.23 371.742 346C371.927 346.021 371.969 345.874 372.025 345.753C372.112 345.547 372.2 345.337 372.286 345.132C377.314 333.181 382.34 321.232 387.366 309.285C387.517 309 387.624 308.695 387.685 308.379L387.689 308.369ZM432.4 299.887L420.523 284.208L355.886 292.41C355.814 292.419 355.75 292.483 355.669 292.528C355.68 292.614 355.706 292.697 355.745 292.774C359.682 297.979 363.619 303.191 367.513 308.319L367.684 308.391C367.711 308.4 367.739 308.404 367.767 308.403C374.715 307.537 381.667 306.665 388.621 305.788C403.189 303.938 417.755 302.086 432.32 300.231C432.346 300.223 432.371 300.21 432.393 300.194C432.417 300.178 432.434 300.157 432.469 300.129C432.443 300.041 432.444 299.945 432.4 299.887ZM432.821 302.622C432.517 302.561 432.202 302.573 431.903 302.656C428.536 303.075 425.17 303.499 421.805 303.927L391.438 307.775C390.303 307.917 390.481 307.793 390.054 308.807C387.726 314.341 385.398 319.875 383.07 325.41C382.912 325.671 382.814 325.963 382.783 326.267C383.078 326.436 383.354 326.308 383.63 326.279C387.631 325.778 391.633 325.271 395.637 324.76C405.146 323.554 414.655 322.343 424.163 321.129C425.297 320.987 425.131 321.153 425.605 320.031C427.911 314.55 430.218 309.067 432.525 303.583C432.69 303.288 432.79 302.962 432.819 302.626L432.821 302.622ZM425.441 323.341L406.009 325.804C405.884 325.836 405.763 325.88 405.647 325.935C406.041 326.687 406.6 327.277 407.082 327.929C407.563 328.58 408.059 329.226 408.552 329.872L410.024 331.818L411.497 333.762L412.97 335.703L414.443 337.647C414.934 338.297 415.421 338.945 415.916 339.591C416.412 340.237 416.915 340.864 417.406 341.522C417.896 342.18 418.423 342.86 418.932 343.528C419.441 344.197 419.912 344.827 420.389 345.469L421.864 347.414L423.338 349.355L424.809 351.298L426.282 353.242L427.754 355.186L429.227 357.13C429.717 357.776 430.212 358.422 430.701 359.071C431.19 359.72 431.674 360.367 432.182 361.044L423.517 381.641C423.85 382.255 434.891 396.847 435.457 397.44C435.641 397.461 435.692 397.32 435.745 397.195C435.832 396.987 435.919 396.782 436.007 396.572C441.218 384.185 446.429 371.797 451.641 359.408C452.088 358.346 452.16 358.572 451.436 357.617L425.988 324.04C425.82 323.818 425.643 323.602 425.439 323.346L425.441 323.341ZM460.826 337.419C460.795 337.363 460.761 337.309 460.723 337.257L435.321 303.739C435.269 303.683 435.211 303.633 435.147 303.592C434.941 303.596 434.925 303.762 434.871 303.876C434.772 304.079 434.696 304.291 434.61 304.497L427.285 321.908C435.802 333.144 444.307 344.361 452.8 355.559C452.867 355.633 452.943 355.699 453.026 355.757C453.107 355.706 453.173 355.691 453.193 355.651C453.626 354.804 460.633 338.06 460.824 337.424L460.826 337.419Z" fill="#D7D8DD"/>
</g>
<g clip-path="url(#clip7_1656_1727)">
<path d="M203.811 192.228C203.797 192.252 203.779 192.274 203.758 192.293C203.737 192.311 203.715 192.326 203.691 192.339C202.754 192.539 135.568 201.018 134.88 201.011L93.0804 145.853C93.0809 145.768 93.089 145.683 93.1049 145.599C93.1717 145.413 93.2431 145.23 93.3189 145.05C102.178 123.991 111.043 102.936 119.914 81.8844C119.928 81.8603 119.946 81.8391 119.969 81.8221C119.979 81.798 120.014 81.7874 120.082 81.7336C120.385 81.6903 120.75 81.6394 121.109 81.5971L177.597 74.4457C180.996 74.021 184.39 73.592 187.778 73.1586C188.931 73.0185 188.678 72.8977 189.43 73.8733C190.057 74.7057 190.68 75.536 191.308 76.3543C204.268 93.447 217.226 110.54 230.18 127.634C230.347 127.858 230.507 128.087 230.645 128.279C230.644 128.353 230.634 128.427 230.615 128.499C221.8 149.453 212.99 170.41 204.184 191.37C204.075 191.656 203.943 191.936 203.811 192.228ZM124.442 183.439C126.737 186.488 129.038 189.528 131.348 192.559L135.414 197.918C135.505 198.025 135.59 198.138 135.667 198.255C135.742 198.39 135.861 198.495 136.003 198.555C136.145 198.615 136.303 198.626 136.452 198.585C137.757 198.407 139.063 198.263 140.373 198.086L199.864 190.553C200.203 190.548 200.538 190.484 200.855 190.365C200.829 190.265 200.83 190.175 200.784 190.116C196.843 184.905 192.899 179.694 188.898 174.418C167.239 177.165 145.61 179.905 124.012 182.638C124.063 182.945 124.214 183.227 124.442 183.439ZM192.953 161.71C194.105 158.974 195.258 156.232 196.414 153.484C196.532 153.204 196.639 152.916 196.763 152.593L184.968 137.037C184.907 136.966 184.84 136.9 184.767 136.841C184.541 136.863 184.518 137.021 184.463 137.137C184.387 137.318 184.311 137.499 184.235 137.68C179.198 149.653 174.161 161.628 169.123 173.602L168.756 174.474C168.925 174.545 168.99 174.595 169.024 174.587C175.502 173.776 181.971 172.964 188.431 172.15C188.749 171.906 188.815 171.562 188.943 171.257C190.283 168.064 191.613 164.889 192.953 161.71ZM126.778 172.61L123.97 179.284C123.852 179.567 123.734 179.847 123.637 180.116C123.855 180.375 124.089 180.258 124.297 180.231C126.049 180.021 127.799 179.801 129.548 179.57C141.415 178.072 153.283 176.57 165.151 175.066C165.427 175.032 165.704 174.989 166.002 174.947C166.113 174.738 166.227 174.549 166.315 174.345C168.719 168.632 171.123 162.918 173.527 157.201C173.61 157.006 173.653 156.794 173.722 156.57C173.627 156.537 173.528 156.517 173.428 156.512C159.419 158.286 145.432 160.058 131.467 161.828C131.219 162.058 131.043 162.355 130.96 162.683C129.56 165.992 128.166 169.301 126.778 172.61ZM175.27 153.066C177.108 148.696 178.947 144.325 180.785 139.955C181.426 138.432 182.069 136.903 182.715 135.367C182.834 135.085 182.937 134.798 183.036 134.55C182.705 133.933 171.054 118.494 170.198 117.523C169.901 117.398 169.598 117.504 169.3 117.543C164.228 118.183 159.164 118.826 154.109 119.471C152.661 119.656 151.215 119.84 149.769 120.024C149.493 120.059 149.218 120.105 148.917 120.152C148.474 120.974 140.924 138.99 140.75 139.613C141.088 140.221 153.106 156.085 153.676 156.663L174.833 153.977C174.987 153.672 175.14 153.375 175.269 153.069L175.27 153.066ZM96.2011 146.177L120.729 178.551C120.912 178.793 121.1 179.02 121.358 179.339C121.786 178.607 128.933 161.617 129.131 160.862C120.692 149.734 112.234 138.576 103.756 127.387C103.652 127.266 103.543 127.151 103.427 127.041C103.335 127.15 103.251 127.264 103.175 127.384C103.084 127.559 103.022 127.746 102.946 127.927C100.628 133.438 98.3098 138.948 95.9911 144.46C95.5667 145.489 95.532 145.302 96.2001 146.179L96.2011 146.177ZM120.911 85.3106C120.759 85.6728 120.625 85.9151 120.519 86.1687L104.715 123.735C104.431 124.411 104.429 124.416 104.886 125.018C107.901 128.997 110.916 132.975 113.931 136.951L130.441 158.734C130.623 158.978 130.81 159.207 131 159.432C131.8 159.462 146.298 157.689 150.388 157.073C150.52 157.052 150.647 157.006 150.806 156.965C150.739 156.68 150.592 156.421 150.382 156.218C148.712 153.999 147.036 151.787 145.356 149.579C143.73 147.433 142.103 145.287 140.476 143.141L124.91 122.642C124.707 122.375 124.515 122.101 124.297 121.801L133 101.113L121.251 85.5959C121.144 85.4935 121.03 85.399 120.91 85.313L120.911 85.3106ZM154.935 99.6238C154.909 99.5942 154.881 99.567 154.85 99.5425C154.829 99.5267 154.804 99.5162 154.778 99.5121C154.611 99.5242 154.442 99.5329 154.277 99.5543C147.935 100.354 141.596 101.157 135.364 101.951C135.245 102.018 135.221 102.028 135.2 102.044C135.18 102.065 135.162 102.088 135.148 102.113C135.106 102.215 135.04 102.31 134.998 102.411C132.364 108.671 129.73 114.932 127.097 121.192C127.07 121.269 127.05 121.348 127.037 121.428C127.329 121.977 138.292 136.485 138.988 137.255C139.173 137.276 139.215 137.129 139.271 137.007C139.358 136.802 139.446 136.592 139.532 136.387C144.56 124.436 149.587 112.487 154.613 100.54C154.763 100.255 154.87 99.9496 154.931 99.6335L154.935 99.6238ZM199.646 91.1416L187.769 75.4626L123.132 83.6646C123.06 83.674 122.996 83.7381 122.915 83.7833C122.926 83.8687 122.952 83.9515 122.991 84.0284C126.928 89.2343 130.865 94.446 134.759 99.5737L134.93 99.6458C134.957 99.6552 134.985 99.6593 135.013 99.658C141.961 98.7917 148.913 97.9202 155.867 97.0433C170.435 95.1932 185.001 93.3408 199.567 91.4861C199.593 91.4775 199.617 91.4648 199.639 91.4485C199.663 91.4329 199.68 91.4118 199.715 91.3837C199.689 91.2961 199.69 91.1998 199.646 91.1416ZM200.067 93.8765C199.763 93.8161 199.448 93.8279 199.149 93.9109C195.782 94.3303 192.416 94.754 189.051 95.182L158.684 99.0295C157.55 99.1719 157.727 99.0476 157.3 100.062C154.972 105.596 152.644 111.13 150.316 116.665C150.158 116.926 150.06 117.218 150.029 117.522C150.324 117.691 150.6 117.563 150.876 117.534C154.877 117.033 158.879 116.526 162.883 116.015C172.392 114.808 181.901 113.598 191.409 112.384C192.543 112.242 192.377 112.408 192.851 111.286C195.157 105.805 197.464 100.322 199.771 94.8375C199.936 94.5433 200.036 94.2173 200.065 93.8813L200.067 93.8765ZM192.687 114.596L173.255 117.058C173.13 117.091 173.009 117.135 172.893 117.19C173.287 117.942 173.846 118.532 174.328 119.184C174.809 119.835 175.305 120.481 175.798 121.126L177.27 123.073L178.743 125.017L180.216 126.958L181.689 128.902C182.18 129.552 182.667 130.2 183.162 130.846C183.658 131.492 184.161 132.119 184.652 132.777C185.142 133.435 185.669 134.115 186.178 134.783C186.687 135.452 187.158 136.082 187.635 136.724L189.111 138.668L190.584 140.61L192.055 142.553L193.528 144.497L195 146.441L196.473 148.385C196.963 149.031 197.458 149.677 197.947 150.326C198.436 150.975 198.92 151.622 199.428 152.299L190.763 172.896C191.096 173.51 202.137 188.102 202.703 188.695C202.887 188.716 202.938 188.575 202.991 188.449C203.078 188.242 203.165 188.037 203.253 187.827C208.464 175.44 213.675 163.052 218.887 150.663C219.334 149.601 219.406 149.827 218.682 148.872L193.234 115.295C193.066 115.073 192.889 114.857 192.685 114.6L192.687 114.596ZM228.072 128.674C228.041 128.618 228.007 128.563 227.969 128.512L202.567 94.9935C202.515 94.9376 202.457 94.8882 202.393 94.8464C202.187 94.8506 202.171 95.0172 202.117 95.131C202.018 95.3336 201.942 95.5463 201.856 95.7516L194.531 113.163C203.048 124.399 211.553 135.615 220.046 146.814C220.114 146.888 220.19 146.954 220.272 147.012C220.353 146.96 220.419 146.946 220.439 146.906C220.872 146.059 227.879 129.315 228.07 128.679L228.072 128.674Z" fill="#D7D8DD"/>
</g>
<g clip-path="url(#clip8_1656_1727)">
<path d="M312.47 237.934C312.455 237.958 312.437 237.98 312.416 237.999C312.396 238.017 312.373 238.032 312.349 238.045C311.412 238.245 244.226 246.724 243.539 246.717L201.739 191.559C201.739 191.474 201.747 191.389 201.763 191.305C201.83 191.119 201.901 190.936 201.977 190.756C210.836 169.697 219.701 148.642 228.572 127.59C228.586 127.566 228.605 127.545 228.627 127.528C228.637 127.504 228.673 127.493 228.741 127.44C229.043 127.396 229.408 127.345 229.767 127.303L286.255 120.152C289.654 119.727 293.048 119.298 296.436 118.865C297.589 118.725 297.336 118.604 298.088 119.579C298.715 120.412 299.338 121.242 299.966 122.06C312.926 139.153 325.884 156.246 338.838 173.34C339.006 173.564 339.165 173.793 339.303 173.985C339.302 174.059 339.292 174.133 339.273 174.205C330.458 195.159 321.648 216.116 312.842 237.076C312.733 237.362 312.601 237.642 312.47 237.934ZM233.1 229.145C235.395 232.194 237.697 235.234 240.006 238.265L244.072 243.624C244.163 243.731 244.248 243.844 244.325 243.961C244.401 244.096 244.519 244.202 244.661 244.261C244.803 244.321 244.961 244.332 245.11 244.291C246.416 244.113 247.721 243.969 249.032 243.793L308.522 236.259C308.861 236.254 309.196 236.19 309.513 236.071C309.487 235.971 309.488 235.881 309.442 235.822C305.501 230.611 301.558 225.4 297.556 220.125C275.897 222.871 254.268 225.611 232.67 228.344C232.721 228.651 232.872 228.933 233.1 229.145ZM301.612 207.416C302.763 204.68 303.916 201.938 305.072 199.19C305.19 198.91 305.297 198.622 305.421 198.299L293.627 182.743C293.566 182.672 293.498 182.606 293.425 182.547C293.2 182.569 293.176 182.727 293.121 182.843C293.045 183.024 292.969 183.205 292.893 183.386C287.856 195.359 282.819 207.334 277.781 219.308L277.414 220.18C277.584 220.251 277.648 220.301 277.683 220.293C284.16 219.482 290.629 218.67 297.089 217.856C297.408 217.612 297.473 217.268 297.601 216.963C298.942 213.77 300.271 210.595 301.612 207.416ZM235.436 218.316L232.629 224.99C232.51 225.273 232.392 225.553 232.296 225.822C232.513 226.081 232.748 225.964 232.955 225.937C234.707 225.727 236.457 225.507 238.206 225.276C250.074 223.778 261.941 222.276 273.809 220.772C274.085 220.738 274.362 220.695 274.661 220.653C274.771 220.444 274.885 220.255 274.973 220.051C277.377 214.338 279.781 208.624 282.185 202.908C282.268 202.712 282.311 202.5 282.38 202.276C282.285 202.243 282.186 202.223 282.086 202.218C268.078 203.992 254.091 205.764 240.125 207.534C239.877 207.764 239.701 208.061 239.618 208.389C238.218 211.698 236.825 215.007 235.436 218.316ZM283.928 198.772C285.766 194.402 287.605 190.031 289.444 185.661C290.084 184.138 290.727 182.609 291.374 181.073C291.492 180.791 291.596 180.504 291.694 180.256C291.363 179.639 279.712 164.2 278.856 163.229C278.559 163.104 278.256 163.21 277.958 163.249C272.886 163.889 267.822 164.532 262.767 165.177C261.319 165.362 259.873 165.546 258.428 165.73C258.152 165.765 257.876 165.811 257.575 165.858C257.133 166.68 249.582 184.696 249.408 185.319C249.746 185.928 261.764 201.791 262.334 202.369L283.491 199.683C283.645 199.378 283.798 199.081 283.927 198.775L283.928 198.772ZM204.859 191.883L229.387 224.258C229.57 224.499 229.758 224.726 230.016 225.045C230.444 224.313 237.591 207.324 237.789 206.569C229.35 195.44 220.892 184.282 212.414 173.093C212.311 172.972 212.201 172.857 212.085 172.747C211.993 172.856 211.909 172.97 211.833 173.09C211.742 173.265 211.68 173.452 211.604 173.633C209.286 179.144 206.968 184.655 204.649 190.166C204.225 191.196 204.19 191.008 204.858 191.885L204.859 191.883ZM229.569 131.017C229.417 131.379 229.284 131.621 229.177 131.875L213.374 169.441C213.089 170.117 213.087 170.122 213.544 170.724C216.56 174.703 219.574 178.681 222.589 182.657L239.1 204.44C239.281 204.684 239.469 204.913 239.658 205.138C240.459 205.168 254.957 203.395 259.046 202.779C259.178 202.758 259.305 202.712 259.464 202.671C259.398 202.386 259.25 202.127 259.04 201.924C257.37 199.706 255.695 197.493 254.014 195.285C252.388 193.139 250.761 190.993 249.135 188.847L233.568 168.348C233.365 168.081 233.173 167.807 232.955 167.508L241.658 146.819L229.91 131.302C229.803 131.2 229.689 131.105 229.568 131.019L229.569 131.017ZM263.593 145.33C263.568 145.3 263.539 145.273 263.508 145.249C263.487 145.233 263.462 145.222 263.436 145.218C263.269 145.23 263.1 145.239 262.935 145.26C256.594 146.06 250.254 146.863 244.022 147.657C243.904 147.724 243.88 147.734 243.858 147.75C243.838 147.771 243.82 147.794 243.806 147.819C243.764 147.921 243.698 148.016 243.656 148.117C241.022 154.377 238.389 160.638 235.755 166.898C235.729 166.975 235.709 167.054 235.695 167.134C235.987 167.683 246.95 182.191 247.646 182.961C247.831 182.982 247.873 182.835 247.93 182.714C248.016 182.508 248.104 182.298 248.191 182.093C253.218 170.142 258.245 158.193 263.271 146.246C263.421 145.961 263.528 145.656 263.589 145.34L263.593 145.33ZM308.304 136.848L296.428 121.169L231.791 129.371C231.718 129.38 231.654 129.444 231.573 129.489C231.585 129.575 231.61 129.658 231.649 129.734C235.586 134.94 239.524 140.152 243.417 145.28L243.588 145.352C243.615 145.361 243.643 145.365 243.671 145.364C250.62 144.498 257.571 143.626 264.526 142.749C279.093 140.899 293.659 139.047 308.225 137.192C308.251 137.184 308.275 137.171 308.297 137.155C308.321 137.139 308.338 137.118 308.373 137.09C308.347 137.002 308.348 136.906 308.304 136.848ZM308.725 139.583C308.421 139.522 308.106 139.534 307.807 139.617C304.44 140.036 301.074 140.46 297.709 140.888L267.342 144.736C266.208 144.878 266.385 144.754 265.958 145.768C263.63 151.302 261.302 156.836 258.974 162.371C258.816 162.632 258.718 162.924 258.687 163.228C258.983 163.397 259.258 163.269 259.535 163.24C263.535 162.739 267.537 162.232 271.542 161.721C281.05 160.514 290.559 159.304 300.067 158.09C301.201 157.948 301.035 158.114 301.51 156.992C303.815 151.511 306.122 146.028 308.429 140.544C308.594 140.249 308.694 139.923 308.723 139.587L308.725 139.583ZM301.345 160.302L281.913 162.764C281.789 162.797 281.667 162.841 281.551 162.896C281.945 163.648 282.504 164.238 282.986 164.89C283.468 165.541 283.963 166.187 284.456 166.833L285.928 168.779L287.401 170.723L288.875 172.664L290.348 174.608C290.839 175.258 291.325 175.906 291.82 176.552C292.316 177.198 292.82 177.825 293.31 178.483C293.8 179.141 294.327 179.821 294.836 180.489C295.345 181.158 295.816 181.788 296.293 182.43L297.769 184.375L299.243 186.316L300.713 188.259L302.186 190.203L303.659 192.147L305.131 194.091C305.621 194.737 306.117 195.383 306.605 196.032C307.094 196.681 307.578 197.328 308.086 198.005L299.421 218.602C299.754 219.216 310.795 233.808 311.361 234.401C311.546 234.422 311.596 234.281 311.649 234.156C311.736 233.948 311.823 233.743 311.911 233.533C317.122 221.146 322.333 208.758 327.545 196.369C327.992 195.307 328.064 195.533 327.341 194.578L301.892 161.001C301.724 160.779 301.548 160.563 301.343 160.307L301.345 160.302ZM336.73 174.38C336.7 174.324 336.666 174.269 336.628 174.218L311.225 140.7C311.173 140.644 311.115 140.594 311.051 140.552C310.845 140.557 310.829 140.723 310.775 140.837C310.676 141.04 310.601 141.252 310.514 141.458L303.189 158.869C311.706 170.105 320.211 181.322 328.704 192.52C328.772 192.594 328.848 192.66 328.93 192.718C329.012 192.667 329.078 192.652 329.097 192.612C329.53 191.765 336.537 175.021 336.728 174.385L336.73 174.38Z" fill="#D7D8DD"/>
</g>
<g clip-path="url(#clip9_1656_1727)">
<path d="M297.458 121.3C297.443 121.324 297.425 121.346 297.405 121.366C297.384 121.383 297.361 121.398 297.337 121.411C296.401 121.611 229.214 130.091 228.527 130.083L186.727 74.9254C186.727 74.8402 186.736 74.7552 186.751 74.6714C186.818 74.4855 186.89 74.3023 186.965 74.122C195.824 53.0634 204.689 32.0083 213.56 10.9567C213.574 10.9325 213.593 10.9114 213.615 10.8944C213.625 10.8702 213.661 10.8597 213.729 10.8059C214.031 10.7626 214.397 10.7117 214.756 10.6694L271.243 3.518C274.643 3.09328 278.037 2.66423 281.425 2.23086C282.578 2.09072 282.324 1.96996 283.076 2.9456C283.704 3.77795 284.326 4.60828 284.954 5.42652C297.915 22.5193 310.872 39.6126 323.827 56.7065C323.994 56.9304 324.153 57.1594 324.292 57.3511C324.29 57.4255 324.28 57.4995 324.261 57.5715C315.446 78.5255 306.636 99.4823 297.83 120.442C297.721 120.729 297.589 121.008 297.458 121.3ZM218.089 112.511C220.383 115.56 222.685 118.6 224.994 121.631L229.06 126.991C229.152 127.098 229.236 127.21 229.314 127.327C229.389 127.462 229.507 127.568 229.649 127.628C229.791 127.687 229.95 127.698 230.098 127.658C231.404 127.479 232.709 127.335 234.02 127.159L293.51 119.625C293.849 119.62 294.185 119.556 294.502 119.437C294.475 119.338 294.476 119.247 294.43 119.188C290.489 113.978 286.546 108.766 282.544 103.491C260.885 106.238 239.256 108.977 217.658 111.71C217.709 112.017 217.861 112.299 218.089 112.511ZM286.6 90.7826C287.751 88.0461 288.905 85.3039 290.061 82.5561C290.178 82.276 290.285 81.9884 290.41 81.6656L278.615 66.1091C278.554 66.0379 278.486 65.9723 278.413 65.9134C278.188 65.9352 278.164 66.0929 278.11 66.2092C278.033 66.3903 277.957 66.5714 277.881 66.7525C272.844 78.7257 267.807 90.6998 262.769 102.675L262.403 103.546C262.572 103.617 262.636 103.667 262.671 103.659C269.148 102.849 275.617 102.037 282.077 101.223C282.396 100.979 282.461 100.634 282.589 100.33C283.93 97.1365 285.26 93.9617 286.6 90.7826ZM220.424 101.682L217.617 108.356C217.498 108.639 217.38 108.919 217.284 109.188C217.502 109.448 217.736 109.33 217.943 109.304C219.695 109.093 221.446 108.873 223.195 108.642C235.062 107.144 246.93 105.642 258.797 104.138C259.073 104.104 259.35 104.061 259.649 104.019C259.76 103.81 259.873 103.622 259.962 103.417C262.365 97.7045 264.769 91.9899 267.174 86.2737C267.256 86.0782 267.3 85.8663 267.368 85.6423C267.274 85.6089 267.175 85.5893 267.075 85.584C253.066 87.3584 239.079 89.1305 225.114 90.9005C224.865 91.1305 224.689 91.4275 224.606 91.7556C223.207 95.0641 221.813 98.373 220.424 101.682ZM268.916 82.1385C270.755 77.7681 272.593 73.3976 274.432 69.0272C275.072 67.5044 275.716 65.9751 276.362 64.4394C276.481 64.1569 276.584 63.8707 276.683 63.6224C276.351 63.0055 264.7 47.5664 263.844 46.5952C263.547 46.4703 263.244 46.5758 262.946 46.6153C257.874 47.2553 252.81 47.8979 247.755 48.5431C246.308 48.728 244.861 48.9124 243.416 49.0963C243.14 49.1308 242.865 49.1771 242.564 49.2238C242.121 50.0464 234.57 68.0624 234.396 68.6854C234.735 69.2937 246.752 85.1572 247.322 85.7351L268.479 83.0488C268.633 82.7441 268.786 82.4476 268.915 82.1409L268.916 82.1385ZM189.848 75.2492L214.375 107.624C214.558 107.865 214.747 108.093 215.005 108.411C215.432 107.679 222.579 90.6897 222.777 89.9347C214.339 78.8063 205.88 67.6478 197.402 56.4593C197.299 56.3384 197.189 56.223 197.073 56.1134C196.982 56.222 196.898 56.3365 196.821 56.4563C196.73 56.6313 196.669 56.8185 196.593 56.9996C194.275 62.5098 191.956 68.0207 189.638 73.5325C189.213 74.5617 189.179 74.3738 189.847 75.2516L189.848 75.2492ZM214.557 14.3829C214.405 14.745 214.272 14.9874 214.165 15.2409L198.362 52.8075C198.077 53.4836 198.075 53.4884 198.533 54.09C201.548 58.0696 204.563 62.0472 207.578 66.0229L224.088 87.8061C224.269 88.0501 224.457 88.2797 224.647 88.5044C225.447 88.5341 239.945 86.761 244.035 86.1454C244.166 86.1239 244.293 86.078 244.453 86.037C244.386 85.7524 244.238 85.493 244.028 85.29C242.358 83.0718 240.683 80.8589 239.003 78.6515C237.376 76.5048 235.75 74.3588 234.123 72.2137L218.556 51.7141C218.353 51.4468 218.161 51.1729 217.943 50.8737L226.647 30.1853L214.898 14.6681C214.791 14.5658 214.677 14.4712 214.556 14.3853L214.557 14.3829ZM248.582 28.6961C248.556 28.6664 248.527 28.6392 248.497 28.6148C248.475 28.599 248.45 28.5885 248.424 28.5843C248.257 28.5965 248.089 28.6051 247.923 28.6265C241.582 29.426 235.242 30.229 229.011 31.0236C228.892 31.0901 228.868 31.0999 228.847 31.1166C228.826 31.137 228.809 31.1603 228.795 31.1857C228.752 31.2871 228.687 31.3818 228.644 31.4832C226.01 37.7435 223.377 44.0038 220.743 50.2641C220.717 50.341 220.697 50.4201 220.684 50.5004C220.976 51.0495 231.938 65.5569 232.635 66.3272C232.819 66.348 232.861 66.2009 232.918 66.0797C233.004 65.8745 233.093 65.6644 233.179 65.4592C238.206 53.5085 243.233 41.5594 248.259 29.6119C248.409 29.3272 248.517 29.0218 248.578 28.7058L248.582 28.6961ZM293.293 20.2139L281.416 4.53486L216.779 12.7369C216.707 12.7463 216.643 12.8103 216.561 12.8556C216.573 12.9409 216.599 13.0237 216.637 13.1007C220.574 18.3066 224.512 23.5183 228.405 28.646L228.577 28.7181C228.603 28.7274 228.632 28.7316 228.66 28.7303C235.608 27.864 242.559 26.9924 249.514 26.1156C264.081 24.2655 278.648 22.4131 293.213 20.5584C293.239 20.5497 293.264 20.537 293.286 20.5208C293.309 20.5051 293.327 20.484 293.361 20.4559C293.336 20.3684 293.336 20.2721 293.293 20.2139ZM293.714 22.9488C293.409 22.8884 293.095 22.9001 292.795 22.9831C289.428 23.4026 286.063 23.8263 282.698 24.2542L252.33 28.1017C251.196 28.2442 251.373 28.1198 250.947 29.134C248.619 34.6683 246.29 40.2026 243.962 45.7369C243.804 45.9978 243.707 46.2905 243.676 46.5939C243.971 46.7636 244.247 46.6351 244.523 46.6065C248.523 46.1048 252.526 45.5983 256.53 45.087C266.039 43.8807 275.547 42.6705 285.055 41.4564C286.19 41.314 286.023 41.4799 286.498 40.3581C288.804 34.8769 291.11 29.3941 293.417 23.9098C293.582 23.6155 293.682 23.2896 293.712 22.9536L293.714 22.9488ZM286.333 43.6679L266.901 46.1307C266.777 46.1635 266.656 46.2076 266.539 46.2624C266.934 47.0138 267.492 47.6041 267.974 48.2558C268.456 48.9075 268.951 49.5536 269.444 50.1987L270.916 52.1451L272.389 54.089L273.863 56.0305L275.336 57.9744C275.827 58.6243 276.313 59.2722 276.809 59.9183C277.304 60.5644 277.808 61.1912 278.298 61.8494C278.789 62.5076 279.316 63.1869 279.824 63.8556C280.333 64.5243 280.804 65.1544 281.282 65.7958L282.757 67.7407L284.231 69.6823L285.701 71.6252L287.174 73.5691L288.647 75.513L290.12 77.4569C290.609 78.1034 291.105 78.7495 291.594 79.3984C292.082 80.0473 292.566 80.6942 293.074 81.3712L284.41 101.968C284.742 102.582 295.783 117.174 296.349 117.767C296.534 117.788 296.585 117.647 296.637 117.522C296.725 117.314 296.811 117.109 296.899 116.899C302.11 104.512 307.322 92.124 312.533 79.7355C312.98 78.673 313.053 78.8996 312.329 77.9444L286.88 44.367C286.712 44.1455 286.536 43.9293 286.331 43.6727L286.333 43.6679ZM321.718 57.7464C321.688 57.6899 321.654 57.6357 321.616 57.584L296.214 24.0658C296.162 24.0099 296.103 23.9605 296.04 23.9187C295.833 23.9228 295.817 24.0894 295.764 24.2033C295.664 24.4059 295.589 24.6186 295.502 24.8239L288.178 42.2356C296.695 53.4709 305.199 64.6877 313.692 75.8862C313.76 75.9603 313.836 76.0266 313.919 76.0839C314 76.0328 314.066 76.0179 314.086 75.9778C314.518 75.1312 321.525 58.3871 321.716 57.7512L321.718 57.7464Z" fill="#D7D8DD"/>
<g clip-path="url(#clip10_1656_1727)">
<path d="M422.176 283.181C422.161 283.205 422.143 283.227 422.122 283.247C422.102 283.264 422.079 283.279 422.055 283.292C421.118 283.492 353.932 291.971 353.245 291.964L311.445 236.806C311.445 236.721 311.453 236.636 311.469 236.552C311.536 236.366 311.607 236.183 311.683 236.003C320.542 214.944 329.407 193.889 338.278 172.838C338.292 172.813 338.311 172.792 338.333 172.775C338.343 172.751 338.379 172.741 338.447 172.687C338.749 172.643 339.114 172.593 339.473 172.55L395.961 165.399C399.361 164.974 402.754 164.545 406.142 164.112C407.295 163.972 407.042 163.851 407.794 164.826C408.421 165.659 409.044 166.489 409.672 167.307C422.632 184.4 435.59 201.493 448.544 218.587C448.712 218.811 448.871 219.04 449.009 219.232C449.008 219.306 448.998 219.38 448.979 219.452C440.164 240.406 431.354 261.363 422.548 282.323C422.439 282.609 422.307 282.889 422.176 283.181ZM342.806 274.392C345.101 277.441 347.403 280.481 349.712 283.512L353.778 288.872C353.869 288.978 353.954 289.091 354.031 289.208C354.107 289.343 354.225 289.449 354.367 289.508C354.509 289.568 354.667 289.579 354.816 289.538C356.122 289.36 357.427 289.216 358.738 289.04L418.228 281.506C418.567 281.501 418.902 281.437 419.22 281.318C419.193 281.218 419.194 281.128 419.148 281.069C415.207 275.858 411.264 270.647 407.262 265.372C385.603 268.118 363.974 270.858 342.376 273.591C342.427 273.898 342.578 274.18 342.806 274.392ZM411.318 252.663C412.469 249.927 413.622 247.185 414.778 244.437C414.896 244.157 415.003 243.869 415.127 243.546L403.333 227.99C403.272 227.919 403.204 227.853 403.131 227.794C402.906 227.816 402.882 227.974 402.827 228.09C402.751 228.271 402.675 228.452 402.599 228.633C397.562 240.607 392.525 252.581 387.487 264.555L387.121 265.427C387.29 265.498 387.354 265.548 387.389 265.54C393.866 264.73 400.335 263.917 406.795 263.103C407.114 262.859 407.179 262.515 407.307 262.21C408.648 259.017 409.977 255.843 411.318 252.663ZM345.142 263.563L342.335 270.237C342.216 270.52 342.098 270.8 342.002 271.069C342.219 271.328 342.454 271.211 342.661 271.184C344.413 270.974 346.163 270.754 347.912 270.523C359.78 269.025 371.647 267.523 383.515 266.019C383.791 265.985 384.068 265.942 384.367 265.9C384.477 265.691 384.591 265.503 384.68 265.298C387.083 259.585 389.487 253.871 391.892 248.155C391.974 247.959 392.017 247.747 392.086 247.523C391.991 247.49 391.893 247.47 391.792 247.465C377.784 249.239 363.797 251.011 349.831 252.781C349.583 253.011 349.407 253.308 349.324 253.636C347.924 256.945 346.531 260.254 345.142 263.563ZM393.634 244.019C395.472 239.649 397.311 235.278 399.15 230.908C399.79 229.385 400.434 227.856 401.08 226.32C401.198 226.038 401.302 225.752 401.401 225.503C401.069 224.886 389.418 209.447 388.562 208.476C388.265 208.351 387.962 208.457 387.664 208.496C382.592 209.136 377.528 209.779 372.473 210.424C371.025 210.609 369.579 210.793 368.134 210.977C367.858 211.012 367.582 211.058 367.281 211.105C366.839 211.927 359.288 229.943 359.114 230.566C359.452 231.175 371.47 247.038 372.04 247.616L393.197 244.93C393.351 244.625 393.504 244.328 393.633 244.022L393.634 244.019ZM314.565 237.13L339.093 269.505C339.276 269.746 339.464 269.973 339.723 270.292C340.15 269.56 347.297 252.571 347.495 251.816C339.056 240.687 330.598 229.529 322.12 218.34C322.017 218.219 321.907 218.104 321.791 217.994C321.7 218.103 321.615 218.217 321.539 218.337C321.448 218.512 321.387 218.699 321.31 218.88C318.992 224.391 316.674 229.902 314.355 235.413C313.931 236.443 313.896 236.255 314.564 237.133L314.565 237.13ZM339.275 176.264C339.123 176.626 338.99 176.868 338.883 177.122L323.08 214.688C322.795 215.364 322.793 215.369 323.251 215.971C326.266 219.95 329.281 223.928 332.295 227.904L348.806 249.687C348.987 249.931 349.175 250.161 349.364 250.385C350.165 250.415 364.663 248.642 368.753 248.026C368.884 248.005 369.011 247.959 369.17 247.918C369.104 247.633 368.956 247.374 368.746 247.171C367.076 244.953 365.401 242.74 363.72 240.532C362.094 238.386 360.468 236.24 358.841 234.095L343.274 213.595C343.071 213.328 342.879 213.054 342.661 212.755L351.364 192.066L339.616 176.549C339.509 176.447 339.395 176.352 339.274 176.266L339.275 176.264ZM373.3 190.577C373.274 190.547 373.245 190.52 373.214 190.496C373.193 190.48 373.168 190.469 373.142 190.465C372.975 190.477 372.806 190.486 372.641 190.507C366.3 191.307 359.96 192.11 353.729 192.904C353.61 192.971 353.586 192.981 353.564 192.997C353.544 193.018 353.526 193.041 353.513 193.067C353.47 193.168 353.404 193.263 353.362 193.364C350.728 199.624 348.095 205.885 345.461 212.145C345.435 212.222 345.415 212.301 345.401 212.381C345.693 212.93 356.656 227.438 357.352 228.208C357.537 228.229 357.579 228.082 357.636 227.961C357.722 227.755 357.81 227.545 357.897 227.34C362.924 215.389 367.951 203.44 372.977 191.493C373.127 191.208 373.235 190.903 373.295 190.587L373.3 190.577ZM418.01 182.095L406.134 166.416L341.497 174.618C341.424 174.627 341.361 174.691 341.279 174.736C341.291 174.822 341.316 174.905 341.355 174.982C345.292 180.187 349.23 185.399 353.123 190.527L353.294 190.599C353.321 190.608 353.349 190.612 353.377 190.611C360.326 189.745 367.277 188.873 374.232 187.996C388.799 186.146 403.365 184.294 417.931 182.439C417.957 182.431 417.981 182.418 418.003 182.402C418.027 182.386 418.044 182.365 418.079 182.337C418.053 182.249 418.054 182.153 418.01 182.095ZM418.431 184.83C418.127 184.769 417.812 184.781 417.513 184.864C414.146 185.283 410.78 185.707 407.415 186.135L377.048 189.983C375.914 190.125 376.091 190.001 375.665 191.015C373.336 196.549 371.008 202.083 368.68 207.618C368.522 207.879 368.424 208.171 368.393 208.475C368.689 208.644 368.964 208.516 369.241 208.487C373.241 207.986 377.243 207.479 381.248 206.968C390.756 205.762 400.265 204.551 409.773 203.337C410.907 203.195 410.741 203.361 411.216 202.239C413.522 196.758 415.828 191.275 418.135 185.791C418.3 185.496 418.4 185.17 418.429 184.834L418.431 184.83ZM411.051 205.549L391.619 208.012C391.495 208.044 391.373 208.088 391.257 208.143C391.651 208.895 392.21 209.485 392.692 210.137C393.174 210.788 393.669 211.434 394.162 212.08L395.634 214.026L397.107 215.97L398.581 217.911L400.054 219.855C400.545 220.505 401.031 221.153 401.526 221.799C402.022 222.445 402.526 223.072 403.016 223.73C403.506 224.388 404.033 225.068 404.542 225.736C405.051 226.405 405.522 227.035 406 227.677L407.475 229.622L408.949 231.563L410.419 233.506L411.892 235.45L413.365 237.394L414.838 239.338C415.327 239.984 415.823 240.63 416.311 241.279C416.8 241.928 417.284 242.575 417.792 243.252L409.127 263.849C409.46 264.463 420.501 279.055 421.067 279.648C421.252 279.669 421.302 279.528 421.355 279.403C421.443 279.195 421.529 278.99 421.617 278.78C426.828 266.393 432.039 254.005 437.251 241.616C437.698 240.554 437.77 240.78 437.047 239.825L411.598 206.248C411.43 206.026 411.254 205.81 411.049 205.554L411.051 205.549ZM446.436 219.627C446.406 219.571 446.372 219.517 446.334 219.465L420.931 185.947C420.879 185.891 420.821 185.841 420.757 185.8C420.551 185.804 420.535 185.97 420.481 186.084C420.382 186.287 420.307 186.499 420.22 186.705L412.895 204.116C421.412 215.352 429.917 226.569 438.41 237.767C438.478 237.841 438.554 237.907 438.637 237.965C438.718 237.914 438.784 237.899 438.803 237.859C439.236 237.012 446.243 220.268 446.434 219.632L446.436 219.627Z" fill="#D7D8DD"/>
</g>
</g>
<g clip-path="url(#clip11_1656_1727)">
<path d="M421.349 283.748C421.335 283.772 421.317 283.794 421.296 283.814C421.275 283.831 421.253 283.847 421.229 283.859C420.292 284.059 353.106 292.539 352.418 292.531L310.618 237.374C310.619 237.288 310.627 237.203 310.643 237.12C310.71 236.934 310.781 236.751 310.857 236.57C319.716 215.512 328.581 194.457 337.452 173.405C337.466 173.381 337.484 173.36 337.506 173.343C337.517 173.318 337.552 173.308 337.62 173.254C337.923 173.211 338.288 173.16 338.647 173.118L395.135 165.966C398.534 165.542 401.928 165.112 405.316 164.679C406.469 164.539 406.216 164.418 406.968 165.394C407.595 166.226 408.218 167.057 408.845 167.875C421.806 184.968 434.764 202.061 447.718 219.155C447.885 219.379 448.045 219.608 448.183 219.799C448.182 219.874 448.171 219.948 448.153 220.02C439.338 240.974 430.527 261.931 421.722 282.89C421.612 283.177 421.48 283.457 421.349 283.748ZM341.98 274.959C344.274 278.008 346.576 281.048 348.886 284.079L352.952 289.439C353.043 289.546 353.128 289.658 353.205 289.776C353.28 289.91 353.398 290.016 353.541 290.076C353.683 290.136 353.841 290.146 353.99 290.106C355.295 289.928 356.601 289.783 357.911 289.607L417.402 282.073C417.74 282.068 418.076 282.004 418.393 281.885C418.367 281.786 418.368 281.695 418.322 281.636C414.381 276.426 410.437 271.215 406.436 265.939C384.776 268.686 363.148 271.426 341.55 274.158C341.6 274.466 341.752 274.747 341.98 274.959ZM410.491 253.231C411.642 250.494 412.796 247.752 413.952 245.004C414.07 244.724 414.177 244.437 414.301 244.114L402.506 228.557C402.445 228.486 402.378 228.421 402.304 228.362C402.079 228.383 402.056 228.541 402.001 228.657C401.925 228.839 401.849 229.02 401.772 229.201C396.736 241.174 391.698 253.148 386.661 265.123L386.294 265.995C386.463 266.066 386.527 266.115 386.562 266.107C393.04 265.297 399.509 264.485 405.969 263.671C406.287 263.427 406.353 263.082 406.481 262.778C407.821 259.585 409.151 256.41 410.491 253.231ZM344.316 264.131L341.508 270.805C341.389 271.087 341.272 271.367 341.175 271.637C341.393 271.896 341.627 271.778 341.834 271.752C343.586 271.542 345.337 271.321 347.086 271.091C358.953 269.592 370.821 268.091 382.689 266.587C382.965 266.552 383.241 266.509 383.54 266.467C383.651 266.258 383.764 266.07 383.853 265.866C386.256 260.153 388.66 254.438 391.065 248.722C391.147 248.526 391.191 248.315 391.26 248.091C391.165 248.057 391.066 248.038 390.966 248.032C376.957 249.807 362.97 251.579 349.005 253.349C348.757 253.579 348.581 253.876 348.497 254.204C347.098 257.512 345.704 260.821 344.316 264.131ZM392.808 244.587C394.646 240.216 396.485 235.846 398.323 231.475C398.964 229.953 399.607 228.423 400.253 226.888C400.372 226.605 400.475 226.319 400.574 226.071C400.243 225.454 388.592 210.015 387.736 209.043C387.439 208.919 387.136 209.024 386.838 209.064C381.766 209.704 376.702 210.346 371.647 210.991C370.199 211.176 368.752 211.361 367.307 211.545C367.031 211.579 366.756 211.625 366.455 211.672C366.012 212.495 358.462 230.511 358.288 231.134C358.626 231.742 370.644 247.605 371.214 248.183L392.371 245.497C392.524 245.192 392.678 244.896 392.807 244.589L392.808 244.587ZM313.739 237.697L338.267 270.072C338.449 270.314 338.638 270.541 338.896 270.86C339.324 270.127 346.471 253.138 346.669 252.383C338.23 241.255 329.772 230.096 321.294 218.908C321.19 218.787 321.08 218.671 320.965 218.562C320.873 218.67 320.789 218.785 320.713 218.905C320.622 219.08 320.56 219.267 320.484 219.448C318.166 224.958 315.848 230.469 313.529 235.981C313.105 237.01 313.07 236.822 313.738 237.7L313.739 237.697ZM338.449 176.831C338.296 177.193 338.163 177.436 338.057 177.689L322.253 215.256C321.969 215.932 321.967 215.937 322.424 216.538C325.439 220.518 328.454 224.495 331.469 228.471L347.979 250.254C348.161 250.498 348.348 250.728 348.538 250.953C349.338 250.982 363.836 249.209 367.926 248.594C368.057 248.572 368.185 248.526 368.344 248.485C368.277 248.201 368.13 247.941 367.919 247.738C366.249 245.52 364.574 243.307 362.894 241.1C361.268 238.953 359.641 236.807 358.014 234.662L342.447 214.162C342.244 213.895 342.053 213.621 341.835 213.322L350.538 192.634L338.789 177.116C338.682 177.014 338.568 176.919 338.448 176.834L338.449 176.831ZM372.473 191.144C372.447 191.115 372.419 191.087 372.388 191.063C372.367 191.047 372.342 191.037 372.316 191.033C372.148 191.045 371.98 191.053 371.815 191.075C365.473 191.874 359.133 192.677 352.902 193.472C352.783 193.538 352.759 193.548 352.738 193.565C352.717 193.585 352.7 193.609 352.686 193.634C352.643 193.735 352.578 193.83 352.535 193.931C349.902 200.192 347.268 206.452 344.635 212.712C344.608 212.789 344.588 212.868 344.575 212.949C344.867 213.498 355.83 228.005 356.526 228.775C356.711 228.796 356.753 228.649 356.809 228.528C356.896 228.323 356.984 228.113 357.07 227.907C362.098 215.957 367.124 204.008 372.15 192.06C372.301 191.775 372.408 191.47 372.469 191.154L372.473 191.144ZM417.184 182.662L405.307 166.983L340.67 175.185C340.598 175.195 340.534 175.259 340.453 175.304C340.464 175.389 340.49 175.472 340.528 175.549C344.466 180.755 348.403 185.967 352.297 191.094L352.468 191.166C352.495 191.176 352.523 191.18 352.551 191.179C359.499 190.312 366.451 189.441 373.405 188.564C387.973 186.714 402.539 184.861 417.104 183.007C417.13 182.998 417.155 182.985 417.177 182.969C417.201 182.953 417.218 182.932 417.253 182.904C417.227 182.817 417.228 182.72 417.184 182.662ZM417.605 185.397C417.3 185.337 416.986 185.348 416.687 185.431C413.32 185.851 409.954 186.275 406.589 186.702L376.222 190.55C375.087 190.692 375.265 190.568 374.838 191.582C372.51 197.117 370.182 202.651 367.854 208.185C367.696 208.446 367.598 208.739 367.567 209.042C367.862 209.212 368.138 209.083 368.414 209.055C372.415 208.553 376.417 208.047 380.421 207.535C389.93 206.329 399.439 205.119 408.947 203.905C410.081 203.762 409.915 203.928 410.389 202.806C412.695 197.325 415.002 191.842 417.309 186.358C417.474 186.064 417.574 185.738 417.603 185.402L417.605 185.397ZM410.225 206.116L390.793 208.579C390.668 208.612 390.547 208.656 390.43 208.711C390.825 209.462 391.384 210.052 391.865 210.704C392.347 211.356 392.843 212.002 393.336 212.647L394.808 214.593L396.281 216.537L397.754 218.479L399.227 220.423C399.718 221.073 400.204 221.72 400.7 222.367C401.196 223.013 401.699 223.639 402.19 224.298C402.68 224.956 403.207 225.635 403.716 226.304C404.225 226.973 404.696 227.603 405.173 228.244L406.648 230.189L408.122 232.131L409.593 234.073L411.065 236.017L412.538 237.961L414.011 239.905C414.501 240.552 414.996 241.198 415.485 241.847C415.974 242.496 416.457 243.142 416.966 243.819L408.301 264.416C408.634 265.031 419.675 279.622 420.241 280.215C420.425 280.236 420.476 280.096 420.529 279.97C420.616 279.762 420.702 279.557 420.791 279.347C426.002 266.96 431.213 254.572 436.425 242.184C436.871 241.121 436.944 241.348 436.22 240.393L410.772 206.815C410.603 206.594 410.427 206.378 410.223 206.121L410.225 206.116ZM445.61 220.195C445.579 220.138 445.545 220.084 445.507 220.032L420.105 186.514C420.053 186.458 419.995 186.409 419.931 186.367C419.725 186.371 419.708 186.538 419.655 186.652C419.555 186.854 419.48 187.067 419.394 187.272L412.069 204.684C420.586 215.919 429.091 227.136 437.583 238.334C437.651 238.409 437.727 238.475 437.81 238.532C437.891 238.481 437.957 238.466 437.977 238.426C438.41 237.579 445.417 220.835 445.607 220.199L445.61 220.195Z" fill="#D7D8DD"/>
</g>
<g clip-path="url(#clip12_1656_1727)">
<path d="M406.901 166.564C406.886 166.588 406.868 166.61 406.847 166.629C406.827 166.647 406.804 166.662 406.78 166.675C405.843 166.875 338.657 175.354 337.969 175.346L296.17 120.189C296.17 120.104 296.178 120.019 296.194 119.935C296.261 119.749 296.332 119.566 296.408 119.386C305.267 98.3271 314.132 77.2719 323.003 56.2203C323.017 56.1962 323.036 56.1751 323.058 56.1581C323.068 56.1339 323.103 56.1234 323.172 56.0696C323.474 56.0263 323.839 55.9753 324.198 55.933L380.686 48.7817C384.085 48.3569 387.479 47.9279 390.867 47.4945C392.02 47.3544 391.767 47.2336 392.519 48.2093C393.146 49.0416 393.769 49.8719 394.397 50.6902C407.357 67.7829 420.315 84.8763 433.269 101.97C433.437 102.194 433.596 102.423 433.734 102.615C433.733 102.689 433.723 102.763 433.704 102.835C424.889 123.789 416.079 144.746 407.273 165.706C407.164 165.992 407.032 166.272 406.901 166.564ZM327.531 157.775C329.826 160.824 332.128 163.864 334.437 166.895L338.503 172.254C338.594 172.361 338.679 172.474 338.756 172.591C338.832 172.726 338.95 172.831 339.092 172.891C339.234 172.951 339.392 172.962 339.541 172.921C340.847 172.743 342.152 172.599 343.462 172.422L402.953 164.889C403.292 164.884 403.627 164.82 403.944 164.701C403.918 164.601 403.919 164.511 403.873 164.452C399.932 159.241 395.988 154.03 391.987 148.754C370.328 151.501 348.699 154.241 327.101 156.974C327.152 157.281 327.303 157.563 327.531 157.775ZM396.043 136.046C397.194 133.31 398.347 130.568 399.503 127.82C399.621 127.54 399.728 127.252 399.852 126.929L388.058 111.373C387.996 111.302 387.929 111.236 387.856 111.177C387.631 111.199 387.607 111.357 387.552 111.473C387.476 111.654 387.4 111.835 387.324 112.016C382.287 123.989 377.25 135.963 372.212 147.938L371.845 148.81C372.014 148.881 372.079 148.931 372.113 148.923C378.591 148.112 385.06 147.3 391.52 146.486C391.839 146.242 391.904 145.898 392.032 145.593C393.372 142.4 394.702 139.225 396.043 136.046ZM329.867 146.946L327.059 153.62C326.941 153.903 326.823 154.183 326.727 154.452C326.944 154.711 327.178 154.594 327.386 154.567C329.138 154.357 330.888 154.137 332.637 153.906C344.505 152.407 356.372 150.906 368.24 149.402C368.516 149.367 368.793 149.325 369.092 149.283C369.202 149.074 369.316 148.885 369.404 148.681C371.808 142.968 374.212 137.254 376.616 131.537C376.699 131.342 376.742 131.13 376.811 130.906C376.716 130.873 376.617 130.853 376.517 130.848C362.508 132.622 348.521 134.394 334.556 136.164C334.308 136.394 334.132 136.691 334.049 137.019C332.649 140.328 331.255 143.637 329.867 146.946ZM378.359 127.402C380.197 123.032 382.036 118.661 383.874 114.291C384.515 112.768 385.158 111.239 385.804 109.703C385.923 109.421 386.027 109.134 386.125 108.886C385.794 108.269 374.143 92.83 373.287 91.8589C372.99 91.7339 372.687 91.8395 372.389 91.879C367.317 92.519 362.253 93.1616 357.198 93.8068C355.75 93.9916 354.304 94.176 352.858 94.36C352.582 94.3945 352.307 94.4407 352.006 94.4875C351.564 95.3101 344.013 113.326 343.839 113.949C344.177 114.557 356.195 130.421 356.765 130.999L377.922 128.313C378.076 128.008 378.229 127.711 378.358 127.405L378.359 127.402ZM299.29 120.513L323.818 152.887C324.001 153.129 324.189 153.356 324.447 153.675C324.875 152.943 332.022 135.953 332.22 135.198C323.781 124.07 315.323 112.912 306.845 101.723C306.741 101.602 306.632 101.487 306.516 101.377C306.424 101.486 306.34 101.6 306.264 101.72C306.173 101.895 306.111 102.082 306.035 102.263C303.717 107.773 301.399 113.284 299.08 118.796C298.656 119.825 298.621 119.637 299.289 120.515L299.29 120.513ZM324 59.6465C323.848 60.0087 323.714 60.2511 323.608 60.5046L307.804 98.0711C307.52 98.7472 307.518 98.7521 307.975 99.3537C310.99 103.333 314.005 107.311 317.02 111.287L333.53 133.07C333.712 133.314 333.9 133.543 334.089 133.768C334.89 133.798 349.388 132.025 353.477 131.409C353.609 131.388 353.736 131.342 353.895 131.301C353.828 131.016 353.681 130.757 353.471 130.554C351.801 128.335 350.125 126.123 348.445 123.915C346.819 121.768 345.192 119.623 343.565 117.477L327.999 96.9778C327.796 96.7105 327.604 96.4366 327.386 96.1374L336.089 75.449L324.34 59.9318C324.234 59.8294 324.12 59.7349 323.999 59.6489L324 59.6465ZM358.024 73.9598C357.999 73.9301 357.97 73.9029 357.939 73.8785C357.918 73.8626 357.893 73.8522 357.867 73.848C357.7 73.8601 357.531 73.8688 357.366 73.8902C351.025 74.6897 344.685 75.4927 338.453 76.2873C338.334 76.3538 338.31 76.3636 338.289 76.3802C338.269 76.4007 338.251 76.424 338.237 76.4494C338.195 76.5508 338.129 76.6455 338.087 76.7469C335.453 83.0072 332.82 89.2675 330.186 95.5277C330.159 95.6047 330.14 95.6838 330.126 95.7641C330.418 96.3132 341.381 110.821 342.077 111.591C342.262 111.612 342.304 111.465 342.36 111.343C342.447 111.138 342.535 110.928 342.622 110.723C347.649 98.7721 352.676 86.823 357.702 74.8755C357.852 74.5909 357.959 74.2855 358.02 73.9694L358.024 73.9598ZM402.735 65.4776L390.858 49.7985L326.221 58.0005C326.149 58.01 326.085 58.074 326.004 58.1193C326.016 58.2046 326.041 58.2874 326.08 58.3644C330.017 63.5702 333.955 68.7819 337.848 73.9097L338.019 73.9818C338.046 73.9911 338.074 73.9952 338.102 73.994C345.051 73.1277 352.002 72.2561 358.956 71.3792C373.524 69.5291 388.09 67.6768 402.656 65.8221C402.682 65.8134 402.706 65.8007 402.728 65.7844C402.752 65.7688 402.769 65.7477 402.804 65.7196C402.778 65.6321 402.779 65.5358 402.735 65.4776ZM403.156 68.2124C402.852 68.152 402.537 68.1638 402.238 68.2468C398.871 68.6663 395.505 69.09 392.14 69.5179L361.773 73.3654C360.639 73.5078 360.816 73.3835 360.389 74.3976C358.061 79.9319 355.733 85.4662 353.405 91.0005C353.247 91.2615 353.149 91.5542 353.118 91.8576C353.414 92.0272 353.689 91.8988 353.966 91.8701C357.966 91.3685 361.968 90.862 365.972 90.3506C375.481 89.1444 384.99 87.9342 394.498 86.7201C395.632 86.5777 395.466 86.7435 395.941 85.6218C398.246 80.1406 400.553 74.6578 402.86 69.1734C403.025 68.8792 403.125 68.5533 403.154 68.2173L403.156 68.2124ZM395.776 88.9316L376.344 91.3944C376.22 91.4272 376.098 91.4713 375.982 91.5261C376.376 92.2775 376.935 92.8678 377.417 93.5195C377.899 94.1712 378.394 94.8173 378.887 95.4624L380.359 97.4087L381.832 99.3526L383.306 101.294L384.778 103.238C385.27 103.888 385.756 104.536 386.251 105.182C386.747 105.828 387.25 106.455 387.741 107.113C388.231 107.771 388.758 108.451 389.267 109.119C389.776 109.788 390.247 110.418 390.724 111.059L392.2 113.004L393.673 114.946L395.144 116.889L396.617 118.833L398.09 120.777L399.562 122.721C400.052 123.367 400.548 124.013 401.036 124.662C401.525 125.311 402.009 125.958 402.517 126.635L393.852 147.232C394.185 147.846 405.226 162.438 405.792 163.031C405.977 163.052 406.027 162.911 406.08 162.785C406.167 162.578 406.254 162.373 406.342 162.162C411.553 149.775 416.764 137.388 421.976 124.999C422.423 123.937 422.495 124.163 421.772 123.208L396.323 89.6306C396.155 89.4092 395.979 89.193 395.774 88.9364L395.776 88.9316ZM431.161 103.01C431.131 102.954 431.096 102.899 431.059 102.848L405.656 69.3295C405.604 69.2736 405.546 69.2242 405.482 69.1824C405.276 69.1865 405.26 69.3531 405.206 69.467C405.107 69.6695 405.031 69.8823 404.945 70.0875L397.62 87.4993C406.137 98.7345 414.642 109.951 423.135 121.15C423.203 121.224 423.279 121.29 423.361 121.348C423.443 121.296 423.508 121.282 423.528 121.242C423.961 120.395 430.968 103.651 431.159 103.015L431.161 103.01Z" fill="#D7D8DD"/>
</g>
</g>
<defs>
<clipPath id="clip0_1656_1727">
<rect width="325" height="318" fill="white"/>
</clipPath>
<clipPath id="clip1_1656_1727">
<rect width="120.162" height="138.785" fill="white" transform="matrix(0.921759 0.387763 0.387763 -0.921759 -0.166992 367.274)"/>
</clipPath>
<clipPath id="clip2_1656_1727">
<rect width="120.162" height="138.785" fill="white" transform="matrix(0.921759 0.387763 0.387763 -0.921759 -14.6777 249.767)"/>
</clipPath>
<clipPath id="clip3_1656_1727">
<rect width="120.162" height="138.785" fill="white" transform="matrix(0.921759 0.387763 0.387763 -0.921759 93.9795 295.477)"/>
</clipPath>
<clipPath id="clip4_1656_1727">
<rect width="120.162" height="138.785" fill="white" transform="matrix(0.921759 0.387763 0.387763 -0.921759 109.52 412.564)"/>
</clipPath>
<clipPath id="clip5_1656_1727">
<rect width="120.162" height="138.785" fill="white" transform="matrix(0.921759 0.387763 0.387763 -0.921759 203.666 340.767)"/>
</clipPath>
<clipPath id="clip6_1656_1727">
<rect width="120.162" height="138.785" fill="white" transform="matrix(0.921759 0.387763 0.387763 -0.921759 312.324 386.477)"/>
</clipPath>
<clipPath id="clip7_1656_1727">
<rect width="120.162" height="138.785" fill="white" transform="matrix(0.921759 0.387763 0.387763 -0.921759 79.5703 177.731)"/>
</clipPath>
<clipPath id="clip8_1656_1727">
<rect width="120.162" height="138.785" fill="white" transform="matrix(0.921759 0.387763 0.387763 -0.921759 188.229 223.438)"/>
</clipPath>
<clipPath id="clip9_1656_1727">
<rect width="120.162" height="138.785" fill="white" transform="matrix(0.921759 0.387763 0.387763 -0.921759 173.217 106.804)"/>
</clipPath>
<clipPath id="clip10_1656_1727">
<rect width="120.162" height="138.785" fill="white" transform="matrix(0.921759 0.387763 0.387763 -0.921759 297.935 268.685)"/>
</clipPath>
<clipPath id="clip11_1656_1727">
<rect width="120.162" height="138.785" fill="white" transform="matrix(0.921759 0.387763 0.387763 -0.921759 297.108 269.252)"/>
</clipPath>
<clipPath id="clip12_1656_1727">
<rect width="120.162" height="138.785" fill="white" transform="matrix(0.921759 0.387763 0.387763 -0.921759 282.659 152.067)"/>
</clipPath>
</defs>
</svg>
