<svg width="48" height="48" viewBox="0 0 48 48" fill="none" xmlns="http://www.w3.org/2000/svg">
<rect width="48" height="48" rx="24" fill="#293F52"/>
<path d="M21.2246 20.9902C20.0218 21.175 18.0077 21.9103 16.7832 23.8613L16.668 24.0537C16.016 25.1829 15.9708 26.0856 16.1582 26.7588L16.1992 26.8896C16.4059 27.5027 16.8123 27.9422 17.1602 28.1865L17.3057 28.2793C17.6314 28.4673 18.1761 28.6395 18.793 28.582L19.0615 28.543C19.7263 28.4092 20.487 27.9818 21.1523 26.9365L21.2842 26.7188C22.4939 24.6232 22.1139 22.4106 21.6582 21.2402L21.542 20.9414L21.2246 20.9902ZM15.457 24.0635C14.3452 23.438 13.1931 23.381 12.5078 23.4502L12.1924 23.4824L12.1514 23.7969C12.0451 24.6211 12.1302 25.9512 13.0166 26.9893L13.2041 27.1924C13.7444 27.7327 14.2543 27.9499 14.6826 28.001L14.8613 28.0137C15.0485 28.0168 15.2222 27.989 15.377 27.9424L15.8105 27.8115L15.6279 27.3975L15.5195 27.1191C15.2795 26.407 15.259 25.5437 15.6348 24.5537L15.7568 24.2314L15.457 24.0635ZM27.3516 23.2617H35.7383V17.9102H27.3516V23.2617ZM17.5312 29.166L17.2832 29.0645C17.2205 29.0388 17.1606 29.0118 17.1045 28.9844L16.9463 28.9004C16.7877 28.8088 16.613 28.6838 16.4395 28.5254L16.2334 28.3379L15.9863 28.4658C15.6691 28.6301 15.2809 28.7378 14.8486 28.7305C14.2169 28.7197 13.5196 28.4639 12.834 27.8311L12.6973 27.6992C11.2522 26.2541 11.2922 24.2576 11.5166 23.2773L11.5635 23.0957C11.5892 23.0072 11.6474 22.9326 11.7246 22.8867L11.8076 22.8506C12.443 22.6661 14.1455 22.5165 15.7734 23.418L16.0938 23.5957L16.2988 23.291C17.8006 21.0633 20.2216 20.3418 21.501 20.2354L21.7412 20.2227C21.8423 20.2201 21.9382 20.2598 22.0068 20.3301L22.0654 20.4092C22.6488 21.4816 23.4174 24.1949 22.0449 26.8232L21.9053 27.0781C21.1695 28.3522 20.2612 28.9767 19.3789 29.2051L19.2031 29.2461C19.0103 29.2849 18.821 29.3047 18.6377 29.3096L18.248 29.3203V32.7246C18.2483 33.3642 18.7675 33.8828 19.4072 33.8828H30.0273C30.667 33.8828 31.1863 33.3642 31.1865 32.7246V23.9795H26.9932C26.7953 23.9794 26.635 23.8189 26.6348 23.6211V17.5518C26.6348 17.3538 26.7952 17.1934 26.9932 17.1934H28.9102V13.7588C28.9102 13.5608 29.0715 13.4004 29.2695 13.4004C29.4674 13.4006 29.6279 13.5609 29.6279 13.7588V17.1934H33.4619V13.7588C33.4619 13.5608 33.6233 13.4004 33.8213 13.4004C34.0191 13.4006 34.1797 13.5609 34.1797 13.7588V17.1934H36.0967C36.2947 17.1934 36.4551 17.3537 36.4551 17.5518V23.6211C36.4549 23.8189 36.2945 23.9795 36.0967 23.9795H31.9033V32.7246C31.9031 33.7604 31.0632 34.5996 30.0273 34.5996H19.4072C18.3714 34.5996 17.5315 33.7604 17.5312 32.7246V29.166Z" stroke="white" stroke-width="0.8"/>
</svg>
