<svg width="53" height="52" viewBox="0 0 53 52" fill="none" xmlns="http://www.w3.org/2000/svg">
<rect width="53" height="52" rx="26" fill="#293F52"/>
<path d="M23.4385 22.7334C22.1134 22.933 19.8895 23.7284 18.5361 25.8438L18.4072 26.0527C17.6863 27.278 17.6366 28.2597 17.8447 28.9932L17.8896 29.1357C18.1189 29.803 18.5693 30.2795 18.9531 30.5439L19.1123 30.6445C19.497 30.8623 20.1588 31.0599 20.8975 30.9541L21.0459 30.9287C21.7771 30.7843 22.6168 30.3226 23.3525 29.1885L23.498 28.9531C24.8366 26.6786 24.4162 24.2762 23.9121 23.0059L23.7832 22.6807L23.4385 22.7334ZM17.0635 26.0615C15.8373 25.3849 14.5675 25.3236 13.8125 25.3984L13.4648 25.4326L13.4199 25.7793C13.3022 26.6753 13.3962 28.1196 14.376 29.2461L14.584 29.4668C15.1809 30.0525 15.7433 30.2867 16.2139 30.3418L16.4102 30.3555C16.6158 30.3588 16.8064 30.3286 16.9766 30.2783L17.46 30.1348L17.2529 29.6758L17.1338 29.375C16.8699 28.6067 16.8479 27.6752 17.2617 26.6055L17.4004 26.2471L17.0635 26.0615ZM30.2031 25.208H39.46V19.3965H30.2031V25.208ZM19.3564 31.5908L19.0801 31.4795C18.9417 31.4239 18.8166 31.3632 18.708 31.3018H18.707C18.5319 31.2024 18.3397 31.0668 18.1484 30.8955L17.9248 30.6943L17.6562 30.8311C17.3053 31.0094 16.8755 31.126 16.3965 31.1182L16.1123 31.0996C15.49 31.0258 14.8229 30.7376 14.167 30.1436L14.0166 30.001C12.4232 28.4377 12.4677 26.279 12.7148 25.2207L12.7666 25.0244C12.7939 24.9323 12.8567 24.8528 12.9424 24.8027L13.0361 24.7627C13.7398 24.5623 15.6217 24.3995 17.4209 25.377L17.7695 25.5664L17.9932 25.2402C19.6504 22.8281 22.3245 22.0453 23.7402 21.9297L24.0059 21.915C24.1211 21.9122 24.2283 21.9568 24.3037 22.0322L24.3672 22.1172C25.0103 23.2771 25.858 26.2111 24.3447 29.0537L24.1904 29.3281C23.3794 30.7062 22.3779 31.3847 21.4014 31.6328L21.2061 31.6768C20.9925 31.7189 20.7831 31.7408 20.5801 31.7461L20.1514 31.7578V35.4521C20.1516 36.1567 20.7321 36.7139 21.4297 36.7139H33.1562C33.8537 36.7139 34.4334 36.1567 34.4336 35.4521V25.9717H29.8057C29.5782 25.9717 29.4083 25.7927 29.4082 25.5898V19.0146C29.4084 18.8118 29.5783 18.6328 29.8057 18.6328H31.9209V14.9062C31.9209 14.7033 32.091 14.5246 32.3184 14.5244C32.5459 14.5244 32.7158 14.7033 32.7158 14.9062V18.6328H36.9473V14.9062C36.9473 14.7033 37.1172 14.5244 37.3447 14.5244C37.5721 14.5245 37.7422 14.7033 37.7422 14.9062V18.6328H39.8574C40.0848 18.6328 40.2547 18.8118 40.2549 19.0146V25.5898C40.2548 25.7927 40.0849 25.9717 39.8574 25.9717H35.2295V35.4521C35.2293 36.5627 34.3089 37.4775 33.1562 37.4775H21.4297C20.277 37.4775 19.3566 36.5628 19.3564 35.4521V31.5908Z" stroke="white" stroke-width="0.88"/>
</svg>
