<svg width="48" height="48" viewBox="0 0 48 48" fill="none" xmlns="http://www.w3.org/2000/svg">
<rect width="48" height="48" rx="24" fill="#293F52"/>
<path d="M31.6033 25.4219L30.874 26.1412L34.562 29.8792L30.874 33.6171L31.6033 34.3364L36.0006 29.8792L31.6033 25.4219Z" fill="white"/>
<path d="M16.126 26.1412L15.3968 25.4219L11 29.8792L15.3968 34.3364L16.126 33.6171L12.4386 29.8792L16.126 26.1412Z" fill="white"/>
<path d="M31.4998 14H15.5005L12.6328 19.7353L23.5002 30.6026L34.3675 19.7353L31.4998 14ZM30.8666 15.0244L32.9154 19.122H27.3488L26.6658 15.0244H30.8666ZM21.373 15.0244H25.6274L26.3104 19.122H20.6899L21.373 15.0244ZM16.1337 15.0244H20.3345L19.6515 19.122H14.0849L16.1337 15.0244ZM14.4926 20.1465H19.7163L22.3284 27.9823L14.4926 20.1465ZM20.7958 20.1465H26.2046L23.5002 28.2592L20.7958 20.1465ZM24.6719 27.9823L27.284 20.1465H32.5078L24.6719 27.9823Z" fill="white"/>
</svg>
