<svg width="53" height="53" viewBox="0 0 53 53" fill="none" xmlns="http://www.w3.org/2000/svg">
<rect width="53" height="53" rx="26.5" fill="#293F52"/>
<path d="M38.9238 38.0957H27.3301V21.4487C28.1248 21.2853 28.8542 20.8924 29.428 20.3186C30.0017 19.7449 30.3946 19.0155 30.5581 18.2207H35.6113C35.831 18.2207 36.0416 18.1335 36.1969 17.9782C36.3522 17.8228 36.4395 17.6122 36.4395 17.3926C36.4395 17.1729 36.3522 16.9623 36.1969 16.807C36.0416 16.6517 35.831 16.5645 35.6113 16.5645H30.5581C30.3673 15.6295 29.8593 14.7891 29.1202 14.1855C28.3811 13.5819 27.4562 13.2521 26.502 13.252C25.5477 13.2521 24.6228 13.5819 23.8837 14.1855C23.1446 14.7891 22.6366 15.6295 22.4458 16.5645H17.3926C17.1729 16.5645 16.9623 16.6517 16.807 16.807C16.6517 16.9623 16.5645 17.1729 16.5645 17.3926C16.5645 17.6122 16.6517 17.8228 16.807 17.9782C16.9623 18.1335 17.1729 18.2207 17.3926 18.2207H22.4458C22.6093 19.0155 23.0022 19.7449 23.5759 20.3186C24.1497 20.8924 24.8791 21.2853 25.6738 21.4487V38.0957H14.0801C13.8604 38.0957 13.6498 38.1829 13.4945 38.3383C13.3392 38.4936 13.252 38.7042 13.252 38.9238C13.252 39.1435 13.3392 39.3541 13.4945 39.5094C13.6498 39.6647 13.8604 39.752 14.0801 39.752H38.9238C39.1435 39.752 39.3541 39.6647 39.5094 39.5094C39.6647 39.3541 39.752 39.1435 39.752 38.9238C39.752 38.7042 39.6647 38.4936 39.5094 38.3383C39.3541 38.1829 39.1435 38.0957 38.9238 38.0957ZM24.0176 17.3926C24.0176 16.7337 24.2793 16.1018 24.7452 15.6359C25.2111 15.1699 25.8431 14.9082 26.502 14.9082C27.1608 14.9082 27.7928 15.1699 28.2587 15.6359C28.7246 16.1018 28.9863 16.7337 28.9863 17.3926C28.9863 18.0515 28.7246 18.6834 28.2587 19.1493C27.7928 19.6152 27.1608 19.877 26.502 19.877C25.8431 19.877 25.2111 19.6152 24.7452 19.1493C24.2793 18.6834 24.0176 18.0515 24.0176 17.3926ZM13.252 29.831C13.2563 31.1459 13.7818 32.4055 14.7131 33.3337C15.6445 34.262 16.9058 34.7832 18.2207 34.7832C19.5356 34.7832 20.7969 34.262 21.7283 33.3337C22.6596 32.4055 23.1851 31.1459 23.1895 29.831V29.8145C23.1877 29.6867 23.1553 29.5611 23.095 29.4484C23.095 29.4368 23.095 29.4236 23.0851 29.412L18.9445 21.9589C18.8662 21.8379 18.7589 21.7384 18.6324 21.6695C18.5058 21.6006 18.364 21.5645 18.2199 21.5645C18.0758 21.5645 17.934 21.6006 17.8074 21.6695C17.6808 21.7384 17.5735 21.8379 17.4953 21.9589L13.3546 29.412C13.3546 29.4236 13.3546 29.4368 13.3464 29.4484C13.2861 29.5611 13.2537 29.6867 13.252 29.8145V29.831ZM18.2207 33.127C17.4885 33.1242 16.7778 32.8789 16.1997 32.4294C15.6217 31.9799 15.2089 31.3516 15.0258 30.6426H21.4156C21.2326 31.3516 20.8197 31.9799 20.2417 32.4294C19.6636 32.8789 18.9529 33.1242 18.2207 33.127ZM18.2207 24.0673L20.9535 28.9863H15.4879L18.2207 24.0673ZM39.752 29.8145C39.7502 29.6867 39.7178 29.5611 39.6575 29.4484C39.6575 29.4368 39.6575 29.4236 39.6476 29.412L35.507 21.9589C35.4287 21.8379 35.3214 21.7384 35.1949 21.6695C35.0683 21.6006 34.9265 21.5645 34.7824 21.5645C34.6383 21.5645 34.4965 21.6006 34.3699 21.6695C34.2433 21.7384 34.136 21.8379 34.0578 21.9589L29.9171 29.412C29.9171 29.4236 29.9171 29.4368 29.9089 29.4484C29.8486 29.5611 29.8162 29.6867 29.8145 29.8145V29.831C29.8188 31.1459 30.3443 32.4055 31.2756 33.3337C32.207 34.262 33.4683 34.7832 34.7832 34.7832C36.0981 34.7832 37.3594 34.262 38.2908 33.3337C39.2221 32.4055 39.7476 31.1459 39.752 29.831V29.8145ZM34.7832 24.0673L37.516 28.9863H32.0504L34.7832 24.0673ZM34.7832 33.127C34.051 33.1242 33.3403 32.8789 32.7622 32.4294C32.1842 31.9799 31.7714 31.3516 31.5883 30.6426H37.9781C37.7951 31.3516 37.3822 31.9799 36.8042 32.4294C36.2261 32.8789 35.5154 33.1242 34.7832 33.127Z" fill="white"/>
</svg>
