<svg width="32" height="23" viewBox="0 0 32 23" fill="none" xmlns="http://www.w3.org/2000/svg">
<path fill-rule="evenodd" clip-rule="evenodd" d="M20.0167 10.5891C21.3342 9.37995 23.3443 8.18783 25.2709 8.18783C26.2591 8.18783 27.2048 8.38226 28.0646 8.73345C28.1638 8.77355 28.2728 8.74803 28.3431 8.6654C28.4109 8.58398 28.4194 8.47097 28.3649 8.37983L24.5261 2.1568C24.1398 1.72178 23.6615 1.40216 23.1384 1.21259C22.3949 0.94403 21.5642 0.933092 20.7904 1.22352C19.8604 1.57107 19.1484 2.29653 18.802 3.18727C18.7681 3.27234 18.7378 3.35983 18.7124 3.44732C18.6906 3.5178 18.6991 3.58343 18.7378 3.6454C18.7742 3.70495 18.8287 3.74383 18.8989 3.75598C20.0081 3.96743 21.0955 4.30403 22.1455 4.76702C22.6021 4.96996 22.889 5.43658 22.8636 5.93725C22.8382 6.44277 22.5064 6.87537 22.0281 7.02848C20.2492 7.60207 19.8399 9.15142 19.6147 10.3655C19.5929 10.47 19.6425 10.5697 19.7333 10.6219C19.8266 10.6754 19.9368 10.662 20.0155 10.5903L20.0167 10.5891ZM18.7489 10.2755C18.7913 8.4078 19.9937 6.66412 21.7314 6.1026C21.8271 6.07101 21.8913 5.98716 21.8973 5.88751C21.9022 5.78787 21.8465 5.69794 21.7545 5.65784C18.2149 4.09269 14.1861 4.072 10.6295 5.59829C10.5387 5.6384 10.483 5.72589 10.4854 5.82796C10.4902 5.92761 10.5532 6.01146 10.6489 6.04549C12.4737 6.6616 13.698 8.39446 13.6762 10.3581C13.6738 10.4237 13.698 10.4845 13.7464 10.5307C13.7937 10.5793 13.8506 10.6036 13.9184 10.6036C16.6418 10.6145 17.9992 10.5635 18.5284 10.5124C18.6519 10.4991 18.7427 10.3994 18.7476 10.2755L18.7489 10.2755ZM25.271 9.16001C21.7144 9.16001 18.8314 12.051 18.8314 15.6201C18.8314 19.1892 21.7146 22.0823 25.271 22.0823C28.8276 22.0823 31.7106 19.189 31.7106 15.6201C31.7106 12.051 28.8274 9.16001 25.271 9.16001ZM25.3194 11.7095C25.587 11.7095 25.8038 11.927 25.8038 12.1956C25.8038 12.4641 25.587 12.6816 25.3194 12.6816C24.5335 12.6816 23.8215 13.0012 23.3068 13.5177C22.7922 14.0342 22.4737 14.7475 22.4737 15.5373C22.4737 15.8059 22.257 16.0234 21.9893 16.0234C21.7217 16.0234 21.505 15.8059 21.505 15.5373C21.505 14.4801 21.9324 13.525 22.6227 12.8323C23.3129 12.1397 24.2647 11.7107 25.3182 11.7107L25.3194 11.7095ZM25.271 11.1019C27.757 11.1019 29.7731 13.1252 29.7731 15.6198C29.7731 18.1145 27.7569 20.1378 25.271 20.1378C22.7849 20.1378 20.7689 18.1145 20.7689 15.6198C20.7689 13.1252 22.7851 11.1019 25.271 11.1019ZM7.15056 9.07375C10.7047 9.07375 13.588 11.9671 13.588 15.536C13.588 19.1051 10.7048 21.9983 7.15056 21.9983C3.59394 21.9983 0.710938 19.1049 0.710938 15.536C0.710938 11.9669 3.59418 9.07375 7.15056 9.07375ZM7.15056 11.7095C7.41576 11.7095 7.63494 11.927 7.63494 12.1956C7.63494 12.4641 7.41576 12.6817 7.15056 12.6817C6.36465 12.6817 5.65265 13.0012 5.13798 13.5177C4.62211 14.0342 4.30486 14.7475 4.30486 15.5374C4.30486 15.8059 4.08568 16.0234 3.82048 16.0234C3.55287 16.0234 3.33611 15.8059 3.33611 15.5374C3.33611 14.4802 3.76357 13.525 4.4514 12.8324C5.14164 12.1397 6.09585 11.7107 7.14936 11.7107L7.15056 11.7095ZM7.15056 11.0193C9.63661 11.0193 11.6505 13.0426 11.6505 15.5372C11.6505 18.032 9.63673 20.0552 7.15056 20.0552C4.6621 20.0552 2.64844 18.0319 2.64844 15.5372C2.64844 13.0424 4.66223 11.0193 7.15056 11.0193ZM16.1926 6.12211C16.9701 6.12211 17.601 6.75523 17.601 7.53781C17.601 8.31796 16.9701 8.95109 16.1926 8.95109C15.4128 8.95109 14.7819 8.31796 14.7819 7.53781C14.7819 6.75523 15.4128 6.12211 16.1926 6.12211ZM13.7236 3.41709C13.6933 3.31016 13.6582 3.20565 13.6194 3.10358C13.2707 2.21041 12.5598 1.48495 11.631 1.13983C10.8573 0.849399 10.0253 0.857904 9.28183 1.12889C8.76113 1.31846 8.28159 1.63684 7.89651 2.07065L4.05778 8.29616C4.00086 8.3873 4.00934 8.50032 4.07957 8.58174C4.14739 8.66437 4.25758 8.68989 4.35567 8.64979C5.21784 8.2986 6.16117 8.10174 7.15171 8.10174C9.14008 8.10174 10.9467 8.88796 12.2763 10.17C12.3502 10.2429 12.4592 10.2599 12.55 10.2125C12.6432 10.1676 12.6965 10.074 12.6856 9.96948C12.55 8.60482 11.6951 7.42122 10.34 6.96554C9.86412 6.80392 9.53961 6.36887 9.52024 5.86578C9.50086 5.36269 9.79027 4.90212 10.2516 4.70405C11.3136 4.24837 12.4144 3.92147 13.5345 3.7234C13.6048 3.71004 13.6605 3.6748 13.698 3.61282C13.7368 3.55327 13.7452 3.48644 13.7259 3.41717L13.7236 3.41709Z" fill="#FABD47"/>
</svg>
