<svg width="30" height="33" viewBox="0 0 30 33" fill="none" xmlns="http://www.w3.org/2000/svg">
<path d="M28.6253 7.78483L27.1101 7.9728L24.5629 10.0027L24.7335 10.9134L22.4722 11.2835L21.5387 10.8556L21.368 9.88033L20.4515 9.90254L20.668 11.5843L18.3405 11.6392L15.1714 10.6618L12.4362 9.16118L13.2138 7.63442L11.2448 6.29577L11.0831 5.00508L11.6126 5.3276L12.1811 4.96967L11.5283 3.74829L12.7497 2.63226L13.0075 1.72945L12.0354 1.39019L10.2438 1.70572L8.39063 0L6.34641 0.142915L5.69326 0.976038L7.16328 2.07342L6.79914 2.44923L6.43602 2.52755L6.41279 4.24355L7.70867 5.03504L4.0769 9.96791L2.5358 9.82042L1.56141 11.1447L3.06786 13.6458L1.90829 14.1837L0.621542 13.9638L0 14.5393L1.05245 15.6381L0.951289 16.6095L2.74979 18.1536L2.78736 18.1246L4.51351 17.6042L4.73334 18.5178L4.76799 21.2242L7.09843 28.1522L7.66527 29.2423L8.43429 31.7867L9.05025 32.4923L10.1432 32.4084L10.3513 31.729L12.1874 29.6269V29.4331L12.1498 28.4616L12.1932 28.3229L12.7021 26.6313L12.6502 26.5995L12.6704 26.5504L12.7021 26.6313L12.6819 26.533L12.4217 24.8472L12.6502 24.0984L16.7676 21.1057L17.499 20.1342L17.953 19.4172L19.2021 19.0962L20.2807 17.2081L20.9687 16.7858L21.9779 17.0577L21.096 13.1254L21.0555 11.6652L22.3017 11.9051L22.5041 12.7466L23.097 13.0444L25.1989 13.0733L24.9908 13.6168L25.1729 14.5596L25.6269 16.2713L26.3845 15.1233L26.2312 14.1027L26.9656 14.1807L27.5006 12.3909L27.998 10.9712L29.4667 10.0432L30.0074 9.23924L28.6253 7.78483Z" fill="#293F52"/>
</svg>
