<svg width="48" height="48" viewBox="0 0 48 48" fill="none" xmlns="http://www.w3.org/2000/svg">
<path d="M45 24C45 18.4305 42.7875 13.089 38.8493 9.15077C34.911 5.2125 29.5696 3.00001 24 3.00001C18.7121 2.99513 13.6169 4.98538 9.73231 8.57322C5.84772 12.1611 3.45969 17.0824 3.04523 22.3541C2.63077 27.6258 4.22039 32.8598 7.49656 37.0106C10.7727 41.1614 15.4943 43.9235 20.718 44.745V30.069H15.39V24H20.721V19.374C20.721 14.112 23.856 11.202 28.653 11.202C30.951 11.202 33.354 11.613 33.354 11.613V16.782H30.705C28.095 16.782 27.285 18.402 27.285 20.061V24H33.108L32.178 30.069H27.282V44.745C32.2215 43.9628 36.7198 41.4437 39.9678 37.6409C43.2157 33.8381 45.0001 29.0011 45 24Z" fill="#1877F2"/>
<path d="M32.175 30.0692L33.105 24.0002H27.282V20.0612C27.282 18.4022 28.092 16.7822 30.702 16.7822H33.351V11.6102C33.351 11.6102 30.948 11.1992 28.65 11.1992C23.85 11.1992 20.718 14.1092 20.718 19.3712V24.0002H15.39V30.0692H20.721V44.7452C22.8956 45.0875 25.1104 45.0875 27.285 44.7452V30.0692H32.175Z" fill="white"/>
</svg>
