<svg width="197" height="363" viewBox="0 0 197 363" fill="none" xmlns="http://www.w3.org/2000/svg">
<g clip-path="url(#clip0_1889_1751)">
<g clip-path="url(#clip1_1889_1751)">
<path d="M100.19 296.238C100.171 296.259 100.15 296.277 100.126 296.293C100.102 296.306 100.077 296.316 100.051 296.324C99.093 296.34 31.531 291.725 30.858 291.585L0.459772 229.412C0.476595 229.328 0.500997 229.247 0.532667 229.167C0.634084 228.998 0.739362 228.832 0.848499 228.67C13.5961 209.711 26.3491 190.756 39.1073 171.806C39.1257 171.785 39.1479 171.768 39.1729 171.756C39.1875 171.734 39.2246 171.731 39.3017 171.691C39.6068 171.707 39.9751 171.727 40.3354 171.755L97.1431 175.613C100.561 175.85 103.974 176.083 107.382 176.31C108.54 176.394 108.315 176.227 108.865 177.329C109.32 178.267 109.772 179.202 110.23 180.125C119.657 199.394 129.081 218.662 138.502 237.93C138.623 238.182 138.736 238.438 138.834 238.652C138.819 238.725 138.794 238.796 138.762 238.863C126.078 257.727 113.398 276.596 100.721 295.468C100.559 295.728 100.375 295.977 100.19 296.238ZM23.9984 272.332C25.6626 275.766 27.3362 279.193 29.0189 282.612L31.9768 288.654C32.0459 288.776 32.1073 288.903 32.1606 289.033C32.2085 289.18 32.3041 289.306 32.4321 289.392C32.5601 289.478 32.7132 289.519 32.8671 289.508C34.1826 289.584 35.4914 289.694 36.8112 289.773L96.6391 293.835C96.9726 293.895 97.314 293.897 97.6483 293.841C97.6414 293.738 97.6599 293.65 97.626 293.583C94.7619 287.711 91.8956 281.838 88.9846 275.891C67.2018 274.416 45.4503 272.941 23.7301 271.464C23.7209 271.775 23.8153 272.081 23.9984 272.332ZM95.4111 264.201C97.0677 261.738 98.7277 259.269 100.391 256.795C100.561 256.543 100.721 256.281 100.905 255.988L92.3261 238.452C92.2798 238.37 92.2261 238.293 92.1657 238.221C91.9405 238.199 91.8869 238.349 91.811 238.453C91.7013 238.616 91.5917 238.779 91.4821 238.942C84.2342 249.722 76.9858 260.502 69.737 271.283L69.2093 272.068C69.3615 272.17 69.415 272.231 69.4506 272.23C75.963 272.682 82.4672 273.13 88.9632 273.575C89.3228 273.397 89.4534 273.072 89.6376 272.798C91.5677 269.922 93.484 267.063 95.4111 264.201ZM28.3752 262.156L24.3352 268.165C24.1642 268.419 23.9946 268.671 23.8484 268.917C24.0121 269.213 24.2645 269.143 24.473 269.157C26.2326 269.288 27.9928 269.409 29.7535 269.519C41.6874 270.334 53.622 271.145 65.5574 271.954C65.8349 271.974 66.1146 271.985 66.416 272.001C66.5649 271.817 66.7124 271.654 66.8388 271.471C70.2971 266.328 73.7563 261.183 77.2166 256.037C77.3349 255.861 77.4186 255.661 77.5291 255.454C77.4426 255.404 77.3493 255.365 77.252 255.341C63.1637 254.385 49.0972 253.431 35.0525 252.479C34.7647 252.657 34.5346 252.914 34.3899 253.22C32.3797 256.197 30.3748 259.176 28.3752 262.156ZM79.7225 252.314C82.3682 248.38 85.0138 244.445 87.6594 240.51C88.5812 239.139 89.5069 237.762 90.4365 236.38C90.6075 236.126 90.764 235.865 90.9088 235.64C90.7022 234.971 82.2419 217.577 81.5888 216.459C81.3214 216.28 81.0037 216.325 80.7037 216.306C75.6033 215.958 70.5106 215.613 65.4257 215.273C63.9696 215.176 62.5147 215.078 61.061 214.981C60.7836 214.961 60.5046 214.954 60.2002 214.942C59.6074 215.664 48.7296 231.889 48.4388 232.467C48.6535 233.129 57.3923 251.009 57.8401 251.686L79.1185 253.123C79.3281 252.854 79.5355 252.593 79.7211 252.316L79.7225 252.314ZM3.45968 230.331L21.2956 266.822C21.4282 267.094 21.5695 267.353 21.7614 267.716C22.3219 267.079 32.6061 251.784 32.946 251.081C26.8077 238.536 20.656 225.958 14.4909 213.347C14.4125 213.208 14.327 213.074 14.2346 212.944C14.1238 213.033 14.019 213.129 13.921 213.232C13.7984 213.386 13.7018 213.558 13.5922 213.721C10.2567 218.682 6.92067 223.643 3.58419 228.606C2.9695 229.534 2.97171 229.343 3.45822 230.333L3.45968 230.331ZM39.426 175.36C39.2068 175.687 39.0294 175.899 38.8759 176.127L16.1354 209.948C15.7262 210.557 15.7232 210.561 16.0562 211.239C18.2487 215.725 20.4414 220.209 22.6343 224.69L34.6417 249.245C34.7729 249.519 34.9128 249.781 35.0556 250.038C35.8352 250.221 50.4034 251.272 54.5352 251.456C54.6682 251.46 54.8019 251.439 54.9662 251.43C54.9554 251.138 54.8606 250.855 54.6933 250.615C53.4816 248.117 52.2638 245.623 51.0399 243.133C49.8575 240.713 48.6745 238.295 47.4911 235.876L36.1624 212.763C36.0146 212.462 35.8793 212.156 35.7229 211.821L48.2464 193.195L39.7051 175.706C39.62 175.585 39.5262 175.47 39.4246 175.363L39.426 175.36ZM70.058 195.957C70.0383 195.923 70.0156 195.89 69.9901 195.861C69.9722 195.841 69.9498 195.826 69.9249 195.817C69.7586 195.796 69.5916 195.772 69.4252 195.762C63.0486 195.325 56.6727 194.893 50.405 194.473C50.2755 194.515 50.2501 194.52 50.2261 194.532C50.202 194.548 50.1804 194.568 50.1619 194.59C50.1005 194.681 50.0181 194.762 49.9567 194.853C46.1671 200.489 42.3775 206.125 38.5879 211.761C38.5471 211.832 38.5123 211.906 38.4839 211.982C38.6646 212.577 46.6292 228.923 47.164 229.813C47.3411 229.869 47.4107 229.733 47.4896 229.625C47.6138 229.44 47.741 229.251 47.8652 229.066C55.0994 218.307 62.3327 207.549 69.565 196.793C69.7673 196.543 69.9315 196.264 70.0521 195.965L70.058 195.957ZM115.565 196.241L106.93 178.569L41.9228 174.173C41.8501 174.168 41.7751 174.219 41.6864 174.248C41.6814 174.334 41.6907 174.42 41.7137 174.503C44.5749 180.369 47.4354 186.242 50.2687 192.023L50.423 192.127C50.4473 192.141 50.4742 192.15 50.5021 192.155C57.4871 192.642 64.4762 193.125 71.4695 193.604C86.1205 194.593 100.771 195.58 115.421 196.564C115.448 196.561 115.475 196.553 115.5 196.541C115.526 196.531 115.547 196.513 115.586 196.492C115.578 196.401 115.597 196.307 115.565 196.241ZM115.452 199.006C115.165 198.888 114.854 198.839 114.544 198.863C111.16 198.627 107.775 198.394 104.391 198.166L73.8507 196.095C72.7104 196.017 72.9083 195.929 72.2944 196.842C68.9443 201.824 65.5942 206.807 62.2441 211.789C62.0389 212.015 61.8865 212.283 61.7978 212.575C62.0548 212.798 62.3501 212.725 62.6268 212.751C66.6488 213.028 70.6738 213.302 74.7016 213.571C84.2647 214.218 93.8284 214.861 103.392 215.501C104.533 215.579 104.338 215.71 105.019 214.701C108.337 209.766 111.656 204.83 114.976 199.892C115.195 199.635 115.356 199.335 115.449 199.011L115.452 199.006ZM104.221 217.917L84.6782 216.592C84.5497 216.601 84.4222 216.62 84.2973 216.652C84.5396 217.465 84.9743 218.152 85.3216 218.884C85.6689 219.616 86.0308 220.346 86.3905 221.074L87.46 223.267L88.531 225.458L89.6035 227.647L90.6745 229.838C91.0312 230.571 91.3836 231.3 91.7455 232.029C92.1073 232.759 92.4809 233.471 92.8354 234.211C93.1899 234.951 93.5763 235.719 93.9468 236.474C94.3173 237.228 94.6581 237.937 95.0033 238.658L96.0765 240.851L97.1489 243.04L98.2178 245.229L99.2888 247.42L100.36 249.612L101.431 251.803C101.787 252.531 102.149 253.261 102.503 253.992C102.858 254.722 103.208 255.45 103.576 256.213L91.1083 274.756C91.3164 275.423 99.3416 291.867 99.7828 292.558C99.9599 292.614 100.037 292.486 100.113 292.373C100.238 292.186 100.363 292.001 100.49 291.812C107.988 280.66 115.487 269.507 122.986 258.354C123.629 257.397 123.657 257.634 123.131 256.557L104.623 218.708C104.5 218.458 104.369 218.212 104.218 217.921L104.221 217.917ZM136.233 238.545C136.214 238.483 136.191 238.424 136.164 238.366L117.69 200.584C117.65 200.519 117.602 200.459 117.548 200.406C117.344 200.37 117.297 200.531 117.222 200.632C117.085 200.812 116.971 201.006 116.846 201.191L106.306 216.866C112.501 229.531 118.687 242.176 124.865 254.8C124.917 254.886 124.979 254.965 125.049 255.037C125.138 255.003 125.206 255.001 125.233 254.965C125.821 254.218 135.92 239.136 136.23 238.549L136.233 238.545Z" fill="#D7D8DD"/>
</g>
<g clip-path="url(#clip2_1889_1751)">
<path d="M108.575 178.135C108.555 178.156 108.534 178.174 108.51 178.189C108.486 178.202 108.461 178.213 108.435 178.221C107.477 178.237 39.9151 173.622 39.2421 173.482L8.84387 111.309C8.86069 111.225 8.88509 111.143 8.91676 111.064C9.01818 110.894 9.12346 110.728 9.23259 110.566C21.9802 91.607 34.7332 72.6526 47.4914 53.7029C47.5098 53.6819 47.532 53.6647 47.557 53.6523C47.5716 53.6305 47.6087 53.6271 47.6858 53.5874C47.9909 53.6031 48.3592 53.6235 48.7195 53.6511L105.527 57.5092C108.945 57.747 112.358 57.9794 115.766 58.2064C116.924 58.2909 116.699 58.1236 117.249 59.2258C117.705 60.1634 118.156 61.098 118.614 62.0218C128.041 81.2901 137.465 100.558 146.886 119.827C147.007 120.079 147.12 120.334 147.218 120.549C147.203 120.621 147.178 120.692 147.146 120.759C134.462 139.624 121.782 158.492 109.105 177.365C108.943 177.625 108.759 177.874 108.575 178.135ZM32.3825 154.229C34.0467 157.663 35.7203 161.089 37.403 164.508L40.3609 170.55C40.43 170.673 40.4914 170.799 40.5447 170.929C40.5926 171.076 40.6882 171.202 40.8162 171.289C40.9442 171.375 41.0973 171.415 41.2512 171.404C42.5667 171.481 43.8755 171.591 45.1953 171.67L105.023 175.731C105.357 175.791 105.698 175.793 106.032 175.737C106.025 175.635 106.044 175.546 106.01 175.479C103.146 169.608 100.28 163.735 97.3686 157.787C75.5859 156.313 53.8344 154.837 32.1142 153.36C32.105 153.672 32.1994 153.977 32.3825 154.229ZM103.795 146.098C105.452 143.634 107.112 141.165 108.775 138.691C108.945 138.439 109.105 138.178 109.289 137.885L100.71 120.349C100.664 120.267 100.61 120.19 100.55 120.118C100.325 120.096 100.271 120.246 100.195 120.349C100.085 120.513 99.9758 120.676 99.8662 120.839C92.6183 131.618 85.3699 142.398 78.1211 153.179L77.5934 153.964C77.7456 154.066 77.7991 154.128 77.8347 154.126C84.3471 154.578 90.8513 155.027 97.3473 155.472C97.7069 155.294 97.8375 154.968 98.0217 154.694C99.9518 151.819 101.868 148.959 103.795 146.098ZM36.7593 144.053L32.7193 150.061C32.5483 150.316 32.3787 150.568 32.2324 150.814C32.3962 151.11 32.6486 151.04 32.8571 151.054C34.6167 151.185 36.3769 151.305 38.1376 151.416C50.0715 152.23 62.0061 153.042 73.9415 153.851C74.219 153.87 74.4987 153.881 74.8001 153.898C74.949 153.714 75.0964 153.551 75.2229 153.368C78.6812 148.224 82.1404 143.079 85.6006 137.933C85.719 137.757 85.8027 137.558 85.9132 137.351C85.8267 137.3 85.7334 137.262 85.6361 137.237C71.5478 136.281 57.4813 135.327 43.4366 134.375C43.1488 134.553 42.9187 134.811 42.774 135.117C40.7638 138.094 38.7589 141.073 36.7593 144.053ZM88.1066 134.211C90.7522 130.276 93.3979 126.341 96.0435 122.407C96.9653 121.036 97.891 119.659 98.8206 118.276C98.9916 118.022 99.1481 117.761 99.2929 117.536C99.0863 116.867 90.626 99.4738 89.9729 98.3559C89.7055 98.1762 89.3878 98.2214 89.0878 98.2028C83.9874 97.8543 78.8947 97.5099 73.8098 97.1697C72.3537 97.0724 70.8988 96.9749 69.4451 96.8771C69.1676 96.8579 68.8887 96.8502 68.5843 96.8381C67.9915 97.5602 57.1137 113.785 56.8229 114.363C57.0376 115.025 65.7764 132.906 66.2242 133.582L87.5026 135.02C87.7122 134.75 87.9196 134.489 88.1052 134.213L88.1066 134.211ZM11.8438 112.227L29.6796 148.718C29.8123 148.991 29.9536 149.25 30.1455 149.612C30.706 148.976 40.9902 133.681 41.3301 132.978C35.1918 120.433 29.0401 107.855 22.875 95.2433C22.7966 95.1047 22.711 94.9702 22.6187 94.8405C22.5079 94.9294 22.4031 95.0256 22.3051 95.1284C22.1825 95.2827 22.0859 95.4545 21.9763 95.6175C18.6408 100.578 15.3048 105.54 11.9683 110.502C11.3536 111.43 11.3558 111.239 11.8423 112.229L11.8438 112.227ZM47.8101 57.2569C47.5909 57.583 47.4135 57.7952 47.26 58.0234L24.5195 91.8445C24.1103 92.4531 24.1073 92.4575 24.4403 93.136C26.6328 97.6216 28.8255 102.105 31.0184 106.587L43.0258 131.141C43.157 131.416 43.2969 131.677 43.4397 131.934C44.2193 132.117 58.7875 133.169 62.9193 133.352C63.0523 133.356 63.186 133.336 63.3503 133.326C63.3394 133.034 63.2447 132.751 63.0774 132.511C61.8657 130.013 60.6479 127.519 59.424 125.03C58.2416 122.61 57.0586 120.191 55.8752 117.773L44.5465 94.6596C44.3987 94.3582 44.2633 94.0526 44.107 93.717L56.6305 75.0913L48.0892 57.6024C48.0041 57.4814 47.9103 57.3666 47.8087 57.2591L47.8101 57.2569ZM78.4421 77.8532C78.4224 77.8191 78.3997 77.7869 78.3742 77.757C78.3563 77.7374 78.3339 77.7223 78.309 77.7132C78.1427 77.6929 77.9756 77.669 77.8093 77.6581C71.4327 77.2218 65.0568 76.7891 58.7891 76.3691C58.6596 76.4115 58.6342 76.4164 58.6102 76.4287C58.5861 76.4448 58.5645 76.4643 58.546 76.4866C58.4846 76.5779 58.4022 76.6582 58.3408 76.7495C54.5512 82.3856 50.7616 88.0217 46.972 93.6578C46.9312 93.7282 46.8964 93.802 46.868 93.8783C47.0487 94.4733 55.0133 110.82 55.5481 111.71C55.7252 111.766 55.7948 111.63 55.8736 111.522C55.9979 111.337 56.1251 111.148 56.2493 110.963C63.4835 100.204 70.7168 89.446 77.9491 78.6897C78.1514 78.4393 78.3156 78.1603 78.4362 77.8619L78.4421 77.8532ZM123.949 78.138L115.314 60.4656L50.3069 56.0694C50.2342 56.0648 50.1592 56.1153 50.0704 56.1441C50.0655 56.23 50.0747 56.3162 50.0978 56.3992C52.959 62.2657 55.8195 68.138 58.6527 73.9194L58.8071 74.0232C58.8314 74.0374 58.8583 74.0469 58.8862 74.0511C65.8712 74.5388 72.8603 75.0219 79.8536 75.5004C94.5046 76.4896 109.155 77.4764 123.805 78.4607C123.832 78.4572 123.859 78.4495 123.884 78.4378C123.91 78.427 123.931 78.4096 123.97 78.3887C123.962 78.2979 123.981 78.2035 123.949 78.138ZM123.836 80.9028C123.549 80.7849 123.238 80.7359 122.929 80.7597C119.544 80.5231 116.159 80.2908 112.775 80.0629L82.2348 77.9916C81.0945 77.913 81.2924 77.8252 80.6785 78.7382C77.3284 83.7207 73.9783 88.7032 70.6282 93.6857C70.423 93.9114 70.2706 94.1798 70.1819 94.4715C70.4389 94.6949 70.7342 94.6219 71.0109 94.647C75.0329 94.9249 79.0579 95.1985 83.0857 95.4677C92.6488 96.1147 102.212 96.7579 111.777 97.3972C112.917 97.4758 112.722 97.6065 113.404 96.5971C116.722 91.6624 120.04 86.7263 123.36 81.7887C123.579 81.5317 123.74 81.2312 123.833 80.9071L123.836 80.9028ZM112.605 99.8133L93.0623 98.4887C92.9338 98.497 92.8063 98.5169 92.6814 98.5483C92.9237 99.3615 93.3584 100.048 93.7057 100.781C94.053 101.513 94.4149 102.242 94.7745 102.97L95.8441 105.164L96.9151 107.355L97.9876 109.544L99.0586 111.735C99.4153 112.467 99.7677 113.196 100.13 113.926C100.491 114.655 100.865 115.367 101.219 116.108C101.574 116.848 101.96 117.616 102.331 118.37C102.701 119.124 103.042 119.833 103.387 120.555L104.461 122.747L105.533 124.936L106.602 127.126L107.673 129.317L108.744 131.508L109.815 133.699C110.171 134.428 110.533 135.157 110.887 135.888C111.242 136.619 111.592 137.347 111.96 138.109L99.4924 156.652C99.7005 157.319 107.726 173.763 108.167 174.455C108.344 174.511 108.421 174.382 108.497 174.269C108.622 174.082 108.747 173.898 108.874 173.708C116.372 162.556 123.871 151.404 131.37 140.25C132.013 139.294 132.041 139.53 131.515 138.454L113.007 100.605C112.885 100.355 112.753 100.109 112.602 99.8176L112.605 99.8133ZM144.617 120.441C144.598 120.38 144.575 120.32 144.548 120.262L126.074 82.4802C126.034 82.4154 125.986 82.3557 125.932 82.3024C125.728 82.2667 125.681 82.4271 125.606 82.5285C125.47 82.7081 125.355 82.9024 125.23 83.0872L114.69 98.7629C120.885 111.428 127.071 124.072 133.249 136.696C133.301 136.782 133.363 136.862 133.433 136.934C133.522 136.899 133.59 136.897 133.617 136.862C134.205 136.114 144.304 121.033 144.614 120.445L144.617 120.441Z" fill="#D7D8DD"/>
</g>
<g clip-path="url(#clip3_1889_1751)">
<path d="M206.399 243.91C206.38 243.931 206.358 243.949 206.334 243.964C206.31 243.978 206.285 243.988 206.259 243.996C205.302 244.012 137.74 239.397 137.067 239.257L106.668 177.084C106.685 177 106.71 176.918 106.741 176.839C106.843 176.67 106.948 176.504 107.057 176.341C119.805 157.382 132.558 138.428 145.316 119.478C145.334 119.457 145.357 119.44 145.382 119.428C145.396 119.406 145.433 119.402 145.51 119.363C145.815 119.379 146.184 119.399 146.544 119.426L203.352 123.285C206.769 123.522 210.182 123.755 213.59 123.982C214.749 124.066 214.524 123.899 215.074 125.001C215.529 125.939 215.98 126.873 216.439 127.797C225.866 147.066 235.29 166.334 244.711 185.602C244.832 185.854 244.944 186.109 245.043 186.324C245.027 186.397 245.003 186.467 244.971 186.535C232.287 205.399 219.606 224.268 206.93 243.14C206.767 243.4 206.584 243.649 206.399 243.91ZM130.207 220.004C131.871 223.438 133.545 226.865 135.228 230.284L138.185 236.326C138.255 236.448 138.316 236.575 138.369 236.705C138.417 236.851 138.513 236.978 138.641 237.064C138.769 237.15 138.922 237.191 139.076 237.18C140.391 237.256 141.7 237.366 143.02 237.445L202.848 241.507C203.181 241.567 203.523 241.569 203.857 241.513C203.85 241.41 203.869 241.322 203.835 241.255C200.971 235.383 198.104 229.51 195.193 223.563C173.41 222.088 151.659 220.612 129.939 219.136C129.93 219.447 130.024 219.752 130.207 220.004ZM201.62 211.873C203.276 209.41 204.936 206.941 206.6 204.467C206.769 204.215 206.929 203.953 207.114 203.66L198.535 186.124C198.488 186.042 198.435 185.965 198.374 185.893C198.149 185.871 198.096 186.021 198.02 186.125C197.91 186.288 197.8 186.451 197.691 186.614C190.443 197.393 183.194 208.174 175.946 218.955L175.418 219.739C175.57 219.842 175.624 219.903 175.659 219.902C182.172 220.354 188.676 220.802 195.172 221.247C195.531 221.069 195.662 220.743 195.846 220.469C197.776 217.594 199.693 214.735 201.62 211.873ZM134.584 209.828L130.544 215.837C130.373 216.091 130.203 216.343 130.057 216.589C130.221 216.885 130.473 216.815 130.682 216.829C132.441 216.96 134.201 217.081 135.962 217.191C147.896 218.006 159.831 218.817 171.766 219.626C172.043 219.645 172.323 219.657 172.625 219.673C172.774 219.489 172.921 219.326 173.047 219.143C176.506 214 179.965 208.855 183.425 203.709C183.544 203.532 183.627 203.333 183.738 203.126C183.651 203.075 183.558 203.037 183.461 203.013C169.372 202.057 155.306 201.103 141.261 200.151C140.973 200.329 140.743 200.586 140.599 200.892C138.588 203.869 136.583 206.848 134.584 209.828ZM185.931 199.986C188.577 196.051 191.222 192.117 193.868 188.182C194.79 186.811 195.716 185.434 196.645 184.052C196.816 183.797 196.973 183.536 197.117 183.312C196.911 182.643 188.45 165.249 187.797 164.131C187.53 163.952 187.212 163.997 186.912 163.978C181.812 163.63 176.719 163.285 171.634 162.945C170.178 162.848 168.723 162.75 167.27 162.653C166.992 162.633 166.713 162.626 166.409 162.614C165.816 163.336 154.938 179.561 154.647 180.139C154.862 180.801 163.601 198.681 164.049 199.358L185.327 200.795C185.537 200.526 185.744 200.264 185.93 199.988L185.931 199.986ZM109.668 178.002L127.504 214.494C127.637 214.766 127.778 215.025 127.97 215.388C128.53 214.751 138.815 199.456 139.155 198.753C133.016 186.208 126.865 173.63 120.7 161.019C120.621 160.88 120.536 160.746 120.443 160.616C120.332 160.705 120.228 160.801 120.13 160.904C120.007 161.058 119.91 161.23 119.801 161.393C116.465 166.354 113.129 171.315 109.793 176.277C109.178 177.206 109.18 177.015 109.667 178.005L109.668 178.002ZM145.635 123.032C145.415 123.358 145.238 123.571 145.085 123.799L122.344 157.62C121.935 158.229 121.932 158.233 122.265 158.911C124.457 163.397 126.65 167.881 128.843 172.362L140.85 196.917C140.981 197.191 141.121 197.453 141.264 197.71C142.044 197.893 156.612 198.944 160.744 199.128C160.877 199.132 161.011 199.111 161.175 199.102C161.164 198.81 161.069 198.527 160.902 198.287C159.69 195.789 158.472 193.295 157.249 190.805C156.066 188.385 154.883 185.966 153.7 183.548L142.371 160.435C142.223 160.134 142.088 159.828 141.932 159.492L154.455 140.867L145.914 123.378C145.829 123.257 145.735 123.142 145.633 123.035L145.635 123.032ZM176.267 143.629C176.247 143.595 176.224 143.562 176.199 143.532C176.181 143.513 176.158 143.498 176.133 143.489C175.967 143.468 175.8 143.444 175.634 143.434C169.257 142.997 162.881 142.564 156.614 142.144C156.484 142.187 156.459 142.192 156.435 142.204C156.411 142.22 156.389 142.24 156.371 142.262C156.309 142.353 156.227 142.434 156.165 142.525C152.376 148.161 148.586 153.797 144.797 159.433C144.756 159.504 144.721 159.577 144.692 159.654C144.873 160.249 152.838 176.595 153.373 177.485C153.55 177.541 153.619 177.405 153.698 177.297C153.822 177.112 153.95 176.923 154.074 176.738C161.308 165.979 168.541 155.221 175.774 144.465C175.976 144.215 176.14 143.936 176.261 143.637L176.267 143.629ZM221.774 143.913L213.138 126.241L148.131 121.845C148.059 121.84 147.984 121.891 147.895 121.919C147.89 122.005 147.899 122.092 147.922 122.175C150.784 128.041 153.644 133.913 156.477 139.695L156.632 139.799C156.656 139.813 156.683 139.822 156.711 139.826C163.696 140.314 170.685 140.797 177.678 141.276C192.329 142.265 206.98 143.252 221.63 144.236C221.657 144.233 221.683 144.225 221.708 144.213C221.734 144.202 221.755 144.185 221.795 144.164C221.786 144.073 221.806 143.979 221.774 143.913ZM221.661 146.678C221.373 146.56 221.063 146.511 220.753 146.535C217.368 146.298 213.984 146.066 210.599 145.838L180.059 143.767C178.919 143.688 179.117 143.601 178.503 144.514C175.153 149.496 171.803 154.479 168.453 159.461C168.248 159.687 168.095 159.955 168.006 160.247C168.263 160.47 168.559 160.397 168.835 160.422C172.857 160.7 176.882 160.974 180.91 161.243C190.473 161.89 200.037 162.533 209.601 163.173C210.741 163.251 210.546 163.382 211.228 162.372C214.546 157.438 217.865 152.502 221.185 147.564C221.403 147.307 221.564 147.007 221.658 146.683L221.661 146.678ZM210.429 165.589L190.887 164.264C190.758 164.272 190.631 164.292 190.506 164.324C190.748 165.137 191.183 165.824 191.53 166.556C191.878 167.288 192.239 168.018 192.599 168.746L193.669 170.939L194.74 173.13L195.812 175.319L196.883 177.51C197.24 178.242 197.592 178.972 197.954 179.701C198.316 180.431 198.689 181.143 199.044 181.883C199.399 182.623 199.785 183.391 200.155 184.145C200.526 184.9 200.867 185.609 201.212 186.33L202.285 188.523L203.358 190.712L204.426 192.901L205.497 195.092L206.568 197.283L207.639 199.475C207.995 200.203 208.357 200.933 208.712 201.664C209.066 202.394 209.417 203.122 209.785 203.884L197.317 222.428C197.525 223.095 205.55 239.539 205.991 240.23C206.169 240.286 206.245 240.158 206.321 240.045C206.447 239.858 206.571 239.673 206.698 239.484C214.197 228.332 221.696 217.179 229.195 206.026C229.838 205.069 229.865 205.306 229.339 204.229L210.832 166.38C210.709 166.13 210.578 165.884 210.426 165.593L210.429 165.589ZM242.442 186.217C242.423 186.155 242.4 186.095 242.373 186.038L223.899 148.256C223.859 148.191 223.811 148.131 223.756 148.078C223.553 148.042 223.505 148.202 223.431 148.304C223.294 148.484 223.179 148.678 223.055 148.863L212.515 164.538C218.709 177.203 224.895 189.848 231.073 202.472C231.126 202.558 231.187 202.637 231.257 202.709C231.347 202.675 231.415 202.673 231.442 202.637C232.029 201.89 242.129 186.808 242.439 186.221L242.442 186.217Z" fill="#D7D8DD"/>
</g>
<g clip-path="url(#clip4_1889_1751)">
<path d="M199.105 361.799C199.086 361.82 199.064 361.838 199.04 361.853C199.016 361.866 198.991 361.877 198.965 361.885C198.008 361.901 130.446 357.286 129.773 357.146L99.3744 294.973C99.3913 294.889 99.4157 294.807 99.4473 294.728C99.5488 294.558 99.654 294.392 99.7632 294.23C112.511 275.271 125.264 256.317 138.022 237.367C138.04 237.346 138.063 237.329 138.088 237.316C138.102 237.295 138.139 237.291 138.216 237.251C138.521 237.267 138.89 237.288 139.25 237.315L196.058 241.173C199.475 241.411 202.888 241.643 206.296 241.87C207.455 241.955 207.23 241.788 207.78 242.89C208.235 243.827 208.686 244.762 209.145 245.686C218.572 264.954 227.996 284.222 237.417 303.491C237.538 303.743 237.65 303.998 237.749 304.213C237.733 304.286 237.709 304.356 237.677 304.423C224.993 323.288 212.312 342.156 199.636 361.029C199.473 361.289 199.29 361.538 199.105 361.799ZM122.913 337.893C124.577 341.327 126.251 344.753 127.934 348.172L130.892 354.214C130.961 354.337 131.022 354.463 131.075 354.594C131.123 354.74 131.219 354.867 131.347 354.953C131.475 355.039 131.628 355.08 131.782 355.069C133.097 355.145 134.406 355.255 135.726 355.334L195.554 359.395C195.887 359.455 196.229 359.457 196.563 359.401C196.556 359.299 196.575 359.21 196.541 359.143C193.677 353.272 190.81 347.399 187.899 341.451C166.116 339.977 144.365 338.501 122.645 337.024C122.636 337.336 122.73 337.641 122.913 337.893ZM194.326 329.762C195.982 327.298 197.642 324.829 199.306 322.356C199.475 322.103 199.635 321.842 199.82 321.549L191.241 304.013C191.194 303.931 191.141 303.854 191.08 303.782C190.855 303.76 190.802 303.91 190.726 304.014C190.616 304.177 190.506 304.34 190.397 304.503C183.149 315.282 175.9 326.062 168.652 336.843L168.124 337.628C168.276 337.73 168.33 337.792 168.365 337.79C174.878 338.242 181.382 338.691 187.878 339.136C188.237 338.958 188.368 338.632 188.552 338.358C190.482 335.483 192.399 332.623 194.326 329.762ZM127.29 327.717L123.25 333.725C123.079 333.98 122.909 334.232 122.763 334.478C122.927 334.774 123.179 334.704 123.388 334.718C125.147 334.849 126.907 334.969 128.668 335.08C140.602 335.894 152.537 336.706 164.472 337.515C164.75 337.534 165.029 337.545 165.331 337.562C165.48 337.378 165.627 337.215 165.753 337.032C169.212 331.888 172.671 326.743 176.131 321.597C176.25 321.421 176.333 321.222 176.444 321.015C176.357 320.964 176.264 320.926 176.167 320.901C162.078 319.945 148.012 318.991 133.967 318.039C133.679 318.217 133.449 318.475 133.305 318.781C131.294 321.758 129.289 324.737 127.29 327.717ZM178.637 317.875C181.283 313.94 183.928 310.005 186.574 306.071C187.496 304.7 188.422 303.323 189.351 301.94C189.522 301.686 189.679 301.425 189.823 301.2C189.617 300.531 181.157 283.138 180.503 282.02C180.236 281.84 179.918 281.885 179.618 281.867C174.518 281.518 169.425 281.174 164.34 280.834C162.884 280.736 161.429 280.639 159.976 280.541C159.698 280.522 159.419 280.514 159.115 280.502C158.522 281.224 147.644 297.449 147.354 298.027C147.568 298.689 156.307 316.57 156.755 317.247L178.033 318.684C178.243 318.415 178.45 318.153 178.636 317.877L178.637 317.875ZM102.374 295.891L120.21 332.382C120.343 332.655 120.484 332.914 120.676 333.276C121.237 332.64 131.521 317.345 131.861 316.642C125.722 304.097 119.571 291.519 113.406 278.907C113.327 278.769 113.242 278.634 113.149 278.505C113.038 278.593 112.934 278.69 112.836 278.792C112.713 278.947 112.616 279.119 112.507 279.282C109.171 284.242 105.835 289.204 102.499 294.166C101.884 295.094 101.886 294.903 102.373 295.893L102.374 295.891ZM138.341 240.921C138.121 241.247 137.944 241.459 137.791 241.688L115.05 275.509C114.641 276.117 114.638 276.122 114.971 276.8C117.163 281.286 119.356 285.769 121.549 290.251L133.556 314.805C133.688 315.08 133.827 315.341 133.97 315.598C134.75 315.782 149.318 316.833 153.45 317.016C153.583 317.02 153.717 317 153.881 316.99C153.87 316.698 153.775 316.415 153.608 316.176C152.396 313.677 151.178 311.183 149.955 308.694C148.772 306.274 147.589 303.855 146.406 301.437L135.077 278.324C134.929 278.022 134.794 277.717 134.638 277.381L147.161 258.755L138.62 241.266C138.535 241.145 138.441 241.031 138.339 240.923L138.341 240.921ZM168.973 261.517C168.953 261.483 168.93 261.451 168.905 261.421C168.887 261.401 168.864 261.386 168.84 261.377C168.673 261.357 168.506 261.333 168.34 261.322C161.963 260.886 155.587 260.453 149.32 260.033C149.19 260.076 149.165 260.08 149.141 260.093C149.117 260.109 149.095 260.128 149.077 260.151C149.015 260.242 148.933 260.322 148.871 260.414C145.082 266.05 141.292 271.686 137.503 277.322C137.462 277.392 137.427 277.466 137.399 277.542C137.579 278.137 145.544 294.484 146.079 295.374C146.256 295.43 146.325 295.294 146.404 295.186C146.528 295.001 146.656 294.812 146.78 294.627C154.014 283.868 161.247 273.11 168.48 262.354C168.682 262.103 168.846 261.824 168.967 261.526L168.973 261.517ZM214.48 261.802L205.844 244.13L140.837 239.733C140.765 239.729 140.69 239.779 140.601 239.808C140.596 239.894 140.605 239.98 140.628 240.063C143.49 245.93 146.35 251.802 149.183 257.583L149.338 257.687C149.362 257.702 149.389 257.711 149.417 257.715C156.402 258.203 163.391 258.686 170.384 259.164C185.035 260.154 199.686 261.14 214.336 262.125C214.363 262.121 214.389 262.114 214.414 262.102C214.44 262.091 214.462 262.074 214.501 262.053C214.493 261.962 214.512 261.868 214.48 261.802ZM214.367 264.567C214.079 264.449 213.769 264.4 213.459 264.424C210.074 264.187 206.69 263.955 203.305 263.727L172.765 261.656C171.625 261.577 171.823 261.489 171.209 262.402C167.859 267.385 164.509 272.367 161.159 277.35C160.954 277.575 160.801 277.844 160.712 278.136C160.969 278.359 161.265 278.286 161.541 278.311C165.563 278.589 169.588 278.863 173.616 279.132C183.179 279.779 192.743 280.422 202.307 281.061C203.448 281.14 203.252 281.271 203.934 280.261C207.252 275.326 210.571 270.39 213.891 265.453C214.109 265.196 214.271 264.895 214.364 264.571L214.367 264.567ZM203.135 283.477L183.593 282.153C183.464 282.161 183.337 282.181 183.212 282.212C183.454 283.026 183.889 283.712 184.236 284.445C184.584 285.177 184.945 285.906 185.305 286.634L186.375 288.828L187.446 291.019L188.518 293.208L189.589 295.399C189.946 296.131 190.298 296.86 190.66 297.59C191.022 298.319 191.396 299.031 191.75 299.772C192.105 300.512 192.491 301.28 192.861 302.034C193.232 302.788 193.573 303.497 193.918 304.219L194.991 306.411L196.064 308.6L197.132 310.79L198.203 312.981L199.274 315.172L200.345 317.363C200.701 318.092 201.063 318.821 201.418 319.552C201.772 320.283 202.123 321.011 202.491 321.773L190.023 340.316C190.231 340.983 198.256 357.428 198.698 358.119C198.875 358.175 198.951 358.046 199.027 357.933C199.153 357.746 199.277 357.562 199.404 357.372C206.903 346.221 214.402 335.068 221.901 323.914C222.544 322.958 222.571 323.194 222.045 322.118L203.538 284.269C203.415 284.019 203.284 283.773 203.132 283.482L203.135 283.477ZM235.148 304.105C235.129 304.044 235.106 303.984 235.079 303.926L216.605 266.144C216.565 266.079 216.517 266.02 216.462 265.966C216.259 265.931 216.211 266.091 216.137 266.193C216 266.372 215.885 266.566 215.761 266.751L205.221 282.427C211.415 295.092 217.602 307.736 223.779 320.36C223.832 320.446 223.893 320.526 223.964 320.598C224.053 320.563 224.121 320.562 224.148 320.526C224.735 319.779 234.835 304.697 235.145 304.11L235.148 304.105Z" fill="#D7D8DD"/>
</g>
<g clip-path="url(#clip5_1889_1751)">
<path d="M296.929 427.574C296.91 427.595 296.888 427.613 296.864 427.628C296.84 427.642 296.815 427.652 296.789 427.66C295.831 427.676 228.269 423.061 227.596 422.921L197.198 360.748C197.215 360.664 197.239 360.583 197.271 360.503C197.372 360.334 197.478 360.168 197.587 360.006C210.335 341.046 223.087 322.092 235.846 303.142C235.864 303.121 235.886 303.104 235.911 303.092C235.926 303.07 235.963 303.067 236.04 303.027C236.345 303.043 236.714 303.063 237.074 303.091L293.882 306.949C297.299 307.186 300.712 307.419 304.12 307.646C305.279 307.73 305.053 307.563 305.603 308.665C306.059 309.603 306.51 310.538 306.968 311.461C316.396 330.73 325.82 349.998 335.241 369.266C335.362 369.518 335.474 369.773 335.573 369.988C335.557 370.061 335.533 370.132 335.501 370.199C322.816 389.063 310.136 407.932 297.459 426.804C297.297 427.064 297.114 427.313 296.929 427.574ZM220.737 403.668C222.401 407.102 224.075 410.529 225.757 413.948L228.715 419.99C228.784 420.112 228.846 420.239 228.899 420.369C228.947 420.516 229.042 420.642 229.171 420.728C229.299 420.814 229.452 420.855 229.606 420.844C230.921 420.92 232.23 421.03 233.55 421.109L293.378 425.171C293.711 425.231 294.052 425.233 294.387 425.177C294.38 425.074 294.398 424.986 294.364 424.919C291.5 419.047 288.634 413.174 285.723 407.227C263.94 405.752 242.189 404.277 220.468 402.8C220.459 403.111 220.554 403.417 220.737 403.668ZM292.15 395.537C293.806 393.074 295.466 390.605 297.129 388.131C297.299 387.879 297.459 387.617 297.643 387.324L289.064 369.788C289.018 369.706 288.964 369.629 288.904 369.557C288.679 369.535 288.625 369.685 288.549 369.789C288.44 369.952 288.33 370.115 288.22 370.278C280.973 381.058 273.724 391.838 266.475 402.619L265.948 403.403C266.1 403.506 266.153 403.567 266.189 403.566C272.701 404.018 279.206 404.466 285.702 404.911C286.061 404.733 286.192 404.407 286.376 404.134C288.306 401.258 290.222 398.399 292.15 395.537ZM225.114 393.492L221.074 399.501C220.903 399.755 220.733 400.007 220.587 400.253C220.751 400.549 221.003 400.479 221.211 400.493C222.971 400.624 224.731 400.745 226.492 400.855C238.426 401.67 250.36 402.481 262.296 403.29C262.573 403.309 262.853 403.321 263.154 403.337C263.303 403.153 263.451 402.99 263.577 402.807C267.035 397.664 270.495 392.519 273.955 387.373C274.073 387.197 274.157 386.997 274.267 386.79C274.181 386.739 274.088 386.701 273.99 386.677C259.902 385.721 245.836 384.767 231.791 383.815C231.503 383.993 231.273 384.25 231.128 384.556C229.118 387.533 227.113 390.512 225.114 393.492ZM276.461 383.65C279.107 379.716 281.752 375.781 284.398 371.846C285.32 370.475 286.245 369.098 287.175 367.716C287.346 367.461 287.502 367.2 287.647 366.976C287.441 366.307 278.98 348.913 278.327 347.795C278.06 347.616 277.742 347.661 277.442 347.642C272.342 347.294 267.249 346.949 262.164 346.609C260.708 346.512 259.253 346.414 257.799 346.317C257.522 346.297 257.243 346.29 256.939 346.278C256.346 347 245.468 363.225 245.177 363.803C245.392 364.465 254.131 382.345 254.578 383.022L275.857 384.459C276.066 384.19 276.274 383.928 276.459 383.652L276.461 383.65ZM200.198 361.667L218.034 398.158C218.167 398.43 218.308 398.689 218.5 399.052C219.06 398.415 229.345 383.12 229.684 382.417C223.546 369.872 217.394 357.294 211.229 344.683C211.151 344.544 211.065 344.41 210.973 344.28C210.862 344.369 210.757 344.465 210.659 344.568C210.537 344.722 210.44 344.894 210.331 345.057C206.995 350.018 203.659 354.979 200.323 359.941C199.708 360.87 199.71 360.679 200.197 361.669L200.198 361.667ZM236.164 306.696C235.945 307.022 235.768 307.235 235.614 307.463L212.874 341.284C212.465 341.893 212.462 341.897 212.795 342.575C214.987 347.061 217.18 351.545 219.373 356.026L231.38 380.581C231.511 380.855 231.651 381.117 231.794 381.374C232.574 381.557 247.142 382.608 251.274 382.792C251.407 382.796 251.54 382.775 251.705 382.766C251.694 382.474 251.599 382.191 251.432 381.951C250.22 379.453 249.002 376.959 247.778 374.469C246.596 372.049 245.413 369.63 244.229 367.212L232.901 344.099C232.753 343.798 232.618 343.492 232.461 343.156L244.985 324.531L236.444 307.042C236.358 306.921 236.265 306.806 236.163 306.699L236.164 306.696ZM266.796 327.293C266.777 327.259 266.754 327.226 266.728 327.196C266.711 327.177 266.688 327.162 266.663 327.153C266.497 327.132 266.33 327.108 266.164 327.098C259.787 326.661 253.411 326.229 247.143 325.809C247.014 325.851 246.988 325.856 246.964 325.868C246.94 325.884 246.919 325.904 246.9 325.926C246.839 326.017 246.756 326.098 246.695 326.189C242.906 331.825 239.116 337.461 235.326 343.097C235.285 343.168 235.251 343.241 235.222 343.318C235.403 343.913 243.368 360.259 243.902 361.149C244.08 361.205 244.149 361.069 244.228 360.961C244.352 360.776 244.479 360.587 244.604 360.402C251.838 349.643 259.071 338.885 266.303 328.129C266.506 327.879 266.67 327.6 266.791 327.301L266.796 327.293ZM312.304 327.577L303.668 309.905L238.661 305.509C238.589 305.504 238.514 305.555 238.425 305.584C238.42 305.669 238.429 305.756 238.452 305.839C241.313 311.705 244.174 317.577 247.007 323.359L247.161 323.463C247.186 323.477 247.213 323.486 247.24 323.491C254.225 323.978 261.215 324.461 268.208 324.94C282.859 325.929 297.509 326.916 312.159 327.9C312.187 327.897 312.213 327.889 312.238 327.877C312.264 327.866 312.285 327.849 312.325 327.828C312.316 327.737 312.335 327.643 312.304 327.577ZM312.19 330.342C311.903 330.224 311.592 330.175 311.283 330.199C307.898 329.963 304.514 329.73 301.129 329.502L270.589 327.431C269.449 327.352 269.647 327.265 269.033 328.178C265.683 333.16 262.333 338.143 258.982 343.125C258.777 343.351 258.625 343.619 258.536 343.911C258.793 344.134 259.088 344.061 259.365 344.086C263.387 344.364 267.412 344.638 271.44 344.907C281.003 345.554 290.567 346.197 300.131 346.837C301.271 346.915 301.076 347.046 301.758 346.037C305.076 341.102 308.395 336.166 311.715 331.228C311.933 330.971 312.094 330.671 312.188 330.347L312.19 330.342ZM300.959 349.253L281.417 347.928C281.288 347.936 281.161 347.956 281.036 347.988C281.278 348.801 281.713 349.488 282.06 350.22C282.407 350.952 282.769 351.682 283.129 352.41L284.198 354.603L285.269 356.794L286.342 358.983L287.413 361.174C287.77 361.907 288.122 362.636 288.484 363.365C288.846 364.095 289.219 364.807 289.574 365.547C289.928 366.287 290.315 367.055 290.685 367.81C291.056 368.564 291.397 369.273 291.742 369.994L292.815 372.187L293.887 374.376L294.956 376.565L296.027 378.756L297.098 380.947L298.169 383.139C298.525 383.867 298.887 384.597 299.242 385.328C299.596 386.058 299.946 386.786 300.315 387.548L287.847 406.092C288.055 406.759 296.08 423.203 296.521 423.894C296.698 423.95 296.775 423.822 296.851 423.709C296.977 423.522 297.101 423.337 297.228 423.148C304.727 411.996 312.225 400.843 319.725 389.69C320.368 388.733 320.395 388.97 319.869 387.893L301.361 350.044C301.239 349.794 301.108 349.548 300.956 349.257L300.959 349.253ZM332.971 369.881C332.953 369.819 332.929 369.76 332.902 369.702L314.429 331.92C314.388 331.855 314.341 331.795 314.286 331.742C314.083 331.706 314.035 331.867 313.96 331.968C313.824 332.148 313.709 332.342 313.585 332.527L303.045 348.202C309.239 360.867 315.425 373.512 321.603 386.136C321.655 386.222 321.717 386.301 321.787 386.373C321.877 386.339 321.944 386.337 321.971 386.301C322.559 385.554 332.659 370.472 332.968 369.885L332.971 369.881Z" fill="#D7D8DD"/>
</g>
<g clip-path="url(#clip6_1889_1751)">
<path d="M305.314 309.471C305.295 309.492 305.273 309.51 305.249 309.525C305.225 309.538 305.2 309.549 305.174 309.557C304.216 309.572 236.654 304.958 235.981 304.818L205.583 242.644C205.6 242.561 205.624 242.479 205.656 242.4C205.757 242.23 205.863 242.064 205.972 241.902C218.719 222.943 231.472 203.989 244.23 185.039C244.249 185.018 244.271 185.001 244.296 184.988C244.311 184.966 244.348 184.963 244.425 184.923C244.73 184.939 245.098 184.959 245.459 184.987L302.266 188.845C305.684 189.083 309.097 189.315 312.505 189.542C313.663 189.627 313.438 189.46 313.988 190.562C314.444 191.499 314.895 192.434 315.353 193.358C324.78 212.626 334.204 231.894 343.625 251.163C343.746 251.414 343.859 251.67 343.957 251.885C343.942 251.957 343.918 252.028 343.885 252.095C331.201 270.96 318.521 289.828 305.844 308.7C305.682 308.961 305.498 309.21 305.314 309.471ZM229.122 285.565C230.786 288.999 232.459 292.425 234.142 295.844L237.1 301.886C237.169 302.009 237.23 302.135 237.284 302.265C237.332 302.412 237.427 302.538 237.555 302.625C237.683 302.711 237.836 302.751 237.99 302.74C239.306 302.817 240.615 302.927 241.934 303.006L301.762 307.067C302.096 307.127 302.437 307.129 302.771 307.073C302.765 306.971 302.783 306.882 302.749 306.815C299.885 300.944 297.019 295.071 294.108 289.123C272.325 287.649 250.573 286.173 228.853 284.696C228.844 285.008 228.938 285.313 229.122 285.565ZM300.534 277.434C302.191 274.97 303.851 272.501 305.514 270.027C305.684 269.775 305.844 269.514 306.028 269.221L297.449 251.685C297.403 251.603 297.349 251.526 297.289 251.454C297.064 251.432 297.01 251.582 296.934 251.685C296.824 251.848 296.715 252.012 296.605 252.175C289.357 262.954 282.109 273.734 274.86 284.515L274.332 285.3C274.485 285.402 274.538 285.463 274.574 285.462C281.086 285.914 287.59 286.363 294.086 286.808C294.446 286.63 294.577 286.304 294.761 286.03C296.691 283.155 298.607 280.295 300.534 277.434ZM233.498 275.389L229.458 281.397C229.287 281.652 229.118 281.904 228.972 282.149C229.135 282.446 229.388 282.376 229.596 282.39C231.356 282.52 233.116 282.641 234.877 282.752C246.811 283.566 258.745 284.378 270.681 285.187C270.958 285.206 271.238 285.217 271.539 285.234C271.688 285.05 271.836 284.887 271.962 284.704C275.42 279.56 278.879 274.415 282.34 269.269C282.458 269.093 282.542 268.894 282.652 268.687C282.566 268.636 282.472 268.598 282.375 268.573C268.287 267.617 254.22 266.663 240.176 265.711C239.888 265.889 239.658 266.147 239.513 266.453C237.503 269.43 235.498 272.409 233.498 275.389ZM284.846 265.547C287.491 261.612 290.137 257.677 292.783 253.743C293.704 252.372 294.63 250.995 295.56 249.612C295.731 249.358 295.887 249.097 296.032 248.872C295.825 248.203 287.365 230.81 286.712 229.692C286.445 229.512 286.127 229.557 285.827 229.539C280.726 229.19 275.634 228.846 270.549 228.506C269.093 228.408 267.638 228.311 266.184 228.213C265.907 228.194 265.628 228.186 265.323 228.174C264.731 228.896 253.853 245.121 253.562 245.699C253.777 246.361 262.515 264.242 262.963 264.918L284.242 266.356C284.451 266.086 284.659 265.825 284.844 265.549L284.846 265.547ZM208.583 243.563L226.419 280.054C226.551 280.326 226.693 280.586 226.885 280.948C227.445 280.312 237.729 265.017 238.069 264.314C231.931 251.769 225.779 239.191 219.614 226.579C219.536 226.441 219.45 226.306 219.358 226.176C219.247 226.265 219.142 226.362 219.044 226.464C218.922 226.619 218.825 226.79 218.715 226.953C215.38 231.914 212.044 236.876 208.707 241.838C208.093 242.766 208.095 242.575 208.581 243.565L208.583 243.563ZM244.549 188.593C244.33 188.919 244.153 189.131 243.999 189.359L221.259 223.18C220.849 223.789 220.846 223.793 221.179 224.472C223.372 228.957 225.565 233.441 227.758 237.923L239.765 262.477C239.896 262.752 240.036 263.013 240.179 263.27C240.958 263.453 255.527 264.505 259.658 264.688C259.791 264.692 259.925 264.672 260.089 264.662C260.079 264.37 259.984 264.087 259.816 263.847C258.605 261.349 257.387 258.855 256.163 256.366C254.981 253.946 253.798 251.527 252.614 249.109L241.286 225.996C241.138 225.694 241.002 225.388 240.846 225.053L253.37 206.427L244.828 188.938C244.743 188.817 244.649 188.703 244.548 188.595L244.549 188.593ZM275.181 209.189C275.162 209.155 275.139 209.123 275.113 209.093C275.095 209.073 275.073 209.058 275.048 209.049C274.882 209.029 274.715 209.005 274.548 208.994C268.172 208.558 261.796 208.125 255.528 207.705C255.399 207.747 255.373 207.752 255.349 207.765C255.325 207.781 255.304 207.8 255.285 207.822C255.224 207.914 255.141 207.994 255.08 208.085C251.29 213.722 247.501 219.358 243.711 224.994C243.67 225.064 243.635 225.138 243.607 225.214C243.788 225.809 251.752 242.156 252.287 243.046C252.464 243.102 252.534 242.965 252.613 242.858C252.737 242.673 252.864 242.484 252.988 242.299C260.223 231.54 267.456 220.782 274.688 210.026C274.891 209.775 275.055 209.496 275.175 209.198L275.181 209.189ZM320.689 209.474L312.053 191.802L247.046 187.405C246.973 187.401 246.898 187.451 246.81 187.48C246.805 187.566 246.814 187.652 246.837 187.735C249.698 193.602 252.559 199.474 255.392 205.255L255.546 205.359C255.57 205.373 255.597 205.383 255.625 205.387C262.61 205.875 269.599 206.358 276.593 206.836C291.244 207.826 305.894 208.812 320.544 209.797C320.571 209.793 320.598 209.785 320.623 209.774C320.649 209.763 320.67 209.746 320.709 209.725C320.701 209.634 320.72 209.539 320.689 209.474ZM320.575 212.239C320.288 212.121 319.977 212.072 319.668 212.096C316.283 211.859 312.898 211.627 309.514 211.399L278.974 209.328C277.834 209.249 278.032 209.161 277.418 210.074C274.067 215.057 270.717 220.039 267.367 225.022C267.162 225.247 267.01 225.516 266.921 225.807C267.178 226.031 267.473 225.958 267.75 225.983C271.772 226.261 275.797 226.534 279.825 226.804C289.388 227.451 298.952 228.094 308.516 228.733C309.656 228.812 309.461 228.942 310.143 227.933C313.461 222.998 316.78 218.062 320.099 213.125C320.318 212.868 320.479 212.567 320.572 212.243L320.575 212.239ZM309.344 231.149L289.801 229.825C289.673 229.833 289.545 229.853 289.42 229.884C289.663 230.697 290.097 231.384 290.445 232.117C290.792 232.849 291.154 233.578 291.514 234.306L292.583 236.499L293.654 238.691L294.727 240.88L295.798 243.071C296.154 243.803 296.507 244.532 296.869 245.262C297.23 245.991 297.604 246.703 297.959 247.444C298.313 248.184 298.7 248.952 299.07 249.706C299.44 250.46 299.781 251.169 300.126 251.891L301.2 254.083L302.272 256.272L303.341 258.462L304.412 260.653L305.483 262.844L306.554 265.035C306.91 265.764 307.272 266.493 307.626 267.224C307.981 267.955 308.331 268.683 308.699 269.445L296.232 287.988C296.44 288.655 304.465 305.099 304.906 305.791C305.083 305.847 305.16 305.718 305.236 305.605C305.362 305.418 305.486 305.233 305.613 305.044C313.111 293.892 320.61 282.74 328.109 271.586C328.752 270.63 328.78 270.866 328.254 269.789L309.746 231.941C309.624 231.691 309.492 231.445 309.341 231.154L309.344 231.149ZM341.356 251.777C341.337 251.716 341.314 251.656 341.287 251.598L322.813 213.816C322.773 213.751 322.725 213.692 322.671 213.638C322.468 213.603 322.42 213.763 322.345 213.864C322.209 214.044 322.094 214.238 321.97 214.423L311.43 230.099C317.624 242.764 323.81 255.408 329.988 268.032C330.04 268.118 330.102 268.198 330.172 268.27C330.262 268.235 330.329 268.233 330.356 268.198C330.944 267.45 341.044 252.369 341.353 251.781L341.356 251.777Z" fill="#D7D8DD"/>
</g>
<g clip-path="url(#clip7_1889_1751)">
<path d="M214.93 125.59C214.911 125.611 214.889 125.629 214.865 125.644C214.841 125.657 214.816 125.668 214.79 125.676C213.832 125.692 146.27 121.077 145.597 120.937L115.199 58.7636C115.216 58.68 115.24 58.5982 115.272 58.519C115.373 58.3494 115.479 58.1835 115.588 58.0211C128.336 39.0621 141.088 20.1077 153.847 1.15796C153.865 1.13699 153.887 1.11981 153.912 1.10736C153.927 1.08562 153.964 1.08214 154.041 1.04248C154.346 1.05821 154.714 1.07856 155.075 1.10613L211.883 4.96432C215.3 5.20206 218.713 5.43445 222.121 5.66149C223.28 5.74598 223.054 5.57872 223.604 6.68087C224.06 7.61846 224.511 8.55313 224.969 9.47692C234.397 28.7452 243.821 48.0135 253.242 67.2818C253.363 67.5336 253.475 67.7891 253.574 68.0038C253.558 68.0765 253.534 68.1472 253.502 68.2142C240.817 87.079 228.137 105.948 215.46 124.82C215.298 125.08 215.115 125.329 214.93 125.59ZM138.738 101.684C140.402 105.118 142.076 108.544 143.758 111.963L146.716 118.005C146.785 118.128 146.847 118.254 146.9 118.385C146.948 118.531 147.043 118.658 147.171 118.744C147.299 118.83 147.453 118.871 147.606 118.86C148.922 118.936 150.231 119.046 151.551 119.125L211.378 123.186C211.712 123.246 212.053 123.248 212.388 123.192C212.381 123.09 212.399 123.001 212.365 122.934C209.501 117.063 206.635 111.19 203.724 105.242C181.941 103.768 160.19 102.292 138.469 100.815C138.46 101.127 138.555 101.432 138.738 101.684ZM210.151 93.5529C211.807 91.0892 213.467 88.6204 215.13 86.1466C215.3 85.8944 215.46 85.6328 215.644 85.34L207.065 67.8037C207.019 67.722 206.965 67.6447 206.905 67.5727C206.68 67.5508 206.626 67.701 206.55 67.8046C206.441 67.9676 206.331 68.1307 206.221 68.2937C198.974 79.0732 191.725 89.8534 184.476 100.634L183.949 101.419C184.101 101.521 184.154 101.583 184.19 101.581C190.702 102.033 197.207 102.482 203.703 102.927C204.062 102.749 204.193 102.423 204.377 102.149C206.307 99.2739 208.223 96.4145 210.151 93.5529ZM143.115 91.5078L139.075 97.5164C138.904 97.7707 138.734 98.0229 138.588 98.2686C138.751 98.565 139.004 98.4948 139.212 98.5087C140.972 98.6396 142.732 98.7604 144.493 98.871C156.427 99.6853 168.361 100.497 180.297 101.306C180.574 101.325 180.854 101.336 181.155 101.353C181.304 101.169 181.452 101.006 181.578 100.823C185.036 95.6793 188.496 90.5345 191.956 85.3882C192.074 85.2121 192.158 85.0127 192.268 84.806C192.182 84.7551 192.089 84.7168 191.991 84.6923C177.903 83.7363 163.837 82.7824 149.792 81.8304C149.504 82.0084 149.274 82.2659 149.129 82.5718C147.119 85.549 145.114 88.5277 143.115 91.5078ZM194.462 81.6659C197.108 77.7312 199.753 73.7965 202.399 69.8618C203.321 68.4908 204.246 67.114 205.176 65.7314C205.347 65.4771 205.503 65.2161 205.648 64.9915C205.442 64.3222 196.981 46.9288 196.328 45.811C196.061 45.6312 195.743 45.6765 195.443 45.6579C190.343 45.3094 185.25 44.965 180.165 44.6248C178.709 44.5275 177.254 44.43 175.8 44.3322C175.523 44.3129 175.244 44.3053 174.94 44.2932C174.347 45.0152 163.469 61.2404 163.178 61.8183C163.393 62.4803 172.132 80.3608 172.579 81.0376L193.858 82.475C194.067 82.2056 194.275 81.9441 194.46 81.668L194.462 81.6659ZM118.199 59.6821L136.035 96.1734C136.168 96.4456 136.309 96.7048 136.501 97.0674C137.061 96.431 147.345 81.1357 147.685 80.433C141.547 67.888 135.395 55.3098 129.23 42.6984C129.152 42.5598 129.066 42.4253 128.974 42.2956C128.863 42.3845 128.758 42.4807 128.66 42.5835C128.538 42.7378 128.441 42.9096 128.332 43.0726C124.996 48.0334 121.66 52.9949 118.324 57.9571C117.709 58.8854 117.711 58.6943 118.198 59.6843L118.199 59.6821ZM154.165 4.71201C153.946 5.03809 153.769 5.25027 153.615 5.47852L130.875 39.2995C130.466 39.9082 130.463 39.9126 130.796 40.591C132.988 45.0766 135.181 49.5603 137.374 54.042L149.381 78.5964C149.512 78.8709 149.652 79.1322 149.795 79.3893C150.575 79.5725 165.143 80.6239 169.275 80.8073C169.408 80.8114 169.541 80.7909 169.706 80.7814C169.695 80.4892 169.6 80.2063 169.433 79.9666C168.221 77.4683 167.003 74.9744 165.779 72.4848C164.597 70.0651 163.414 67.6461 162.23 65.2278L150.902 42.1147C150.754 41.8133 150.619 41.5076 150.462 41.1721L162.986 22.5464L154.444 5.0575C154.359 4.93646 154.266 4.82172 154.164 4.71419L154.165 4.71201ZM184.797 25.3083C184.778 25.2742 184.755 25.242 184.729 25.2121C184.712 25.1924 184.689 25.1774 184.664 25.1682C184.498 25.148 184.331 25.1241 184.165 25.1132C177.788 24.6769 171.412 24.2441 165.144 23.8242C165.015 23.8665 164.989 23.8715 164.965 23.8838C164.941 23.8999 164.92 23.9194 164.901 23.9416C164.84 24.0329 164.757 24.1133 164.696 24.2046C160.906 29.8407 157.117 35.4768 153.327 41.1129C153.286 41.1833 153.252 41.2571 153.223 41.3334C153.404 41.9284 161.369 58.2751 161.903 59.165C162.08 59.2209 162.15 59.0846 162.229 58.9767C162.353 58.7919 162.48 58.6028 162.605 58.418C169.839 47.6588 177.072 36.901 184.304 26.1448C184.507 25.8944 184.671 25.6154 184.792 25.317L184.797 25.3083ZM230.305 25.5931L221.669 7.92071L156.662 3.52451C156.59 3.51986 156.514 3.57042 156.426 3.59914C156.421 3.6851 156.43 3.77129 156.453 3.85426C159.314 9.72076 162.175 15.5931 165.008 21.3745L165.162 21.4782C165.187 21.4925 165.214 21.502 165.241 21.5062C172.226 21.9938 179.216 22.4769 186.209 22.9555C200.86 23.9447 215.51 24.9315 230.16 25.9158C230.188 25.9123 230.214 25.9046 230.239 25.8929C230.265 25.8821 230.286 25.8647 230.326 25.8438C230.317 25.7529 230.336 25.6586 230.305 25.5931ZM230.191 28.3578C229.904 28.2399 229.593 28.1909 229.284 28.2148C225.899 27.9781 222.515 27.7459 219.13 27.5179L188.59 25.4467C187.45 25.3681 187.648 25.2803 187.034 26.1933C183.684 31.1758 180.334 36.1583 176.983 41.1408C176.778 41.3665 176.626 41.6349 176.537 41.9266C176.794 42.1499 177.089 42.077 177.366 42.1021C181.388 42.38 185.413 42.6535 189.441 42.9227C199.004 43.5698 208.568 44.2129 218.132 44.8522C219.272 44.9308 219.077 45.0616 219.759 44.0522C223.077 39.1175 226.396 34.1814 229.716 29.2438C229.934 28.9868 230.095 28.6863 230.188 28.3622L230.191 28.3578ZM218.96 47.2683L199.418 45.9438C199.289 45.9521 199.162 45.972 199.037 46.0033C199.279 46.8166 199.714 47.5034 200.061 48.2357C200.408 48.968 200.77 49.6974 201.13 50.4253L202.199 52.6186L203.27 54.8098L204.343 56.9987L205.414 59.1898C205.771 59.9221 206.123 60.6515 206.485 61.3809C206.847 62.1104 207.22 62.8224 207.575 63.5627C207.929 64.303 208.316 65.071 208.686 65.8252C209.057 66.5793 209.398 67.2883 209.743 68.0097L210.816 70.2023L211.888 72.3912L212.957 74.5809L214.028 76.772L215.099 78.9631L216.17 81.1542C216.526 81.8829 216.888 82.6123 217.243 83.3432C217.597 84.074 217.947 84.802 218.316 85.5641L205.848 104.107C206.056 104.774 214.081 121.219 214.522 121.91C214.699 121.966 214.776 121.837 214.852 121.724C214.978 121.537 215.102 121.353 215.229 121.163C222.727 110.012 230.226 98.8589 237.726 87.7055C238.369 86.749 238.396 86.9852 237.87 85.9086L219.362 48.0597C219.24 47.81 219.109 47.5639 218.957 47.2727L218.96 47.2683ZM250.972 67.8962C250.954 67.835 250.93 67.7752 250.903 67.7172L232.429 29.9353C232.389 29.8704 232.342 29.8107 232.287 29.7574C232.084 29.7218 232.036 29.8821 231.961 29.9836C231.825 30.1632 231.71 30.3575 231.586 30.5422L221.046 46.218C227.24 58.8828 233.426 71.5273 239.604 84.1514C239.656 84.2372 239.718 84.3169 239.788 84.389C239.878 84.3544 239.945 84.3525 239.972 84.317C240.56 83.5696 250.66 68.4878 250.969 67.9005L250.972 67.8962Z" fill="#D7D8DD"/>
</g>
<g clip-path="url(#clip8_1889_1751)">
<path d="M312.755 191.364C312.735 191.385 312.714 191.403 312.69 191.418C312.666 191.432 312.641 191.442 312.615 191.45C311.657 191.466 244.095 186.851 243.422 186.711L213.024 124.538C213.041 124.454 213.065 124.373 213.097 124.293C213.198 124.124 213.303 123.958 213.413 123.796C226.16 104.837 238.913 85.8821 251.671 66.9324C251.69 66.9114 251.712 66.8942 251.737 66.8818C251.752 66.86 251.789 66.8566 251.866 66.8169C252.171 66.8326 252.539 66.853 252.899 66.8805L309.707 70.7387C313.125 70.9765 316.538 71.2089 319.946 71.4359C321.104 71.5204 320.879 71.3531 321.429 72.4553C321.885 73.3929 322.336 74.3275 322.794 75.2513C332.221 94.5196 341.645 113.788 351.066 133.056C351.187 133.308 351.3 133.564 351.398 133.778C351.383 133.851 351.358 133.922 351.326 133.989C338.642 152.853 325.962 171.722 313.285 190.594C313.123 190.854 312.939 191.103 312.755 191.364ZM236.562 167.458C238.227 170.892 239.9 174.319 241.583 177.738L244.541 183.78C244.61 183.902 244.671 184.029 244.725 184.159C244.773 184.306 244.868 184.432 244.996 184.518C245.124 184.604 245.277 184.645 245.431 184.634C246.747 184.71 248.055 184.82 249.375 184.899L309.203 188.961C309.537 189.021 309.878 189.023 310.212 188.967C310.205 188.864 310.224 188.776 310.19 188.709C307.326 182.837 304.46 176.964 301.549 171.017C279.766 169.542 258.014 168.067 236.294 166.59C236.285 166.901 236.379 167.207 236.562 167.458ZM307.975 159.327C309.632 156.864 311.292 154.395 312.955 151.921C313.125 151.669 313.285 151.407 313.469 151.114L304.89 133.578C304.844 133.496 304.79 133.419 304.73 133.347C304.505 133.325 304.451 133.475 304.375 133.579C304.265 133.742 304.156 133.905 304.046 134.068C296.798 144.848 289.55 155.628 282.301 166.409L281.773 167.193C281.926 167.296 281.979 167.357 282.015 167.356C288.527 167.808 295.031 168.256 301.527 168.701C301.887 168.523 302.017 168.197 302.202 167.924C304.132 165.048 306.048 162.189 307.975 159.327ZM240.939 157.282L236.899 163.291C236.728 163.545 236.559 163.797 236.412 164.043C236.576 164.339 236.829 164.269 237.037 164.283C238.797 164.414 240.557 164.535 242.318 164.645C254.251 165.46 266.186 166.271 278.122 167.08C278.399 167.1 278.679 167.111 278.98 167.127C279.129 166.943 279.276 166.78 279.403 166.597C282.861 161.454 286.32 156.309 289.781 151.163C289.899 150.987 289.983 150.787 290.093 150.58C290.007 150.529 289.913 150.491 289.816 150.467C275.728 149.511 261.661 148.557 247.617 147.605C247.329 147.783 247.099 148.04 246.954 148.346C244.944 151.323 242.939 154.302 240.939 157.282ZM292.287 147.44C294.932 143.506 297.578 139.571 300.223 135.636C301.145 134.265 302.071 132.888 303.001 131.506C303.172 131.251 303.328 130.991 303.473 130.766C303.266 130.097 294.806 112.703 294.153 111.585C293.885 111.406 293.568 111.451 293.268 111.432C288.167 111.084 283.075 110.739 277.99 110.399C276.534 110.302 275.079 110.204 273.625 110.107C273.348 110.087 273.069 110.08 272.764 110.068C272.171 110.79 261.294 127.015 261.003 127.593C261.218 128.255 269.956 146.135 270.404 146.812L291.683 148.249C291.892 147.98 292.1 147.719 292.285 147.442L292.287 147.44ZM216.024 125.457L233.86 161.948C233.992 162.22 234.134 162.479 234.325 162.842C234.886 162.205 245.17 146.91 245.51 146.207C239.372 133.662 233.22 121.084 227.055 108.473C226.977 108.334 226.891 108.2 226.799 108.07C226.688 108.159 226.583 108.255 226.485 108.358C226.362 108.512 226.266 108.684 226.156 108.847C222.821 113.808 219.485 118.769 216.148 123.732C215.534 124.66 215.536 124.469 216.022 125.459L216.024 125.457ZM251.99 70.4864C251.771 70.8125 251.593 71.0247 251.44 71.2529L228.7 105.074C228.29 105.683 228.287 105.687 228.62 106.365C230.813 110.851 233.005 115.335 235.198 119.816L247.206 144.371C247.337 144.645 247.477 144.907 247.62 145.164C248.399 145.347 262.967 146.398 267.099 146.582C267.232 146.586 267.366 146.565 267.53 146.556C267.519 146.264 267.425 145.981 267.257 145.741C266.046 143.243 264.828 140.749 263.604 138.259C262.422 135.839 261.239 133.421 260.055 131.002L248.726 107.889C248.579 107.588 248.443 107.282 248.287 106.946L260.811 88.3208L252.269 70.8319C252.184 70.7109 252.09 70.5961 251.989 70.4886L251.99 70.4864ZM282.622 91.0827C282.602 91.0486 282.58 91.0164 282.554 90.9865C282.536 90.9669 282.514 90.9518 282.489 90.9427C282.323 90.9224 282.156 90.8985 281.989 90.8876C275.613 90.4513 269.237 90.0185 262.969 89.5986C262.84 89.6409 262.814 89.6459 262.79 89.6582C262.766 89.6743 262.745 89.6938 262.726 89.716C262.665 89.8074 262.582 89.8877 262.521 89.979C258.731 95.6151 254.942 101.251 251.152 106.887C251.111 106.958 251.076 107.031 251.048 107.108C251.229 107.703 259.193 124.049 259.728 124.939C259.905 124.995 259.975 124.859 260.054 124.751C260.178 124.566 260.305 124.377 260.429 124.192C267.664 113.433 274.897 102.675 282.129 91.9192C282.331 91.6688 282.496 91.3898 282.616 91.0914L282.622 91.0827ZM328.129 91.3675L319.494 73.6951L254.487 69.2989C254.414 69.2943 254.339 69.3448 254.25 69.3735C254.246 69.4595 254.255 69.5457 254.278 69.6287C257.139 75.4952 260 81.3675 262.833 87.1489L262.987 87.2526C263.011 87.2669 263.038 87.2764 263.066 87.2806C270.051 87.7683 277.04 88.2514 284.034 88.7299C298.685 89.7191 313.335 90.7059 327.985 91.6902C328.012 91.6867 328.039 91.679 328.064 91.6673C328.09 91.6565 328.111 91.6391 328.15 91.6182C328.142 91.5274 328.161 91.433 328.129 91.3675ZM328.016 94.1322C327.729 94.0143 327.418 93.9654 327.109 93.9892C323.724 93.7525 320.339 93.5203 316.955 93.2923L286.415 91.2211C285.274 91.1425 285.472 91.0547 284.859 91.9677C281.508 96.9502 278.158 101.933 274.808 106.915C274.603 107.141 274.451 107.409 274.362 107.701C274.619 107.924 274.914 107.851 275.191 107.876C279.213 108.154 283.238 108.428 287.266 108.697C296.829 109.344 306.392 109.987 315.957 110.627C317.097 110.705 316.902 110.836 317.584 109.827C320.902 104.892 324.22 99.9558 327.54 95.0182C327.759 94.7612 327.92 94.4607 328.013 94.1366L328.016 94.1322ZM316.785 113.043L297.242 111.718C297.114 111.726 296.986 111.746 296.861 111.778C297.104 112.591 297.538 113.278 297.886 114.01C298.233 114.742 298.595 115.472 298.955 116.2L300.024 118.393L301.095 120.584L302.168 122.773L303.239 124.964C303.595 125.697 303.948 126.426 304.31 127.155C304.671 127.885 305.045 128.597 305.399 129.337C305.754 130.077 306.14 130.845 306.511 131.6C306.881 132.354 307.222 133.063 307.567 133.784L308.641 135.977L309.713 138.166L310.782 140.355L311.853 142.546L312.924 144.738L313.995 146.929C314.351 147.657 314.713 148.387 315.067 149.118C315.422 149.848 315.772 150.576 316.14 151.339L303.672 169.882C303.881 170.549 311.906 186.993 312.347 187.684C312.524 187.74 312.601 187.612 312.677 187.499C312.802 187.312 312.927 187.127 313.054 186.938C320.552 175.786 328.051 164.633 335.55 153.48C336.193 152.523 336.221 152.76 335.695 151.683L317.187 113.834C317.065 113.584 316.933 113.338 316.782 113.047L316.785 113.043ZM348.797 133.671C348.778 133.609 348.755 133.55 348.728 133.492L330.254 95.7097C330.214 95.6449 330.166 95.5851 330.112 95.5319C329.908 95.4962 329.861 95.6565 329.786 95.758C329.65 95.9376 329.535 96.1319 329.41 96.3167L318.87 111.992C325.065 124.657 331.251 137.302 337.429 149.926C337.481 150.012 337.543 150.091 337.613 150.163C337.702 150.129 337.77 150.127 337.797 150.091C338.385 149.344 348.484 134.262 348.794 133.675L348.797 133.671Z" fill="#D7D8DD"/>
</g>
</g>
<defs>
<clipPath id="clip0_1889_1751">
<rect width="197" height="363" fill="white" transform="matrix(-1 0 0 1 197 0)"/>
</clipPath>
<clipPath id="clip1_1889_1751">
<rect width="120.162" height="138.785" fill="white" transform="matrix(0.829856 0.557977 0.557977 -0.829856 -18.9351 258.093)"/>
</clipPath>
<clipPath id="clip2_1889_1751">
<rect width="120.162" height="138.785" fill="white" transform="matrix(0.829856 0.557977 0.557977 -0.829856 -10.5502 139.989)"/>
</clipPath>
<clipPath id="clip3_1889_1751">
<rect width="120.162" height="138.785" fill="white" transform="matrix(0.829856 0.557977 0.557977 -0.829856 87.2734 205.765)"/>
</clipPath>
<clipPath id="clip4_1889_1751">
<rect width="120.162" height="138.785" fill="white" transform="matrix(0.829856 0.557977 0.557977 -0.829856 79.9795 323.653)"/>
</clipPath>
<clipPath id="clip5_1889_1751">
<rect width="120.162" height="138.785" fill="white" transform="matrix(0.829856 0.557977 0.557977 -0.829856 177.803 389.429)"/>
</clipPath>
<clipPath id="clip6_1889_1751">
<rect width="120.162" height="138.785" fill="white" transform="matrix(0.829856 0.557977 0.557977 -0.829856 186.188 271.325)"/>
</clipPath>
<clipPath id="clip7_1889_1751">
<rect width="120.162" height="138.785" fill="white" transform="matrix(0.829856 0.557977 0.557977 -0.829856 95.8042 87.4443)"/>
</clipPath>
<clipPath id="clip8_1889_1751">
<rect width="120.162" height="138.785" fill="white" transform="matrix(0.829856 0.557977 0.557977 -0.829856 193.629 153.219)"/>
</clipPath>
</defs>
</svg>
