<svg width="53" height="53" viewBox="0 0 53 53" fill="none" xmlns="http://www.w3.org/2000/svg">
<rect width="53" height="53" rx="26.5" fill="#293F52"/>
<path d="M25.4678 14.7734C27.3355 14.7736 28.7431 16.2 28.7432 17.9424V22.1113H34.6201C35.3031 22.1114 35.9344 22.3836 36.4043 22.8652L36.5195 23.001C36.9963 23.5664 37.1976 24.3102 37.0762 25.0469L35.3154 35.0537C35.1039 36.2563 34.0693 37.1221 32.8584 37.1221H17.4355C15.9746 37.1221 14.7737 35.929 14.7734 34.4736V26.7754C14.7734 25.3037 15.9639 24.1133 17.4355 24.1133H20.2598L20.3896 23.8096L23.7793 15.8975L23.7783 15.8965C24.0749 15.2101 24.7381 14.7734 25.4678 14.7734ZM17.4355 25.1143C16.519 25.1143 15.7744 25.8588 15.7744 26.7754V34.4736C15.7746 35.3804 16.5229 36.1211 17.4355 36.1211H20.084V25.1143H17.4355ZM25.5879 15.7617C25.4025 15.7617 25.2181 15.7952 25.0547 15.8867C24.8842 15.9824 24.7706 16.1221 24.7041 16.2715L25.1602 16.4746L24.7031 16.2715L24.7012 16.2783L21.1387 24.6172L21.0986 24.7109V36.1211H32.8584C33.5918 36.1211 34.2188 35.6018 34.3398 34.876L34.3818 34.6221L34.3701 34.6104L36.0859 24.8604L36.0869 24.8594C36.165 24.4106 36.0469 23.9695 35.7666 23.6289C35.4783 23.2788 35.0656 23.0996 34.6201 23.0996H27.7422V17.9287C27.742 16.7376 26.7895 15.7619 25.5879 15.7617Z" stroke="white"/>
</svg>
