<svg width="48" height="48" viewBox="0 0 48 48" fill="none" xmlns="http://www.w3.org/2000/svg">
<rect width="48" height="48" rx="24" fill="#293F52"/>
<path d="M22.0664 24.7764L19.9453 33.6172L12.9287 30.9863C12.671 30.8896 12.5002 30.6426 12.5 30.3672V20.8916C12.5 20.7032 12.5806 20.5249 12.7188 20.4004L12.7812 20.3506L20.2129 15.1289L22.0664 24.7764Z" stroke="white" stroke-width="1.00001"/>
<path d="M35.4678 29.7705C35.5099 29.8997 35.5112 30.0378 35.4727 30.166L35.4209 30.29C35.3561 30.4098 35.2563 30.5062 35.1367 30.5664L35.0117 30.6143H35.0107L23.3271 33.7646L25.2471 25.7617L32.3359 20.1631L35.4678 29.7705Z" stroke="white" stroke-width="1.00001"/>
<path d="M23.5399 14.8369L30.1015 17.6943L24.8808 21.8164L23.5399 14.8369Z" stroke="white" stroke-width="1.00001"/>
</svg>
