<svg width="30" height="30" viewBox="0 0 30 30" fill="none" xmlns="http://www.w3.org/2000/svg">
<path d="M14.5122 29.0312C10.6364 29.0312 6.99117 27.522 4.25142 24.7789C1.50934 22.0391 0 18.3951 0 14.5193C0 10.6434 1.50922 6.99819 4.24909 4.25844C8.35028 0.157258 14.4837 -1.10751 19.8759 1.03421L19.3902 2.25569C14.4872 0.307464 8.91104 1.45956 5.17845 5.18876C2.68659 7.68063 1.31485 10.9938 1.31485 14.5194C1.31485 18.0449 2.68644 21.358 5.17845 23.8499C7.67046 26.3419 10.9835 27.7135 14.509 27.7135C18.0346 27.7135 21.3476 26.3419 23.8396 23.8499C27.578 20.1115 28.7266 14.5228 26.7637 9.61313L27.9852 9.12521C30.1427 14.5229 28.8802 20.6689 24.77 24.7805C22.0301 27.5203 18.3861 29.0328 14.5091 29.0328L14.5122 29.0312Z" fill="#FABD47"/>
<path d="M14.5092 24.0247C11.9696 24.0247 9.58464 23.0353 7.78998 21.2417C4.08563 17.5341 4.08563 11.5073 7.78998 7.79973C10.3546 5.23508 14.2239 4.35248 17.6493 5.54556L17.2171 6.78864C14.2645 5.75822 10.9299 6.5191 8.72242 8.73005C5.52876 11.9237 5.52876 17.1179 8.72242 20.3113C10.2692 21.858 12.3266 22.7099 14.5114 22.7099C16.6973 22.7099 18.7535 21.858 20.3004 20.3113C22.5114 18.1003 23.2722 14.7657 22.2418 11.8166L23.4815 11.3844C24.678 14.8101 23.792 18.6792 21.2273 21.2437C19.4338 23.0373 17.0443 24.0267 14.5081 24.0267L14.5092 24.0247Z" fill="#FABD47"/>
<path d="M14.5082 19.0204C13.306 19.0204 12.1789 18.5541 11.327 17.7023C9.57329 15.9485 9.57329 13.0962 11.327 11.3435C11.9969 10.6736 12.8396 10.2414 13.7722 10.0879L13.9849 11.3844C13.3276 11.4936 12.7293 11.8007 12.2562 12.2738C11.0165 13.5135 11.0165 15.5333 12.2562 16.773C12.8578 17.3746 13.6562 17.7056 14.507 17.7056C15.3588 17.7056 16.1572 17.3735 16.7577 16.773C17.2308 16.2999 17.5402 15.7016 17.6471 15.0443L18.9436 15.257C18.7901 16.1873 18.3545 17.0357 17.6846 17.7022C16.8362 18.5506 15.7057 19.0203 14.5035 19.0203L14.5082 19.0204Z" fill="#FABD47"/>
<path d="M14.9772 14.9838L14.0469 14.0535L20.5309 7.56949L19.8485 5.17773C19.7825 4.94912 19.8485 4.70233 20.0145 4.53288L24.3568 0.19295C24.516 0.0337236 24.748 -0.0356524 24.9709 0.0178034C25.1927 0.0678439 25.3713 0.230482 25.444 0.443149L26.2493 2.79171L28.682 3.67425C28.8913 3.75273 29.0516 3.93128 29.0982 4.14965C29.1483 4.36915 29.0789 4.59776 28.9231 4.75696L24.6365 9.04361C24.467 9.21307 24.2236 9.27562 23.9916 9.21307L21.4622 8.49884L14.9772 14.9838ZM21.8001 7.22835L23.9758 7.84251L27.2603 4.55801L25.5043 3.91884C25.3166 3.84946 25.1722 3.70275 25.1062 3.5151L24.5398 1.86827L21.2178 5.19033L21.8001 7.22835Z" fill="#FABD47"/>
</svg>
