<svg width="75" height="75" viewBox="0 0 75 75" fill="none" xmlns="http://www.w3.org/2000/svg">
<circle cx="37.5" cy="37.5" r="37.5" fill="#293F52"/>
<path d="M37.5798 48.3972L39.4339 41.6485C39.4339 41.6485 38.3215 37.8663 37.9507 36.5314C37.5798 35.1965 41.7329 34.1582 44.6252 34.1582C47.5174 34.1582 51.9671 34.8257 51.2997 36.5314C50.6322 38.2371 49.8164 41.5743 49.8164 41.5743L53.5245 56.4807C53.5245 58.7797 47.4433 59.373 44.6252 59.373C42.697 59.373 39.2856 59.0764 37.2832 58.1864" stroke="white" stroke-width="2.34375" stroke-linejoin="round"/>
<path d="M39.4359 55.8912C39.4359 58.6352 31.8714 59.3768 28.3117 59.3768C24.7519 59.3768 17.1875 58.6352 17.1875 55.8912L21.8597 37.9442C21.8597 37.9442 20.0056 33.6429 19.5607 32.0113C19.1157 30.4539 24.7519 28.9707 28.3117 28.9707C31.8714 28.9707 38.0268 30.009 37.1369 32.0855C36.2469 34.162 34.7637 37.9442 34.7637 37.9442L39.4359 55.8912Z" stroke="white" stroke-width="2.34375" stroke-linejoin="round"/>
<path d="M19.6777 32.0098C19.6777 32.0098 27.3022 36.7561 37.1056 32.0098" stroke="white" stroke-width="2.34375" stroke-linecap="round" stroke-linejoin="round"/>
<path d="M38.1016 36.459C38.1016 36.459 43.8164 39.7221 51.1955 36.459" stroke="white" stroke-width="2.34375" stroke-linecap="round" stroke-linejoin="round"/>
<path d="M39.6567 14.0625C37.7285 14.0625 36.097 15.1749 35.2812 16.8065H34.9104C33.2047 16.8065 31.7214 18.0672 31.5731 19.6988C30.2382 20.0696 29.2741 21.182 29.2741 22.591C29.2741 22.8877 29.3483 23.1843 29.4224 23.4068H29.2741C28.3842 23.4068 27.6426 24.1484 27.6426 25.0384C27.6426 25.9283 28.3842 26.6699 29.2741 26.6699C30.0899 26.6699 30.7573 26.0766 30.9057 25.2608C31.3506 25.4833 31.8698 25.6316 32.3889 25.6316C33.5755 25.6316 34.6137 24.9642 35.1329 23.9259C35.652 24.2967 36.2453 24.4451 36.9127 24.4451C38.6184 24.4451 39.9533 23.1102 39.8792 22.8135C42.4748 22.7394 44.4772 21.2561 44.4772 18.6605C44.403 16.2132 42.3265 14.0625 39.6567 14.0625Z" stroke="white" stroke-width="2.34375" stroke-linejoin="round"/>
<path d="M53.2285 20.8105C51.597 20.8105 50.1879 21.7746 49.5946 23.1095H49.298C47.8147 23.1095 46.6282 24.1478 46.4798 25.5569C45.3674 25.8535 44.5516 26.8176 44.5516 28.0042C44.5516 28.2267 44.6258 28.4492 44.6258 28.6716H44.5516C43.81 28.6716 43.1426 29.2649 43.1426 30.0065C43.1426 30.7482 43.7359 31.3414 44.5516 31.3414C45.2191 31.3414 45.8124 30.8223 45.8865 30.1549C46.2573 30.3773 46.7023 30.4515 47.1473 30.4515C48.1855 30.4515 49.0755 29.8582 49.4463 29.0424C49.8912 29.3391 50.3362 29.4874 50.9295 29.4874C52.3386 29.4874 53.451 28.375 53.3768 28.1525C55.5275 28.0783 57.2332 26.8176 57.2332 24.7411C57.2332 22.5163 55.4533 20.8105 53.2285 20.8105Z" stroke="white" stroke-width="2.34375" stroke-linejoin="round"/>
</svg>
