<svg width="197" height="363" viewBox="0 0 197 363" fill="none" xmlns="http://www.w3.org/2000/svg">
<g clip-path="url(#clip0_1666_1753)">
<g clip-path="url(#clip1_1666_1753)">
<path d="M96.8096 296.238C96.8287 296.259 96.8505 296.277 96.8744 296.293C96.8982 296.306 96.9233 296.316 96.9494 296.324C97.907 296.34 165.469 291.725 166.142 291.585L196.54 229.412C196.523 229.328 196.499 229.247 196.467 229.167C196.366 228.998 196.261 228.832 196.152 228.67C183.404 209.711 170.651 190.756 157.893 171.806C157.874 171.785 157.852 171.768 157.827 171.756C157.812 171.734 157.775 171.731 157.698 171.691C157.393 171.707 157.025 171.727 156.665 171.755L99.8569 175.613C96.4392 175.85 93.0263 176.083 89.6183 176.31C88.4598 176.394 88.6851 176.227 88.1351 177.329C87.6796 178.267 87.2285 179.202 86.77 180.125C77.3428 199.394 67.9187 218.662 58.4978 237.93C58.3768 238.182 58.2644 238.438 58.1658 238.652C58.1814 238.725 58.2056 238.796 58.2378 238.863C70.9221 257.727 83.6025 276.596 96.2791 295.468C96.4414 295.728 96.6247 295.977 96.8096 296.238ZM173.002 272.332C171.337 275.766 169.664 279.193 167.981 282.612L165.023 288.654C164.954 288.776 164.893 288.903 164.839 289.033C164.791 289.18 164.696 289.306 164.568 289.392C164.44 289.478 164.287 289.519 164.133 289.508C162.817 289.584 161.509 289.694 160.189 289.773L100.361 293.835C100.027 293.895 99.686 293.897 99.3517 293.841C99.3586 293.738 99.3401 293.65 99.374 293.583C102.238 287.711 105.104 281.838 108.015 275.891C129.798 274.416 151.55 272.941 173.27 271.464C173.279 271.775 173.185 272.081 173.002 272.332ZM101.589 264.201C99.9323 261.738 98.2723 259.269 96.609 256.795C96.4394 256.543 96.2793 256.281 96.095 255.988L104.674 238.452C104.72 238.37 104.774 238.293 104.834 238.221C105.059 238.199 105.113 238.349 105.189 238.453C105.299 238.616 105.408 238.779 105.518 238.942C112.766 249.722 120.014 260.502 127.263 271.283L127.791 272.068C127.639 272.17 127.585 272.231 127.549 272.23C121.037 272.682 114.533 273.13 108.037 273.575C107.677 273.397 107.547 273.072 107.362 272.798C105.432 269.922 103.516 267.063 101.589 264.201ZM168.625 262.156L172.665 268.165C172.836 268.419 173.005 268.671 173.152 268.917C172.988 269.213 172.736 269.143 172.527 269.157C170.767 269.288 169.007 269.409 167.246 269.519C155.313 270.334 143.378 271.145 131.443 271.954C131.165 271.974 130.885 271.985 130.584 272.001C130.435 271.817 130.288 271.654 130.161 271.471C126.703 266.328 123.244 261.183 119.783 256.037C119.665 255.861 119.581 255.661 119.471 255.454C119.557 255.404 119.651 255.365 119.748 255.341C133.836 254.385 147.903 253.431 161.947 252.479C162.235 252.657 162.465 252.914 162.61 253.22C164.62 256.197 166.625 259.176 168.625 262.156ZM117.277 252.314C114.632 248.38 111.986 244.445 109.341 240.51C108.419 239.139 107.493 237.762 106.563 236.38C106.392 236.126 106.236 235.865 106.091 235.64C106.298 234.971 114.758 217.577 115.411 216.459C115.679 216.28 115.996 216.325 116.296 216.306C121.397 215.958 126.489 215.613 131.574 215.273C133.03 215.176 134.485 215.078 135.939 214.981C136.216 214.961 136.495 214.954 136.8 214.942C137.393 215.664 148.27 231.889 148.561 232.467C148.347 233.129 139.608 251.009 139.16 251.686L117.881 253.123C117.672 252.854 117.465 252.593 117.279 252.316L117.277 252.314ZM193.54 230.331L175.704 266.822C175.572 267.094 175.43 267.353 175.239 267.716C174.678 267.079 164.394 251.784 164.054 251.081C170.192 238.536 176.344 225.958 182.509 213.347C182.587 213.208 182.673 213.074 182.765 212.944C182.876 213.033 182.981 213.129 183.079 213.232C183.202 213.386 183.298 213.558 183.408 213.721C186.743 218.682 190.079 223.643 193.416 228.606C194.03 229.534 194.028 229.343 193.542 230.333L193.54 230.331ZM157.574 175.36C157.793 175.687 157.971 175.899 158.124 176.127L180.865 209.948C181.274 210.557 181.277 210.561 180.944 211.239C178.751 215.725 176.559 220.209 174.366 224.69L162.358 249.245C162.227 249.519 162.087 249.781 161.944 250.038C161.165 250.221 146.597 251.272 142.465 251.456C142.332 251.46 142.198 251.439 142.034 251.43C142.045 251.138 142.139 250.855 142.307 250.615C143.518 248.117 144.736 245.623 145.96 243.133C147.143 240.713 148.325 238.295 149.509 235.876L160.838 212.763C160.985 212.462 161.121 212.156 161.277 211.821L148.754 193.195L157.295 175.706C157.38 175.585 157.474 175.47 157.575 175.363L157.574 175.36ZM126.942 195.957C126.962 195.923 126.984 195.89 127.01 195.861C127.028 195.841 127.05 195.826 127.075 195.817C127.241 195.796 127.408 195.772 127.575 195.762C133.951 195.325 140.327 194.893 146.595 194.473C146.724 194.515 146.75 194.52 146.774 194.532C146.798 194.548 146.82 194.568 146.838 194.59C146.899 194.681 146.982 194.762 147.043 194.853C150.833 200.489 154.622 206.125 158.412 211.761C158.453 211.832 158.488 211.906 158.516 211.982C158.335 212.577 150.371 228.923 149.836 229.813C149.659 229.869 149.589 229.733 149.51 229.625C149.386 229.44 149.259 229.251 149.135 229.066C141.901 218.307 134.667 207.549 127.435 196.793C127.233 196.543 127.068 196.264 126.948 195.965L126.942 195.957ZM81.4346 196.241L90.0704 178.569L155.077 174.173C155.15 174.168 155.225 174.219 155.314 174.248C155.319 174.334 155.309 174.42 155.286 174.503C152.425 180.369 149.565 186.242 146.731 192.023L146.577 192.127C146.553 192.141 146.526 192.15 146.498 192.155C139.513 192.642 132.524 193.125 125.53 193.604C110.88 194.593 96.229 195.58 81.579 196.564C81.5518 196.561 81.5253 196.553 81.5005 196.541C81.4743 196.531 81.4531 196.513 81.4138 196.492C81.4222 196.401 81.4029 196.307 81.4346 196.241ZM81.548 199.006C81.8352 198.888 82.146 198.839 82.4556 198.863C85.8403 198.627 89.2249 198.394 92.6092 198.166L123.149 196.095C124.29 196.017 124.092 195.929 124.706 196.842C128.056 201.824 131.406 206.807 134.756 211.789C134.961 212.015 135.113 212.283 135.202 212.575C134.945 212.798 134.65 212.725 134.373 212.751C130.351 213.028 126.326 213.302 122.298 213.571C112.735 214.218 103.172 214.861 93.6075 215.501C92.4671 215.579 92.6624 215.71 91.9805 214.701C88.6626 209.766 85.3436 204.83 82.0237 199.892C81.8053 199.635 81.6441 199.335 81.5509 199.011L81.548 199.006ZM92.7793 217.917L112.322 216.592C112.45 216.601 112.578 216.62 112.703 216.652C112.46 217.465 112.026 218.152 111.678 218.884C111.331 219.616 110.969 220.346 110.61 221.074L109.54 223.267L108.469 225.458L107.397 227.647L106.326 229.838C105.969 230.571 105.616 231.3 105.255 232.029C104.893 232.759 104.519 233.471 104.165 234.211C103.81 234.951 103.424 235.719 103.053 236.474C102.683 237.228 102.342 237.937 101.997 238.658L100.924 240.851L99.8511 243.04L98.7822 245.229L97.7112 247.42L96.6402 249.612L95.5692 251.803C95.2132 252.531 94.8513 253.261 94.4968 253.992C94.1422 254.722 93.7919 255.45 93.4237 256.213L105.892 274.756C105.684 275.423 97.6584 291.867 97.2172 292.558C97.0401 292.614 96.9633 292.486 96.8873 292.373C96.7616 292.186 96.6374 292.001 96.5102 291.812C89.0119 280.66 81.5131 269.507 74.0138 258.354C73.3707 257.397 73.3433 257.634 73.8694 256.557L92.3771 218.708C92.4996 218.458 92.6308 218.212 92.7823 217.921L92.7793 217.917ZM60.7671 238.545C60.7858 238.483 60.8089 238.424 60.8361 238.366L79.3099 200.584C79.35 200.519 79.3978 200.459 79.4523 200.406C79.6556 200.37 79.7035 200.531 79.778 200.632C79.9145 200.812 80.0294 201.006 80.1536 201.191L90.6937 216.866C84.4992 229.531 78.3131 242.176 72.1355 254.8C72.0831 254.886 72.0212 254.965 71.9511 255.037C71.8616 255.003 71.7941 255.001 71.767 254.965C71.1792 254.218 61.0796 239.136 60.77 238.549L60.7671 238.545Z" fill="#D7D8DD"/>
</g>
<g clip-path="url(#clip2_1666_1753)">
<path d="M88.4258 178.135C88.4449 178.156 88.4667 178.174 88.4907 178.189C88.5144 178.202 88.5396 178.213 88.5656 178.221C89.5233 178.237 157.085 173.622 157.758 173.482L188.156 111.309C188.14 111.225 188.115 111.143 188.084 111.064C187.982 110.894 187.877 110.728 187.768 110.566C175.02 91.607 162.267 72.6526 149.509 53.7029C149.491 53.6819 149.468 53.6647 149.443 53.6523C149.429 53.6305 149.392 53.6271 149.314 53.5874C149.009 53.6031 148.641 53.6235 148.281 53.6511L91.4731 57.5092C88.0554 57.747 84.6425 57.9794 81.2345 58.2064C80.076 58.2909 80.3013 58.1236 79.7513 59.2258C79.2958 60.1634 78.8447 61.098 78.3862 62.0218C68.959 81.2901 59.535 100.558 50.114 119.827C49.993 120.079 49.8807 120.334 49.782 120.549C49.7976 120.621 49.8218 120.692 49.854 120.759C62.5383 139.624 75.2187 158.492 87.8953 177.365C88.0576 177.625 88.2409 177.874 88.4258 178.135ZM164.618 154.229C162.954 157.663 161.28 161.089 159.597 164.508L156.639 170.55C156.57 170.673 156.509 170.799 156.456 170.929C156.408 171.076 156.312 171.202 156.184 171.289C156.056 171.375 155.903 171.415 155.749 171.404C154.434 171.481 153.125 171.591 151.805 171.67L91.9771 175.731C91.6436 175.791 91.3022 175.793 90.9679 175.737C90.9748 175.635 90.9563 175.546 90.9902 175.479C93.8543 169.608 96.7206 163.735 99.6317 157.787C121.414 156.313 143.166 154.837 164.886 153.36C164.895 153.672 164.801 153.977 164.618 154.229ZM93.2051 146.098C91.5485 143.634 89.8886 141.165 88.2252 138.691C88.0556 138.439 87.8955 138.178 87.7112 137.885L96.2901 120.349C96.3364 120.267 96.3901 120.19 96.4505 120.118C96.6757 120.096 96.7293 120.246 96.8053 120.349C96.9149 120.513 97.0245 120.676 97.1341 120.839C104.382 131.618 111.63 142.398 118.879 153.179L119.407 153.964C119.255 154.066 119.201 154.128 119.166 154.126C112.653 154.578 106.149 155.027 99.653 155.472C99.2934 155.294 99.1628 154.968 98.9786 154.694C97.0485 151.819 95.1322 148.959 93.2051 146.098ZM160.241 144.053L164.281 150.061C164.452 150.316 164.622 150.568 164.768 150.814C164.604 151.11 164.352 151.04 164.143 151.054C162.384 151.185 160.623 151.305 158.863 151.416C146.929 152.23 134.994 153.042 123.059 153.851C122.781 153.87 122.502 153.881 122.2 153.898C122.051 153.714 121.904 153.551 121.777 153.368C118.319 148.224 114.86 143.079 111.4 137.933C111.281 137.757 111.198 137.558 111.087 137.351C111.174 137.3 111.267 137.262 111.364 137.237C125.452 136.281 139.519 135.327 153.564 134.375C153.851 134.553 154.082 134.811 154.226 135.117C156.237 138.094 158.241 141.073 160.241 144.053ZM108.894 134.211C106.248 130.276 103.602 126.341 100.957 122.407C100.035 121.036 99.1093 119.659 98.1797 118.276C98.0087 118.022 97.8522 117.761 97.7074 117.536C97.914 116.867 106.374 99.4738 107.027 98.3559C107.295 98.1762 107.613 98.2214 107.913 98.2028C113.013 97.8543 118.106 97.5099 123.191 97.1697C124.647 97.0724 126.102 96.9749 127.555 96.8771C127.833 96.8579 128.112 96.8502 128.416 96.8381C129.009 97.5602 139.887 113.785 140.177 114.363C139.963 115.025 131.224 132.906 130.776 133.582L109.498 135.02C109.288 134.75 109.081 134.489 108.895 134.213L108.894 134.211ZM185.157 112.227L167.321 148.718C167.188 148.991 167.047 149.25 166.855 149.612C166.294 148.976 156.01 133.681 155.67 132.978C161.808 120.433 167.96 107.855 174.125 95.2433C174.204 95.1047 174.289 94.9702 174.382 94.8405C174.492 94.9294 174.597 95.0256 174.695 95.1284C174.818 95.2827 174.914 95.4545 175.024 95.6175C178.36 100.578 181.696 105.54 185.032 110.502C185.647 111.43 185.645 111.239 185.158 112.229L185.157 112.227ZM149.19 57.2569C149.409 57.583 149.587 57.7952 149.74 58.0234L172.481 91.8445C172.89 92.4531 172.893 92.4575 172.56 93.136C170.368 97.6216 168.175 102.105 165.982 106.587L153.974 131.141C153.843 131.416 153.703 131.677 153.561 131.934C152.781 132.117 138.213 133.169 134.081 133.352C133.948 133.356 133.814 133.336 133.65 133.326C133.661 133.034 133.756 132.751 133.923 132.511C135.135 130.013 136.352 127.519 137.576 125.03C138.759 122.61 139.942 120.191 141.125 117.773L152.454 94.6596C152.602 94.3582 152.737 94.0526 152.893 93.717L140.37 75.0913L148.911 57.6024C148.996 57.4814 149.09 57.3666 149.192 57.2591L149.19 57.2569ZM118.558 77.8532C118.578 77.8191 118.601 77.7869 118.626 77.757C118.644 77.7374 118.666 77.7223 118.691 77.7132C118.858 77.6929 119.025 77.669 119.191 77.6581C125.568 77.2218 131.943 76.7891 138.211 76.3691C138.341 76.4115 138.366 76.4164 138.39 76.4287C138.414 76.4448 138.436 76.4643 138.454 76.4866C138.516 76.5779 138.598 76.6582 138.66 76.7495C142.449 82.3856 146.239 88.0217 150.028 93.6578C150.069 93.7282 150.104 93.802 150.132 93.8783C149.952 94.4733 141.987 110.82 141.452 111.71C141.275 111.766 141.206 111.63 141.127 111.522C141.002 111.337 140.875 111.148 140.751 110.963C133.517 100.204 126.284 89.446 119.051 78.6897C118.849 78.4393 118.685 78.1603 118.564 77.8619L118.558 77.8532ZM73.0508 78.138L81.6866 60.4656L146.693 56.0694C146.766 56.0648 146.841 56.1153 146.93 56.1441C146.935 56.23 146.926 56.3162 146.903 56.3992C144.041 62.2657 141.181 68.138 138.348 73.9194L138.193 74.0232C138.169 74.0374 138.142 74.0469 138.114 74.0511C131.129 74.5388 124.14 75.0219 117.147 75.5004C102.496 76.4896 87.8452 77.4764 73.1952 78.4607C73.168 78.4572 73.1415 78.4495 73.1167 78.4378C73.0905 78.427 73.0693 78.4096 73.03 78.3887C73.0384 78.2979 73.0191 78.2035 73.0508 78.138ZM73.1642 80.9028C73.4514 80.7849 73.7622 80.7359 74.0718 80.7597C77.4566 80.5231 80.8411 80.2908 84.2254 80.0629L114.765 77.9916C115.906 77.913 115.708 77.8252 116.322 78.7382C119.672 83.7207 123.022 88.7032 126.372 93.6857C126.577 93.9114 126.73 94.1798 126.818 94.4715C126.561 94.6949 126.266 94.6219 125.989 94.647C121.967 94.9249 117.942 95.1985 113.915 95.4677C104.351 96.1147 94.7878 96.7579 85.2237 97.3972C84.0834 97.4758 84.2786 97.6065 83.5967 96.5971C80.2788 91.6624 76.9598 86.7263 73.6399 81.7887C73.4215 81.5317 73.2604 81.2312 73.1671 80.9071L73.1642 80.9028ZM84.3956 99.8133L103.938 98.4887C104.067 98.497 104.194 98.5169 104.319 98.5483C104.077 99.3615 103.642 100.048 103.295 100.781C102.947 101.513 102.585 102.242 102.226 102.97L101.156 105.164L100.085 107.355L99.0128 109.544L97.9417 111.735C97.585 112.467 97.2326 113.196 96.8707 113.926C96.5089 114.655 96.1353 115.367 95.7808 116.108C95.4263 116.848 95.0399 117.616 94.6694 118.37C94.2989 119.124 93.9581 119.833 93.6129 120.555L92.5397 122.747L91.4673 124.936L90.3984 127.126L89.3274 129.317L88.2564 131.508L87.1854 133.699C86.8294 134.428 86.4675 135.157 86.113 135.888C85.7584 136.619 85.4082 137.347 85.0399 138.109L97.5079 156.652C97.2998 157.319 89.2746 173.763 88.8334 174.455C88.6563 174.511 88.5795 174.382 88.5035 174.269C88.3778 174.082 88.2536 173.898 88.1264 173.708C80.6281 162.556 73.1293 151.404 65.63 140.25C64.9869 139.294 64.9595 139.53 65.4856 138.454L83.9933 100.605C84.1158 100.355 84.247 100.109 84.3985 99.8176L84.3956 99.8133ZM52.3833 120.441C52.4021 120.38 52.4251 120.32 52.4523 120.262L70.9261 82.4802C70.9662 82.4154 71.014 82.3557 71.0685 82.3024C71.2718 82.2667 71.3197 82.4271 71.3942 82.5285C71.5308 82.7081 71.6456 82.9024 71.7698 83.0872L82.3099 98.7629C76.1154 111.428 69.9294 124.072 63.7517 136.696C63.6993 136.782 63.6375 136.862 63.5673 136.934C63.4778 136.899 63.4103 136.897 63.3833 136.862C62.7954 136.114 52.6959 121.033 52.3862 120.445L52.3833 120.441Z" fill="#D7D8DD"/>
</g>
<g clip-path="url(#clip3_1666_1753)">
<path d="M-9.39893 243.91C-9.37983 243.931 -9.35801 243.949 -9.33405 243.964C-9.31028 243.978 -9.28515 243.988 -9.2591 243.996C-8.30145 244.012 59.2605 239.397 59.9335 239.257L90.3317 177.084C90.3149 177 90.2905 176.918 90.2588 176.839C90.1574 176.67 90.0521 176.504 89.943 176.341C77.1954 157.382 64.4424 138.428 51.6842 119.478C51.6658 119.457 51.6436 119.44 51.6186 119.428C51.604 119.406 51.5669 119.402 51.4898 119.363C51.1847 119.379 50.8164 119.399 50.4561 119.426L-6.35162 123.285C-9.76931 123.522 -13.1822 123.755 -16.5902 123.982C-17.7487 124.066 -17.5234 123.899 -18.0734 125.001C-18.5289 125.939 -18.98 126.873 -19.4385 127.797C-28.8657 147.066 -38.2898 166.334 -47.7107 185.602C-47.8317 185.854 -47.944 186.109 -48.0427 186.324C-48.0271 186.397 -48.0029 186.467 -47.9707 186.535C-35.2864 205.399 -22.606 224.268 -9.92944 243.14C-9.76712 243.4 -9.58378 243.649 -9.39893 243.91ZM66.7931 220.004C65.1289 223.438 63.4553 226.865 61.7726 230.284L58.8147 236.326C58.7456 236.448 58.6842 236.575 58.6309 236.705C58.583 236.851 58.4874 236.978 58.3594 237.064C58.2314 237.15 58.0783 237.191 57.9244 237.18C56.6089 237.256 55.3001 237.366 53.9803 237.445L-5.84761 241.507C-6.18113 241.567 -6.52254 241.569 -6.85676 241.513C-6.8499 241.41 -6.86842 241.322 -6.83453 241.255C-3.97041 235.383 -1.1041 229.51 1.80695 223.563C23.5897 222.088 45.3412 220.612 67.0614 219.136C67.0706 219.447 66.9762 219.752 66.7931 220.004ZM-4.61964 211.873C-6.27619 209.41 -7.93615 206.941 -9.59952 204.467C-9.76907 204.215 -9.92922 203.953 -10.1135 203.66L-1.53457 186.124C-1.48827 186.042 -1.43459 185.965 -1.37419 185.893C-1.14905 185.871 -1.09542 186.021 -1.01945 186.125C-0.909823 186.288 -0.8002 186.451 -0.690573 186.614C6.55731 197.393 13.8057 208.174 21.0545 218.955L21.5822 219.739C21.43 219.842 21.3765 219.903 21.3409 219.902C14.8285 220.354 8.3243 220.802 1.82834 221.247C1.46872 221.069 1.33811 220.743 1.15394 220.469C-0.776196 217.594 -2.69247 214.735 -4.61964 211.873ZM62.4163 209.828L66.4563 215.837C66.6273 216.091 66.7969 216.343 66.9431 216.589C66.7794 216.885 66.527 216.815 66.3185 216.829C64.5589 216.96 62.7987 217.081 61.038 217.191C49.1041 218.006 37.1695 218.817 25.2341 219.626C24.9566 219.645 24.6769 219.657 24.3755 219.673C24.2266 219.489 24.0792 219.326 23.9527 219.143C20.4944 214 17.0352 208.855 13.5749 203.709C13.4566 203.532 13.3729 203.333 13.2624 203.126C13.3489 203.075 13.4422 203.037 13.5395 203.013C27.6278 202.057 41.6943 201.103 55.739 200.151C56.0268 200.329 56.2569 200.586 56.4016 200.892C58.4118 203.869 60.4167 206.848 62.4163 209.828ZM11.069 199.986C8.42335 196.051 5.77775 192.117 3.13214 188.182C2.21032 186.811 1.2846 185.434 0.354989 184.052C0.183971 183.797 0.0274606 183.536 -0.117279 183.312C0.089325 182.643 8.54963 165.249 9.20274 164.131C9.47013 163.952 9.78781 163.997 10.0878 163.978C15.1882 163.63 20.2809 163.285 25.3658 162.945C26.8219 162.848 28.2768 162.75 29.7305 162.653C30.008 162.633 30.2869 162.626 30.5913 162.614C31.1841 163.336 42.0619 179.561 42.3527 180.139C42.138 180.801 33.3992 198.681 32.9514 199.358L11.673 200.795C11.4634 200.526 11.256 200.264 11.0704 199.988L11.069 199.986ZM87.3318 178.002L69.496 214.494C69.3633 214.766 69.222 215.025 69.0301 215.388C68.4696 214.751 58.1854 199.456 57.8455 198.753C63.9838 186.208 70.1355 173.63 76.3006 161.019C76.379 160.88 76.4645 160.746 76.5569 160.616C76.6677 160.705 76.7725 160.801 76.8705 160.904C76.9931 161.058 77.0897 161.23 77.1993 161.393C80.5348 166.354 83.8708 171.315 87.2073 176.277C87.822 177.206 87.8198 177.015 87.3333 178.005L87.3318 178.002ZM51.3655 123.032C51.5847 123.358 51.7621 123.571 51.9156 123.799L74.6561 157.62C75.0653 158.229 75.0683 158.233 74.7353 158.911C72.5428 163.397 70.3501 167.881 68.1572 172.362L56.1498 196.917C56.0186 197.191 55.8787 197.453 55.7359 197.71C54.9563 197.893 40.3881 198.944 36.2563 199.128C36.1233 199.132 35.9896 199.111 35.8253 199.102C35.8362 198.81 35.9309 198.527 36.0982 198.287C37.3099 195.789 38.5277 193.295 39.7516 190.805C40.934 188.385 42.117 185.966 43.3004 183.548L54.6291 160.435C54.7769 160.134 54.9123 159.828 55.0686 159.492L42.5451 140.867L51.0864 123.378C51.1715 123.257 51.2653 123.142 51.3669 123.035L51.3655 123.032ZM20.7335 143.629C20.7532 143.595 20.7759 143.562 20.8014 143.532C20.8193 143.513 20.8417 143.498 20.8666 143.489C21.0329 143.468 21.2 143.444 21.3663 143.434C27.7429 142.997 34.1188 142.564 40.3865 142.144C40.516 142.187 40.5414 142.192 40.5654 142.204C40.5895 142.22 40.6111 142.24 40.6296 142.262C40.691 142.353 40.7734 142.434 40.8348 142.525C44.6244 148.161 48.414 153.797 52.2036 159.433C52.2444 159.504 52.2792 159.577 52.3076 159.654C52.1269 160.249 44.1623 176.595 43.6275 177.485C43.4504 177.541 43.3808 177.405 43.3019 177.297C43.1777 177.112 43.0505 176.923 42.9263 176.738C35.6921 165.979 28.4588 155.221 21.2265 144.465C21.0242 144.215 20.86 143.936 20.7394 143.637L20.7335 143.629ZM-24.7739 143.913L-16.1381 126.241L48.8687 121.845C48.9414 121.84 49.0164 121.891 49.1052 121.919C49.1101 122.005 49.1009 122.092 49.0778 122.175C46.2166 128.041 43.3561 133.913 40.5228 139.695L40.3685 139.799C40.3442 139.813 40.3173 139.822 40.2894 139.826C33.3044 140.314 26.3153 140.797 19.322 141.276C4.67103 142.265 -9.97946 143.252 -24.6295 144.236C-24.6567 144.233 -24.6832 144.225 -24.708 144.213C-24.7342 144.202 -24.7554 144.185 -24.7947 144.164C-24.7863 144.073 -24.8056 143.979 -24.7739 143.913ZM-24.6605 146.678C-24.3733 146.56 -24.0625 146.511 -23.7529 146.535C-20.3682 146.298 -16.9836 146.066 -13.5993 145.838L16.9408 143.767C18.0811 143.688 17.8832 143.601 18.4971 144.514C21.8472 149.496 25.1973 154.479 28.5474 159.461C28.7526 159.687 28.905 159.955 28.9937 160.247C28.7367 160.47 28.4414 160.397 28.1647 160.422C24.1427 160.7 20.1177 160.974 16.0899 161.243C6.52676 161.89 -3.03686 162.533 -12.601 163.173C-13.7413 163.251 -13.5461 163.382 -14.228 162.372C-17.5459 157.438 -20.8649 152.502 -24.1848 147.564C-24.4032 147.307 -24.5644 147.007 -24.6576 146.683L-24.6605 146.678ZM-13.4292 165.589L6.11328 164.264C6.24181 164.272 6.36931 164.292 6.49422 164.324C6.25186 165.137 5.81718 165.824 5.46988 166.556C5.12257 167.288 4.76073 168.018 4.40105 168.746L3.33151 170.939L2.2605 173.13L1.18804 175.319L0.117039 177.51C-0.239714 178.242 -0.592121 178.972 -0.953965 179.701C-1.31581 180.431 -1.68936 181.143 -2.0439 181.883C-2.39844 182.623 -2.78483 183.391 -3.1553 184.145C-3.52577 184.9 -3.86663 185.609 -4.2118 186.33L-5.28497 188.523L-6.35744 190.712L-7.42627 192.901L-8.49727 195.092L-9.56827 197.283L-10.6393 199.475C-10.9953 200.203 -11.3572 200.933 -11.7117 201.664C-12.0663 202.394 -12.4166 203.122 -12.7848 203.884L-0.316845 222.428C-0.524912 223.095 -8.55014 239.539 -8.99133 240.23C-9.16839 240.286 -9.24516 240.158 -9.32117 240.045C-9.44687 239.858 -9.57112 239.673 -9.69828 239.484C-17.1966 228.332 -24.6954 217.179 -32.1947 206.026C-32.8378 205.069 -32.8652 205.306 -32.3391 204.229L-13.8314 166.38C-13.7089 166.13 -13.5777 165.884 -13.4262 165.593L-13.4292 165.589ZM-45.4414 186.217C-45.4227 186.155 -45.3996 186.095 -45.3724 186.038L-26.8986 148.256C-26.8585 148.191 -26.8107 148.131 -26.7562 148.078C-26.5529 148.042 -26.505 148.202 -26.4305 148.304C-26.294 148.484 -26.1791 148.678 -26.0549 148.863L-15.5148 164.538C-21.7093 177.203 -27.8954 189.848 -34.073 202.472C-34.1254 202.558 -34.1873 202.637 -34.2574 202.709C-34.3469 202.675 -34.4144 202.673 -34.4415 202.637C-35.0293 201.89 -45.1289 186.808 -45.4385 186.221L-45.4414 186.217Z" fill="#D7D8DD"/>
</g>
<g clip-path="url(#clip4_1666_1753)">
<path d="M-2.10499 361.799C-2.08588 361.82 -2.06406 361.838 -2.04011 361.853C-2.01633 361.866 -1.9912 361.877 -1.96515 361.885C-1.0075 361.901 66.5545 357.286 67.2274 357.146L97.6257 294.973C97.6089 294.889 97.5845 294.807 97.5528 294.728C97.4514 294.558 97.3461 294.392 97.237 294.23C84.4893 275.271 71.7364 256.317 58.9782 237.367C58.9598 237.346 58.9375 237.329 58.9126 237.316C58.8979 237.295 58.8609 237.291 58.7837 237.251C58.4786 237.267 58.1103 237.288 57.7501 237.315L0.942327 241.173C-2.47536 241.411 -5.88824 241.643 -9.29628 241.87C-10.4548 241.955 -10.2295 241.788 -10.7795 242.89C-11.235 243.827 -11.6861 244.762 -12.1445 245.686C-21.5717 264.954 -30.9958 284.222 -40.4167 303.491C-40.5378 303.743 -40.6501 303.998 -40.7488 304.213C-40.7331 304.286 -40.7089 304.356 -40.6768 304.423C-27.9925 323.288 -15.3121 342.156 -2.6355 361.029C-2.47317 361.289 -2.28983 361.538 -2.10499 361.799ZM74.0871 337.893C72.4228 341.327 70.7493 344.753 69.0665 348.172L66.1086 354.214C66.0395 354.337 65.9781 354.463 65.9248 354.594C65.8769 354.74 65.7814 354.867 65.6533 354.953C65.5253 355.039 65.3722 355.08 65.2183 355.069C63.9029 355.145 62.5941 355.255 61.2743 355.334L1.44633 359.395C1.11282 359.455 0.771408 359.457 0.437182 359.401C0.444046 359.299 0.425527 359.21 0.459411 359.143C3.32354 353.272 6.18984 347.399 9.1009 341.451C30.8836 339.977 52.6351 338.501 74.3554 337.024C74.3645 337.336 74.2702 337.641 74.0871 337.893ZM2.6743 329.762C1.01775 327.298 -0.642206 324.829 -2.30558 322.356C-2.47513 322.103 -2.63528 321.842 -2.81952 321.549L5.75937 304.013C5.80567 303.931 5.85935 303.854 5.91975 303.782C6.1449 303.76 6.19853 303.91 6.2745 304.014C6.38412 304.177 6.49375 304.34 6.60337 304.503C13.8513 315.282 21.0996 326.062 28.3485 336.843L28.8761 337.628C28.724 337.73 28.6704 337.792 28.6348 337.79C22.1224 338.242 15.6182 338.691 9.12229 339.136C8.76267 338.958 8.63206 338.632 8.44789 338.358C6.51775 335.483 4.60148 332.623 2.6743 329.762ZM69.7102 327.717L73.7502 333.725C73.9213 333.98 74.0908 334.232 74.2371 334.478C74.0733 334.774 73.821 334.704 73.6125 334.718C71.8528 334.849 70.0926 334.969 68.3319 335.08C56.398 335.894 44.4634 336.706 32.528 337.515C32.2506 337.534 31.9709 337.545 31.6694 337.562C31.5205 337.378 31.3731 337.215 31.2467 337.032C27.7884 331.888 24.3291 326.743 20.8689 321.597C20.7505 321.421 20.6669 321.222 20.5564 321.015C20.6428 320.964 20.7361 320.926 20.8335 320.901C34.9217 319.945 48.9882 318.991 63.0329 318.039C63.3207 318.217 63.5509 318.475 63.6955 318.781C65.7058 321.758 67.7106 324.737 69.7102 327.717ZM18.3629 317.875C15.7173 313.94 13.0717 310.005 10.4261 306.071C9.50427 304.7 8.57855 303.323 7.64893 301.94C7.47792 301.686 7.32141 301.425 7.17667 301.2C7.38327 300.531 15.8436 283.138 16.4967 282.02C16.7641 281.84 17.0818 281.885 17.3817 281.867C22.4822 281.518 27.5748 281.174 32.6598 280.834C34.1159 280.736 35.5708 280.639 37.0244 280.541C37.3019 280.522 37.5809 280.514 37.8852 280.502C38.478 281.224 49.3559 297.449 49.6466 298.027C49.432 298.689 40.6932 316.57 40.2454 317.247L18.9669 318.684C18.7574 318.415 18.55 318.153 18.3644 317.877L18.3629 317.875ZM94.6258 295.891L76.7899 332.382C76.6573 332.655 76.5159 332.914 76.3241 333.276C75.7636 332.64 65.4793 317.345 65.1395 316.642C71.2777 304.097 77.4294 291.519 83.5945 278.907C83.6729 278.769 83.7585 278.634 83.8509 278.505C83.9617 278.593 84.0664 278.69 84.1644 278.792C84.2871 278.947 84.3837 279.119 84.4933 279.282C87.8288 284.242 91.1648 289.204 94.5013 294.166C95.1159 295.094 95.1137 294.903 94.6272 295.893L94.6258 295.891ZM58.6594 240.921C58.8787 241.247 59.056 241.459 59.2095 241.688L81.95 275.509C82.3593 276.117 82.3622 276.122 82.0292 276.8C79.8368 281.286 77.6441 285.769 75.4511 290.251L63.4437 314.805C63.3126 315.08 63.1727 315.341 63.0298 315.598C62.2502 315.782 47.6821 316.833 43.5502 317.016C43.4173 317.02 43.2835 317 43.1193 316.99C43.1301 316.698 43.2248 316.415 43.3922 316.176C44.6039 313.677 45.8217 311.183 47.0455 308.694C48.228 306.274 49.4109 303.855 50.5944 301.437L61.9231 278.324C62.0708 278.022 62.2062 277.717 62.3625 277.381L49.839 258.755L58.3803 241.266C58.4655 241.145 58.5592 241.031 58.6609 240.923L58.6594 240.921ZM28.0275 261.517C28.0471 261.483 28.0698 261.451 28.0954 261.421C28.1133 261.401 28.1356 261.386 28.1606 261.377C28.3269 261.357 28.4939 261.333 28.6602 261.322C35.0368 260.886 41.4127 260.453 47.6804 260.033C47.8099 260.076 47.8354 260.08 47.8594 260.093C47.8834 260.109 47.905 260.128 47.9235 260.151C47.9849 260.242 48.0674 260.322 48.1287 260.414C51.9183 266.05 55.7079 271.686 59.4975 277.322C59.5384 277.392 59.5732 277.466 59.6016 277.542C59.4208 278.137 51.4563 294.484 50.9214 295.374C50.7443 295.43 50.6748 295.294 50.5959 295.186C50.4717 295.001 50.3445 294.812 50.2202 294.627C42.986 283.868 35.7527 273.11 28.5204 262.354C28.3181 262.103 28.1539 261.824 28.0333 261.526L28.0275 261.517ZM-17.4799 261.802L-8.84418 244.13L56.1627 239.733C56.2353 239.729 56.3103 239.779 56.3991 239.808C56.404 239.894 56.3948 239.98 56.3718 240.063C53.5105 245.93 50.65 251.802 47.8168 257.583L47.6625 257.687C47.6381 257.702 47.6113 257.711 47.5834 257.715C40.5984 258.203 33.6092 258.686 26.6159 259.164C11.965 260.154 -2.68552 261.14 -17.3355 262.125C-17.3628 262.121 -17.3893 262.114 -17.4141 262.102C-17.4403 262.091 -17.4614 262.074 -17.5007 262.053C-17.4924 261.962 -17.5116 261.868 -17.4799 261.802ZM-17.3666 264.567C-17.0794 264.449 -16.7685 264.4 -16.459 264.424C-13.0742 264.187 -9.68968 263.955 -6.30537 263.727L24.2347 261.656C25.3751 261.577 25.1771 261.489 25.791 262.402C29.1411 267.385 32.4913 272.367 35.8414 277.35C36.0465 277.575 36.1989 277.844 36.2877 278.136C36.0306 278.359 35.7354 278.286 35.4587 278.311C31.4366 278.589 27.4117 278.863 23.3838 279.132C13.8207 279.779 4.25708 280.422 -5.30704 281.061C-6.4474 281.14 -6.25217 281.271 -6.93402 280.261C-10.252 275.326 -13.5709 270.39 -16.8908 265.453C-17.1092 265.196 -17.2704 264.895 -17.3637 264.571L-17.3666 264.567ZM-6.13521 283.477L13.4072 282.153C13.5358 282.161 13.6633 282.181 13.7882 282.212C13.5458 283.026 13.1111 283.712 12.7638 284.445C12.4165 285.177 12.0547 285.906 11.695 286.634L10.6255 288.828L9.55445 291.019L8.48199 293.208L7.41098 295.399C7.05423 296.131 6.70182 296.86 6.33998 297.59C5.97813 298.319 5.60459 299.031 5.25005 299.772C4.89551 300.512 4.50911 301.28 4.13864 302.034C3.76817 302.788 3.42732 303.497 3.08215 304.219L2.00897 306.411L0.936506 308.6L-0.132325 310.79L-1.20333 312.981L-2.27433 315.172L-3.34533 317.363C-3.70137 318.092 -4.06322 318.821 -4.4178 319.552C-4.77238 320.283 -5.12261 321.011 -5.49086 321.773L6.9771 340.316C6.76903 340.983 -1.25619 357.428 -1.69739 358.119C-1.87444 358.175 -1.95122 358.046 -2.02722 357.933C-2.15293 357.746 -2.27717 357.562 -2.40434 357.372C-9.90265 346.221 -17.4015 335.068 -24.9007 323.914C-25.5439 322.958 -25.5713 323.194 -25.0452 322.118L-6.53749 284.269C-6.41497 284.019 -6.28371 283.773 -6.13228 283.482L-6.13521 283.477ZM-38.1475 304.105C-38.1287 304.044 -38.1056 303.984 -38.0784 303.926L-19.6047 266.144C-19.5646 266.079 -19.5167 266.02 -19.4622 265.966C-19.2589 265.931 -19.2111 266.091 -19.1366 266.193C-19 266.372 -18.8852 266.566 -18.7609 266.751L-8.22089 282.427C-14.4153 295.092 -20.6014 307.736 -26.7791 320.36C-26.8315 320.446 -26.8933 320.526 -26.9634 320.598C-27.0529 320.563 -27.1205 320.562 -27.1475 320.526C-27.7353 319.779 -37.8349 304.697 -38.1446 304.11L-38.1475 304.105Z" fill="#D7D8DD"/>
</g>
<g clip-path="url(#clip5_1666_1753)">
<path d="M-99.9287 427.574C-99.9096 427.595 -99.8878 427.613 -99.8638 427.628C-99.8401 427.642 -99.8149 427.652 -99.7889 427.66C-98.8312 427.676 -31.2693 423.061 -30.5963 422.921L-0.198053 360.748C-0.214877 360.664 -0.239279 360.583 -0.270949 360.503C-0.372365 360.334 -0.477643 360.168 -0.58678 360.006C-13.3344 341.046 -26.0873 322.092 -38.8456 303.142C-38.864 303.121 -38.8862 303.104 -38.9112 303.092C-38.9258 303.07 -38.9628 303.067 -39.04 303.027C-39.3451 303.043 -39.7134 303.063 -40.0736 303.091L-96.8814 306.949C-100.299 307.186 -103.712 307.419 -107.12 307.646C-108.279 307.73 -108.053 307.563 -108.603 308.665C-109.059 309.603 -109.51 310.538 -109.968 311.461C-119.395 330.73 -128.82 349.998 -138.24 369.266C-138.362 369.518 -138.474 369.773 -138.573 369.988C-138.557 370.061 -138.533 370.132 -138.5 370.199C-125.816 389.063 -113.136 407.932 -100.459 426.804C-100.297 427.064 -100.114 427.313 -99.9287 427.574ZM-23.7366 403.668C-25.4009 407.102 -27.0745 410.529 -28.7572 413.948L-31.7151 419.99C-31.7842 420.112 -31.8456 420.239 -31.8989 420.369C-31.9468 420.516 -32.0424 420.642 -32.1704 420.728C-32.2984 420.814 -32.4515 420.855 -32.6054 420.844C-33.9209 420.92 -35.2297 421.03 -36.5495 421.109L-96.3774 425.171C-96.7109 425.231 -97.0523 425.233 -97.3865 425.177C-97.3797 425.074 -97.3982 424.986 -97.3643 424.919C-94.5002 419.047 -91.6339 413.174 -88.7228 407.227C-66.9401 405.752 -45.1886 404.277 -23.4683 402.8C-23.4592 403.111 -23.5535 403.417 -23.7366 403.668ZM-95.1494 395.537C-96.806 393.074 -98.4659 390.605 -100.129 388.131C-100.299 387.879 -100.459 387.617 -100.643 387.324L-92.0644 369.788C-92.0181 369.706 -91.9644 369.629 -91.904 369.557C-91.6788 369.535 -91.6252 369.685 -91.5492 369.789C-91.4396 369.952 -91.33 370.115 -91.2204 370.278C-83.9725 381.058 -76.7241 391.838 -69.4752 402.619L-68.9476 403.403C-69.0998 403.506 -69.1533 403.567 -69.1889 403.566C-75.7013 404.018 -82.2055 404.466 -88.7014 404.911C-89.0611 404.733 -89.1917 404.407 -89.3758 404.134C-91.306 401.258 -93.2223 398.399 -95.1494 395.537ZM-28.1135 393.492L-24.0735 399.501C-23.9025 399.755 -23.7329 400.007 -23.5866 400.253C-23.7504 400.549 -24.0028 400.479 -24.2112 400.493C-25.9709 400.624 -27.7311 400.745 -29.4918 400.855C-41.4257 401.67 -53.3603 402.481 -65.2957 403.29C-65.5732 403.309 -65.8528 403.321 -66.1543 403.337C-66.3032 403.153 -66.4506 402.99 -66.5771 402.807C-70.0353 397.664 -73.4946 392.519 -76.9548 387.373C-77.0732 387.197 -77.1568 386.997 -77.2674 386.79C-77.1809 386.739 -77.0876 386.701 -76.9903 386.677C-62.902 385.721 -48.8355 384.767 -34.7908 383.815C-34.503 383.993 -34.2729 384.25 -34.1282 384.556C-32.118 387.533 -30.1131 390.512 -28.1135 393.492ZM-79.4608 383.65C-82.1064 379.716 -84.752 375.781 -87.3976 371.846C-88.3195 370.475 -89.2452 369.098 -90.1748 367.716C-90.3458 367.461 -90.5023 367.2 -90.6471 366.976C-90.4405 366.307 -81.9802 348.913 -81.327 347.795C-81.0597 347.616 -80.742 347.661 -80.442 347.642C-75.3416 347.294 -70.2489 346.949 -65.1639 346.609C-63.7078 346.512 -62.253 346.414 -60.7993 346.317C-60.5218 346.297 -60.2429 346.29 -59.9385 346.278C-59.3457 347 -48.4678 363.225 -48.1771 363.803C-48.3917 364.465 -57.1306 382.345 -57.5784 383.022L-78.8568 384.459C-79.0664 384.19 -79.2737 383.928 -79.4594 383.652L-79.4608 383.65ZM-3.19796 361.667L-21.0338 398.158C-21.1664 398.43 -21.3078 398.689 -21.4997 399.052C-22.0602 398.415 -32.3444 383.12 -32.6843 382.417C-26.546 369.872 -20.3943 357.294 -14.2292 344.683C-14.1508 344.544 -14.0652 344.41 -13.9729 344.28C-13.8621 344.369 -13.7573 344.465 -13.6593 344.568C-13.5367 344.722 -13.4401 344.894 -13.3305 345.057C-9.99495 350.018 -6.65895 354.979 -3.32247 359.941C-2.70778 360.87 -2.70999 360.679 -3.1965 361.669L-3.19796 361.667ZM-39.1643 306.696C-38.9451 307.022 -38.7677 307.235 -38.6142 307.463L-15.8737 341.284C-15.4644 341.893 -15.4615 341.897 -15.7945 342.575C-17.987 347.061 -20.1797 351.545 -22.3726 356.026L-34.38 380.581C-34.5112 380.855 -34.6511 381.117 -34.7939 381.374C-35.5735 381.557 -50.1416 382.608 -54.2735 382.792C-54.4064 382.796 -54.5402 382.775 -54.7044 382.766C-54.6936 382.474 -54.5989 382.191 -54.4316 381.951C-53.2199 379.453 -52.0021 376.959 -50.7782 374.469C-49.5957 372.049 -48.4128 369.63 -47.2293 367.212L-35.9007 344.099C-35.7529 343.798 -35.6175 343.492 -35.4612 343.156L-47.9847 324.531L-39.4434 307.042C-39.3583 306.921 -39.2645 306.806 -39.1629 306.699L-39.1643 306.696ZM-69.7963 327.293C-69.7766 327.259 -69.7539 327.226 -69.7284 327.196C-69.7105 327.177 -69.6881 327.162 -69.6631 327.153C-69.4968 327.132 -69.3298 327.108 -69.1635 327.098C-62.7869 326.661 -56.411 326.229 -50.1433 325.809C-50.0138 325.851 -49.9884 325.856 -49.9643 325.868C-49.9403 325.884 -49.9187 325.904 -49.9002 325.926C-49.8388 326.017 -49.7564 326.098 -49.695 326.189C-45.9054 331.825 -42.1158 337.461 -38.3262 343.097C-38.2854 343.168 -38.2506 343.241 -38.2222 343.318C-38.4029 343.913 -46.3675 360.259 -46.9023 361.149C-47.0794 361.205 -47.1489 361.069 -47.2278 360.961C-47.3521 360.776 -47.4792 360.587 -47.6035 360.402C-54.8377 349.643 -62.071 338.885 -69.3033 328.129C-69.5056 327.879 -69.6698 327.6 -69.7904 327.301L-69.7963 327.293ZM-115.304 327.577L-106.668 309.905L-41.661 305.509C-41.5884 305.504 -41.5134 305.555 -41.4246 305.584C-41.4197 305.669 -41.4289 305.756 -41.452 305.839C-44.3132 311.705 -47.1737 317.577 -50.0069 323.359L-50.1613 323.463C-50.1856 323.477 -50.2125 323.486 -50.2404 323.491C-57.2254 323.978 -64.2145 324.461 -71.2078 324.94C-85.8588 325.929 -100.509 326.916 -115.159 327.9C-115.186 327.897 -115.213 327.889 -115.238 327.877C-115.264 327.866 -115.285 327.849 -115.324 327.828C-115.316 327.737 -115.335 327.643 -115.304 327.577ZM-115.19 330.342C-114.903 330.224 -114.592 330.175 -114.283 330.199C-110.898 329.963 -107.513 329.73 -104.129 329.502L-73.589 327.431C-72.4487 327.352 -72.6466 327.265 -72.0327 328.178C-68.6826 333.16 -65.3325 338.143 -61.9823 343.125C-61.7772 343.351 -61.6248 343.619 -61.5361 343.911C-61.7931 344.134 -62.0884 344.061 -62.3651 344.086C-66.3871 344.364 -70.412 344.638 -74.4399 344.907C-84.003 345.554 -93.5666 346.197 -103.131 346.837C-104.271 346.915 -104.076 347.046 -104.758 346.037C-108.076 341.102 -111.395 336.166 -114.715 331.228C-114.933 330.971 -115.094 330.671 -115.187 330.347L-115.19 330.342ZM-103.959 349.253L-84.4165 347.928C-84.288 347.936 -84.1605 347.956 -84.0356 347.988C-84.2779 348.801 -84.7126 349.488 -85.0599 350.22C-85.4072 350.952 -85.7691 351.682 -86.1287 352.41L-87.1983 354.603L-88.2693 356.794L-89.3417 358.983L-90.4127 361.174C-90.7695 361.907 -91.1219 362.636 -91.4838 363.365C-91.8456 364.095 -92.2191 364.807 -92.5737 365.547C-92.9282 366.287 -93.3146 367.055 -93.6851 367.81C-94.0556 368.564 -94.3964 369.273 -94.7416 369.994L-95.8148 372.187L-96.8872 374.376L-97.9561 376.565L-99.0271 378.756L-100.098 380.947L-101.169 383.139C-101.525 383.867 -101.887 384.597 -102.242 385.328C-102.596 386.058 -102.946 386.786 -103.315 387.548L-90.8466 406.092C-91.0547 406.759 -99.0799 423.203 -99.5211 423.894C-99.6982 423.95 -99.775 423.822 -99.851 423.709C-99.9767 423.522 -100.101 423.337 -100.228 423.148C-107.726 411.996 -115.225 400.843 -122.724 389.69C-123.368 388.733 -123.395 388.97 -122.869 387.893L-104.361 350.044C-104.239 349.794 -104.107 349.548 -103.956 349.257L-103.959 349.253ZM-135.971 369.881C-135.952 369.819 -135.929 369.76 -135.902 369.702L-117.428 331.92C-117.388 331.855 -117.34 331.795 -117.286 331.742C-117.083 331.706 -117.035 331.867 -116.96 331.968C-116.824 332.148 -116.709 332.342 -116.585 332.527L-106.045 348.202C-112.239 360.867 -118.425 373.512 -124.603 386.136C-124.655 386.222 -124.717 386.301 -124.787 386.373C-124.877 386.339 -124.944 386.337 -124.971 386.301C-125.559 385.554 -135.659 370.472 -135.968 369.885L-135.971 369.881Z" fill="#D7D8DD"/>
</g>
<g clip-path="url(#clip6_1666_1753)">
<path d="M-108.313 309.471C-108.294 309.492 -108.273 309.51 -108.249 309.525C-108.225 309.538 -108.2 309.549 -108.174 309.557C-107.216 309.572 -39.654 304.958 -38.9811 304.818L-8.58282 242.644C-8.59964 242.561 -8.62404 242.479 -8.65571 242.4C-8.75713 242.23 -8.86241 242.064 -8.97155 241.902C-21.7192 222.943 -34.4721 203.989 -47.2303 185.039C-47.2487 185.018 -47.271 185.001 -47.2959 184.988C-47.3105 184.966 -47.3476 184.963 -47.4248 184.923C-47.7299 184.939 -48.0981 184.959 -48.4584 184.987L-105.266 188.845C-108.684 189.083 -112.097 189.315 -115.505 189.542C-116.663 189.627 -116.438 189.46 -116.988 190.562C-117.443 191.499 -117.895 192.434 -118.353 193.358C-127.78 212.626 -137.204 231.894 -146.625 251.163C-146.746 251.414 -146.859 251.67 -146.957 251.885C-146.942 251.957 -146.917 252.028 -146.885 252.095C-134.201 270.96 -121.521 289.828 -108.844 308.7C-108.682 308.961 -108.498 309.21 -108.313 309.471ZM-32.1214 285.565C-33.7857 288.999 -35.4592 292.425 -37.142 295.844L-40.0999 301.886C-40.169 302.009 -40.2303 302.135 -40.2837 302.265C-40.3316 302.412 -40.4271 302.538 -40.5551 302.625C-40.6832 302.711 -40.8363 302.751 -40.9902 302.74C-42.3056 302.817 -43.6144 302.927 -44.9342 303.006L-104.762 307.067C-105.096 307.127 -105.437 307.129 -105.771 307.073C-105.764 306.971 -105.783 306.882 -105.749 306.815C-102.885 300.944 -100.019 295.071 -97.1076 289.123C-75.3249 287.649 -53.5734 286.173 -31.8531 284.696C-31.844 285.008 -31.9383 285.313 -32.1214 285.565ZM-103.534 277.434C-105.191 274.97 -106.851 272.501 -108.514 270.027C-108.684 269.775 -108.844 269.514 -109.028 269.221L-100.449 251.685C-100.403 251.603 -100.349 251.526 -100.289 251.454C-100.064 251.432 -100.01 251.582 -99.934 251.685C-99.8244 251.848 -99.7148 252.012 -99.6051 252.175C-92.3572 262.954 -85.1089 273.734 -77.86 284.515L-77.3324 285.3C-77.4845 285.402 -77.538 285.463 -77.5736 285.462C-84.0861 285.914 -90.5902 286.363 -97.0862 286.808C-97.4458 286.63 -97.5764 286.304 -97.7606 286.03C-99.6907 283.155 -101.607 280.295 -103.534 277.434ZM-36.4983 275.389L-32.4582 281.397C-32.2872 281.652 -32.1177 281.904 -31.9714 282.149C-32.1352 282.446 -32.3875 282.376 -32.596 282.39C-34.3557 282.52 -36.1159 282.641 -37.8766 282.752C-49.8105 283.566 -61.7451 284.378 -73.6805 285.187C-73.9579 285.206 -74.2376 285.217 -74.5391 285.234C-74.688 285.05 -74.8354 284.887 -74.9618 284.704C-78.4201 279.56 -81.8794 274.415 -85.3396 269.269C-85.458 269.093 -85.5416 268.894 -85.6521 268.687C-85.5657 268.636 -85.4724 268.598 -85.375 268.573C-71.2868 267.617 -57.2203 266.663 -43.1756 265.711C-42.8878 265.889 -42.6576 266.147 -42.513 266.453C-40.5027 269.43 -38.4978 272.409 -36.4983 275.389ZM-87.8456 265.547C-90.4912 261.612 -93.1368 257.677 -95.7824 253.743C-96.7042 252.372 -97.6299 250.995 -98.5596 249.612C-98.7306 249.358 -98.8871 249.097 -99.0318 248.872C-98.8252 248.203 -90.3649 230.81 -89.7118 229.692C-89.4444 229.512 -89.1267 229.557 -88.8268 229.539C-83.7263 229.19 -78.6337 228.846 -73.5487 228.506C-72.0926 228.408 -70.6377 228.311 -69.1841 228.213C-68.9066 228.194 -68.6276 228.186 -68.3233 228.174C-67.7305 228.896 -56.8526 245.121 -56.5619 245.699C-56.7765 246.361 -65.5153 264.242 -65.9631 264.918L-87.2416 266.356C-87.4511 266.086 -87.6585 265.825 -87.8441 265.549L-87.8456 265.547ZM-11.5827 243.563L-29.4186 280.054C-29.5512 280.326 -29.6926 280.586 -29.8844 280.948C-30.4449 280.312 -40.7292 265.017 -41.069 264.314C-34.9308 251.769 -28.7791 239.191 -22.614 226.579C-22.5356 226.441 -22.45 226.306 -22.3576 226.176C-22.2468 226.265 -22.1421 226.362 -22.0441 226.464C-21.9214 226.619 -21.8248 226.79 -21.7152 226.953C-18.3797 231.914 -15.0437 236.876 -11.7072 241.838C-11.0926 242.766 -11.0948 242.575 -11.5813 243.565L-11.5827 243.563ZM-47.5491 188.593C-47.3298 188.919 -47.1525 189.131 -46.999 189.359L-24.2585 223.18C-23.8492 223.789 -23.8463 223.793 -24.1793 224.472C-26.3717 228.957 -28.5644 233.441 -30.7574 237.923L-42.7648 262.477C-42.8959 262.752 -43.0358 263.013 -43.1787 263.27C-43.9583 263.453 -58.5264 264.505 -62.6583 264.688C-62.7912 264.692 -62.925 264.672 -63.0892 264.662C-63.0784 264.37 -62.9837 264.087 -62.8163 263.847C-61.6046 261.349 -60.3868 258.855 -59.163 256.366C-57.9805 253.946 -56.7976 251.527 -55.6141 249.109L-44.2854 225.996C-44.1377 225.694 -44.0023 225.388 -43.846 225.053L-56.3695 206.427L-47.8282 188.938C-47.743 188.817 -47.6493 188.703 -47.5476 188.595L-47.5491 188.593ZM-78.181 209.189C-78.1614 209.155 -78.1387 209.123 -78.1131 209.093C-78.0952 209.073 -78.0729 209.058 -78.0479 209.049C-77.8816 209.029 -77.7146 209.005 -77.5483 208.994C-71.1717 208.558 -64.7958 208.125 -58.5281 207.705C-58.3986 207.747 -58.3731 207.752 -58.3491 207.765C-58.3251 207.781 -58.3035 207.8 -58.2849 207.822C-58.2236 207.914 -58.1411 207.994 -58.0798 208.085C-54.2902 213.722 -50.5006 219.358 -46.711 224.994C-46.6701 225.064 -46.6353 225.138 -46.6069 225.214C-46.7877 225.809 -54.7522 242.156 -55.2871 243.046C-55.4642 243.102 -55.5337 242.965 -55.6126 242.858C-55.7368 242.673 -55.864 242.484 -55.9882 242.299C-63.2225 231.54 -70.4558 220.782 -77.6881 210.026C-77.8904 209.775 -78.0546 209.496 -78.1752 209.198L-78.181 209.189ZM-123.688 209.474L-115.053 191.802L-50.0458 187.405C-49.9732 187.401 -49.8982 187.451 -49.8094 187.48C-49.8045 187.566 -49.8137 187.652 -49.8367 187.735C-52.698 193.602 -55.5585 199.474 -58.3917 205.255L-58.546 205.359C-58.5704 205.373 -58.5972 205.383 -58.6251 205.387C-65.6101 205.875 -72.5993 206.358 -79.5925 206.836C-94.2435 207.826 -108.894 208.812 -123.544 209.797C-123.571 209.793 -123.598 209.785 -123.623 209.774C-123.649 209.763 -123.67 209.746 -123.709 209.725C-123.701 209.634 -123.72 209.539 -123.688 209.474ZM-123.575 212.239C-123.288 212.121 -122.977 212.072 -122.667 212.096C-119.283 211.859 -115.898 211.627 -112.514 211.399L-81.9738 209.328C-80.8334 209.249 -81.0314 209.161 -80.4175 210.074C-77.0674 215.057 -73.7172 220.039 -70.3671 225.022C-70.162 225.247 -70.0096 225.516 -69.9208 225.807C-70.1779 226.031 -70.4731 225.958 -70.7498 225.983C-74.7719 226.261 -78.7968 226.534 -82.8247 226.804C-92.3878 227.451 -101.951 228.094 -111.516 228.733C-112.656 228.812 -112.461 228.942 -113.143 227.933C-116.46 222.998 -119.779 218.062 -123.099 213.125C-123.318 212.868 -123.479 212.567 -123.572 212.243L-123.575 212.239ZM-112.344 231.149L-92.8013 229.825C-92.6727 229.833 -92.5452 229.853 -92.4203 229.884C-92.6627 230.697 -93.0974 231.384 -93.4447 232.117C-93.792 232.849 -94.1538 233.578 -94.5135 234.306L-95.583 236.499L-96.654 238.691L-97.7265 240.88L-98.7975 243.071C-99.1543 243.803 -99.5067 244.532 -99.8685 245.262C-100.23 245.991 -100.604 246.703 -100.958 247.444C-101.313 248.184 -101.699 248.952 -102.07 249.706C-102.44 250.46 -102.781 251.169 -103.126 251.891L-104.2 254.083L-105.272 256.272L-106.341 258.462L-107.412 260.653L-108.483 262.844L-109.554 265.035C-109.91 265.764 -110.272 266.493 -110.626 267.224C-110.981 267.955 -111.331 268.683 -111.699 269.445L-99.2314 287.988C-99.4395 288.655 -107.465 305.099 -107.906 305.791C-108.083 305.847 -108.16 305.718 -108.236 305.605C-108.361 305.418 -108.486 305.233 -108.613 305.044C-116.111 293.892 -123.61 282.74 -131.109 271.586C-131.752 270.63 -131.78 270.866 -131.254 269.789L-112.746 231.941C-112.623 231.691 -112.492 231.445 -112.341 231.154L-112.344 231.149ZM-144.356 251.777C-144.337 251.716 -144.314 251.656 -144.287 251.598L-125.813 213.816C-125.773 213.751 -125.725 213.692 -125.671 213.638C-125.467 213.603 -125.42 213.763 -125.345 213.864C-125.209 214.044 -125.094 214.238 -124.969 214.423L-114.429 230.099C-120.624 242.764 -126.81 255.408 -132.988 268.032C-133.04 268.118 -133.102 268.198 -133.172 268.27C-133.261 268.235 -133.329 268.233 -133.356 268.198C-133.944 267.45 -144.043 252.369 -144.353 251.781L-144.356 251.777Z" fill="#D7D8DD"/>
</g>
<g clip-path="url(#clip7_1666_1753)">
<path d="M-17.9297 125.59C-17.9106 125.611 -17.8888 125.629 -17.8648 125.644C-17.841 125.657 -17.8159 125.668 -17.7899 125.676C-16.8322 125.692 50.7298 121.077 51.4027 120.937L81.801 58.7636C81.7841 58.68 81.7597 58.5982 81.7281 58.519C81.6267 58.3494 81.5214 58.1835 81.4122 58.0211C68.6646 39.0621 55.9117 20.1077 43.1534 1.15796C43.1351 1.13699 43.1128 1.11981 43.0879 1.10736C43.0732 1.08562 43.0362 1.08214 42.959 1.04248C42.6539 1.05821 42.2856 1.07856 41.9254 1.10613L-14.8824 4.96432C-18.3001 5.20206 -21.7129 5.43445 -25.121 5.66149C-26.2795 5.74598 -26.0542 5.57872 -26.6042 6.68087C-27.0597 7.61846 -27.5108 8.55313 -27.9692 9.47692C-37.3965 28.7452 -46.8205 48.0135 -56.2414 67.2818C-56.3625 67.5336 -56.4748 67.7891 -56.5735 68.0038C-56.5578 68.0765 -56.5337 68.1472 -56.5015 68.2142C-43.8172 87.079 -31.1368 105.948 -18.4602 124.82C-18.2979 125.08 -18.1145 125.329 -17.9297 125.59ZM58.2624 101.684C56.5981 105.118 54.9246 108.544 53.2418 111.963L50.2839 118.005C50.2148 118.128 50.1534 118.254 50.1001 118.385C50.0522 118.531 49.9567 118.658 49.8286 118.744C49.7006 118.83 49.5475 118.871 49.3936 118.86C48.0782 118.936 46.7694 119.046 45.4495 119.125L-14.3784 123.186C-14.7119 123.246 -15.0533 123.248 -15.3875 123.192C-15.3807 123.09 -15.3992 123.001 -15.3653 122.934C-12.5012 117.063 -9.63486 111.19 -6.72381 105.242C15.0589 103.768 36.8104 102.292 58.5307 100.815C58.5398 101.127 58.4455 101.432 58.2624 101.684ZM-13.1504 93.5529C-14.807 91.0892 -16.4669 88.6204 -18.1303 86.1466C-18.2998 85.8944 -18.46 85.6328 -18.6442 85.34L-10.0653 67.8037C-10.019 67.722 -9.96535 67.6447 -9.90495 67.5727C-9.67981 67.5508 -9.62618 67.701 -9.55021 67.8046C-9.44058 67.9676 -9.33096 68.1307 -9.22133 68.2937C-1.97345 79.0732 5.27492 89.8534 12.5238 100.634L13.0514 101.419C12.8993 101.521 12.8457 101.583 12.8101 101.581C6.29773 102.033 -0.206461 102.482 -6.70242 102.927C-7.06204 102.749 -7.19265 102.423 -7.37682 102.149C-9.30696 99.2739 -11.2232 96.4145 -13.1504 93.5529ZM53.8855 91.5078L57.9255 97.5164C58.0966 97.7707 58.2661 98.0229 58.4124 98.2686C58.2486 98.565 57.9962 98.4948 57.7878 98.5087C56.0281 98.6396 54.2679 98.7604 52.5072 98.871C40.5733 99.6853 28.6387 100.497 16.7033 101.306C16.4259 101.325 16.1462 101.336 15.8447 101.353C15.6958 101.169 15.5484 101.006 15.422 100.823C11.9637 95.6793 8.50442 90.5345 5.04419 85.3882C4.92579 85.2121 4.84219 85.0127 4.73166 84.806C4.81811 84.7551 4.91142 84.7168 5.00875 84.6923C19.097 83.7363 33.1635 82.7824 47.2082 81.8304C47.496 82.0084 47.7262 82.2659 47.8708 82.5718C49.881 85.549 51.8859 88.5277 53.8855 91.5078ZM2.5382 81.6659C-0.107408 77.7312 -2.75301 73.7965 -5.39862 69.8618C-6.32044 68.4908 -7.24616 67.114 -8.17577 65.7314C-8.34679 65.4771 -8.5033 65.2161 -8.64804 64.9915C-8.44144 64.3222 0.0188685 46.9288 0.67198 45.811C0.939366 45.6312 1.25705 45.6765 1.55703 45.6579C6.65745 45.3094 11.7501 44.965 16.8351 44.6248C18.2912 44.5275 19.7461 44.43 21.1997 44.3322C21.4772 44.3129 21.7562 44.3053 22.0605 44.2932C22.6533 45.0152 33.5312 61.2404 33.8219 61.8183C33.6073 62.4803 24.8685 80.3608 24.4207 81.0376L3.14224 82.475C2.93265 82.2056 2.72529 81.9441 2.53965 81.668L2.5382 81.6659ZM78.8011 59.6821L60.9652 96.1734C60.8326 96.4456 60.6912 96.7048 60.4994 97.0674C59.9389 96.431 49.6546 81.1357 49.3147 80.433C55.453 67.888 61.6047 55.3098 67.7698 42.6984C67.8482 42.5598 67.9338 42.4253 68.0261 42.2956C68.137 42.3845 68.2417 42.4807 68.3397 42.5835C68.4624 42.7378 68.5589 42.9096 68.6686 43.0726C72.0041 48.0334 75.3401 52.9949 78.6766 57.9571C79.2912 58.8854 79.289 58.6943 78.8025 59.6843L78.8011 59.6821ZM42.8347 4.71201C43.054 5.03809 43.2313 5.25027 43.3848 5.47852L66.1253 39.2995C66.5346 39.9082 66.5375 39.9126 66.2045 40.591C64.0121 45.0766 61.8194 49.5603 59.6264 54.042L47.619 78.5964C47.4879 78.8709 47.3479 79.1322 47.2051 79.3893C46.4255 79.5725 31.8574 80.6239 27.7255 80.8073C27.5926 80.8114 27.4588 80.7909 27.2946 80.7814C27.3054 80.4892 27.4001 80.2063 27.5675 79.9666C28.7792 77.4683 29.9969 74.9744 31.2208 72.4848C32.4033 70.0651 33.5862 67.6461 34.7697 65.2278L46.0984 42.1147C46.2461 41.8133 46.3815 41.5076 46.5378 41.1721L34.0143 22.5464L42.5556 5.0575C42.6408 4.93646 42.7345 4.82172 42.8362 4.71419L42.8347 4.71201ZM12.2027 25.3083C12.2224 25.2742 12.2451 25.242 12.2707 25.2121C12.2886 25.1924 12.3109 25.1774 12.3359 25.1682C12.5022 25.148 12.6692 25.1241 12.8355 25.1132C19.2121 24.6769 25.588 24.2441 31.8557 23.8242C31.9852 23.8665 32.0107 23.8715 32.0347 23.8838C32.0587 23.8999 32.0803 23.9194 32.0988 23.9416C32.1602 24.0329 32.2427 24.1133 32.304 24.2046C36.0936 29.8407 39.8832 35.4768 43.6728 41.1129C43.7137 41.1833 43.7485 41.2571 43.7769 41.3334C43.5961 41.9284 35.6316 58.2751 35.0967 59.165C34.9196 59.2209 34.8501 59.0846 34.7712 58.9767C34.6469 58.7919 34.5198 58.6028 34.3955 58.418C27.1613 47.6588 19.928 36.901 12.6957 26.1448C12.4934 25.8944 12.3292 25.6154 12.2086 25.317L12.2027 25.3083ZM-33.3046 25.5931L-24.6689 7.92071L40.338 3.52451C40.4106 3.51986 40.4856 3.57042 40.5744 3.59914C40.5793 3.6851 40.5701 3.77129 40.5471 3.85426C37.6858 9.72076 34.8253 15.5931 31.9921 21.3745L31.8377 21.4782C31.8134 21.4925 31.7866 21.502 31.7587 21.5062C24.7737 21.9938 17.7845 22.4769 10.7912 22.9555C-3.85973 23.9447 -18.5102 24.9315 -33.1602 25.9158C-33.1875 25.9123 -33.214 25.9046 -33.2388 25.8929C-33.265 25.8821 -33.2861 25.8647 -33.3255 25.8438C-33.3171 25.7529 -33.3364 25.6586 -33.3046 25.5931ZM-33.1913 28.3578C-32.9041 28.2399 -32.5932 28.1909 -32.2837 28.2148C-28.8989 27.9781 -25.5144 27.7459 -22.1301 27.5179L8.41001 25.4467C9.55037 25.3681 9.3524 25.2803 9.9663 26.1933C13.3164 31.1758 16.6666 36.1583 20.0167 41.1408C20.2218 41.3665 20.3742 41.6349 20.463 41.9266C20.2059 42.1499 19.9107 42.077 19.634 42.1021C15.6119 42.38 11.587 42.6535 7.55912 42.9227C-2.004 43.5698 -11.5676 44.2129 -21.1317 44.8522C-22.2721 44.9308 -22.0769 45.0616 -22.7587 44.0522C-26.0767 39.1175 -29.3956 34.1814 -32.7156 29.2438C-32.9339 28.9868 -33.0951 28.6863 -33.1884 28.3622L-33.1913 28.3578ZM-21.9599 47.2683L-2.41748 45.9438C-2.28896 45.9521 -2.16145 45.972 -2.03654 46.0033C-2.2789 46.8166 -2.71358 47.5034 -3.06088 48.2357C-3.40819 48.968 -3.77003 49.6974 -4.12971 50.4253L-5.19925 52.6186L-6.27026 54.8098L-7.34272 56.9987L-8.41372 59.1898C-8.77048 59.9221 -9.12288 60.6515 -9.48473 61.3809C-9.84658 62.1104 -10.2201 62.8224 -10.5747 63.5627C-10.9292 64.303 -11.3156 65.071 -11.6861 65.8252C-12.0565 66.5793 -12.3974 67.2883 -12.7426 68.0097L-13.8157 70.2023L-14.8882 72.3912L-15.957 74.5809L-17.028 76.772L-18.099 78.9631L-19.17 81.1542C-19.5261 81.8829 -19.8879 82.6123 -20.2425 83.3432C-20.5971 84.074 -20.9473 84.802 -21.3156 85.5641L-8.84761 104.107C-9.05567 104.774 -17.0809 121.219 -17.5221 121.91C-17.6991 121.966 -17.7759 121.837 -17.8519 121.724C-17.9776 121.537 -18.1019 121.353 -18.229 121.163C-25.7274 110.012 -33.2262 98.8589 -40.7255 87.7055C-41.3686 86.749 -41.396 86.9852 -40.8699 85.9086L-22.3622 48.0597C-22.2397 47.81 -22.1084 47.5639 -21.957 47.2727L-21.9599 47.2683ZM-53.9722 67.8962C-53.9534 67.835 -53.9304 67.7752 -53.9031 67.7172L-35.4294 29.9353C-35.3893 29.8704 -35.3414 29.8107 -35.2869 29.7574C-35.0836 29.7218 -35.0358 29.8821 -34.9613 29.9836C-34.8247 30.1632 -34.7099 30.3575 -34.5856 30.5422L-24.0456 46.218C-30.2401 58.8828 -36.4261 71.5273 -42.6038 84.1514C-42.6562 84.2372 -42.718 84.3169 -42.7881 84.389C-42.8776 84.3544 -42.9452 84.3525 -42.9722 84.317C-43.56 83.5696 -53.6596 68.4878 -53.9693 67.9005L-53.9722 67.8962Z" fill="#D7D8DD"/>
</g>
<g clip-path="url(#clip8_1666_1753)">
<path d="M-115.754 191.364C-115.735 191.385 -115.713 191.403 -115.69 191.418C-115.666 191.432 -115.641 191.442 -115.615 191.45C-114.657 191.466 -47.0949 186.851 -46.422 186.711L-16.0237 124.538C-16.0406 124.454 -16.065 124.373 -16.0966 124.293C-16.198 124.124 -16.3033 123.958 -16.4125 123.796C-29.1601 104.837 -41.913 85.8821 -54.6713 66.9324C-54.6896 66.9114 -54.7119 66.8942 -54.7368 66.8818C-54.7515 66.86 -54.7885 66.8566 -54.8657 66.8169C-55.1708 66.8326 -55.5391 66.853 -55.8993 66.8805L-112.707 70.7387C-116.125 70.9765 -119.538 71.2089 -122.946 71.4359C-124.104 71.5204 -123.879 71.3531 -124.429 72.4553C-124.884 73.3929 -125.336 74.3275 -125.794 75.2513C-135.221 94.5196 -144.645 113.788 -154.066 133.056C-154.187 133.308 -154.3 133.564 -154.398 133.778C-154.383 133.851 -154.358 133.922 -154.326 133.989C-141.642 152.853 -128.961 171.722 -116.285 190.594C-116.123 190.854 -115.939 191.103 -115.754 191.364ZM-39.5623 167.458C-41.2266 170.892 -42.9001 174.319 -44.5829 177.738L-47.5408 183.78C-47.6099 183.902 -47.6713 184.029 -47.7246 184.159C-47.7725 184.306 -47.868 184.432 -47.9961 184.518C-48.1241 184.604 -48.2772 184.645 -48.4311 184.634C-49.7466 184.71 -51.0553 184.82 -52.3752 184.899L-112.203 188.961C-112.537 189.021 -112.878 189.023 -113.212 188.967C-113.205 188.864 -113.224 188.776 -113.19 188.709C-110.326 182.837 -107.46 176.964 -104.549 171.017C-82.7658 169.542 -61.0143 168.067 -39.294 166.59C-39.2849 166.901 -39.3792 167.207 -39.5623 167.458ZM-110.975 159.327C-112.632 156.864 -114.292 154.395 -115.955 151.921C-116.125 151.669 -116.285 151.407 -116.469 151.114L-107.89 133.578C-107.844 133.496 -107.79 133.419 -107.73 133.347C-107.505 133.325 -107.451 133.475 -107.375 133.579C-107.265 133.742 -107.156 133.905 -107.046 134.068C-99.7982 144.848 -92.5498 155.628 -85.3009 166.409L-84.7733 167.193C-84.9254 167.296 -84.979 167.357 -85.0146 167.356C-91.527 167.808 -98.0312 168.256 -104.527 168.701C-104.887 168.523 -105.017 168.197 -105.202 167.924C-107.132 165.048 -109.048 162.189 -110.975 159.327ZM-43.9392 157.282L-39.8992 163.291C-39.7282 163.545 -39.5586 163.797 -39.4123 164.043C-39.5761 164.339 -39.8285 164.269 -40.0369 164.283C-41.7966 164.414 -43.5568 164.535 -45.3175 164.645C-57.2514 165.46 -69.186 166.271 -81.1214 167.08C-81.3988 167.1 -81.6785 167.111 -81.98 167.127C-82.1289 166.943 -82.2763 166.78 -82.4027 166.597C-85.861 161.454 -89.3203 156.309 -92.7805 151.163C-92.8989 150.987 -92.9825 150.787 -93.093 150.58C-93.0066 150.529 -92.9133 150.491 -92.816 150.467C-78.7277 149.511 -64.6612 148.557 -50.6165 147.605C-50.3287 147.783 -50.0985 148.04 -49.9539 148.346C-47.9437 151.323 -45.9388 154.302 -43.9392 157.282ZM-95.2865 147.44C-97.9321 143.506 -100.578 139.571 -103.223 135.636C-104.145 134.265 -105.071 132.888 -106 131.506C-106.171 131.251 -106.328 130.991 -106.473 130.766C-106.266 130.097 -97.8058 112.703 -97.1527 111.585C-96.8853 111.406 -96.5677 111.451 -96.2677 111.432C-91.1673 111.084 -86.0746 110.739 -80.9896 110.399C-79.5335 110.302 -78.0787 110.204 -76.625 110.107C-76.3475 110.087 -76.0686 110.08 -75.7642 110.068C-75.1714 110.79 -64.2935 127.015 -64.0028 127.593C-64.2174 128.255 -72.9563 146.135 -73.404 146.812L-94.6825 148.249C-94.8921 147.98 -95.0994 147.719 -95.2851 147.442L-95.2865 147.44ZM-19.0236 125.457L-36.8595 161.948C-36.9921 162.22 -37.1335 162.479 -37.3253 162.842C-37.8858 162.205 -48.1701 146.91 -48.51 146.207C-42.3717 133.662 -36.22 121.084 -30.0549 108.473C-29.9765 108.334 -29.8909 108.2 -29.7986 108.07C-29.6877 108.159 -29.583 108.255 -29.485 108.358C-29.3623 108.512 -29.2658 108.684 -29.1561 108.847C-25.8206 113.808 -22.4846 118.769 -19.1482 123.732C-18.5335 124.66 -18.5357 124.469 -19.0222 125.459L-19.0236 125.457ZM-54.99 70.4864C-54.7708 70.8125 -54.5934 71.0247 -54.4399 71.2529L-31.6994 105.074C-31.2901 105.683 -31.2872 105.687 -31.6202 106.365C-33.8126 110.851 -36.0053 115.335 -38.1983 119.816L-50.2057 144.371C-50.3368 144.645 -50.4768 144.907 -50.6196 145.164C-51.3992 145.347 -65.9673 146.398 -70.0992 146.582C-70.2321 146.586 -70.3659 146.565 -70.5301 146.556C-70.5193 146.264 -70.4246 145.981 -70.2573 145.741C-69.0455 143.243 -67.8278 140.749 -66.6039 138.259C-65.4214 135.839 -64.2385 133.421 -63.055 131.002L-51.7264 107.889C-51.5786 107.588 -51.4432 107.282 -51.2869 106.946L-63.8104 88.3208L-55.2691 70.8319C-55.184 70.7109 -55.0902 70.5961 -54.9885 70.4886L-54.99 70.4864ZM-85.622 91.0827C-85.6023 91.0486 -85.5796 91.0164 -85.554 90.9865C-85.5361 90.9669 -85.5138 90.9518 -85.4888 90.9427C-85.3225 90.9224 -85.1555 90.8985 -84.9892 90.8876C-78.6126 90.4513 -72.2367 90.0185 -65.969 89.5986C-65.8395 89.6409 -65.8141 89.6459 -65.79 89.6582C-65.766 89.6743 -65.7444 89.6938 -65.7259 89.716C-65.6645 89.8074 -65.5821 89.8877 -65.5207 89.979C-61.7311 95.6151 -57.9415 101.251 -54.1519 106.887C-54.111 106.958 -54.0762 107.031 -54.0478 107.108C-54.2286 107.703 -62.1932 124.049 -62.728 124.939C-62.9051 124.995 -62.9746 124.859 -63.0535 124.751C-63.1778 124.566 -63.3049 124.377 -63.4292 124.192C-70.6634 113.433 -77.8967 102.675 -85.129 91.9192C-85.3313 91.6688 -85.4955 91.3898 -85.6161 91.0914L-85.622 91.0827ZM-131.129 91.3675L-122.494 73.6951L-57.4867 69.2989C-57.4141 69.2943 -57.3391 69.3448 -57.2503 69.3735C-57.2454 69.4595 -57.2546 69.5457 -57.2776 69.6287C-60.1389 75.4952 -62.9994 81.3675 -65.8326 87.1489L-65.987 87.2526C-66.0113 87.2669 -66.0381 87.2764 -66.066 87.2806C-73.0511 87.7683 -80.0402 88.2514 -87.0335 88.7299C-101.684 89.7191 -116.335 90.7059 -130.985 91.6902C-131.012 91.6867 -131.039 91.679 -131.064 91.6673C-131.09 91.6565 -131.111 91.6391 -131.15 91.6182C-131.142 91.5274 -131.161 91.433 -131.129 91.3675ZM-131.016 94.1322C-130.729 94.0143 -130.418 93.9654 -130.108 93.9892C-126.724 93.7525 -123.339 93.5203 -119.955 93.2923L-89.4147 91.2211C-88.2743 91.1425 -88.4723 91.0547 -87.8584 91.9677C-84.5083 96.9502 -81.1582 101.933 -77.808 106.915C-77.6029 107.141 -77.4505 107.409 -77.3617 107.701C-77.6188 107.924 -77.914 107.851 -78.1908 107.876C-82.2128 108.154 -86.2377 108.428 -90.2656 108.697C-99.8287 109.344 -109.392 109.987 -118.956 110.627C-120.097 110.705 -119.902 110.836 -120.583 109.827C-123.901 104.892 -127.22 99.9558 -130.54 95.0182C-130.759 94.7612 -130.92 94.4607 -131.013 94.1366L-131.016 94.1322ZM-119.785 113.043L-100.242 111.718C-100.114 111.726 -99.9862 111.746 -99.8612 111.778C-100.104 112.591 -100.538 113.278 -100.886 114.01C-101.233 114.742 -101.595 115.472 -101.954 116.2L-103.024 118.393L-104.095 120.584L-105.167 122.773L-106.238 124.964C-106.595 125.697 -106.948 126.426 -107.309 127.155C-107.671 127.885 -108.045 128.597 -108.399 129.337C-108.754 130.077 -109.14 130.845 -109.511 131.6C-109.881 132.354 -110.222 133.063 -110.567 133.784L-111.64 135.977L-112.713 138.166L-113.782 140.355L-114.853 142.546L-115.924 144.738L-116.995 146.929C-117.351 147.657 -117.713 148.387 -118.067 149.118C-118.422 149.848 -118.772 150.576 -119.14 151.339L-106.672 169.882C-106.88 170.549 -114.906 186.993 -115.347 187.684C-115.524 187.74 -115.601 187.612 -115.677 187.499C-115.802 187.312 -115.927 187.127 -116.054 186.938C-123.552 175.786 -131.051 164.633 -138.55 153.48C-139.193 152.523 -139.221 152.76 -138.695 151.683L-120.187 113.834C-120.064 113.584 -119.933 113.338 -119.782 113.047L-119.785 113.043ZM-151.797 133.671C-151.778 133.609 -151.755 133.55 -151.728 133.492L-133.254 95.7097C-133.214 95.6449 -133.166 95.5851 -133.112 95.5319C-132.908 95.4962 -132.86 95.6565 -132.786 95.758C-132.649 95.9376 -132.535 96.1319 -132.41 96.3167L-121.87 111.992C-128.065 124.657 -134.251 137.302 -140.428 149.926C-140.481 150.012 -140.543 150.091 -140.613 150.163C-140.702 150.129 -140.77 150.127 -140.797 150.091C-141.385 149.344 -151.484 134.262 -151.794 133.675L-151.797 133.671Z" fill="#D7D8DD"/>
</g>
</g>
<defs>
<clipPath id="clip0_1666_1753">
<rect width="197" height="363" fill="white"/>
</clipPath>
<clipPath id="clip1_1666_1753">
<rect width="120.162" height="138.785" fill="white" transform="translate(215.935 258.093) rotate(146.084)"/>
</clipPath>
<clipPath id="clip2_1666_1753">
<rect width="120.162" height="138.785" fill="white" transform="translate(207.55 139.989) rotate(146.084)"/>
</clipPath>
<clipPath id="clip3_1666_1753">
<rect width="120.162" height="138.785" fill="white" transform="translate(109.727 205.765) rotate(146.084)"/>
</clipPath>
<clipPath id="clip4_1666_1753">
<rect width="120.162" height="138.785" fill="white" transform="translate(117.021 323.653) rotate(146.084)"/>
</clipPath>
<clipPath id="clip5_1666_1753">
<rect width="120.162" height="138.785" fill="white" transform="translate(19.1968 389.429) rotate(146.084)"/>
</clipPath>
<clipPath id="clip6_1666_1753">
<rect width="120.162" height="138.785" fill="white" transform="translate(10.812 271.325) rotate(146.084)"/>
</clipPath>
<clipPath id="clip7_1666_1753">
<rect width="120.162" height="138.785" fill="white" transform="translate(101.196 87.4443) rotate(146.084)"/>
</clipPath>
<clipPath id="clip8_1666_1753">
<rect width="120.162" height="138.785" fill="white" transform="translate(3.37109 153.219) rotate(146.084)"/>
</clipPath>
</defs>
</svg>
