<svg width="75" height="75" viewBox="0 0 75 75" fill="none" xmlns="http://www.w3.org/2000/svg">
<circle cx="37.5" cy="37.5" r="37.5" fill="#293F52"/>
<path d="M46.875 34.375C46.875 32.8125 45.3125 31.25 42.1875 31.25C41.7153 31.25 41.1797 31.25 40.6253 31.25C38.0366 31.25 35.9375 29.1513 35.9375 26.5625V21.875" stroke="white" stroke-width="2.34375" stroke-linecap="round" stroke-linejoin="round"/>
<path d="M46.875 51.5625H51.5625V37.5H46.875V44.5312M46.875 51.5625V44.5312M46.875 51.5625H23.4375V45.3125L28.9062 40.625L35.1562 44.5312L41.4062 40.625L46.875 44.5312" stroke="white" stroke-width="2.34375" stroke-linecap="round" stroke-linejoin="round"/>
<path d="M51.5625 34.375C51.5625 25 45.3125 25 45.3125 25C45.3125 25 51.5625 25.7812 51.5625 21.875" stroke="white" stroke-width="2.34375" stroke-linecap="round" stroke-linejoin="round"/>
</svg>
