<svg width="75" height="75" viewBox="0 0 75 75" fill="none" xmlns="http://www.w3.org/2000/svg">
<circle cx="37.5" cy="37.5" r="37.5" fill="#293F52"/>
<mask id="path-2-inside-1_1012_833" fill="white">
<path d="M21.1222 18.75V36.6745H23.1269C23.6741 41.4937 26.3109 45.6447 30.0766 48.1053L31.0279 52.9245L23.5318 49.2767C23.5709 49.1245 23.5563 48.9615 23.4902 48.8125C23.424 48.6634 23.31 48.5366 23.1654 48.4513C23.0781 48.4 22.982 48.3651 22.8826 48.3488C22.7832 48.3325 22.6825 48.335 22.5862 48.3562C22.49 48.3774 22.4 48.4168 22.3216 48.4723C22.2432 48.5277 22.1779 48.598 22.1293 48.6792C22.0304 48.8422 22.0052 49.0397 22.0593 49.2283C22.1134 49.417 22.2423 49.5815 22.4178 49.6855C22.5463 49.7616 22.6932 49.8014 22.8405 49.8C22.9877 49.7986 23.129 49.7561 23.2472 49.6777L29.259 56.25H46.2873L48.9131 54.4969C48.9148 54.5486 48.9227 54.5987 48.9367 54.6462C48.9655 54.7324 49.0144 54.808 49.0806 54.8689C49.1467 54.9297 49.2289 54.9746 49.3223 55.0008C49.4158 55.0271 49.5187 55.0343 49.6252 55.022C49.7317 55.0098 49.8396 54.9782 49.943 54.9292C50.1498 54.8305 50.3252 54.6678 50.4312 54.4765C50.5371 54.2852 50.5651 54.0806 50.509 53.9072C50.4655 53.7748 50.3751 53.6679 50.2496 53.6006L53.1191 51.6745L46.075 53.7343L48.6222 49.2138L42.6081 52.6415L43.0955 49.5676C48.3549 47.5943 52.2386 42.6415 52.9225 36.6745H54.9272V18.75H52.5687V30.967C50.9257 24.1769 45.0452 19.1329 38.0247 19.1329C31.0043 19.1329 25.1261 24.1706 23.4807 30.9513V18.75H21.1222ZM38.0247 20.3648C45.6191 20.3648 51.7983 26.8082 51.7983 34.8113C51.7983 40.8333 48.2999 45.9748 43.3235 48.1525L43.6772 45.9434L39.2826 53.7343C39.2904 50.0314 39.4005 41.2107 42.0027 37.6415C45.2024 36.3365 47.3801 33.522 47.3801 30.3066C47.3801 25.8805 43.2448 22.2091 38.0247 22.2091C32.8046 22.2091 28.6694 25.8805 28.6694 30.3066C28.6694 33.522 30.8471 36.3365 34.0467 37.6415C36.6489 41.2107 36.759 50.0314 36.7669 53.7343L32.6945 43.6714L32.7496 47.8302L28.6222 40.7547L29.7307 46.3522C26.4052 43.7107 24.2543 39.5362 24.2543 34.8113C24.2543 26.8082 30.4304 20.3648 38.0247 20.3648ZM31.3187 41.3365C31.2948 41.3376 31.2712 41.3402 31.248 41.3443C31.0684 41.3728 30.9206 41.487 30.8367 41.6621C30.7528 41.8372 30.7396 42.0592 30.7999 42.2799C30.8609 42.5014 30.9911 42.7035 31.1619 42.842C31.3328 42.9804 31.5305 43.044 31.7118 43.0189C31.8025 43.0061 31.8862 42.9715 31.9583 42.9171C32.0304 42.8627 32.0893 42.7895 32.1317 42.7018C32.1741 42.6141 32.1991 42.5136 32.2053 42.4061C32.2115 42.2986 32.1988 42.1862 32.1678 42.0755C32.1095 41.8678 31.9904 41.6772 31.8335 41.5406C31.6766 41.4041 31.4932 41.3313 31.3187 41.3365ZM45.5483 43.7657C45.3973 43.7703 45.2378 43.832 45.0906 43.9427C44.9434 44.0535 44.8153 44.2082 44.7228 44.3868C44.6622 44.5043 44.6185 44.6292 44.5944 44.7542C44.5703 44.8792 44.5661 45.0018 44.5822 45.1151C44.5983 45.2284 44.6342 45.33 44.6881 45.4141C44.7419 45.4983 44.8125 45.5633 44.8958 45.6053C45.0632 45.6893 45.2714 45.6761 45.4747 45.5685C45.6781 45.4609 45.8601 45.2678 45.9807 45.0314C46.1011 44.7954 46.1504 44.5354 46.118 44.3086C46.0856 44.0817 45.9741 43.9063 45.8077 43.8208C45.7296 43.7812 45.6416 43.7625 45.5483 43.7657ZM20.6474 44.6541C20.5483 44.65 20.4661 44.6771 20.4084 44.7327C20.3163 44.8168 20.2892 44.965 20.3329 45.1447C20.3767 45.3245 20.4878 45.5212 20.6419 45.6918C20.7963 45.8629 20.9814 45.9937 21.1564 46.0556C21.3314 46.1175 21.482 46.1054 21.575 46.022C21.622 45.9808 21.6533 45.923 21.6669 45.852C21.6806 45.7809 21.6765 45.698 21.6548 45.608C21.6331 45.518 21.5942 45.4228 21.5404 45.3279C21.4866 45.233 21.419 45.1402 21.3415 45.055C21.2368 44.9393 21.117 44.8409 20.9949 44.7704C20.8727 44.6998 20.7527 44.6597 20.6474 44.6541ZM49.1961 46.7217C49.0673 46.7242 48.9082 46.7842 48.7399 46.8936C48.5715 47.0031 48.4016 47.1569 48.2527 47.3349C48.0568 47.5678 47.9104 47.8261 47.8455 48.0531C47.7807 48.28 47.8027 48.4571 47.9068 48.5456C47.9585 48.59 48.0291 48.6109 48.1145 48.6073C48.2 48.6036 48.2985 48.5753 48.4045 48.5242C48.5105 48.473 48.6218 48.3999 48.7321 48.3091C48.8423 48.2184 48.9492 48.1117 49.0467 47.9953C49.2426 47.7624 49.3891 47.5041 49.4539 47.2771C49.5188 47.0502 49.4967 46.873 49.3926 46.7846C49.3433 46.7418 49.2767 46.7204 49.1961 46.7217ZM55.5798 51.4151C55.414 51.4168 55.2091 51.4762 54.9917 51.5856C54.7744 51.695 54.5547 51.8492 54.3612 52.0283C54.2343 52.146 54.122 52.2715 54.0307 52.3974C53.9394 52.5233 53.8709 52.6471 53.8293 52.7619C53.7876 52.8766 53.7736 52.9799 53.788 53.0658C53.8024 53.1518 53.8449 53.2186 53.9131 53.2626C54.0502 53.35 54.2816 53.3405 54.5571 53.2359C54.8325 53.1313 55.1294 52.9403 55.3832 52.7044C55.5101 52.5867 55.6225 52.4612 55.7137 52.3353C55.805 52.2094 55.8735 52.0856 55.9151 51.9708C55.9568 51.8561 55.9708 51.7528 55.9564 51.6669C55.942 51.5809 55.8995 51.5141 55.8313 51.4701C55.7667 51.4311 55.6814 51.4125 55.5798 51.4151ZM23.7566 52.8302C23.6137 52.8294 23.4838 52.8559 23.3766 52.9076C23.2695 52.9594 23.1879 53.035 23.1379 53.1289C23.0517 53.2948 23.0686 53.5062 23.185 53.7168C23.3014 53.9275 23.5077 54.1203 23.759 54.2531C24.0103 54.3863 24.2862 54.4486 24.5263 54.4265C24.7665 54.4044 24.9513 54.2997 25.0404 54.1352C25.0847 54.053 25.1038 53.9585 25.0965 53.8569C25.0892 53.7554 25.0558 53.649 24.998 53.5437C24.9403 53.4385 24.8594 53.3366 24.7601 53.2438C24.6608 53.151 24.545 53.0692 24.4194 53.0031C24.2042 52.8909 23.9706 52.8299 23.7566 52.8302Z"/>
</mask>
<path d="M21.1222 18.75V36.6745H23.1269C23.6741 41.4937 26.3109 45.6447 30.0766 48.1053L31.0279 52.9245L23.5318 49.2767C23.5709 49.1245 23.5563 48.9615 23.4902 48.8125C23.424 48.6634 23.31 48.5366 23.1654 48.4513C23.0781 48.4 22.982 48.3651 22.8826 48.3488C22.7832 48.3325 22.6825 48.335 22.5862 48.3562C22.49 48.3774 22.4 48.4168 22.3216 48.4723C22.2432 48.5277 22.1779 48.598 22.1293 48.6792C22.0304 48.8422 22.0052 49.0397 22.0593 49.2283C22.1134 49.417 22.2423 49.5815 22.4178 49.6855C22.5463 49.7616 22.6932 49.8014 22.8405 49.8C22.9877 49.7986 23.129 49.7561 23.2472 49.6777L29.259 56.25H46.2873L48.9131 54.4969C48.9148 54.5486 48.9227 54.5987 48.9367 54.6462C48.9655 54.7324 49.0144 54.808 49.0806 54.8689C49.1467 54.9297 49.2289 54.9746 49.3223 55.0008C49.4158 55.0271 49.5187 55.0343 49.6252 55.022C49.7317 55.0098 49.8396 54.9782 49.943 54.9292C50.1498 54.8305 50.3252 54.6678 50.4312 54.4765C50.5371 54.2852 50.5651 54.0806 50.509 53.9072C50.4655 53.7748 50.3751 53.6679 50.2496 53.6006L53.1191 51.6745L46.075 53.7343L48.6222 49.2138L42.6081 52.6415L43.0955 49.5676C48.3549 47.5943 52.2386 42.6415 52.9225 36.6745H54.9272V18.75H52.5687V30.967C50.9257 24.1769 45.0452 19.1329 38.0247 19.1329C31.0043 19.1329 25.1261 24.1706 23.4807 30.9513V18.75H21.1222ZM38.0247 20.3648C45.6191 20.3648 51.7983 26.8082 51.7983 34.8113C51.7983 40.8333 48.2999 45.9748 43.3235 48.1525L43.6772 45.9434L39.2826 53.7343C39.2904 50.0314 39.4005 41.2107 42.0027 37.6415C45.2024 36.3365 47.3801 33.522 47.3801 30.3066C47.3801 25.8805 43.2448 22.2091 38.0247 22.2091C32.8046 22.2091 28.6694 25.8805 28.6694 30.3066C28.6694 33.522 30.8471 36.3365 34.0467 37.6415C36.6489 41.2107 36.759 50.0314 36.7669 53.7343L32.6945 43.6714L32.7496 47.8302L28.6222 40.7547L29.7307 46.3522C26.4052 43.7107 24.2543 39.5362 24.2543 34.8113C24.2543 26.8082 30.4304 20.3648 38.0247 20.3648ZM31.3187 41.3365C31.2948 41.3376 31.2712 41.3402 31.248 41.3443C31.0684 41.3728 30.9206 41.487 30.8367 41.6621C30.7528 41.8372 30.7396 42.0592 30.7999 42.2799C30.8609 42.5014 30.9911 42.7035 31.1619 42.842C31.3328 42.9804 31.5305 43.044 31.7118 43.0189C31.8025 43.0061 31.8862 42.9715 31.9583 42.9171C32.0304 42.8627 32.0893 42.7895 32.1317 42.7018C32.1741 42.6141 32.1991 42.5136 32.2053 42.4061C32.2115 42.2986 32.1988 42.1862 32.1678 42.0755C32.1095 41.8678 31.9904 41.6772 31.8335 41.5406C31.6766 41.4041 31.4932 41.3313 31.3187 41.3365ZM45.5483 43.7657C45.3973 43.7703 45.2378 43.832 45.0906 43.9427C44.9434 44.0535 44.8153 44.2082 44.7228 44.3868C44.6622 44.5043 44.6185 44.6292 44.5944 44.7542C44.5703 44.8792 44.5661 45.0018 44.5822 45.1151C44.5983 45.2284 44.6342 45.33 44.6881 45.4141C44.7419 45.4983 44.8125 45.5633 44.8958 45.6053C45.0632 45.6893 45.2714 45.6761 45.4747 45.5685C45.6781 45.4609 45.8601 45.2678 45.9807 45.0314C46.1011 44.7954 46.1504 44.5354 46.118 44.3086C46.0856 44.0817 45.9741 43.9063 45.8077 43.8208C45.7296 43.7812 45.6416 43.7625 45.5483 43.7657ZM20.6474 44.6541C20.5483 44.65 20.4661 44.6771 20.4084 44.7327C20.3163 44.8168 20.2892 44.965 20.3329 45.1447C20.3767 45.3245 20.4878 45.5212 20.6419 45.6918C20.7963 45.8629 20.9814 45.9937 21.1564 46.0556C21.3314 46.1175 21.482 46.1054 21.575 46.022C21.622 45.9808 21.6533 45.923 21.6669 45.852C21.6806 45.7809 21.6765 45.698 21.6548 45.608C21.6331 45.518 21.5942 45.4228 21.5404 45.3279C21.4866 45.233 21.419 45.1402 21.3415 45.055C21.2368 44.9393 21.117 44.8409 20.9949 44.7704C20.8727 44.6998 20.7527 44.6597 20.6474 44.6541ZM49.1961 46.7217C49.0673 46.7242 48.9082 46.7842 48.7399 46.8936C48.5715 47.0031 48.4016 47.1569 48.2527 47.3349C48.0568 47.5678 47.9104 47.8261 47.8455 48.0531C47.7807 48.28 47.8027 48.4571 47.9068 48.5456C47.9585 48.59 48.0291 48.6109 48.1145 48.6073C48.2 48.6036 48.2985 48.5753 48.4045 48.5242C48.5105 48.473 48.6218 48.3999 48.7321 48.3091C48.8423 48.2184 48.9492 48.1117 49.0467 47.9953C49.2426 47.7624 49.3891 47.5041 49.4539 47.2771C49.5188 47.0502 49.4967 46.873 49.3926 46.7846C49.3433 46.7418 49.2767 46.7204 49.1961 46.7217ZM55.5798 51.4151C55.414 51.4168 55.2091 51.4762 54.9917 51.5856C54.7744 51.695 54.5547 51.8492 54.3612 52.0283C54.2343 52.146 54.122 52.2715 54.0307 52.3974C53.9394 52.5233 53.8709 52.6471 53.8293 52.7619C53.7876 52.8766 53.7736 52.9799 53.788 53.0658C53.8024 53.1518 53.8449 53.2186 53.9131 53.2626C54.0502 53.35 54.2816 53.3405 54.5571 53.2359C54.8325 53.1313 55.1294 52.9403 55.3832 52.7044C55.5101 52.5867 55.6225 52.4612 55.7137 52.3353C55.805 52.2094 55.8735 52.0856 55.9151 51.9708C55.9568 51.8561 55.9708 51.7528 55.9564 51.6669C55.942 51.5809 55.8995 51.5141 55.8313 51.4701C55.7667 51.4311 55.6814 51.4125 55.5798 51.4151ZM23.7566 52.8302C23.6137 52.8294 23.4838 52.8559 23.3766 52.9076C23.2695 52.9594 23.1879 53.035 23.1379 53.1289C23.0517 53.2948 23.0686 53.5062 23.185 53.7168C23.3014 53.9275 23.5077 54.1203 23.759 54.2531C24.0103 54.3863 24.2862 54.4486 24.5263 54.4265C24.7665 54.4044 24.9513 54.2997 25.0404 54.1352C25.0847 54.053 25.1038 53.9585 25.0965 53.8569C25.0892 53.7554 25.0558 53.649 24.998 53.5437C24.9403 53.4385 24.8594 53.3366 24.7601 53.2438C24.6608 53.151 24.545 53.0692 24.4194 53.0031C24.2042 52.8909 23.9706 52.8299 23.7566 52.8302Z" stroke="white" stroke-width="3.125" stroke-linejoin="round" mask="url(#path-2-inside-1_1012_833)"/>
</svg>
