<svg width="48" height="48" viewBox="0 0 48 48" fill="none" xmlns="http://www.w3.org/2000/svg">
<rect width="48" height="48" rx="24" fill="#293F52"/>
<g clip-path="url(#clip0_1666_1797)">
<path d="M13.4996 16.4396C11.8782 16.4396 10.5596 15.1209 10.5596 13.4996C10.5596 11.8782 11.8782 10.5596 13.4996 10.5596C15.1209 10.5596 16.4396 11.8782 16.4396 13.4996C16.4396 15.1209 15.1209 16.4396 13.4996 16.4396ZM13.4996 11.1896C12.2256 11.1896 11.1896 12.2256 11.1896 13.4996C11.1896 14.7736 12.2256 15.8096 13.4996 15.8096C14.7736 15.8096 15.8096 14.7736 15.8096 13.4996C15.8096 12.2256 14.7736 11.1896 13.4996 11.1896ZM34.4996 37.4396C32.8782 37.4396 31.5596 36.1201 31.5596 34.4996C31.5596 32.8791 32.8791 31.5596 34.4996 31.5596C36.1201 31.5596 37.4396 32.8791 37.4396 34.4996C37.4396 36.1201 36.1209 37.4396 34.4996 37.4396ZM34.4996 32.1896C33.2256 32.1896 32.1896 33.2256 32.1896 34.4996C32.1896 35.7736 33.2256 36.8096 34.4996 36.8096C35.7736 36.8096 36.8096 35.7736 36.8096 34.4996C36.8096 33.2256 35.7736 32.1896 34.4996 32.1896ZM13.4996 35.6896C12.8433 35.6896 12.3096 35.1558 12.3096 34.4996C12.3096 33.8433 12.8433 33.3096 13.4996 33.3096C14.1558 33.3096 14.6896 33.8433 14.6896 34.4996C14.6896 35.1558 14.1558 35.6896 13.4996 35.6896ZM13.4996 33.9396C13.1907 33.9396 12.9396 34.1907 12.9396 34.4996C12.9396 34.8084 13.1907 35.0596 13.4996 35.0596C13.8084 35.0596 14.0596 34.8084 14.0596 34.4996C14.0596 34.1907 13.8084 33.9396 13.4996 33.9396ZM34.4996 14.6896C33.8433 14.6896 33.3096 14.1558 33.3096 13.4996C33.3096 12.8433 33.8433 12.3096 34.4996 12.3096C35.1558 12.3096 35.6896 12.8433 35.6896 13.4996C35.6896 14.1558 35.1558 14.6896 34.4996 14.6896ZM34.4996 12.9396C34.1907 12.9396 33.9396 13.1907 33.9396 13.4996C33.9396 13.8084 34.1907 14.0596 34.4996 14.0596C34.8084 14.0596 35.0596 13.8084 35.0596 13.4996C35.0596 13.1907 34.8084 12.9396 34.4996 12.9396ZM23.9996 28.6896C21.4131 28.6896 19.3096 26.5852 19.3096 23.9996C19.3096 21.4131 21.4131 19.3096 23.9996 19.3096C26.5852 19.3096 28.6896 21.4131 28.6896 23.9996C28.6896 26.5852 26.5852 28.6896 23.9996 28.6896ZM23.9996 19.9396C21.7604 19.9396 19.9396 21.7613 19.9396 23.9996C19.9396 26.2378 21.7613 28.0596 23.9996 28.0596C26.2378 28.0596 28.0596 26.2387 28.0596 23.9996C28.0596 21.7604 26.2387 19.9396 23.9996 19.9396ZM23.9996 26.9396C22.3782 26.9396 21.0596 25.6201 21.0596 23.9996C21.0596 22.3791 22.3782 21.0596 23.9996 21.0596C25.6209 21.0596 26.9396 22.3782 26.9396 23.9996C26.9396 25.6209 25.6209 26.9396 23.9996 26.9396ZM23.9996 21.6896C22.7256 21.6896 21.6896 22.7264 21.6896 23.9996C21.6896 25.2736 22.7264 26.3096 23.9996 26.3096C25.2736 26.3096 26.3096 25.2736 26.3096 23.9996C26.3096 22.7256 25.2736 21.6896 23.9996 21.6896ZM34.4996 10.5596C32.8782 10.5596 31.5596 11.8782 31.5596 13.4996C31.5596 14.1969 31.8133 14.8287 32.2202 15.3336L28.8558 18.6979C27.5328 18.0268 25.9316 17.5596 23.9996 17.5596C16.8744 17.5596 14.1121 23.8123 14.0849 23.8753C14.0508 23.9541 14.0508 24.0442 14.0849 24.1229C14.1033 24.1667 15.4184 27.1426 18.5597 28.9932L15.3327 32.2193C14.8287 31.8133 14.1961 31.5596 13.4996 31.5596C11.8782 31.5596 10.5596 32.8791 10.5596 34.4996C10.5596 36.1201 11.8782 37.4396 13.4996 37.4396C15.1209 37.4396 16.4396 36.1209 16.4396 34.4996C16.4396 33.8031 16.1858 33.1704 15.7789 32.6656L19.1433 29.3012C20.4663 29.9723 22.0676 30.4396 23.9996 30.4396C31.1256 30.4396 33.8871 24.1868 33.9142 24.1229C33.9483 24.0442 33.9483 23.9541 33.9142 23.8753C33.8958 23.8316 32.5807 20.8566 29.4394 19.0051L32.6656 15.7781C33.1704 16.1858 33.8031 16.4396 34.4996 16.4396C36.1209 16.4396 37.4396 15.1209 37.4396 13.4996C37.4396 11.8782 36.1209 10.5596 34.4996 10.5596ZM15.8096 34.4996C15.8096 35.7736 14.7727 36.8096 13.4996 36.8096C12.2264 36.8096 11.1896 35.7736 11.1896 34.4996C11.1896 33.2256 12.2256 32.1896 13.4996 32.1896C14.7736 32.1896 15.8096 33.2256 15.8096 34.4996ZM33.2772 23.9996C32.8572 24.8544 30.1552 29.8096 23.9996 29.8096C17.8439 29.8096 15.1419 24.8544 14.7228 23.9996C15.1419 23.1447 17.8448 18.1896 23.9996 18.1896C30.1543 18.1896 32.8563 23.1447 33.2772 23.9996ZM34.4996 15.8096C33.9352 15.8096 33.4242 15.5978 33.0226 15.2601L32.7426 14.9801C32.4022 14.5784 32.1896 14.0657 32.1896 13.4996C32.1896 12.2256 33.2256 11.1896 34.4996 11.1896C35.7736 11.1896 36.8096 12.2256 36.8096 13.4996C36.8096 14.7736 35.7736 15.8096 34.4996 15.8096Z" fill="white"/>
</g>
<defs>
<clipPath id="clip0_1666_1797">
<rect width="28" height="28" fill="white" transform="translate(10 10)"/>
</clipPath>
</defs>
</svg>
