<svg width="48" height="48" viewBox="0 0 48 48" fill="none" xmlns="http://www.w3.org/2000/svg">
<rect width="48" height="48" rx="24" fill="#293F52"/>
<path d="M14.0885 23.3722C14.2627 23.4593 14.3497 23.4593 14.5239 23.4593C14.698 23.4593 14.8721 23.3722 14.9592 23.3722L21.0541 19.8021C21.3153 19.628 21.4895 19.3667 21.4895 19.0184C21.4895 18.6701 21.3153 18.4089 21.0541 18.2348L18.8774 16.9286L20.7058 13.6197C21.0541 13.0102 21.5765 12.4877 22.186 12.1394C23.9274 11.1816 26.1042 11.8782 27.0619 13.6197C27.3231 14.0551 27.8456 14.1422 28.2809 13.8809C28.2809 13.8809 28.2809 13.8809 28.368 13.8809C28.7163 13.6197 28.8033 13.0973 28.6292 12.7489C28.1068 11.8782 27.4102 11.0945 26.5395 10.6591C23.9274 9.2659 20.7058 10.1367 19.3127 12.7489L16.8748 16.8415C16.6135 17.2769 16.7877 17.7994 17.136 18.0606L18.8774 19.1055L15.3946 21.1953V15.3612C15.3946 14.8388 15.0463 14.4905 14.5239 14.4905C14.0885 14.5775 13.7402 14.9259 13.7402 15.4483V22.6756C13.7402 22.9369 13.9144 23.1981 14.0885 23.3722Z" fill="white"/>
<path d="M36.4702 26.5094L33.4228 21.1107C33.3357 20.9366 33.0745 20.7624 32.9004 20.6753C32.6392 20.5883 32.465 20.6753 32.2038 20.7624L30.2883 21.8944V17.8018L35.0771 20.6753C35.1642 20.6753 35.1642 20.7624 35.2513 20.7624C35.6866 20.9366 36.209 20.7624 36.3832 20.327C36.5573 19.8917 36.3832 19.3692 35.9478 19.195L29.8529 15.5378C29.5917 15.3637 29.2434 15.3637 28.9822 15.5378C28.6339 15.6249 28.5469 15.8861 28.5469 16.2345V23.4618C28.5469 23.8101 28.6339 24.1584 28.8952 24.3325C29.1564 24.5067 29.5046 24.5067 29.7659 24.3325L32.2909 22.8522L34.903 27.4673C35.5125 28.5993 35.5125 29.9054 34.903 31.0374C34.3806 32.0823 33.2487 32.6919 32.1167 32.6919H31.3331C30.8978 32.6919 30.2883 33.0402 30.2883 33.5626C30.3753 34.0851 30.8107 34.4334 31.3331 34.4334H32.1167C33.9452 34.4334 35.5995 33.4755 36.4702 31.9082C37.428 30.1667 37.428 28.1639 36.4702 26.5094Z" fill="white"/>
<path d="M28.0226 32.7758L21.9277 29.1186C21.6664 28.9445 21.3182 28.9445 21.057 29.1186C20.7957 29.2928 20.7087 29.554 20.7087 29.9023V32.7758H16.4423C15.1362 32.6888 13.9172 31.9922 13.3077 30.7731C12.6112 29.554 12.6112 27.9867 13.3077 26.7676C13.5689 26.3322 13.3948 25.8097 12.9595 25.5485C12.5241 25.2873 12.0017 25.4614 11.7405 25.8968C10.6956 27.7254 10.7827 29.9023 11.8275 31.6439C12.7853 33.2983 14.6138 34.3432 16.5293 34.3432H21.5794C22.1018 34.3432 22.4501 33.9949 22.4501 33.4725V31.3826L25.9329 33.4725L21.057 36.346C20.7957 36.5201 20.6216 36.7814 20.6216 37.1297C20.6216 37.6521 21.057 38.0004 21.4923 38.0004C21.6664 38.0004 21.7535 37.9133 21.9277 37.8263L28.0226 34.1691C28.1967 34.082 28.2838 33.9949 28.3708 33.8208C28.632 33.4725 28.4579 32.95 28.0226 32.7758Z" fill="white"/>
</svg>
