<svg width="60" height="60" viewBox="0 0 60 60" fill="none" xmlns="http://www.w3.org/2000/svg">
<rect width="60" height="60" rx="30" fill="#293F52"/>
<path d="M18.2654 28.5333L18.947 25.7092C17.4749 25.0415 16.3091 23.0014 16.3091 21.2731C16.3091 18.5319 18.5319 16.3091 21.2731 16.3091C23.4428 16.3091 25.2828 17.7043 25.958 19.6441H27.867C28.1774 19.1396 29.0661 18.4629 28.9176 18.1059C28.7299 17.6526 27.0473 17.9997 26.7772 17.596C26.5056 17.1904 27.4674 15.7674 27.1233 15.4234C26.7787 15.0788 25.3558 16.0411 24.9501 15.7689C24.547 15.4994 24.8936 13.8157 24.4407 13.6281C23.9948 13.4434 23.05 14.8762 22.5654 14.7804C22.0958 14.6876 21.77 13 21.2731 13C20.7761 13 20.4503 14.6876 19.9807 14.7804C19.4966 14.8762 18.5518 13.4434 18.1059 13.6286C17.6526 13.8162 17.9997 15.4989 17.596 15.7689C17.1904 16.0405 15.7674 15.0788 15.4234 15.4229C15.0788 15.7674 16.0411 17.1904 15.7695 17.596C15.4994 17.9992 13.8162 17.6526 13.6281 18.1054C13.4434 18.5513 14.8763 19.4966 14.7804 19.9807C14.6876 20.4504 13 20.7761 13 21.2731C13 21.77 14.6876 22.0958 14.7805 22.5654C14.8763 23.0495 13.4434 23.9943 13.6286 24.4402C13.8163 24.8935 15.4989 24.5464 15.769 24.9501C16.0406 25.3557 15.0789 26.7787 15.423 27.1227C15.7675 27.4673 17.1904 26.505 17.5961 26.7766C17.8488 26.946 18.2202 27.9698 18.2654 28.5333Z" fill="white"/>
<path d="M17.488 35.8113H47.739L44.1801 21.0674H21.0469L17.488 35.8113ZM45.1562 33.7776H37.9401L37.5141 29.202H44.0515L45.1562 33.7776ZM42.5789 23.101L43.6836 27.6767H37.3722L36.9467 23.101H42.5789ZM29.8027 23.101H35.415L35.841 27.6767H29.3766L29.8027 23.101ZM29.2346 29.202H35.9829L36.4084 33.7776H28.8091L29.2346 29.202ZM22.6486 23.101H28.271L27.8455 27.6767H21.5439L22.6486 23.101ZM27.7035 29.202L27.2774 33.7776H20.0713L21.176 29.202H27.7035Z" fill="white"/>
<path d="M18.6747 38.8952H46.5524L47.739 36.5225H17.488L18.6747 38.8952Z" fill="white"/>
<path d="M34.1485 39.8584H31.0781L30.9133 42.5454L27.8152 44.0806V46H37.4115V44.0806L34.3133 42.5454L34.1485 39.8584Z" fill="white"/>
</svg>
