<svg width="80" height="80" viewBox="0 0 80 80" fill="none" xmlns="http://www.w3.org/2000/svg">
<g clip-path="url(#clip0_820_1272)">
<path d="M67.1216 46.0909L57.9616 44.4486V16.117V12.108V11.3886H62.4383C65.5783 11.3886 68.1325 8.83422 68.1325 5.69438C68.1327 2.55437 65.5783 0 62.4384 0H17.5617C14.4217 0 11.8673 2.55453 11.8673 5.69422C11.8673 8.83406 14.4216 11.3884 17.5616 11.3884H22.0383V12.1078V16.117V43.9177L12.915 45.2695C12.4608 45.3369 12.0819 45.6522 11.9334 46.087C11.7848 46.5216 11.8914 47.0028 12.2095 47.3344L23.3666 58.9545C23.3686 58.9567 23.3706 58.9588 23.3727 58.9609L24.6747 60.317L21.682 78.0644C21.6056 78.5173 21.7884 78.975 22.1561 79.2506C22.5236 79.5264 23.0141 79.5736 23.4278 79.3734L39.6267 71.5302L55.5808 79.8606C55.7595 79.9539 55.9545 80.0002 56.1489 80.0002C56.3973 80.0002 56.6447 79.9248 56.8555 79.7766C57.2311 79.5122 57.4277 79.0603 57.365 78.6052L54.9116 60.7752L67.7642 48.1763C68.0922 47.8548 68.2134 47.377 68.078 46.938C67.943 46.4989 67.5739 46.1722 67.1216 46.0909ZM59.8963 47.2902L26.4009 64.8453L27.1983 60.1164C27.263 59.7333 27.1425 59.3422 26.8734 59.0619L26.2736 58.437L50.6913 45.6395L59.8963 47.2902ZM24.4936 14.8895V13.3355H55.5064V14.8895H24.4936ZM47.2638 17.3447V38.6044L41.3953 26.7977C41.1909 26.3863 40.7739 26.1236 40.3145 26.1166C39.852 26.1122 39.4305 26.3597 39.2136 26.7645L32.8877 38.5805V17.3447H47.2638ZM30.4323 17.3447V42.6739L24.4936 43.5539V17.3447H30.4323ZM24.4936 10.8803V6.92188H55.5064V10.8803H24.4936ZM49.7192 17.3447H55.5064V44.0084L49.7192 42.9708V17.3447ZM17.5617 8.93328C15.7758 8.93328 14.3228 7.48047 14.3228 5.69422C14.3228 3.90797 15.7756 2.45531 17.5617 2.45531H62.4384C64.2244 2.45531 65.6775 3.90828 65.6775 5.69422C65.6775 7.48016 64.2245 8.93328 62.4384 8.93328H57.9617V6.92188H61.2044C61.8825 6.92188 62.432 6.37219 62.432 5.69422C62.432 5.01625 61.8825 4.46656 61.2044 4.46656H56.7342H23.2659H19.2864C18.6083 4.46656 18.0588 5.01625 18.0588 5.69422C18.0588 6.37219 18.6083 6.92188 19.2864 6.92188H22.0383V8.93328H17.5617ZM24.503 56.5928L15.6281 47.3495L23.0167 46.255C23.0972 46.2717 23.1806 46.2803 23.2659 46.2803C23.4787 46.2803 23.6788 46.2261 23.8533 46.1309L31.6895 44.9697C32.0739 44.9127 32.4084 44.6772 32.5919 44.3347L40.2556 30.0205L47.478 44.5512L24.503 56.5928ZM52.7519 59.4541C52.4744 59.7261 52.342 60.1133 52.395 60.498L54.6083 76.5831L40.2155 69.0678C40.0375 68.975 39.8427 68.9283 39.6472 68.9283C39.4644 68.9283 39.2814 68.9692 39.112 69.0511L24.4983 76.1269L25.8878 67.8858L63.8367 47.9964L64.3463 48.0878L52.7519 59.4541Z" fill="#FABD47"/>
</g>
<defs>
<clipPath id="clip0_820_1272">
<rect width="80" height="80" fill="white"/>
</clipPath>
</defs>
</svg>
