<svg width="53" height="52" viewBox="0 0 53 52" fill="none" xmlns="http://www.w3.org/2000/svg">
<rect width="53" height="52" rx="26" fill="#293F52"/>
<path d="M28.6974 36.2969C28.0429 36.7459 27.2627 36.9912 26.4591 36.9912C25.6557 36.9911 24.8762 36.7457 24.2218 36.2969H28.6974ZM23.4816 33.7812H29.5187C29.5867 33.7813 29.6519 33.8005 29.7062 33.8359L29.757 33.877C29.803 33.9221 29.8326 33.9784 29.8448 34.0381L29.8517 34.0986C29.8518 34.1393 29.8433 34.1797 29.8273 34.2178C29.8193 34.2368 29.8097 34.2552 29.798 34.2725L29.757 34.3213C29.7418 34.3362 29.7251 34.3495 29.7072 34.3613L29.6486 34.3926C29.6076 34.4092 29.5634 34.418 29.5187 34.418H23.4816C23.4135 34.418 23.3484 34.3977 23.2941 34.3623L23.2433 34.3213C23.1819 34.261 23.1487 34.1812 23.1486 34.0996C23.1486 34.0384 23.1671 33.9776 23.2023 33.9258L23.2433 33.877C23.3051 33.8164 23.3907 33.7813 23.4816 33.7812ZM26.5001 15.1064C24.8243 15.1064 23.2114 15.7189 21.9728 16.8193L21.7296 17.0459C20.463 18.2887 19.7502 19.9761 19.7501 21.7373C19.7501 23.7651 20.6403 25.2207 21.4796 26.3779C21.9104 26.9719 22.2963 27.447 22.5948 27.9229C22.8878 28.3898 23.0421 28.7776 23.0421 29.1455V31.2412H29.9581V29.1455C29.9581 28.7776 30.1124 28.3898 30.4054 27.9229C30.704 27.447 31.0899 26.9719 31.5206 26.3779C32.3599 25.2207 33.2501 23.7651 33.2501 21.7373C33.25 20.0861 32.6232 18.5001 31.5011 17.2842L31.2706 17.0459C30.0041 15.8033 28.2877 15.1065 26.5001 15.1064ZM22.3761 29.0713L22.3517 29.002C22.1566 28.4356 21.8606 27.9091 21.4786 27.4463L21.3107 27.252C19.9513 25.7134 19.1658 23.769 19.0812 21.7373C19.0812 20.1665 19.5997 18.6398 20.5568 17.3848L20.754 17.1377C21.7695 15.9196 23.1598 15.0584 24.714 14.6807L25.0265 14.6113C26.6019 14.2985 28.2354 14.496 29.6818 15.1689L29.9679 15.3096C31.3881 16.0455 32.5224 17.2111 33.2062 18.627L33.337 18.9131V18.9141C33.715 19.7894 33.9107 20.729 33.9171 21.6787L33.9161 21.7207C33.836 23.758 33.0514 25.7087 31.6896 27.252C31.2255 27.7594 30.8713 28.3549 30.6486 29.002L30.6241 29.0713V30.8008C30.6241 31.0484 30.5365 31.2886 30.3761 31.4805L30.3038 31.5596C30.0971 31.7624 29.8146 31.8779 29.5187 31.8779H23.4816C23.1856 31.8779 22.9032 31.7624 22.6964 31.5596C22.4899 31.357 22.3761 31.0836 22.3761 30.8008V29.0713Z" stroke="white" stroke-width="0.88"/>
</svg>
