<svg width="67" height="48" viewBox="0 0 67 48" fill="none" xmlns="http://www.w3.org/2000/svg">
<path d="M65.5484 43.3529C58.6484 31.8029 41.5484 20.2529 32.2484 19.0529C31.7421 18.9762 31.2245 19.0305 30.745 19.2105C30.2655 19.3905 29.8401 19.6903 29.5093 20.0813C29.1784 20.4722 28.9532 20.9414 28.855 21.4441C28.7569 21.9467 28.789 22.4662 28.9484 22.9529C29.1451 23.4861 29.4892 23.9524 29.9407 24.2977C30.3921 24.6429 30.9323 24.8528 31.4984 24.9029C35.6984 25.6529 42.8984 29.4029 49.3484 34.5029C43.9484 39.6029 35.8484 41.8529 29.2484 39.9029C17.6985 36.6029 11.8484 21.7529 7.64845 9.45289L19.0484 7.80289C28.9484 6.00289 37.4984 4.50289 43.1984 8.40289C48.8984 12.3029 49.1984 15.9029 50.0984 20.8529L53.9984 23.5529C54.2314 23.7301 54.5112 23.8353 54.8032 23.8555C55.0953 23.8757 55.3868 23.8099 55.642 23.6664C55.8971 23.5229 56.1047 23.3079 56.2391 23.0478C56.3735 22.7877 56.4289 22.494 56.3984 22.2029C55.4984 15.1529 53.2484 8.10289 46.6484 3.60289C40.0484 -0.897109 28.7984 0.00289193 17.9984 1.80289C13.1924 2.74702 8.33347 3.39822 3.44845 3.75289H1.49845C1.25707 3.7269 1.01315 3.76648 0.792372 3.86746C0.571596 3.96844 0.382137 4.12709 0.243947 4.3267C0.105758 4.52631 0.0239518 4.75948 0.00714537 5.00168C-0.00966102 5.24387 0.0391538 5.48611 0.148449 5.70289L0.748449 7.50289C5.39845 21.6029 11.8484 40.9529 27.4484 45.6029C29.6495 46.1964 31.9188 46.499 34.1984 46.5029C41.564 46.4405 48.6349 43.6014 53.9984 38.5529C56.4498 40.9435 58.6144 43.6115 60.4484 46.5029C60.6955 46.9624 61.0639 47.3452 61.5136 47.6097C61.9632 47.8742 62.4768 48.0102 62.9984 48.0029C63.6955 48.0139 64.3781 47.8038 64.9484 47.4029C65.5146 46.91 65.8861 46.2312 65.9961 45.4887C66.1062 44.7461 65.9474 43.9887 65.5484 43.3529Z" fill="white"/>
</svg>
