<svg width="60" height="60" viewBox="0 0 60 60" fill="none" xmlns="http://www.w3.org/2000/svg">
<rect width="60" height="60" rx="30" fill="#293F52"/>
<path d="M30.2499 24.8857C27.0748 24.8857 24.4771 27.4835 24.4771 30.6586C24.4771 33.8337 27.0748 36.4315 30.2499 36.4315C33.425 36.4315 36.0228 33.8337 36.0228 30.6586C36.0228 27.4835 33.425 24.8857 30.2499 24.8857ZM30.2499 34.5072C28.1332 34.5072 26.4013 32.7753 26.4013 30.6586C26.4013 28.5419 28.1332 26.81 30.2499 26.81C32.3666 26.81 34.0985 28.5419 34.0985 30.6586C34.0985 32.7753 32.3666 34.5072 30.2499 34.5072Z" fill="white"/>
<path d="M30.2501 39.0293C26.6661 39.0293 23.2265 40.5206 20.773 43.1425L20.1235 43.84L21.5186 45.163L22.1681 44.4654C24.2848 42.2044 27.1472 40.9536 30.2501 40.9536C33.353 40.9536 36.2154 42.2044 38.3321 44.4654L38.9816 45.163L40.3767 43.84L39.7272 43.1425C37.2738 40.5447 33.8341 39.0293 30.2501 39.0293Z" fill="white"/>
<path d="M38.1875 26.3047V28.229C40.4485 28.229 42.5412 29.143 44.1047 30.8027L45.4998 29.4798C43.6236 27.4593 40.9537 26.3047 38.1875 26.3047Z" fill="white"/>
<path d="M42.7817 19.5942C42.7817 17.0686 40.7131 15 38.1875 15C35.6619 15 33.5933 17.0686 33.5933 19.5942C33.5933 22.1199 35.6619 24.1885 38.1875 24.1885C40.7131 24.1885 42.7817 22.1199 42.7817 19.5942ZM35.5176 19.5942C35.5176 18.127 36.7202 16.9243 38.1875 16.9243C39.6548 16.9243 40.8575 18.127 40.8575 19.5942C40.8575 21.0615 39.6548 22.2642 38.1875 22.2642C36.7202 22.2642 35.5176 21.0615 35.5176 19.5942Z" fill="white"/>
<path d="M22.3123 26.3047C19.5461 26.3047 16.8762 27.4593 15 29.4798L16.3951 30.8027C17.9345 29.143 20.0513 28.229 22.3123 28.229V26.3047Z" fill="white"/>
<path d="M26.9063 19.5942C26.9063 17.0686 24.8376 15 22.312 15C19.7864 15 17.7178 17.0686 17.7178 19.5942C17.7178 22.1199 19.7864 24.1885 22.312 24.1885C24.8376 24.1885 26.9063 22.1199 26.9063 19.5942ZM22.312 22.2642C20.8447 22.2642 19.6421 21.0615 19.6421 19.5942C19.6421 18.127 20.8447 16.9243 22.312 16.9243C23.7793 16.9243 24.982 18.127 24.982 19.5942C24.982 21.0615 23.7793 22.2642 22.312 22.2642Z" fill="white"/>
</svg>
