<svg width="22" height="22" viewBox="0 0 22 22" fill="none" xmlns="http://www.w3.org/2000/svg">
<g clip-path="url(#clip0_820_1067)">
<path d="M10.8092 1.94835C13.6952 1.94835 14.0375 1.95916 15.1779 2.0114C18.1071 2.14472 19.4754 3.5346 19.6087 6.44226C19.661 7.58173 19.6709 7.92402 19.6709 10.8101C19.6709 13.697 19.6601 14.0384 19.6087 15.1779C19.4745 18.0828 18.1098 19.4754 15.1779 19.6087C14.0375 19.661 13.697 19.6718 10.8092 19.6718C7.92311 19.6718 7.58082 19.661 6.44136 19.6087C3.50487 19.4745 2.14382 18.0783 2.0105 15.177C1.95826 14.0375 1.94745 13.6961 1.94745 10.8092C1.94745 7.92311 1.95916 7.58173 2.0105 6.44136C2.14472 3.5346 3.50937 2.14382 6.44136 2.0105C7.58173 1.95916 7.92311 1.94835 10.8092 1.94835ZM10.8092 0C7.87357 0 7.50606 0.0126107 6.35308 0.064855C2.42756 0.245008 0.245908 2.42305 0.0657557 6.35218C0.0126107 7.50606 0 7.87357 0 10.8092C0 13.7447 0.0126107 14.1132 0.064855 15.2661C0.245008 19.1917 2.42305 21.3733 6.35218 21.5535C7.50606 21.6057 7.87357 21.6183 10.8092 21.6183C13.7447 21.6183 14.1132 21.6057 15.2661 21.5535C19.1881 21.3733 21.3751 19.1953 21.5526 15.2661C21.6057 14.1132 21.6183 13.7447 21.6183 10.8092C21.6183 7.87357 21.6057 7.50606 21.5535 6.35308C21.3769 2.43116 19.1962 0.245908 15.267 0.0657557C14.1132 0.0126107 13.7447 0 10.8092 0ZM10.8092 5.25866C7.74386 5.25866 5.25866 7.74386 5.25866 10.8092C5.25866 13.8745 7.74386 16.3606 10.8092 16.3606C13.8745 16.3606 16.3597 13.8754 16.3597 10.8092C16.3597 7.74386 13.8745 5.25866 10.8092 5.25866ZM10.8092 14.4122C8.81937 14.4122 7.20611 12.7998 7.20611 10.8092C7.20611 8.81937 8.81937 7.20611 10.8092 7.20611C12.7989 7.20611 14.4122 8.81937 14.4122 10.8092C14.4122 12.7998 12.7989 14.4122 10.8092 14.4122ZM16.5795 3.74267C15.8624 3.74267 15.2815 4.32366 15.2815 5.03977C15.2815 5.75588 15.8624 6.33687 16.5795 6.33687C17.2956 6.33687 17.8756 5.75588 17.8756 5.03977C17.8756 4.32366 17.2956 3.74267 16.5795 3.74267Z" fill="#ABABAB"/>
</g>
<defs>
<clipPath id="clip0_820_1067">
<rect width="21.6183" height="21.6183" fill="white"/>
</clipPath>
</defs>
</svg>
