<svg width="48" height="48" viewBox="0 0 48 48" fill="none" xmlns="http://www.w3.org/2000/svg">
<rect width="48" height="48" rx="24" fill="#293F52"/>
<path d="M26.4756 33.0562H21.4914C21.0369 33.0562 20.6706 32.6872 20.6706 32.2354V31.6585C20.676 31.1626 20.6517 30.8143 20.5995 30.6199C20.3196 29.5948 19.5789 28.7353 18.8616 27.9019C18.6249 27.6292 18.4017 27.3691 18.1965 27.1072C17.1642 25.7941 16.6152 24.2209 16.6152 22.5523C16.6152 18.4789 19.9308 15.166 24.0042 15.166C28.0767 15.166 31.3914 18.4789 31.3914 22.5523C31.3914 24.2218 30.8451 25.7968 29.8101 27.109C29.6292 27.3412 29.4204 27.5842 29.2026 27.8407C28.4682 28.7047 27.6483 29.6686 27.3657 30.6865C27.3162 30.8683 27.2919 31.195 27.2955 31.6522V32.2336C27.2955 32.6872 26.9292 33.0562 26.4756 33.0562ZM22.314 31.4128H25.6548C25.6638 30.7738 25.7259 30.4588 25.7826 30.2536C26.1633 28.8829 27.1065 27.7696 27.939 26.7922C28.1577 26.5348 28.3494 26.3098 28.5195 26.0956C29.3232 25.0732 29.7489 23.8501 29.7489 22.5532C29.7489 19.3852 27.1731 16.8076 24.0051 16.8076C20.8371 16.8076 18.2595 19.3852 18.2595 22.5532C18.2595 23.8474 18.6843 25.0714 19.4889 26.0938C19.6788 26.3368 19.8867 26.5753 20.1072 26.83C20.8659 27.7111 21.8064 28.8028 22.1862 30.1897C22.242 30.4066 22.3068 30.7369 22.314 31.4128Z" fill="white"/>
<path d="M26.473 35.2294H21.4888C21.0343 35.2294 20.668 34.8613 20.668 34.4068C20.668 33.9532 21.0343 33.5869 21.4888 33.5869H26.473C26.9266 33.5869 27.2929 33.9532 27.2929 34.4068C27.2929 34.8613 26.9266 35.2294 26.473 35.2294Z" fill="white"/>
<path d="M25.2297 37.3973H22.7376C22.2831 37.3973 21.915 37.0292 21.915 36.5765C21.915 36.1229 22.2831 35.7539 22.7376 35.7539H25.2297C25.6815 35.7539 26.0505 36.1229 26.0505 36.5765C26.0505 37.0292 25.6815 37.3973 25.2297 37.3973Z" fill="white"/>
<path d="M37.1331 23.373H33.8499C33.3963 23.373 33.0273 23.0067 33.0273 22.5522C33.0273 22.0986 33.3963 21.7314 33.8499 21.7314H37.1331C37.5867 21.7314 37.953 22.0986 37.953 22.5522C37.953 23.0067 37.5867 23.373 37.1331 23.373Z" fill="white"/>
<path d="M14.1528 23.373H10.8687C10.4151 23.373 10.0488 23.0067 10.0488 22.5522C10.0488 22.0986 10.4151 21.7314 10.8687 21.7314H14.1519C14.6055 21.7314 14.9745 22.0986 14.9745 22.5522C14.9754 23.0067 14.6064 23.373 14.1528 23.373Z" fill="white"/>
<path d="M24.0033 13.5233C23.5488 13.5233 23.1807 13.157 23.1807 12.7025V9.41748C23.1807 8.96478 23.5488 8.59668 24.0033 8.59668C24.4578 8.59668 24.8241 8.96478 24.8241 9.41748V12.7016C24.8241 13.1561 24.4578 13.5233 24.0033 13.5233Z" fill="white"/>
<path d="M33.2846 32.6579C33.0758 32.6579 32.8661 32.5778 32.705 32.4167L30.3839 30.0947C30.0635 29.7752 30.0635 29.2541 30.3839 28.9328C30.7052 28.6124 31.2245 28.6142 31.5449 28.9346L33.866 31.2557C34.1873 31.577 34.1873 32.0981 33.866 32.4185C33.7058 32.5796 33.497 32.6579 33.2846 32.6579Z" fill="white"/>
<path d="M17.0372 16.4097C16.8284 16.4097 16.6178 16.3296 16.4558 16.1685L14.1365 13.8483C13.8152 13.527 13.8152 13.0059 14.1365 12.6846C14.4578 12.3642 14.9771 12.3642 15.2975 12.6846L17.6186 15.0057C17.9399 15.3261 17.9399 15.8481 17.6186 16.1685C17.4584 16.3296 17.2487 16.4097 17.0372 16.4097Z" fill="white"/>
<path d="M14.717 32.6568C14.5073 32.6568 14.2976 32.5785 14.1365 32.4174C13.8152 32.097 13.8152 31.5759 14.1365 31.2546L16.4594 28.9317C16.778 28.6113 17.2973 28.6113 17.6186 28.9317C17.9399 29.253 17.9399 29.7741 17.6186 30.0954L15.2975 32.4174C15.1364 32.5776 14.9276 32.6568 14.717 32.6568Z" fill="white"/>
<path d="M30.9649 16.4108C30.7552 16.4108 30.5455 16.3307 30.3835 16.1696C30.0649 15.8492 30.0649 15.329 30.3835 15.0086L32.7046 12.6875C33.0232 12.3671 33.5461 12.3653 33.8656 12.6857C34.1869 13.007 34.1869 13.5263 33.8656 13.8476L31.5463 16.1678C31.3861 16.3289 31.1764 16.4108 30.9649 16.4108Z" fill="white"/>
</svg>
