<svg width="48" height="48" viewBox="0 0 48 48" fill="none" xmlns="http://www.w3.org/2000/svg">
<rect width="48" height="48" rx="24" fill="#293F52"/>
<g clip-path="url(#clip0_1140_1522)">
<path d="M23.9952 31.8701C21.05 31.8701 18.6533 34.2668 18.6533 37.212C18.6533 37.6406 18.999 37.9909 19.4322 37.9909H28.572C29.0006 37.9909 29.3509 37.6453 29.3509 37.212C29.3371 34.2714 26.9404 31.8701 23.9952 31.8701ZM20.2803 36.4424C20.6398 34.7232 22.17 33.428 23.9952 33.428C25.8204 33.428 27.346 34.7232 27.7101 36.4424H20.2803Z" fill="white"/>
<path d="M23.9954 31.0815C25.4611 31.0815 26.6548 29.8924 26.6548 28.4221C26.6548 26.9564 25.4656 25.7627 23.9954 25.7627C22.5251 25.7627 21.3359 26.9518 21.3359 28.4221C21.3359 29.8924 22.5297 31.0815 23.9954 31.0815ZM23.9954 27.3252C24.5992 27.3252 25.097 27.8229 25.097 28.4267C25.097 29.0305 24.5992 29.5283 23.9954 29.5283C23.3916 29.5283 22.8938 29.0305 22.8938 28.4267C22.8938 27.8137 23.3916 27.3252 23.9954 27.3252Z" fill="white"/>
<path d="M15.3419 16.1113C12.3967 16.1113 10 18.508 10 21.4532C10 21.8818 10.3456 22.2321 10.7789 22.2321H19.9187C20.3473 22.2321 20.6976 21.8865 20.6976 21.4532C20.693 18.508 18.2917 16.1113 15.3419 16.1113ZM11.6362 20.6789C11.9957 18.9598 13.5213 17.6646 15.3419 17.6646C17.1671 17.6646 18.6927 18.9598 19.0568 20.6789H11.6362Z" fill="white"/>
<path d="M15.3423 15.3231C16.808 15.3231 18.0017 14.1339 18.0017 12.6637C18.0017 11.1934 16.808 10.0088 15.3423 10.0088C13.8766 10.0088 12.6875 11.1979 12.6875 12.6682C12.6875 14.1385 13.8767 15.3231 15.3423 15.3231ZM15.3423 11.5621C15.9461 11.5621 16.4439 12.0598 16.4439 12.6637C16.4439 13.2675 15.9461 13.7653 15.3423 13.7653C14.7385 13.7653 14.2407 13.2721 14.2407 12.6637C14.2407 12.0552 14.7386 11.5621 15.3423 11.5621Z" fill="white"/>
<path d="M32.6446 16.1113C29.6994 16.1113 27.3027 18.508 27.3027 21.4532C27.3027 21.8818 27.6484 22.2321 28.0816 22.2321H37.2214C37.65 22.2321 38.0003 21.8865 38.0003 21.4532C37.9865 18.508 35.5898 16.1113 32.6446 16.1113ZM28.9297 20.6789C29.2892 18.9598 30.8194 17.6646 32.6446 17.6646C34.4698 17.6646 35.9954 18.9598 36.3595 20.6789H28.9297Z" fill="white"/>
<path d="M32.6438 15.3231C34.1095 15.3231 35.3032 14.1339 35.3032 12.6637C35.3032 11.1934 34.1095 10.0088 32.6438 10.0088C31.1781 10.0088 29.9844 11.1979 29.9844 12.6682C29.9844 14.1385 31.1782 15.3231 32.6438 15.3231ZM32.6438 11.5621C33.2476 11.5621 33.7454 12.0598 33.7454 12.6637C33.7454 13.2675 33.2476 13.7653 32.6438 13.7653C32.04 13.7653 31.5422 13.2675 31.5422 12.6637C31.5422 12.0598 32.0308 11.5621 32.6438 11.5621Z" fill="white"/>
<path d="M27.7682 13.9913L26.1827 11.6822C25.9385 11.3273 25.4591 11.2397 25.1134 11.484L25.095 11.4932C24.7401 11.7374 24.6525 12.2167 24.8968 12.5625L25.3669 13.2446C23.5002 13.0004 21.5828 13.2493 19.8176 13.982L19.813 13.9867C19.4212 14.1526 19.2323 14.5997 19.3982 14.9961L19.4074 15.0053C19.5733 15.3971 20.0204 15.586 20.4168 15.4201L20.4214 15.4155C21.947 14.784 23.6109 14.5674 25.2241 14.7886L24.376 15.374C24.0257 15.6182 23.9335 16.0975 24.1778 16.4433L24.187 16.4617C24.4313 16.812 24.9107 16.9042 25.2563 16.6599L27.5655 15.0744C27.9203 14.8301 28.0171 14.3462 27.7682 13.9913Z" fill="white"/>
<path d="M18.3467 31.3856C17.0377 30.3808 16.0283 29.0488 15.4061 27.5417L16.3187 27.9749C16.7059 28.1639 17.1714 27.998 17.3557 27.6062C17.5447 27.219 17.3788 26.7535 16.987 26.5692L14.4704 25.3662C14.0833 25.1772 13.6177 25.3432 13.4334 25.7349L12.2305 28.2561C12.0414 28.6433 12.2074 29.1088 12.5992 29.2931C12.9863 29.4821 13.4519 29.3162 13.6362 28.9244L13.9957 28.1685C14.7239 29.9153 15.8854 31.4501 17.4018 32.6163C17.7429 32.8743 18.2268 32.8145 18.4941 32.4734C18.7523 32.1322 18.6878 31.6483 18.3467 31.3856Z" fill="white"/>
<path d="M34.0825 24.532C33.6585 24.4766 33.2667 24.7762 33.2114 25.2049C32.9948 26.841 32.3448 28.3805 31.3493 29.671L31.271 28.6616C31.2387 28.233 30.8654 27.9103 30.4321 27.9472C30.0035 27.9795 29.6809 28.3528 29.7177 28.7861L29.9389 31.5699C29.9712 31.9986 30.3446 32.3212 30.7778 32.2843L33.5617 32.0631C33.9903 32.0308 34.3129 31.6575 34.276 31.2242C34.2437 30.7956 33.8704 30.473 33.4372 30.5098L32.6168 30.5743C33.7644 29.0764 34.5065 27.2973 34.7554 25.403C34.8061 24.9699 34.5111 24.5873 34.0825 24.532Z" fill="white"/>
</g>
<defs>
<clipPath id="clip0_1140_1522">
<rect width="28" height="28" fill="white" transform="translate(10 10)"/>
</clipPath>
</defs>
</svg>
