<svg width="75" height="75" viewBox="0 0 75 75" fill="none" xmlns="http://www.w3.org/2000/svg">
<circle cx="37.5" cy="37.5" r="37.5" fill="#293F52"/>
<path d="M54.1105 26.6339C53.9239 26.5262 53.7122 26.4695 53.4967 26.4695C53.2812 26.4695 53.0694 26.5262 52.8828 26.6339L42.4107 31.827V27.6775C42.4101 27.4682 42.356 27.2625 42.2535 27.0801C42.151 26.8976 42.0036 26.7443 41.8253 26.6349C41.6469 26.5254 41.4435 26.4633 41.2344 26.4546C41.0253 26.4458 40.8175 26.4906 40.6306 26.5848L30.1339 31.827V22.7667C30.1339 22.4411 30.0046 22.1289 29.7743 21.8986C29.5441 21.6684 29.2319 21.5391 28.9062 21.5391H21.5402C21.2146 21.5391 20.9023 21.6684 20.6721 21.8986C20.4418 22.1289 20.3125 22.4411 20.3125 22.7667V53.4587H54.6875V27.6775C54.6879 27.4688 54.6352 27.2635 54.5342 27.0809C54.4332 26.8983 54.2874 26.7445 54.1105 26.6339ZM44.8661 51.0033H39.9554V42.4096H44.8661V51.0033ZM52.2321 51.0033H47.3214V41.1819C47.3214 40.8563 47.1921 40.5441 46.9618 40.3138C46.7316 40.0836 46.4193 39.9542 46.0938 39.9542H38.7277C38.4021 39.9542 38.0898 40.0836 37.8596 40.3138C37.6293 40.5441 37.5 40.8563 37.5 41.1819V51.0033H22.7679V23.9944H27.6786V35.8047L39.9554 29.6663V35.8047L52.2321 29.6663V51.0033Z" fill="white"/>
</svg>
