<svg width="75" height="75" viewBox="0 0 75 75" fill="none" xmlns="http://www.w3.org/2000/svg">
<circle cx="37.5" cy="37.5" r="37.5" fill="#293F52"/>
<g clip-path="url(#clip0_1012_851)">
<path d="M45.3124 26.5625C42.3436 28.4375 40.6249 31.875 40.6249 35.3125C40.6249 40.7813 42.6561 45.9375 46.2499 50L48.5936 52.5C50.3124 54.5313 48.9061 57.6562 46.2499 57.6562H28.9061C26.2499 57.6562 24.8436 54.5313 26.5624 52.5L28.9061 50C32.4999 45.9375 34.5311 40.625 34.5311 35.3125C34.5311 31.7188 32.8124 28.4375 29.8436 26.5625H45.3124Z" stroke="white" stroke-width="2.34375" stroke-miterlimit="10" stroke-linecap="round" stroke-linejoin="round"/>
<path d="M42.1875 14.0625V15.625" stroke="white" stroke-width="2.34375" stroke-miterlimit="10" stroke-linecap="round" stroke-linejoin="round"/>
<path d="M32.8125 15.625V17.1875" stroke="white" stroke-width="2.34375" stroke-miterlimit="10" stroke-linecap="round" stroke-linejoin="round"/>
<path d="M37.5 20.3125V21.875" stroke="white" stroke-width="2.34375" stroke-miterlimit="10" stroke-linecap="round" stroke-linejoin="round"/>
<path d="M28.125 51.5625H46.875" stroke="white" stroke-width="2.34375" stroke-miterlimit="10" stroke-linecap="round" stroke-linejoin="round"/>
</g>
<defs>
<clipPath id="clip0_1012_851">
<rect width="50" height="50" fill="white" transform="translate(12.5 12.5)"/>
</clipPath>
</defs>
</svg>
